<svg width="300" height="207" viewBox="0 0 300 207" fill="none" xmlns="http://www.w3.org/2000/svg">
<path opacity="0.6" d="M170.537 195.43C170.071 196.18 169.751 197.011 169.594 197.88C171.871 197.978 170.733 199.02 169.839 199.277C167.097 200.061 170.17 205.795 165.494 204.422C164.074 204.006 164.759 202.474 165.224 200.955C165.885 198.799 162.776 197.01 161.626 197.709C156.497 200.943 150.364 197.709 145.101 201.066C141.979 203.087 142.347 198.395 141.098 196.447C139.311 205.758 130.963 198.799 126.409 202.156C125.834 201.764 126.018 200.6 126.054 199.436C126.091 198.272 128.307 196.986 126.581 195.761C125.1 194.756 123.484 195.491 122.284 196.876C120.375 199.081 117.621 200.184 115.846 202.634C114.377 204.643 112.822 203.173 111.402 200.882C109.701 198.138 107.644 195.05 103.752 194.646C100.973 194.364 97.8152 197.096 95.4037 192.71C94.8162 191.632 90.7278 195.847 91.4255 197.243C93.2739 200.919 90.8747 200.38 88.9774 200.698C85.6724 201.262 82.3674 201.739 79.0502 202.266C78.9645 201.347 80.6415 200.71 79.5888 199.816C79.2216 199.497 78.0587 199.755 77.4712 200.11C76.0757 200.98 77.3855 201.69 77.7894 202.45C77.6688 202.732 77.6144 203.038 77.6303 203.344L76.7489 204.275L71.9874 204.9C73.089 201.017 72.428 200.22 67.3481 199.191C68.7191 195.822 72.9421 194.732 73.8846 190.995C71.7915 190.15 69.3556 192.808 67.3114 190.113C65.2672 187.418 62.4764 191.473 60.065 189.341C57.372 186.891 56.5764 190.64 55.1687 191.571C52.5737 193.286 55.8542 193.764 56.3928 194.916C57.115 196.68 55.1687 195.504 54.7158 196.067C52.6838 195.271 50.6641 194.242 48.4853 195.467C48.167 195.651 47.91 196.753 48.118 196.974C48.771 197.812 49.66 198.435 50.6702 198.762C51.6804 199.09 52.7655 199.107 53.7855 198.811C57.5434 203.859 63.7616 203.957 67.495 198.958C70.5674 201.96 68.156 203.859 66.1241 205.844C59.5631 204.618 52.9164 209.286 46.539 205.464C50.9824 203.981 49.5135 199.914 48.4118 197.758C46.4655 193.96 47.2612 190.946 48.8525 187.638C50.5295 186.928 52.9531 186.548 50.4682 183.963L51.6923 182.456C52.6104 182.174 53.0388 182.713 53.3448 183.448L54.5689 184.441C60.5178 186.499 64.5083 185.176 65.9649 180.692C66.528 178.965 66.8585 177.09 64.2757 177.556C59.5141 178.438 54.9484 176.686 50.2724 177.017L49.6114 176.012L49.183 176.343C49.5747 176.527 49.9664 176.723 50.407 176.906C48.4241 182.897 46.1718 177.592 44.0297 177.066C43.6222 177.096 43.2131 177.096 42.8056 177.066C41.5815 176.882 41.5815 176.208 42.4139 175.608C48.9871 171.001 41.9488 170.952 40.2473 170.168C38.35 169.286 35.8651 170.168 33.8087 171.148C30.6017 172.606 29.5734 169.58 29.145 168.049C28.533 165.844 31.0423 165.599 32.5479 165.954C35.9631 166.726 36.3303 164.569 36.4404 162.279C36.6118 158.603 33.2211 162.585 32.7682 160.233C36.3425 155.332 35.143 152.955 28.3127 152.11C27.8149 152.073 27.3267 151.953 26.8682 151.755C27.0518 145.997 21.7516 145.703 18.6548 143.081C15.5579 140.459 13.8319 137.85 14.1747 132.19C14.5052 126.799 17.8469 127.106 19.9278 124.153C17.7734 123.724 15.8516 123.308 13.9054 122.928C12.8527 122.756 11.0778 123.798 10.9799 122.009C10.8819 120.22 12.8772 120.184 14.1625 120.245C14.9091 116.802 8.50725 119.853 10.5514 115.638C12.2774 112.061 6.87924 106.303 14.0278 104.429C14.8602 104.429 15.6313 104.196 15.3865 103.204C15.1417 102.211 14.3828 102.199 13.5749 102.628L13.1097 102.53C13.379 99.7365 10.9431 100.276 9.51098 99.3444C6.89148 97.6293 7.06286 97.372 5.09212 100.08C3.51307 102.223 1.8361 103.375 -4.664e-06 100.3C0.856842 94.7625 3.99045 91.1239 9.79253 89.274C7.27095 86.8238 5.12881 89.176 3.07238 89.0657C3.5008 86.4685 7.06283 84.3736 4.29644 81.2618C7.54022 76.4838 8.36034 70.052 14.089 66.9769C14.4273 66.7411 14.7069 66.4307 14.9064 66.0696C15.1059 65.7085 15.2199 65.3064 15.2396 64.8943C14.652 56.6125 21.1029 54.2113 26.6846 51.222C30.4303 49.2128 31.8012 47.2771 33.4782 42.7442C33.7965 41.8866 34.5554 38.7871 38.0072 39.7427C40.6879 40.49 43.9685 39.1791 46.9674 38.6401C47.8243 38.4931 49.2319 38.3705 48.7178 36.8514C48.4118 35.9448 47.9222 34.9157 46.6369 35.0015C44.4214 35.1607 40.5166 37.5497 42.8056 31.9755C41.2266 32.098 39.6352 32.098 38.0807 32.3675C37.1014 32.539 36.012 33.2251 35.9386 31.5957C35.9386 30.3706 37.1627 30.1745 38.0685 29.7948C40.7981 28.5696 44.3724 32.4533 46.6369 28.3981C47.6651 28.3981 48.6811 28.3981 48.9014 27.0505C51.5821 24.7963 56.0745 27.6508 58.694 23.4977C55.2911 23.2527 52.0228 24.4655 49.5012 21.9663C50.1378 14.9954 56.1479 14.6156 60.885 12.8759C62.8361 12.3413 64.848 12.0613 66.8707 12.0429C68.3396 11.9203 69.8819 9.99691 71.2406 11.8346C72.5994 13.6723 70.9836 15.2649 70.396 16.9188L70.1512 16.9801C69.6616 16.6003 69.1475 15.5712 68.5355 16.5758C67.9234 17.5804 68.7925 17.7274 69.5759 17.8009C70.188 19.026 70.8 19.4058 71.6079 17.9112C73.557 17.3921 75.4773 16.7706 77.361 16.049C78.2913 15.6324 79.8826 15.0444 78.9767 13.4763C78.4994 12.6554 78.9767 10.0949 76.5286 11.6753C75.7575 12.1776 74.6313 11.6753 74.8639 10.8177C75.7942 7.30166 79.7602 9.07809 81.7921 7.03215C83.0162 5.80703 84.2403 6.43184 84.5463 8.46553C84.7499 10.4468 85.1602 12.4013 85.7703 14.2971C87.2025 18.5237 90.6666 19.8346 94.449 17.6661C95.0732 17.3109 95.9913 16.8821 96.1014 16.343C96.7747 13.0842 101.952 8.28176 105.343 7.76722C105.839 7.69619 106.345 7.78643 106.785 8.02464C107.226 8.26284 107.579 8.63642 107.791 9.09034C109.48 13.268 111.941 11.6876 114.879 10.6462C119.775 8.91882 118.551 7.11791 115.16 4.70443C117.755 4.99847 119.04 6.62786 120.265 8.25726C121.648 10.0949 123.68 10.7075 125.393 9.66615C126.009 9.18348 126.501 8.56007 126.827 7.84812C127.153 7.13619 127.303 6.35646 127.266 5.57426C126.862 3.12403 124.328 4.59417 121.917 4.15313C126.262 -1.05359 132.934 1.70291 134.427 2.92802C139.323 7.32618 141.771 2.24195 145.174 1.6049C147.733 3.92036 148.846 1.82542 150.071 8.699e-06C151.919 1.73966 157.978 -1.71517 155.983 4.79018C157.586 5.29247 159.459 6.55434 160.769 6.1133C163.462 5.20672 161.54 2.69524 161.613 0.833077C162.776 -0.294029 163.854 0.918831 164.931 0.906578C165.494 0.906578 166.057 0.796334 166.62 0.747322C166.412 0.747322 166.045 0.747322 166.02 0.894326C165.783 1.43284 165.69 2.02406 165.751 2.60947C167.232 6.52984 172.801 7.69372 177.832 5.16998C181.615 6.66462 185.005 10.3645 189.608 7.31393C191.652 6.81164 193.048 4.60642 195.459 5.07197C197.124 7.81623 202.51 6.29708 202.412 11.2956C202.412 12.3736 201.8 15.2894 205.239 14.3461C207.749 13.66 209.842 11.5283 209.927 10.1317C210.148 6.24807 207.479 10.4379 206.121 9.31086C205.202 8.52679 206.121 7.87748 205.79 7.22816C206.439 4.44715 209.462 4.20212 210.992 2.43796C211.669 1.99879 212.381 1.61765 213.122 1.29862C213.575 1.1516 214.738 1.20061 214.089 2.04593C211.029 6.06431 217.296 4.03063 216.868 6.29708C215.387 7.52219 211.825 6.21132 212.376 9.1271C212.988 12.4349 216.525 9.81315 217.064 9.51913C223.441 6.06429 228.998 7.24042 234.69 11.1608C236.257 12.2389 238.705 11.418 239.587 8.95557C239.837 8.97043 240.08 9.04462 240.295 9.17199C240.511 9.29937 240.693 9.47628 240.827 9.68813C240.961 9.89997 241.043 10.1407 241.066 10.3904C241.088 10.64 241.051 10.8915 240.957 11.124C238.167 17.5191 242.463 17.9969 246.894 18.4747L246.772 18.4747C247.154 19.525 247.745 20.4866 248.509 21.3011C249.274 22.1157 250.196 22.7661 251.219 23.213C252.243 23.6599 253.346 23.8938 254.463 23.9006C255.58 23.9075 256.686 23.687 257.715 23.2526C259.061 22.7381 260.408 21.5007 261.179 23.3384C262.281 25.9969 259.465 25.2373 258.388 26.0337C257.311 26.83 254.214 25.5926 255.047 28.0551C255.805 30.2725 257.58 28.3859 258.866 27.6018C263.199 24.931 267.973 28.8882 271.779 27.0382C266.822 32.7228 273.579 34.1316 276.211 37.0842C275.219 38.9953 271.988 36.2266 271.547 39.6569C273.199 39.6569 274.778 41.7274 276.504 39.4731C277.3 39.3874 278.096 39.2894 278.891 39.1914C278.891 39.9509 279.246 40.2695 279.993 40.1347C283.775 46.346 286.848 39.6079 290.263 39.3506C291.328 39.2771 291.732 38.2725 292.711 39.7672C294.168 41.9601 291.866 41.0658 291.56 41.6416C290.336 43.9938 287.068 46.052 291.377 49.127C293.703 50.7809 290.863 52.7044 289.271 53.905C286.725 55.8161 283.481 57.4333 288.647 60.1776C289.871 60.7901 289.431 61.7089 287.521 63.4241C282.625 67.8223 282.625 67.7488 288.402 69.9294C289.553 70.3705 290.704 71.1546 289.737 73.1637C288.647 75.4057 289.994 76.5696 292.393 76.4593C293.225 77.8314 290.765 77.9172 291.34 79.1791L291.952 80.3307C289.932 81.5558 288.929 84.0918 290.459 85.3536C293.152 87.5588 292.907 83.5405 294.351 82.6216C294.584 82.4746 294.51 81.8621 294.584 81.47C295.664 83.013 296.846 84.4823 298.121 85.8682C302.785 90.3888 297.191 94.738 298.036 99.1729C297.62 99.1729 297.105 98.9524 296.812 99.1729C294.474 100.606 287.496 98.8789 292.515 105.74C293.066 106.487 288.684 110.983 286.395 113.629C282.564 118.199 277.251 120.894 272.477 124.263C270.935 125.354 268.217 125.709 268.805 128.343C269.393 130.977 271.559 132.116 274.925 131.896C272.012 133.77 268.058 133.452 268.107 137.703C268.107 138.548 267.275 138.928 266.394 139.063C264.692 139.271 267.165 134.334 263.529 136.796C261.779 138.021 262.366 140.337 260.947 141.39C259.126 142.57 257.237 143.641 255.291 144.6C252.929 145.972 249.648 147.05 254.41 149.868C256.026 150.824 253.186 151.939 253.7 153.286C254.251 156.324 252.096 157.145 249.881 157.77C247.665 158.395 248.02 160.086 247.922 161.58C247.922 161.911 248.767 162.315 249.22 162.683C251.387 159.865 258.021 161.066 256.344 154.769C257.314 154.699 258.28 154.944 259.1 155.467C259.92 155.99 260.55 156.763 260.898 157.672C260.499 160.506 260.632 163.389 261.289 166.174C259.906 166.493 258.364 167.399 257.176 167.044C252.28 165.648 248.204 167.975 244.409 169.997C238.289 173.231 231.251 171.369 225.24 174.713C221.458 176.808 221.238 176.429 223.772 179.749C224.298 180.447 224.371 181.586 223.49 181.66C220.075 181.978 217.725 186.303 212.975 183.032C210.784 181.513 204.701 179.442 201.702 185.004C200.478 187.283 198.617 188.839 198.911 184.257C198.89 183.892 198.763 183.541 198.546 183.247C198.328 182.953 198.03 182.729 197.687 182.603C195.765 185.2 190.685 182.799 190.024 187.418C189.926 188.116 190.404 189.758 188.543 189.17C186.682 188.582 184.871 187.945 185.434 184.674C184.21 188.704 184.381 192.833 178.432 190.211C177.208 189.66 173.536 194.119 170.353 195.393C171.161 194.462 173.034 194.646 172.801 192.612C172.373 193.984 167.991 191.24 170.537 195.43ZM15.6191 75.7365C10.172 76.7778 5.45933 76.8146 8.3726 83.5037C11.3291 81.4791 13.8033 78.8271 15.6191 75.7365ZM26.4643 61.4884C29.8795 61.9172 31.7155 59.6753 33.9923 58.5114C35.094 57.9601 35.5224 56.98 34.8614 56.0612C34.5242 55.6705 34.0527 55.421 33.5403 55.362C33.0279 55.303 32.512 55.4388 32.095 55.7426C29.7327 57.1121 27.7865 59.098 26.4643 61.4884ZM296.714 98.0336C296.346 98.6706 295.783 99.2587 295.894 99.5772C296.027 99.8153 296.215 100.018 296.443 100.167C296.671 100.316 296.932 100.408 297.203 100.435C297.395 100.468 297.591 100.447 297.771 100.375C297.951 100.302 298.107 100.181 298.222 100.024C298.336 99.8671 298.405 99.6814 298.42 99.4877C298.434 99.2941 298.395 99.1001 298.305 98.9279C298.109 98.4991 297.338 98.3888 296.714 98.0336Z" fill="url(#paint0_linear_24_24422)"/>
<defs>
<linearGradient id="paint0_linear_24_24422" x1="-4.52413e-06" y1="103.5" x2="300" y2="103.5" gradientUnits="userSpaceOnUse">
<stop stop-color="#F6D8B6"/>
<stop offset="1" stop-color="#F6D8B6" stop-opacity="0"/>
</linearGradient>
</defs>
</svg>
