<svg width="103" height="119" viewBox="0 0 103 119" fill="none" xmlns="http://www.w3.org/2000/svg">
<path d="M102.419 98.2006C102.646 98.3317 102.724 98.622 102.593 98.8491L100.457 102.549C100.326 102.776 100.035 102.854 99.8082 102.723C99.5811 102.592 99.5034 102.301 99.6344 102.074L101.533 98.7855L98.2444 96.8867C98.0174 96.7556 97.9396 96.4653 98.0707 96.2382C98.2018 96.0112 98.4921 95.9334 98.7191 96.0645L102.419 98.2006ZM1.41088 19.8672C16.1622 45.3913 28.8448 60.8994 38.7622 70.6224C48.6752 80.3411 55.8323 84.2887 59.5927 86.7053L59.0794 87.5039C55.3346 85.0974 48.0921 81.0989 38.0976 71.3003C28.1075 61.5061 15.3746 45.9258 0.588894 20.3422L1.41088 19.8672ZM59.5927 86.7053C63.3125 89.0958 70.5833 92.8682 78.6171 95.5859C86.6696 98.31 95.3904 99.94 102.059 98.1532L102.305 99.0702C95.3507 100.934 86.4013 99.2215 78.3129 96.4853C70.2057 93.7427 62.8648 89.9366 59.0794 87.5039L59.5927 86.7053Z" fill="#36332F"/>
</svg>
