<svg width="100" height="115" viewBox="0 0 100 115" fill="none" xmlns="http://www.w3.org/2000/svg">
<path d="M0.770814 94.7498C0.551601 94.8764 0.476492 95.1567 0.603053 95.3759L2.66554 98.9483C2.7921 99.1675 3.07241 99.2426 3.29163 99.116C3.51085 98.9895 3.58596 98.7091 3.4594 98.4899L1.62607 95.3145L4.80148 93.4812C5.0207 93.3546 5.0958 93.0743 4.96924 92.8551C4.84268 92.6359 4.56236 92.5608 4.34315 92.6873L0.770814 94.7498ZM98.2971 19.1166C84.0542 43.7609 71.8089 58.7344 62.2333 68.1223C52.662 77.5059 45.7516 81.3175 42.1209 83.6507L42.6165 84.4219C46.2322 82.0983 53.225 78.2376 62.875 68.7768C72.5207 59.3202 84.8147 44.277 99.0908 19.5753L98.2971 19.1166ZM42.1209 83.6507C38.5293 85.9588 31.5092 89.6012 23.7522 92.2253C15.9773 94.8555 7.55713 96.4292 1.1186 94.704L0.881355 95.5895C7.59544 97.3885 16.2364 95.7355 24.046 93.0936C31.8737 90.4456 38.9616 86.7706 42.6165 84.4219L42.1209 83.6507Z" fill="#36332F"/>
</svg>
