<svg width="14" height="44" viewBox="0 0 14 44" fill="none" xmlns="http://www.w3.org/2000/svg">
<path d="M0.120896 42.8989C0.0838507 42.9805 0.119996 43.0767 0.201628 43.1137L1.53191 43.7174C1.61354 43.7545 1.70975 43.7183 1.7468 43.6367C1.78384 43.5551 1.7477 43.4589 1.66607 43.4218L0.483593 42.8852L1.02021 41.7027C1.05726 41.6211 1.02111 41.5249 0.93948 41.4878C0.857847 41.4508 0.761639 41.4869 0.724593 41.5686L0.120896 42.8989ZM12.6187 1.01574C13.5963 11.0487 13.156 17.8849 12.3333 22.5622C11.5109 27.2373 10.3064 29.7593 9.74169 31.1796L10.0434 31.2996C10.6057 29.8851 11.8239 27.332 12.653 22.6184C13.4818 17.9069 13.9217 11.0406 12.9418 0.984251L12.6187 1.01574ZM9.74169 31.1796C9.18307 32.5846 7.91208 35.0805 6.21901 37.435C4.522 39.795 2.42145 41.9838 0.211621 42.814L0.325793 43.1179C2.6302 42.2521 4.77801 39.9951 6.48258 37.6246C8.19109 35.2486 9.47489 32.7293 10.0434 31.2996L9.74169 31.1796Z" fill="#36332F"/>
</svg>
