<svg width="2631" height="207" viewBox="0 0 2631 207" fill="none" xmlns="http://www.w3.org/2000/svg">
<path d="M1495.61 195.43C1491.52 196.18 1488.71 197.011 1487.34 197.88C1507.31 197.978 1497.33 199.02 1489.49 199.277C1465.44 200.061 1492.39 205.794 1451.38 204.422C1438.93 204.006 1444.94 202.474 1449.02 200.955C1454.82 198.799 1427.55 197.01 1417.46 197.709C1372.48 200.943 1318.7 197.709 1272.53 201.066C1245.16 203.087 1248.38 198.395 1237.43 196.447C1221.76 205.758 1148.54 198.799 1108.61 202.156C1103.56 201.764 1105.17 200.6 1105.5 199.436C1105.82 198.272 1125.25 196.986 1110.11 195.761C1097.12 194.756 1082.95 195.491 1072.43 196.876C1055.69 199.081 1031.53 200.183 1015.97 202.634C1003.08 204.643 989.451 203.173 976.998 200.882C962.076 198.138 944.041 195.05 909.904 194.646C885.535 194.364 857.839 197.096 836.691 192.71C831.538 191.632 795.683 195.847 801.802 197.243C818.012 200.919 796.971 200.38 780.332 200.698C751.347 201.262 722.362 201.739 693.27 202.266C692.519 201.347 707.226 200.71 697.994 199.816C694.773 199.497 684.575 199.755 679.422 200.11C667.184 200.98 678.671 201.69 682.213 202.45C681.156 202.732 680.678 203.038 680.818 203.344L673.088 204.275L631.329 204.9C640.991 201.017 635.194 200.22 590.643 199.191C602.666 195.822 639.702 194.732 647.968 190.995C629.611 190.15 608.249 192.808 590.321 190.113C572.393 187.418 547.918 191.473 526.77 189.341C503.152 186.891 496.175 190.64 483.829 191.571C461.071 193.286 489.841 193.764 494.564 194.916C500.898 196.68 483.829 195.504 479.857 196.067C462.037 195.271 444.324 194.242 425.216 195.467C422.425 195.651 420.17 196.753 421.995 196.974C427.722 197.812 435.518 198.435 444.378 198.762C453.237 199.09 462.753 199.107 471.699 198.811C504.655 203.859 559.189 203.957 591.931 198.958C618.876 201.96 597.728 203.859 579.908 205.844C522.368 204.618 464.077 209.286 408.147 205.464C447.115 203.981 434.233 199.914 424.572 197.758C407.503 193.96 414.481 190.946 428.436 187.638C443.143 186.928 464.399 186.548 442.606 183.963L453.342 182.456C461.393 182.174 465.15 182.713 467.834 183.448L478.569 184.441C530.741 186.499 565.738 185.176 578.512 180.692C583.451 178.965 586.349 177.09 563.698 177.556C521.939 178.438 481.897 176.686 440.889 177.017L435.092 176.012L431.335 176.343C434.77 176.527 438.205 176.723 442.07 176.906C424.679 182.897 404.927 177.592 386.14 177.066C382.567 177.096 378.979 177.096 375.405 177.066C364.67 176.882 364.67 176.208 371.97 175.608C429.617 171.001 367.891 170.952 352.969 170.168C336.33 169.286 314.537 170.168 296.502 171.148C268.377 172.606 259.359 169.58 255.602 168.049C250.234 165.844 272.241 165.599 285.445 165.954C315.396 166.726 318.617 164.569 319.583 162.279C321.086 158.603 291.35 162.585 287.378 160.233C318.724 155.332 308.204 152.955 248.302 152.11C243.936 152.073 239.655 151.953 235.634 151.755C237.245 145.997 190.762 145.703 163.602 143.081C136.443 140.459 121.306 137.85 124.312 132.19C127.21 126.799 156.517 127.106 174.767 124.153C155.873 123.724 139.019 123.308 121.95 122.928C112.718 122.756 97.1523 123.798 96.2935 122.009C95.4347 120.22 112.933 120.184 124.205 120.245C130.753 116.802 74.6086 119.853 92.5362 115.638C107.673 112.061 60.331 106.303 123.024 104.429C130.324 104.429 137.087 104.196 134.94 103.204C132.793 102.211 126.137 102.199 119.052 102.628L114.972 102.53C117.334 99.7365 95.9713 100.276 83.4113 99.3445C60.4383 97.6293 61.9414 97.3721 44.6579 100.08C30.8097 102.224 16.1026 103.375 -4.664e-06 100.3C7.51454 94.7626 34.9963 91.124 85.8805 89.2741C63.7663 86.8238 44.9797 89.1761 26.9448 89.0658C30.7021 86.4686 61.9411 84.3736 37.6798 81.2618C66.1278 76.4839 73.3203 70.052 123.56 66.977C126.527 66.7412 128.98 66.4307 130.729 66.0697C132.479 65.7086 133.478 65.3065 133.651 64.8943C128.499 56.6126 185.072 54.2113 234.024 51.2221C266.874 49.2129 278.897 47.2772 293.604 42.7443C296.395 41.8867 303.051 38.7872 333.324 39.7428C356.833 40.4901 385.603 39.1792 411.904 38.6402C419.419 38.4931 431.764 38.3706 427.255 36.8515C424.572 35.9449 420.278 34.9158 409.006 35.0016C389.576 35.1608 355.331 37.5498 375.405 31.9755C361.557 32.0981 347.601 32.0981 333.968 32.3676C325.38 32.5391 315.825 33.2252 315.181 31.5958C315.181 30.3707 325.917 30.1746 333.861 29.7948C357.8 28.5697 389.146 32.4533 409.006 28.3982C418.023 28.3982 426.933 28.3982 428.866 27.0506C452.375 24.7964 491.773 27.6509 514.746 23.4978C484.903 23.2527 456.24 24.4656 434.126 21.9664C439.708 14.9955 492.417 14.6157 533.962 12.876C551.073 12.3414 568.717 12.0614 586.457 12.0429C599.339 11.9204 612.865 9.99701 624.781 11.8347C636.696 13.6724 622.526 15.265 617.373 16.9189L615.226 16.9802C610.932 16.6004 606.424 15.5713 601.056 16.5759C595.689 17.5805 603.311 17.7275 610.181 17.801C615.549 19.0261 620.916 19.4059 628.001 17.9112C645.095 17.3922 661.936 16.7706 678.456 16.0491C686.614 15.6325 700.57 15.0445 692.626 13.4763C688.44 12.6555 692.626 10.095 671.156 11.6754C664.393 12.1777 654.517 11.6754 656.557 10.8178C664.715 7.30176 699.497 9.07817 717.317 7.03224C728.052 5.80713 738.787 6.43193 741.471 8.46562C743.257 10.4469 746.855 12.4014 752.206 14.2972C764.766 18.5238 795.146 19.8347 828.318 17.6662C833.792 17.3109 841.843 16.8821 842.81 16.3431C848.714 13.0843 894.123 8.28185 923.86 7.76729C928.208 7.69628 932.642 7.7865 936.507 8.02471C940.372 8.26291 943.465 8.63649 945.33 9.09043C960.144 13.2681 981.722 11.6876 1007.49 10.6463C1050.43 8.91888 1039.69 7.11798 1009.95 4.70452C1032.71 4.99854 1043.98 6.62793 1054.72 8.25734C1066.85 10.095 1084.67 10.7076 1099.7 9.66623C1105.1 9.18356 1109.41 8.56013 1112.27 7.8482C1115.13 7.13626 1116.45 6.35652 1116.12 5.57432C1112.58 3.12411 1090.36 4.59425 1069.21 4.15321C1107.32 -1.05352 1165.83 1.70298 1178.92 2.92809C1221.86 7.32626 1243.34 2.24203 1273.18 1.60497C1295.61 3.92043 1305.38 1.82549 1316.12 7.97997e-05C1332.33 1.73973 1385.47 -1.7151 1367.97 4.79025C1382.03 5.29254 1398.46 6.55441 1409.94 6.11337C1433.56 5.20679 1416.71 2.69531 1417.35 0.833144C1427.55 -0.293962 1437 0.918898 1446.44 0.906645C1451.38 0.906644 1456.32 0.796384 1461.26 0.747388C1459.43 0.747388 1456.21 0.747388 1456 0.894391C1453.91 1.4329 1453.1 2.02411 1453.64 2.60954C1466.62 6.5299 1515.47 7.69377 1559.59 5.17004C1592.76 6.66468 1622.5 10.3645 1662.86 7.31398C1680.79 6.81168 1693.03 4.60648 1714.17 5.07202C1728.77 7.81627 1776.01 6.29713 1775.15 11.2956C1775.15 12.3737 1769.78 15.2894 1799.95 14.3461C1821.95 13.66 1840.31 11.5283 1841.06 10.1317C1843 6.24812 1819.59 10.438 1807.68 9.3109C1799.63 8.52682 1807.68 7.87751 1804.78 7.22821C1810.47 4.4472 1836.98 4.20217 1850.4 2.43801C1856.34 1.99884 1862.59 1.6177 1869.08 1.29867C1873.05 1.15165 1883.25 1.20066 1877.56 2.04598C1850.72 6.06436 1905.69 4.03066 1901.93 6.29713C1888.94 7.52224 1857.7 6.21136 1862.53 9.12713C1867.9 12.4349 1898.93 9.81318 1903.65 9.51916C1959.58 6.06434 2008.32 7.24047 2058.23 11.1608C2071.97 12.2389 2093.44 11.4181 2101.17 8.95561C2103.37 8.97047 2105.5 9.04465 2107.39 9.17203C2109.28 9.29941 2110.88 9.47632 2112.06 9.68816C2113.23 9.90001 2113.95 10.1407 2114.14 10.3904C2114.34 10.6401 2114.02 10.8915 2113.2 11.124C2088.72 17.5191 2126.4 17.9969 2165.26 18.4747L2164.19 18.4747C2167.54 19.525 2172.72 20.4866 2179.43 21.3011C2186.13 22.1157 2194.22 22.7661 2203.19 23.213C2212.17 23.6599 2221.85 23.8939 2231.64 23.9007C2241.43 23.9075 2251.14 23.687 2260.16 23.2527C2271.97 22.7381 2283.78 21.5007 2290.54 23.3384C2300.2 25.9969 2275.51 25.2374 2266.06 26.0337C2256.62 26.83 2229.46 25.5926 2236.76 28.0551C2243.41 30.2726 2258.98 28.3859 2270.25 27.6018C2308.25 24.9311 2350.12 28.8882 2383.51 27.0383C2340.03 32.7228 2399.29 34.1317 2422.37 37.0842C2413.67 38.9953 2385.33 36.2266 2381.47 39.6569C2395.96 39.6569 2409.81 41.7274 2424.94 39.4732C2431.92 39.3874 2438.9 39.2894 2445.88 39.1914C2445.88 39.9509 2448.99 40.2695 2455.54 40.1347C2488.71 46.346 2515.65 39.6079 2545.61 39.3506C2554.94 39.2771 2558.49 38.2725 2567.08 39.7672C2579.85 41.9601 2559.67 41.0658 2556.98 41.6416C2546.25 43.9938 2517.59 46.052 2555.37 49.127C2575.77 50.7809 2550.87 52.7044 2536.91 53.905C2514.58 55.8161 2486.13 57.4333 2531.44 60.1775C2542.17 60.7901 2538.31 61.7089 2521.56 63.4241C2478.62 67.8222 2478.62 67.7487 2529.29 69.9294C2539.38 70.3705 2549.47 71.1546 2540.99 73.1637C2531.44 75.4057 2543.24 76.5695 2564.28 76.4593C2571.58 77.8314 2550.01 77.9172 2555.05 79.179L2560.42 80.3306C2542.71 81.5558 2533.9 84.0917 2547.32 85.3536C2570.94 87.5588 2568.79 83.5404 2581.46 82.6216C2583.5 82.4746 2582.86 81.862 2583.5 81.47C2592.97 83.013 2603.34 84.4823 2614.52 85.8681C2655.43 90.3888 2606.37 94.738 2613.77 99.1729C2610.12 99.1729 2605.61 98.9524 2603.04 99.1729C2582.53 100.606 2521.34 98.8788 2565.36 105.739C2570.19 106.487 2531.76 110.983 2511.68 113.629C2478.08 118.199 2431.49 120.894 2389.63 124.263C2376.1 125.354 2352.27 125.709 2357.42 128.343C2362.57 130.977 2381.57 132.116 2411.1 131.896C2385.55 133.77 2350.87 133.452 2351.3 137.703C2351.3 138.548 2344 138.928 2336.27 139.063C2321.35 139.271 2343.04 134.334 2311.15 136.796C2295.8 138.021 2300.95 140.337 2288.5 141.39C2272.53 142.57 2255.97 143.641 2238.9 144.6C2218.19 145.972 2189.42 147.05 2231.18 149.868C2245.35 150.824 2220.44 151.938 2224.95 153.286C2229.78 156.324 2210.89 157.145 2191.46 157.77C2172.03 158.395 2175.14 160.085 2174.28 161.58C2174.28 161.911 2181.69 162.315 2185.66 162.683C2204.66 159.865 2262.84 161.066 2248.14 154.769C2256.64 154.699 2265.12 154.944 2272.31 155.467C2279.5 155.99 2285.03 156.763 2288.07 157.672C2284.58 160.506 2285.75 163.389 2291.51 166.174C2279.38 166.493 2265.85 167.399 2255.44 167.044C2212.5 165.648 2176.75 167.975 2143.47 169.997C2089.79 173.231 2028.07 171.369 1975.36 174.713C1942.19 176.808 1940.26 176.429 1962.48 179.749C1967.09 180.447 1967.74 181.586 1960.01 181.66C1930.06 181.978 1909.45 186.303 1867.79 183.032C1848.58 181.513 1795.22 179.442 1768.92 185.004C1758.19 187.283 1741.87 188.839 1744.45 184.257C1744.27 183.892 1743.15 183.541 1741.25 183.247C1739.34 182.953 1736.72 182.729 1733.71 182.603C1716.86 185.2 1672.31 182.799 1666.51 187.418C1665.65 188.116 1669.84 189.758 1653.52 189.17C1637.2 188.582 1621.32 187.945 1626.25 184.674C1615.52 188.704 1617.02 192.833 1564.85 190.211C1554.11 189.66 1521.91 194.119 1494 195.393C1501.08 194.462 1517.51 194.646 1515.47 192.612C1511.71 193.984 1473.28 191.24 1495.61 195.43ZM136.979 75.7366C89.2082 76.7779 47.8783 76.8147 73.4278 83.5038C99.3562 81.4792 121.055 78.8272 136.979 75.7366ZM232.092 61.4885C262.043 61.9173 278.145 59.6753 298.113 58.5115C307.774 57.9602 311.531 56.9801 305.734 56.0613C302.777 55.6706 298.642 55.4211 294.148 55.3621C289.654 55.3031 285.131 55.4389 281.473 55.7427C260.756 57.1121 243.688 59.0981 232.092 61.4885ZM2602.18 98.0335C2598.96 98.6706 2594.02 99.2586 2594.99 99.5772C2596.15 99.8152 2597.81 100.018 2599.81 100.167C2601.81 100.316 2604.09 100.408 2606.47 100.435C2608.15 100.468 2609.87 100.447 2611.45 100.375C2613.03 100.302 2614.4 100.181 2615.41 100.024C2616.41 99.8671 2617.01 99.6814 2617.14 99.4877C2617.27 99.294 2616.92 99.1001 2616.13 98.9278C2614.42 98.4991 2607.65 98.3888 2602.18 98.0335Z" fill="#F6D8B6"/>
</svg>
