<svg width="28" height="28" viewBox="0 0 28 28" fill="none" xmlns="http://www.w3.org/2000/svg">
<path d="M14 24.6666C8.11996 24.6666 3.33329 19.88 3.33329 14C3.33329 8.11996 8.11996 3.33329 14 3.33329C19.88 3.33329 24.6666 8.11996 24.6666 14C24.6666 19.88 19.88 24.6666 14 24.6666ZM14 0.666626C6.62663 0.666626 0.666626 6.62663 0.666626 14C0.666626 21.3733 6.62663 27.3333 14 27.3333C21.3733 27.3333 27.3333 21.3733 27.3333 14C27.3333 6.62663 21.3733 0.666626 14 0.666626ZM17.4533 8.66663L14 12.12L10.5466 8.66663L8.66663 10.5466L12.12 14L8.66663 17.4533L10.5466 19.3333L14 15.88L17.4533 19.3333L19.3333 17.4533L15.88 14L19.3333 10.5466L17.4533 8.66663Z" fill="#F6D8B6"/>
</svg>
