<svg width="109" height="67" viewBox="0 0 109 67" fill="none" xmlns="http://www.w3.org/2000/svg">
<path d="M82.2678 44.3807L82.2289 44.1856C82.9399 43.9578 83.6402 43.6965 84.3626 43.52C85.1028 43.3275 85.8561 43.1893 86.6164 43.1066C88.3657 42.9335 90.0254 42.3634 91.7052 41.9088C94.2901 41.2197 96.9359 40.7836 99.6053 40.6067C101.014 40.5084 102.431 40.5811 103.97 40.5816L104.048 39.3924C101.296 39.3625 98.6422 38.9751 95.99 39.4422C95.801 39.4735 95.6104 39.491 95.423 39.536C93.8634 39.927 92.3096 40.3327 90.7272 40.7056C89.0351 41.1131 87.3412 41.5292 85.6311 41.8751C84.7858 42.0435 83.8901 41.9877 83.0565 42.1852C82.051 42.4175 81.203 42.0515 80.3058 41.6661C80.9077 41.5754 81.5115 41.4761 82.115 41.399C83.2245 41.2642 84.3362 41.1611 85.4441 41.0126C86.281 40.9048 87.1172 40.779 87.9403 40.6104C90.2621 40.1491 92.5413 39.6788 94.8261 39.1607C96.8034 38.6328 98.7342 37.9443 100.599 37.1022C101.228 36.8435 101.258 36.5519 100.776 35.7425C100.465 35.8459 100.137 35.9635 99.8168 36.0693C97.398 36.8215 94.9783 37.5706 92.5578 38.3165C92.0806 38.4693 91.5621 38.5865 91.0547 38.6928C90.5473 38.7992 90.113 38.9387 89.6928 38.4851C89.573 38.3575 89.267 38.3951 89.0711 38.3537C88.4202 38.3185 87.7459 38.3094 87.1138 38.2693C86.7948 38.2507 86.4804 38.1843 86.1812 38.0722C88.9522 37.906 91.6832 37.5712 94.48 37.1568L94.3467 36.1455C93.9834 36.0912 93.616 36.0686 93.2488 36.0781C92.2487 36.2004 91.2573 36.3868 90.2555 36.5176C89.6656 36.5932 89.0622 36.5857 88.4681 36.6604C87.4158 36.7983 86.3672 36.9815 85.314 37.1237C84.966 37.1703 84.6076 37.1613 84.2565 37.1805C83.7687 37.2153 83.2785 37.2407 82.7931 37.285C82.0668 37.3539 81.3447 37.4237 80.6121 37.5225C80.2322 37.539 79.8535 37.5748 79.4773 37.6296C78.4102 37.8568 77.3141 37.9149 76.229 37.8017C75.4156 37.7598 74.6002 37.816 73.8003 37.9691C72.7711 38.0738 71.7353 38.0973 70.7025 38.0395C68.7622 37.9716 66.8195 38.0564 64.8924 38.2931C65.0261 38.2042 65.1699 38.1315 65.3208 38.0766C66.9211 37.7172 68.5532 37.5182 70.193 37.4826C71.6339 37.4001 73.069 37.2407 74.5062 37.1129C75.7297 37.0067 76.9475 36.8859 78.1735 36.7891C79.259 36.6934 80.334 36.5023 81.386 36.218C81.5043 35.9603 81.5472 35.6743 81.5098 35.3932C81.4724 35.1121 81.3561 34.8474 81.1745 34.6296C81.0413 34.6451 80.9094 34.6707 80.7801 34.7064C79.941 35.0251 79.0476 35.1764 78.1503 35.1516C77.5305 35.1579 76.9141 35.2445 76.3165 35.4091C73.993 35.8623 71.6262 36.0545 69.26 35.982C69.2717 35.9266 69.2503 35.8598 69.2924 35.8287C69.4563 35.6008 69.8603 35.4148 69.5804 35.0977C69.4581 34.9606 69.0821 34.9924 68.8418 35.035C67.0135 35.4137 65.153 35.2919 63.3098 35.4674C61.4666 35.6428 59.7237 35.3012 57.9273 35.2552C57.0433 35.2285 56.1984 34.8898 55.1934 34.6774C56.7367 34.2162 58.1528 34.3775 59.5621 34.4663C60.4843 34.5232 61.403 34.6596 62.3303 34.7132C63.2577 34.7668 64.2922 34.7764 65.2729 34.7879C65.5571 34.7901 65.8302 34.7188 65.8428 34.3434C65.8554 33.9679 65.59 33.9607 65.3437 33.9265C64.2638 33.7739 63.1938 33.5744 62.101 33.5037C58.8645 33.3046 55.6345 33.0535 52.423 32.5883C51.7607 32.4712 51.1061 32.3135 50.4631 32.1163C51.6744 31.9302 52.9101 31.9784 54.1032 32.2583C54.7347 32.4273 55.3672 32.5921 56.006 32.7271C56.1295 32.7532 56.3891 32.6613 56.3993 32.5923C56.4308 32.4432 56.3774 32.1695 56.2764 32.1214C55.9508 31.9887 55.6127 31.8889 55.2672 31.8236C54.0748 31.5717 52.8827 31.2975 51.7005 30.9764C52.5881 30.9861 53.4734 30.6705 54.4225 31.0001C55.3644 31.2693 56.3318 31.4395 57.3091 31.5078C59.2869 31.7478 61.2634 31.952 63.2442 32.1571C64.9863 32.334 66.7648 32.5275 68.5278 32.6687C69.228 32.7233 69.9373 32.6507 70.6405 32.6703C72.2751 32.6821 73.9061 32.711 75.5228 32.7234C75.9052 32.7387 76.2883 32.7169 76.6665 32.6582C76.8701 32.6211 77.0422 32.4173 77.2297 32.2879C77.1063 32.0957 76.9639 31.9166 76.8044 31.7531C76.6635 31.6729 76.5078 31.6219 76.3468 31.603C74.5366 31.0959 72.7195 30.6007 70.9138 30.0723C70.262 29.8743 69.6229 29.6367 69 29.3609C67.288 28.6209 65.4616 28.5063 63.6428 28.3977C61.0628 28.2361 58.4959 27.9091 55.9578 27.4187C55.6695 27.3566 55.3917 27.2529 55.1332 27.1109C53.3826 26.1745 51.6352 25.2299 49.8911 24.277C48.3949 23.4954 46.9766 22.573 45.6554 21.5224C44.8937 20.9165 44.0475 20.3951 43.233 19.8494C42.4186 19.3036 41.4641 18.7682 40.6455 18.137C39.3553 17.1481 37.9139 16.3274 36.7916 15.1338C36.4515 14.8201 36.0764 14.5468 35.6736 14.3192C34.7581 13.7254 33.8296 13.151 32.9294 12.5693C32.1011 12.0472 31.2996 11.4819 30.4453 10.9989C30.1204 10.8031 29.7601 10.6734 29.385 10.617C29.0099 10.5606 28.6274 10.5788 28.2593 10.6704C26.6769 11.0433 25.0595 11.3287 23.5028 11.7693C22.392 12.0555 21.2213 12.0062 20.1384 11.6277C19.0654 11.3164 17.9888 11.0222 16.9191 10.716C16.6763 10.6647 16.4486 10.5632 16.2129 10.5001C15.2247 10.229 14.677 9.57936 14.2442 8.63821C13.5462 7.12053 13.0143 5.55343 12.4706 3.97938C12.0409 2.74973 11.5068 1.5514 10.9949 0.268789C10.6679 0.511081 10.3593 0.307969 10.0105 0.590145C9.37239 1.10478 9.28579 1.53578 9.5163 2.31852C10.4547 5.53968 11.6121 8.693 12.9802 11.7565C13.5807 13.1246 14.2078 14.4938 14.744 15.8928C15.1362 16.9971 15.3417 18.1591 15.352 19.331C15.3547 20.6982 15.0555 22.0492 14.4758 23.2875C13.9601 24.555 13.7569 25.928 13.8833 27.2906C13.946 28.0467 13.9351 28.814 14.0199 29.5704C14.1165 30.7426 14.5255 31.8675 15.2043 32.828C16.1108 34.1217 16.861 35.5181 17.4392 36.9882C17.9615 38.1954 18.7552 39.2659 19.7586 40.1164C21.4056 41.5478 23.2547 42.7285 25.2461 43.6205C26.1373 44.0135 27.0853 44.285 27.9965 44.6466C28.2542 44.7267 28.4928 44.8589 28.6974 45.035C29.4343 45.6436 30.0716 46.3637 30.5863 47.1691C30.8051 47.5465 31.0967 47.8765 31.4443 48.1402C31.7918 48.4038 32.1883 48.5956 32.6106 48.7046C33.8603 49.1066 35.0582 49.6267 36.2764 50.0933C36.7585 50.2752 37.239 50.4435 37.7959 50.6501C36.8609 51.538 35.4535 51.9034 35.1909 53.4405C36.4899 53.4615 37.684 53.4736 38.8754 53.4985C39.3175 53.5119 39.7514 53.5635 40.1961 53.5641C40.909 53.5591 41.0437 53.3428 40.9146 52.6483C40.7763 51.8717 40.6883 51.0879 40.5825 50.3048C40.578 50.1489 40.5856 49.9929 40.6054 49.8382C41.1099 50.314 41.5386 50.6849 41.9328 51.0929C42.549 51.7347 42.7297 51.764 43.5459 51.2069C43.487 51.0707 43.4127 50.9416 43.3247 50.8221C42.1974 49.6096 41.0874 48.3785 39.9204 47.2066C39.3293 46.6146 38.6303 46.1332 37.9883 45.5927C37.6567 45.3091 37.3458 45.0121 37.0282 44.7047C36.6285 44.265 36.1604 43.8926 35.6419 43.6021C35.1879 43.3055 34.7912 42.9292 34.4708 42.4916C34.0607 42.0535 33.661 41.6087 33.2897 41.1343C33.0573 40.8322 32.8957 40.4819 32.8168 40.109C33.2465 40.4756 33.6528 40.8685 34.1094 41.1918C35.5681 42.1952 36.9355 43.3253 38.1957 44.5689C38.7275 45.1261 39.2294 45.6771 39.7483 46.2316C41.1271 47.7063 42.4342 49.2682 44.1526 50.3565C45.7237 51.3424 47.2894 52.354 49.1418 52.7455C49.2823 52.7948 49.4181 52.8562 49.5479 52.9291C50.0731 52.3595 50.0557 52.1468 49.4313 51.7968C48.5328 51.2911 47.6082 50.8243 46.7218 50.3033C46.2424 50.0008 45.7821 49.6688 45.3438 49.3092C44.5225 48.6908 43.6927 48.0705 42.9043 47.4013C42.1378 46.7581 41.5195 45.9567 41.092 45.052C41.3338 45.2687 41.5881 45.471 41.8537 45.6578C43.477 46.7126 45.0993 47.7717 46.7486 48.7876C47.4167 49.2046 48.1535 49.5071 48.8538 49.8775C49.2436 50.0724 49.6207 50.2918 49.9828 50.5343C51.7975 51.8433 53.7271 52.9851 55.7479 53.9458C56.4216 54.2371 57.1097 54.4939 57.8096 54.7152C58.2716 54.8325 58.7593 54.7949 59.1979 54.6082L59.2402 54.4081C58.3721 54.0111 57.4953 53.6345 56.648 53.2018C55.8008 52.7692 55.0137 52.3048 54.2026 51.8487C54.1745 51.8304 54.1453 51.8138 54.1152 51.7991C53.7884 51.6721 53.4706 51.5232 53.164 51.3534C51.998 50.5554 50.7787 49.7994 49.677 48.9082C48.4847 47.94 47.1918 47.0484 46.3448 45.7306C46.7082 45.9897 47.0594 46.2642 47.4358 46.5039C48.8151 47.387 50.1764 48.2708 51.5884 49.1253C52.1714 49.4799 52.7818 49.7874 53.4138 50.0449C55.4425 50.8651 57.3717 51.8823 59.3167 52.8672C61.2491 53.883 63.2742 54.7117 65.3643 55.342C66.0689 55.5443 66.7708 55.7593 67.4485 56.0049C68.0824 56.1746 68.7513 56.1617 69.3781 55.9678C69.4757 55.9484 69.5482 55.7947 69.7106 55.6154L67.0492 54.6526C65.4626 54.0771 63.8645 53.5347 62.2902 52.9217C61.7105 52.6969 61.1678 52.3598 60.6074 52.0857C59.5137 51.5565 58.3912 51.079 57.3296 50.5032C55.8846 49.7431 54.5249 48.8308 53.2736 47.7821C53.2364 47.7475 53.2269 47.6877 53.1593 47.5444C53.262 47.56 53.3619 47.5902 53.4562 47.6338C56.1671 49.5413 59.2517 50.5224 62.3274 51.5461C65.9805 52.763 69.7261 53.648 73.4586 54.5525C74.3455 54.7073 75.2428 54.7958 76.1429 54.8172C76.251 54.8362 76.3622 54.8136 76.4544 54.7541C76.607 54.6279 76.7198 54.4601 76.7789 54.271C76.8329 54.0155 76.6056 53.9541 76.3517 53.9138C74.897 53.682 73.4379 53.4715 72.0064 53.1512C70.3286 52.7966 68.6919 52.2684 67.0204 51.884C65.5069 51.5296 64.0322 51.0258 62.6183 50.3798C61.4457 49.8579 60.3634 49.1532 59.4117 48.2919C59.1547 48.0228 58.9181 47.7349 58.7041 47.4306C58.9229 47.4056 59.0258 47.3606 59.0587 47.3943C59.9595 48.163 61.0979 48.2701 62.1795 48.4987C62.7118 48.6112 63.2522 48.6854 63.7845 48.7978C64.5569 48.9511 65.3066 49.2023 66.0155 49.5452C67.8641 50.4883 69.8874 51.04 71.9588 51.166C74.0294 51.2595 76.0867 51.5453 78.1043 52.0199C78.3876 52.0872 78.6673 52.1686 78.9425 52.2637C79.9959 52.6476 81.1128 52.8278 82.2335 52.7946C84.301 52.7155 86.3698 52.6723 88.4416 52.5941C88.9574 52.5741 89.4697 52.4867 89.9824 52.4393C90.3404 52.4082 90.5445 52.2422 90.5469 51.8735C90.5492 51.5048 90.2722 51.0681 89.9086 51.0624C89.3359 51.0571 88.7595 51.0687 88.189 51.0949C86.6653 51.1689 85.1416 51.2428 83.6168 51.3431C82.3347 51.4325 81.0465 51.3194 79.7995 51.008C77.3587 50.4301 74.8693 50.0812 72.3637 49.9659C70.1679 49.831 68.1938 49.1736 66.693 47.4551C66.5711 47.2808 66.461 47.0985 66.3634 46.9095C66.5809 46.9332 66.7075 46.9021 66.7633 46.9539C67.3801 47.4944 68.1417 47.8425 68.954 47.9552C71.7304 48.542 74.4836 49.1549 77.2794 49.6924C78.8277 50.0347 80.4231 50.1101 81.9967 49.9153C84.0171 49.6172 86.0143 49.1762 88.0354 48.896C88.7098 48.8482 89.3873 48.9235 90.0347 49.1183C91.6525 49.5047 93.2479 49.9754 94.8638 50.3702C96.0277 50.6518 97.206 50.8652 98.377 51.1127C98.6812 51.1434 98.9875 51.1456 99.2921 51.1192C99.5882 49.3179 99.4974 49.579 98.1775 49.3623C96.3786 49.0755 94.5919 48.689 92.8004 48.346C92.5364 48.2902 92.2636 48.2548 91.9944 48.2024C91.8075 48.1665 91.6227 48.12 91.4411 48.0632C91.2559 47.9796 91.0772 47.8824 90.9064 47.7723C92.4743 47.3297 94.0807 47.0376 95.704 46.8999C97.2759 46.7873 98.8478 46.7591 100.57 46.6917C100.618 46.466 100.691 46.121 100.728 45.7774C98.2971 45.0924 95.7172 45.1482 93.3183 45.9376C91.8174 46.43 90.2983 46.8608 88.7744 47.2727C88.3746 47.3536 87.9632 47.3573 87.5621 47.2835C86.9739 47.2036 86.3865 47.0573 85.8076 46.9127C84.3788 46.5796 82.9485 46.2328 81.5224 45.8869C81.4756 45.877 81.4411 45.8297 81.3013 45.7334C82.0379 45.7423 82.672 45.7518 83.3104 45.7621C86.1568 45.8076 88.9766 45.4738 91.8003 45.2475C93.5165 45.112 95.2314 45.0103 96.9451 44.9424C98.9324 44.8641 100.811 44.3314 102.681 43.7969C102.647 42.8199 102.48 42.6423 101.637 42.762C100.938 42.8679 100.245 43.0328 99.5452 43.143C99.122 43.2093 98.6867 43.2062 98.2542 43.2528C95.7902 43.5239 93.3322 43.8719 90.8598 44.0567C88.5275 44.2311 86.1807 44.2423 83.8417 44.3218C83.3232 44.3546 82.7964 44.3634 82.2678 44.3807ZM33.316 43.5777L38.4945 47.7861L38.4407 47.8726C38.3427 47.8475 38.2471 47.8139 38.1549 47.7722C37.046 47.1463 35.932 46.5239 34.8309 45.8819C34.6434 45.7702 34.487 45.6132 34.3758 45.4254C34.0172 44.8069 33.6805 44.2108 33.316 43.5777ZM26.4734 36.8867C27.6314 37.0068 30.5723 39.826 31.0007 41.1666C30.3202 40.787 29.6003 40.4257 28.9041 39.9939C26.6736 38.655 27.0689 39.0367 26.4471 37.0324C26.4388 37.0084 26.4536 36.9804 26.4734 36.8867ZM19.7459 29.9042C20.1116 30.4263 20.3805 30.8168 20.6794 31.1914C21.547 32.2644 22.4567 33.3064 23.2779 34.4097C23.8816 35.2579 24.3382 36.213 24.8584 37.1193L24.7135 37.2577C24.5313 37.1812 24.3594 37.0821 24.2019 36.9627C23.7737 36.5475 23.3505 36.1288 22.962 35.673C22.005 34.5811 21.031 33.4855 20.1552 32.3039C19.6704 31.6721 19.6075 30.8536 19.7459 29.9042ZM39.1554 22.2618C38.1138 22.1173 37.118 22.0091 36.1313 21.8362C35.3019 21.6898 34.481 21.4985 33.6722 21.2631C32.4069 20.8313 31.1977 20.2502 30.07 19.532C29.0892 18.9327 27.9788 18.5775 26.8323 18.4964C24.963 18.3949 23.0923 18.1953 21.2503 18.8915C21.2216 18.0802 20.8655 17.618 20.109 17.5559C19.9435 16.9916 20.4999 16.3796 19.8639 15.916C19.3329 15.5235 18.7651 15.7683 18.1693 15.767C18.2438 15.4419 18.1991 15.1009 18.0435 14.806C17.8879 14.511 17.6316 14.2817 17.3212 14.1597C17.1593 14.0991 17.0278 13.9771 16.9553 13.8202C16.8827 13.6633 16.8748 13.4841 16.9334 13.3215C17.9765 13.88 18.9837 14.3554 19.9274 14.9418C20.7784 15.4772 21.7683 15.7498 22.7734 15.7257C24.1812 15.7162 25.5985 15.8512 27.0039 15.9791C27.8115 16.0519 28.6103 16.2297 29.4111 16.3767C30.4289 16.5918 31.2284 17.2501 32.0755 17.7672C34.4593 19.223 36.8056 20.7509 39.1554 22.2618ZM46.5292 26.7339C44.0645 26.1241 41.6334 25.5658 39.0977 25.6083C37.3843 25.6166 35.6793 25.3702 34.0384 24.8772C32.7825 24.505 31.7737 23.7001 30.4916 22.9888C30.7169 22.9468 30.9443 22.9176 31.1729 22.9014C32.5594 22.9265 33.9436 23.0231 35.3201 23.1907C37.6575 23.5852 39.9527 24.1983 42.1754 25.022C42.8607 25.2736 43.5621 25.6176 44.3515 25.4819C44.4864 25.4944 44.6146 25.5463 44.7203 25.631C45.3473 25.9904 45.9484 26.3665 46.5505 26.7385L46.5292 26.7339ZM51.3352 29.6314C50.4089 29.5954 49.4862 29.4955 48.5736 29.3325C46.3166 28.8555 44.0749 28.3061 41.8072 27.8803C40.048 27.553 38.2582 27.3704 36.481 27.1283C36.3055 27.1146 36.1293 27.1116 35.9535 27.1192L35.9886 26.9531C40.3438 26.7689 44.697 27.3591 48.8459 28.6961L49.1942 27.9956C49.9375 28.562 50.7494 28.9515 51.3566 29.6359L51.3352 29.6314ZM79.171 40.0472L79.1312 39.8564C79.7847 39.4935 80.509 39.2762 81.2543 39.2197C81.91 39.2114 82.5653 39.1631 83.218 39.1898C84.1285 39.2176 85.0325 39.2975 85.9444 39.3612L85.9138 39.5059L79.171 40.0472ZM78.3643 46.3272C80.0424 46.8064 81.7562 47.3065 83.4505 47.7936C83.7869 47.8647 84.1276 47.9367 84.4586 48.0333L84.4163 48.2335C83.5646 48.3693 82.716 48.5325 81.8621 48.6368C81.4051 48.6812 80.9447 48.6808 80.4878 48.6355C79.8131 48.5863 79.1454 48.4408 78.4702 48.436C77.2399 48.3918 76.0414 48.0329 74.9893 47.3934C74.4543 47.1396 74.0049 46.7355 73.6959 46.2303C74.9805 46.7086 76.393 46.7155 77.6822 46.2498C77.9198 46.2157 78.1622 46.2439 78.3856 46.3317L78.3643 46.3272Z" fill="#AC6719"/>
<path d="M59.9636 33.8925C61.2366 33.9525 62.515 33.9869 63.7911 34.0741C64.2724 34.135 64.7491 34.2284 65.2179 34.3534C65.1562 34.4203 65.0806 34.4728 64.9965 34.5072C64.9123 34.5417 64.8217 34.5573 64.7308 34.553C63.5094 34.4595 62.2881 34.366 61.0694 34.2597C59.1419 34.097 57.2106 33.889 55.2994 34.1969C53.3882 34.5048 51.4455 34.8772 49.521 35.2267C49.3336 35.2622 49.1518 35.3225 48.9804 35.4061C48.25 35.7678 47.5264 36.1398 46.796 36.5014C46.1786 36.8318 45.4951 37.0196 44.7956 37.0512C44.0961 37.0827 43.3983 36.9571 42.7537 36.6837C42.2379 36.4723 41.6389 36.2123 41.5764 35.3717C41.8278 35.4208 42.0751 35.4894 42.316 35.5769C43.2875 36.0132 44.3272 36.278 45.389 36.3598C45.6625 36.3548 45.9344 36.3182 46.1995 36.2508L46.2048 36.0784C45.7084 35.8801 45.2103 35.6903 44.7208 35.4801C44.2314 35.2699 43.7031 35.265 43.2835 34.8294C43.5639 34.6867 43.8763 34.6184 44.1906 34.6311C44.505 34.6438 44.8108 34.737 45.0788 34.9018C45.9415 35.318 46.8979 35.5017 47.8534 35.4348C48.0336 35.4239 48.3049 35.2767 48.3611 35.1373C48.4451 34.8659 48.1622 34.815 47.9496 34.7478C47.2129 34.5076 46.4729 34.2622 45.7116 34.0124C45.7679 33.8787 45.8748 33.7728 46.009 33.7178C46.1432 33.6628 46.2937 33.6632 46.4276 33.7188C47.1058 33.92 47.7885 34.0998 48.4561 34.3299C49.2269 34.6099 50.0451 34.7359 50.8644 34.701C51.1044 34.6779 51.3368 34.6042 51.5463 34.4847C51.6261 34.4438 51.6666 34.2522 51.655 34.1385C51.6435 34.0248 51.522 33.968 51.4301 33.9397C51.3382 33.9114 51.2183 33.9528 51.1125 33.9482C49.9732 33.8759 48.8544 33.6108 47.8038 33.1644C48.7051 32.9882 49.6301 32.9699 50.5377 33.1105C52.2457 33.2802 53.9435 33.5189 55.6518 33.6664C57.076 33.7894 58.5106 33.8212 59.9636 33.8925ZM52.2263 31.6879C50.9662 31.1458 42.1622 30.5575 40.9459 30.861C42.0146 31.3404 43.0221 31.7935 44.0576 32.2615C43.9359 32.4486 43.747 32.5818 43.5299 32.6336C43.3128 32.6855 43.0841 32.6519 42.891 32.5399C41.927 32.0915 40.9455 31.6839 39.9788 31.2483C39.7061 31.1283 39.4545 30.9506 39.1263 31.3039L42.353 33.1068C42.1349 33.2842 41.8675 33.3903 41.5871 33.4106C41.3067 33.4309 41.0268 33.3645 40.7854 33.2204C40.2505 32.9517 39.7271 32.6498 39.1828 32.3835C38.7848 32.1867 38.376 32.0127 37.9584 31.8622C37.8652 31.8352 37.767 31.8307 37.6717 31.8493C37.5765 31.8679 37.487 31.9089 37.4109 31.969C37.9285 32.2563 38.4521 32.536 38.9576 32.8386C39.4631 33.1411 39.9641 33.465 40.5524 33.8385C38.7672 34.4132 37.5429 33.1757 35.9697 32.5363C36.1794 33.0943 36.587 33.5557 37.1149 33.8327C38.2469 34.4638 39.568 34.6672 40.8374 34.4058C42.9405 34.083 44.9698 33.3897 46.8309 32.3583C47.3126 32.099 47.8455 31.9489 48.3918 31.9185C49.4726 31.8355 50.5427 31.5501 51.6379 31.7148C51.8344 31.7277 52.0317 31.7186 52.2263 31.6879ZM45.6501 30.0935C46.8055 30.2398 47.9612 30.3847 49.1171 30.5282C49.2337 30.5251 49.3494 30.5078 49.4617 30.4764C48.2396 30.0482 46.933 29.9169 45.6501 30.0935ZM52.3126 30.2693C47.2959 29.3929 42.2812 28.5141 37.2686 27.6327L37.2034 27.8146C37.8881 28.1951 38.5805 28.5817 39.3085 28.9891C39.1393 29.1794 38.9087 29.3044 38.6568 29.3422C38.405 29.38 38.1479 29.3283 37.9302 29.196C37.061 28.741 36.17 28.3258 35.28 27.9064C35.0425 27.8062 34.7991 27.7206 34.5512 27.65L34.4502 27.8333L37.2289 29.8619C36.5109 30.1862 35.9647 29.8661 35.432 29.629C34.8993 29.3918 34.4385 29.0676 33.9361 28.7924C33.6566 28.6261 33.3488 28.5128 33.0281 28.4581C33.6253 29.1092 34.2816 29.7036 34.9884 30.2336C34.8094 30.3535 34.5999 30.4198 34.3845 30.4247C34.1691 30.4297 33.9567 30.373 33.7724 30.2614C32.86 29.7794 31.9276 29.3288 31.0065 28.8672C30.8835 28.8159 30.7577 28.7715 30.6298 28.7342C30.7352 29.5617 31.2957 29.9826 31.8435 30.4009C32.726 31.0177 33.8057 31.2855 34.8742 31.1526C35.5729 31.0847 36.2675 30.9806 36.9554 30.8406C37.5445 30.7472 38.1395 30.6683 38.7189 30.5371C39.5515 30.3439 40.3762 30.1044 41.2092 29.889C42.6896 29.5751 44.2083 29.4823 45.716 29.6136C47.6981 29.731 49.6685 29.9987 51.6102 30.4144C51.8403 30.4449 52.0724 30.4583 52.3046 30.4544L52.3126 30.2693ZM29.0701 15.0855C29.2872 15.1448 29.5076 15.1914 29.7301 15.225C29.2851 14.7922 28.751 14.4616 28.1651 14.2564C27.5793 14.0511 26.9557 13.9761 26.3379 14.0365C24.6167 14.1399 22.9087 14.5174 21.175 14.28C22.1937 14.7221 23.2565 14.6398 24.3007 14.6247C25.9004 14.6474 27.4956 14.8016 29.0701 15.0855ZM21.06 26.7384C21.5733 27.8811 22.2188 28.9597 22.9833 29.952C23.3915 30.4831 23.3745 30.4795 23.3771 31.4143C22.8572 30.9485 22.3863 30.5242 21.8834 30.0621C22.2537 31.2569 23.4046 31.8738 23.9039 33.1316L22.0785 31.7493C22.0842 32.2487 22.381 32.4227 22.5947 32.6324C23.4562 33.4612 24.1403 34.4564 24.6057 35.5575C25.0537 36.487 25.571 37.3815 26.1532 38.2335C26.2314 38.3256 26.3198 38.4085 26.4169 38.4805L26.5955 38.3091C26.3278 37.8077 26.0152 37.3502 25.7928 36.8449C25.3137 35.871 24.933 34.8517 24.6564 33.8022C24.3546 32.4305 24.3987 31.0429 24.2857 29.6622C24.167 28.5259 23.9458 27.4027 23.6247 26.3062C23.498 25.8003 23.2225 25.3439 22.834 24.9958C22.7161 24.8639 22.5592 24.7731 22.3861 24.7365C22.213 24.6999 22.0328 24.7195 21.8716 24.7924C22.0275 26.16 22.9717 27.2492 22.9569 28.6874C21.879 28.0415 21.4511 27.0346 21.0103 25.816C20.9455 25.96 20.9165 26.1176 20.9258 26.2752C20.935 26.4329 20.9823 26.586 21.0636 26.7214L21.06 26.7384ZM21.1042 29.2657L20.7969 28.8671L20.6826 28.9453L20.9521 29.3537L21.1042 29.2657ZM43.6588 26.3807C42.5603 26.2108 41.4465 26.1134 40.3368 26.039C38.7083 25.935 37.0743 26.0257 35.4484 25.7622C34.456 25.5975 33.489 25.3049 32.5717 24.8917C32.0017 24.6423 31.4667 24.3112 30.9053 24.0413C30.7033 23.9457 30.4815 23.8988 30.258 23.9045C31.055 24.7224 32.1135 25.1864 33.0244 25.9705C32.399 26.2565 31.8508 26.3453 31.3004 25.9398C30.8882 25.6737 30.4939 25.3808 30.12 25.0631C29.5157 24.5566 28.8047 24.1934 28.0401 24.0008C27.8837 23.9802 27.7258 23.9737 27.5682 23.9811C28.5261 24.8375 29.3554 25.5866 30.2194 26.3609C30.1604 26.4252 30.0893 26.4771 30.0102 26.5138C29.9311 26.5505 29.8455 26.5712 29.7584 26.5747C29.6712 26.5782 29.5842 26.5645 29.5024 26.5342C29.4206 26.504 29.3456 26.4578 29.2817 26.3985C28.6698 25.9889 28.0761 25.5565 27.473 25.1265C27.1334 24.8798 26.7597 24.6839 26.3636 24.5451C27.1025 25.4886 28.048 26.25 29.1274 26.7707C28.5042 27.0038 27.9897 27.0597 27.5201 26.7558C26.9241 26.3763 26.3578 25.9407 25.7966 25.5018C25.5155 25.2956 25.2421 25.0732 24.9298 24.8248C24.8992 24.9696 24.8241 25.0516 24.8458 25.0962C25.3628 26.2287 26.0697 27.1566 27.3901 27.4134C28.2737 27.6351 29.201 27.6127 30.0729 27.3487C30.3043 27.2656 30.5457 27.2134 30.7908 27.1934C32.4438 27.0336 34.084 26.7619 35.7003 26.3804C36.371 26.2637 37.0527 26.2228 37.7325 26.2582C40.0441 26.3481 42.344 26.6348 44.607 27.1149C45.6429 27.3072 46.6626 27.576 47.6965 27.799C47.7986 27.8111 47.9019 27.8105 48.0038 27.7972L48.029 27.678C47.2644 27.423 46.5024 27.1552 45.7308 26.912C45.0543 26.6838 44.3617 26.5063 43.6588 26.3807ZM25.6248 30.6303L26.0159 31.2424L26.1939 31.1154C26.0578 30.9176 25.9208 30.724 25.7855 30.5219L25.6248 30.6303ZM52.7744 29.6417C52.4067 29.4505 52.0564 29.2276 51.7274 28.9756C52.0036 29.3042 52.3558 29.5603 52.7535 29.7219C53.1512 29.8835 53.5823 29.9455 54.0093 29.9027C53.5908 29.8522 53.1776 29.7649 52.7744 29.6417ZM53.1707 51.5948C52.6184 51.2824 52.0609 50.9733 51.5077 50.665C53.2831 52.4104 56.934 54.4587 58.2308 54.2168C57.6616 53.963 57.1619 53.7595 56.6787 53.5195C56.1956 53.2795 55.756 53.0443 55.3081 52.785C54.8602 52.5257 54.488 52.2869 54.0794 52.0315L53.3975 51.7006C53.3263 51.6588 53.2541 51.6213 53.1828 51.5796L53.1707 51.5948ZM39.7758 45.2807C41.787 47.6365 43.9384 49.8127 46.667 51.3414C47.2236 51.6548 47.8071 51.9249 48.3785 52.2103L48.4883 52.0066C48.2347 51.8595 47.9871 51.7049 47.7316 51.5664C45.8339 50.6039 44.0995 49.3487 42.5922 47.8467C41.733 46.9444 41.0412 45.8818 40.2553 44.9061C39.3514 43.686 38.539 42.4006 37.825 41.0605C37.4658 40.3286 37.1636 39.5702 36.9209 38.7919C36.7804 38.4464 36.6211 38.1057 36.466 37.766C36.4369 37.6931 36.3754 37.6267 36.3727 37.555C36.3106 36.2073 35.428 35.3312 34.6327 34.4425C34.1289 33.9885 33.5484 33.6278 32.9182 33.3773C32.7504 33.284 32.5573 33.2465 32.3668 33.2703C32.1762 33.294 31.9981 33.3776 31.8583 33.5092C32.9081 34.8565 34.5332 35.587 35.3838 37.1191C33.9808 36.2221 32.4561 35.5217 31.1724 34.2495C30.9835 35.1438 31.5277 35.4945 31.9876 35.8231C32.9989 36.5528 34.0665 37.2055 35.109 37.893C35.2697 37.9717 35.4022 38.0981 35.4885 38.2548C35.5747 38.4115 35.6106 38.591 35.5912 38.7689C34.1256 38.2946 32.8974 37.4122 31.5776 36.7107C31.5005 37.286 31.5321 37.2838 32.1317 37.6463C33.2767 38.3331 34.4025 39.0471 35.5354 39.7491C35.7491 39.8808 35.9313 40.0577 36.0691 40.2675C36.2069 40.4773 36.2971 40.7147 36.3331 40.9632C35.7594 40.7307 35.2716 40.5342 34.7837 40.3377L34.7101 40.4333C34.9252 40.6467 35.1556 40.844 35.3994 41.0238C37.1465 42.1449 38.4551 43.7204 39.7794 45.2637L39.7758 45.2807ZM66.725 52.2083C66.4186 52.1214 66.1132 52.0301 65.8068 51.9431L65.7327 52.0832L66.6623 52.3997L66.725 52.2083ZM39.7034 42.1292C40.4214 43.531 46.8149 48.2631 50.1457 49.8478C49.4225 49.3124 48.8358 48.8681 48.2199 48.4354C47.2402 47.7348 46.3687 46.8941 45.6332 45.9403C44.9451 45.1342 44.3137 44.2813 43.7436 43.3878C43.2988 42.5185 42.9523 41.6022 42.7105 40.6561C42.4536 39.7916 42.0257 38.9876 41.4522 38.2918C40.8786 37.5959 40.1711 37.0223 39.3717 36.6051C39.2514 36.5435 39.1227 36.4998 38.9898 36.4754C38.8857 36.4667 38.781 36.4684 38.6773 36.4806C39.2716 37.5626 40.5698 38.0505 40.8821 39.3933C40.1199 39.2322 39.6729 38.6528 39.1552 38.2187C38.6375 37.7845 38.1853 37.293 37.6759 36.7983C37.6325 36.9988 37.6478 37.2076 37.72 37.3996C37.7923 37.5917 37.9184 37.7588 38.0833 37.8809L40.579 40.1122C40.863 40.3679 41.1652 40.6008 41.4225 40.8776C41.5882 41.073 41.7025 41.3066 41.7549 41.5573C40.5188 41.0915 39.5515 40.2376 38.5086 39.51L38.3868 39.6444C38.6142 39.9313 38.8639 40.1997 39.1335 40.4473C39.8952 41.0531 40.6999 41.6236 41.4823 42.216C41.699 42.3315 41.888 42.4927 42.0363 42.6884C42.1847 42.8841 42.2888 43.1097 42.3415 43.3495C42.3378 43.4298 42.3211 43.5089 42.292 43.5838C41.4285 43.081 40.5903 42.6058 39.707 42.1121L39.7034 42.1292ZM62.9582 50.9185L62.9528 50.944C62.9528 50.944 62.9784 50.9494 62.9912 50.9521L62.9582 50.9185ZM61.0175 36.0415C58.8181 35.9237 56.6187 35.8059 54.3092 35.6826C55.0571 36.5435 55.9723 36.6123 56.9953 36.6551C56.8529 36.8029 56.77 36.9633 56.6561 36.9971C55.805 37.2171 54.9035 37.1306 54.1098 36.7526C53.3755 36.4595 52.6427 36.18 51.9038 35.9082C51.7208 35.8536 51.5271 35.8447 51.3398 35.8825C51.8138 36.3732 52.3854 36.7592 53.0177 37.0156C53.6456 37.2402 54.2874 37.4234 54.9393 37.564C54.7654 37.6721 54.5685 37.7377 54.3646 37.7557C54.1606 37.7736 53.9554 37.7434 53.7653 37.6673C52.5021 37.3292 51.2435 36.9698 49.9831 36.6189C49.7607 36.5198 49.5167 36.4789 49.2741 36.5C49.0315 36.5211 48.7983 36.6035 48.5963 36.7396C50.2367 37.3976 51.774 38.0384 53.4759 38.2156C53.497 38.2838 53.5011 38.356 53.4878 38.4261C53.4744 38.4962 53.4441 38.5619 53.3994 38.6175C53.3547 38.6731 53.297 38.7168 53.2314 38.7449C53.1659 38.7729 53.0944 38.7844 53.0233 38.7784C52.5153 38.8609 51.9979 38.8699 51.4873 38.8052C50.559 38.609 49.6471 38.314 48.7296 38.0667C48.3974 37.9965 48.061 37.9254 47.5798 37.8237C49.3689 39.7143 51.0737 40.3415 53.4086 39.1445C54.2534 38.7047 55.1064 38.2889 55.9503 37.8533C56.2893 37.6803 56.6192 37.4875 56.9585 37.2923C57.2979 37.0971 57.465 36.8744 57.8417 37.0074C57.9269 37.0254 58.0563 36.9816 58.1507 36.9348C59.0471 36.4662 60.0185 36.1581 61.0211 36.0245L61.0175 36.0415ZM64.5116 51.5671C64.0067 51.367 63.4985 51.1617 62.9936 50.9616C63.0903 51.0932 63.1757 51.258 63.3056 51.3167C63.6872 51.4811 64.0999 51.5608 64.5152 51.5501L64.5116 51.5671ZM55.7704 45.2089C54.2924 45.0033 53.0711 44.1935 51.7508 43.6209C52.8057 44.5022 53.7809 45.4868 55.1534 45.897C55.4894 46.0063 55.8162 46.1423 56.1306 46.3037C56.2274 46.3509 56.2789 46.4863 56.4119 46.6568C54.5801 46.5677 53.112 45.7681 51.6597 44.9362L51.5853 45.0985C52.0271 45.4282 52.4919 45.7257 52.9765 45.9886C54.1587 46.5409 55.3706 47.0373 56.5695 47.5531C56.8924 47.6881 57.2613 47.7527 57.3213 48.2058C56.5474 48.0155 55.7863 47.828 55.0294 47.6414L54.9807 47.7245C55.1363 47.8389 55.2981 47.9444 55.4656 48.0405C57.6633 49.1912 59.9491 50.1652 62.3014 50.9532C62.5226 51.0222 62.7395 51.1748 62.9401 50.9413C61.2808 50.3727 59.7003 49.705 58.6487 48.2817C58.0048 47.404 57.4989 46.4329 57.1486 45.4023C56.8948 44.5943 56.4407 43.8637 55.8286 43.2785C55.2164 42.6934 54.4661 42.2726 53.6475 42.0555C53.0383 41.819 52.3863 41.7131 51.7337 41.7444C52.4255 42.3658 53.1636 42.9337 53.9415 43.4433C54.3815 43.7187 54.8303 43.9737 55.2634 44.2609C55.4308 44.3484 55.5687 44.4835 55.6595 44.6491C55.7504 44.8148 55.7902 45.0036 55.774 45.1918L55.7704 45.2089ZM58.2887 40.8076C57.5954 40.8286 56.9016 40.8083 56.2107 40.7465C55.5578 40.6575 54.944 40.4255 54.2667 40.3046C55.4453 41.5902 56.861 41.3111 58.2923 40.7905L58.2887 40.8076ZM58.652 38.3308C58.1379 38.1613 57.597 38.0877 57.0563 38.1137L57.0176 38.2968C57.5784 38.6043 58.1624 38.8675 58.7641 39.0841C59.3753 39.2061 59.9955 39.2777 60.6185 39.2981C60.4915 39.4458 60.3331 39.5632 60.1548 39.6418C59.9766 39.7204 59.783 39.758 59.5883 39.7521C58.576 39.7695 57.5729 39.5575 56.6543 39.132C56.1698 38.9406 55.6665 38.7542 55.2527 39.2807C55.2389 39.3281 55.2287 39.3765 55.2221 39.4255C56.2517 40.0116 57.4276 40.2909 58.6108 40.2306C58.7509 40.2202 58.9041 40.4216 59.1837 40.6141L62.1253 38.7357C61.3728 38.6968 60.7991 38.6957 60.2664 38.6275C59.7336 38.5594 59.1888 38.422 58.6556 38.3138L58.652 38.3308ZM75.1413 54.0626C74.0597 53.834 72.97 53.6438 71.8847 53.4322C72.8336 54.0153 74.3507 54.3093 75.1413 54.0626ZM66.3555 49.0518C68.0004 49.6886 69.575 50.5107 71.3917 50.65C73.0421 50.7763 74.6799 51.0468 76.328 51.2261C77.6219 51.412 78.9021 51.6826 80.1606 52.0361C80.8735 52.1924 81.5997 52.2803 82.3294 52.2987C83.2542 52.3429 84.1814 52.3342 85.1054 52.2981C85.8331 52.2651 86.5597 52.0894 87.286 52.105C88.103 52.1251 88.9157 51.9807 89.6757 51.6803C89.144 51.6702 88.6177 51.6346 88.0915 51.6613C86.3237 51.7326 84.5498 51.896 82.7786 51.9621C82.1245 51.9959 81.4688 51.9397 80.8299 51.7949C77.565 51.0351 74.255 50.4841 70.92 50.1455C69.6253 50.0144 68.3747 49.6031 67.2549 48.9401C66.1352 48.2771 65.1732 47.3783 64.4357 46.3061C63.7784 45.3307 62.9491 44.4831 61.9882 43.8048C61.156 43.2213 60.1631 42.9104 59.1467 42.9151C58.9905 42.9177 58.8364 42.9519 58.5526 42.9898C59.1324 43.4792 59.7832 43.8778 60.4826 44.1717C61.1049 44.4901 61.8951 44.5191 62.3074 45.2202C60.711 45.1004 59.1775 44.5471 57.8722 43.62L57.8811 44.3782C57.9906 44.428 58.0628 44.4655 58.1358 44.4987C58.5446 44.6697 58.9892 44.8392 59.4029 45.029C60.4255 45.4849 61.5072 45.7944 62.6162 45.9483C62.9441 46.0176 63.2768 46.0434 63.3533 46.46C62.2667 46.6129 60.3095 46.3594 58.5576 45.829C58.6807 46.3622 59.1121 46.489 59.5373 46.561C60.8539 46.7725 62.1741 46.967 63.4963 47.1308C63.7043 47.1377 63.9055 47.2062 64.0747 47.3274C64.2438 47.4487 64.3732 47.6173 64.4466 47.8121C63.8365 47.7943 63.2929 47.7773 62.7451 47.7594L62.7226 47.8659C63.4639 48.0626 64.2098 48.238 64.9397 48.4679C65.3937 48.635 65.8607 48.8672 66.3385 49.0482L66.3555 49.0518ZM89.6281 47.5063C90.5053 47.9231 90.5755 47.9067 91.448 47.0412C90.8659 47.1852 90.2966 47.3318 89.611 47.5027L89.6281 47.5063ZM75.1441 39.4407C75.4039 39.4956 75.6637 39.5505 76.003 39.5866C75.8157 39.7562 75.5888 39.8762 75.3431 39.9354C75.0975 39.9946 74.8409 39.9912 74.5968 39.9256C73.9764 39.83 73.3611 39.7312 72.738 39.6484C72.2524 39.5919 71.7617 39.696 71.3408 39.9448C72.2308 40.1329 72.9548 40.2859 73.7724 40.4587C73.5742 40.6839 73.3202 40.8531 73.036 40.9492C72.7518 41.0453 72.4473 41.0649 72.1531 41.0062C71.5847 40.9597 71.0212 40.8659 70.4684 40.7258C69.8997 40.5122 69.5619 40.8055 69.0055 41.1017C69.9886 41.523 70.9309 41.2951 71.8675 41.5152C71.2589 42.1429 70.5591 42.1284 69.8653 42.1064C69.1715 42.0843 68.5177 41.9995 67.7791 41.9369C68.1139 42.2361 68.5124 42.455 68.9445 42.5772C69.3765 42.6993 69.8307 42.7214 70.2726 42.6418C71.0681 42.4652 71.8487 42.2271 72.6074 41.9296C73.7285 41.5082 74.8239 41.019 75.946 40.5933C76.4276 40.4192 76.9606 40.4652 77.3398 40.0604L78.9784 39.5481C77.463 39.0143 75.9489 39.1481 74.4087 39.174C74.6491 39.2782 74.8947 39.3791 75.1441 39.4407ZM68.9679 47.2995C70.2455 47.5695 71.5254 47.8282 72.8077 48.0754C72.5785 47.8758 72.371 47.5739 72.1146 47.5241C71.082 47.3371 70.0366 47.2318 68.9923 47.1001L68.9679 47.2995ZM89.9276 48.615C90.4045 48.7158 90.8878 48.7868 91.3629 48.8961C93.4804 49.4015 95.642 49.9295 97.7817 50.4351C98.0748 50.5001 98.3744 50.5306 98.6745 50.5259C98.8 50.5213 98.9194 50.3774 99.0432 50.2968C98.9341 50.2026 98.8376 50.0488 98.7175 50.0278C97.8956 49.8541 97.0522 49.7826 96.2233 49.6208C95.0265 49.3901 93.8343 49.1159 92.6377 48.863C91.1771 48.5544 89.7122 48.2448 88.2471 47.9574C88.0381 47.9424 87.8281 47.9533 87.6219 47.9899L87.6334 48.188C88.401 48.3236 89.1653 48.454 89.9276 48.615ZM97.8456 46.1334C98.5675 46.0858 99.2959 46.133 100.104 46.1392C100.049 46.0228 99.9572 45.9277 99.8429 45.8682C99.7286 45.8087 99.5981 45.7882 99.4711 45.8096C98.7124 45.77 97.9521 45.7757 97.1942 45.8267C96.0867 45.9308 94.9938 46.1135 93.8944 46.2637C94.0139 46.4981 94.213 46.4823 94.4455 46.4558C95.5763 46.3256 96.7113 46.1962 97.8474 46.1249L97.8456 46.1334ZM93.885 46.2662L93.2147 46.5961C93.6426 46.6554 93.6468 46.6563 93.8868 46.2577L93.885 46.2662ZM83.3122 46.7009C82.0855 46.3291 80.8061 46.1609 79.5249 46.203C81.8422 46.9419 84.2152 47.5012 86.5972 48.018C86.7122 48.0423 86.8436 47.9677 86.9822 47.8591C85.7866 47.3884 84.5627 46.993 83.3176 46.6754L83.3122 46.7009ZM66.8374 35.8257L66.8076 35.8194L66.8502 35.8284C66.8652 35.8187 66.8817 35.8116 66.8991 35.8075C66.8807 35.8028 66.8618 35.8003 66.8428 35.8001L66.8374 35.8257ZM66.8928 35.8374C67.554 35.9862 68.2443 35.9388 68.879 35.701C68.2252 35.5181 67.5294 35.5555 66.8991 35.8075L66.8928 35.8374ZM66.8076 35.8194C66.138 35.5355 65.4788 35.7921 64.7975 35.8794C65.461 36.054 66.1612 36.0286 66.8103 35.8066L66.8076 35.8194ZM39.9515 23.0838C38.1874 22.4218 36.3307 22.3452 34.5125 22.0233C33.2435 21.8387 32.0213 21.4143 30.911 20.7728C30.4268 20.4747 29.9217 20.2123 29.4279 19.9389L29.3406 20.1206L30.4942 21.1029L30.397 21.247C29.4555 21.0079 28.5106 20.7638 27.9368 19.8373C27.7405 19.5244 27.5515 19.2398 27.0605 19.3318C27.5176 20.1643 28.1564 20.8832 28.9293 21.435C28.4743 21.6725 28.1622 21.7178 27.8517 21.4609C27.492 21.2149 27.1474 20.9474 26.8199 20.66C26.1526 19.9943 25.3525 19.4766 24.4718 19.1406C25.1082 20.0447 25.4324 21.0786 26.4811 21.5894C26.4483 21.6693 26.3966 21.74 26.3304 21.7955C26.2641 21.8509 26.1854 21.8893 26.1009 21.9074C26.0164 21.9255 25.9288 21.9227 25.8457 21.8993C25.7625 21.8758 25.6863 21.8325 25.6237 21.7729C25.1652 21.4323 24.7293 21.0623 24.3186 20.6652C23.7855 20.1567 23.2748 19.6261 22.5223 19.4404C22.3208 19.4093 22.1171 19.3945 21.9132 19.3962L24.1941 21.9913C23.9229 22.0313 23.6463 22.0125 23.383 21.9361C23.1198 21.8597 22.876 21.7276 22.6683 21.5487C22.2266 21.1973 21.7491 20.9096 21.1892 20.5066C21.1393 20.757 21.1569 21.0161 21.2404 21.2574C21.3239 21.4987 21.4702 21.7133 21.6643 21.8793C22.0401 22.234 22.4891 22.502 22.9797 22.6644C24.5721 23.0232 26.1778 23.3403 27.8287 22.8751C28.7703 22.6292 29.7057 22.4132 30.6814 22.259C32.5243 22.0139 34.3976 22.1346 36.1938 22.6144C38.4238 23.1323 40.6045 23.8432 42.7113 24.7391C42.9873 24.8306 43.2684 24.9063 43.553 24.9659C42.4757 24.1253 41.257 23.4836 39.9542 23.071L39.9515 23.0838ZM79.2597 45.6265L79.28 45.8043C79.6599 45.7956 80.0432 45.7921 80.4983 45.786C79.8985 45.4457 79.8985 45.4457 79.2606 45.6223L79.2597 45.6265ZM59.5123 36.8489C61.7972 36.5622 64.1576 36.8653 66.4387 36.3864C64.1195 36.3723 61.789 36.1378 59.5123 36.8489ZM72.8388 48.1176L72.8433 48.0963L72.8135 48.09L72.8388 48.1176ZM72.0406 46.0849C71.3773 45.3953 70.6128 44.8107 69.7734 44.3513C68.9395 43.9436 68.0351 43.6996 67.1093 43.6326C66.8481 43.6411 66.5885 43.6772 66.3348 43.7403C67.3312 44.2667 68.3502 44.055 69.1628 44.6938C68.9145 44.7283 68.6628 44.7304 68.414 44.7002C67.6731 44.5436 66.9396 44.3307 66.2112 44.1145C65.7713 43.9859 65.7767 43.9604 65.235 44.313C65.7 44.4914 66.0787 44.6782 66.4703 44.7832C67.4985 45.0539 68.5367 45.2777 69.5685 45.5314C70.2878 45.6357 70.9585 45.9558 71.492 46.4495C70.9895 46.3433 70.4913 46.238 69.9931 46.1327C69.4948 46.0274 68.914 45.9758 68.3736 45.9017C67.8332 45.8275 67.2865 45.7831 66.7542 45.6706C66.2219 45.5581 65.7177 45.3759 65.0779 45.1829C65.205 45.5078 65.294 45.7179 65.3265 45.796C66.1836 45.9504 66.936 46.0738 67.6702 46.2201C69.1351 46.5297 70.6063 46.8094 72.0649 47.1488C72.7888 47.3018 72.8271 47.3944 72.8312 48.1115C73.359 48.2453 73.8916 48.3356 74.4012 48.4923C76.7734 49.312 79.2877 49.6406 81.7909 49.4579C83.4035 49.3558 84.9972 49.0546 86.5358 48.5611C86.3903 48.4946 86.233 48.4575 86.0731 48.4519C85.9132 48.4464 85.7538 48.4725 85.604 48.5288C84.3131 48.7008 83.0244 48.989 81.7314 49.0449C79.2731 49.218 76.8084 48.816 74.5326 47.8706C73.5938 47.4382 72.7499 46.8245 72.0494 46.0646L72.0406 46.0849ZM31.0822 15.9422C34.5359 18.545 38.1424 20.9086 42.1756 22.5795C40.5636 21.1134 38.464 20.4606 36.6668 19.3023C34.8697 18.144 32.9551 17.0364 31.0909 15.9218L31.0822 15.9422ZM49.3925 46.886C50.3201 47.4646 51.2347 48.0628 52.1868 48.5887C53.2865 49.1948 54.4194 49.7278 55.5418 50.2898C57.1254 51.0693 58.6782 51.9313 60.2923 52.6506C62.6293 53.6961 64.9406 54.8207 67.4409 55.4514C67.7858 55.5243 68.1265 55.5963 68.4672 55.6683L68.4906 55.5576C66.4544 54.7936 64.3981 54.0832 62.3891 53.2538C60.4735 52.4664 58.6132 51.5439 56.7027 50.6908C55.434 50.112 54.2446 49.3733 53.1635 48.4926C51.6629 47.2998 50.5327 45.7047 49.9048 43.8936C49.4577 42.5715 48.6834 41.384 47.6538 40.4418C47.2042 40.0241 46.6637 39.7166 46.0749 39.5435C45.4861 39.3705 44.8652 39.3366 44.2611 39.4445C44.3323 39.5708 44.36 39.6923 44.4297 39.7204C45.1299 40.0912 45.761 40.5797 46.2954 41.1646C46.712 41.5526 47.1667 41.8976 47.6526 42.1943C47.8218 42.2686 47.9578 42.4024 48.0346 42.5704C48.1115 42.7384 48.1239 42.9288 48.0695 43.1054C47.1531 42.8681 46.2976 42.4386 45.5599 41.8454C45.0033 41.3862 44.3368 41.0797 43.6258 40.9563C44.3529 41.9996 45.3677 42.5655 46.3921 43.1068C46.6281 43.2323 46.8422 43.3976 47.0818 43.5061C47.4449 43.6852 47.8237 43.8307 48.2133 43.941C48.3734 43.9617 48.5204 44.0402 48.6266 44.1618C48.7329 44.2834 48.7909 44.4397 48.79 44.6011C47.5705 44.6459 46.5917 43.8252 45.253 43.6134C45.5912 43.9918 45.8012 44.2186 46.0239 44.4703C46.2302 44.4057 46.4486 44.3896 46.6622 44.4231C46.8758 44.4567 47.0787 44.5391 47.2553 44.6638C47.8683 44.9624 48.499 45.2203 49.099 45.5384C49.2965 45.6937 49.4674 45.8801 49.6052 46.0902L49.506 46.265C49.0802 46.175 48.6543 46.085 48.2285 45.995L48.16 46.0873C48.5972 46.3131 48.9892 46.6051 49.4013 46.8656L49.3925 46.886ZM85.3888 37.7799C85.6047 37.7055 85.8216 37.6267 86.0384 37.548C85.8086 37.5617 85.5874 37.5772 85.3524 37.5943L85.3888 37.7799ZM88.942 39.0069C87.0856 38.8236 85.2523 38.3205 83.3638 38.5842C85.2166 38.7845 87.0532 39.2083 88.942 39.0069ZM84.4392 37.8106L84.3914 37.6581C83.943 37.6746 83.4947 37.6911 82.9464 37.7175C83.5525 38.028 83.6498 38.0308 84.4392 37.8106ZM86.1196 37.5429C86.1344 37.536 86.1503 37.5318 86.1666 37.5306L86.1155 37.5198C86.09 37.5144 86.0624 37.5397 86.0384 37.548L86.1196 37.5429ZM94.0719 36.7723C93.7843 36.4491 93.4828 36.55 93.2202 36.5924C92.4085 36.6655 91.5947 36.7693 90.7836 36.8604C89.5887 36.9993 88.394 37.1161 87.204 37.2738C86.852 37.339 86.5054 37.4308 86.1673 37.5485C87.1419 37.6831 88.1318 37.661 89.0994 37.4831C89.9603 37.367 90.8285 37.2791 91.6941 37.204C92.5047 37.1886 93.3076 37.0429 94.0719 36.7723ZM75.3666 32.0941C75.5989 32.0898 75.8167 32.0691 76.0584 32.0624L76.0944 31.892C75.8205 31.7986 75.5554 31.6847 75.2643 31.6098C73.1778 31.0843 71.0933 30.5282 68.9959 30.0538C67.9881 29.8156 66.9539 29.7077 65.9186 29.7326C64.8567 29.7265 63.7958 29.6671 62.7399 29.5546C62.3624 29.5069 61.9795 29.5285 61.6098 29.6183C62.2056 29.7042 62.8004 29.7943 63.3953 29.8844L63.3575 30.0633C62.6785 30.0132 61.9906 30.0057 61.3191 29.8994C59.7596 29.6588 58.2047 29.3747 56.6524 29.1C55.6572 28.9253 54.6718 28.7259 53.6791 28.5606C52.8419 28.4101 52.0537 28.0588 51.382 27.5369C50.2286 26.6792 49.0789 25.8046 47.9283 24.9341C47.8168 24.819 47.7151 24.6949 47.6241 24.5629C47.9767 24.5682 48.3153 24.7014 48.577 24.9378C49.5814 25.5949 50.5677 26.2749 51.5948 26.8879C52.0499 27.1318 52.5332 27.3191 53.0339 27.4456C53.4839 27.5812 53.9505 27.6543 54.4204 27.663C54.2698 27.534 54.1105 27.4156 53.9437 27.3087C51.8135 26.0844 49.6764 24.872 47.5522 23.6402C46.9661 23.2983 46.4044 22.9038 45.8331 22.534C45.8075 22.5286 45.7692 22.5205 45.7609 22.4965C45.4181 21.7612 44.5815 21.7623 44.0313 21.3346C43.4811 20.907 42.7704 20.4809 42.1374 20.0447C41.5045 19.6084 40.8937 19.2569 40.2827 18.8431C39.1531 18.0838 38.0374 17.3009 36.9077 16.5416C36.2267 16.1012 35.5429 15.6601 34.8563 15.2184C33.7923 14.5487 32.7367 13.8807 31.6579 13.239C30.912 12.7928 30.1392 12.3933 29.3439 12.0427C28.9608 11.8971 28.546 11.8555 28.1416 11.922C26.8805 12.1004 25.623 12.3462 24.3655 12.592C23.7016 12.7231 23.0416 12.8995 22.3842 13.063C21.5809 13.2375 20.7423 13.1401 20.0004 12.7861C18.7187 12.2182 17.3548 11.8578 15.9598 11.7187C16.1206 11.9262 16.1821 12.0771 16.2899 12.1354C16.9603 12.4995 17.6265 12.8628 18.2931 13.1816C18.8605 13.4438 19.4717 13.6042 20.0381 13.8707C20.3827 14.0208 20.761 14.0762 21.1341 14.0311C21.5621 13.9738 21.9939 13.9505 22.4256 13.9615C23.6952 14.1008 24.9149 13.8025 26.1544 13.6418C27.507 13.5007 28.8716 13.752 30.0852 14.3658C31.7374 15.1153 33.1707 16.2056 34.7318 17.0916C35.6864 17.6663 36.6006 18.3054 37.4683 19.0045C38.1275 19.5219 38.8319 19.9789 39.573 20.3702C40.5405 20.9122 41.4783 21.5054 42.3826 22.1473C42.7149 22.3643 43.0254 22.6212 43.4132 22.9123L42.8514 23.0026C44.9599 24.4136 47.0327 25.8036 49.0843 27.1892L49.1979 27.0308L46.7084 25.1701C46.9288 25.1589 47.0873 25.1034 47.1567 25.1537C47.8854 25.579 48.614 26.0044 49.3176 26.4645C50.3688 27.1315 51.3981 27.8606 52.4354 28.5514C52.5542 28.6202 52.6844 28.6673 52.8198 28.6904C54.0973 28.9604 55.3748 29.2304 56.6577 29.4748C57.9406 29.7193 59.2765 29.966 60.593 30.1775C61.3932 30.3066 62.2035 30.3666 63.1072 30.4686C62.9659 30.59 62.8694 30.752 62.767 30.7526C62.1958 30.7609 61.6217 30.7196 61.0524 30.7194C60.9036 30.7324 60.7573 30.7659 60.6176 30.8189C61.0435 30.9088 61.4693 30.9988 61.8898 31.1144C62.2282 31.2361 62.5593 31.3773 62.8814 31.5375C63.3048 31.5335 63.7455 31.511 64.19 31.5338C65.294 31.5936 66.3867 31.6644 67.505 31.7406C67.8314 31.7327 68.1569 31.7789 68.4682 31.8774C69.2065 32.1936 69.962 32.113 70.7201 32.1042C72.3253 32.1498 73.8486 32.1203 75.3666 32.0941ZM77.5321 36.035C78.3045 35.8957 79.0947 35.8403 79.8751 35.7472L79.9057 35.6024C79.4755 35.5538 79.0424 35.5351 78.6096 35.5465C77.5613 35.6512 76.5162 35.7832 75.4741 35.9426C73.8861 36.1943 72.2843 36.3504 70.6776 36.4103C69.4043 36.4571 68.1427 36.7643 66.8729 36.8786C65.6032 36.9928 64.3725 37.0486 63.1229 37.1092C62.0357 37.1597 60.942 37.1777 59.8548 37.2282C59.5448 37.2612 59.237 37.312 58.9329 37.3804L58.9334 37.5673C60.0707 37.7854 61.2079 38.0035 62.3527 38.2277L62.2926 38.6598C62.7868 38.4262 63.2528 38.1999 63.7185 37.9958C64.5271 37.5693 65.4278 37.3472 66.342 37.3491C67.5526 37.4093 68.7775 37.1076 69.9981 37.0363C72.527 36.8519 75.0428 36.5175 77.5321 36.035ZM82.5894 38.4384C82.0613 38.4152 81.5321 38.4343 81.007 38.4954C79.661 38.7048 78.2882 38.6664 76.956 38.3822C75.3416 38.1467 73.6956 38.2535 72.1252 38.6959C72.0997 38.6905 72.0753 38.6587 72.0531 38.6584C70.2376 38.4899 68.4116 38.4654 66.5923 38.5854C66.5455 38.5755 66.4979 38.6321 66.3692 38.6939C67.1101 38.8505 67.7872 38.9936 68.5237 39.1715C68.1447 39.6386 67.7478 39.875 67.1752 39.7006C66.3388 39.4482 65.4195 39.4408 64.6165 38.9463C64.3646 38.7908 63.8695 39.0287 63.4787 39.173C64.4173 39.8755 65.5425 40.2851 66.7131 40.3503C66.2855 40.7315 66.2756 40.7783 65.7877 40.6663C64.8083 40.4593 63.8312 40.1994 62.874 39.9082C62.2734 39.719 62.2884 39.6688 61.6848 40.2307C62.784 40.6499 63.9055 40.8157 65.0093 41.1291C64.2317 41.6721 64.229 41.6848 63.417 41.5488C62.6049 41.4128 61.7485 41.2763 60.9233 41.0974C60.6124 41.0317 60.3999 41.0269 60.2882 41.4081C61.4276 42.0508 62.7486 42.2956 64.0426 42.1037C65.3545 41.869 66.6182 41.4174 67.7816 40.7674C69.1848 40.0007 70.6817 39.4007 72.1402 38.7302C72.7287 38.7033 73.3219 38.633 73.9123 38.6599C75.4285 38.7267 76.9368 38.8942 78.4543 38.9124C79.7551 38.9249 81.0558 38.7905 82.3619 38.7151C82.4419 38.7364 82.5213 38.6553 82.5858 38.4554L82.5894 38.4384ZM79.1525 38.2192L80.0716 38.0798L80.0572 37.9166L79.1148 37.9977L79.1525 38.2192ZM91.7267 44.5645C91.7399 44.5609 91.7528 44.5561 91.7653 44.5504C91.7493 44.5491 91.7336 44.5458 91.7184 44.5405L91.7112 44.5745C91.7112 44.5745 91.7146 44.5797 91.7231 44.5815L91.7267 44.5645ZM92.9067 44.538C92.7266 44.4585 92.5316 44.4185 92.3347 44.4206C92.1378 44.4227 91.9436 44.467 91.7653 44.5504C91.9423 44.637 92.1366 44.6824 92.3337 44.6832C92.5307 44.684 92.7254 44.6402 92.9031 44.5551L92.9067 44.538ZM99.1641 37.2212C99.6681 37.0358 100.145 36.7835 100.582 36.471C99.9799 36.5041 99.3905 36.6545 98.8465 36.9139C96.2426 37.8049 93.6543 38.7482 90.9221 39.194C89.4153 39.4405 87.9268 39.811 86.4124 39.967C84.1648 40.2038 81.8922 40.3062 79.6379 40.4482C78.497 40.4949 77.3747 40.7524 76.3277 41.2078L76.3659 41.3849C77.7696 41.3524 79.1821 41.3839 80.5807 41.2703C82.3109 41.1243 84.0325 40.8298 85.7614 40.648C86.8672 40.4899 87.9594 40.2478 89.0285 39.9238C89.3736 39.8423 89.7235 39.7825 90.0761 39.7448C90.2668 39.7337 90.4568 39.713 90.6453 39.6827C92.9036 39.1012 95.2637 38.8793 97.3972 37.8354C97.9518 37.5478 98.5789 37.4223 99.1641 37.2212ZM101.811 43.6438C101.943 43.5797 102.069 43.5036 102.188 43.4166C101.938 43.1236 101.659 43.2247 101.417 43.2759C98.9003 43.8162 96.3384 43.9821 93.795 44.3343C93.524 44.3891 93.2586 44.4685 93.002 44.5715C95.5806 44.5159 98.1698 44.5782 100.691 43.9722C101.089 43.8562 101.456 43.7424 101.814 43.6268L101.811 43.6438ZM60.6167 30.9076C60.6167 30.9076 60.655 30.9157 60.6826 30.8904L60.5847 30.8697L60.6167 30.9076ZM92.919 44.5851C92.9485 44.5767 92.9774 44.5664 93.0056 44.5545C92.9744 44.5574 92.943 44.5582 92.9116 44.5569C92.9186 44.5605 92.9251 44.5649 92.9311 44.5699L92.919 44.5851ZM78.8276 44.9346C78.9278 44.9024 79.0008 44.7888 79.0862 44.7001L75.1875 45.6556L75.1704 45.7366C75.3376 45.7452 75.5082 45.759 75.6781 45.7549C76.7916 45.7277 77.7919 45.2674 78.8276 44.9346ZM91.6933 44.5752C90.5626 44.6209 89.4444 44.6916 88.3063 44.7091C86.8369 44.7366 85.3655 44.7104 83.8979 44.7294C83.0048 44.7453 82.1045 44.7953 81.2052 44.841C80.9651 44.8653 80.7339 44.9443 80.5291 45.0718C81.1955 45.2714 81.893 45.3464 82.5866 45.2931C83.6955 45.2872 84.8112 45.2917 85.9163 45.2405C86.8148 45.1991 87.6954 45.0738 88.5874 44.9998C89.3205 44.9412 90.0533 44.9048 90.7821 44.8453C91.1067 44.8249 91.4653 44.8962 91.6924 44.5795L91.6933 44.5752ZM79.1188 44.6937L79.1251 44.6639L79.091 44.6567L79.0847 44.6865L79.1188 44.6937ZM98.882 40.2401C100.292 40.0559 101.713 39.9786 103.135 40.0089C103.073 39.9587 103.003 39.9198 102.928 39.894C100.973 39.7043 99.0046 39.716 97.0526 39.9291C95.4589 40.1386 93.8854 40.4801 92.3482 40.9501C91.1709 41.2796 89.9582 41.4815 88.7585 41.7485C87.1395 42.1047 85.5031 42.4173 83.9029 42.8532C82.6576 43.1585 81.3574 43.1628 80.1101 42.8657C78.9646 42.6236 77.7947 42.4965 76.6337 42.349C76.2508 42.3007 75.862 42.337 75.4947 42.4553C76.15 42.6383 76.8086 42.8264 77.4682 43.0103C76.9868 43.2286 76.4402 43.2547 75.9403 43.0833C74.8962 42.859 73.8098 42.9382 72.8092 43.3113C72.7466 43.3337 72.7006 43.404 72.542 43.544C74.5567 43.6094 76.464 43.5098 78.3532 43.6644L78.357 43.8565C76.2491 44.0427 74.142 44.2247 72.011 44.4149C71.9859 44.681 72.1968 44.6722 72.4053 44.654C74.0007 44.5774 75.6114 44.8288 77.1981 44.4568C77.6987 44.3402 78.2148 44.298 78.7244 44.2233C78.9963 44.1673 79.2782 44.1854 79.5407 44.2757L79.1311 44.6562C79.4071 44.637 79.6798 44.584 79.9429 44.4986C82.0453 43.5832 84.2635 42.9607 86.5352 42.6488C89.1681 42.3155 91.6821 41.4499 94.2702 40.907C95.7802 40.6033 97.3555 40.4958 98.882 40.2401ZM31.3432 46.1767C31.236 46.0157 31.1203 45.8606 30.9966 45.712C31.1786 47.1873 32.1866 47.7429 33.2253 48.1537C34.8401 48.8064 36.4978 49.3613 38.1416 49.9401C38.7012 50.1339 39.2835 50.2837 39.9574 50.4839C39.8844 50.34 39.8041 50.1998 39.7169 50.0639C39.6531 49.9659 39.4766 49.8752 39.4901 49.8113C39.6503 49.0533 38.9667 48.9622 38.5779 48.76C38.1891 48.5577 38.0802 48.2099 37.6842 48.1262C37.3178 48.0289 36.974 47.8611 36.672 47.6321C36.494 47.494 36.2887 47.3955 36.0696 47.343C35.8506 47.2906 35.6229 47.2855 35.4017 47.328C36.065 47.6417 36.7273 47.9596 37.5188 48.3404C36.9099 48.443 36.9108 48.4388 36.1949 48.1006C35.7906 47.9084 35.3487 47.7261 34.9178 47.5549C34.512 47.3913 34.0906 47.2694 33.66 47.1913C34.1714 47.6271 34.7594 47.9641 35.3941 48.185C36.0336 48.4847 36.6741 48.7802 37.3952 49.115C37.0094 49.3404 36.7793 49.145 36.5438 49.0596C35.7173 48.7604 34.9044 48.3973 34.0872 48.1801C32.9059 47.8549 31.9249 47.3184 31.3475 46.1776L31.3432 46.1767ZM40.4695 49.0708C41.0264 49.5933 41.5788 50.1371 42.1186 50.656C42.2597 50.7916 42.4465 50.8692 42.6421 50.8734C42.5512 50.7563 42.4621 50.6307 42.3626 50.5118C41.9203 49.9735 41.5007 49.391 41.0241 48.8676C40.4324 48.1934 39.7987 47.5572 39.1267 46.963C37.9678 45.9841 36.7287 45.0905 35.5544 44.1217C33.8539 42.7065 32.4265 40.9921 31.3429 39.0633C31.1234 38.6539 30.9599 38.2168 30.8568 37.7639C30.5314 36.5537 30.3464 35.3099 30.3055 34.0574C30.2298 32.7938 29.7562 31.5865 28.9525 30.6085C28.4569 29.9432 27.6572 29.7698 26.7522 29.7787C27.2655 31.0972 28.696 31.7376 28.9502 33.1659C28.076 32.7697 27.2509 32.2728 26.4917 31.6855C26.9414 32.4834 27.7593 32.8653 28.3811 33.4594C28.6744 33.7684 28.9306 34.1107 29.1443 34.4793C29.1938 34.5609 29.1288 34.7207 29.1139 34.9177L27.2498 33.7185C28.0963 34.8494 29.488 35.5261 29.7709 37.2186C28.9292 36.6759 28.2043 36.2113 27.5051 35.7521L27.4236 35.8639C28.0139 36.3757 28.6154 36.8765 29.1893 37.4026C30.1765 38.3388 31.0192 39.4165 31.6898 40.6002C32.2221 41.4586 32.8805 42.2321 33.6428 42.8947C34.1237 43.3344 34.5804 43.8046 35.0777 44.23C36.0038 45.0263 36.9738 45.7829 37.8817 46.6021C38.4287 47.0869 38.8955 47.6571 39.4201 48.1639C39.7639 48.4946 40.1374 48.7692 40.4738 49.0717L40.4695 49.0708ZM36.3187 52.2507C36.0653 52.5129 35.8343 52.7959 35.6283 53.0968C36.5415 53.2652 37.4813 53.2202 38.3742 52.9653C37.9653 52.9634 37.5607 52.9624 37.1485 52.9554C36.9539 52.9499 36.7587 52.9264 36.5404 52.907C36.5708 52.4685 36.8407 52.4544 37.0832 52.4434C37.6282 52.4117 38.1744 52.416 38.7169 52.3749C39.0161 52.3379 39.3129 52.2833 39.6057 52.2113L39.5769 52.0317L37.4569 52.0641L37.4248 51.8794L39.2206 51.2758C38.6656 50.6603 38.4679 50.6274 37.8836 51.0555C37.2994 51.4837 36.8219 51.8276 36.323 52.2516L36.3187 52.2507ZM16.9206 30.201C16.7901 29.9555 16.6571 29.7005 16.517 29.4796C16.566 30.4686 17.0605 31.3072 17.4745 32.1687C17.5864 32.397 17.8257 32.6122 17.4378 32.9528C15.973 31.4644 15.3302 29.5802 14.6906 27.6389C14.6808 27.9395 14.6961 28.2403 14.7363 28.5383C14.9336 29.7266 15.396 30.8552 16.0892 31.8404C17.0732 33.1204 17.4721 34.6639 17.8935 36.1854C18.1641 37.1547 18.6896 38.0338 19.4152 38.7313C19.787 39.0768 20.0878 39.4428 20.4453 39.772C21.2909 40.4619 22.2403 41.0138 23.2582 41.4074C24.3929 41.9319 25.5627 42.3749 26.7316 42.8221C27.1388 42.9819 27.5659 43.0856 28.001 43.1304C28.4015 43.1583 28.7894 43.2817 29.1323 43.4904C29.4753 43.6991 29.7631 43.987 29.9718 44.3299C30.0717 44.4889 30.1931 44.6302 30.3149 44.8116C30.1729 43.8207 29.8705 43.5255 28.0432 42.5521C28.2535 42.2095 28.5456 42.2801 28.8007 42.4408C29.3678 42.8098 29.9097 43.2135 30.4525 43.6129C30.6523 43.7862 30.864 43.9454 31.0859 44.0893C30.9994 43.4883 30.5289 43.1886 30.1304 42.8642C29.8006 42.622 29.4518 42.407 29.0874 42.2211C28.8684 42.0992 28.748 41.9537 28.9088 41.614L31.664 42.9748C31.4338 42.4737 31.0305 42.0725 30.5282 41.845C28.3609 40.6904 26.3022 39.3426 24.3771 37.8181C23.9651 37.473 23.4822 37.2108 23.0469 36.8919C21.7553 35.8861 20.6126 34.7025 19.6527 33.3764C19.1657 32.7141 18.9032 31.9136 18.9033 31.0916C18.8324 29.6798 18.8077 28.2599 18.7326 26.8472C18.7039 25.9118 18.3789 25.0098 17.8045 24.271C17.7271 24.1746 17.6187 24.0983 17.3736 23.8685C17.6006 24.8996 17.585 25.7727 17.9749 26.5803C18.3238 27.3079 18.2383 28.1129 18.2905 28.9602C18.0599 28.7341 17.9183 28.4326 17.8917 28.1108C17.8141 27.7152 17.6943 27.3289 17.5346 26.9588C16.8486 25.3635 16.3318 23.7462 16.8068 21.9827C16.848 21.7865 16.8256 21.5824 16.7431 21.3998C16.5124 22.2808 16.2477 23.1546 16.0554 24.0437C15.8862 24.9145 16.0605 25.817 16.5419 26.5621C17.3686 27.9335 17.7053 29.4771 18.3296 30.9437C18.4701 31.3964 18.5609 31.8631 18.6004 32.3355C18.4489 32.36 18.2937 32.3339 18.1586 32.2611C18.0236 32.1883 17.9163 32.0729 17.8535 31.933C17.5397 31.355 17.2396 30.7756 16.9249 30.2019L16.9206 30.201ZM15.5018 25.9686L15.3157 24.8705C15.2107 25.2621 15.0909 25.6816 15.506 25.9695L15.5018 25.9686ZM38.4538 52.9466C38.4263 52.9545 38.3983 52.9604 38.3699 52.9644L38.4551 52.9824C38.4586 52.9706 38.4581 52.9581 38.4538 52.9466ZM34.4751 46.892L33.2928 45.7924C33.367 46.0698 33.5182 46.3204 33.7289 46.5153C33.9397 46.7103 34.2013 46.8415 34.4836 46.8938L34.4751 46.892ZM38.4785 52.9562C39.0229 53.1281 39.6064 53.1321 40.1532 52.9676C39.6019 52.9445 39.0465 52.6047 38.4869 52.958L38.4785 52.9562ZM33.2644 45.7375C33.2918 45.5763 33.2775 45.4108 33.2229 45.2568C33.1682 45.1027 33.075 44.9652 32.9522 44.8574C32.9204 45.0197 32.9335 45.1875 32.99 45.3429C33.0466 45.4983 33.1444 45.6353 33.2729 45.7393L33.2644 45.7375ZM33.2644 45.7375L33.2599 45.7588L33.2928 45.7924L33.2644 45.7375ZM54.7716 30.0638C56.3714 30.4074 57.9996 30.6026 59.6353 30.6468C59.0818 30.4691 58.5165 30.3303 57.9436 30.2315C56.8906 30.1119 55.8314 30.0559 54.7716 30.0638ZM57.7043 29.0065C58.211 29.1136 58.7258 29.1823 59.2371 29.2681L59.2704 29.1106C58.7636 29.0035 58.2506 28.9262 57.7412 28.8319L57.7043 29.0065ZM59.7657 30.6611C60.0468 30.7204 60.3236 30.7789 60.6174 30.841C60.5143 30.7216 60.374 30.6401 60.2191 30.6098C60.0642 30.5795 59.9036 30.602 59.763 30.6738L59.7657 30.6611ZM59.7316 30.6538L59.7657 30.6611C59.7534 30.6565 59.7405 30.6538 59.7274 30.6529C59.6972 30.6487 59.6673 30.6424 59.638 30.6341C59.6676 30.6469 59.6979 30.6578 59.7289 30.6666L59.7316 30.6538ZM15.8015 12.9308C15.3875 12.3006 15.0724 11.6023 14.7094 10.9206C14.4331 10.4173 14.0993 9.95531 13.8616 9.43798C13.3581 8.32619 12.8555 7.21014 12.4343 6.0668C11.9177 4.43483 11.263 2.84988 10.4772 1.32915C10.3939 1.44946 10.3293 1.50254 10.341 1.53169C10.8673 2.9775 10.9638 4.54157 11.5747 5.98745C12.5518 8.28924 13.3771 10.6568 14.2702 12.9987C14.2837 13.0511 14.3011 13.1023 14.3223 13.1521C15.1109 14.5806 15.6629 16.1274 15.9567 17.7325C15.9495 17.7666 16.0295 17.788 16.1489 17.8755C15.7656 16.9314 16.4441 16.4787 16.9502 16.0207C17.6234 15.4245 17.6621 15.4727 17.0119 14.7392C16.7516 14.7922 16.4875 14.8241 16.2221 14.8347C15.7075 14.8283 15.5454 14.5004 15.8206 14.0826C16.2268 13.4656 16.1803 13.4958 15.8015 12.9308ZM16.5166 29.4395L16.4671 29.3578L16.4926 29.4477L16.5185 29.4933L16.5166 29.4395ZM16.4893 17.4225L17.2908 17.3561C17.2147 17.4951 17.1231 17.6249 17.0176 17.7432C16.6716 18.0003 16.3991 18.3437 16.2273 18.7391C16.0555 19.1345 15.9905 19.568 16.0388 19.9964C16.1466 21.1491 15.6655 22.1418 15.2901 23.1391C15.1719 23.4025 15.1133 23.6887 15.1184 23.9774C15.1236 24.2661 15.1923 24.55 15.3197 24.8091C15.7915 23.2717 16.4676 21.7775 16.2491 19.9697C16.4879 20.1447 16.6116 20.2331 16.8318 20.3909C16.3821 18.9613 17.5841 18.6414 18.2352 17.9605C18.2313 18.1366 18.1889 18.3098 18.111 18.4678C18.033 18.6258 17.9213 18.7647 17.7839 18.8749C17.5925 19.0098 17.4592 19.2121 17.4108 19.4411C17.3623 19.6702 17.4024 19.9091 17.5229 20.1099C17.6394 20.4137 17.7218 20.7295 17.7687 21.0516L18.3377 20.4645L18.4232 20.5226L18.0127 21.7704C18.9167 21.9348 19.0111 21.0249 19.5602 20.7629C19.9766 21.2557 19.9202 21.4173 18.8985 22.5048C19.0287 22.686 19.1988 22.8348 19.3957 22.9396C19.5927 23.0445 19.8111 23.1027 20.0341 23.1096C20.2007 22.951 20.3224 22.7513 20.387 22.5306C20.4516 22.3099 20.4568 22.0761 20.402 21.8527C20.2132 21.1041 20.2984 20.3126 20.6423 19.6214C20.6851 19.493 20.7132 19.3601 20.726 19.2253C20.7681 19.051 20.7554 18.8679 20.6895 18.7011C20.6236 18.5343 20.5078 18.3919 20.3579 18.2934C20.137 18.1177 19.6187 18.2974 19.364 18.6395C19.0136 19.1093 18.5731 19.5047 18.0683 19.8025C18.075 19.5934 18.1369 19.3898 18.2478 19.2124C18.3588 19.035 18.5148 18.8902 18.6999 18.7927C19.3512 18.3209 19.3237 17.63 19.3617 16.9663C19.3747 16.8831 19.369 16.798 19.3452 16.7172C19.3214 16.6364 19.28 16.5618 19.224 16.499C19.1679 16.4361 19.0987 16.3864 19.0211 16.3535C18.9436 16.3205 18.8597 16.3052 18.7755 16.3086C18.2881 16.3146 17.805 16.4019 17.3463 16.5671C17.0606 16.698 16.8631 17.0433 16.4902 17.4182L16.4893 17.4225ZM15.9952 27.928C15.8135 27.2934 15.6566 26.6464 15.5107 26.0105C15.4025 26.2821 15.3416 26.5701 15.3307 26.8622C15.5409 27.7519 15.9281 28.5902 16.4691 29.3271C16.3152 28.8764 16.1522 28.406 16.0174 27.9282L15.9952 27.928ZM15.3152 24.8304L15.3197 24.8091L15.3134 24.8389C15.3134 24.8506 15.3109 24.8622 15.3062 24.873L15.3152 24.8304Z" fill="#F4EEDE"/>
</svg>
