<svg width="25" height="24" viewBox="0 0 25 24" fill="none" xmlns="http://www.w3.org/2000/svg">
<g clip-path="url(#clip0_24_21434)">
<path d="M21.994 0H3.83998C2.22823 0 0.916992 1.31123 0.916992 2.92298V21.077C0.916992 22.6888 2.22823 24 3.83998 24H13.1448C13.5362 24 13.8535 23.6827 13.8535 23.2913V14.6987C13.8535 14.3073 13.5362 13.99 13.1448 13.99H10.5976V11.9729H13.1448C13.5362 11.9729 13.8535 11.6556 13.8535 11.2642V8.39583C13.8535 6.84352 15.1164 5.58061 16.6687 5.58061H19.1265V7.59778H16.6687C16.2287 7.59778 15.8707 7.95586 15.8707 8.39587V11.2642C15.8707 11.6556 16.188 11.9729 16.5793 11.9729H19.1266V13.9901H16.5793C16.188 13.9901 15.8707 14.3074 15.8707 14.6987V23.2914C15.8707 23.6828 16.188 24 16.5793 24H21.994C23.6058 24 24.917 22.6888 24.917 21.077V2.92298C24.917 1.31123 23.6058 0 21.994 0ZM23.4997 21.077C23.4997 21.9073 22.8243 22.5827 21.994 22.5827H17.2879H17.2879V15.4073H19.8351C20.2265 15.4073 20.5438 15.09 20.5438 14.6987V11.2642C20.5438 10.8729 20.2265 10.5556 19.8351 10.5556H17.2879V9.01509H19.8351C20.2265 9.01509 20.5438 8.6978 20.5438 8.30644V4.872C20.5438 4.48064 20.2265 4.16334 19.8351 4.16334H16.6687C14.3349 4.16334 12.4361 6.06206 12.4361 8.39587V10.5556H9.88891C9.49755 10.5556 9.18026 10.8729 9.18026 11.2642V14.6987C9.18026 15.09 9.49755 15.4073 9.88891 15.4073H12.4361V22.5827H3.83998C3.00973 22.5827 2.33426 21.9073 2.33426 21.077V2.92298C2.33426 2.09273 3.00968 1.41727 3.83998 1.41727H21.994C22.8242 1.41727 23.4997 2.09269 23.4997 2.92298V21.077Z" fill="#36332F"/>
</g>
<defs>
<clipPath id="clip0_24_21434">
<rect width="24" height="24" fill="white" transform="translate(0.916992)"/>
</clipPath>
</defs>
</svg>
