<svg width="32" height="32" viewBox="0 0 32 32" fill="none" xmlns="http://www.w3.org/2000/svg">
<g clip-path="url(#clip0_24_18880)">
<path d="M28.1027 0H3.89731C1.74831 0 0 1.74831 0 3.89731V28.1026C0 30.2517 1.74831 32 3.89731 32H16.3037C16.8256 32 17.2486 31.5769 17.2486 31.0551V19.5982C17.2486 19.0764 16.8256 18.6534 16.3037 18.6534H12.9074V15.9638H16.3037C16.8256 15.9638 17.2486 15.5407 17.2486 15.0189V11.1944C17.2486 9.12469 18.9325 7.44081 21.0023 7.44081H24.2794V10.1304H21.0023C20.4156 10.1304 19.9382 10.6078 19.9382 11.1945V15.019C19.9382 15.5408 20.3613 15.9639 20.8831 15.9639H24.2794V18.6534H20.8831C20.3613 18.6534 19.9382 19.0765 19.9382 19.5983V31.0552C19.9382 31.577 20.3613 32.0001 20.8831 32.0001H28.1027C30.2517 32 32 30.2517 32 28.1027V3.89731C32 1.74831 30.2517 0 28.1027 0ZM30.1103 28.1027C30.1103 29.2097 29.2097 30.1103 28.1026 30.1103H21.8279H21.8279V20.5431H25.2242C25.746 20.5431 26.1691 20.1201 26.1691 19.5982V15.019C26.1691 14.4972 25.746 14.0741 25.2242 14.0741H21.8279V12.0201H25.2242C25.746 12.0201 26.1691 11.5971 26.1691 11.0752V6.496C26.1691 5.97419 25.746 5.55113 25.2242 5.55113H21.0023C17.8905 5.55113 15.3589 8.08275 15.3589 11.1945V14.0741H11.9626C11.4408 14.0741 11.0177 14.4972 11.0177 15.019V19.5982C11.0177 20.1201 11.4408 20.5431 11.9626 20.5431H15.3589V30.1103H3.89731C2.79031 30.1103 1.88969 29.2097 1.88969 28.1026V3.89731C1.88969 2.79031 2.79025 1.88969 3.89731 1.88969H28.1026C29.2096 1.88969 30.1103 2.79025 30.1103 3.89731V28.1027Z" fill="#A77F51"/>
</g>
<defs>
<clipPath id="clip0_24_18880">
<rect width="32" height="32" fill="white"/>
</clipPath>
</defs>
</svg>
