<svg width="60" height="53" viewBox="0 0 60 53" fill="none" xmlns="http://www.w3.org/2000/svg">
<path fill-rule="evenodd" clip-rule="evenodd" d="M0.708862 19.4411C0.664258 20.8462 0.686561 22.2468 1.25304 23.6028C1.15246 23.7023 1.04012 23.7892 0.918504 23.8615C0.610011 23.9541 0.347352 24.1588 0.182246 24.4353C0.0171404 24.7119 -0.038449 25.0402 0.0264134 25.3557C0.0843993 26.4128 0.566125 27.3228 1.01217 28.2416C1.30656 28.8438 1.65893 29.4192 1.98455 30.0035C1.24857 30.8153 1.22182 31.0428 1.74369 31.9973C2.48549 33.2885 3.45579 34.4342 4.6073 35.3784C5.66442 36.2705 6.784 37.1224 7.88573 37.9966L7.3594 39.0225C8.72258 39.5867 10.1273 40.0445 11.5611 40.3919C12.9123 40.709 14.2948 40.8736 15.6826 40.8826C16.3383 40.8826 16.9672 40.7755 17.6095 40.78C18.2766 40.8017 18.9443 40.7763 19.6078 40.7041C20.2987 40.6675 20.9745 40.4883 21.5927 40.1778C22.293 39.7318 23.9612 39.5087 24.6793 38.7951C25.3975 38.0814 26.0978 36.4221 26.2851 36.1188C26.9676 35.0572 28.3369 31.2123 28.2656 29.1873C28.2181 28.9232 28.2181 28.6528 28.2656 28.3888C28.3102 27.6216 28.1808 26.2657 27.9801 26.4575C27.4184 25.8315 27.0484 25.0574 26.914 24.2272C26.5795 22.6571 25.6339 21.4439 24.6838 20.2396C23.8452 19.1825 22.6944 18.5268 21.5972 17.8086C21.4503 17.6869 21.2661 17.6192 21.0753 17.6168C20.3884 17.7685 20.0539 17.2689 19.5855 16.9255C19.0461 16.5347 18.4422 16.2418 17.8013 16.0601C16.7057 15.7051 15.5463 15.5909 14.4025 15.7256C14.0099 15.788 13.662 16.1716 13.1312 16.4973C12.3907 16.2683 11.6389 16.0777 10.8787 15.9263C10.244 15.8371 9.59989 15.8371 8.96517 15.9263C8.1266 16.0289 7.29695 16.2341 6.46285 16.3723C6.27997 16.408 6.08817 16.5195 5.92313 16.4839C5.28529 16.3456 5.06227 16.7292 4.91953 17.2377C4.06759 17.367 3.23347 17.5142 2.39045 17.6168C2.15807 17.6193 1.92866 17.6692 1.7163 17.7637C1.50395 17.8581 1.31315 17.9949 1.15564 18.1658C0.998136 18.3367 0.877251 18.538 0.800418 18.7573C0.723585 18.9766 0.692424 19.2093 0.708862 19.4411Z" fill="#5F816D"/>
<path d="M14.9827 29.3968C15.8079 29.0534 16.9141 29.4771 17.659 28.5047C17.4914 28.4176 17.3105 28.3589 17.1238 28.3308C16.4864 28.3454 15.8511 28.4095 15.2236 28.5226C13.7695 28.8527 12.3332 29.2407 10.8479 29.6199C10.9495 30.4948 11.224 31.3408 11.6552 32.1088C12.1013 33.0009 12.6455 33.8305 13.1406 34.6959C13.2367 34.8876 13.3058 35.0917 13.3457 35.3025C13.4483 35.7485 13.7115 35.8422 14.1085 35.7485C14.1754 35.3828 13.6 35.191 13.9256 34.7449L14.9158 35.2222L14.9783 35.1151C14.6304 34.736 14.278 34.3569 13.8587 33.9108C14.7508 33.9465 15.3574 34.7048 16.2807 34.4728C15.6563 33.7012 14.6214 33.6387 14.1353 32.8225C15.2147 33.0098 16.1871 33.6521 17.3334 33.4648C16.5751 32.6931 15.5135 32.5281 14.4386 32.0597C14.675 31.8679 14.8132 31.6717 14.9158 31.6895C15.3593 31.7684 15.7984 31.8696 16.2317 31.9928C16.6777 32.1043 17.1238 32.2381 17.5698 32.3229C17.6947 32.3497 17.8463 32.2471 18.1318 32.1579C17.1639 31.2925 16.0622 31.1453 15.0095 30.9312C14.9337 30.5833 15.0363 30.4495 15.3708 30.4852C15.9819 30.5521 16.5885 30.6056 17.1996 30.6458C17.4467 30.6502 17.6939 30.6413 17.94 30.619L17.9935 30.4138C17.8286 30.2707 17.6399 30.1575 17.436 30.0793C16.8115 29.9723 16.1737 29.9098 15.5403 29.8563C15.2414 29.8206 14.9381 29.8875 14.9827 29.3968ZM14.0906 31.859L13.2521 31.2569C14.1308 31.2658 14.162 31.2881 14.0906 31.859ZM14.3583 30.4138C14.4073 30.4138 14.3806 30.6725 14.394 30.8599L12.5741 30.4584C12.8403 30.2966 13.1443 30.2074 13.4558 30.1996C13.7672 30.1918 14.0753 30.2656 14.3493 30.4138H14.3583ZM14.5233 29.834L13.5376 29.776C13.8141 29.5574 14.0906 29.1783 14.5367 29.834H14.5233Z" fill="white"/>
<path d="M19.3357 26.841C19.2913 27.0807 19.2822 27.3257 19.3089 27.5681C19.5498 28.9062 19.804 30.2176 20.0895 31.5334C20.2411 32.2337 20.4463 32.3318 21.3607 32.256L20.5801 30.1953C21.3786 30.6904 21.8201 31.5869 22.8104 32.024C22.5115 30.9625 21.5748 30.5699 21.2224 29.7938C21.4588 29.5306 21.6105 29.602 21.7934 29.7938C22.2394 30.2711 22.7435 30.735 23.2207 31.2033C23.3238 31.3508 23.4768 31.4561 23.6515 31.4995C23.8261 31.543 24.0106 31.5217 24.1708 31.4397C23.6534 30.5253 22.8327 29.8919 22.2171 29.0668C23.3501 29.0668 23.8363 30.2755 24.9202 30.5387C24.8533 29.8964 24.3671 29.6466 24.0281 29.3656C23.6891 29.0846 23.2609 28.808 22.8327 28.5047L23.1806 28.023L25.2413 29.3612C25.2413 28.7278 25.2413 28.7099 24.88 28.4423C24.5187 28.1747 24.095 27.8758 23.6935 27.6126C23.4794 27.4699 23.3768 27.3316 23.6132 27.0328C23.9522 27.18 24.318 27.3183 24.6659 27.4788C25.0138 27.6394 25.3439 27.8714 25.6784 28.0721C25.723 28.023 25.7632 27.9695 25.8033 27.9204C25.5937 27.7063 25.4197 27.4164 25.1699 27.2915C24.4617 26.9208 23.7249 26.6075 22.9665 26.3548C22.0713 26.1333 21.1492 26.0402 20.2278 26.0782C19.5988 26.0872 19.407 26.2121 19.3357 26.841ZM20.5222 29.5173L20.3259 29.5574L20.2858 29.1604H20.375C20.4285 29.2853 20.4776 29.4102 20.5222 29.5351V29.5173ZM20.9236 29.3879C20.7363 28.9776 20.6247 28.7367 20.5132 28.4958C21.0708 28.8794 21.0708 28.8794 20.9236 29.4058V29.3879ZM21.8781 28.4557L21.78 28.585C21.276 28.3709 21.276 28.3709 20.9771 27.8268C21.3652 28.1122 21.6239 28.2906 21.8781 28.4735V28.4557ZM22.6498 27.5145L22.2617 28.2014L21.2269 27.5591C21.487 27.4347 21.761 27.3419 22.0432 27.2826C22.235 27.2781 22.4178 27.4253 22.6498 27.5324V27.5145ZM20.7675 27.2647C20.4623 27.1611 20.1643 27.0374 19.8754 26.8945L19.9557 26.6269L21.2581 26.9168C20.9905 27.1309 20.8522 27.3049 20.7809 27.2826L20.7675 27.2647ZM22.8014 26.9927C22.631 27.0134 22.4582 26.9818 22.3061 26.9022C22.1539 26.8225 22.0296 26.6985 21.9495 26.5466C22.3509 26.6269 22.6989 26.4619 22.8014 27.0105V26.9927Z" fill="white"/>
<path d="M12.8099 25.3646C12.7742 25.0523 12.7742 25.0523 12.0917 24.5438C12.1678 24.3106 12.2054 24.0666 12.2032 23.8212C12.1363 23.5045 11.842 23.5759 11.6011 23.5982C10.1202 23.7365 8.6349 23.8614 7.14064 24.0443C6.48496 24.1156 6.20841 24.41 6.24855 25.1237C6.29361 25.8747 6.40103 26.6207 6.56971 27.3539C6.78381 28.3754 7.06481 29.3924 7.31459 30.4093C7.3815 30.6859 7.51085 30.8554 7.87215 30.7171C7.68481 30.1774 7.49301 29.6288 7.24769 28.9329C7.56884 29.0444 7.7651 29.0534 7.87215 29.1604C8.3182 29.6065 8.71964 30.0525 9.15676 30.4986C9.29372 30.6134 9.44338 30.7121 9.60281 30.7929L9.7054 30.6591L7.85877 28.0498C8.17546 28.0498 8.35387 27.9695 8.452 28.0498C8.63977 28.1534 8.79439 28.3081 8.89805 28.4958C9.01933 28.7331 9.188 28.943 9.3936 29.1126C9.59921 29.2821 9.8374 29.4077 10.0935 29.4816L10.4771 28.8437L9.13892 27.2959C9.56453 27.2792 9.98906 27.3497 10.3864 27.5031C10.7838 27.6565 11.1455 27.8896 11.4494 28.188C11.5019 28.2536 11.5672 28.3076 11.6415 28.3468C11.7157 28.386 11.7972 28.4094 11.8809 28.4157C11.9646 28.4219 12.0487 28.4109 12.128 28.3833C12.2072 28.3556 12.2799 28.3119 12.3415 28.2549C11.668 27.4297 10.6555 26.9168 10.0756 26.0247L10.2139 25.882C10.2897 25.9489 10.3655 26.0247 10.4458 26.0827C10.6822 26.2477 10.8919 26.5287 11.1595 26.5287C11.8999 26.609 12.4976 27.0239 13.131 27.3138C13.3228 27.3985 13.5191 27.5502 13.7153 27.2067C13.1355 26.3548 12.1185 26.0515 11.3424 25.3824C11.8598 24.807 12.3371 25.3958 12.8099 25.3646ZM8.03719 27.6305C7.89146 27.6136 7.75096 27.5661 7.62491 27.4911C7.49886 27.416 7.39012 27.3151 7.30585 27.1951C7.22159 27.075 7.1637 26.9384 7.13599 26.7944C7.10828 26.6503 7.11138 26.502 7.14509 26.3592L8.03719 27.6305ZM8.68396 26.7384C8.41737 26.6612 8.17115 26.5259 7.96294 26.3424C7.75474 26.1589 7.58969 25.9316 7.47963 25.6768C8.13085 25.8775 8.59921 26.0871 8.68396 26.7205V26.7384ZM9.6608 25.7749C9.20504 25.8064 8.7521 25.6822 8.37618 25.4226C8.30036 25.3556 8.28252 25.2174 8.15763 24.9096C8.80439 25.1594 9.34411 25.1951 9.6608 25.7571V25.7749Z" fill="white"/>
<path d="M6.57886 35.6683C6.57886 35.6148 6.62793 35.5657 6.65023 35.5122C8.0642 36.0252 9.44247 36.6675 10.9501 36.7701C9.61197 36.0876 8.30505 35.4319 6.98922 34.7272C7.0028 34.6254 7.02671 34.5253 7.06059 34.4283C8.62174 35.1019 10.1517 35.8914 11.9671 35.4007C11.8645 35.2847 11.8199 35.1866 11.7664 35.1866C10.7092 35.1242 9.76809 34.6558 8.80017 34.2945C8.4255 34.1473 8.03743 34.0492 7.65383 33.9288C7.41297 33.8529 7.17656 33.7726 7.34606 33.3667C8.02851 33.505 8.71988 33.6834 9.42463 33.786C10.1309 33.883 10.8448 33.9128 11.5567 33.8752C10.9546 33.2552 10.1071 33.389 9.40232 33.0813C8.69557 32.8251 7.97105 32.6208 7.23455 32.4702C7.23455 32.4167 7.23455 32.3631 7.23455 32.3051L10.8029 32.3899C10.6557 31.984 10.562 31.7253 10.4594 31.4532C7.81706 31.7847 5.14023 31.7246 2.51538 31.2748C2.93912 33.0054 7.63599 37.3009 9.18377 37.2384L6.57886 35.6683ZM5.38791 32.1L5.44144 31.8993C5.78489 31.9885 6.15958 31.9929 6.3826 32.4122L5.38791 32.1ZM5.24519 32.8047L5.32101 32.6664C5.81612 32.8226 6.39152 32.8181 6.69929 33.34L6.56995 33.5585L5.24519 32.8047ZM5.24519 33.737C5.28087 33.6745 5.31656 33.6076 5.3567 33.5451C5.58802 33.6389 5.81431 33.7446 6.03469 33.8618C6.26663 33.9912 6.56101 34.1072 6.41828 34.5934L5.24519 33.737Z" fill="white"/>
<path d="M4.3171 24.3565C4.442 24.7312 4.58473 25.1014 4.73639 25.5118C5.11107 25.3735 5.23595 25.2085 5.1066 24.8829C4.97725 24.5573 4.83898 24.187 4.71409 23.8614C5.2092 23.3797 5.53035 23.6473 5.84258 24.1068C6.04331 23.6607 6.54733 23.625 6.5518 23.1076C6.5518 22.9693 6.83726 22.84 7.03352 22.6616C7.20696 22.9065 7.46988 23.0734 7.76538 23.1259C8.06088 23.1785 8.36522 23.1127 8.61252 22.9426L8.16648 22.1798C9.05857 21.8453 9.50461 22.956 10.3967 22.6928C10.2005 22.2321 9.86926 21.8417 9.44663 21.5732C9.25929 21.4394 9.07194 21.3279 9.19238 21.0647C9.31281 20.8016 9.63843 20.8863 9.81239 20.9711C10.2272 21.1539 10.6108 21.4171 11.0524 21.658C10.9275 21.1896 10.8204 20.7659 10.6866 20.2574C9.88214 20.1197 9.07055 20.0274 8.25569 19.9808C7.08705 19.9808 5.91841 20.07 4.74977 20.1369C4.41082 20.1503 4.08504 20.2718 3.82016 20.4837C3.55528 20.6956 3.36522 20.9867 3.27782 21.3145C2.84819 22.5016 2.62784 23.7542 2.62659 25.0167L3.60789 25.2308C3.54545 24.7491 3.48745 24.3387 3.43393 23.9283C3.51818 23.8822 3.61226 23.8568 3.7083 23.8544C3.80433 23.852 3.89954 23.8727 3.98599 23.9146C4.07243 23.9565 4.1476 24.0185 4.2052 24.0954C4.2628 24.1723 4.30117 24.2618 4.3171 24.3565ZM5.69538 21.7204L6.50719 22.046C6.50719 22.1263 6.50718 22.2021 6.52948 22.2824C6.32876 22.3449 6.08344 22.5054 5.93179 22.4564C5.67754 22.3761 5.53481 22.1263 5.69538 21.7204ZM4.72301 22.4029C4.86574 22.5991 5.00401 22.7954 5.16905 23.0541L4.63826 23.2057C4.61149 22.898 4.59365 22.666 4.57135 22.4296L4.72301 22.4029ZM3.55883 22.3627C3.73754 22.4776 3.87304 22.6485 3.94409 22.8487C4.01513 23.049 4.01768 23.2671 3.95134 23.4689H3.27336C3.38487 23.0719 3.46516 22.7686 3.57221 22.3627H3.55883Z" fill="white"/>
<path d="M20.1031 38.7816C20.0399 38.7347 19.967 38.7028 19.8898 38.6881C19.8125 38.6734 19.733 38.6764 19.6571 38.6968C19.0808 38.9865 18.534 39.3316 18.0245 39.7272C19.327 39.7272 20.5848 39.629 21.6732 38.8039C21.4709 38.8169 21.2697 38.8437 21.071 38.8841C20.9152 38.955 20.7433 38.9828 20.5731 38.9648C20.4029 38.9467 20.2406 38.8835 20.1031 38.7816Z" fill="white"/>
<path d="M27.0965 28.5181C26.9002 29.2407 26.7263 29.9633 26.5077 30.677C26.4061 30.9224 26.2727 31.1534 26.1108 31.3639C25.9738 31.5327 25.8886 31.7375 25.8657 31.9536C25.8427 32.1697 25.8829 32.3879 25.9814 32.5816C26.0847 32.7729 26.1626 32.9768 26.2133 33.1882C26.269 33.3954 26.2555 33.6151 26.175 33.8139C26.0945 34.0127 25.9514 34.1799 25.7673 34.29C25.4283 34.5353 25.1696 34.3613 24.8752 34.2231C24.5089 33.9511 24.0524 33.8298 23.5995 33.8841C24.1035 34.4327 24.8886 34.455 25.3034 35.0483C24.8056 35.1655 24.2834 35.123 23.8111 34.9269C23.3387 34.7307 22.9401 34.3909 22.6717 33.9554L21.9625 34.1517C22.7253 34.9903 23.9296 35.0438 24.7815 35.8824C23.546 36.1277 21.686 35.2936 21.0615 34.3123L19.9642 34.4996C21.1463 35.5746 22.5156 35.9983 23.8671 36.6317C22.8903 36.9796 21.8287 36.6317 19.4736 35.191C19.4201 36.3239 19.5806 36.4756 20.6378 36.7745C21.3158 36.9707 22.0696 37.0421 22.6851 37.7067L22.0473 38.7861C22.2488 38.7767 22.4443 38.7144 22.6142 38.6056C22.7841 38.4968 22.9224 38.3452 23.0152 38.1661C23.0542 38.0647 23.114 37.9726 23.1908 37.8957C23.2677 37.8189 23.3598 37.759 23.4612 37.7201C24.2953 37.564 24.6031 36.7477 25.2454 36.3373C25.3978 36.221 25.5176 36.0674 25.5933 35.8913C26.1286 34.8074 26.6371 33.7101 27.1857 32.6351C27.4135 32.2042 27.483 31.707 27.382 31.2301C27.2988 30.9756 27.2748 30.7055 27.3119 30.4403C27.349 30.1752 27.4462 29.922 27.5961 29.7002C27.6496 29.6332 27.6318 29.495 27.6273 29.3879C27.5961 28.7992 27.5604 28.2104 27.5292 27.6038H27.3463C27.2571 27.9249 27.1768 28.2193 27.0965 28.5181Z" fill="white"/>
<path d="M2.37656 20.4046C2.30073 20.2351 2.21153 20.0656 2.14462 19.8872C2.03757 19.5794 2.14462 19.3653 2.50145 19.2627C2.61875 19.3951 2.72894 19.5335 2.83153 19.6775C2.93413 19.8292 3.01442 19.9987 3.11255 20.1816L3.84852 19.6508L3.29096 18.9505C3.3311 18.888 3.3757 18.8301 3.4203 18.7676C3.80348 18.9652 4.20945 19.115 4.6291 19.2137C5.06954 19.2378 5.5095 19.1583 5.91371 18.9817L4.3124 18.6383C4.3124 18.558 4.3124 18.4777 4.3124 18.3974C4.9324 17.8086 5.6773 18.6115 6.34191 18.3483C6.275 17.938 6.05644 17.8131 5.66838 17.8577C5.16518 17.9173 4.65839 17.9411 4.15183 17.9291C3.40211 17.9354 2.66431 18.1172 1.99743 18.4599C1.84897 18.5272 1.71895 18.6293 1.61844 18.7577C1.51793 18.886 1.44989 19.0367 1.42011 19.197C1.39033 19.3573 1.3997 19.5224 1.4474 19.6783C1.49511 19.8342 1.57974 19.9762 1.69411 20.0924C1.82254 20.2606 1.92203 20.449 1.9885 20.6499C2.04712 20.8336 2.09186 21.0215 2.12232 21.2119C2.56391 20.8105 2.55944 20.8105 2.37656 20.4046Z" fill="white"/>
<path d="M21.9634 25.5965C22.0169 24.642 21.7091 23.7098 21.9634 22.8088C22.4719 22.7195 22.4808 23.1121 22.5566 23.3574C22.7573 23.9997 22.909 24.6598 23.0696 25.3155C23.1588 25.6768 23.3862 25.7616 23.8189 25.7616C23.6851 25.204 23.578 24.6866 23.4398 24.1781C23.3015 23.6696 23.1231 23.1656 23.025 22.6348C23.636 23.0362 23.8011 23.7187 24.1178 24.303C24.3194 24.7033 24.5458 25.0906 24.7958 25.4627C24.9625 25.632 25.1553 25.7735 25.3667 25.882L25.5094 25.7526C25.2507 25.1416 25.0054 24.5216 24.7378 23.9149C24.4701 23.3083 24.198 22.7463 23.8992 22.1308C24.0553 22.0995 24.2471 22.0282 24.2694 22.0638C24.7512 22.7998 25.2195 23.5492 25.6745 24.2941C25.7992 24.5497 25.9065 24.8135 25.9956 25.0836C26.067 24.7134 26.1696 24.5082 26.125 24.3298C26.0439 23.9327 25.9167 23.5465 25.7458 23.179C24.6798 20.9799 22.9447 19.45 20.8081 18.1654C20.8081 20.6811 21.3255 23.0719 21.4147 25.5653L21.9634 25.5965ZM22.9001 20.69L23.0651 20.5651L23.7699 21.3859L23.6137 21.533C23.1722 21.4483 23.1632 20.9443 22.9001 20.6856V20.69ZM21.7939 21.7516L21.9009 21.7248C21.9589 21.8542 22.0169 21.9791 22.0704 22.1085L21.8786 22.1709C21.8518 22.0282 21.8206 21.8899 21.7939 21.7472V21.7516Z" fill="white"/>
<path d="M15.3214 16.4749L16.1823 18.4999L19.2065 18.9459C19.8443 18.2813 19.8086 17.9869 18.979 17.5632C17.8439 16.9619 16.6006 16.5919 15.3214 16.4749Z" fill="white"/>
<path d="M16.8688 38.9645C17.0383 38.9065 17.1989 38.8129 17.5379 38.6567C15.7537 38.4605 14.148 38.8575 12.5823 38.2107C12.8277 38.1839 13.073 38.1438 13.3183 38.1393C14.3041 38.1081 15.2898 38.1393 16.2756 38.0546C16.8733 38.0145 17.4665 37.8628 18.198 37.7424C18.0481 37.6033 17.8668 37.5023 17.6697 37.448C17.4725 37.3937 17.2651 37.3875 17.0651 37.4301C16.2042 37.4658 15.3389 37.4792 14.478 37.5015C14.478 37.4257 14.4557 37.3543 14.4468 37.2785L18.1088 36.5737C17.8546 36.199 17.5914 36.257 17.306 36.2749C15.9009 36.4052 14.5134 36.6832 13.1667 37.1045C11.6813 37.5149 10.2049 37.9743 8.72851 38.4159C8.65504 38.4467 8.58603 38.4872 8.52332 38.5363C9.41541 39.0359 14.2951 39.928 15.0936 39.6916L12.1497 39.1296C12.1497 39.0671 12.1497 39.0136 12.1497 38.9512C12.2741 38.9354 12.3999 38.9354 12.5243 38.9512C13.9565 39.2513 15.4349 39.2558 16.8688 38.9645Z" fill="white"/>
<path d="M3.4296 29.62L4.10758 29.2899C4.41089 29.6244 4.71866 29.959 4.99967 30.3024C5.18701 30.521 5.36543 30.5879 5.61075 30.3024L4.65622 29.1293C5.10227 28.6431 5.10226 28.6431 5.51709 29.0044C5.68658 29.1561 5.86946 29.2944 6.10587 29.4817C6.07465 29.0044 6.07464 29.0044 5.54385 28.2417C6.17277 27.7421 5.65091 27.2738 5.45465 26.7698C3.96932 26.2791 2.35462 26.1899 0.900513 25.1774C0.933655 25.4571 0.985817 25.7343 1.05663 26.007C1.50636 27.3383 2.10487 28.6146 2.84081 29.8118C3.0683 30.1731 3.31808 30.5567 3.91132 30.3693L3.4296 29.62ZM4.60715 28.2417C4.24139 28.6476 4.0719 28.4692 3.9247 28.0856C4.24139 27.8715 4.42427 28.0053 4.60715 28.2417ZM2.20297 27.4611C2.95679 27.76 3.62586 28.5004 3.54111 28.9152L3.01923 29.165C2.76052 28.5896 2.4929 28.0811 2.20297 27.4611Z" fill="white"/>
<path d="M8.81784 18.9907C8.99328 18.9884 9.1684 19.0063 9.33972 19.0442C9.62762 19.1358 9.93148 19.1661 10.2318 19.1334L9.78577 18.7587C10.0935 18.3662 10.4013 18.2145 10.8384 18.4554C11.1593 18.6299 11.4934 18.7791 11.8376 18.9014C11.9535 18.946 12.1141 18.8657 12.4442 18.8033L10.8741 17.9112C10.8741 17.6079 11.0347 17.4964 11.2934 17.5767C12.0517 17.822 12.8233 18.0495 13.5638 18.3484C14.1615 18.5892 14.3488 18.549 14.6744 17.7952C11.9446 16.97 9.28173 16.2742 6.44934 17.1306L7.50647 19.0353C7.89007 19.0308 8.35395 18.9996 8.81784 18.9907ZM8.63943 17.7952L9.41109 18.0361C8.94274 18.2993 8.94274 18.2993 8.63943 17.7952ZM7.41727 18.1967C7.81871 18.2636 8.26475 18.1075 8.5413 18.549C8.00604 18.8524 8.00604 18.8524 7.39942 18.1967H7.41727Z" fill="white"/>
<path d="M19.6925 24.071C18.9119 23.4109 18.1046 22.7909 17.3062 22.1486C17.1902 22.0549 17.0831 21.9479 16.9627 21.8364C17.3686 21.5732 17.5604 21.6223 18.5372 22.162C19.0502 22.443 19.5721 22.7106 20.1073 22.9916C20.2188 22.211 20.2188 22.2155 19.6613 21.8899L17.8369 20.8372C18.2607 20.6231 18.2607 20.6231 19.9557 21.0781C20.0895 20.4135 20.1073 20.351 19.5631 20.186C18.6224 19.8905 17.6607 19.6669 16.6862 19.5169C15.677 19.3958 14.6597 19.3555 13.6441 19.3965C13.0871 19.4505 12.5397 19.578 12.0161 19.7756C11.5388 19.9273 11.4317 20.1458 11.628 20.6677C11.8752 21.2662 12.1536 21.8514 12.4621 22.4207C13.1401 23.738 13.833 25.0509 14.5407 26.3593C14.7503 26.7518 15.0179 27.1131 15.2543 27.4878C15.6156 27.3094 15.4952 27.0863 15.4149 26.899C15.1295 26.2611 14.8261 25.6322 14.5228 24.9988L14.108 24.1067C14.3355 23.8748 14.4916 23.9328 14.6388 24.1424C15.0878 24.7847 15.5339 25.4226 15.9769 26.056C16.183 26.3679 16.4095 26.666 16.6549 26.948C16.7486 27.0551 16.9627 27.0506 17.217 27.1265C16.7441 25.7036 15.8788 24.6375 15.3213 23.3975C15.8119 23.906 16.2847 24.4368 16.7977 24.9185C17.3106 25.4003 17.8816 25.8508 18.4124 26.3013C18.796 26.1362 18.6978 25.9489 18.506 25.7348C18.06 25.2129 17.5872 24.6821 17.1322 24.1513C17.0162 24.0131 16.9226 23.8525 16.8066 23.7053C18.109 23.5982 18.8673 24.5483 19.755 25.2263C20.1564 24.5929 20.1653 24.4636 19.6925 24.071ZM15.0804 20.8818C15.1072 20.8105 15.1295 20.7346 15.1518 20.6633L16.4899 21.1539C16.4676 21.2164 16.4453 21.2788 16.4274 21.3368C15.9011 21.4082 15.5487 20.9755 15.0804 20.8818ZM14.2909 22.104L14.951 22.7552L14.8038 22.8846C14.6634 22.8035 14.5438 22.6907 14.4547 22.5552C14.3657 22.4196 14.3096 22.2651 14.2909 22.104ZM14.0545 23.4109C13.9965 23.4511 13.9341 23.4867 13.8716 23.5224C13.8047 23.3752 13.7333 23.2236 13.662 23.0764L13.8002 23.005L14.0545 23.4109Z" fill="white"/>
<path fill-rule="evenodd" clip-rule="evenodd" d="M54.9771 48.8342C55.3044 47.4671 55.5654 46.0908 55.2843 44.6484C55.4029 44.5713 55.5305 44.5088 55.6642 44.4626C55.985 44.4342 56.2836 44.2867 56.5012 44.0492C56.7187 43.8117 56.8394 43.5013 56.8396 43.1792C56.9962 42.1321 56.7081 41.1437 56.4568 40.1537C56.29 39.5045 56.0611 38.8698 55.8601 38.2318C56.7449 37.5853 56.817 37.3679 56.4986 36.3277C56.0327 34.9133 55.3137 33.5953 54.3765 32.4381C53.5213 31.351 52.5968 30.2905 51.6942 29.2118L52.4168 28.3133C51.1956 27.4856 49.9122 26.7536 48.5781 26.1239C47.3188 25.5405 45.998 25.1002 44.6405 24.8112C43.9983 24.6789 43.3608 24.6567 42.7326 24.5227C42.0836 24.3668 41.4245 24.2568 40.7601 24.1935C40.0761 24.0899 39.378 24.129 38.7098 24.3083C37.9339 24.6037 36.255 24.4854 35.4076 25.0394C34.5602 25.5934 33.5393 27.0771 33.2946 27.3364C32.4119 28.2383 30.2945 31.7276 29.9555 33.7253C29.9487 33.9935 29.8941 34.2583 29.7943 34.5073C29.5957 35.2497 29.4487 36.6039 29.684 36.4565C30.1077 37.183 30.3138 38.0159 30.2778 38.8561C30.2885 40.4614 30.9697 41.8405 31.657 43.2119C32.2649 44.4165 33.2596 45.2911 34.1893 46.2159C34.3086 46.3648 34.4754 46.4683 34.6617 46.5091C35.3651 46.4993 35.5919 47.0561 35.9813 47.487C36.4307 47.9787 36.963 48.3875 37.554 48.6948C38.5554 49.2637 39.6679 49.6096 40.8153 49.7086C41.2124 49.7267 41.6306 49.4212 42.2162 49.2095C42.8952 49.5832 43.5931 49.9217 44.3071 50.2235C44.9107 50.439 45.5415 50.569 46.1812 50.6098C47.0232 50.6786 47.8772 50.6452 48.722 50.6781C48.9084 50.6801 49.1187 50.6096 49.2731 50.6779C49.8699 50.9421 50.1658 50.6114 50.4083 50.1422C51.2688 50.1875 52.1154 50.2117 52.9618 50.2815C53.1899 50.326 53.4247 50.3234 53.6517 50.2738C53.8788 50.2242 54.0933 50.1286 54.282 49.9931C54.4708 49.8575 54.6298 49.6848 54.7494 49.4855C54.8689 49.2862 54.9464 49.0646 54.9771 48.8342Z" fill="#5F816D"/>
<path d="M43.0076 36.2018C42.13 36.3716 41.1322 35.7333 40.2063 36.5352C40.3529 36.6544 40.5181 36.7484 40.6954 36.8136C41.3226 36.928 41.9578 36.9935 42.5952 37.0094C44.086 36.9797 45.571 36.8896 47.1023 36.8182C47.1794 35.9408 47.0814 35.0568 46.8141 34.2175C46.5573 33.2537 46.1918 32.3313 45.8816 31.3838C45.8262 31.1766 45.7997 30.9628 45.8032 30.7483C45.7927 30.2907 45.5539 30.1458 45.1462 30.1574C45.0068 30.5022 45.5316 30.8062 45.1227 31.1773L44.2492 30.5099L44.1664 30.6022C44.4306 31.0437 44.6992 31.4862 45.0198 32.0077C44.1533 31.7927 43.7122 30.9275 42.7611 30.9683C43.2169 31.8501 44.2178 32.1202 44.5292 33.0178C43.5098 32.6164 42.6872 31.791 41.5266 31.7431C42.1135 32.6519 43.1199 33.0279 44.0782 33.7036C43.8079 33.8437 43.6328 34.008 43.536 33.9699C43.1176 33.8031 42.7079 33.6153 42.3085 33.4071C41.8941 33.2079 41.4843 32.9868 41.0645 32.8137C40.9476 32.7623 40.7784 32.8321 40.4808 32.8619C41.254 33.9048 42.3034 34.2714 43.2911 34.6936C43.2952 35.0497 43.1677 35.16 42.8472 35.0575C42.2622 34.8686 41.6789 34.6937 41.0885 34.5311C40.8474 34.4768 40.6035 34.4357 40.3579 34.4078L40.2641 34.5979C40.3967 34.7714 40.5587 34.9204 40.7426 35.0381C41.3326 35.269 41.9447 35.459 42.5543 35.6393C42.8397 35.7346 43.1503 35.7303 43.0076 36.2018ZM44.3784 33.9705L45.0781 34.7295C44.2193 34.5434 44.1932 34.5152 44.3784 33.9705ZM43.8245 35.3318C43.7764 35.3219 43.8549 35.074 43.8796 34.8878L45.5809 35.6484C45.2875 35.7531 44.9718 35.7791 44.6652 35.7239C44.3585 35.6687 44.0717 35.5341 43.8332 35.3336L43.8245 35.3318ZM43.5458 35.8664L44.4995 36.1222C44.1846 36.2805 43.8372 36.596 43.5327 35.8637L43.5458 35.8664Z" fill="white"/>
<path d="M38.2282 37.826C38.3201 37.6002 38.3784 37.3621 38.4012 37.1193C38.4355 35.7601 38.4512 34.4244 38.4373 33.078C38.4301 32.3615 38.249 32.224 37.3381 32.1137L37.6866 34.2896C37.0045 33.6434 36.7531 32.6762 35.8715 32.0482C35.9499 33.1482 36.788 33.7218 36.9764 34.5531C36.6918 34.7631 36.5576 34.6626 36.4173 34.4378C36.0768 33.8803 35.6768 33.3242 35.3039 32.7692C35.2327 32.6039 35.1041 32.4699 34.9418 32.3921C34.7795 32.3142 34.5945 32.2978 34.4211 32.3458C34.7432 33.3458 35.4192 34.1319 35.8554 35.0643C34.7458 34.8356 34.5137 33.5536 33.5052 33.077C33.4411 33.7196 33.8669 34.0624 34.1421 34.406C34.4174 34.7497 34.781 35.107 35.1391 35.4905L34.7011 35.8921L32.953 34.1654C32.8251 34.7858 32.8215 34.8032 33.1213 35.1383C33.4211 35.4734 33.7758 35.8516 34.1159 36.1904C34.2967 36.3734 34.3693 36.5296 34.0774 36.7745C33.7751 36.5619 33.4448 36.3527 33.1365 36.1252C32.8282 35.8977 32.5517 35.6038 32.2646 35.3397C32.211 35.3788 32.1609 35.4231 32.1117 35.463C32.2738 35.7151 32.3856 36.0341 32.605 36.2069C33.2238 36.713 33.8822 37.1686 34.574 37.5692C35.406 37.9669 36.2904 38.2442 37.2005 38.3929C37.8183 38.5112 38.0313 38.4276 38.2282 37.826ZM37.6065 34.9653L37.8068 34.9656L37.766 35.3625L37.6786 35.3445C37.6514 35.2114 37.6285 35.0792 37.6101 34.9478L37.6065 34.9653ZM37.1872 35.0109C37.2878 35.4507 37.3484 35.7091 37.409 35.9675C36.9404 35.4792 36.9404 35.4792 37.1908 34.9935L37.1872 35.0109ZM36.0641 35.7313L36.1863 35.6244C36.6367 35.9359 36.6367 35.9358 36.8196 36.5291C36.4971 36.1712 36.2798 35.9442 36.0677 35.7138L36.0641 35.7313ZM35.1183 36.4972L35.6371 35.9028L36.5209 36.7408C36.2411 36.8101 35.9539 36.8458 35.6656 36.8469C35.4769 36.8125 35.3275 36.6315 35.1219 36.4798L35.1183 36.4972ZM36.9114 37.1219C37.1894 37.285 37.4563 37.4663 37.7104 37.6646L37.5777 37.9105L36.3606 37.3636C36.666 37.208 36.8365 37.0655 36.9019 37.1017L36.9114 37.1219ZM34.8644 36.9777C35.0356 36.9919 35.1984 37.0577 35.3313 37.1664C35.4642 37.2751 35.561 37.4217 35.6088 37.5866C35.2318 37.4269 34.8577 37.5183 34.868 36.9603L34.8644 36.9777Z" fill="white"/>
<path d="M44.3214 40.5896C44.2933 40.9026 44.2933 40.9027 44.8591 41.5385C44.7375 41.7515 44.6513 41.9829 44.604 42.2237C44.6056 42.5473 44.9083 42.5369 45.1487 42.5637C46.627 42.7272 48.1069 42.9048 49.6073 43.0273C50.2639 43.0898 50.5942 42.8573 50.699 42.1502C50.8065 41.4055 50.8519 40.6532 50.8347 39.9011C50.8312 38.8574 50.7614 37.8047 50.722 36.7582C50.7123 36.4738 50.6199 36.2817 50.2381 36.3442C50.3126 36.9106 50.3897 37.4867 50.4895 38.2177C50.1975 38.0437 50.007 37.9953 49.9238 37.8688C49.577 37.3419 49.2739 36.824 48.9358 36.2989C48.8248 36.1588 48.6982 36.0318 48.5584 35.9205L48.4309 36.0309L49.7127 38.9593C49.4025 38.8954 49.2116 38.938 49.1317 38.8395C48.9687 38.7001 48.8485 38.5175 48.7849 38.3126C48.714 38.0557 48.5912 37.8161 48.424 37.6085C48.2569 37.401 48.0489 37.2299 47.8131 37.1058L47.3086 37.6531L48.3067 39.4392C47.8865 39.3696 47.4849 39.2149 47.1267 38.9844C46.7685 38.7539 46.4613 38.4526 46.2239 38.099C46.1858 38.0242 46.1326 37.9581 46.0678 37.9047C46.003 37.8514 45.9279 37.812 45.8472 37.7889C45.7665 37.7659 45.6819 37.7597 45.5987 37.7708C45.5155 37.7819 45.4355 37.81 45.3637 37.8533C45.8567 38.7975 46.7448 39.5043 47.1326 40.4951L46.9684 40.607C46.9076 40.5262 46.8487 40.4366 46.7818 40.3636C46.5835 40.1542 46.435 39.8367 46.1728 39.7826C45.4639 39.5545 44.9622 39.0276 44.4004 38.6157C44.2297 38.494 44.0681 38.3058 43.8065 38.6026C44.2024 39.5541 45.1372 40.0565 45.7623 40.8684C45.1394 41.3275 44.7908 40.6545 44.3214 40.5896ZM49.4533 39.3339C49.5926 39.3799 49.7206 39.4548 49.8289 39.5537C49.9372 39.6527 50.0234 39.7734 50.0817 39.9081C50.1399 40.0427 50.1691 40.1881 50.1671 40.3348C50.1652 40.4815 50.1322 40.6261 50.0704 40.7591L49.4533 39.3339ZM48.6397 40.0771C48.8852 40.2065 49.0991 40.3887 49.266 40.6105C49.4328 40.8323 49.5486 41.0882 49.6049 41.36C49.0076 41.0319 48.5913 40.732 48.6361 40.0946L48.6397 40.0771ZM47.4885 40.8235C47.9412 40.8847 48.3598 41.0978 48.6755 41.428C48.7363 41.5088 48.7258 41.6478 48.786 41.9745C48.203 41.5993 47.6816 41.4553 47.4849 40.841L47.4885 40.8235Z" fill="white"/>
<path d="M52.5046 31.7562C52.4938 31.8086 52.4359 31.8468 52.4032 31.8947C51.1219 31.1068 49.9017 30.1995 48.4458 29.7946C49.6186 30.7332 50.7663 31.6392 51.9127 32.5951C51.8789 32.6921 51.8352 32.7853 51.7825 32.8734C50.3894 31.8985 49.0504 30.8164 47.1733 30.9305C47.2504 31.0648 47.2743 31.1699 47.3267 31.1807C48.3494 31.4553 49.1767 32.104 50.0517 32.6532C50.3889 32.873 50.7492 33.0475 51.1006 33.2429C51.3212 33.3658 51.5365 33.4922 51.2886 33.8555C50.6481 33.5823 50.007 33.268 49.3374 33.0252C48.6653 32.7877 47.9721 32.6143 47.2673 32.5074C47.7318 33.2362 48.5889 33.2762 49.217 33.7199C49.8575 34.1135 50.5258 34.4598 51.2168 34.7561C51.206 34.8085 51.1951 34.8609 51.1834 34.9177L47.7057 34.1143C47.7679 34.5416 47.8074 34.8138 47.853 35.101C50.5079 35.3099 53.1174 35.9092 55.5974 36.8796C55.5318 35.0991 51.7989 29.9438 50.2703 29.6925L52.5046 31.7562ZM52.9506 35.4915L52.8577 35.6773C52.5393 35.5206 52.1732 35.4406 52.0395 34.9849L52.9506 35.4915ZM53.2327 34.8301L53.1305 34.9502C52.6771 34.6973 52.1127 34.5855 51.9166 34.0123L52.0874 33.8243L53.2327 34.8301ZM53.4209 33.917C53.3734 33.971 53.3249 34.0293 53.273 34.0824C53.0653 33.9438 52.8651 33.7946 52.6729 33.6353C52.4718 33.4618 52.2069 33.2888 52.4449 32.8414L53.4209 33.917Z" fill="white"/>
<path d="M52.4354 43.2916C52.3887 42.8994 52.3236 42.508 52.2579 42.0754C51.8631 42.1352 51.7074 42.2716 51.7684 42.6167C51.8293 42.9617 51.89 43.3522 51.9466 43.6963C51.3644 44.0682 51.1039 43.7412 50.8909 43.2282C50.6042 43.6246 50.1034 43.5577 49.9945 44.0636C49.9666 44.199 49.6609 44.2681 49.4327 44.4032C49.3123 44.1283 49.0884 43.9118 48.8096 43.8006C48.5308 43.6895 48.2195 43.6925 47.9429 43.8092L48.2258 44.6463C47.2845 44.7938 47.0719 43.616 46.145 43.6936C46.2442 44.1844 46.4898 44.6336 46.8495 44.982C47.006 45.1508 47.167 45.2979 46.9959 45.5313C46.8248 45.7647 46.523 45.616 46.3697 45.4979C46.0004 45.235 45.6778 44.8998 45.2939 44.5748C45.3217 45.0587 45.341 45.4953 45.3694 46.0204C46.1295 46.3176 46.9058 46.5719 47.6945 46.782C48.839 47.0179 50.0016 47.1665 51.1597 47.3369C51.4944 47.3923 51.838 47.339 52.1402 47.185C52.4424 47.0309 52.6873 46.7841 52.8391 46.4808C53.4995 45.4049 53.9682 44.2225 54.2243 42.9863L53.3065 42.5785C53.2704 43.0629 53.2443 43.4765 53.2139 43.8893C53.1221 43.9175 53.0248 43.9233 52.9303 43.9062C52.8357 43.8892 52.7466 43.8498 52.6704 43.7913C52.5942 43.7328 52.5331 43.6569 52.4922 43.5699C52.4513 43.483 52.4318 43.3876 52.4354 43.2916ZM50.5532 45.5951L49.8239 45.1123C49.8401 45.0337 49.8554 44.9594 49.8498 44.8763C50.059 44.8557 50.3317 44.7479 50.4703 44.8266C50.7031 44.9566 50.7925 45.23 50.5532 45.5951ZM51.6434 45.1231C51.5432 44.902 51.4474 44.6819 51.338 44.3952L51.8885 44.3538C51.8526 44.6607 51.8232 44.8914 51.7973 45.1275L51.6434 45.1231ZM52.7755 45.3974C52.6236 45.2488 52.5254 45.054 52.4963 44.8436C52.4671 44.6332 52.5087 44.419 52.6144 44.2347L53.2784 44.3716C53.089 44.7379 52.9492 45.0188 52.7624 45.3947L52.7755 45.3974Z" fill="white"/>
<path d="M39.8872 25.9764C39.9396 26.035 40.0046 26.0811 40.0772 26.111C40.1499 26.141 40.2284 26.1541 40.3069 26.1495C40.9298 25.9821 41.535 25.7545 42.1138 25.47C40.8382 25.207 39.5865 25.0492 38.3539 25.6376C38.5547 25.6657 38.7572 25.68 38.9599 25.6806C39.1268 25.6426 39.3008 25.6501 39.4639 25.7021C39.6269 25.7541 39.7731 25.8489 39.8872 25.9764Z" fill="white"/>
<path d="M30.965 34.6166C31.3031 33.9485 31.6193 33.2759 31.9775 32.6211C32.1265 32.4012 32.3039 32.202 32.505 32.0284C32.6732 31.8908 32.7979 31.7074 32.864 31.5004C32.9302 31.2933 32.9348 31.0716 32.8775 30.8619C32.815 30.6537 32.7798 30.4383 32.7728 30.221C32.7601 30.0069 32.8177 29.7944 32.9366 29.6159C33.0556 29.4374 33.2296 29.3027 33.4321 29.232C33.8137 29.0602 34.0319 29.2828 34.2923 29.4776C34.5961 29.8179 35.0187 30.0289 35.4733 30.0672C35.0904 29.4281 34.326 29.2477 34.0395 28.583C34.5508 28.5686 35.0536 28.7157 35.4766 29.0031C35.8997 29.2906 36.2215 29.704 36.3964 30.1846L37.1306 30.1356C36.5529 29.1603 35.3842 28.8647 34.7191 27.8714C35.9787 27.8806 37.632 29.073 38.0455 30.1602L39.158 30.1983C38.2173 28.9068 36.9617 28.2153 35.7659 27.3221C36.7929 27.1786 37.7624 27.7337 39.7781 29.6202C40.0593 28.5214 39.9326 28.3404 38.9576 27.8343C38.3332 27.5052 37.6093 27.2831 37.1406 26.5079L37.9833 25.5795C37.784 25.548 37.5799 25.5695 37.3916 25.6418C37.2032 25.7141 37.0372 25.8346 36.9101 25.9913C36.8514 26.0828 36.7742 26.1609 36.6835 26.2207C36.5927 26.2804 36.4904 26.3204 36.3832 26.3381C35.5347 26.3226 35.0685 27.0599 34.3566 27.3322C34.1838 27.4153 34.0355 27.5416 33.9258 27.6988C33.1827 28.6523 32.4632 29.6243 31.7088 30.5664C31.3987 30.9425 31.2303 31.4154 31.2329 31.9029C31.263 32.1689 31.232 32.4383 31.1421 32.6905C31.0522 32.9427 30.9059 33.171 30.7143 33.3581C30.6484 33.4128 30.638 33.5518 30.6207 33.6576C30.5324 34.2405 30.4485 34.8244 30.3566 35.4248L30.5357 35.4617C30.6879 35.1652 30.826 34.8931 30.965 34.6166Z" fill="white"/>
<path d="M53.5377 47.5538C53.5778 47.7351 53.6309 47.9191 53.6604 48.1074C53.7031 48.4304 53.5551 48.6185 53.1849 48.6469C53.0967 48.4936 53.0167 48.3358 52.9453 48.174C52.8755 48.0048 52.831 47.8225 52.7719 47.6236L51.9439 47.9949L52.3486 48.7933C52.2966 48.8464 52.2413 48.8942 52.185 48.9463C51.8496 48.6755 51.4822 48.4468 51.0911 48.2654C50.6646 48.1529 50.2177 48.1419 49.7861 48.2332L51.2851 48.8929C51.2689 48.9716 51.2527 49.0502 51.2365 49.1288C50.5104 49.5803 49.9429 48.6436 49.2389 48.7671C49.2216 49.1825 49.4104 49.349 49.7995 49.3837C50.3043 49.4269 50.8055 49.5059 51.2992 49.6199C52.0348 49.765 52.7941 49.736 53.5164 49.535C53.6754 49.4991 53.8234 49.4252 53.9477 49.3198C54.0721 49.2144 54.1691 49.0806 54.2307 48.9296C54.2922 48.7786 54.3163 48.615 54.3011 48.4527C54.2858 48.2904 54.2316 48.1342 54.1431 47.9974C54.0513 47.8067 53.9918 47.6021 53.9673 47.3919C53.947 47.2001 53.9411 47.007 53.9497 46.8144C53.4362 47.1184 53.4405 47.1193 53.5377 47.5538Z" fill="white"/>
<path d="M35.4037 38.5145C35.1586 39.4386 35.2718 40.4138 34.8409 41.2449C34.3249 41.2296 34.3954 40.8434 34.3706 40.5878C34.3037 39.9182 34.2885 39.241 34.2636 38.5664C34.2491 38.1946 34.0435 38.0656 33.6197 37.9783C33.6382 38.5514 33.6386 39.0798 33.6713 39.6057C33.7041 40.1316 33.7771 40.6613 33.766 41.201C33.2486 40.6844 33.2247 39.9827 33.0325 39.3465C32.9159 38.9137 32.7723 38.4887 32.6026 38.0738C32.4735 37.8743 32.3133 37.6968 32.1281 37.5479L31.9622 37.6457C32.0922 38.2965 32.2073 38.9532 32.347 39.6014C32.4866 40.2495 32.6396 40.8549 32.808 41.5181C32.6488 41.5172 32.4466 41.5484 32.4319 41.5089C32.1087 40.6908 31.8013 39.8624 31.5061 39.0409C31.4356 38.7654 31.3837 38.4854 31.3509 38.2029C31.2063 38.551 31.0644 38.7313 31.0721 38.915C31.0713 39.3203 31.1179 39.7243 31.2111 40.1187C31.8112 42.4876 33.2017 44.3364 35.0349 46.0259C35.5428 43.562 35.5187 41.1159 35.9348 38.6559L35.4037 38.5145ZM33.4957 43.1309L33.3089 43.2199L32.7843 42.2738L32.967 42.1612C33.3823 42.3333 33.2893 42.8287 33.4948 43.1353L33.4957 43.1309ZM34.7935 42.3145L34.6832 42.3191C34.6525 42.1807 34.621 42.0467 34.5947 41.9092L34.7951 41.8868C34.7925 42.032 34.7952 42.1737 34.7926 42.3189L34.7935 42.3145Z" fill="white"/>
<path d="M40.0665 48.7892L39.6322 46.632L36.7604 45.5846C36.0015 46.1068 35.977 46.4023 36.704 46.9848C37.6943 47.803 38.8373 48.4163 40.0665 48.7892Z" fill="white"/>
<path d="M43.091 26.4502C42.9132 26.4728 42.7371 26.5321 42.3735 26.6166C44.0813 27.169 45.7342 27.1044 47.137 28.0539C46.8913 28.0306 46.6429 28.0204 46.4018 27.9752C45.43 27.8068 44.4708 27.5772 43.4883 27.4612C42.8948 27.3798 42.2831 27.4086 41.5424 27.3789C41.6612 27.5453 41.8183 27.6808 42.0004 27.7738C42.1826 27.8668 42.3844 27.9147 42.5889 27.9134C43.4393 28.0522 44.2895 28.2138 45.1372 28.3658C45.1219 28.4401 45.1293 28.5145 45.1227 28.5905L41.3938 28.5414C41.5672 28.9597 41.8366 28.9561 42.1198 28.9962C43.5223 29.1523 44.9373 29.1601 46.3414 29.0194C47.879 28.9173 49.4177 28.7654 50.9529 28.631C51.0311 28.6157 51.1068 28.59 51.1782 28.5545C50.4053 27.8851 45.8062 26.0262 44.9764 26.0965L47.7463 27.2413C47.7337 27.3025 47.7229 27.3549 47.7102 27.4161C47.5852 27.4063 47.4619 27.3809 47.3433 27.3404C46.0012 26.7574 44.5542 26.4544 43.091 26.4502Z" fill="white"/>
<path d="M54.3677 38.3157L53.637 38.502C53.4075 38.1132 53.1736 37.7234 52.9677 37.3303C52.8284 37.0784 52.6671 36.9768 52.3692 37.2069L53.0672 38.5485C52.5322 38.9347 52.5322 38.9347 52.1989 38.4971C52.0635 38.3143 51.9123 38.142 51.7186 37.9108C51.6528 38.3845 51.6528 38.3845 52.0187 39.2387C51.3019 39.601 51.7184 40.1651 51.8089 40.6983C53.1646 41.4788 54.728 41.8921 55.9478 43.1774C55.9718 42.8967 55.9767 42.6147 55.9623 42.3333C55.7907 40.9386 55.4622 39.5677 54.9831 38.2467C54.8332 37.8469 54.666 37.4208 54.0472 37.4845L54.3677 38.3157ZM52.9361 39.4278C53.3763 39.1041 53.5063 39.3131 53.573 39.7185C53.2196 39.8643 53.0675 39.6963 52.9361 39.4278ZM55.1332 40.6777C54.4552 40.2328 53.9494 39.3725 54.1162 38.9834L54.6777 38.8441C54.815 39.4599 54.9744 40.0119 55.1332 40.6777Z" fill="white"/>
<path d="M46.9439 47.6383C46.7716 47.6052 46.6037 47.5522 46.4436 47.4805C46.1801 47.3327 45.8886 47.2416 45.5879 47.2131L45.9491 47.6701C45.5684 47.9924 45.2363 48.0788 44.8569 47.7546C44.5778 47.5189 44.2807 47.3054 43.9683 47.116C43.8638 47.0489 43.6903 47.0952 43.3544 47.0897L44.712 48.2804C44.6508 48.5775 44.471 48.6543 44.2338 48.5234C43.5407 48.13 42.8309 47.7514 42.166 47.3092C41.6293 46.9527 41.4377 46.9542 40.9666 47.6267C43.4736 48.9861 45.9411 50.2052 48.8881 49.9382L48.2373 47.8594C47.8607 47.7863 47.4 47.7232 46.9439 47.6383ZM46.8773 48.8452L46.1701 48.4534C46.682 48.2903 46.682 48.2903 46.8773 48.8452ZM48.1553 48.6987C47.7757 48.5521 47.3073 48.615 47.1256 48.1267C47.7111 47.9377 47.7111 47.9377 48.1728 48.7023L48.1553 48.6987Z" fill="white"/>
<path d="M37.3193 40.467C37.9506 41.2711 38.6161 42.0413 39.2684 42.8316C39.3631 42.9468 39.4463 43.0732 39.5418 43.2068C39.0911 43.3826 38.9131 43.2958 38.0654 42.5699C37.6197 42.1912 37.1626 41.8237 36.6951 41.4404C36.4283 42.1824 36.4292 42.178 36.9096 42.6095L38.4838 44.0088C38.0256 44.133 38.0256 44.1329 36.4573 43.3452C36.1921 43.9691 36.162 44.0266 36.6617 44.2981C37.5233 44.7774 38.4201 45.1906 39.3443 45.5342C40.3083 45.8567 41.2965 46.1015 42.2994 46.2664C42.8559 46.3259 43.4178 46.3116 43.9705 46.2237C44.4686 46.1716 44.6175 45.9791 44.5307 45.4284C44.4094 44.7923 44.2549 44.163 44.0677 43.5431C43.6696 42.116 43.256 40.6903 42.827 39.266C42.701 38.8392 42.5118 38.4313 42.3559 38.0166C41.966 38.1184 42.039 38.3612 42.0798 38.5609C42.2306 39.2432 42.4007 39.9204 42.5699 40.602L42.796 41.5595C42.5264 41.7407 42.3852 41.6524 42.2834 41.4173C41.9733 40.6976 41.6652 39.9829 41.3591 39.2731C41.2203 38.9259 41.0586 38.5883 40.8752 38.2625C40.8051 38.1387 40.5945 38.0998 40.3608 37.9742C40.5366 39.4633 41.1689 40.6821 41.4646 42.0091C41.0867 41.4121 40.7308 40.7967 40.3257 40.2214C39.9205 39.646 39.4523 39.0895 39.0234 38.5411C38.6144 38.6253 38.6727 38.8286 38.8173 39.077C39.1488 39.6782 39.5047 40.2935 39.8431 40.9052C39.9288 41.0641 39.9881 41.2403 40.072 41.4078C38.7747 41.2497 38.2239 40.1661 37.4914 39.3229C36.9704 39.8622 36.9355 39.9871 37.3193 40.467ZM41.1926 44.5216C41.152 44.5861 41.1148 44.6559 41.0786 44.7213L39.8671 43.9706C39.9015 43.9139 39.936 43.8573 39.9651 43.8041C40.495 43.8405 40.7528 44.3354 41.1926 44.5216ZM42.2126 43.484L41.6975 42.7129L41.8678 42.616C41.989 42.7237 42.0833 42.8584 42.1432 43.0091C42.2031 43.1598 42.2268 43.3225 42.2126 43.484ZM42.708 42.2518C42.7729 42.2242 42.8412 42.2018 42.9096 42.1795C42.9454 42.3372 42.9847 42.5001 43.0249 42.6587L42.875 42.7006L42.708 42.2518Z" fill="white"/>
<path fill-rule="evenodd" clip-rule="evenodd" d="M30.212 0.36429C31.4206 0.315454 32.6252 0.53319 33.7402 1.0021C33.8283 0.919885 33.9075 0.828701 33.9766 0.730024C34.0682 0.471811 34.2532 0.257238 34.495 0.128472C34.7369 -0.000293219 35.0181 -0.0339047 35.2835 0.0342211C36.1476 0.186189 36.9717 0.512492 37.7056 0.99323C38.2051 1.26978 38.6824 1.59539 39.1641 1.88532C39.8867 1.28762 40.083 1.27423 40.8769 1.76041C41.9461 2.4467 42.8829 3.32005 43.6424 4.33857C44.3695 5.27973 45.0385 6.2699 45.7344 7.24674C45.9752 7.12631 46.2696 6.98357 46.6265 6.8007C47.0506 7.98522 47.3831 9.20055 47.6211 10.436C47.8345 11.6022 47.9168 12.7886 47.8665 13.9731C47.8665 14.5307 47.7237 15.0615 47.697 15.6101C47.6896 16.1792 47.6419 16.7472 47.5542 17.3096C47.4923 17.8979 47.3101 18.4672 47.019 18.9822C46.6042 19.5576 46.3499 20.9716 45.7121 21.5559C45.0742 22.1402 43.629 22.6621 43.3748 22.8093C42.4426 23.349 39.1106 24.3571 37.3844 24.2099C37.1601 24.1703 36.9307 24.1703 36.7064 24.2099C36.0463 24.2099 34.8955 24.0493 35.0694 23.8843C34.5589 23.3801 33.9152 23.032 33.2139 22.8807C31.8757 22.5327 30.8944 21.6763 29.9087 20.811C29.0433 20.0527 28.5348 19.0268 27.9639 18.0767C27.8681 17.9483 27.8193 17.7908 27.8256 17.6307C27.9818 17.0464 27.5669 16.7386 27.2948 16.3283C26.9832 15.851 26.7582 15.3225 26.6302 14.7671C26.3737 13.8193 26.325 12.8273 26.4875 11.8589C26.5589 11.5244 26.8934 11.2434 27.1967 10.8018C27.0322 10.1608 26.9012 9.51164 26.8042 8.85701C26.7559 8.31339 26.7814 7.76572 26.88 7.22894C27.0005 6.51972 27.2101 5.81944 27.3841 5.11915C27.4242 4.96303 27.5268 4.80246 27.5 4.6731C27.4108 4.12447 27.7453 3.95047 28.1869 3.84788C28.3341 3.12974 28.4902 2.42056 28.633 1.70689C28.647 1.51451 28.6992 1.3268 28.7865 1.15478C28.8737 0.982757 28.9943 0.82982 29.1413 0.704868C29.2882 0.579917 29.4586 0.485492 29.6424 0.427016C29.8262 0.368539 30.0198 0.347212 30.212 0.36429Z" fill="#5F816D"/>
<path d="M38.4688 13.4021C38.4688 13.9418 38.5179 14.486 38.5848 15.0257C38.6406 15.2022 38.7283 15.367 38.8435 15.5119L39.0219 15.4807C39.0528 15.2709 39.0707 15.0593 39.0754 14.8473C39.0754 14.3254 39.0487 13.8036 39.013 13.2817C39.013 12.9962 39.1156 12.9114 39.41 12.9917C39.5482 13.8838 39.6285 14.8429 40.3288 15.7082C40.4136 15.4673 40.5072 15.3424 40.4939 15.2309C40.4359 14.8518 40.3422 14.4771 40.2664 14.098C40.1906 13.7188 40.0969 13.3441 40.0567 12.965C40.0567 12.8758 40.2218 12.7687 40.3913 12.5725C40.7481 13.5092 40.8373 14.4191 41.4707 15.0971C41.6803 14.1247 41.1718 13.2728 41.0559 12.345C41.7339 12.791 41.7428 13.6831 42.394 14.2407C42.6304 13.4646 42.0104 12.9025 42.0149 12.1576L42.9962 13.1612L43.0898 13.1077C42.9694 12.8178 42.8445 12.5279 42.7241 12.2469C43.1211 11.9837 43.2549 12.4833 43.5716 12.4476C43.6831 12.1086 43.6073 11.8811 43.2326 11.774C43.0541 11.7325 42.8828 11.6649 42.7241 11.5733C42.006 11.1273 41.3235 10.6054 40.5831 10.1995C39.9453 9.80292 39.2362 9.53477 38.4956 9.41003C38.112 10.659 37.715 11.8677 37.376 13.0944C37.2549 13.6257 37.1744 14.1655 37.1351 14.7091C37.1537 14.8632 37.1959 15.0137 37.26 15.1551C38.1164 14.5708 37.7997 13.6073 38.1298 12.9249C38.5313 12.916 38.4599 13.1791 38.4688 13.4021ZM39.7668 11.5243L40.2485 12.2691C39.7534 12.3093 39.74 12.287 39.7668 11.5243ZM39.1334 10.9177C39.2316 11.502 39.3118 11.9569 39.4011 12.4832C39.2226 12.4832 39.0174 12.4832 39.0041 12.4342C38.8892 12.1926 38.8406 11.9249 38.8633 11.6584C38.886 11.3919 38.9793 11.1363 39.1334 10.9177ZM38.4956 11.7071C38.4956 11.9391 38.4956 12.1532 38.4956 12.5502C37.9603 12.171 38.3127 11.9435 38.4956 11.7071Z" fill="white"/>
<path d="M35.061 17.256C34.9916 18.0413 35.0321 18.8325 35.1814 19.6066C35.3672 20.2636 35.6044 20.9048 35.8906 21.5246C36.0293 21.7377 36.201 21.9274 36.3991 22.0866L36.5374 21.9885C36.3813 21.6941 36.2073 21.4042 36.0913 21.0964C35.9754 20.7887 35.8505 20.4719 35.739 20.1775C36.0066 19.9902 36.1181 20.0839 36.2296 20.2712C36.4392 20.6281 36.6756 20.976 36.8853 21.3194C37.0949 21.6629 37.1172 21.6317 37.657 21.6629C37.3001 21.0429 36.9611 20.463 36.6043 19.8519L37.028 19.5754C37.2734 19.9545 37.4741 20.3114 37.7149 20.6325C37.9558 20.9537 38.1298 21.373 38.6739 21.4577C38.5 20.5211 37.4919 20.0571 37.5365 19.0892C38.2145 19.6423 38.7185 20.3738 39.4768 20.8734C39.5534 20.7402 39.5793 20.5839 39.5498 20.4331C39.5203 20.2823 39.4374 20.1472 39.3162 20.0527C38.9326 19.6066 38.5624 19.1918 38.1699 18.777C38.0227 18.612 37.9647 18.4781 38.1967 18.2908C38.8568 18.6253 39.1512 19.4371 40.0478 19.736C39.7132 18.8439 38.9728 18.4514 38.5803 17.7511L40.302 18.5049C40.4046 17.7243 40.3332 17.5503 39.74 17.3898C38.6293 17.0909 37.5098 16.8188 36.3946 16.5557C36.1875 16.5264 35.9773 16.5264 35.7702 16.5557C35.2126 16.5735 35.0788 16.7475 35.061 17.256ZM37.6837 17.5236C37.6837 17.4968 37.6837 17.4701 37.6837 17.4433L38.0227 17.4969C38.0227 17.5504 37.9959 17.6084 37.9781 17.6619L37.6837 17.5236ZM37.1306 17.6128L37.8666 17.9964C37.4205 18.0856 37.4206 18.0856 37.1306 17.6128ZM36.5374 17.9786C36.9834 18.2551 36.9834 18.2551 37.1529 18.6922L37.0325 18.7725L36.5374 17.9786ZM36.0155 18.8707C36.0743 18.631 36.1643 18.4 36.2831 18.1837L36.805 19.0758L36.1984 19.3792C36.1226 19.1918 36.0021 19.0268 36.0155 18.8751V18.8707ZM35.7479 18.1793C35.6676 17.7065 35.6096 17.3808 35.5561 17.0597L35.788 17.0017C35.8995 17.2521 35.9934 17.51 36.069 17.7734C36.0824 17.8492 35.9308 17.9607 35.7479 18.1837V18.1793ZM35.4133 18.7502C35.5385 18.8256 35.6379 18.9371 35.6985 19.0701C35.759 19.203 35.7778 19.3513 35.7523 19.4951C35.2885 19.3881 35.4401 19.0981 35.4133 18.7547V18.7502Z" fill="white"/>
<path d="M34.8284 9.67326C35.3681 10.3646 35.5866 11.2433 36.2869 11.7696C36.5902 11.618 36.4653 11.4485 36.3984 11.279C36.1121 10.7435 35.9148 10.165 35.8141 9.56621C35.8141 9.35211 35.5822 9.14692 35.4528 8.94173C35.4043 8.86814 35.3507 8.79809 35.2923 8.73211L35.4171 8.62059C36.1531 9.15139 36.5367 10.0346 37.2013 10.6412C37.2563 10.5931 37.3003 10.5337 37.3305 10.4672C37.3607 10.4006 37.3763 10.3284 37.3763 10.2553C37.3763 10.1823 37.3607 10.11 37.3305 10.0435C37.3003 9.97697 37.2563 9.91763 37.2013 9.86949C36.9611 9.59738 36.7793 9.27879 36.6673 8.93351C36.5552 8.58823 36.5154 8.22362 36.5501 7.86229C36.9961 8.30833 37.3887 8.66966 37.8124 9.07111L38.37 8.76777C38.3179 8.54684 38.221 8.33899 38.0851 8.15713C37.9493 7.97526 37.7775 7.82329 37.5805 7.71064C37.4204 7.61911 37.2891 7.48471 37.2013 7.32259C37.1523 7.23784 37.2013 7.08618 37.237 6.81855C38.0488 7.44748 38.7179 7.97382 39.387 8.50015L39.5074 8.41984C39.4435 8.2759 39.3658 8.13851 39.2754 8.00952C38.9231 7.62146 38.5439 7.25566 38.196 6.85868C38.1113 6.76501 38.1113 6.59553 38.031 6.31899L39.5252 6.9256C39.6501 6.62229 39.5252 6.50633 39.2888 6.43943C38.428 6.18072 37.576 5.90418 36.7107 5.67224C36.0925 5.50129 35.4615 5.38044 34.8239 5.31092C34.2173 5.25293 33.9541 5.47595 33.8649 6.03351C33.6642 7.29136 33.4991 8.54919 33.3207 9.8115C33.2895 10.0122 33.2181 10.2576 33.4858 10.3334C33.6947 10.3461 33.9043 10.3234 34.1058 10.2665C34.5117 10.8686 34.5117 10.8687 34.7748 10.9133C34.8061 10.5029 34.3243 10.0569 34.8284 9.67326ZM35.8453 6.10489C35.9687 6.08333 36.0953 6.08797 36.2167 6.11856C36.3382 6.14914 36.4519 6.20497 36.5503 6.2824C36.6488 6.35982 36.7298 6.45711 36.7882 6.56793C36.8466 6.67875 36.8809 6.80061 36.8891 6.9256L35.8453 6.10489ZM35.2343 6.36804C35.4465 6.47247 35.633 6.62262 35.7803 6.80772C35.9276 6.99282 36.0321 7.20828 36.0862 7.43856C35.5331 7.35382 35.3948 6.93453 35.2343 6.38144V6.36804ZM34.5518 6.91667C34.8105 7.0371 34.9265 7.05498 34.9979 7.12189C35.2034 7.45349 35.2899 7.8452 35.2432 8.23254C34.7659 7.95153 34.7436 7.49209 34.5518 6.93453V6.91667Z" fill="white"/>
<path d="M45.0301 8.32619C45.155 6.98805 41.6892 2.81306 40.2172 2.41162C40.4922 4.66803 40.4321 6.95273 40.0388 9.19155L40.8239 9.52161C40.8506 8.41988 40.8774 7.443 40.8997 6.47062C40.9443 6.47062 40.9934 6.47062 41.038 6.47062C41.1406 7.10516 41.2897 7.73134 41.484 8.34405C41.7159 8.95513 41.5688 9.68216 42.0728 10.2174C42.133 9.6108 42.133 8.99973 42.0728 8.39311C42.0148 7.79095 41.8944 7.19324 41.8007 6.60892C42.1575 6.47957 42.2155 6.68922 42.269 6.8944C42.3583 7.22893 42.4252 7.56346 42.5322 7.88461C42.8832 8.70139 43.103 9.56848 43.1834 10.4538C43.1834 10.4984 43.2637 10.5386 43.3574 10.6323C43.848 9.10233 43.2414 7.7642 42.7329 6.40376C42.8156 6.37898 42.901 6.36397 42.9872 6.35911C43.5224 7.50991 44.0443 8.66517 44.5662 9.82043C44.5439 8.53136 44.0532 7.32705 43.6741 6.10043L43.8124 6.0469L45.0301 8.32619ZM41.0424 5.72576C40.699 5.52058 40.7079 5.19939 40.6499 4.90054L40.8194 4.86487C40.8952 5.15034 40.9889 5.44029 41.0424 5.72576ZM42.0148 5.93539L41.823 6.03797C41.377 5.7525 41.4171 5.26188 41.3056 4.83367L41.4305 4.77568C41.6267 5.15036 41.8185 5.54733 42.0148 5.93539ZM42.9069 5.85954C42.4876 5.96213 42.4029 5.70346 42.3003 5.50274C42.2086 5.30925 42.1267 5.11121 42.055 4.90946L42.2289 4.82474L42.9069 5.85954Z" fill="white"/>
<path d="M33.9316 2.84431L35.0378 3.04953C34.9798 2.72838 34.9396 2.46966 34.895 2.20203C33.8183 2.15159 32.7409 2.28741 31.7103 2.60348C31.4261 2.66154 31.1684 2.81037 30.9761 3.02759C30.7838 3.2448 30.6674 3.51862 30.6442 3.80778C30.5416 4.80246 30.4034 5.79717 30.3677 6.79186C30.3717 7.48821 30.4164 8.18371 30.5015 8.87485L31.6791 9.24511C31.4828 8.85705 31.2865 8.51803 31.1438 8.16119C31.0769 7.99615 30.9654 7.75081 31.2509 7.63483C31.5363 7.51886 31.5675 7.71067 31.6746 7.87125C31.8819 8.24563 32.2018 8.54527 32.589 8.72768C32.8477 8.00062 31.9199 7.55902 32.2455 6.81413L32.8744 7.23344C33.0311 7.02971 33.1008 6.77225 33.0682 6.51732C33.0356 6.2624 32.9034 6.03072 32.7005 5.87298C32.8566 5.71686 32.9815 5.48046 33.0975 5.48492C33.5435 5.48492 33.597 5.07455 33.9896 4.9229C33.606 4.63297 33.3963 4.34752 33.8245 3.94608C34.1011 4.06652 34.391 4.1914 34.6809 4.32521C34.9709 4.45903 35.1002 4.35196 35.2296 4.03527C34.8861 3.89254 34.5784 3.75425 34.2617 3.62935C34.1791 3.61318 34.1018 3.57695 34.0365 3.52383C33.9712 3.47072 33.92 3.40239 33.8874 3.32482C33.8548 3.24726 33.8418 3.16283 33.8495 3.07904C33.8572 2.99525 33.8854 2.91463 33.9316 2.84431ZM32.5667 4.92736C32.6024 5.07456 32.4552 5.2619 32.3927 5.4314L32.1965 5.40461C32.1117 5.17266 32.0359 4.95858 31.9511 4.69541C32.3035 4.57944 32.5132 4.70434 32.5667 4.92736ZM32.6024 3.78992L33.2625 3.87917C33.2001 4.04866 33.1644 4.16017 33.1064 4.32521L32.5711 3.9059C32.5828 3.87512 32.5933 3.84389 32.6024 3.81225V3.78992ZM33.5257 2.71499C33.5257 2.94248 33.5257 3.10748 33.5257 3.29482C33.3515 3.34268 33.1664 3.33147 32.9993 3.26286C32.8322 3.19425 32.6926 3.07214 32.6024 2.91569C32.9592 2.8354 33.2001 2.7819 33.5257 2.71499Z" fill="white"/>
<path d="M45.8952 17.6888C45.858 17.633 45.8339 17.5695 45.8246 17.5031C45.8153 17.4367 45.8211 17.369 45.8416 17.3052C46.1137 16.8302 46.4303 16.3821 46.7872 15.967C46.7471 17.0822 46.5955 18.1482 45.8461 19.0403C45.8657 18.8689 45.897 18.699 45.9398 18.5318C46.0089 18.4003 46.0413 18.2525 46.0334 18.1042C46.0256 17.9558 45.9778 17.8123 45.8952 17.6888Z" fill="white"/>
<path d="M36.8579 23.2242C37.4824 23.0859 38.1069 22.9699 38.7224 22.8093C38.9371 22.7366 39.1399 22.6329 39.3246 22.5016C39.4745 22.3925 39.6528 22.329 39.8379 22.3187C40.023 22.3084 40.2072 22.3518 40.3683 22.4436C40.5273 22.5369 40.6964 22.6118 40.8724 22.6666C41.0463 22.7239 41.2342 22.7226 41.4074 22.663C41.5806 22.6034 41.7295 22.4887 41.8314 22.3365C42.0544 22.0555 41.9206 21.828 41.8314 21.5827C41.6127 21.26 41.5279 20.865 41.5949 20.481C42.041 20.927 42.041 21.605 42.5138 21.9841C42.6348 21.5642 42.6207 21.1169 42.4734 20.7054C42.3261 20.294 42.0531 19.9392 41.6931 19.6915C41.7511 19.5175 41.8135 19.3302 41.8893 19.0938C42.5718 19.7807 42.5584 20.8111 43.2275 21.5693C43.3167 20.9745 43.2553 20.3667 43.0488 19.8017C42.8423 19.2367 42.4973 18.7326 42.0455 18.3355L42.2506 17.4077C43.1204 18.4604 43.4237 19.6379 43.9055 20.82C44.2445 20.0082 43.9768 19.0848 42.8617 17.0197C43.8296 17.0197 43.9545 17.1624 44.1642 18.0768C44.3024 18.6611 44.3337 19.3079 44.8734 19.861L45.8235 19.3614C45.8055 19.5331 45.7429 19.6971 45.642 19.8372C45.541 19.9772 45.4052 20.0885 45.2481 20.1598C45.0919 20.2223 44.8912 20.3694 44.86 20.5166C44.6905 21.2214 43.9679 21.4489 43.6066 21.9663C43.506 22.0913 43.3734 22.1868 43.223 22.2428C42.2774 22.6577 41.3229 23.0457 40.3817 23.4695C40.0037 23.6453 39.576 23.6832 39.1729 23.5766C38.9603 23.4968 38.7325 23.4658 38.5063 23.4858C38.2801 23.5059 38.0613 23.5765 37.866 23.6925C37.8036 23.7415 37.6831 23.7192 37.5939 23.6925L36.0952 23.5319C36.0952 23.4828 36.0952 23.4293 36.0952 23.3803C36.345 23.3401 36.5992 23.2777 36.8579 23.2242Z" fill="white"/>
<path d="M30.9705 1.81385C30.8233 1.74249 30.6851 1.65774 30.5245 1.59529C30.2658 1.48824 30.0784 1.55515 29.9758 1.87184C30.0852 1.97724 30.1998 2.07695 30.3193 2.17066C30.4442 2.26433 30.5825 2.33573 30.7297 2.43386L30.2479 3.03601L29.6814 2.53198L29.5164 2.63456C29.6754 2.9682 29.7922 3.32029 29.8643 3.68276C29.8663 4.05997 29.7808 4.43254 29.6145 4.77114L29.3871 3.39287H29.1819C28.6555 3.8969 29.3112 4.56592 29.057 5.12348C28.9882 5.11911 28.9214 5.09888 28.8617 5.06434C28.8021 5.02981 28.7513 4.98194 28.7132 4.92446C28.6752 4.86699 28.651 4.80147 28.6425 4.73308C28.6341 4.66468 28.6416 4.59526 28.6645 4.53025C28.7348 4.10383 28.7765 3.67317 28.7894 3.24118C28.8243 2.60206 29.0091 1.98017 29.3291 1.4258C29.3927 1.30202 29.4852 1.19539 29.5988 1.115C29.7124 1.03461 29.8438 0.982837 29.9816 0.964014C30.1195 0.945191 30.2599 0.959864 30.3909 1.00687C30.5219 1.05387 30.6397 1.13178 30.7341 1.23397C30.867 1.34835 31.0177 1.44024 31.1802 1.50605C31.3341 1.56392 31.4921 1.61017 31.653 1.64435C31.3051 1.98781 31.3051 1.98781 30.9705 1.81385Z" fill="white"/>
<path d="M34.5655 18.2551C32.4468 18.0767 30.4218 17.5504 28.2808 17.4299C29.2888 19.3078 30.511 20.8466 32.3487 21.8502C32.6552 22.0088 32.9783 22.133 33.3122 22.2205C33.5321 22.2292 33.7521 22.2021 33.9634 22.1401C33.7367 22.0541 33.5162 21.9528 33.3032 21.8369C32.6788 21.3908 32.0588 20.9849 31.4521 20.5433C31.4209 20.5433 31.4923 20.3605 31.5235 20.2311C32.0588 20.5121 32.5405 20.7752 33.0311 21.0206C33.5218 21.2659 34.0526 21.5112 34.5655 21.7566L34.6815 21.6361C34.5975 21.4514 34.4846 21.2812 34.347 21.1321C34.0348 20.9009 33.7086 20.6894 33.3701 20.4987C32.884 20.1999 32.3085 20.0527 31.9918 19.4951C32.4379 19.6022 32.8616 19.7716 33.2898 19.9099C33.718 20.0482 34.1552 20.1642 34.628 20.3024C34.6815 19.9322 34.6012 19.736 34.2979 19.6423C33.7448 19.4817 33.1917 19.3211 32.652 19.1293C32.4424 19.0535 32.1078 19.0268 32.206 18.5986C32.9821 18.4291 33.7627 18.7279 34.5789 18.7279C34.5745 18.5316 34.57 18.3889 34.5655 18.2551ZM31.0418 19.9634L30.9124 20.0928L30.2389 19.4549L30.3549 19.3212C30.5645 19.5531 30.9927 19.5843 31.0418 19.9634ZM31.6618 18.5138C31.6383 18.5647 31.6175 18.6169 31.5993 18.67L31.2782 18.5093L31.3049 18.4201L31.6618 18.5138Z" fill="white"/>
<path d="M27.0806 12.6841L28.7711 13.5048C28.8603 14.3701 28.945 15.2176 29.0387 16.0963C28.4455 16.6182 28.1957 16.5736 27.8701 15.8465C27.3974 14.856 27.1289 13.7805 27.0806 12.6841Z" fill="white"/>
<path d="M46.1898 14.9366C46.1318 15.0838 46.047 15.2132 45.8954 15.4987C45.8062 13.9821 46.2076 12.6172 45.7259 11.2524C45.6946 11.462 45.65 11.6671 45.6322 11.8768C45.5653 12.7198 45.5341 13.5584 45.4404 14.3969C45.352 14.9437 45.2359 15.4856 45.0925 16.0206C44.9807 15.8871 44.9028 15.7285 44.8655 15.5584C44.8282 15.3883 44.8326 15.2118 44.8784 15.0437C44.9453 14.3122 44.9899 13.5762 45.0434 12.8402L44.8516 12.8046C44.6108 13.8082 44.3654 14.8118 44.1023 15.8956C43.7945 15.6637 43.8525 15.4496 43.8792 15.1998C44.0551 14.008 44.354 12.8375 44.7713 11.7073C45.1862 10.4539 45.6367 9.21834 46.0738 7.97387C46.1047 7.91487 46.1421 7.85952 46.1853 7.80884C46.5778 8.58496 47.1354 12.7867 46.899 13.4558C46.7696 12.5637 46.6536 11.7385 46.5421 10.9222H46.3905C46.375 11.0287 46.375 11.1369 46.3905 11.2434C46.5736 12.4754 46.5053 13.7317 46.1898 14.9366Z" fill="white"/>
<path d="M39.4049 3.54014C39.5923 3.04057 39.2756 2.81309 38.9589 2.60345C37.9694 1.92996 36.907 1.37035 35.792 0.935247C35.5632 0.861101 35.3291 0.804436 35.0917 0.765747C35.8946 2.05036 35.9035 3.44201 36.2603 4.7177C36.6796 4.90504 37.0543 5.3689 37.5092 4.85595C38.1426 5.34214 38.1426 5.34217 38.5441 5.38677C38.3924 5.17713 38.2854 5.01207 38.1649 4.86488C37.8705 4.49466 37.8705 4.49912 38.3032 4.13336L39.2667 4.99425C39.512 4.79799 39.4629 4.64185 39.2667 4.47236C38.9857 4.20473 38.718 3.9282 38.4459 3.65611L38.7537 3.09409L39.4049 3.54014ZM37.4513 3.4509C37.7724 3.59363 37.8973 3.74532 37.5538 4.03971C37.362 3.87021 37.255 3.7096 37.4513 3.4509ZM38.4103 2.7417L38.1739 3.18774C37.817 3.22343 37.2149 2.62127 36.9918 1.97005L38.4103 2.7417Z" fill="white"/>
<path d="M29.5966 6.12715L28.0176 5.14587C27.1657 7.5233 27.6474 9.8249 28.2362 12.1845C28.8963 11.9392 28.9365 11.7786 28.7536 11.2611C28.5306 10.6144 28.37 9.94981 28.196 9.29412C28.1336 9.0711 28.2362 8.95066 28.4949 8.95066C28.7045 9.36548 28.9186 9.77582 29.1996 10.3289C29.2666 10.0479 29.3424 9.91408 29.3067 9.81149C29.214 9.50494 29.0961 9.20656 28.9543 8.9194C28.767 8.5358 28.9097 8.28156 29.2576 8.02731L29.5565 8.42876C29.5972 8.17328 29.585 7.91218 29.5208 7.66158C29.4922 7.51473 29.4832 7.36474 29.494 7.21553C29.5208 6.84977 29.5654 6.45723 29.5966 6.12715ZM28.6555 7.71064C28.6019 7.50992 28.5529 7.3092 28.4815 7.04603C28.9008 7.32258 28.9008 7.32258 28.6555 7.71064ZM29.1283 6.98804C28.7625 6.7338 28.9142 6.36356 28.874 6.01564C29.3914 6.54644 29.3914 6.54646 29.1283 6.98804Z" fill="white"/>
<path d="M34.3648 16.8546C33.8251 16.0696 33.0267 15.3871 33.1917 14.2809C33.321 14.3835 33.4504 14.4683 33.5664 14.5753C34.0124 14.9857 34.4317 15.396 34.8599 15.8109C35.0339 15.9848 35.19 16.0785 35.3461 15.7573C34.9803 15.2845 34.628 14.785 34.2354 14.3211C33.8429 13.8572 33.4103 13.429 32.9999 12.983C34.0303 13.5182 34.9045 14.2943 36.1222 14.7671C36.0687 14.5441 36.0776 14.3657 35.9929 14.2809C35.7604 14.0591 35.513 13.8534 35.2524 13.6654C34.732 13.252 34.2072 12.8402 33.6779 12.4298C33.5039 12.2915 33.4638 12.1577 33.6779 11.9838L34.4049 12.3718C34.9313 12.6528 35.4576 12.9383 35.9929 13.206C36.1445 13.2818 36.3319 13.3933 36.4969 13.0945C36.1891 12.8759 35.8903 12.6484 35.5647 12.4343C34.4808 11.783 33.388 11.1363 32.2951 10.5029C31.823 10.216 31.3361 9.95397 30.8366 9.71787C30.4173 9.53053 30.2255 9.61084 30.0738 10.0123C29.8869 10.4504 29.7565 10.9105 29.6858 11.3816C29.4932 13.0833 29.6356 14.8062 30.1051 16.4531C30.2166 16.9215 30.2701 16.8992 30.8455 16.8234C30.5288 15.3604 30.5288 15.3603 30.7251 15.008L31.5458 16.6048C31.8 17.1044 31.7956 17.1044 32.4646 17.0509C32.2505 16.5825 32.0454 16.1275 31.8268 15.6815C31.4075 14.8251 31.3808 14.6601 31.6127 14.3434C31.7019 14.4504 31.7911 14.5486 31.8669 14.6512C32.3754 15.3559 32.875 16.0696 33.4058 16.7609C33.6913 17.1445 33.8028 17.1445 34.3648 16.8546ZM31.18 13.8259L31.0194 13.8706L30.6582 12.7153L30.8455 12.6618C30.9035 13.0632 31.2603 13.3843 31.1756 13.8259H31.18ZM32.5672 12.4878L32.4468 12.6038L31.9205 12.0195C32.0594 12.0443 32.1905 12.1017 32.3029 12.187C32.4153 12.2723 32.5059 12.383 32.5672 12.5101V12.4878ZM32.71 11.6359L32.7769 11.5244L33.1471 11.7206L33.0445 11.8723L32.71 11.6359Z" fill="white"/>
</svg>
