<svg width="28" height="28" viewBox="0 0 28 28" fill="none" xmlns="http://www.w3.org/2000/svg">
<path d="M12.6666 20.6667H15.3333V12.6667H12.6666V20.6667ZM14 10.0001C14.3777 10.0001 14.6946 9.87208 14.9506 9.61608C15.2057 9.36097 15.3333 9.04453 15.3333 8.66675C15.3333 8.28897 15.2057 7.97208 14.9506 7.71608C14.6946 7.46097 14.3777 7.33341 14 7.33341C13.6222 7.33341 13.3057 7.46097 13.0506 7.71608C12.7946 7.97208 12.6666 8.28897 12.6666 8.66675C12.6666 9.04453 12.7946 9.36097 13.0506 9.61608C13.3057 9.87208 13.6222 10.0001 14 10.0001ZM14 27.3334C12.1555 27.3334 10.4222 26.9832 8.79996 26.2827C7.17774 25.5832 5.76663 24.6334 4.56663 23.4334C3.36663 22.2334 2.41685 20.8223 1.71729 19.2001C1.01685 17.5779 0.666626 15.8445 0.666626 14.0001C0.666626 12.1556 1.01685 10.4223 1.71729 8.80008C2.41685 7.17786 3.36663 5.76675 4.56663 4.56675C5.76663 3.36675 7.17774 2.41653 8.79996 1.71608C10.4222 1.01653 12.1555 0.666748 14 0.666748C15.8444 0.666748 17.5777 1.01653 19.2 1.71608C20.8222 2.41653 22.2333 3.36675 23.4333 4.56675C24.6333 5.76675 25.5831 7.17786 26.2826 8.80008C26.9831 10.4223 27.3333 12.1556 27.3333 14.0001C27.3333 15.8445 26.9831 17.5779 26.2826 19.2001C25.5831 20.8223 24.6333 22.2334 23.4333 23.4334C22.2333 24.6334 20.8222 25.5832 19.2 26.2827C17.5777 26.9832 15.8444 27.3334 14 27.3334Z" fill="#AC6719" fill-opacity="0.63"/>
</svg>
