<svg width="25" height="24" viewBox="0 0 25 24" fill="none" xmlns="http://www.w3.org/2000/svg">
<g clip-path="url(#clip0_24_21439)">
<path d="M17.2234 0H6.9693C3.632 0 0.916992 2.91431 0.916992 6.49658V17.5036C0.916992 21.0857 3.632 24 6.9693 24H17.2236C20.5607 24 23.2757 21.0857 23.2757 17.5036V6.49658C23.2757 2.91431 20.5607 0 17.2234 0V0ZM21.965 17.5036C21.965 20.3099 19.838 22.593 17.2234 22.593H6.9693C4.35477 22.593 2.22776 20.3099 2.22776 17.5036V6.49658C2.22776 3.69012 4.35477 1.40698 6.9693 1.40698H17.2236C19.838 1.40698 21.965 3.69012 21.965 6.49658V17.5036Z" fill="#36332F"/>
<path d="M12.0964 5.4377C8.72529 5.4377 5.98282 8.38148 5.98282 12C5.98282 15.6185 8.72529 18.5623 12.0964 18.5623C15.4674 18.5623 18.2099 15.6185 18.2099 12C18.2099 8.38148 15.4674 5.4377 12.0964 5.4377ZM12.0964 17.1553C9.44823 17.1553 7.29358 14.8427 7.29358 12C7.29358 9.15749 9.44823 6.84468 12.0964 6.84468C14.7447 6.84468 16.8992 9.15749 16.8992 12C16.8992 14.8427 14.7447 17.1553 12.0964 17.1553Z" fill="#36332F"/>
<path d="M18.3561 3.1071C17.3599 3.1071 16.5496 3.97704 16.5496 5.04619C16.5496 6.11552 17.3599 6.98546 18.3561 6.98546C19.3523 6.98546 20.1627 6.11552 20.1627 5.04619C20.1627 3.97685 19.3523 3.1071 18.3561 3.1071ZM18.3561 5.57829C18.0828 5.57829 17.8604 5.33952 17.8604 5.04619C17.8604 4.75267 18.0828 4.51408 18.3561 4.51408C18.6295 4.51408 18.852 4.75267 18.852 5.04619C18.852 5.33952 18.6295 5.57829 18.3561 5.57829Z" fill="#36332F"/>
</g>
<defs>
<clipPath id="clip0_24_21439">
<rect width="24" height="24" fill="white" transform="translate(0.916992)"/>
</clipPath>
</defs>
</svg>
