<svg width="856" height="598" viewBox="0 0 856 598" fill="none" xmlns="http://www.w3.org/2000/svg">
<path opacity="0.5" d="M522.609 520.387C521.543 522.512 520.926 524.791 520.79 527.103C527.336 526.457 524.453 529.603 521.99 530.622C514.43 533.735 525.266 547.365 511.405 545.66C507.195 545.142 508.608 540.907 509.394 536.79C510.513 530.947 500.983 527.544 497.943 529.807C484.433 540.207 465.74 534.256 451.89 545.026C443.688 551.493 443.059 539.2 438.792 534.65C437.012 559.461 410.652 544.744 398.832 555.234C397.046 554.446 397.155 551.36 396.844 548.333C396.533 545.305 402.408 541.099 397.034 538.609C392.44 536.594 388.082 539.135 385.147 543.193C380.476 549.657 372.995 553.599 368.796 560.644C365.314 566.426 360.343 563.234 355.463 557.864C349.616 551.432 342.632 544.251 331.356 544.742C323.31 545.111 315.257 553.431 306.793 543.029C304.727 540.47 294.544 552.996 297.038 556.336C303.638 565.121 296.585 564.674 291.274 566.248C282.025 569.013 272.745 571.555 263.448 574.23C262.874 571.885 267.441 569.573 264.111 567.674C262.947 566.994 259.714 568.119 258.161 569.271C254.482 572.075 258.481 573.397 259.908 575.204C259.664 575.982 259.618 576.795 259.773 577.582L257.586 580.341L244.194 583.839C245.955 573.35 243.78 571.549 228.886 570.892C231.601 561.628 243.286 557.137 244.645 547.091C238.357 545.729 232.343 553.574 225.533 547.404C218.724 541.234 212.194 552.835 204.536 548.269C195.959 542.989 195.025 553.009 191.333 555.976C184.526 561.441 194.077 561.382 196.029 564.151C198.725 568.433 192.739 566.157 191.646 567.795C185.551 566.536 179.407 564.67 173.615 568.702C172.771 569.304 172.43 572.26 173.104 572.749C175.271 574.661 178.036 575.922 181.042 576.371C184.048 576.82 187.157 576.436 189.967 575.267C202.519 586.85 220.335 584.647 229.222 570.231C239.082 576.788 232.865 582.657 227.765 588.598C208.566 588.019 191.229 602.729 171.626 595.353C183.801 589.759 178.146 579.81 174.224 574.663C167.301 565.599 168.498 557.482 171.865 548.29C176.406 545.788 183.201 543.847 175.17 538.136L178.132 533.751C180.656 532.659 182.074 533.886 183.212 535.668L187.067 537.753C204.814 540.731 215.752 535.729 218.313 523.545C219.305 518.851 219.58 513.867 212.361 516.093C199.061 520.258 185.378 517.526 172.126 520.23L169.876 517.89L168.77 518.916C169.955 519.237 171.146 519.59 172.471 519.891C168.944 536.185 160.606 523.341 154.292 522.823C153.138 523.063 151.968 523.225 150.792 523.307C147.226 523.315 146.985 521.57 149.15 519.687C166.299 505.165 146.155 507.818 141.009 506.461C135.268 504.927 128.478 508.192 122.949 511.542C114.3 516.583 110.277 509.155 108.504 505.36C105.965 499.893 113.053 498.267 117.485 498.592C127.527 499.241 127.806 493.513 127.301 487.539C126.477 477.956 118.205 489.604 116.069 483.693C124.537 469.594 120.256 463.914 100.423 464.424C98.9859 464.524 97.5471 464.406 96.1654 464.075C94.6308 449.096 79.3697 450.428 69.5763 444.864C59.7829 439.3 53.9142 433.226 52.8697 418.438C51.8866 404.351 61.5518 403.824 66.446 395.358C60.1323 395.099 54.4879 394.78 48.7867 394.566C45.7151 394.538 41.0124 397.935 40.0926 393.343C39.1727 388.751 44.865 387.867 48.5621 387.518C49.4658 378.31 32.2508 388.737 36.5887 377.019C40.2444 367.076 22.7488 354.301 42.5196 346.624C44.8997 346.295 47.0217 345.388 45.9667 342.916C44.9117 340.443 42.7371 340.711 40.5803 342.141L39.2152 342.071C38.9861 334.733 32.2135 337.091 27.7852 335.246C19.6812 331.84 20.0792 331.107 15.4123 338.895C11.6639 345.069 7.28055 348.713 0.930284 341.478C1.39968 326.803 9.05873 316.145 24.9881 309.063C16.9012 303.716 11.6171 310.652 5.69728 311.179C5.99333 304.286 15.4296 297.455 6.40604 290.491C13.9726 276.84 14.017 259.864 29.2981 249.64C30.1811 248.896 30.8698 247.982 31.3111 246.968C31.7524 245.954 31.9344 244.868 31.8434 243.793C27.2009 222.585 44.7882 213.819 59.6799 203.875C69.6719 197.194 72.8999 191.641 76.0737 179.243C76.677 176.897 77.7384 168.572 87.9509 169.683C95.8837 170.558 104.795 165.869 113.178 163.288C115.576 162.569 119.557 161.696 117.544 157.966C116.344 155.74 114.576 153.269 110.932 153.999C104.653 155.286 94.3419 163.014 98.8934 147.678C94.422 148.619 89.8716 149.248 85.5228 150.56C82.7839 151.391 79.9142 153.597 79.1213 149.408C78.6831 146.236 82.1133 145.245 84.5676 143.904C91.9349 139.654 103.545 148.296 108.57 136.903C111.51 136.497 114.415 136.095 114.563 132.519C121.422 125.624 135.289 131.24 141.294 119.453C131.475 120.163 122.564 124.594 114.459 119.12C113.786 100.821 130.836 97.4634 143.76 91.0879C149.148 88.933 154.8 87.4132 160.578 86.5663C164.734 85.6688 168.457 80.0798 172.999 84.3006C177.542 88.5214 173.491 93.2831 172.403 97.797L171.725 98.0523C170.189 97.2625 168.35 94.8014 166.96 97.644C165.569 100.487 168.107 100.524 170.373 100.405C172.561 103.335 174.447 104.076 176.223 99.8874C181.611 97.7736 186.88 95.4056 192.008 92.7934C194.519 91.3474 198.859 89.1964 195.708 85.4944C194.049 83.5579 194.498 76.7404 188.063 81.7991C186.038 83.4042 182.638 82.5487 182.996 80.2366C184.399 70.7662 196.375 73.7983 201.453 67.6987C204.515 64.0434 208.239 65.1773 209.842 70.3215C211.133 75.3705 213.005 80.2684 215.428 84.9354C221.035 95.3121 231.409 97.3372 241.449 90.2289C243.107 89.0625 245.579 87.5897 245.701 86.1506C246.461 77.4478 259.549 62.9689 269.061 60.2972C270.453 59.9174 271.931 59.9513 273.276 60.3939C274.622 60.8365 275.764 61.6643 276.534 62.7555C282.859 72.9037 289.329 67.8401 297.357 63.9834C310.74 57.5769 306.596 53.3981 296.037 48.4894C303.562 48.2253 307.82 51.9359 311.904 55.6707C316.516 59.8819 322.546 60.665 327.073 57.292C328.663 55.7989 329.845 53.9907 330.522 52.0189C331.199 50.047 331.351 47.9688 330.965 45.9584C328.934 39.7745 322.214 44.5816 315.161 44.3925C325.724 29.1959 345.786 33.6967 350.495 36.2784C366.069 45.7305 371.251 31.6006 380.753 28.6069C388.897 33.5907 391.333 27.7269 394.18 22.5174C400.088 26.291 416.178 14.9529 412.8 32.5831C417.565 33.25 423.371 35.7769 426.959 34.1177C434.335 30.7067 427.941 24.9638 427.485 20.1138C430.407 16.7364 433.921 19.4509 436.997 18.9936C438.607 18.7711 440.178 18.2631 441.771 17.9138C441.176 17.9961 440.126 18.1411 440.108 18.5314C439.622 20.0194 439.568 21.5867 439.952 23.0782C445.589 32.6426 461.931 33.4554 475.415 24.934C486.765 27.3092 497.784 35.5483 509.854 25.8323C515.519 23.7243 518.721 17.4638 525.783 17.7163C531.525 24.1633 546.382 18.1025 547.89 31.0819C548.276 33.873 547.569 41.6635 557.067 37.8623C563.997 35.0948 569.22 28.749 568.965 25.0994C568.206 14.9579 562.074 26.8595 557.786 24.4783C554.88 22.8111 557.273 20.7673 556.096 19.2169C556.956 11.7608 565.514 9.9319 569.258 4.76012C571.036 3.35578 572.937 2.08758 574.941 0.968955C576.184 0.409421 579.526 0.0768407 577.974 2.52165C570.66 14.134 587.854 6.39281 587.44 12.4298C583.643 16.1867 572.988 14.2002 575.606 21.5313C578.54 29.8532 587.717 21.6681 589.152 20.6941C606.153 9.23021 622.464 10.0795 640.143 17.9803C645.009 20.1524 651.716 17.0601 653.355 10.3367C654.075 10.2764 654.796 10.3725 655.459 10.617C656.121 10.8615 656.706 11.2475 657.165 11.7431C657.624 12.2386 657.943 12.8295 658.097 13.4669C658.251 14.1044 658.235 14.77 658.051 15.409C652.358 33.0681 664.814 32.6077 677.656 32.094L677.306 32.1423C678.773 34.7105 680.808 36.9666 683.286 38.7733C685.763 40.58 688.632 41.8998 691.719 42.6523C694.805 43.4049 698.045 43.5746 701.24 43.151C704.436 42.7275 707.521 41.7197 710.307 40.1887C713.973 38.3246 717.381 34.5892 720.243 39.0421C724.345 45.4895 716.022 44.6354 713.227 47.1226C710.432 49.6098 701.134 47.6298 704.395 53.6761C707.358 59.1171 711.758 53.5315 715.153 50.9938C726.589 42.3674 741.655 50.726 751.879 44.4327C739.736 61.1082 759.561 62.0862 768.143 68.6903C765.991 74.0299 755.76 68.1385 755.727 77.1935C760.453 76.5406 765.709 81.277 769.838 74.7592C772.082 74.2228 774.322 73.6547 776.562 73.0866C776.834 75.0531 777.963 75.7375 780.05 75.0936C793.087 89.6799 799.463 71.0215 809.136 69.0062C812.155 68.3952 812.951 65.6347 816.286 69.1174C821.235 74.2193 814.335 72.8131 813.666 74.4247C811.007 80.9981 802.398 87.6178 815.819 93.8766C823.061 97.2395 815.628 103.341 811.507 107.078C804.91 113.032 796.213 118.5 811.966 123.564C815.685 124.666 814.754 127.219 809.907 132.414C797.479 145.735 797.453 145.545 814.754 148.908C818.202 149.595 821.772 151.17 819.726 156.754C817.413 162.989 821.679 165.47 828.5 164.237C831.371 167.46 824.367 168.654 826.463 171.694L828.625 174.433C823.288 178.403 821.325 185.365 826.152 188.027C834.641 192.673 832.503 182.366 836.305 179.417C836.917 178.944 836.488 177.387 836.558 176.343C840.199 179.911 844.104 183.248 848.247 186.332C863.2 196.193 848.76 209.663 852.761 220.811C851.571 220.976 850.022 220.608 849.261 221.295C843.088 225.929 822.519 224.214 839.324 239.993C841.166 241.71 830.244 255.081 824.645 262.837C815.324 276.181 801.097 285.258 788.651 295.866C784.631 299.298 776.988 301.292 779.61 307.879C782.232 314.466 788.835 316.56 798.382 314.659C790.722 320.662 779.302 321.4 780.963 332.386C781.265 334.575 779.021 335.887 776.549 336.584C771.758 337.795 777.062 324.037 767.548 331.848C762.981 335.711 765.489 341.474 761.806 344.762C757.02 348.535 752.004 352.056 746.782 355.307C740.518 359.792 731.523 363.88 746.147 369.293C751.109 371.129 743.387 375.137 745.339 378.423C748.001 386.071 742.134 389.047 736.022 391.54C729.91 394.033 731.53 398.27 731.785 402.178C731.903 403.035 734.463 403.748 735.89 404.52C741.077 396.369 760.478 396.856 753.43 381.216C756.178 380.653 759.03 380.906 761.562 381.935C764.093 382.965 766.172 384.718 767.489 386.934C767.365 394.428 768.776 401.84 771.651 408.791C767.809 410.162 763.723 413.119 760.201 412.668C745.701 410.987 734.878 418.623 724.75 425.356C708.406 436.147 687.613 434.107 671.623 445.14C661.557 452.058 660.791 451.162 669.224 458.757C670.979 460.357 671.597 463.277 669.103 463.816C659.451 465.99 654.278 478.114 639.527 471.522C632.718 468.455 614.581 465.498 607.995 481.083C605.31 487.466 600.546 492.229 599.748 480.251C599.558 479.313 599.07 478.454 598.343 477.78C597.616 477.105 596.682 476.643 595.656 476.452C591.089 483.936 575.705 479.726 575.467 491.945C575.436 493.791 577.389 497.853 571.858 497.065C566.327 496.278 560.919 495.345 561.359 486.654C559.301 497.572 561.267 508.193 543.319 503.756C539.621 502.812 530.716 515.808 522.071 520.364C524.048 517.635 529.469 517.37 528.076 512.197C527.342 515.919 513.83 510.545 522.609 520.387ZM36.8067 271.713C21.6032 276.561 8.14056 278.518 18.8638 294.685C26.5937 288.276 32.72 280.432 36.8067 271.713ZM62.7222 230.541C72.6412 230.302 77.0896 223.773 83.1837 219.86C86.1367 217.997 87.0111 215.291 84.7924 213.173C83.6885 212.295 82.2509 211.835 80.7645 211.885C79.2782 211.934 77.8518 212.49 76.768 213.441C70.5029 217.92 65.648 223.83 62.7222 230.541ZM848.573 218.384C847.751 220.178 846.351 221.923 846.78 222.704C847.246 223.268 847.857 223.717 848.563 224.014C849.269 224.31 850.047 224.445 850.832 224.407C851.391 224.418 851.946 224.286 852.434 224.027C852.923 223.768 853.326 223.392 853.598 222.941C853.869 222.49 853.999 221.982 853.972 221.475C853.944 220.967 853.761 220.481 853.443 220.07C852.73 219.038 850.485 219.057 848.573 218.384Z" fill="url(#paint0_linear_24_24446)" fill-opacity="0.8"/>
<defs>
<linearGradient id="paint0_linear_24_24446" x1="1.55743" y1="76.7639" x2="740.51" y2="597.736" gradientUnits="userSpaceOnUse">
<stop stop-color="#F6D8B6"/>
<stop offset="1" stop-color="#F6D8B6" stop-opacity="0"/>
</linearGradient>
</defs>
</svg>
