<svg width="207" height="105" viewBox="0 0 207 105" fill="none" xmlns="http://www.w3.org/2000/svg">
<path d="M9.19374 83.2858C7.78576 83.0065 6.44671 82.4501 5.25374 81.6488C2.28708 79.6401 0.813744 76.5601 0.833744 72.4089V71.9412C0.832763 71.8595 0.832762 71.7777 0.833744 71.6958V71.9412C0.852869 73.5341 1.24424 75.1015 1.97776 76.5166C2.74891 78.0042 3.87428 79.2773 5.25374 80.2226C6.44671 81.0239 7.78576 81.5803 9.19374 81.8597C11.2284 82.1678 13.2896 82.2621 15.3437 82.1409C16.4644 82.0151 17.5983 82.1847 18.6337 82.633C18.8571 82.7663 19.0511 82.944 19.2037 83.1553C19.0449 83.4798 18.8467 83.7834 18.6137 84.0591C17.5834 83.6177 16.4569 83.4517 15.3437 83.5771C13.2892 83.696 11.228 83.5984 9.19374 83.2858Z" fill="white"/>
<path d="M63.7973 5.8195C63.6596 6.0295 63.473 6.20264 63.2537 6.3239L62.9737 5.74139V5.67109L63.2237 5.48026C63.5395 5.28476 63.7929 5.00244 63.9538 4.66675C64.0142 4.80964 64.0448 4.96345 64.0438 5.1187C64.0195 5.36895 63.9349 5.6095 63.7973 5.8195Z" fill="white"/>
<path d="M19.2037 57.4243C18.1856 57.8308 17.3092 58.5294 16.6838 59.4329C16.654 59.4918 16.6273 59.5521 16.6037 59.6137C16.4363 59.4314 16.2918 59.229 16.1737 59.0111C16.3165 58.6555 16.5011 58.3183 16.7237 58.0068C17.3513 57.1053 18.2271 56.4072 19.2437 55.9981C21.4237 55.0942 23.6337 55.4457 25.8937 57.1029C26.8575 57.875 27.8961 58.5479 28.9937 59.1116C29.6085 59.2747 30.2618 59.1994 30.8237 58.9007C31.8325 58.415 32.6445 57.5959 33.1238 56.5806C33.6413 55.6119 33.948 54.5438 34.0237 53.4471C34.0387 53.7315 34.0387 54.0165 34.0237 54.3008C34.023 55.5955 33.6999 56.8695 33.0837 58.0068C32.6045 59.022 31.7925 59.8411 30.7837 60.3268C30.2233 60.6305 29.5681 60.706 28.9537 60.5377C27.8561 59.974 26.8175 59.3011 25.8537 58.529C23.5937 56.8719 21.3837 56.5003 19.2037 57.4243Z" fill="white"/>
<path d="M53.6538 7.37845C53.3186 7.06134 52.891 6.86067 52.4338 6.80598C52.2956 6.79221 52.1615 6.75105 52.0392 6.68489C51.917 6.61872 51.8091 6.52886 51.7216 6.42051C51.6342 6.31216 51.5691 6.18748 51.5299 6.05366C51.4908 5.91985 51.4785 5.77958 51.4937 5.64096C51.5016 5.50478 51.5251 5.36997 51.5637 5.23922C51.6227 5.43002 51.737 5.59882 51.8919 5.72406C52.0469 5.84929 52.2356 5.92526 52.4338 5.94225C52.891 5.99695 53.3186 6.19763 53.6538 6.51473C54.0789 6.99067 54.4174 7.53799 54.6538 8.1317L61.0538 22.2827C61.2258 22.7103 61.4438 23.1178 61.7038 23.498C61.8965 23.7433 62.1384 23.9452 62.4137 24.0905C62.8277 24.3161 63.2928 24.4303 63.7638 24.422C64.3092 24.4404 64.8426 24.2583 65.2638 23.9097C65.7925 23.3744 66.2165 22.7442 66.5138 22.0517L73.6837 7.45879C73.9523 6.78919 74.3577 6.18361 74.8737 5.68113C75.2627 5.49644 75.6841 5.39063 76.1138 5.36978C76.3973 5.37294 76.6745 5.285 76.9047 5.11877C77.135 4.95254 77.3064 4.71675 77.3938 4.4458C77.4347 4.5929 77.4548 4.74503 77.4538 4.89775C77.4538 5.68113 77.0038 6.12303 76.1138 6.23351C75.6822 6.24975 75.2592 6.35938 74.8737 6.5549C74.3572 7.05308 73.9517 7.65552 73.6837 8.32252L66.5138 22.9155C66.2165 23.6079 65.7925 24.2381 65.2638 24.7735C64.8426 25.122 64.3092 25.3042 63.7638 25.2857C63.2928 25.294 62.8277 25.1798 62.4137 24.9542C62.139 24.8123 61.8971 24.6138 61.7038 24.3717C61.4464 23.9864 61.2287 23.5759 61.0538 23.1465L54.6538 9.00547C54.4194 8.40774 54.0807 7.85677 53.6538 7.37845Z" fill="white"/>
<path d="M114.954 17.7632C114.684 17.5417 114.448 17.2811 114.254 16.9899H121.644C121.869 16.9905 122.089 16.9302 122.283 16.8153C122.477 16.7004 122.636 16.5352 122.744 16.3371C122.978 15.9336 123.108 15.478 123.124 15.0114C123.134 15.1853 123.134 15.3597 123.124 15.5336C123.15 16.1219 123.004 16.705 122.704 17.2109C122.558 17.442 122.35 17.6267 122.104 17.7431C122.009 17.604 121.884 17.4877 121.739 17.4026C121.593 17.3175 121.431 17.2658 121.264 17.251C120.924 17.2907 120.604 17.4305 120.344 17.6528C120.232 17.7278 120.115 17.7949 119.994 17.8536H115.094L114.954 17.7632Z" fill="white"/>
<path d="M115.304 25.3158C113.297 25.3831 111.337 24.6995 109.804 23.3975C109.083 22.7562 108.486 21.9867 108.044 21.1277C107.44 19.9756 107.125 18.6935 107.124 17.3916V17.01C107.19 18.1453 107.494 19.2539 108.014 20.264C108.465 21.1255 109.072 21.8952 109.804 22.5338C111.339 23.8315 113.298 24.5146 115.304 24.4521C117.37 24.4851 119.389 23.828 121.044 22.584C121.67 22.1818 122.14 21.5754 122.374 20.8666C122.421 20.9957 122.448 21.1311 122.454 21.2684C122.407 21.7176 122.254 22.1493 122.009 22.528C121.764 22.9068 121.433 23.222 121.044 23.4477C119.389 24.6918 117.37 25.3488 115.304 25.3158Z" fill="white"/>
<path d="M115.494 12.0787C115.114 12.0702 114.743 12.1944 114.444 12.4302C114.244 12.4417 114.045 12.3927 113.874 12.2896C113.87 12.2663 113.87 12.2426 113.874 12.2193C113.933 12.1111 114 12.0071 114.074 11.908C114.225 11.7066 114.418 11.5405 114.64 11.4212C114.861 11.3019 115.106 11.2322 115.357 11.217C115.608 11.2017 115.859 11.2412 116.093 11.3327C116.327 11.4243 116.539 11.5657 116.714 11.7473C116.809 11.8551 116.893 11.973 116.964 12.0988C116.914 12.1828 116.845 12.2543 116.764 12.3082C116.683 12.3621 116.59 12.397 116.494 12.4101C116.205 12.1936 115.854 12.0773 115.494 12.0787Z" fill="white"/>
<path d="M74.9137 17.3916V17.01C74.9849 18.1483 75.2986 19.258 75.8338 20.264C76.2816 21.125 76.8853 21.8948 77.6138 22.5338C79.1529 23.8322 81.1147 24.5152 83.1237 24.4521C85.1903 24.4851 87.2093 23.828 88.8638 22.584C89.4874 22.1788 89.9562 21.5735 90.1937 20.8666C90.2373 20.9962 90.2609 21.1316 90.2638 21.2684C90.2169 21.7164 90.0658 22.1472 89.8226 22.5258C89.5794 22.9044 89.251 23.2202 88.8638 23.4477C87.2093 24.6918 85.1903 25.3488 83.1237 25.3158C81.1139 25.3837 79.1506 24.7001 77.6138 23.3975C76.8853 22.7585 76.2816 21.9888 75.8338 21.1277C75.2303 19.9756 74.9145 18.6935 74.9137 17.3916Z" fill="white"/>
<path d="M82.7437 17.7833C82.4709 17.5646 82.2346 17.3035 82.0438 17.01H89.4337C89.6571 17.0099 89.8763 16.9492 90.0682 16.8342C90.2601 16.7193 90.4174 16.5545 90.5237 16.3572C90.7612 15.9546 90.8952 15.499 90.9137 15.0315C90.9237 15.2054 90.9237 15.3798 90.9137 15.5537C90.9369 16.143 90.7874 16.7262 90.4838 17.2309C90.3419 17.4614 90.1371 17.6462 89.8938 17.7632C89.7975 17.6228 89.6712 17.5058 89.5242 17.4206C89.3771 17.3355 89.213 17.2844 89.0438 17.2711C88.708 17.3133 88.3917 17.4529 88.1338 17.6728C88.0184 17.7478 87.8981 17.8149 87.7737 17.8737H82.8838L82.7437 17.7833Z" fill="white"/>
<path d="M95.5337 18.6772C95.0529 18.1235 94.535 17.6034 93.9838 17.1205L93.9137 17.1004C93.72 16.9624 93.4979 16.8697 93.2638 16.8292C92.82 16.1047 92.5878 15.2695 92.5937 14.4188V13.9769C92.6636 14.9476 93.0422 15.8701 93.6738 16.6083C94.7106 17.6905 95.9468 18.5603 97.3137 19.1693C97.5791 19.295 97.8277 19.4536 98.0538 19.6413C97.856 19.784 97.6172 19.8581 97.3737 19.8522C97.0767 19.8533 96.7854 19.7697 96.5337 19.6112C96.1652 19.3402 95.8296 19.0267 95.5337 18.6772Z" fill="white"/>
<path d="M105.324 14.3686C105.066 14.6003 104.739 14.7383 104.394 14.7603L104.364 14.7402C103.243 13.7885 101.986 13.0131 100.634 12.4403C100.235 12.2762 99.8695 12.0415 99.5538 11.7473C99.7355 11.5995 99.9601 11.5149 100.194 11.5062C100.849 11.6311 101.438 11.9874 101.854 12.5106C102.277 12.9473 102.739 13.344 103.234 13.6957C103.536 13.8743 103.883 13.9648 104.234 13.9568C104.434 13.9652 104.633 13.9331 104.82 13.8623C105.008 13.7916 105.179 13.6837 105.324 13.545C105.513 13.3562 105.642 13.1149 105.694 12.8521C105.735 13.0199 105.758 13.1916 105.764 13.3643C105.762 13.5529 105.723 13.7393 105.647 13.912C105.571 14.0847 105.461 14.2401 105.324 14.3686Z" fill="white"/>
<path d="M68.8137 6.10295H68.7338V6.05273C68.5788 6.00686 68.4353 5.92814 68.3132 5.82188C68.1911 5.71562 68.0931 5.58429 68.0258 5.43675C67.9585 5.28921 67.9235 5.12889 67.9231 4.96661C67.9228 4.80433 67.9571 4.64386 68.0237 4.49602C68.1742 4.80203 68.4249 5.04672 68.7338 5.189C68.8702 5.25271 68.9979 5.33372 69.1138 5.43005C69.0438 5.5807 68.9537 5.80165 68.8137 6.10295Z" fill="white"/>
<path d="M83.2338 12.0988C82.8706 12.1001 82.5184 12.2239 82.2338 12.4503L82.2038 12.4302C81.9992 12.4577 81.7914 12.4152 81.6138 12.3097C81.6105 12.2864 81.6105 12.2627 81.6138 12.2394C81.6696 12.129 81.7366 12.0247 81.8137 11.9281C81.967 11.7051 82.1738 11.5246 82.4151 11.4035C82.6564 11.2823 82.9242 11.2244 83.1937 11.2351C83.4296 11.2269 83.6644 11.2703 83.882 11.3622C84.0995 11.4541 84.2946 11.5923 84.4538 11.7674C84.5494 11.8752 84.6332 11.993 84.7038 12.1189C84.6526 12.2019 84.5841 12.2728 84.5029 12.3266C84.4217 12.3803 84.3299 12.4157 84.2338 12.4302C83.9444 12.215 83.5938 12.0988 83.2338 12.0988Z" fill="white"/>
<path d="M17.0338 45.2317C19.4681 44.3127 22.0433 43.8267 24.6438 43.7955C24.951 43.7882 25.255 43.7305 25.5438 43.6247C26.144 43.225 26.7094 42.7747 27.2338 42.2789C27.5282 42.0166 27.8668 41.8092 28.2338 41.6663C29.4938 41.1373 30.8271 41.8069 32.2338 43.675C33.5989 45.4416 34.338 47.6153 34.3338 49.8516C34.333 51.1463 34.0099 52.4203 33.3938 53.5576C32.9145 54.5728 32.1025 55.3919 31.0938 55.8776C30.5333 56.1812 29.8781 56.2568 29.2638 56.0885C28.1661 55.5248 27.1276 54.8519 26.1638 54.0798C23.9038 52.4227 21.6938 52.0712 19.5138 52.9751C18.4958 53.3865 17.6174 54.0839 16.9838 54.9837C16.3761 55.8212 16.0471 56.8299 16.0438 57.8661C16.0438 59.8748 17.4804 60.7955 20.3538 60.6281C22.8389 60.4072 25.3386 60.4072 27.8238 60.6281C32.6171 61.4918 35.0138 64.7324 35.0138 70.35C34.9497 75.5079 33.2274 80.5068 30.1038 84.6015C26.7612 89.2344 22.1913 92.8324 16.9138 94.9862C14.4728 96.0086 11.9175 96.7303 9.30376 97.1355C6.63376 97.5473 4.71376 97.5372 3.52376 97.0753C2.62376 96.7137 1.81375 95.4315 1.09375 93.2287C0.362792 91.0131 -0.00532252 88.6931 0.00375406 86.359C-0.0297935 85.3842 0.161877 84.4148 0.563752 83.5268C0.913786 82.7092 1.54582 82.0459 2.34375 81.6588C2.69509 81.5132 3.08314 81.4824 3.45288 81.5707C3.82263 81.659 4.15532 81.862 4.40376 82.1509C5.42753 83.3299 6.36023 84.5856 7.19376 85.9071C7.58321 86.4343 8.07962 86.8726 8.65021 87.1929C9.22079 87.5132 9.85256 87.7082 10.5038 87.7651C12.1008 87.9735 13.7241 87.7336 15.1938 87.0721C16.4924 86.5496 17.6504 85.7273 18.5738 84.6718C19.3606 83.8617 19.8234 82.7893 19.8738 81.6588C19.9148 81.2631 19.8425 80.8638 19.6654 80.508C19.4882 80.1522 19.2136 79.8545 18.8738 79.6501C17.8408 79.1929 16.7054 79.0196 15.5838 79.1479C13.5296 79.2742 11.468 79.18 9.43376 78.8667C8.02577 78.5874 6.68673 78.031 5.49376 77.2297C2.52043 75.221 1.03375 72.141 1.03375 67.9898C1.06332 65.7779 1.45523 63.5859 2.19376 61.5018C2.97366 59.2108 4.07474 57.0431 5.46376 55.0641C8.28022 50.7209 12.3028 47.3024 17.0338 45.2317Z" fill="#B9924F"/>
<path d="M54.2337 54.5519V65.7803C54.2337 70.8019 54.3037 73.6342 54.4237 74.4175C54.4788 74.7939 54.6488 75.1439 54.9103 75.4191C55.1719 75.6943 55.512 75.8813 55.8837 75.9542C56.4181 76.0568 56.9174 76.2954 57.3337 76.6472C57.6121 77.026 57.7436 77.4937 57.7037 77.9628C57.6918 78.7665 57.4525 79.5503 57.0137 80.2226C56.557 80.9595 55.9246 81.5705 55.1737 82.0002C52.924 83.1617 50.5243 84.0033 48.0437 84.501C44.2637 85.4183 41.6137 85.723 40.0937 85.415C39.4168 85.2966 38.8037 84.9407 38.3637 84.4106C37.9152 83.9015 37.6727 83.2423 37.6837 82.5627C37.6629 82.0767 37.7922 81.5961 38.0537 81.1867C38.5105 80.617 39.0499 80.1193 39.6537 79.7104C40.4137 79.1278 40.8837 77.9327 41.0537 76.1149C41.3737 73.0081 41.5304 68.656 41.5237 63.0586C41.6236 59.4245 41.4866 55.7877 41.1137 52.1716C41.0644 51.5239 40.8559 50.8986 40.5069 50.3517C40.1578 49.8049 39.6791 49.3535 39.1137 49.0381C38.4599 48.7925 37.8786 48.3848 37.4237 47.853C37.1034 47.3361 36.9465 46.7338 36.9737 46.1255C37.0086 44.8842 37.5003 43.6998 38.3537 42.8012C39.6355 41.4355 41.1197 40.2769 42.7537 39.3664C44.422 38.3904 46.1448 37.5118 47.9137 36.735C49.4284 36.0068 51.0004 35.4055 52.6137 34.9373C54.1537 34.5556 54.9337 35.5198 54.9337 37.7996C54.9337 38.5428 54.8337 40.2803 54.6337 43.0121C54.4137 47.2236 54.2804 51.0702 54.2337 54.5519Z" fill="#B9924F"/>
<path d="M76.4737 44.147C79.5765 43.6939 82.7336 44.4641 85.2837 46.2963C86.4751 47.1848 87.3878 48.3978 87.9137 49.7914C88.494 51.6482 88.7512 53.5916 88.6737 55.5361L88.6137 60.7587C88.6137 64.3743 88.8337 66.6943 89.2737 67.7187C89.3911 68.0756 89.606 68.3922 89.8937 68.6326C90.2939 68.7962 90.7216 68.8814 91.1537 68.8837C91.7837 68.9339 92.1537 69.3959 92.1537 70.2597C92.1026 71.5471 91.7052 72.7965 91.0037 73.8752C90.2295 75.178 89.2106 76.3173 88.0037 77.2297C86.6686 78.3375 85.0436 79.035 83.3237 79.2384C82.3872 79.3916 81.4268 79.2855 80.5459 78.9316C79.6649 78.5777 78.8967 77.9893 78.3237 77.2297C77.9037 76.6673 77.5137 76.4062 77.1637 76.4363C76.5454 76.6032 75.9913 76.9532 75.5737 77.4406C73.7498 79.2667 71.3631 80.4174 68.8037 80.7047C66.6055 81.0715 64.35 80.6063 62.4737 79.3991C61.377 78.6031 60.5107 77.5286 59.9637 76.2856C59.341 74.9537 59.0232 73.4987 59.0337 72.0273C59.0509 69.5656 59.9408 67.1907 61.5437 65.3284C64.157 62.1279 68.057 60.2398 73.2437 59.664C74.0159 59.6688 74.7731 59.4491 75.4237 59.0312C75.8 58.4676 75.9599 57.786 75.8737 57.1129C75.9702 55.3232 75.7467 53.5307 75.2137 51.8201C75.0824 51.3661 74.7958 50.9731 74.4043 50.7104C74.0129 50.4477 73.5417 50.3321 73.0737 50.3839C72.4631 50.448 71.8956 50.7294 71.4737 51.1774C70.7965 51.9369 70.2092 52.7727 69.7237 53.6681C67.957 56.815 66.107 58.4889 64.1737 58.6898C63.7437 58.7571 63.304 58.7232 62.8892 58.5908C62.4745 58.4583 62.096 58.2309 61.7837 57.9265C61.4624 57.5863 61.214 57.1834 61.0541 56.7429C60.8941 56.3023 60.8259 55.8335 60.8537 55.3654C60.8972 54.1172 61.2963 52.9077 62.0037 51.8804C62.8422 50.6147 63.8987 49.5094 65.1237 48.6163C68.4453 46.1417 72.3626 44.5992 76.4737 44.147ZM78.2637 28.8109C79.8891 28.6013 81.5405 28.7486 83.1037 29.2427C83.7619 29.455 84.3498 29.844 84.8037 30.3676C85.2136 30.8007 85.4395 31.377 85.4337 31.9745C85.3937 33.0592 84.547 34.4184 82.8937 36.0521C80.2724 38.9022 76.7285 40.7245 72.8937 41.1943C70.8437 41.4052 69.8137 40.652 69.8137 38.9245C69.7867 38.4233 69.8937 37.9239 70.1237 37.4783C70.6694 36.7586 71.2749 36.0866 71.9337 35.4696C72.5119 34.939 73.0595 34.3757 73.5737 33.7823C73.7697 33.5261 73.8752 33.2116 73.8737 32.8885C73.825 32.5321 73.7023 32.1899 73.5137 31.8841C73.4343 31.7252 73.3932 31.5498 73.3937 31.3719C73.3937 30.7894 73.8437 30.2571 74.7437 29.7751C75.8472 29.2368 77.0409 28.9098 78.2637 28.8109ZM74.4737 64.6053C74.0072 64.6702 73.5609 64.8381 73.1667 65.0968C72.7725 65.3555 72.4402 65.6987 72.1937 66.1017C71.537 67.0052 71.1864 68.0966 71.1937 69.2151C71.1441 70.16 71.3964 71.096 71.9137 71.8867C72.1061 72.1863 72.3794 72.4247 72.7016 72.5741C73.0239 72.7235 73.3819 72.7777 73.7337 72.7303C75.3204 72.5562 76.117 70.8991 76.1237 67.7589C76.1911 66.8907 76.0752 66.0179 75.7837 65.1978C75.6515 64.9767 75.4552 64.8015 75.221 64.6956C74.9869 64.5897 74.7262 64.5582 74.4737 64.6053Z" fill="#B9924F"/>
<path d="M129.144 34.3045V66.2423C129.1 67.4177 129.167 68.5947 129.344 69.7575C129.539 70.3795 129.919 70.9264 130.434 71.3242C131.002 71.784 131.492 72.3335 131.884 72.9512C132.145 73.4527 132.276 74.0124 132.264 74.5782C132.264 76.4463 130.657 77.7854 127.444 78.5956C124.6 79.2755 121.673 79.536 118.754 79.3689C118.305 79.3972 117.862 79.2537 117.514 78.9672C117.257 78.4681 117.13 77.9119 117.144 77.3502C117.044 76.155 116.684 75.5424 116.064 75.5022C115.724 75.5022 115.194 75.7935 114.474 76.5066C113.571 77.3659 112.504 78.0309 111.336 78.461C110.168 78.891 108.926 79.0769 107.684 79.0073C106.059 78.8622 104.48 78.3856 103.044 77.6068C101.608 76.828 100.346 75.7633 99.3339 74.4778C95.991 70.5082 94.1091 65.5047 94.0039 60.3067C94.0017 57.0383 94.802 53.8198 96.3339 50.9363C97.6354 48.342 99.6797 46.198 102.204 44.7797C104.065 43.6958 106.194 43.1663 108.344 43.2531C110.583 43.3692 112.742 44.1292 114.564 45.4426C114.774 45.6094 115.021 45.7231 115.284 45.774C115.951 45.774 116.284 44.7898 116.284 42.8213C116.328 42.1131 116.146 41.4093 115.764 40.8126C115.262 40.2282 114.618 39.7851 113.894 39.5271C113.348 39.358 112.871 39.0185 112.531 38.5578C112.191 38.0971 112.006 37.5394 112.004 36.966C112.004 35.2587 113.454 34.0233 116.344 33.24C121.457 31.9009 124.881 31.2748 126.614 31.3619C128.284 31.392 129.144 32.3963 129.144 34.3045ZM112.914 50.9363C111.581 50.8559 110.551 51.5991 109.824 53.1659C108.703 55.8061 108.184 58.6644 108.304 61.532C108.161 64.0382 108.663 66.5393 109.764 68.7933C110.029 69.3362 110.433 69.7993 110.933 70.136C111.433 70.4727 112.013 70.6713 112.614 70.7116C113.914 70.7919 114.854 69.9683 115.444 68.2409C116.154 65.4783 116.451 62.6248 116.324 59.7744C116.324 56.1923 115.974 53.7819 115.274 52.5432C115.05 52.0951 114.716 51.7121 114.302 51.4308C113.889 51.1495 113.411 50.9792 112.914 50.9363Z" fill="#B9924F"/>
<path d="M161.214 70.5911L147.394 67.4073C146.784 67.2667 146.474 67.5078 146.474 68.1405C146.588 69.9237 147.324 71.6094 148.554 72.901C149.668 74.3687 151.231 75.4275 153.004 75.914C154.037 76.1308 155.102 76.1547 156.144 75.9843C157.139 75.8635 158.101 75.5461 158.974 75.0503C159.427 74.699 159.994 74.5306 160.564 74.5782C161.074 74.6887 161.564 75.1808 162.064 76.0345C162.422 76.5917 162.658 77.2193 162.755 77.8753C162.853 78.5313 162.81 79.2006 162.629 79.8386C162.448 80.4765 162.134 81.0683 161.707 81.5745C161.28 82.0806 160.751 82.4894 160.154 82.7736C158.573 83.7964 156.795 84.4742 154.936 84.7632C153.077 85.0521 151.179 84.9457 149.364 84.4508C145.25 83.5015 141.592 81.1481 139.014 77.7921C135.769 73.6319 133.98 68.5136 133.924 63.2293C133.805 59.6921 134.86 56.2157 136.924 53.3467C138.533 51.1215 140.857 49.5217 143.504 48.8171C145.637 48.2789 147.87 48.2789 150.004 48.8171C153.743 49.6887 157.086 51.7881 159.504 54.7829C160.819 56.3498 161.891 58.1071 162.684 59.9954C163.541 61.8909 164.01 63.9401 164.064 66.0213C164.132 67.2538 163.859 68.4811 163.274 69.5666C163.1 69.9493 162.8 70.2602 162.425 70.4468C162.05 70.6334 161.622 70.6844 161.214 70.5911ZM148.154 61.0399L151.154 61.7228C152.414 62.0141 153.034 61.4717 153.034 60.0958C153.064 58.9312 152.747 57.7843 152.124 56.8016C151.59 55.9295 150.734 55.305 149.744 55.0641C149.268 54.9212 148.76 54.9358 148.293 55.1058C147.827 55.2759 147.427 55.5923 147.154 56.0082C146.579 56.7905 146.271 57.7378 146.274 58.7098C146.229 59.2666 146.381 59.8215 146.704 60.2766C147.092 60.6823 147.601 60.9503 148.154 61.0399Z" fill="#B9924F"/>
<path d="M182.354 48.2446L182.104 59.0713C182.104 60.1627 182.104 61.7696 182.104 63.8921C182.104 66.2423 182.104 67.6483 182.194 68.0902C182.193 68.4993 182.301 68.9011 182.507 69.2541C182.713 69.6072 183.009 69.8988 183.364 70.0989C184.213 70.3261 185.115 70.248 185.914 69.8779C187.074 69.5164 187.644 69.1046 187.644 68.6627C187.533 68.074 187.326 67.5075 187.034 66.9855C186.77 66.4889 186.616 65.9406 186.584 65.3785C186.584 62.861 189.057 62.7405 194.004 65.017C196.206 65.9657 198.255 67.2384 200.084 68.7933C200.702 69.3605 201.204 70.0426 201.564 70.8019C201.928 71.5147 202.126 72.3011 202.144 73.1018C202.144 74.1062 201.744 74.6987 200.944 74.7489C200.4 74.7054 199.861 74.6113 199.334 74.4677C198.254 74.3043 197.149 74.4577 196.154 74.9096C194.854 75.3917 194.154 75.914 194.154 76.3659C194.793 78.3177 195.578 80.218 196.504 82.0504C198.077 85.5187 199.54 88.5786 200.894 91.23C201.774 92.9575 202.454 94.243 202.944 94.9762C203.569 95.9041 204.253 96.7898 204.994 97.6276C206.327 99.1542 206.994 100.493 206.994 101.645C206.994 102.88 206.574 103.654 205.724 103.965C204.541 104.235 203.299 104.041 202.254 103.423L193.254 99.2546C192.071 98.6654 191.133 97.6769 190.604 96.4626L185.984 86.9516C184.754 84.4307 183.984 82.9342 183.734 82.422C183.484 81.9098 183.244 81.6286 183.054 81.5483C182.864 81.4679 182.684 81.5483 182.604 81.9701C182.511 82.743 182.474 83.5218 182.494 84.3001C182.468 85.1164 182.562 85.932 182.774 86.7206C183.105 87.5431 183.535 88.3221 184.054 89.0406C184.55 89.7779 184.805 90.6519 184.784 91.5414C184.784 93.1784 184.094 94.0421 182.724 94.1225C181.354 94.2028 179.074 93.5299 175.914 92.1138C173.368 91.0614 170.938 89.7453 168.664 88.1869C167.979 87.5919 167.429 86.8554 167.054 86.0276C166.638 85.2332 166.409 84.3537 166.384 83.4565C166.353 83.0728 166.452 82.69 166.664 82.3694C166.876 82.0489 167.19 81.8092 167.554 81.6889C168.017 81.5638 168.452 81.3489 168.834 81.0561C169.081 80.7284 169.237 80.3399 169.284 79.9313C169.794 75.0076 169.998 70.0566 169.894 65.1074V57.4443C169.959 55.7205 169.851 53.9945 169.574 52.2921C169.455 51.8693 169.254 51.4741 168.983 51.1294C168.712 50.7847 168.376 50.4972 167.994 50.2834C167.335 49.959 166.776 49.4623 166.374 48.8454C165.973 48.2286 165.745 47.5145 165.714 46.7783C165.686 46.3954 165.765 46.0122 165.941 45.6716C166.118 45.331 166.385 45.0466 166.714 44.85C167.739 44.3648 168.874 44.1571 170.004 44.2474C174.877 44.2474 178.484 44.7763 180.824 45.8342C181.304 46.0154 181.713 46.3484 181.989 46.7831C182.265 47.2178 182.393 47.7307 182.354 48.2446Z" fill="#B9924F"/>
<path d="M73.9139 5.98241L66.7439 20.5653C66.4494 21.2593 66.0251 21.89 65.4939 22.4233C65.0701 22.7742 64.5327 22.9565 63.9839 22.9355C63.5163 22.9426 63.0548 22.8284 62.6439 22.6041C62.3691 22.4622 62.1272 22.2637 61.9339 22.0216C61.6781 21.6389 61.4604 21.2318 61.2839 20.8063L54.9139 6.65531C54.6769 6.0589 54.3385 5.50837 53.9139 5.02829C53.5788 4.71119 53.1511 4.51052 52.6939 4.45583C52.5557 4.44206 52.4216 4.40089 52.2994 4.33473C52.1772 4.26856 52.0692 4.17871 51.9818 4.07036C51.8944 3.96201 51.8292 3.83732 51.7901 3.7035C51.751 3.56969 51.7387 3.42942 51.7539 3.2908C51.7539 2.48733 52.2939 1.86465 53.3939 1.43279C54.9124 0.934094 56.5077 0.712987 58.1039 0.779969C59.6821 0.71725 61.2611 0.879562 62.7939 1.26205C63.7939 1.59683 64.2939 2.09899 64.2939 2.76855C64.2706 3.0255 64.1833 3.27243 64.04 3.48657C63.8967 3.70071 63.702 3.87516 63.4739 3.99383C63.0639 4.28509 62.8539 4.54621 62.8539 4.7973C62.8814 5.14716 62.9765 5.48829 63.1339 5.80163L65.1339 10.2307C65.4139 10.8735 65.7239 11.2351 66.0839 11.2351C66.2671 11.2258 66.4457 11.1738 66.6054 11.0832C66.7651 10.9925 66.9015 10.8657 67.0039 10.7128C67.4381 10.0828 67.8067 9.40976 68.1039 8.70414C68.9239 6.87626 69.4039 5.80163 69.5339 5.4702C69.65 5.23447 69.7213 4.97899 69.7439 4.71695C69.7439 4.3554 69.4939 4.05409 69.0039 3.80301C68.779 3.72012 68.5828 3.57358 68.439 3.38108C68.2953 3.18859 68.2101 2.95839 68.1939 2.71833C68.1939 1.47296 69.8606 0.850272 73.1939 0.850272C74.378 0.786242 75.5645 0.922036 76.7039 1.25201C76.9984 1.33836 77.2562 1.52015 77.4371 1.76903C77.618 2.01791 77.7118 2.31991 77.7039 2.62794C77.7039 3.40128 77.2539 3.84318 76.3639 3.95366C75.9324 3.9699 75.5094 4.07953 75.1239 4.27505C74.6086 4.75509 74.1968 5.33618 73.9139 5.98241Z" fill="#B9924F"/>
<path d="M89.6238 15.5135H82.2738C81.9538 15.5135 81.7938 15.6541 81.7938 15.9354C81.8175 16.3186 81.9291 16.6912 82.12 17.024C82.3108 17.3567 82.5756 17.6407 82.8938 17.8536C83.5514 18.4289 84.3918 18.7494 85.2638 18.7575C85.829 18.7495 86.3894 18.6511 86.9238 18.4663C87.4607 18.308 87.97 18.0675 88.4338 17.7532C88.6729 17.5516 88.9643 17.4226 89.2738 17.3816C89.438 17.3927 89.5969 17.4444 89.7365 17.532C89.876 17.6196 89.9919 17.7404 90.0738 17.8838C90.3123 18.1651 90.4497 18.5189 90.4638 18.8881C90.417 19.3362 90.2659 19.7669 90.0227 20.1455C89.7795 20.5241 89.451 20.8399 89.0638 21.0675C87.4093 22.3115 85.3904 22.9686 83.3238 22.9355C81.316 23.0014 79.3544 22.3221 77.8138 21.0273C76.9641 20.2725 76.2839 19.3449 75.8184 18.306C75.3529 17.2671 75.1128 16.1406 75.1138 15.0013C75.0986 13.2867 75.6587 11.6168 76.7038 10.2609C77.6183 9.07938 78.8299 8.16414 80.2138 7.60945C81.3065 7.15258 82.4803 6.92364 83.6638 6.93655C85.4918 6.87718 87.2814 7.47156 88.7138 8.61378C89.4023 9.16613 89.9764 9.84852 90.4038 10.6224C90.8678 11.4007 91.1228 12.2866 91.1438 13.1935C91.1706 13.7832 91.0208 14.3674 90.7138 14.8708C90.6046 15.0648 90.4463 15.2265 90.2549 15.3394C90.0635 15.4522 89.8458 15.5123 89.6238 15.5135ZM82.6838 12.5708H84.2638C84.9238 12.5708 85.2638 12.2695 85.2638 11.6469C85.2808 11.1393 85.1057 10.644 84.7738 10.2609C84.6147 10.0858 84.4196 9.94758 84.2021 9.85568C83.9845 9.76377 83.7497 9.72041 83.5138 9.72859C83.2443 9.7179 82.9764 9.77583 82.7352 9.89699C82.4939 10.0181 82.287 10.1986 82.1338 10.4216C81.8422 10.7951 81.6774 11.2527 81.6638 11.7272C81.6513 11.8464 81.6654 11.9668 81.7052 12.0798C81.745 12.1927 81.8094 12.2953 81.8938 12.38C82.1277 12.5324 82.4065 12.5998 82.6838 12.5708Z" fill="#B9924F"/>
<path d="M98.4136 6.90638C99.2717 6.94705 100.125 7.06129 100.964 7.24785C101.158 7.28438 101.356 7.30454 101.554 7.30811C101.899 7.26232 102.235 7.16764 102.554 7.0269C102.747 6.94481 102.954 6.89723 103.164 6.88629C103.46 6.92107 103.745 7.02211 103.998 7.182C104.251 7.34189 104.464 7.55656 104.624 7.81027C105.027 8.30203 105.364 8.84585 105.624 9.42725C105.846 9.90669 105.972 10.4255 105.994 10.9538C105.993 11.1426 105.953 11.3292 105.878 11.502C105.802 11.6747 105.692 11.83 105.554 11.9582C105.409 12.0981 105.238 12.2076 105.051 12.28C104.864 12.3525 104.664 12.3865 104.464 12.38C104.111 12.39 103.763 12.2957 103.464 12.1088C102.97 11.7583 102.509 11.3651 102.084 10.9337C101.671 10.4071 101.08 10.0499 100.424 9.92941C100.138 9.93203 99.8648 10.0472 99.6628 10.25C99.4608 10.4529 99.3462 10.7272 99.3436 11.0141C99.3436 11.5263 99.8336 12.0184 100.814 12.4503C102.306 13.0748 103.677 13.9588 104.864 15.0615C105.248 15.4427 105.552 15.8982 105.757 16.4005C105.961 16.9028 106.062 17.4415 106.054 17.9842C106.053 18.7018 105.879 19.4085 105.546 20.0436C105.214 20.6787 104.732 21.2231 104.144 21.6299C102.99 22.4916 101.581 22.9375 100.144 22.8953C99.4005 22.8699 98.6593 22.8028 97.9236 22.6945C96.9236 22.584 96.3436 22.5237 96.2236 22.5237C96.0672 22.5105 95.91 22.5105 95.7536 22.5237C95.5357 22.5641 95.3151 22.5876 95.0936 22.594C94.6733 22.6145 94.2603 22.4786 93.9336 22.2124C93.4188 21.6915 93.017 21.0691 92.7536 20.3845C92.4261 19.7169 92.2389 18.9887 92.2036 18.2453C92.2036 17.2409 92.5736 16.799 93.3236 16.799C93.6199 16.7941 93.9078 16.8976 94.1336 17.0903C94.6765 17.5753 95.1907 18.0917 95.6736 18.637C95.9855 18.9957 96.3417 19.3129 96.7336 19.581C97.0053 19.7549 97.3215 19.8457 97.6436 19.8422C97.9439 19.8558 98.2388 19.7594 98.4736 19.571C98.5764 19.4798 98.6577 19.3665 98.7113 19.2397C98.7649 19.1128 98.7896 18.9755 98.7836 18.8378C98.7836 18.3658 98.3836 17.9339 97.5836 17.5523C96.2127 16.9504 94.9751 16.0797 93.9436 14.9912C93.2215 14.155 92.8238 13.0852 92.8236 11.9783C92.7983 10.798 93.2079 9.64997 93.9736 8.75435C94.5262 8.12891 95.2129 7.63761 95.982 7.3175C96.7511 6.99739 97.5825 6.85682 98.4136 6.90638Z" fill="#B9924F"/>
<path d="M121.914 15.5135H114.514C114.194 15.5135 114.034 15.6541 114.034 15.9353C114.06 16.3181 114.172 16.6898 114.363 17.0222C114.554 17.3546 114.817 17.639 115.134 17.8536C115.791 18.4288 116.632 18.7494 117.504 18.7575C118.631 18.7133 119.726 18.3665 120.674 17.7532C120.916 17.5507 121.211 17.4218 121.524 17.3816C121.686 17.3943 121.843 17.4467 121.981 17.5342C122.119 17.6217 122.233 17.7417 122.314 17.8837C122.559 18.162 122.7 18.5169 122.714 18.8881C122.667 19.3373 122.514 19.769 122.269 20.1477C122.024 20.5265 121.693 20.8417 121.304 21.0675C119.649 22.3115 117.63 22.9685 115.564 22.9355C113.559 23.0018 111.6 22.3222 110.064 21.0273C109.212 20.2734 108.53 19.3462 108.063 18.3072C107.596 17.2683 107.354 16.1413 107.354 15.0013C107.338 13.2848 107.902 11.6136 108.954 10.2608C109.853 9.05177 111.063 8.11098 112.454 7.53911C113.547 7.08225 114.72 6.85331 115.904 6.86621C117.727 6.83625 119.502 7.45531 120.914 8.61375C121.605 9.16342 122.18 9.84637 122.604 10.6224C123.068 11.4007 123.323 12.2866 123.344 13.1935C123.37 13.7818 123.224 14.3649 122.924 14.8707C122.82 15.0523 122.674 15.2058 122.498 15.3178C122.322 15.4299 122.122 15.497 121.914 15.5135ZM114.914 12.5708H116.494C117.164 12.5708 117.494 12.2695 117.494 11.6468C117.511 11.1392 117.336 10.644 117.004 10.2608C116.829 10.0793 116.618 9.93785 116.383 9.8463C116.149 9.75475 115.898 9.71525 115.647 9.73052C115.396 9.74579 115.152 9.81547 114.93 9.93476C114.708 10.054 114.515 10.2201 114.364 10.4215C114.072 10.7951 113.907 11.2527 113.894 11.7272C113.881 11.8463 113.895 11.9668 113.935 12.0797C113.975 12.1927 114.039 12.2953 114.124 12.38C114.358 12.5324 114.637 12.5997 114.914 12.5708Z" fill="#B9924F"/>
<path d="M133.324 10.0901V15.1118C133.29 16.4118 133.327 17.7126 133.434 19.0086C133.477 19.2047 133.571 19.3859 133.706 19.534C133.841 19.682 134.013 19.7918 134.204 19.8522C134.487 19.9618 134.747 20.1217 134.974 20.3243C135.115 20.5035 135.187 20.7286 135.174 20.957C135.172 21.307 135.04 21.6436 134.804 21.9011C134.54 22.198 134.19 22.4051 133.804 22.4936C132.558 22.7746 131.28 22.8894 130.004 22.8351C128.579 22.9069 127.152 22.7544 125.774 22.3831C125.413 22.2605 125.091 22.0418 124.844 21.7504C124.62 21.5018 124.493 21.1813 124.484 20.8465C124.473 20.6337 124.545 20.4249 124.684 20.264C124.936 20.0503 125.223 19.8836 125.534 19.7719C125.944 19.6011 126.194 19.109 126.284 18.3156C126.479 16.3838 126.563 14.4421 126.534 12.5005C126.585 10.8569 126.512 9.21168 126.314 7.5793C126.261 7.24327 126.137 6.92272 125.949 6.64C125.76 6.35727 125.513 6.11916 125.224 5.94223C124.879 5.76751 124.573 5.52502 124.324 5.22916C124.16 4.98676 124.076 4.69862 124.084 4.40561C124.089 4.139 124.159 3.87764 124.286 3.64347C124.413 3.4093 124.594 3.20915 124.814 3.05981C125.531 2.57261 126.326 2.21252 127.164 1.99522C128.085 1.73684 129.02 1.52897 129.964 1.37253C130.788 1.20774 131.624 1.10701 132.464 1.07123C133.284 1.07123 133.694 1.58344 133.694 2.60785C133.694 2.94933 133.644 3.71262 133.544 4.91782C133.417 6.80596 133.344 8.53007 133.324 10.0901Z" fill="#B9924F"/>
<path d="M150.994 14.6397L148.914 20.3343C148.497 21.527 147.982 22.6827 147.374 23.7892C146.899 24.6332 146.307 25.4044 145.614 26.0791C144.965 26.7118 144.198 27.2096 143.357 27.5439C142.516 27.8783 141.618 28.0426 140.714 28.0275C139.358 28.0874 138.025 27.6521 136.964 26.8022C136.609 26.5133 136.325 26.1469 136.132 25.731C135.94 25.315 135.845 24.8604 135.854 24.4018C135.841 23.6554 136.121 22.9339 136.634 22.3932C136.873 22.1266 137.166 21.915 137.494 21.7729C137.822 21.6307 138.177 21.5614 138.534 21.5696C138.872 21.5563 139.209 21.6168 139.521 21.7468C139.834 21.8769 140.114 22.0734 140.344 22.3229C140.524 22.5005 140.673 22.7076 140.784 22.9355C140.857 23.1163 140.967 23.508 141.114 24.1106C141.134 24.3032 141.225 24.4813 141.37 24.6096C141.514 24.7379 141.701 24.8071 141.894 24.8036C142.053 24.8028 142.209 24.7642 142.35 24.6908C142.49 24.6175 142.612 24.5115 142.704 24.3817C142.92 24.0922 143.036 23.7394 143.034 23.3774C142.921 22.5132 142.646 21.6784 142.224 20.9168L138.454 12.8822C138.218 12.3241 137.92 11.795 137.564 11.3054C137.169 10.9787 136.723 10.7207 136.244 10.5421C136.015 10.4374 135.825 10.2613 135.704 10.0399C135.565 9.82779 135.489 9.58059 135.484 9.32682C135.484 8.39614 136.404 7.76341 138.244 7.42863C139.635 7.19486 141.044 7.08395 142.454 7.0972C143.337 7.0667 144.22 7.18553 145.064 7.44872C145.421 7.52179 145.742 7.71488 145.975 7.99608C146.207 8.27729 146.338 8.62979 146.344 8.99539C146.315 9.33495 146.191 9.65916 145.984 9.92942C145.783 10.1861 145.665 10.4977 145.644 10.8233C145.646 11.0924 145.7 11.3585 145.804 11.6067C145.914 11.8778 146.154 12.3398 146.504 12.9826C146.854 13.6254 147.254 14.0873 147.554 14.0873C147.854 14.0873 148.204 13.766 148.554 13.083C148.873 12.5114 149.048 11.8701 149.064 11.215C149.081 10.7886 148.942 10.3706 148.674 10.0399C148.35 9.71478 148.142 9.29092 148.084 8.8347C148.084 8.3024 148.434 7.83037 149.144 7.54916C150.053 7.20088 151.022 7.04033 151.994 7.07712C154.204 7.07712 155.304 7.60941 155.304 8.674C155.321 9.01697 155.203 9.35292 154.974 9.60803C154.617 9.91945 154.198 10.1491 153.744 10.2809C153.257 10.4549 152.84 10.7826 152.554 11.215C151.923 12.3021 151.4 13.4493 150.994 14.6397ZM147.224 0.0970115C148.089 0.0823318 148.95 0.225254 149.764 0.518836C150.101 0.641589 150.406 0.840934 150.654 1.10134C150.756 1.19827 150.838 1.31491 150.895 1.44431C150.952 1.57371 150.982 1.71323 150.984 1.85459C150.984 2.33667 150.514 2.85893 149.654 3.572C148.172 4.7625 146.331 5.41072 144.434 5.40993C143.354 5.40993 142.814 5.01824 142.814 4.2449C142.799 4.02084 142.858 3.79806 142.984 3.61217C143.271 3.31226 143.586 3.03991 143.924 2.79867C144.227 2.59251 144.514 2.36424 144.784 2.11572C144.835 2.06642 144.876 2.00714 144.903 1.94151C144.931 1.87587 144.945 1.80529 144.944 1.73408C144.918 1.56392 144.853 1.4022 144.754 1.26204C144.713 1.18834 144.693 1.10523 144.694 1.021C144.694 0.759876 144.934 0.548965 145.394 0.368185C145.985 0.174919 146.603 0.0799306 147.224 0.0869737V0.0970115Z" fill="#B9924F"/>
</svg>
