<svg width="32" height="32" viewBox="0 0 32 32" fill="none" xmlns="http://www.w3.org/2000/svg">
<g clip-path="url(#clip0_24_24287)">
<path d="M25.29 19.8229C24.6349 19.1407 23.8447 18.776 23.0072 18.776C22.1765 18.776 21.3795 19.134 20.6974 19.8161L18.5632 21.9436C18.3876 21.849 18.212 21.7612 18.0432 21.6734C17.8 21.5518 17.5704 21.437 17.3745 21.3155C15.3754 20.0457 13.5586 18.3911 11.8161 16.2501C10.9719 15.183 10.4046 14.2847 9.99261 13.373C10.5464 12.8664 11.0597 12.3396 11.5595 11.8331C11.7486 11.644 11.9377 11.4481 12.1268 11.259C13.5451 9.84072 13.5451 8.00368 12.1268 6.58538L10.283 4.74159C10.0737 4.53222 9.85753 4.3161 9.65491 4.09997C9.24969 3.68124 8.8242 3.24899 8.3852 2.84376C7.73008 2.1954 6.94663 1.85095 6.12267 1.85095C5.2987 1.85095 4.50175 2.1954 3.82637 2.84376C3.81962 2.85052 3.81962 2.85052 3.81286 2.85727L1.51656 5.17383C0.652074 6.03832 0.159045 7.09192 0.0509843 8.31436C-0.111107 10.2865 0.469721 12.1235 0.915473 13.3257C2.00959 16.2771 3.64402 19.0124 6.08215 21.9436C9.04032 25.4758 12.5996 28.2651 16.6654 30.2305C18.2188 30.9667 20.2922 31.8379 22.6087 31.9865C22.7506 31.9932 22.8992 32 23.0342 32C24.5944 32 25.9046 31.4394 26.9312 30.3251C26.9379 30.3115 26.9514 30.3048 26.9582 30.2913C27.3094 29.8658 27.7146 29.4808 28.1401 29.0688C28.4305 28.7919 28.7277 28.5015 29.0181 28.1976C29.6867 27.502 30.0379 26.6915 30.0379 25.8608C30.0379 25.0233 29.68 24.2196 28.9979 23.5442L25.29 19.8229ZM27.7079 26.9346C27.7011 26.9346 27.7011 26.9414 27.7079 26.9346C27.4445 27.2183 27.1743 27.4749 26.8839 27.7586C26.4449 28.1773 25.9992 28.6163 25.5804 29.1094C24.8983 29.8388 24.0946 30.1832 23.041 30.1832C22.9397 30.1832 22.8316 30.1832 22.7303 30.1765C20.7244 30.0481 18.8604 29.2647 17.4623 28.5961C13.6397 26.7455 10.283 24.1183 7.49369 20.7887C5.19064 18.0128 3.65077 15.4464 2.63094 12.6908C2.00284 11.0091 1.77321 9.69889 1.87452 8.46294C1.94205 7.67274 2.24598 7.01762 2.80654 6.45706L5.1096 4.154C5.44053 3.84333 5.79173 3.67448 6.13618 3.67448C6.56167 3.67448 6.90611 3.93113 7.12223 4.14725C7.12899 4.154 7.13574 4.16076 7.14249 4.16751C7.55448 4.55248 7.9462 4.95096 8.35818 5.37645C8.56755 5.59257 8.78367 5.80869 8.99979 6.03157L10.8436 7.87536C11.5595 8.59126 11.5595 9.25314 10.8436 9.96904C10.6477 10.1649 10.4586 10.3608 10.2628 10.5499C9.69544 11.1307 9.15513 11.671 8.56755 12.1978C8.55404 12.2113 8.54054 12.2181 8.53378 12.2316C7.95295 12.8124 8.06101 13.3797 8.18258 13.7647C8.18934 13.785 8.19609 13.8052 8.20284 13.8255C8.68237 14.9871 9.35775 16.0813 10.3843 17.3847L10.3911 17.3915C12.2551 19.6878 14.2205 21.4776 16.3885 22.8486C16.6654 23.0242 16.949 23.166 17.2192 23.3011C17.4623 23.4227 17.692 23.5375 17.8878 23.659C17.9148 23.6725 17.9419 23.6928 17.9689 23.7063C18.1985 23.8211 18.4146 23.8752 18.6375 23.8752C19.1981 23.8752 19.5493 23.524 19.6641 23.4091L21.9739 21.0993C22.2035 20.8697 22.5682 20.5928 22.9937 20.5928C23.4124 20.5928 23.7569 20.8562 23.9663 21.0858C23.973 21.0926 23.973 21.0926 23.9798 21.0993L27.7011 24.8207C28.3968 25.5096 28.3968 26.2187 27.7079 26.9346Z" fill="#EE932B"/>
<path d="M17.2935 7.61195C19.063 7.90911 20.6704 8.74659 21.9536 10.0298C23.2368 11.313 24.0675 12.9204 24.3715 14.6899C24.4458 15.1357 24.8307 15.4464 25.2697 15.4464C25.3238 15.4464 25.371 15.4396 25.4251 15.4329C25.9248 15.3518 26.2558 14.8791 26.1747 14.3793C25.81 12.2383 24.797 10.2865 23.2503 8.73983C21.7037 7.19321 19.7519 6.18014 17.6109 5.81543C17.1111 5.73438 16.6451 6.06532 16.5573 6.55835C16.4695 7.05138 16.7937 7.5309 17.2935 7.61195Z" fill="#EE932B"/>
<path d="M31.9628 14.1159C31.3617 10.5904 29.7002 7.38232 27.1473 4.82937C24.5944 2.27643 21.3863 0.61499 17.8608 0.0139004C17.3678 -0.0738993 16.9018 0.263792 16.814 0.756821C16.7329 1.2566 17.0638 1.72262 17.5636 1.81042C20.7109 2.34397 23.5813 3.83656 25.8641 6.1126C28.1469 8.39539 29.6327 11.2658 30.1663 14.413C30.2406 14.8588 30.6255 15.1695 31.0645 15.1695C31.1185 15.1695 31.1658 15.1627 31.2199 15.156C31.7129 15.0817 32.0506 14.6089 31.9628 14.1159Z" fill="#EE932B"/>
</g>
<defs>
<clipPath id="clip0_24_24287">
<rect width="32" height="32" fill="white"/>
</clipPath>
</defs>
</svg>
