<svg width="25" height="24" viewBox="0 0 25 24" fill="none" xmlns="http://www.w3.org/2000/svg">
<g clip-path="url(#clip0_24_21446)">
<path d="M19.8846 14.8672C19.3932 14.3555 18.8006 14.082 18.1725 14.082C17.5494 14.082 16.9517 14.3505 16.4401 14.8621L14.8395 16.4577C14.7078 16.3868 14.5761 16.3209 14.4494 16.2551C14.2671 16.1639 14.0948 16.0778 13.948 15.9866C12.4486 15.0343 11.086 13.7933 9.77916 12.1876C9.14599 11.3872 8.72049 10.7136 8.41151 10.0297C8.82687 9.64982 9.21184 9.25472 9.58667 8.87482C9.7285 8.73299 9.87033 8.5861 10.0122 8.44427C11.0759 7.38054 11.0759 6.00276 10.0122 4.93903L8.62932 3.55619C8.47229 3.39916 8.3102 3.23707 8.15824 3.07498C7.85432 2.76093 7.5352 2.43674 7.20595 2.13282C6.71461 1.64655 6.12703 1.38821 5.50905 1.38821C4.89108 1.38821 4.29337 1.64655 3.78683 2.13282C3.78176 2.13789 3.78176 2.13789 3.7767 2.14295L2.05448 3.88037C1.40611 4.52874 1.03634 5.31894 0.955291 6.23577C0.833723 7.71486 1.26934 9.09263 1.60366 9.99427C2.42425 12.2078 3.65007 14.2593 5.47866 16.4577C7.69729 19.1069 10.3667 21.1989 13.4161 22.6729C14.5811 23.225 16.1362 23.8784 17.8736 23.9899C17.98 23.9949 18.0914 24 18.1927 24C19.3628 24 20.3455 23.5796 21.1154 22.7438C21.1205 22.7337 21.1306 22.7286 21.1357 22.7185C21.3991 22.3993 21.703 22.1106 22.0221 21.8016C22.24 21.594 22.4628 21.3761 22.6806 21.1482C23.1821 20.6265 23.4455 20.0186 23.4455 19.3956C23.4455 18.7675 23.177 18.1647 22.6654 17.6582L19.8846 14.8672ZM21.698 20.201C21.6929 20.201 21.6929 20.206 21.698 20.201C21.5004 20.4137 21.2978 20.6062 21.08 20.819C20.7507 21.133 20.4164 21.4623 20.1024 21.832C19.5908 22.3791 18.988 22.6374 18.1978 22.6374C18.1218 22.6374 18.0408 22.6374 17.9648 22.6324C16.4604 22.5361 15.0623 21.9485 14.0138 21.4471C11.1468 20.0591 8.62932 18.0887 6.53732 15.5915C4.81003 13.5096 3.65513 11.5848 2.89026 9.51812C2.41918 8.25685 2.24696 7.27417 2.32294 6.34721C2.37359 5.75456 2.60153 5.26322 3.02196 4.84279L4.74925 3.1155C4.99745 2.8825 5.26085 2.75586 5.51919 2.75586C5.8383 2.75586 6.09664 2.94835 6.25873 3.11044C6.26379 3.1155 6.26886 3.12057 6.27392 3.12563C6.58291 3.41436 6.8767 3.71322 7.18569 4.03233C7.34272 4.19443 7.50481 4.35652 7.6669 4.52367L9.04974 5.90652C9.58667 6.44345 9.58667 6.93985 9.04974 7.47678C8.90285 7.62368 8.76102 7.77057 8.61412 7.9124C8.18863 8.34802 7.7834 8.75325 7.34272 9.14835C7.33259 9.15848 7.32245 9.16355 7.31739 9.17368C6.88177 9.6093 6.96281 10.0348 7.05399 10.3235C7.05906 10.3387 7.06412 10.3539 7.06919 10.3691C7.42883 11.2403 7.93536 12.0609 8.7053 13.0386L8.71036 13.0436C10.1084 14.7658 11.5824 16.1082 13.2084 17.1364C13.4161 17.2681 13.6288 17.3745 13.8314 17.4758C14.0138 17.567 14.186 17.6531 14.3329 17.7443C14.3532 17.7544 14.3734 17.7696 14.3937 17.7797C14.5659 17.8658 14.728 17.9064 14.8952 17.9064C15.3156 17.9064 15.579 17.643 15.6651 17.5569L17.3975 15.8245C17.5697 15.6523 17.8432 15.4446 18.1623 15.4446C18.4764 15.4446 18.7347 15.6421 18.8917 15.8144C18.8968 15.8194 18.8968 15.8194 18.9019 15.8245L21.6929 18.6155C22.2146 19.1322 22.2146 19.664 21.698 20.201Z" fill="#36332F"/>
<path d="M13.8872 5.70897C15.2143 5.93185 16.4199 6.55996 17.3823 7.52237C18.3447 8.48479 18.9678 9.69035 19.1957 11.0175C19.2514 11.3518 19.5402 11.5848 19.8694 11.5848C19.9099 11.5848 19.9454 11.5797 19.9859 11.5747C20.3608 11.5139 20.609 11.1593 20.5482 10.7845C20.2746 9.17875 19.5148 7.71486 18.3549 6.55489C17.1949 5.39492 15.731 4.63512 14.1253 4.36159C13.7505 4.3008 13.4009 4.54901 13.3351 4.91878C13.2692 5.28855 13.5124 5.64819 13.8872 5.70897Z" fill="#36332F"/>
<path d="M24.8891 10.5869C24.4383 7.9428 23.1922 5.53675 21.2775 3.62205C19.3628 1.70734 16.9568 0.461258 14.3127 0.0104405C13.9429 -0.0554092 13.5934 0.197859 13.5275 0.567631C13.4667 0.942468 13.7149 1.29198 14.0898 1.35783C16.4502 1.75799 18.603 2.87744 20.3151 4.58447C22.0272 6.29656 23.1416 8.44934 23.5417 10.8098C23.5975 11.1441 23.8862 11.3771 24.2154 11.3771C24.256 11.3771 24.2914 11.3721 24.3319 11.367C24.7017 11.3113 24.955 10.9567 24.8891 10.5869Z" fill="#36332F"/>
</g>
<defs>
<clipPath id="clip0_24_21446">
<rect width="24" height="24" fill="white" transform="translate(0.916992)"/>
</clipPath>
</defs>
</svg>
