<svg width="824" height="599" viewBox="0 0 824 599" fill="none" xmlns="http://www.w3.org/2000/svg">
<path opacity="0.5" d="M383.979 575.107C382.206 576.861 380.79 578.934 379.806 581.216C386.086 582.946 382.257 585.068 379.606 585.2C371.474 585.588 376.411 603.271 364.253 596.509C360.562 594.457 363.438 590.701 365.693 586.836C368.895 581.353 361.365 574.456 357.719 575.631C341.392 581.201 326.353 568.402 309.573 574.221C299.603 577.756 303.589 565.135 301.341 558.996C290.484 583.362 271.626 558.936 256.824 565.211C255.469 563.767 256.715 560.696 257.553 557.53C258.39 554.365 265.373 552.262 261.34 547.797C257.849 544.094 252.884 545.071 248.669 548.094C241.958 552.911 233.59 554.164 227.099 559.739C221.739 564.301 218.338 559.275 215.83 552.086C212.824 543.475 209.046 533.695 198.459 530.089C190.898 527.533 180.376 532.992 176.43 519.426C175.474 516.095 161.425 525.018 162.487 529.293C165.314 540.55 158.972 537.533 153.486 537.188C143.925 536.611 134.418 535.798 124.846 535.113C125.188 532.54 130.261 531.871 127.894 528.744C127.072 527.636 123.671 527.594 121.81 528.191C117.374 529.678 120.573 532.466 121.218 534.807C120.705 535.502 120.36 536.306 120.21 537.155L117.168 539.141L103.511 537.796C109.032 527.862 107.693 525.256 94.1945 519.175C100.141 510.823 112.591 510.547 117.576 500.913C112.28 497.253 103.817 502.974 99.825 494.277C95.8335 485.579 85.4994 494.899 80.1291 487.51C74.1758 479.068 69.5924 488.829 65.0836 490.477C56.7727 493.511 65.608 496.926 66.3809 500.427C67.2783 505.725 62.6001 501.253 60.9827 502.506C55.8261 499.02 50.8505 494.903 44.0082 496.862C43.0057 497.161 41.5935 500.017 42.0339 500.755C43.3232 503.471 45.4058 505.749 48.0126 507.295C50.6195 508.841 53.6311 509.584 56.6587 509.428C63.938 525.671 81.1956 529.931 94.7506 518.631C101.413 528.828 93.4971 532.484 86.5842 536.617C69.0837 529.049 47.6233 537.572 32.2743 523.005C45.5864 521.795 44.0637 509.707 42.3569 503.092C39.3344 491.436 43.4537 483.689 49.9747 475.647C55.0943 474.776 62.0846 475.291 56.796 466.613L61.1569 463.27C63.8919 463.087 64.7448 464.839 65.1329 467.05L67.9156 470.554C83.1854 480.013 95.1354 478.949 102.024 467.597C104.683 463.226 106.788 458.302 99.2998 457.919C85.4803 457.28 73.8698 449.549 60.6372 447.453L59.4305 444.276L58.0283 444.908C59.0033 445.663 59.9705 446.451 61.0818 447.238C51.7755 462.38 48.8522 446.399 43.2185 443.58C42.0643 443.403 40.9247 443.14 39.8092 442.795C36.5158 441.505 36.9413 439.659 39.6388 438.548C60.856 430.146 41.2832 425.494 37.0393 422.253C32.3118 418.618 24.8338 419.44 18.4871 420.806C8.63394 422.742 7.68102 413.79 7.45481 409.319C7.14271 402.883 14.2866 403.823 18.2558 405.763C27.2805 410.07 29.6649 404.397 31.4185 398.191C34.2168 388.23 22.2585 396.963 22.4824 390.227C35.5324 379.094 33.6921 371.811 15.2017 365.111C13.8389 364.688 12.5551 364.046 11.403 363.21C15.5506 347.55 0.973742 343.342 -5.99631 334.171C-12.9664 324.999 -16.1257 316.741 -11.5968 301.452C-7.27216 286.893 1.84201 289.878 9.50243 283.123C3.77274 280.565 -1.31696 278.19 -6.498 275.9C-9.32174 274.755 -14.9229 276.469 -14.0661 271.505C-13.2093 266.541 -7.6288 267.721 -4.08765 268.714C0.166029 259.76 -19.5914 264.009 -11.2364 253.774C-4.17008 245.079 -15.5692 225.836 5.52516 225.289C7.84353 225.823 10.1385 225.681 10.0833 222.804C10.028 219.928 7.92194 219.407 5.40098 220.064L4.1673 219.496C6.6813 212.016 -0.443743 211.929 -3.84471 208.458C-10.0576 202.077 -9.41779 201.482 -16.6166 207.636C-22.3686 212.497 -27.7667 214.576 -30.9388 204.972C-25.0554 190.348 -14.0297 182.39 3.29893 181.045C-2.17704 172.713 -9.62891 177.783 -15.287 176.161C-12.4536 169.319 -1.20939 165.865 -6.94945 155.563C5.10261 144.553 11.4486 127.455 29.3462 122.707C30.4374 122.278 31.4124 121.606 32.1961 120.745C32.9797 119.884 33.5511 118.855 33.8663 117.738C37.4597 94.6684 56.9434 92.2296 74.3778 87.6217C86.0792 84.5206 91.1201 80.0967 98.6535 68.7525C100.081 66.6069 104.153 58.601 113.163 63.4352C120.158 67.2037 130.123 65.7176 138.816 66.1655C141.296 66.3127 145.294 66.8806 144.821 62.388C144.541 59.7074 143.828 56.5733 140.194 55.9833C133.922 54.9975 121.538 59.037 131.433 45.2323C126.958 44.5544 122.526 43.5329 118.025 43.2736C115.19 43.1149 111.722 44.2955 112.546 39.7836C113.32 36.4267 116.853 36.6753 119.616 36.2161C127.993 34.6114 135.495 47.5472 144.364 37.8894C147.227 38.5494 150.057 39.2015 151.522 35.6503C160.412 31.1943 171.122 41.8997 181.04 32.2011C171.717 29.3454 161.848 30.5708 156.403 22.1041C162.578 3.41167 179.558 6.22898 193.851 4.50289C199.622 4.29038 205.403 4.81453 211.049 6.0624C215.217 6.6696 220.728 2.38925 223.351 8.29678C225.975 14.2044 220.469 17.5313 217.788 21.686L217.068 21.6967C215.944 20.3418 215.162 17.1919 212.823 19.5517C210.484 21.9115 212.811 22.8722 214.947 23.5766C215.878 27.3264 217.343 28.7598 220.537 25.183C226.293 25.012 232.035 24.5414 237.737 23.7734C240.591 23.2292 245.395 22.6394 243.862 17.761C243.051 15.2054 245.997 8.49587 238.18 11.2549C235.715 12.1362 232.896 10.0369 234.085 7.83637C238.897 -1.20089 248.821 6.21242 255.773 1.91065C259.956 -0.660505 262.971 1.83725 262.539 7.60618C261.855 13.1658 261.763 18.7847 262.266 24.371C263.585 36.8717 272.406 42.6873 284.31 39.1734C286.273 38.6007 289.101 38.015 289.748 36.6087C293.682 28.1114 311.136 18.2759 320.905 19.0424C322.331 19.1661 323.682 19.7378 324.759 20.6735C325.836 21.6091 326.582 22.8591 326.888 24.2394C328.955 36.7709 336.806 34.0197 345.646 33.0521C360.374 31.4618 358.102 25.7413 350.182 16.9516C357.224 19.4231 359.775 24.7129 362.155 29.9633C364.847 35.8866 370.12 38.8694 375.551 37.1161C377.572 36.189 379.335 34.7963 380.692 33.0546C382.049 31.313 382.961 29.2732 383.351 27.106C383.773 20.1328 375.788 22.5347 369.35 19.7784C384.741 8.30071 401.581 20.1361 404.967 24.4516C415.827 39.646 425.856 27.2861 435.737 27.7249C441.4 35.7117 445.826 30.6863 450.388 26.4703C454.437 32.4235 473.495 26.8464 463.83 43.3909C467.979 45.7966 472.398 50.4564 476.325 50.0887C484.398 49.3331 480.631 41.2178 482.012 36.1624C485.963 33.8205 488.197 37.8353 491.205 38.4932C492.773 38.8546 494.411 38.914 496.01 39.1411C495.431 39.0075 494.408 38.7718 494.247 39.1589C493.246 40.4821 492.614 42.0425 492.414 43.6857C494.063 55.3787 508.841 62.143 524.447 58.4571C534.038 64.9804 541.146 77.2949 555.891 71.8905C561.902 71.8263 567.181 66.6795 573.604 69.5031C576.507 78.0912 592.468 77.3858 589.039 91.0193C588.358 93.9734 584.812 101.57 594.988 101.193C602.41 100.924 609.587 96.4265 610.707 92.6546C613.773 82.1545 603.695 91.9224 600.622 87.9618C598.56 85.2241 601.528 84.0342 601.017 82.0429C604.58 74.839 613.156 76.1084 618.532 72.2566C620.694 71.4875 622.919 70.9005 625.184 70.5018C626.538 70.3897 629.746 71.2705 627.405 73.1704C616.344 82.2168 635.084 80.6672 632.46 86.6025C627.561 89.0087 618.467 83.1303 618.16 91.4734C617.776 100.93 629.285 96.0169 630.971 95.5569C650.915 90.184 665.651 96.974 679.029 111.37C682.712 115.33 690.049 114.652 694.059 108.47C694.746 108.672 695.375 109.031 695.896 109.518C696.416 110.006 696.813 110.608 697.052 111.274C697.291 111.941 697.367 112.653 697.272 113.351C697.177 114.05 696.915 114.715 696.508 115.292C684.696 131.024 696.361 135.091 708.401 139.245L708.06 139.166C708.46 142.289 709.5 145.303 711.115 148.026C712.73 150.749 714.887 153.123 717.456 155.004C720.024 156.886 722.95 158.235 726.056 158.971C729.162 159.706 732.383 159.812 735.523 159.283C739.598 158.737 744.129 156.211 745.117 161.741C746.506 169.733 739.145 165.844 735.642 167.335C732.138 168.826 724.294 163.447 725.058 170.729C725.771 177.292 731.906 173.262 735.981 171.938C749.737 167.402 760.534 181.309 772.306 178.684C754.908 191.078 772.838 199.275 778.303 209.055C774.335 213.655 767.083 203.994 763.689 213.111C768.292 214.172 771.382 220.858 777.613 215.79C779.883 216.065 782.161 216.307 784.439 216.55C783.96 218.631 784.747 219.732 786.912 219.842C793.525 239.289 806.337 222.798 816.012 224.285C819.024 224.768 820.784 222.274 822.567 226.998C825.24 233.942 819.395 230.015 818.179 231.396C813.284 237.055 802.881 240.597 812.94 251.789C818.374 257.814 809.249 261.261 804.059 263.529C795.761 267.132 785.705 269.481 798.359 280.316C801.382 282.78 799.574 285.015 793.172 288.489C776.757 297.398 776.804 297.196 791.519 306.88C794.445 308.828 797.155 311.715 793.193 316.599C788.743 322.043 791.758 326.096 798.51 327.334C799.962 331.628 793.055 330.284 793.86 334.111L794.838 337.659C788.439 339.72 784.042 346.024 787.506 350.464C793.614 358.235 795.47 347.068 800.073 345.477C800.814 345.223 800.996 343.498 801.448 342.471C803.483 347.392 805.847 352.177 808.524 356.793C818.659 372.174 800.332 380.5 799.884 393.194C798.724 392.927 797.432 391.993 796.474 392.409C789.057 394.835 770.715 385.623 780.36 407.644C781.423 410.045 766.378 419.552 758.331 425.334C744.774 435.396 728.276 439.371 712.852 445.538C707.867 447.536 700.074 446.765 700.047 454.36C700.02 461.954 705.336 466.467 714.851 468.023C705.552 471.29 694.741 467.879 692.193 479.559C691.659 481.875 689.101 482.381 686.561 482.185C681.691 481.663 691.696 469.722 680.015 474.136C674.366 476.369 674.54 483.091 669.92 485.067C664.103 487.129 658.167 488.854 652.141 490.232C644.695 492.475 634.877 493.323 646.36 504.101C650.257 507.756 641.643 508.988 642.224 513.011C641.84 521.69 635.321 522.556 628.755 522.846C622.19 523.136 622.111 527.996 620.894 532.029C620.685 532.935 622.783 534.585 623.812 535.883C631.626 529.553 649.347 537.101 648.652 518.77C651.397 519.203 653.935 520.494 655.888 522.453C657.842 524.412 659.109 526.935 659.501 529.649C656.603 537.159 655.152 545.144 655.223 553.198C651.17 553.182 646.301 554.677 643.219 552.941C630.463 545.971 617.64 549.733 605.795 552.836C586.705 557.77 568.277 548.149 549.425 553.455C537.567 556.768 537.194 555.586 542.154 566.31C543.179 568.561 542.664 571.73 540.163 571.366C530.45 570.046 521.173 580.388 510.01 568.376C504.867 562.807 489.23 553.229 477.365 566.544C472.516 572.002 466.352 575.071 470.063 562.705C470.237 561.691 470.105 560.648 469.685 559.703C469.265 558.758 468.574 557.953 467.698 557.387C460.705 563.27 448.073 553.43 443.315 565.661C442.602 567.512 442.895 572.317 438.084 569.511C433.273 566.705 428.629 563.797 432.263 555.195C426.308 565.454 424.179 576.877 409.265 565.874C406.203 563.578 393.159 573.44 383.49 574.888C386.328 572.856 391.429 574.561 392.065 568.839C390.005 572.324 379.533 561.992 383.979 575.107ZM28.0763 147.691C12.2471 147.048 -0.902134 144.123 2.98798 164.322C12.5011 160.673 21.0671 154.994 28.0763 147.691ZM67.2809 115.611C76.5222 118.978 83.052 114.014 90.1284 112.286C93.545 111.483 95.3571 109.072 94.0963 106.13C93.4039 104.843 92.2481 103.857 90.8582 103.366C89.4683 102.876 87.9457 102.917 86.5924 103.482C79.148 105.718 72.4731 109.91 67.2809 115.611ZM796.921 389.224C795.496 390.734 793.556 391.984 793.662 392.927C793.882 393.665 794.279 394.34 794.82 394.896C795.361 395.452 796.03 395.871 796.768 396.118C797.28 396.332 797.841 396.401 798.388 396.318C798.935 396.234 799.447 396.001 799.865 395.646C800.283 395.29 800.591 394.825 800.754 394.303C800.917 393.782 800.929 393.225 800.788 392.696C800.514 391.395 798.435 390.598 796.921 389.224Z" fill="url(#paint0_linear_24_24447)"/>
<defs>
<linearGradient id="paint0_linear_24_24447" x1="813.295" y1="-84.8625" x2="-352.582" y2="845.118" gradientUnits="userSpaceOnUse">
<stop stop-color="#F6D8B6"/>
<stop offset="0.646478" stop-color="#F6D8B6" stop-opacity="0"/>
</linearGradient>
</defs>
</svg>
