<svg width="229" height="203" viewBox="0 0 229 203" fill="none" xmlns="http://www.w3.org/2000/svg">
<path d="M136.411 59.896L148.15 62.9337C147.655 61.3727 147.159 59.8167 146.629 58.0674C147.868 55.4163 148.115 52.4777 144.533 51.1298C142.446 50.3419 140.132 50.1387 137.917 49.6927C136.326 49.3607 134.746 48.994 133.987 47.2993C133.919 47.1409 133.873 46.9743 133.849 46.8037C133.849 46.7343 133.893 46.6551 133.943 46.4965C134.161 46.5807 134.369 46.6699 134.577 46.7443C136.193 47.324 137.768 48.0624 139.429 48.439C142.095 49.0436 144.904 49.0783 147.357 50.8325C147.667 49.1008 147.444 47.3158 146.718 45.7135C145.856 43.6719 144.736 41.7492 143.784 39.7373C143.628 39.2901 143.525 38.826 143.477 38.3547C143.898 38.6471 144.468 38.8502 144.716 39.2417C146.728 42.5717 147.976 46.3073 148.368 50.1784C148.566 51.8285 148.542 53.5035 148.705 55.1635C148.74 55.5154 149.156 55.8325 149.572 56.4074C151.203 52.3241 151.589 48.6075 149.503 44.8909C151.857 48.3845 152.838 52.0713 150.99 56.0952C150.818 56.3922 150.739 56.7332 150.761 57.0752C150.783 57.4173 150.906 57.7453 151.113 58.0179C152.332 59.891 152.402 61.9822 152.045 64.1031C151.946 64.4393 151.806 64.7622 151.629 65.0645H151.317C151.277 64.6235 151.237 64.1775 151.193 63.7364C151.1 62.1455 150.921 60.5608 150.658 58.9891C150.543 58.4589 150.288 57.9691 149.92 57.5701C149.553 57.1711 149.085 56.8775 148.566 56.7195C148.363 58.1418 147.927 59.3707 148.472 60.7582C149.632 63.7315 150.653 66.7047 151.797 69.678C151.902 69.8574 152.051 70.0073 152.229 70.1138C152.408 70.2204 152.61 70.2801 152.818 70.2875C161.168 68.0378 167.481 63.3103 170.915 55.1784C172.149 52.2646 172.818 49.2319 171.634 46.1645C171.166 44.9355 170.46 43.8108 169.558 42.8542C166.113 39.2805 161.442 37.1451 156.485 36.878C150.573 36.4419 144.81 37.3735 139.057 38.5381C132.669 39.8066 126.316 41.3478 119.731 41.1644C118.417 41.1297 117.099 41.0009 115.766 40.877C108.71 40.213 101.663 39.3904 94.5917 38.8948C87.8771 38.4439 82.0941 40.6738 77.659 45.9068C75.5323 48.3669 74.3982 51.531 74.4776 54.782C74.506 55.3284 74.4542 55.8759 74.324 56.4074C73.8947 54.7349 73.8386 52.9885 74.1598 51.292C74.4809 49.5955 75.1714 47.9904 76.1823 46.5906C80.221 40.7284 85.999 38.1416 92.9812 37.9731C95.1567 37.9186 97.337 37.9731 99.0269 37.9731C92.9614 36.4865 84.8246 36.5807 79.6561 40.2031C76.772 42.2199 73.9523 44.326 72.545 47.7304C70.7214 52.1457 71.3953 56.452 73.2239 60.6888C74.5501 63.5936 76.3976 66.2305 78.6749 68.4689C78.4568 68.3703 78.2478 68.2526 78.0505 68.117C73.5906 64.5244 70.8106 59.9356 70.1218 54.2071C69.4627 48.6372 71.6481 44.3805 75.989 40.8275C81.113 36.6699 87 35.4062 93.3331 35.4706C97.0001 35.5053 100.657 35.8572 104.319 36.0702C104.718 36.1218 105.123 36.1 105.514 36.0058C101.46 32.869 97.1735 30.2228 92.2528 28.7065L92.3915 28.3596C94.0516 28.8948 95.7364 29.3804 97.347 29.98C101.544 31.5212 105.583 33.3497 108.982 36.3676C109.413 36.7442 110.132 36.7838 110.722 36.9821L110.94 36.6203C110.652 36.318 110.395 35.986 110.087 35.7135C106.321 32.3834 101.871 30.2625 97.2627 28.4042C91.6581 26.1098 85.8553 24.093 80.2408 21.6499C74.6263 19.2069 69.8344 15.4804 66.7224 9.96502C66.6431 9.82627 66.5886 9.6776 66.3755 9.20188C66.7917 9.53389 66.99 9.6231 67.0891 9.78167C70.8453 15.5944 76.326 19.2267 82.555 21.8283C87.3816 23.8452 92.342 25.5449 97.1735 27.5568C102.545 29.7736 107.69 32.5052 112.535 35.7135C112.729 35.8473 112.947 35.9464 113.437 36.209C113.269 35.3269 113.155 34.6926 113.036 34.0583L113.204 33.9691C113.716 34.7664 114.18 35.5938 114.592 36.4469C114.716 36.7977 114.951 37.0987 115.261 37.3043C115.571 37.5099 115.94 37.609 116.311 37.5866C120.385 37.6609 124.478 37.9682 128.536 37.7303C132.223 37.5123 135.88 36.7045 139.547 36.1495C139.904 36.095 140.256 35.9761 140.945 35.8076C140.626 35.6715 140.294 35.5686 139.954 35.5004C133.234 35.3319 126.515 35.1485 119.79 35.0544C118.799 35.0544 117.808 35.4657 116.767 35.7035C119.691 30.8968 119.741 25.3863 119.012 19.7619L119.508 19.6331C119.839 20.0686 120.106 20.5492 120.301 21.0602C120.58 22.2618 120.768 23.4826 120.865 24.7124C120.93 25.5201 121.138 25.9067 122.01 25.9364C128.318 26.1445 134.622 26.3873 140.93 26.6153C141.109 26.5931 141.285 26.5533 141.455 26.4963C141.227 26.2387 141.074 26.0504 140.9 25.8819C140.786 25.7617 140.654 25.6598 140.509 25.5796C135.32 22.8591 131.416 18.7262 127.749 14.2614C123.735 9.36541 121.475 8.65183 114.106 11.6449C112.094 12.4576 110.405 14.0632 108.581 15.3218C107.694 15.9314 107.327 16.6697 108.001 17.7054C108.279 18.2501 108.506 18.819 108.68 19.4051C108.938 18.86 109.091 18.533 109.324 18.0473C111.222 20.3268 111.485 23.0523 112.035 25.6787C113.769 24.7867 114.513 25.0841 115.152 26.9622C116.034 29.5985 115.608 32.2199 115.068 34.8314L114.726 34.8661C114.673 34.4865 114.64 34.1044 114.627 33.7214C114.656 32.2793 114.711 30.8373 114.745 29.3953C114.774 29.1483 114.749 28.898 114.671 28.6619C114.304 27.8244 113.893 27.0117 113.497 26.1842L111.856 27.8987C110.751 25.2922 111.202 22.2545 109.666 19.6678C109.478 20.8868 109.295 22.1058 109.106 23.3249L108.928 23.3496L106.787 16.2287L106.292 16.2882L105.414 19.0979C104.522 17.8392 103.814 16.8481 103.184 15.9661C103.814 15.3813 104.29 14.975 104.745 14.4794C108.175 11.1196 112.119 8.67165 116.896 7.76481C120.068 7.1652 122.996 7.76481 125.434 9.95015C126.747 11.0794 127.942 12.3378 129.002 13.7064C131.926 17.664 135.677 20.9377 139.993 23.3001C143.19 25.089 146.069 27.314 147.625 30.7977C148.047 31.78 148.367 32.8028 148.581 33.8502C148.765 34.7026 149.156 35.0197 150.013 34.985C151.827 34.9107 153.641 34.8413 155.464 34.9008C159.986 35.0576 164.359 36.5567 168.026 39.207C171.991 41.997 173.477 45.9811 173.239 50.7086C172.977 56.2983 170.266 60.6195 166.232 64.2766C162.694 67.4638 158.447 69.7622 153.844 70.9813C152.66 71.2984 152.194 71.6998 152.328 73.0626C152.823 77.7355 151.52 82.022 149.126 86.0359C147.739 88.3699 146.485 90.7882 145.137 93.1469C144.642 93.9943 144.825 94.5196 145.633 95.0895C148.244 96.9626 150.945 98.7813 152.769 101.497C153.496 102.525 153.96 103.716 154.121 104.966C154.22 106.284 154.78 106.67 155.876 106.824C158.001 107.121 160.142 107.319 162.238 107.765C164.064 108.078 165.849 108.594 167.561 109.302C170.727 110.734 174.062 111.433 177.427 112.027C182.283 112.884 185.692 115.55 187.714 119.995C187.853 120.378 188.098 120.713 188.422 120.961C188.745 121.209 189.132 121.359 189.538 121.393C190.639 121.547 191.728 121.775 192.799 122.077C194.241 122.478 195.033 123.449 195.326 124.956C195.728 127.107 196.633 129.133 197.967 130.868C202.923 137.31 208.492 143.123 213.968 149.054C219.137 154.644 222.333 161.279 224.191 168.564C225.212 172.528 225.822 176.636 226.669 180.665C227.313 183.727 228.156 186.75 228.691 189.827C229.236 193.078 229.186 196.364 227.501 199.342C226.897 200.402 225.965 201.275 225.187 202.231L224.826 201.978C224.842 201.848 224.883 201.722 224.944 201.607C227.779 198.063 228.255 193.926 227.283 189.758C225.96 184.069 224.271 178.455 222.551 172.87C221.064 167.994 219.464 163.128 217.596 158.38C215.813 153.913 212.925 149.972 209.201 146.928C205.4 143.752 202.6 139.703 199.677 135.759C197.908 133.38 196.034 131.081 194.146 128.796C193.89 128.535 193.712 128.207 193.631 127.851C193.549 127.494 193.568 127.121 193.686 126.775C194.34 124.386 193.76 123.425 191.347 122.85C190.147 122.562 188.904 122.434 187.734 122.062C187.068 121.855 186.484 121.444 186.064 120.887C185.057 119.342 183.703 118.052 182.111 117.12C180.519 116.188 178.732 115.638 176.892 115.516C174.129 115.352 171.45 114.51 169.092 113.063C168.786 112.899 168.47 112.755 168.145 112.632C168.007 112.731 167.907 112.761 167.878 112.825C166.832 115.035 166.787 115.199 169.146 115.853C171.589 116.532 174.141 116.809 176.634 117.339C178.233 117.678 179.803 118.138 181.332 118.717C177.258 118.008 173.185 117.285 169.102 116.621C168.922 116.628 168.747 116.681 168.593 116.774C168.439 116.866 168.311 116.996 168.22 117.151C166.079 122.726 163.983 128.316 161.872 133.9C161.73 134.241 161.697 134.617 161.777 134.977C161.857 135.337 162.046 135.663 162.318 135.912C164.042 137.85 165.692 139.847 167.377 141.814C167.643 142.066 167.926 142.297 168.225 142.508C168.537 137.082 169.216 131.928 172.377 127.488C170.167 133.643 169.642 139.991 170.033 146.482C171.52 138.033 172.858 129.55 178.745 122.785L179.052 122.914C178.279 124.485 177.531 126.071 176.723 127.627C174.156 132.582 172.992 137.909 172.179 143.35C171.882 145.333 171.683 147.359 171.411 149.361C171.307 150.184 171.47 150.714 172.481 150.729C172.918 150.805 173.329 150.985 173.68 151.254C174.33 151.661 174.949 152.117 175.583 152.558L179.265 147.171L179.483 147.31C178.666 148.975 177.853 150.64 177.03 152.3C176.778 152.796 176.535 153.405 177.253 153.633C177.484 153.686 177.723 153.691 177.956 153.648C178.189 153.604 178.41 153.513 178.606 153.38C182.001 150.903 185.311 148.321 188.75 145.917C189.905 145.115 191.371 144.748 192.714 144.183L192.913 144.634C192.283 144.966 191.664 145.323 191.015 145.625C188.119 146.94 185.498 148.789 183.289 151.076C182.343 152.067 181.267 152.9 180.291 153.841C179.984 154.199 179.712 154.586 179.478 154.996C179.953 154.944 180.422 154.842 180.876 154.693C182.665 153.906 184.434 153.073 186.208 152.255L186.461 152.677L181.233 155.818C186.099 158.906 190.955 161.492 195.222 164.832C199.488 168.172 203.15 172.241 207.065 175.992L206.728 176.383C205.896 175.764 205.009 175.204 204.251 174.51C201.892 172.389 199.508 170.283 197.258 168.068C192.917 163.762 187.685 160.843 182.333 158.043C179.389 156.507 176.545 154.778 173.601 153.088C173.259 154.039 173.879 154.53 174.592 154.991C179.835 158.415 185.043 161.899 190.336 165.249C193.963 167.543 196.971 170.526 200.048 173.45C201.025 174.336 201.943 175.286 202.794 176.294C198.334 172.687 194.023 168.861 189.35 165.541C184.677 162.221 179.637 159.401 174.756 156.363L174.399 156.631C174.473 157.29 174.503 157.959 174.627 158.613C175.985 165.637 176.029 172.852 174.756 179.892C174.161 183.212 173.472 186.527 172.556 189.768C172.241 190.994 171.684 192.145 170.918 193.152C170.153 194.16 169.193 195.004 168.096 195.635C167.209 196.131 166.664 196.007 166.327 194.981C164.733 190.031 163.782 184.896 163.497 179.704C163.497 179.406 163.74 179.094 163.869 178.792C164.082 179.094 164.429 179.372 164.488 179.704C165.157 183.356 165.772 187.013 166.426 190.66C166.523 191.396 166.732 192.113 167.045 192.786C167.17 192.99 167.344 193.159 167.551 193.279C167.757 193.4 167.991 193.467 168.23 193.475C168.918 193.316 168.963 192.677 168.641 192.077C168.234 191.314 167.803 190.561 167.397 189.798C167.219 189.461 167.075 189.104 166.901 188.757L167.342 188.485L169.488 191.765C170.321 190.819 170.603 189.877 169.875 188.836C168.933 187.493 167.952 186.18 166.981 184.872C166.802 184.624 166.599 184.376 166.406 184.154L166.723 183.792C167.542 184.423 168.313 185.115 169.027 185.863C169.667 186.735 170.246 187.649 170.762 188.599L171.183 188.48C171.119 187.885 171.242 187.171 170.96 186.711C169.87 184.936 168.656 183.242 167.466 181.522C166.971 180.814 166.401 180.169 165.94 179.446C165.859 179.312 165.812 179.161 165.8 179.005C165.789 178.849 165.815 178.693 165.876 178.549C166.003 178.459 166.15 178.401 166.305 178.381C166.46 178.361 166.617 178.38 166.763 178.435C168.403 179.253 170.023 180.115 171.629 181.002C171.99 181.252 172.322 181.541 172.62 181.864L173.016 181.71C172.902 181.245 172.942 180.541 172.65 180.353C169.543 178.341 166.386 176.413 163.234 174.471C162.964 174.363 162.681 174.288 162.392 174.248V186.17C161.257 182.384 161.123 178.787 161.302 175.179C161.356 174.015 160.98 173.475 159.909 173.331C157.957 173.073 156.004 172.806 154.042 172.642C153.831 172.683 153.634 172.776 153.469 172.912C153.303 173.049 153.175 173.226 153.096 173.425C151.896 179.317 150.722 185.219 149.627 191.131C149.25 193.148 149.092 195.209 148.834 197.256C148.784 197.637 148.715 198.014 148.606 198.703L147.64 197.568L146.986 200.541L146.54 200.472C146.54 195.298 147.798 190.249 148.482 184.862C147.466 185.065 146.654 185.259 145.826 185.387C144.156 185.64 142.486 185.883 140.806 186.081C139.404 186.23 139.706 187.36 139.612 188.153C139.508 189.069 140.37 188.846 140.876 188.861C142.471 188.844 144.066 188.944 145.648 189.158C145.253 189.359 144.835 189.51 144.404 189.609C143.302 189.773 142.186 189.826 141.074 189.768C139.661 189.624 139.171 190.209 139.047 191.512C138.923 192.816 138.646 194.198 138.418 195.541C138.333 196.037 138.19 196.532 138.076 197.028L137.724 196.968C138.19 193.108 138.616 189.144 139.111 185.249C139.607 181.527 140.147 177.816 140.771 174.119C140.985 172.845 140.529 172.498 139.374 172.27C134.751 171.349 131.193 169.079 129.741 164.287C129.245 162.736 129.686 161.314 130.088 159.867H130.454C130.486 160.41 130.486 160.954 130.454 161.497C130.281 162.984 130.989 163.975 132.213 164.614C133.527 165.298 134.904 165.848 136.247 166.477C136.576 166.649 136.896 166.84 137.204 167.047L136.99 167.478L131.931 165.278C132.63 167.32 136.971 169.837 139.889 169.783L139.493 168.985C139.767 168.898 140.054 168.861 140.34 168.876C144.974 170.05 149.671 169.738 154.374 169.565C157.585 169.441 160.816 169.371 163.943 170.353C165.693 170.894 167.251 171.926 168.433 173.326C165.673 171.651 162.734 170.595 159.419 170.625C165.023 172.112 169.191 175.63 172.922 179.976C173.932 175.76 174.208 171.402 173.74 167.092C173.175 170.396 172.612 173.699 172.05 177.003L171.703 177.092C171.616 176.653 171.574 176.206 171.579 175.759C172.075 171.299 172.57 166.839 173.066 162.379C173.042 162.131 172.982 161.887 172.888 161.656C171.817 165.516 170.787 169.228 169.761 172.944L169.344 172.91C169.25 172.517 169.228 172.111 169.28 171.71C171.132 166.016 172.042 160.057 171.976 154.069C171.993 153.731 171.926 153.394 171.779 153.088C171.633 152.783 171.413 152.518 171.138 152.32C170.04 151.402 169.053 150.357 168.2 149.208C165.122 144.981 162.199 140.64 159.082 136.448C157.56 134.406 155.667 132.652 154.057 130.67C151.579 127.637 150.851 123.955 150.36 120.199C150.053 117.83 149.701 115.466 149.458 113.088C149.339 111.878 148.69 111.869 147.848 112.191C145.435 113.107 143.978 114.931 143.195 117.32C142.27 120.134 142.491 123.2 143.809 125.853C144.875 128.162 145.742 130.56 146.782 132.89C147.037 133.33 147.439 133.667 147.917 133.841C148.908 134.257 149.979 134.55 151.014 134.892L150.935 135.238C149.538 135.02 148.14 134.743 146.733 134.604C143.011 134.183 139.3 133.727 135.558 133.449C134.281 133.433 133.008 133.6 131.777 133.945C129.374 134.485 127.104 137.473 127.134 139.892C127.134 140.575 127.228 140.947 128.125 140.744C129.653 140.423 131.198 140.196 132.754 140.065C134.493 139.891 136.243 139.866 137.986 139.991C137.358 140.222 136.714 140.409 136.059 140.551C133.695 140.893 131.326 141.165 128.963 141.502C128.565 141.64 128.189 141.835 127.848 142.082L139.647 141.091C139.607 141.74 138.958 142.24 138.249 142.394C136.569 142.761 134.855 142.979 133.145 143.202C131.658 143.4 130.088 143.365 128.631 143.727C126.906 144.158 126.034 147.136 127.07 148.603C127.148 148.688 127.242 148.756 127.347 148.803C127.451 148.851 127.564 148.877 127.679 148.881C129.691 148.925 131.703 148.95 133.715 148.975C134.721 148.958 135.728 149.006 136.728 149.119C136.171 149.307 135.597 149.436 135.013 149.505C133.031 149.545 131.049 149.505 129.067 149.505C128.667 149.513 128.274 149.604 127.912 149.773C131.272 149.277 134.453 151.626 137.892 150.159C137.935 150.354 137.935 150.556 137.892 150.75C137.848 150.945 137.763 151.127 137.642 151.286C137.52 151.444 137.366 151.573 137.189 151.666C137.013 151.758 136.818 151.81 136.619 151.819C135.28 151.894 133.938 151.859 132.605 151.715C131.916 151.661 131.242 151.279 130.558 151.274C129.731 151.224 128.904 151.377 128.15 151.72C127.654 152.008 128.026 154.381 128.645 154.936C129.51 155.757 130.456 156.486 131.47 157.112C132.887 157.914 134.414 158.519 135.861 159.292C133.735 159.292 131.976 158.197 130.122 157.364C132.258 159.401 135.216 159.916 137.654 161.497C137.404 161.52 137.152 161.505 136.906 161.453C134.428 160.462 131.911 159.599 129.557 158.39C127.853 157.513 127.218 155.744 127 153.831C126.865 152.872 126.583 151.939 126.163 151.066C124.988 148.519 124.651 146.036 126.277 143.539C126.372 143.378 126.428 143.197 126.442 143.01C126.456 142.824 126.426 142.637 126.356 142.463C125.261 140.645 125.588 138.896 126.534 137.181C128.14 134.272 130.618 132.315 133.918 132.285C137.387 132.25 138.933 129.931 140.762 127.761C141.296 127.191 141.738 126.54 142.07 125.833C142.233 125.27 142.212 124.669 142.01 124.118C141.394 122.334 141.26 120.418 141.621 118.565C141.982 116.711 142.826 114.986 144.067 113.563C145.796 111.437 147.57 110.962 150.207 111.695C150.406 111.693 150.602 111.64 150.775 111.541C150.949 111.442 151.094 111.301 151.198 111.13C151.569 109.356 152.045 107.562 152.05 105.773C152.036 104.512 151.631 103.286 150.89 102.265C149.649 100.789 148.256 99.449 146.733 98.2659C146.474 98.1077 146.181 98.0135 145.879 97.9911C145.576 97.9687 145.273 98.0187 144.993 98.1371C143.753 98.9308 142.556 99.7893 141.406 100.709C140.415 101.442 140.469 102.315 141.143 103.464C143.229 101.801 145.706 100.699 148.338 100.263L148.482 100.6C147.412 101.16 146.331 101.71 145.266 102.28C143.69 103.122 143.561 103.583 144.329 105.313C145.816 105.045 147.303 104.777 148.789 104.53C148.913 104.53 149.062 104.658 149.399 104.832C147.783 105.327 146.356 105.788 144.939 106.244C144.29 106.452 143.814 106.779 144.141 107.562L147.318 107.349V107.582C146.326 107.934 145.335 108.231 144.399 108.662C143.956 108.867 143.595 109.216 143.378 109.654C141.49 114.336 137.714 117.052 133.413 119.153C129.899 120.873 126.247 122.315 122.734 124.029C117.03 126.819 112.981 131.249 110.345 137.008C110.256 137.206 110.201 137.429 110.008 137.999C114.532 134.173 118.432 129.976 124.746 130.04C124.706 129.297 124.666 128.598 124.632 127.899L125.038 127.81C125.315 128.672 125.593 129.53 125.905 130.506C119.627 130.635 115.499 134.396 111.579 138.281C110.366 139.439 109.414 140.841 108.786 142.395C108.158 143.95 107.869 145.62 107.937 147.295C108.105 153.94 107.991 160.59 106.638 167.117C106.017 170.059 105.241 172.967 104.314 175.828C102.595 181.245 101.837 186.829 101.044 192.424C100.925 193.281 100.712 194.124 100.548 194.971C100.523 195.075 100.414 195.16 100.082 195.254C100.082 194.758 100.053 194.263 100.082 193.767C100.6 186.604 101.972 179.529 104.171 172.692C105.465 168.429 106.284 164.037 106.614 159.594C106.673 159.015 106.614 158.43 106.44 157.875C105.831 161.051 105.365 164.262 104.572 167.394C103.125 173.147 101.41 178.831 99.9535 184.58C99.1012 187.935 98.5264 191.354 97.8276 194.743C97.7583 195.095 97.7087 195.457 97.6492 195.814L97.2429 195.863C97.1466 195.491 97.1049 195.107 97.119 194.723C98.0159 190.264 98.5511 185.724 99.9436 181.448C103.432 170.685 105.582 159.534 106.346 148.246C106.48 146.363 107.094 144.475 107.01 142.612C106.876 139.565 108.497 137.245 109.716 134.743C110.969 132.156 112.917 130.1 114.825 127.969C119.285 123.013 125.097 120.04 130.682 116.72C133.168 115.19 135.511 113.44 137.684 111.492C140.281 109.212 140.633 106.11 140.083 102.865C139.964 102.161 139.736 101.477 139.557 100.788L139.131 100.694C138.397 101.75 137.735 102.855 137.149 103.999C136.713 105.184 136.36 106.398 136.094 107.632L135.707 107.592C135.703 106.874 135.749 106.157 135.846 105.446C136.021 104.64 136.272 103.852 136.594 103.093C136.881 102.384 137.273 101.715 137.754 100.754C133.099 101.655 128.305 101.547 123.695 100.436C124.007 100.436 124.319 100.377 124.632 100.377C124.944 100.377 125.291 100.407 125.623 100.441C129.277 100.875 132.98 100.658 136.559 99.8021C139.78 98.9944 142.08 97.3244 143.423 94.0439C144.909 90.4462 146.956 87.0815 148.755 83.6127C151.53 78.2608 152.273 72.79 149.919 67.0516C149.092 65.0695 147.397 64.1081 145.653 63.3697C143.67 62.5224 141.475 62.1061 139.409 61.4173C138.338 61.0605 137.337 60.5105 136.302 60.0496L136.411 59.896ZM143.294 29.9404C143.031 28.3844 142.273 27.8888 141.099 27.8343L122.322 26.9622C120.811 26.8928 120.647 27.1009 120.796 29.0236H127V29.425C126.533 29.5173 126.062 29.5851 125.588 29.6282C124.191 29.6926 122.783 29.6926 121.386 29.7768C121.019 29.7768 120.449 29.9404 120.335 30.1931C119.77 31.3973 119.344 32.6708 118.814 33.989L140.801 34.4845L139.562 32.2397L139.82 32.0811C140.3 32.5707 140.719 33.1164 141.069 33.7065C141.614 34.9355 142.436 34.6976 143.571 34.3755C142.06 32.4429 142.288 29.0434 138.616 29.6034L140.826 29.0732L143.294 29.9404ZM140.211 184.976C142.808 184.738 145.415 184.53 148.011 184.208C148.309 184.173 148.67 183.529 148.76 183.113C149.032 181.785 149.176 180.432 149.389 179.089C149.528 178.257 149.701 177.434 149.884 176.369C149.479 176.534 149.063 176.675 148.641 176.79C146.956 177.107 145.266 177.602 143.566 177.652C140.989 177.726 141.039 177.597 140.593 180.219C140.415 181.304 140.781 181.611 141.787 181.646C143.908 181.72 146.034 181.948 148.071 180.903C147.769 181.398 147.437 181.844 147.025 181.943C145.299 182.41 143.54 182.742 141.763 182.934C140.211 183.073 140.033 183.078 140.211 184.976ZM158.507 114.718L158.19 115.243L161.951 121.447L161.708 121.735C160.003 121.566 158.487 120.149 156.574 120.699C158.125 122.637 159.592 124.47 161.079 126.319C161.161 126.183 161.236 126.042 161.302 125.897C162.655 122.671 164.022 119.455 165.316 116.205C165.341 115.995 165.312 115.782 165.231 115.587C165.15 115.392 165.021 115.22 164.855 115.09C163.259 114.227 161.624 113.439 159.964 112.721C159.758 112.689 159.547 112.708 159.35 112.776C159.153 112.844 158.976 112.96 158.834 113.112C158.249 113.91 158.804 114.198 159.538 114.455C160.781 114.886 161.986 115.446 163.21 115.942L163.066 116.234L158.507 114.718ZM152.848 123.033C153.314 122.538 153.616 122.339 153.74 122.042C155.132 118.935 156.515 115.818 157.833 112.676C157.865 112.468 157.842 112.255 157.768 112.058C157.693 111.861 157.569 111.686 157.407 111.551C156.083 110.998 154.728 110.523 153.348 110.129C153.166 110.111 152.982 110.14 152.814 110.213C152.646 110.286 152.499 110.4 152.387 110.545C151.768 111.973 150.717 113.34 151.564 115.06C151.677 115.455 151.735 115.863 151.738 116.274C152.085 118.42 152.441 120.55 152.848 123.033ZM143.358 107.498L142.808 107.002C142.129 107.404 141.287 107.661 140.796 108.226C139.438 109.797 138.482 111.824 136.896 113.073C133.849 115.481 130.454 117.478 127.233 119.644L125.325 120.927C125.425 121.006 125.544 121.058 125.67 121.078C125.796 121.098 125.924 121.085 126.044 121.041C129.24 119.554 132.456 118.068 135.618 116.487C137.917 115.337 140.078 113.9 141.416 111.646C142.138 110.299 142.787 108.915 143.358 107.498ZM152.774 172.677L149.612 172.845L150.271 173.425C149.696 173.534 149.31 173.648 148.918 173.678C146.703 173.841 144.493 174.025 142.273 174.109C141.386 174.144 141.282 174.604 141.237 175.293C141.193 175.982 141.376 176.364 142.07 176.364C143.789 176.364 145.539 176.532 147.233 176.279C150.112 175.848 150.098 175.739 150.955 173.227H151.267L151.004 177.251L151.158 177.305L152.774 172.677ZM145.479 133.033C144.861 130.731 143.964 128.512 142.808 126.428L138.428 131.943L145.479 133.033ZM160.672 108.96C160.347 109.48 160.073 110.031 159.855 110.605C159.829 110.788 159.849 110.974 159.913 111.147C159.977 111.32 160.083 111.474 160.222 111.596C161.976 112.587 163.735 113.578 165.573 114.386C166.713 114.881 166.683 113.469 167.263 113.013C167.265 112.829 167.23 112.647 167.16 112.477C167.091 112.306 166.987 112.152 166.857 112.022C165.093 111.061 163.284 110.184 161.485 109.282C161.317 109.178 161.114 109.123 160.687 108.96H160.672ZM167.957 116.66C166.926 115.724 166.634 115.714 166.247 116.789C164.265 122.267 162.318 127.757 160.405 133.261C160.326 133.484 160.559 133.811 160.643 134.094L160.98 134.014C162.62 127.969 164.681 122.107 167.972 116.66H167.957ZM118.898 8.88969L118.854 8.60227C118.141 8.55766 117.426 8.55766 116.713 8.60227C112.798 9.09782 109.775 11.2435 107.094 13.9492C106.817 14.2316 106.876 14.8412 106.777 15.2971C107.192 15.2342 107.592 15.0947 107.957 14.8858C110.865 12.2346 114.022 10.0691 117.962 9.26135C118.293 9.16903 118.615 9.04456 118.923 8.88969H118.898ZM171.817 185.6C173.007 183.465 172.888 182.677 170.99 181.25C170.229 180.694 169.427 180.197 168.591 179.763C168.064 179.526 167.521 179.326 166.966 179.163L166.807 179.451L171.817 185.6ZM153.175 109.059C154.889 109.614 156.53 110.238 158.229 110.62C158.527 110.684 159.107 109.772 159.429 109.237C159.498 109.123 159.062 108.504 158.765 108.41C157.437 107.989 156.089 107.637 154.726 107.354C154.535 107.346 154.344 107.381 154.167 107.455C153.991 107.53 153.833 107.643 153.705 107.785C153.466 108.181 153.287 108.61 153.175 109.059ZM155.747 124.837L155.355 125.243L159.508 130.59L160.033 130.466C160.033 129.758 160.385 128.742 160.033 128.405C158.668 127.141 157.237 125.951 155.747 124.837ZM156.242 119.53L160.355 120.278C159.394 118.742 158.611 117.498 157.635 115.947L156.242 119.53ZM142.427 30.4508C142.957 31.5955 143.537 32.7154 143.997 33.8849C144.389 34.876 144.989 34.9156 145.806 34.5341C144.686 31.1396 144.027 30.0296 142.427 30.4508ZM155.618 121.571C155.122 122.245 154.627 122.751 155.311 123.286C156.227 123.99 157.253 124.555 158.234 125.179L158.477 124.936C157.575 123.881 156.678 122.82 155.618 121.571ZM141.644 106.279C143.467 105.922 143.745 105.417 143.071 103.801C141.589 104.312 141.401 104.594 141.644 106.279ZM146.693 34.4498L147.035 34.3408C146.906 33.2407 146.688 32.1802 145.836 31.3675L145.439 31.5261C145.861 32.5122 146.277 33.4835 146.693 34.4498ZM143.631 28.2258L143.259 28.6222L144.805 30.2674L145.182 29.9106L143.631 28.2258Z" fill="#AC6719"/>
<path d="M78.4573 192.276C78.3631 190.15 78.269 188.019 78.1699 185.833C76.1629 186.671 74.2848 187.414 72.4513 188.257C72.2134 188.361 72.1391 188.955 72.0995 189.337C71.8913 191.369 71.7129 193.405 71.5296 195.442H71.2174C71.2174 194.243 71.2174 193.039 71.2174 191.839C71.1877 188.95 71.1331 186.066 71.1282 183.177C71.1282 182.216 70.821 181.919 69.7902 182.028C65.7714 182.449 61.7525 182.89 57.7188 183.053C55.618 183.074 53.5216 182.857 51.47 182.404C49.9041 182.107 50.3154 183.296 50.028 183.95C49.6464 184.827 50.1419 185.179 50.9497 185.189C53.7445 185.239 56.5394 185.298 59.3343 185.283C60.7466 185.283 62.1589 185.105 63.591 185.169C61.8376 186.499 59.7103 187.243 57.5107 187.295C55.3005 187.404 54.1905 188.232 53.1003 190.244C49.9437 196.066 44.8198 199.362 38.234 200.333C37.8566 200.387 37.4718 200.316 37.1389 200.13C43.908 197.836 50.1469 194.932 53.6454 187.741C51.8664 187.647 50.3055 187.528 48.7445 187.518C48.4918 187.518 48.2093 187.984 47.9913 188.276C44.3837 193.168 39.4233 196.131 33.8584 198.237C33.6682 198.28 33.4687 198.246 33.3034 198.143C38.675 195.462 44.2846 193.113 47.3173 187.404C45.4739 186.369 44.8743 186.443 43.6553 187.806C40.9496 190.829 37.7583 193.108 33.7097 193.866C30.0229 194.56 26.3905 194.144 23.2537 192.013C20.3914 190.072 17.66 187.945 15.0773 185.645C11.3855 182.355 10.0425 177.915 9.65601 173.133C9.4677 170.754 9.37355 168.361 9.22985 165.977C9.22987 165.339 9.1018 164.707 8.85323 164.119C8.71448 165.209 8.51131 166.294 8.45184 167.389C8.28336 170.511 8.04054 173.638 8.07523 176.76C8.10105 178.876 8.55924 180.963 9.42166 182.895C10.2841 184.827 11.5325 186.562 13.0901 187.994C16.6234 191.384 20.439 194.481 24.1259 197.712C24.8414 198.3 25.4543 199.004 25.9396 199.793C25.7067 199.748 25.4143 199.793 25.2409 199.644C19.9336 195.586 14.6164 191.537 10.657 186.027C7.90674 182.191 6.47462 177.999 7.03954 173.257C7.66888 167.984 8.3676 162.716 9.02172 157.444C9.04782 157.252 9.03305 157.057 8.97839 156.872C8.92372 156.687 8.8304 156.515 8.70457 156.368C7.16838 155.253 7.0445 153.658 7.21794 152.032C7.38642 150.62 7.13865 149.693 5.75608 148.935C4.13064 148.062 2.9108 146.587 2.35666 144.827C2.09897 143.995 1.90076 142.949 2.18322 142.186C2.59452 141.076 2.27737 140.308 1.72732 139.461C1.37052 138.905 1.03851 138.336 0.736229 137.751C-0.428299 135.501 -0.254858 133.905 1.56874 132.166C2.75309 131.041 4.17035 130.159 5.42903 129.099C5.92601 128.707 6.3149 128.196 6.55887 127.612C7.74321 124.237 9.78485 121.413 12.1238 118.781C12.5788 118.296 13.1637 117.952 13.8087 117.79C17.0941 116.978 19.9633 115.248 22.9465 113.762C23.8973 113.275 24.8931 112.882 25.9198 112.587C27.7979 112.067 28.7741 112.954 28.561 114.887C28.5263 115.169 28.4668 115.451 28.3925 115.878H29.3836C31.1527 115.848 32.9218 115.734 34.681 115.808C35.6721 115.848 35.9198 115.536 36.0734 114.604C36.2667 113.449 36.906 112.369 37.0645 111.219C37.2341 109.809 37.2971 108.388 37.2528 106.968C37.2528 106.779 36.896 106.542 36.6631 106.398C33.343 104.386 31.9406 101.358 32.342 97.6069C32.8821 92.5177 35.2211 88.5285 40.0774 86.3928C42.4164 85.362 44.7901 85.8625 47.0844 86.6603C49.9824 87.7421 53.0604 88.2601 56.1529 88.1866C59.4086 88.0528 61.7922 89.9656 62.4066 92.7704C62.1589 92.3938 61.9408 92.1113 61.7723 91.8041C60.7812 90.0152 59.2946 89.3264 57.2827 89.3759C55.0729 89.4587 52.86 89.4024 50.6573 89.2074C49.2351 89.0786 47.8624 88.5038 46.4501 88.2164C44.2714 87.7498 41.9975 88.0886 40.0495 89.1701C38.1014 90.2517 36.6114 92.0025 35.8554 94.0985C34.9089 96.8339 35.5729 101.244 37.0497 102.602V100.268L37.3916 100.154C37.5601 100.407 37.8871 100.65 37.8871 100.917C37.9615 104.004 38.1101 107.092 37.9912 110.169C37.8387 112.01 37.5219 113.835 37.0447 115.62C36.9445 115.812 36.8017 115.978 36.6274 116.106C36.453 116.234 36.2517 116.32 36.0388 116.358C33.9872 116.581 31.9307 116.69 29.8742 116.854C26.4748 117.116 24.1308 118.871 23.2934 122.201C23.6855 121.955 24.0509 121.67 24.3836 121.348C26.4203 118.93 29.1011 118.266 32.124 118.454C29.6809 119.104 26.9802 119.317 25.6819 122.458C27.0446 122.458 28.1993 122.543 29.3291 122.458C31.6135 122.245 33.8782 121.849 36.1626 121.69C36.4223 121.651 36.6876 121.669 36.9394 121.744C37.1913 121.818 37.4236 121.948 37.6199 122.122C37.8162 122.297 37.9717 122.512 38.0753 122.754C38.1788 122.995 38.2279 123.256 38.2191 123.519C38.3183 125.08 38.5214 126.636 38.5313 128.197C38.5313 134.143 38.5313 140.09 38.4917 146.002C38.4917 146.745 38.4372 147.488 38.4917 148.227C38.5809 150.209 38.1349 151.695 36.0635 152.582C34.8891 153.078 34.0169 154.337 33.0903 155.308C32.9713 155.432 33.0903 156.017 33.2885 156.2C33.852 156.743 34.4754 157.22 35.1468 157.622C36.4947 158.4 37.897 159.109 39.5026 159.936C39.5373 159.233 39.5868 158.698 39.5819 158.157C39.4795 149.872 39.3738 141.586 39.2647 133.301C39.2463 132.767 39.2929 132.233 39.4035 131.71C39.4481 131.502 39.7752 131.363 39.9734 131.19C40.1369 131.393 40.3748 131.571 40.4689 131.804C40.5164 132.088 40.5264 132.376 40.4986 132.662C40.677 142.35 40.8158 152.042 41.0636 161.73C41.1772 163.778 41.4155 165.817 41.7771 167.835C41.8993 168.385 42.1565 168.896 42.5254 169.322C43.0953 162.88 42.1488 156.477 42.0001 150.07L42.3867 150.011C42.5302 150.692 42.6378 151.38 42.7088 152.072C43.0309 158.083 43.3084 164.099 43.6503 170.105C43.68 170.6 44.1012 171.041 44.3342 171.507C44.8 171.175 45.5185 170.932 45.6721 170.486C46.1082 169.262 46.5889 167.944 46.5542 166.676C46.4253 162.107 46.014 157.543 45.8604 152.974C45.6127 145.595 45.4789 138.217 45.3005 130.833C45.3082 130.606 45.328 130.379 45.3599 130.154H45.7019C45.8307 131.854 45.9942 133.549 46.0884 135.253C46.5839 144.763 47.134 154.272 47.6047 163.787C47.7015 165.633 47.6451 167.485 47.4363 169.322C47.243 170.972 46.5492 172.424 44.577 172.731C44.3193 172.771 43.8882 173.262 43.9377 173.41C44.0493 173.94 44.3312 174.419 44.7405 174.773C47.0156 176.136 49.5936 176.912 52.243 177.033C53.0508 177.062 53.8535 177.112 54.6613 177.152V177.588L49.9635 178.024L49.8793 178.376C51.2619 178.712 52.6494 179.367 54.027 179.327C57.6094 179.341 61.1881 179.097 64.7357 178.599C69.4037 177.835 74.0023 176.616 78.6109 175.526C79.2554 175.309 79.7994 174.865 80.1421 174.277C82.2829 170.63 82.828 166.577 82.714 162.464C82.5158 155.169 82.0401 147.88 81.8369 140.585C81.6238 132.795 81.599 125.006 81.4999 117.211C81.4836 116.755 81.6082 116.305 81.8567 115.922L82.3076 116.988C82.5703 116.051 82.8032 115.293 83.0064 114.535C83.0064 114.505 83.155 114.505 83.4276 114.46C83.7745 116.869 84.1213 119.277 84.493 121.824L86.1233 120.764C86.3437 121.173 86.4219 121.643 86.3457 122.102C86.2694 122.56 86.0431 122.98 85.7021 123.296C84.3691 124.783 84.8201 126.418 85.276 128.217L88.3087 123.37C89.2651 124.416 88.8885 125.278 88.5664 126.016C87.8974 127.567 87.3176 129.218 86.3166 130.541C84.6962 132.681 85.494 134.926 85.3652 137.478C85.6586 137.275 85.9324 137.044 86.1828 136.79C88.5519 133.655 90.3609 130.134 91.5297 126.383C91.5644 126.264 91.5545 126.111 91.6288 126.031C91.9311 125.709 92.2532 125.407 92.5704 125.1C92.7573 125.51 92.873 125.949 92.9123 126.398C92.8183 127.134 92.6524 127.86 92.4167 128.564C91.0993 133.213 88.9777 137.595 86.1481 141.512C85.7658 142.17 85.593 142.929 85.6526 143.687C85.831 151.066 86.1085 158.445 86.2571 165.823C86.3166 168.678 85.94 171.492 84.5971 174.104C83.5703 176.191 81.9269 177.912 79.8894 179.035C79.5017 179.207 79.1809 179.501 78.976 179.872C78.7711 180.243 78.6933 180.671 78.7546 181.091C78.8388 183.896 78.824 186.701 78.8141 189.515C78.8141 190.447 78.71 191.379 78.6555 192.315L78.4573 192.276ZM19.4083 184.684C14.7304 181.314 12.6243 176.458 12.0396 170.957C11.6134 166.953 11.6828 162.895 11.544 158.861C11.5044 157.597 11.0832 157.176 9.69566 157.251C9.86638 158.091 9.99374 158.939 10.0772 159.793C10.2804 163.663 10.3894 167.538 10.6174 171.408C10.8651 175.511 11.3111 179.654 13.992 182.984C17.2279 187.003 21.1229 190.338 25.8851 192.474C30.3152 194.456 34.6314 194.164 38.6007 191.17C40.4692 189.783 42.0525 188.048 43.2638 186.061C42.5353 185.665 41.9109 185.358 41.3163 185.001C39.4184 183.871 37.8475 182.429 37.3519 180.179C37.3189 179.876 37.3552 179.568 37.4582 179.281C37.5612 178.993 37.7282 178.733 37.9466 178.519C38.1944 178.311 39.1012 178.599 39.4977 178.926C40.6473 179.857 41.6334 180.992 42.7881 181.899C44.9982 183.663 45.0279 183.628 46.4303 181.151C46.465 181.091 46.4303 180.997 46.4303 180.734C45.3302 180.135 44.1855 179.396 42.9615 178.866C41.4749 178.217 40.5432 177.221 40.3599 175.576C40.0774 172.999 39.7752 170.422 39.5076 167.845C39.2994 165.833 39.1309 163.821 38.9278 161.814C38.8804 161.388 38.7231 160.981 38.4712 160.633C38.2192 160.286 37.8814 160.01 37.4907 159.832C35.8703 158.886 34.3688 157.736 32.8128 156.681C32.7285 156.621 32.5947 156.641 32.4857 156.621C31.2072 160.001 27.5303 163.192 25.1219 163.063C26.4281 162.324 27.6905 161.51 28.9029 160.625C30.2056 159.626 31.0748 158.164 31.3311 156.542C27.7632 158.712 24.3142 160.442 20.4886 161.359C22.1969 160.164 23.9722 159.069 25.8058 158.078C28.779 156.448 31.8365 154.986 34.23 152.498C34.5835 152.092 34.9144 151.667 35.2211 151.225C32.01 153.133 29.0466 155.288 25.5481 156.512C25.8371 156.08 26.2178 155.716 26.6631 155.447C28.1497 154.545 29.6859 153.742 31.123 152.761C32.5344 151.771 33.8847 150.697 35.1666 149.545C35.3439 149.36 35.476 149.137 35.5525 148.893C35.6291 148.649 35.6479 148.39 35.6076 148.137C35.2842 147.253 34.8707 146.405 34.3737 145.605C34.0615 145.05 33.6552 145.11 33.3281 145.605C31.9406 147.741 29.7404 148.633 27.5352 149.619C24.7949 150.843 21.5045 151.472 20.5679 155.169C20.362 154.732 20.3012 154.241 20.3944 153.767C20.8503 152.166 22.1388 151.289 23.4916 150.571C25.4738 149.525 27.565 148.737 29.4381 147.573C30.6522 146.824 31.6086 145.635 32.6046 144.599C32.8673 144.317 32.8475 143.772 32.9565 143.346C29.6095 146.431 25.6181 148.733 21.2716 150.085C21.5904 149.646 21.9971 149.278 22.4658 149.005C24.1854 148.014 25.9346 147.092 27.6393 146.106C29.6908 144.926 31.6036 143.569 32.9366 141.552C33.2042 141.14 33.0903 140.481 33.1547 139.931C32.6988 139.931 32.1636 139.728 31.7969 139.892C27.8672 141.576 23.9871 143.39 20.0277 145.006C18.2285 145.665 16.3813 146.185 14.5024 146.562C14.0812 146.666 13.5659 146.358 13.1 146.244C13.2545 145.983 13.4968 145.784 13.7839 145.685C16.8018 144.475 19.8196 143.281 22.8325 142.057C25.5382 140.962 28.2092 139.778 30.9396 138.757C32.3618 138.222 32.8821 137.652 32.7929 135.64L16.5242 142.86C16.7176 142.477 17.0333 142.17 17.4212 141.988C22.2527 139.391 27.119 136.854 32.3717 135.209C32.7335 135.1 33.3628 134.713 33.3034 134.55C33.1492 133.608 32.8552 132.694 32.4312 131.839C32.005 131.081 31.3806 130.308 30.2458 130.635C28.898 131.021 27.5005 131.264 26.2072 131.78C22.0347 133.44 17.9118 135.214 13.7492 136.899C12.4955 137.394 11.1773 137.771 9.88892 138.197L9.75512 137.88C9.9538 137.69 10.1732 137.524 10.4092 137.384C16.9752 134.446 23.2438 130.754 30.4342 129.351C30.973 129.228 31.4444 128.904 31.7523 128.445C32.9466 126.418 32.456 125.045 30.1418 124.441C25.34 123.182 20.4737 123.083 15.771 124.857C11.1947 126.541 6.91578 128.943 3.09502 131.973C0.359616 134.193 0.255551 135.407 1.84625 138.45C2.36657 139.441 2.87202 140.61 2.83733 141.681C2.74814 144.381 3.82842 146.309 6.09305 147.627C7.60942 148.489 8.37751 149.609 8.12478 151.438C7.78781 153.916 8.82845 155.516 11.2665 156.329C12.0495 156.591 13.0009 157.28 13.2487 157.994C13.8731 159.733 14.3488 161.463 15.9346 162.682C13.9127 162.474 13.5411 160.615 12.6491 159.287C12.55 163.034 12.3419 166.72 12.5995 170.338C12.9662 175.6 14.9534 180.249 18.883 183.926C19.0749 184.17 19.2316 184.44 19.3488 184.728L19.4083 184.684ZM37.8723 148.787C37.9316 148.378 37.9581 147.965 37.9516 147.553C37.6691 145.075 37.1884 142.597 37.0992 140.09C36.9357 135.402 37.0397 130.704 36.9357 126.011C36.8465 121.859 37.4312 122.637 33.3083 122.543C32.3698 122.591 31.4368 122.715 30.5184 122.914V123.281C30.8504 123.499 31.1923 123.702 31.5095 123.935C33.2835 125.199 34.7702 127.577 32.6641 129.654C32.0794 130.229 32.6641 130.501 33.0159 130.803C34.4282 131.953 35.4342 133.554 34.9089 135.219C34.1904 137.508 34.4134 139.708 34.5373 141.968C34.4999 142.335 34.4386 142.699 34.3539 143.058C34.2993 143.335 34.3286 143.621 34.4381 143.881C35.5432 145.462 36.6185 147.022 37.8723 148.787ZM8.33291 126.869L8.61042 127.131C8.94243 126.978 9.2794 126.834 9.6015 126.671C13.2487 124.872 16.7918 122.825 20.9197 122.211C21.126 122.146 21.317 122.04 21.4814 121.899C21.6457 121.759 21.78 121.587 21.8761 121.393C22.9861 119.297 24.4282 117.582 26.668 116.606C27.0959 116.377 27.4215 115.995 27.5798 115.536C27.7384 115.04 27.8375 114.193 27.5798 113.955C27.2181 113.648 26.4649 113.682 25.8999 113.747C25.3789 113.847 24.8772 114.029 24.4133 114.287C21.5144 115.665 18.6997 117.26 15.7066 118.39C11.5639 119.941 10.3845 123.732 8.33291 126.869ZM77.4959 185.506C77.2779 185.08 77.2333 184.842 77.1243 184.808C75.6773 184.386 74.2303 183.975 72.7635 183.628C72.6099 183.594 72.1837 183.995 72.1738 184.208C72.1094 185.254 72.1441 186.304 72.1441 187.677L77.4959 185.506ZM77.9915 183.901C77.9915 182.865 78.0212 181.815 77.9568 180.769C77.9568 180.596 77.4612 180.273 77.3076 180.318C75.4764 180.805 73.8073 181.769 72.4711 183.113L77.9915 183.901ZM41.4154 176.141C42.6443 175.645 43.5116 175.045 43.0111 173.807C42.3867 172.27 41.5641 170.833 40.8257 169.347L40.4342 169.49L41.4154 176.141ZM46.4799 183.851C46.8218 184.04 47.0596 184.268 47.3074 184.282C47.7237 184.307 48.4868 184.253 48.5066 184.129C48.6043 183.325 48.6473 182.515 48.6355 181.706C48.2539 181.755 47.689 181.671 47.5205 181.889C47.1226 182.512 46.7794 183.169 46.4947 183.851H46.4799Z" fill="#AC6719"/>
<path d="M111.787 129.237C111.401 127.424 111.188 125.907 110.746 124.46C110.008 122.037 108.303 120.303 106.351 118.786C104.399 117.27 102.496 115.813 100.637 114.257C99.2647 113.098 98.4223 111.571 97.6939 109.906C97.1398 108.864 96.3057 107.997 95.2855 107.404C94.1953 106.705 92.8871 106.343 91.6532 105.892C90.4193 105.441 90.4738 106.611 90.1913 107.216C89.7949 108.043 90.568 108.008 91.0437 108.162C92.2776 108.553 93.5214 108.955 95.008 109.431L91.8911 110.377L95.0526 111.616C92.3222 111.685 89.4778 110.625 87.3321 113.326C87.7203 113.295 88.1024 113.21 88.4669 113.073C89.5967 112.444 90.449 112.78 91.3757 113.568C91.7325 113.866 92.3668 113.871 92.8623 113.97C93.3997 114.021 93.9234 114.169 94.4084 114.406L89.8544 114.936C90.5779 116.75 92.1388 117.116 93.4272 117.825C93.6132 117.916 93.8096 117.985 94.012 118.028C100.385 119.708 103.948 124.589 107.293 129.713C107.464 129.98 107.535 130.3 107.491 130.615C106.242 129.014 105.013 127.369 103.725 125.808C101.08 122.558 97.5754 120.115 93.6106 118.757C92.3323 118.303 91.1244 117.67 90.0229 116.879C89.3801 116.378 88.8964 115.701 88.6304 114.931C88.343 114.163 88.011 113.985 87.2726 114.153C86.405 114.37 85.5086 114.449 84.6165 114.386C86.576 112.233 89.0303 110.59 91.7672 109.599C91.349 109.197 90.7913 108.972 90.2112 108.972C89.631 108.972 89.0733 109.197 88.6552 109.599C88.0608 110.131 87.3693 110.544 86.6185 110.813C89.8395 106.849 89.4183 103.157 86.2419 99.5396L83.115 102.325L82.7384 101.997C82.8418 101.738 82.9838 101.496 83.1596 101.279C85.9743 98.7665 86.2369 94.9062 84.4629 91.6555C82.7433 88.5088 80.2458 86.2937 76.658 85.5157C75.3856 85.2121 74.056 85.2463 72.8009 85.6149C71.5458 85.9834 70.4087 86.6735 69.5024 87.6168C68.7839 88.3155 68.2388 88.4542 67.3963 87.82C65.3547 86.2887 62.9364 85.9518 60.4587 85.9864C58.8086 86.0162 57.1584 86.1252 55.5033 86.1351C55.1762 86.1351 54.8492 85.8576 54.5122 85.7089C54.7848 85.5058 55.0078 85.1886 55.3348 85.1192C58.3463 84.3583 61.5078 84.4285 64.4825 85.3224C64.9971 85.5138 65.5649 85.505 66.0732 85.2976C69.7155 83.0726 73.5559 83.147 77.4014 84.4354C82.7582 86.2243 85.6423 90.2283 86.7424 95.6149C86.9241 96.5199 87.4211 97.3312 88.1447 97.9043C89.4183 99.044 90.3846 100.521 91.5491 101.943C93.566 100.501 95.8901 98.9251 98.7048 98.4147L98.903 98.707C98.6304 98.9647 98.3728 99.2472 98.0754 99.4801C97.7781 99.713 97.461 99.8666 96.8911 100.213L99.0318 102.037C98.9575 102.756 98.8683 103.816 98.7494 104.872C98.2935 108.93 99.4332 112.349 102.714 114.946C104.522 116.383 106.321 117.83 108.085 119.322C109.351 120.328 110.358 121.622 111.021 123.096C111.685 124.57 111.987 126.181 111.901 127.795C111.926 128.192 111.857 128.583 111.787 129.237ZM97.4164 108.425C97.788 105.853 97.4907 105.258 95.3747 104.168C94.7841 103.88 94.1729 103.637 93.5462 103.439C92.005 102.904 91.8811 102.944 91.0982 104.663C93.4471 105.516 95.905 106.19 97.4263 108.444L97.4164 108.425ZM97.6294 104.46C98.5512 102.701 98.4421 102.29 96.7226 101.056C95.7959 100.392 94.8643 100.674 93.6205 102.002L97.6294 104.46Z" fill="#AC6719"/>
<path d="M59.0174 123.157C52.1591 123.717 45.7715 123.365 39.6218 121.086L39.5723 120.709C39.825 120.63 40.1025 120.432 40.3156 120.481C48.1402 122.439 56.0986 122.255 64.062 121.998C64.174 121.999 64.2839 122.028 64.3822 122.082C64.4806 122.135 64.5646 122.212 64.6269 122.305L62.4961 122.8C64.7112 124.921 64.1562 127.488 64.1909 129.976C64.2999 138.465 64.4832 146.948 64.6319 155.437C64.6616 157.211 64.6963 158.985 64.6914 160.754C64.6994 161.418 64.5518 162.075 64.2602 162.672C64.1066 160.016 63.8886 157.36 63.8192 154.699C63.6606 148.519 63.5913 142.335 63.4575 136.15C63.393 133.142 63.284 130.134 63.17 127.131C63.1731 126.643 63.077 126.159 62.8876 125.709C61.6785 123.266 59.9143 123.137 58.4822 125.447C57.3735 127.095 56.8261 129.057 56.9212 131.041C57.3127 136.988 57.5109 142.9 57.9371 148.821C58.1898 152.355 58.839 155.858 59.0917 159.386C59.3246 162.711 59.285 166.051 59.3048 169.386C59.3048 169.738 58.9133 170.095 58.7002 170.452C58.4607 170.13 58.2826 169.768 58.175 169.381C57.8826 164.495 57.838 159.58 57.3177 154.713C56.654 148.11 56.3909 141.472 56.5298 134.837C56.5298 133.722 56.5645 132.607 56.5793 131.497C56.619 128.613 56.7676 125.779 59.0174 123.157Z" fill="#AC6719"/>
<path d="M72.2134 170.491C69.1361 170.075 68.368 168.014 67.9518 165.873C67.4654 163.491 67.1754 161.073 67.0846 158.643C66.8368 149.124 66.7129 139.604 66.5494 130.085C66.5113 129.84 66.5334 129.59 66.6138 129.356C66.7995 129.124 67.0182 128.921 67.263 128.752C67.4314 128.955 67.6941 129.133 67.7585 129.361C67.8116 129.729 67.8249 130.101 67.7981 130.471C67.9964 140.486 68.1252 150.506 68.4523 160.516C68.5266 162.731 69.2154 164.976 69.8249 167.117C70.0925 168.053 70.7615 169.163 71.9756 169.015C73.1897 168.866 73.4622 167.553 73.5365 166.606C73.8275 164.243 73.9137 161.859 73.7942 159.48C72.9064 148.624 72.6103 137.728 72.9072 126.839C73.0013 127.855 73.1104 128.866 73.1946 129.877C73.2789 130.888 73.3829 132.012 73.4374 133.083C73.824 140.823 74.2055 148.565 74.5821 156.309C74.7308 159.357 74.9439 162.399 74.9687 165.447C74.9687 167.241 74.5574 168.95 72.8973 170.105C72.5256 170.368 72.4414 171.037 72.2233 171.517C71.8828 172.35 71.4973 173.164 71.0687 173.955C70.9151 174.208 70.3948 174.248 70.043 174.386C70.0339 174.011 70.0978 173.637 70.2313 173.286C70.7664 172.419 71.4107 171.592 72.2134 170.491Z" fill="#AC6719"/>
<path d="M73.6998 106.467C73.9277 107.741 74.1953 109.009 74.3936 110.288C74.6265 111.67 74.8594 113.053 75.0427 114.441C75.1864 115.496 75.4639 116.299 76.7969 115.893C76.9176 115.869 77.0424 115.877 77.1587 115.917C77.2281 115.917 77.2776 116.006 77.342 116.061C75.5779 117.161 75.5085 117.171 75.9 119.47C76.7028 124.223 77.679 128.95 78.3777 133.717C78.6354 135.471 78.3777 137.315 78.2241 139.104C78.1696 139.748 77.679 140.348 77.3866 140.967L77.0051 140.858C76.9704 140.61 76.8316 140.318 76.9109 140.12C77.9813 137.592 77.6493 134.991 77.2033 132.439C76.3956 127.771 75.4045 123.137 74.5373 118.479C74.3539 117.488 73.8881 117.528 73.1349 117.781C68.3716 119.406 63.4273 120.443 58.4123 120.868C52.6689 121.329 47.0445 120.813 41.658 118.648C41.1277 118.435 40.7313 117.895 40.2754 117.508C40.8708 117.465 41.4693 117.504 42.0544 117.622C47.5054 119.495 53.1347 119.802 58.7889 119.039C63.4767 118.405 68.115 117.384 72.788 116.601C73.898 116.413 74.0021 115.932 73.8782 114.916C73.5611 112.305 73.3827 109.678 73.1943 107.052C73.2065 106.861 73.2448 106.673 73.3083 106.492L73.6998 106.467Z" fill="#AC6719"/>
<path d="M99.6512 98.2115C98.6601 94.4007 97.7136 90.59 96.7077 86.7892C96.336 85.4017 95.8653 84.0389 95.3994 82.6762C95.3373 82.5805 95.2558 82.4989 95.1602 82.4366C95.0646 82.3743 94.9571 82.3327 94.8444 82.3144C93.4966 82.0667 92.1437 81.8536 90.6918 81.6058C91.0981 84.4205 92.8424 86.2342 95.6472 87.1807L95.5481 87.4879C95.0668 87.4603 94.59 87.3805 94.1259 87.2501C90.8999 85.9765 89.4678 83.3353 89.2795 80.1093C89.1328 77.9347 88.4036 75.8396 87.1685 74.0438C85.1367 70.8971 84.9782 67.7455 87.2725 64.6285C87.4165 64.2911 87.4358 63.9134 87.327 63.5631C87.1592 62.9289 86.9591 62.3037 86.7274 61.6899L87.882 62.1855V58.568H87.996C88.1794 59.7424 88.3231 60.9268 88.5609 62.0913C88.7592 63.0824 89.329 63.459 90.3746 63.0824C90.9665 62.9358 91.5736 62.8593 92.1834 62.8544C91.3955 61.5462 89.7948 60.7682 90.2408 59.009C90.667 60.6493 92.0099 61.3975 93.2389 62.2747C93.4608 62.4882 93.6496 62.7337 93.7988 63.0031C93.5507 63.1846 93.2789 63.3313 92.9911 63.4392C92.1883 63.6275 91.3707 63.7464 90.5629 63.9C87.7829 64.3956 86.3161 66.0606 86.4797 68.8902C86.604 70.2749 86.9713 71.627 87.5649 72.8842C88.447 74.8664 89.5471 76.7495 90.5382 78.692C91.0904 79.8587 92.0696 80.7688 93.2736 81.2342C94.0912 81.5513 94.6115 81.3878 94.785 80.4314C94.9273 79.8573 95.106 79.2929 95.3202 78.7416H95.7661C95.8925 79.0928 95.9886 79.4542 96.0536 79.8219C96.0667 80.689 96.1329 81.5545 96.2518 82.4135C97.1239 86.1351 99.3341 88.9002 102.496 90.9865C103.823 91.851 105.06 92.8471 106.187 93.9597C102.838 92.9092 100.276 90.7238 98.001 88.1222L97.7533 88.3006C98.5891 91.5646 99.4233 94.8286 100.256 98.0925L99.6512 98.2115Z" fill="#AC6719"/>
<path d="M117.883 134.456C115.663 140.159 115.147 146.091 115.217 152.092C115.296 159.362 115.083 166.611 113.73 173.767C112.516 180.244 111.084 186.651 109.736 193.128C109.498 194.263 109.206 195.383 108.943 196.512L108.487 196.488C108.391 196.119 108.349 195.739 108.363 195.358C109.434 189.273 110.385 183.167 111.649 177.127C113.324 169.119 114.622 161.111 114.414 152.875C114.31 148.742 114.795 144.575 115.261 140.457C115.519 138.24 116.432 136.151 117.883 134.456Z" fill="#AC6719"/>
<path d="M88.17 155.234C88.4276 156.745 88.725 158.252 88.938 159.773C89.6962 165.224 90.0679 170.675 88.2344 176.027C87.2879 178.787 85.717 181.121 83.1798 182.662C82.7289 182.935 82.0153 182.786 81.4207 182.83C81.4851 182.275 81.3711 181.611 81.6387 181.18C82.7239 179.436 83.938 177.771 85.0728 176.056C86.4775 173.953 87.2544 171.494 87.3127 168.965C87.4019 165.595 87.392 162.216 87.4812 158.841C87.5109 157.642 87.6843 156.443 87.7933 155.244L88.17 155.234Z" fill="#AC6719"/>
<path d="M50.7959 170.809C51.0183 170.786 51.2424 170.786 51.4649 170.809C53.2934 171.185 53.8435 170.908 54.2944 169.089C54.5528 168.093 54.6696 167.065 54.6413 166.037C54.2895 157.89 53.8286 149.748 53.5065 141.601C53.3479 137.454 53.3876 133.291 53.3777 129.138C53.4272 128.449 53.5333 127.764 53.6948 127.092L54.0714 127.067C54.23 128.489 54.4827 129.902 54.5323 131.324C54.6958 135.893 54.7305 140.467 54.9238 145.035C55.1765 150.918 55.6522 156.8 55.791 162.687C55.7794 165.272 55.5122 167.85 54.9932 170.382C54.8346 171.25 54.0021 172.117 53.2687 172.731C52.5353 173.346 53.0258 173.594 53.2687 174.02C53.5171 174.416 53.7389 174.828 53.9327 175.254C53.9327 175.254 53.4371 175.625 53.3678 175.566C52.8909 175.305 52.4845 174.933 52.1834 174.481C51.6631 173.366 51.2865 172.157 50.7959 170.809Z" fill="#AC6719"/>
<path d="M144.423 73.4392C144.483 73.8555 144.532 74.1727 144.552 74.3263L137.966 70.5552L139.329 70.689C138.293 69.1429 138.175 69.1181 136.881 70.1934C136.049 70.8822 133.616 70.9962 132.387 70.1439C133.313 69.7437 134.271 69.4206 135.251 69.1776C136.391 68.9942 136.653 68.3005 136.41 67.4283C136.13 66.4044 135.71 65.4239 135.162 64.5145C134.505 63.5687 133.792 62.6635 133.026 61.8039C131.89 60.3258 131.212 58.5471 131.077 56.6878C130.941 54.8285 131.353 52.9703 132.263 51.343C132.337 51.2191 132.451 51.12 132.783 51.0803C132.749 51.6236 132.674 52.1636 132.56 52.6958C131.569 56.2191 132.337 59.2617 134.874 61.903C135.658 62.6945 136.35 63.5723 136.936 64.5195C137.431 65.347 137.961 66.3232 137.957 67.235C137.957 68.801 138.739 69.5641 139.939 70.134C140.93 70.5899 141.886 71.016 142.867 71.4323C146.554 72.9933 148.284 76.2688 147.253 80.1439C146.881 81.5463 146.103 82.8496 145.439 84.1628C145.315 84.4106 144.869 84.4899 144.572 84.6584C144.518 84.3313 144.339 83.9646 144.433 83.6673C144.859 82.3789 145.385 81.1251 145.836 79.8466C146.832 77.0666 146.356 74.8813 144.423 73.4392Z" fill="#AC6719"/>
<path d="M75.8703 100.828C74.3837 101.447 72.9516 102.176 71.4105 102.656C67.2281 103.985 62.8921 104.237 58.561 103.97C53.6056 103.667 48.6254 103.172 43.6947 102.592C42.1931 102.341 40.7411 101.853 39.3934 101.145C39.1294 101.042 38.8973 100.871 38.7208 100.649C38.5442 100.428 38.4295 100.163 38.3882 99.883C38.3469 99.6027 38.3806 99.3164 38.4858 99.0533C38.591 98.7902 38.7639 98.5596 38.987 98.3849C39.4826 97.8893 39.9781 97.9439 40.0079 98.6624C40.0871 99.7476 40.8007 100.208 41.6382 100.436C43.2891 100.947 44.9775 101.328 46.6878 101.576C54.4827 102.453 62.2924 103.033 70.0973 101.71C71.9853 101.393 73.8436 100.887 75.7167 100.466L75.8703 100.828Z" fill="#AC6719"/>
<path d="M102.153 137.86C102.02 140.134 101.975 142.424 101.732 144.688C100.934 152.092 98.9968 159.267 97.0344 166.413C94.3188 176.294 92.1434 186.235 91.5834 196.512C91.5758 196.924 91.415 197.318 91.1325 197.617C91.0603 197.276 91.0123 196.93 90.9888 196.582C90.9845 191.339 91.5814 186.113 92.7678 181.007C94.7202 172.33 96.9799 163.717 98.8729 155.025C100.107 149.356 100.919 143.598 101.925 137.88L102.153 137.86Z" fill="#AC6719"/>
<path d="M44.607 105.164C44.4496 105.892 44.3305 106.628 44.2502 107.369C44.1808 108.856 44.2948 110.342 44.1164 111.804C43.938 113.266 42.9816 113.648 41.8865 112.751C43.72 111.601 43.2988 109.713 43.4722 108.003C43.5239 107.017 43.6515 106.036 43.8538 105.07C44.161 103.915 44.8449 103.643 45.7468 104.203C48.9529 106.185 52.501 107.002 56.2027 107.176C56.8187 107.18 57.4264 107.318 57.9836 107.581C58.5408 107.843 59.0339 108.224 59.4287 108.697C59.5873 108.886 59.7657 109.064 59.9243 109.242C61.9857 111.398 63.1403 111.413 65.3009 109.317C67.2831 107.399 68.5665 107.592 69.8946 110.025C70.2512 110.646 70.4566 111.342 70.4942 112.057C69.9987 111.319 69.5328 110.541 68.9679 109.852C67.9422 108.603 67.1344 108.593 66.2127 109.921C65.8323 110.49 65.3269 110.964 64.7351 111.308C64.1434 111.651 63.4809 111.855 62.7984 111.903C62.0105 111.978 60.9203 111.784 60.4148 111.269C58.6259 109.45 56.6636 108.767 54.057 108.742C51.0144 108.707 48.1105 107.498 45.5337 105.769C45.3454 105.605 45.1323 105.486 44.607 105.164Z" fill="#AC6719"/>
<path d="M102.54 40.4261C103.918 40.4261 105.315 40.2626 106.663 40.4559C109.959 40.9514 113.234 41.5857 116.52 42.1506C120.925 42.9138 125.32 42.5966 129.681 41.8285C133.086 41.2289 136.465 40.4707 139.86 39.7919C140.236 39.7175 140.628 39.7076 141.014 39.668L141.118 40.0446C139.899 40.5401 138.7 41.105 137.451 41.5312C130.479 43.8008 123.373 44.0089 116.192 42.7403C115.097 42.552 114.002 42.3637 112.902 42.2051C112.208 42.106 111.415 41.7691 111.024 42.7849C110.964 42.9286 110.489 43.0278 110.251 42.9683C107.193 42.2151 104.19 42.666 101.197 43.3399C101.078 43.3631 100.954 43.3542 100.84 43.3142C100.725 43.2741 100.622 43.2044 100.543 43.112L105.593 41.4717V41.224L102.515 40.9613L102.54 40.4261Z" fill="#AC6719"/>
<path d="M61.069 11.6301C61.3135 11.9477 61.5401 12.2785 61.7479 12.6212C64.6121 17.9434 69.0423 21.4369 74.5676 23.6966C76.0105 24.3012 77.4184 24.9861 78.7847 25.7482C79.1068 25.9266 79.2158 26.4865 79.4239 26.8681C79.0275 26.9573 78.5716 27.215 78.2396 27.106C73.7252 25.6193 69.3941 23.7115 65.6082 20.758C63.5665 19.1673 61.8074 17.2892 61.064 14.7471C60.8513 13.7676 60.7106 12.7739 60.6428 11.7738L61.069 11.6301Z" fill="#AC6719"/>
<path d="M92.0357 48.6075L89.4044 50.5897L89.1467 50.3419C89.8504 49.6085 90.4451 48.7066 91.2825 48.1764C92.6155 47.334 92.6155 46.1595 92.5957 44.5887C90.2419 45.7185 88.3985 47.0912 87.1745 49.227C85.896 51.4619 86.1834 53.8058 86.6195 56.1893C86.0314 55.4815 85.6322 54.6364 85.4589 53.7326C85.2856 52.8289 85.3439 51.896 85.6284 51.0208C86.5649 47.6164 88.7999 45.3122 92.0308 43.9643C92.7592 43.657 93.5174 43.4192 93.458 42.2943C89.3697 43.2854 86.6095 45.9217 84.2904 49.1873L83.8494 48.8256C84.4886 47.8345 84.9346 46.5956 85.8018 45.8523C87.4183 44.5235 89.1649 43.3613 91.0149 42.3835C92.6907 41.5961 94.4155 40.9174 96.1785 40.3518C96.3561 40.3011 96.5424 40.2886 96.7252 40.315C96.908 40.3415 97.0831 40.4064 97.239 40.5054C97.0262 40.7544 96.7832 40.9758 96.5155 41.1645C94.226 42.3934 93.6364 44.4598 93.5125 46.8632C93.3914 48.4619 93.1763 50.052 92.8683 51.6254C92.8166 52.1231 92.6084 52.5915 92.2736 52.9634C91.0347 54.0189 91.5898 54.782 92.4272 55.7681C92.8817 56.2344 93.2286 56.7946 93.4435 57.4093C93.6583 58.024 93.736 58.6782 93.671 59.3261L90.6978 54.0189C92.0011 52.6859 92.2191 50.7731 92.3876 48.8404L92.0357 48.6075Z" fill="#AC6719"/>
<path d="M62.8725 115.699C61.8517 115.853 60.8308 116.021 59.8051 116.16C54.1014 116.903 48.4076 117.23 42.7286 115.912C41.8515 115.704 40.9893 115.417 40.1171 115.174C39.0071 114.867 38.4372 114.004 38.7544 113.028C39.7455 110.015 39.5918 106.938 39.5671 103.856C39.6312 103.626 39.7192 103.403 39.8297 103.192C40.0923 103.821 40.3897 104.212 40.3946 104.614C40.5103 106.78 40.502 108.95 40.3698 111.115C40.132 113.593 40.241 113.96 42.6741 114.495C46.311 115.225 50.0272 115.48 53.7297 115.253C56.4056 115.144 59.0816 115.164 61.7575 115.149C62.1345 115.174 62.5089 115.229 62.8774 115.313L62.8725 115.699Z" fill="#AC6719"/>
<path d="M188.76 167.34C190.133 169.154 190.619 171.007 191 172.88C191.877 177.132 191.347 181.344 190.405 185.502C189.375 190.07 187.799 194.421 184.831 198.158C184.113 199.004 183.329 199.793 182.487 200.516C182.269 200.715 181.857 200.7 181.535 200.779C181.523 200.442 181.575 200.106 181.689 199.788C183.176 197.409 184.761 195.1 186.149 192.682C189.801 186.374 191.342 179.629 190.024 172.365C189.741 170.779 189.241 169.218 188.76 167.34Z" fill="#AC6719"/>
<path d="M117.065 194.352C119.785 186.379 120.152 178.133 120.534 169.867C120.791 164.317 121.381 158.777 121.911 153.242C122.083 151.86 122.492 150.519 123.12 149.277C122.233 160.278 121.51 171.299 120.36 182.275C119.959 186.111 118.502 189.837 117.506 193.609C117.393 193.875 117.245 194.125 117.065 194.352Z" fill="#AC6719"/>
<path d="M96.5198 128.355C95.4395 131.715 94.5376 135.184 93.1996 138.499C92.0648 141.354 90.4939 144.034 89.0916 146.78C88.7843 147.369 88.3334 148.019 87.5504 147.573C86.7675 147.127 87.1936 146.433 87.4513 145.833C89.9753 140.019 92.4943 134.211 95.0083 128.41C95.0518 128.25 95.1203 128.098 95.2115 127.959C95.4395 127.721 95.7071 127.518 95.9598 127.3L96.5198 128.355Z" fill="#AC6719"/>
<path d="M176.699 160.437C181.312 166.77 179.072 187.83 173.032 194.823C173.085 194.434 173.173 194.051 173.294 193.678C175.204 189.066 176.65 184.275 177.611 179.376C178.631 173.925 177.972 168.534 177.07 163.152C176.922 162.25 176.823 161.339 176.699 160.437Z" fill="#AC6719"/>
<path d="M223.274 199.228C223.408 198.4 223.571 197.583 223.675 196.75C224.27 191.998 223.086 187.518 221.693 183.034C219.607 176.309 217.674 169.535 215.672 162.781C215.286 161.477 214.875 160.179 214.483 158.876C214.369 158.504 214.295 158.118 214.201 157.736L214.666 157.558C215.449 159.456 216.426 161.304 216.971 163.271C218.215 167.731 219.171 172.315 220.4 176.805C221.47 180.739 222.853 184.585 223.903 188.524C224.846 191.928 224.763 195.534 223.666 198.891C223.626 199.025 223.562 199.149 223.512 199.282L223.274 199.228Z" fill="#AC6719"/>
<path d="M121.768 69.0091C121.372 68.9447 121.272 68.8901 121.218 68.9248C119.196 70.7187 116.575 71.3183 114.211 72.4234C111.059 73.91 110.009 75.6295 110.435 78.7069C110.623 80.0498 111.01 81.363 111.277 82.696C111.431 83.3456 111.455 84.0194 111.347 84.6782C110.162 81.6504 108.621 78.6722 109.716 75.2926C110.336 73.3699 111.902 72.2252 113.651 71.3976C115.4 70.57 117.333 69.9407 119.072 69.019C120.068 68.406 120.969 67.6515 121.748 66.7791C122.417 66.125 122.962 65.352 124.454 65.4213L123.101 66.5859C122.392 67.2003 121.639 67.7752 122.605 68.8158C122.729 68.9546 122.536 69.6434 122.303 69.8069C121.313 70.5334 120.266 71.1781 119.171 71.7346C117.638 72.4412 116.066 73.0616 114.464 73.5929C116.367 71.3877 119.736 71.3926 121.768 69.0091Z" fill="#AC6719"/>
<path d="M106.233 52.2201C106.333 52.0547 106.453 51.9017 106.589 51.7642C110.014 48.9792 113.76 47.0962 118.354 47.5273C119.743 47.7184 121.148 47.7615 122.546 47.6561C123.582 47.5322 124.528 46.8682 125.564 46.5164C126.022 46.4106 126.491 46.3574 126.961 46.3578C126.917 46.8533 127.05 47.5322 126.793 47.7404C126.068 48.4675 125.158 48.9828 124.162 49.2308C123.165 49.4789 122.12 49.4501 121.139 49.1477C117.997 48.4787 115.103 49.1477 112.249 50.4113C110.707 51.1001 109.102 51.6403 107.521 52.225C107.143 52.3422 106.757 52.4316 106.366 52.4926L106.233 52.2201Z" fill="#AC6719"/>
<path d="M76.5 35.1982L81.3365 34.3458L81.4158 33.994C80.8856 33.8552 80.3603 33.6917 79.8202 33.5777C76.2919 32.8113 72.7636 32.0482 69.2354 31.2883L69.2849 30.7581C69.6942 30.7333 70.1046 30.7333 70.5139 30.7581C75.7468 31.4188 80.9797 32.0795 86.2127 32.7403C86.2958 32.7388 86.3783 32.754 86.4555 32.7849C86.951 33.1218 87.4466 33.4687 87.9173 33.8106C87.3772 34.0782 86.8618 34.5094 86.2969 34.5787C83.4327 34.9405 80.5635 35.213 77.6943 35.5004C77.303 35.5203 76.9111 35.5203 76.5198 35.5004L76.5 35.1982Z" fill="#AC6719"/>
<path d="M79.8247 10.6935C80.0427 12.8194 80.236 14.7074 80.4342 16.6004L79.7751 16.645C79.524 13.8303 79.2696 11.0222 79.012 8.22073L79.5075 8.05225C80.2806 8.8798 81.0239 9.73709 81.8316 10.53C84.5373 13.1762 87.2826 15.7976 89.9734 18.4587C90.3855 18.8007 90.7372 19.2094 91.014 19.6678C91.1251 20.0962 91.1553 20.5415 91.1032 20.981C90.7117 20.9116 90.1964 20.981 89.9437 20.758C88.1448 19.1921 86.3411 17.6162 84.6513 15.9413C83.1944 14.4943 81.8812 12.9036 80.4986 11.3823C80.3549 11.1643 80.1715 11.0206 79.8247 10.6935Z" fill="#AC6719"/>
<path d="M138.067 75.9912L136.258 73.1865L136.565 72.9486L138.854 75.8921C139.766 75.6345 141.218 76.5215 142.353 75.2182C142.442 75.1141 142.987 75.2182 143.071 75.347C143.38 75.8925 143.631 76.4689 143.82 77.0666C143.82 77.1112 143.25 77.5126 143.042 77.4432C140.068 76.5264 137.323 77.4432 134.618 78.4343C131.68 79.4457 128.519 79.6173 125.49 78.9298C122.744 78.3699 119.974 77.9387 117.224 77.4085C116.797 77.3006 116.378 77.1632 115.97 76.9972L116.025 76.6553C117.789 76.8733 119.558 77.0567 121.317 77.3143C122.497 77.4878 123.661 77.7702 124.835 77.9932C127.644 78.5624 130.554 78.3656 133.26 77.4234C134.736 76.8981 136.292 76.5116 138.067 75.9912Z" fill="#AC6719"/>
<path d="M62.2723 9.53395C61.8827 8.74047 61.693 7.86375 61.7198 6.98017C61.7465 6.0966 61.989 5.23297 62.426 4.46454C63.1494 3.03737 64.314 1.81834 65.3497 0.569567C66.0087 -0.223303 66.8363 -0.0895051 67.6886 0.37135C70.6619 1.96205 72.7184 4.45958 74.2595 7.38329C75.1168 9.01363 75.7957 10.7431 76.4994 12.4577C76.6233 12.755 76.4548 13.1762 76.4251 13.5429C76.1228 13.3249 75.7115 13.1762 75.538 12.8838C73.982 10.2228 72.5648 7.4824 70.9097 4.8808C70.0623 3.54283 68.8432 2.43777 67.7877 1.2336C67.2327 0.604255 66.7174 0.653809 66.1178 1.2336C63.7887 3.50814 62.2327 6.12461 62.2723 9.53395Z" fill="#AC6719"/>
<path d="M76.7527 174.134C76.8617 173.638 76.8468 173.435 76.936 173.341C80.3801 169.728 80.717 165.249 80.4593 160.63C80.1372 154.827 79.7408 149.024 79.4088 143.222C79.3345 141.948 79.4088 140.67 79.4088 139.396L79.7111 139.366C79.9935 141.844 80.3999 144.272 80.5386 146.74C80.8657 152.419 81.1036 158.108 81.3018 163.792C81.3811 166.066 81.2225 168.336 80.2017 170.442C79.4454 171.989 78.2444 173.274 76.7527 174.134Z" fill="#AC6719"/>
<path d="M210.643 157.533C208.775 154.342 207.04 151.091 205.004 147.989C203.329 145.457 201.213 143.222 199.458 140.734C197.476 137.919 195.663 134.976 193.785 132.087C193.659 131.922 193.572 131.73 193.532 131.527C193.477 131.031 193.482 130.536 193.462 130.08C193.804 130.412 194.265 130.689 194.453 131.096C196.806 135.681 199.69 139.974 203.046 143.886C206.366 147.85 208.715 152.35 210.742 157.052C210.779 157.201 210.796 157.355 210.792 157.508L210.643 157.533Z" fill="#AC6719"/>
<path d="M73.2039 98.9548C65.4939 101.326 57.3732 102.059 49.3633 101.105C47.5 100.892 45.7111 99.9261 43.9123 99.2323C43.6645 99.1382 43.5803 98.6178 43.4167 98.2908C43.7488 98.2908 44.1402 98.1966 44.4078 98.3403C49.4475 101.036 54.8787 101.076 60.3445 100.555C64.076 100.199 67.7777 99.5643 71.4992 99.0688C72.0592 98.9895 72.629 98.9845 73.2039 98.9548Z" fill="#AC6719"/>
<path d="M108.987 56.7394C111.906 54.8414 115.186 55.55 118.402 55.8573L118.467 55.337L112.847 53.6323C114.379 52.9286 118.794 54.227 120.325 55.8523L119.631 56.8434L119.929 57.0515C120.358 56.7063 120.819 56.4026 121.306 56.1447C121.456 56.1111 121.611 56.1158 121.759 56.1582C121.906 56.2007 122.04 56.2795 122.149 56.3875C122.192 56.5292 122.201 56.6793 122.174 56.8251C122.148 56.9708 122.086 57.108 121.995 57.225C121.41 57.9435 119.483 57.9782 118.62 57.666C117.39 57.2197 116.105 56.943 114.8 56.8434C113.243 56.8023 111.684 56.8453 110.132 56.9723C109.775 56.9723 109.418 57.0615 109.066 57.111L108.987 56.7394Z" fill="#AC6719"/>
<path d="M148.74 116.299C149.067 118.697 149.344 121.106 149.731 123.499C150.385 127.463 151.891 130.987 155.132 133.618C155.911 134.342 156.579 135.177 157.114 136.096C157.297 136.517 157.41 136.966 157.446 137.424L157.04 137.657C154.855 134.941 152.248 132.463 150.598 129.456C148.368 125.432 148.125 120.833 148.74 116.299Z" fill="#AC6719"/>
<path d="M102.526 95.4116C102.872 96.6127 103.136 97.8363 103.313 99.0737C103.506 100.67 103.488 102.284 103.259 103.875C102.53 107.736 103.754 110.813 106.421 113.534C106.762 113.98 107.048 114.466 107.273 114.981C106.777 114.753 106.247 114.53 105.737 114.297C105.669 114.25 105.606 114.197 105.548 114.138C102.491 111.898 101.173 108.99 102.08 105.218C102.746 102.19 102.773 99.0557 102.159 96.0162C102.143 95.8514 102.143 95.6854 102.159 95.5206L102.526 95.4116Z" fill="#AC6719"/>
<path d="M48.5366 146.71C48.4259 146.306 48.3464 145.893 48.2987 145.476C48.1649 140.496 47.9617 135.511 47.9766 130.531C47.9766 128.97 48.5415 127.394 48.9677 125.858C49.156 125.174 49.7011 124.659 50.7368 125.065C49.0718 126.294 48.824 128.038 48.8537 129.807C48.9132 133.306 49.0916 136.799 49.2056 140.298C49.265 141.983 49.3294 143.673 49.3245 145.362C49.2624 145.84 49.1392 146.308 48.9578 146.755L48.5366 146.71Z" fill="#AC6719"/>
<path d="M151.005 38.7115C154.612 38.429 158.235 38.2754 161.684 39.4449C167.848 41.5361 170.97 46.551 170.376 53.1566C170.321 53.7562 170.227 54.3459 170.148 54.9405L169.796 54.9851C169.672 54.6945 169.584 54.39 169.533 54.0783C169.499 53.0475 169.469 52.0168 169.533 50.9861C169.781 46.0009 167.056 42.8938 162.977 40.6936C160.787 39.5142 158.364 39.2714 155.916 39.1525C154.266 39.0732 152.635 38.8601 151.005 38.7115Z" fill="#AC6719"/>
<path d="M122.125 82.359C123.661 82.577 125.212 82.7406 126.744 83.0181C129.623 83.5434 132.457 83.692 135.252 82.5572C135.569 82.4284 136.04 82.6762 136.437 82.7505C136.253 83.1073 136.159 83.6078 135.862 83.811C134.313 84.8794 132.41 85.3041 130.554 84.9953C127.844 84.5444 125.188 83.7763 122.517 83.1222C122.319 83.0726 122.17 82.8397 121.991 82.6861L122.125 82.359Z" fill="#AC6719"/>
<path d="M192.135 173.247C194.191 178.024 192.348 190.591 189.221 192.731C191.477 186.495 192.467 179.871 192.135 173.247Z" fill="#AC6719"/>
<path d="M91.0735 30.9761L69.5322 29.0831C76.8266 28.4488 84.0715 28.3894 91.0735 30.9761Z" fill="#AC6719"/>
<path d="M164.806 52.1804C164.616 51.8544 164.451 51.5149 164.311 51.1646C162.799 46.4519 159.474 43.7661 154.796 42.5322C153.339 42.1506 151.927 41.5857 150.5 41.105L150.549 40.6789C150.981 40.6315 151.416 40.6315 151.848 40.6789C155.98 41.6006 159.747 43.2656 162.809 46.2785C164.056 47.4411 164.896 48.9731 165.207 50.6492C165.245 51.1143 165.245 51.5816 165.207 52.0466L164.806 52.1804Z" fill="#AC6719"/>
<path d="M134.944 56.789C135.469 56.6453 136.005 56.5462 136.515 56.3579C138.75 55.5304 141.005 54.9357 143.363 55.798C143.825 55.9661 144.248 56.2256 144.607 56.5611C144.83 56.7692 144.86 57.1855 144.974 57.5076C144.647 57.6067 144.295 57.8297 143.983 57.7752C143.299 57.6562 142.655 57.3292 141.976 57.2103C139.736 56.8336 137.571 56.8881 135.692 58.464C135.542 58.5295 135.377 58.5552 135.214 58.5387C135.051 58.5222 134.895 58.4641 134.761 58.3698C134.49 57.8931 134.302 57.3736 134.206 56.8336C134.206 56.7593 134.597 56.576 134.81 56.4471L134.944 56.789Z" fill="#AC6719"/>
<path d="M76.7271 53.1666C76.291 51.3381 76.8213 49.7275 77.7182 48.2112C79.8391 44.678 83.1692 42.7156 86.8511 41.1893C89.6459 40.0248 92.5994 39.5887 95.5627 39.2072L95.6569 39.554C94.691 39.8386 93.71 40.0685 92.7183 40.2428C89.0253 40.665 85.5031 42.0302 82.4903 44.2072C79.6013 46.3232 77.8916 49.2072 76.9005 52.5819C76.851 52.7999 76.7866 52.9833 76.7271 53.1666Z" fill="#AC6719"/>
<path d="M101.579 126.21C98.3676 124.059 94.5916 123.365 91.0782 122.017C88.8681 121.17 87.1485 119.644 85.6272 117.87C85.5178 117.718 85.4471 117.541 85.4212 117.355C85.3953 117.17 85.415 116.981 85.4786 116.804C85.7115 116.908 86.0138 116.958 86.1674 117.131C89.0465 120.323 92.8126 121.869 96.8216 123.033C98.7292 123.505 100.412 124.628 101.579 126.21Z" fill="#AC6719"/>
<path d="M81.782 113.975C82.8424 112.106 82.1437 110.907 80.5976 109.946C80.4358 109.801 80.305 109.625 80.2131 109.428C80.1211 109.232 80.0698 109.018 80.0624 108.801C79.8642 106.428 79.7304 104.044 79.5669 101.665C79.5072 101.385 79.4988 101.096 79.5421 100.813C79.705 100.488 79.9045 100.182 80.1368 99.9012C80.3251 100.179 80.6323 100.441 80.6769 100.734C80.9048 103.068 81.0337 105.412 81.2963 107.741C81.3779 108.358 81.6499 108.935 82.0743 109.391C83.4123 110.759 83.665 112.642 82.5352 113.806C82.4116 113.898 82.2745 113.97 82.1288 114.019L81.782 113.975Z" fill="#AC6719"/>
<path d="M83.1143 98.5187C83.372 92.5226 81.3403 88.1519 74.8635 86.918L74.9428 86.4918C75.4013 86.379 75.8735 86.3323 76.3452 86.3531C80.1361 87.1707 82.3908 89.7525 83.6842 93.1817C84.1203 94.3511 83.9865 95.7585 83.9914 97.0568C83.9914 97.5524 83.6545 98.0479 83.4959 98.5137L83.1143 98.5187Z" fill="#AC6719"/>
<path d="M120.549 59.6433C118.567 61.1646 116.035 61.5512 113.523 61.9773C111.01 62.4035 108.463 62.7206 106.015 63.3896C104.355 63.8455 102.844 64.8317 101.337 65.5502C101.653 64.8913 102.116 64.3134 102.69 63.8608C103.263 63.4082 103.933 63.0927 104.647 62.9387C107.541 62.1805 110.51 61.7097 113.448 61.1101L120.549 59.6433Z" fill="#AC6719"/>
<path d="M219.39 182.608C217.308 175.858 215.326 169.461 213.349 163.063L213.661 162.969C216.646 169.153 218.582 175.789 219.39 182.608Z" fill="#AC6719"/>
<path d="M42.6697 89.6832C43.1531 89.3584 43.7028 89.1454 44.2788 89.0597C44.8548 88.9739 45.4427 89.0177 45.9997 89.1876C46.9611 89.4007 47.8828 89.8417 48.8491 89.9706C50.8313 90.2382 52.8135 90.367 54.8254 90.5454C55.9289 90.567 57.029 90.6747 58.1158 90.8675C58.8413 91.1474 59.4591 91.6506 59.8799 92.3046C57.8977 90.818 55.7173 91.3581 53.5766 91.3135C51.8689 91.2696 50.1665 91.104 48.4824 90.818C46.6093 90.5553 44.7609 90.1093 42.6697 89.6832Z" fill="#AC6719"/>
<path d="M155.961 40.1139C157.11 40.4509 158.295 40.7036 159.429 41.1397C163.959 42.8939 167.244 45.7928 168.072 50.8573C168.177 51.3458 168.23 51.8441 168.23 52.3439C168.151 52.6514 168.013 52.9408 167.824 53.1962C167.648 52.9571 167.504 52.6954 167.398 52.4182C166.977 50.8375 166.773 49.1774 166.159 47.6808C164.796 44.3805 161.902 42.8146 158.726 41.66C157.764 41.3131 156.808 40.9414 155.852 40.5797L155.961 40.1139Z" fill="#AC6719"/>
<path d="M210.589 163.148C207.373 157.88 205.138 152.008 200.886 147.389L201.114 147.127C201.438 147.327 201.745 147.555 202.031 147.805C204.811 150.635 206.734 154.03 208.444 157.563C209.296 159.332 210.069 161.141 210.882 162.934L210.589 163.148Z" fill="#AC6719"/>
<path d="M167.898 171.16C166.005 170.412 164.142 169.57 162.21 168.935C159.439 168.019 156.56 168.009 153.661 168.133C151.655 168.222 149.638 168.083 147.626 168.019C147.192 167.962 146.763 167.872 146.342 167.751C146.709 167.533 146.838 167.399 146.952 167.399C150.079 167.434 153.206 167.523 156.327 167.518C160.125 167.558 163.849 168.564 167.15 170.442C167.456 170.628 167.751 170.834 168.032 171.056L167.898 171.16Z" fill="#AC6719"/>
<path d="M180.376 168.688C182.061 171.948 181.952 180.442 180.376 181.914V168.688Z" fill="#AC6719"/>
<path d="M152.199 42.9088C156.416 43.1417 161.787 48.2062 161.887 51.9178C159.528 47.9782 156.669 44.5738 152.199 42.9088Z" fill="#AC6719"/>
<path d="M78.7198 103.553C78.6505 104.976 78.6851 106.403 78.4968 107.805C78.2689 109.475 78.2292 110.987 79.7208 112.171C80.0015 112.509 80.1619 112.931 80.1767 113.37C80.2015 113.563 79.9091 113.796 79.7605 114.014C79.5719 113.895 79.393 113.76 79.2253 113.613C76.3709 110.714 77.6049 107.27 77.9666 103.95C77.9666 103.781 78.1846 103.638 78.2986 103.484L78.7198 103.553Z" fill="#AC6719"/>
<path d="M113.686 125.015L119.196 116.383C118.944 119.852 116.173 124.629 114.067 125.243L113.686 125.015Z" fill="#AC6719"/>
<path d="M58.224 190.467C57.6789 193.44 49.0465 200.209 46.9553 199.991C51.0981 197.276 55.003 194.278 58.224 190.467Z" fill="#AC6719"/>
<path d="M92.6792 76.7396C91.5592 75.4908 90.36 74.2966 89.3343 72.9735C87.7931 70.9913 87.9269 68.4739 89.7059 66.8238C90.3204 66.2588 91.2718 66.0309 92.1043 65.7583C92.3075 65.689 92.6494 66.0408 92.922 66.2043C92.6799 66.3674 92.4246 66.5099 92.1589 66.6305C91.9577 66.6655 91.753 66.6755 91.5493 66.6602C90.9496 66.7152 90.387 66.9746 89.9557 67.3951C89.5245 67.8155 89.2509 68.3713 89.1806 68.9695C88.8982 70.9269 89.6465 72.4878 90.9696 73.8803C91.7327 74.6831 92.3819 75.5949 93.0806 76.4522L92.6792 76.7396Z" fill="#AC6719"/>
<path d="M79.5134 51.4322C80.0932 47.5025 86.3916 42.1903 89.7811 41.7839C85.455 44.0387 82.1695 47.4183 79.5134 51.4322Z" fill="#AC6719"/>
<path d="M97.4857 25.7729C93.9624 24.5886 92.5302 14.2912 94.7899 11.308C94.2448 16.531 93.774 21.5509 97.4857 25.7729Z" fill="#AC6719"/>
<path d="M95.5045 140.635C95.0089 139.619 96.8821 133.504 97.9326 132.672C98.4777 134.56 96.9366 139.624 95.5045 140.635Z" fill="#AC6719"/>
<path d="M132.556 126.943L122.149 125.724C123.185 124.044 129.474 125.219 132.556 126.943Z" fill="#AC6719"/>
<path d="M117.75 28.1714C117.581 24.8067 115.971 21.9623 114.697 19.0039C114.697 18.9395 114.806 18.8057 114.866 18.7065C116.783 19.3507 118.731 25.5054 117.75 28.1714Z" fill="#AC6719"/>
<path d="M95.147 64.3213C96.3264 61.2786 96.7624 58.2162 95.9547 54.9852C97.1737 55.4808 97.0845 56.6106 97.1737 57.5224C97.4215 60.0398 97.1837 62.463 95.147 64.3213Z" fill="#AC6719"/>
<path d="M143.899 88.3948C142.863 90.7833 141.986 93.261 140.737 95.5306C139.746 97.3542 137.764 97.9489 135.782 98.2412C140.822 96.7943 141.515 92.0024 143.483 88.2015L143.899 88.3948Z" fill="#AC6719"/>
<path d="M145.46 144.119C144.919 145.187 144.614 146.36 144.565 147.557C144.516 148.754 144.725 149.947 145.177 151.056C143.691 150.779 143.468 149.728 143.334 148.712C143.076 146.735 143.998 144.639 145.46 144.119Z" fill="#AC6719"/>
<path d="M103.928 67.5076C105.707 65.7087 107.749 65.0298 109.835 64.4005C113.139 63.4425 116.442 62.496 119.746 61.561C119.805 61.561 119.895 61.6056 120.088 61.9327C118.834 62.4282 117.61 62.9932 116.317 63.3549C113.839 64.0586 111.277 64.5293 108.814 65.3024C107.214 65.8128 105.717 66.68 103.928 67.5076Z" fill="#AC6719"/>
<path d="M217.056 182.206C215.073 181.711 213.498 181.304 211.907 180.977C211.03 180.794 210.108 180.809 209.226 180.65C208.983 180.605 208.795 180.254 208.582 180.046C208.825 179.867 209.112 179.5 209.305 179.55C211.605 180.09 213.894 180.68 216.174 181.299C216.416 181.374 216.605 181.735 217.056 182.206Z" fill="#AC6719"/>
<path d="M104.919 90.7535C102.813 90.6643 98.5712 85.7386 98.0459 83.1023L104.919 90.7535Z" fill="#AC6719"/>
<path d="M68.9823 91.6999C68.9328 89.2222 73.8485 87.8049 77.0448 89.3213C75.5284 89.4749 74.0715 89.4254 72.7732 89.8168C71.4749 90.2083 70.3203 91.026 68.9823 91.6999Z" fill="#AC6719"/>
<path d="M111.739 94.1084C109.524 91.9677 108.136 89.2967 106.907 86.5266C109.124 88.6119 110.785 91.2181 111.739 94.1084Z" fill="#AC6719"/>
<path d="M130.544 103.91C129.469 105.496 123.943 105.506 120.569 103.91H130.544Z" fill="#AC6719"/>
<path d="M152.655 44.2021C155.717 44.9108 159.479 50.0694 158.691 52.8593C157.318 49.2616 155.901 46.0555 152.655 44.2021Z" fill="#AC6719"/>
<path d="M94.1365 73.1865C92.5458 71.8833 92.5161 70.0597 92.5954 67.8941L90.41 69.8763L90.1523 69.6682C90.7526 68.8485 91.4153 68.0765 92.1345 67.359C92.2832 67.2252 93.418 67.7207 93.4824 68.0478C93.8045 69.7177 93.9284 71.4125 94.1365 73.1865Z" fill="#AC6719"/>
<path d="M183.388 126.304C185.286 125.699 189.657 128.286 190.544 130.298L183.388 126.304Z" fill="#AC6719"/>
<path d="M98.6611 50.2379C98.9585 50.0546 99.2508 49.8564 99.5581 49.6829C101.441 48.6076 103.324 47.5223 105.222 46.4718C105.501 46.3757 105.794 46.3287 106.089 46.333C105.995 46.6056 105.985 46.9574 105.807 47.1507C104.38 48.6968 100.99 50.2627 98.6611 50.2379Z" fill="#AC6719"/>
<path d="M73.4028 173.921C75.7707 170.995 77.2099 167.428 77.5357 163.678C78.5961 165.724 75.8706 173.633 73.4028 173.921Z" fill="#AC6719"/>
<path d="M173.621 143.915C173.621 141.145 174.706 138.727 176.158 136.423C175.985 139.129 174.681 141.477 173.621 143.915Z" fill="#AC6719"/>
<path d="M151.119 45.6888C152.605 46.6799 154.122 50.6443 153.596 52.4629C153.542 52.6611 153.314 52.8048 153.165 52.9585C153.002 52.7652 152.719 52.5918 152.67 52.3787C152.633 51.5607 152.554 50.7453 152.432 49.9357C152.055 48.4688 151.54 47.0219 151.119 45.6888Z" fill="#AC6719"/>
<path d="M107.695 27.2942L100.723 24.1276C101.872 23.2505 107.036 25.4359 107.695 27.2942Z" fill="#AC6719"/>
<path d="M64.666 170.536C64.666 171.993 64.7007 173.455 64.6363 174.907C64.6363 175.159 64.2448 175.447 63.9673 175.61C63.8979 175.655 63.4172 175.303 63.4073 175.115C63.2751 173.528 63.5161 171.933 64.111 170.457L64.666 170.536Z" fill="#AC6719"/>
<path d="M149.9 72.4332C149.637 69.3608 148.175 67.0566 145.355 65.3618C147.927 65.4213 151.322 70.124 149.9 72.4332Z" fill="#AC6719"/>
<path d="M155.802 52.1904C154.508 49.6334 153.264 47.1606 152.164 44.9901C153.839 45.8127 156.421 50.4609 155.802 52.1904Z" fill="#AC6719"/>
<path d="M77.8181 162.285V151.408H78.16C78.6556 155.03 78.3186 158.658 77.8181 162.285Z" fill="#AC6719"/>
<path d="M108.249 25.9266L100.578 19.43L100.806 19.1674C103.552 21.1 106.322 23.0078 108.249 25.9266Z" fill="#AC6719"/>
<path d="M75.7317 137.31C74.9884 134.911 74.7406 130.754 75.588 129.589L76.0835 137.29L75.7317 137.31Z" fill="#AC6719"/>
<path d="M119.365 97.0172C117.145 97.0172 114.236 93.6822 114.152 91.145C115.163 93.7318 117.309 95.3522 119.365 97.0172Z" fill="#AC6719"/>
<path d="M142.65 54.0288L135.5 55.4709C136.778 53.9793 141.466 52.9981 142.65 54.0288Z" fill="#AC6719"/>
<path d="M78.2641 124.019C78.7596 126.74 79.7507 129.366 79.6318 132.186L79.275 132.25C78.753 129.535 78.2344 126.816 77.719 124.094L78.2641 124.019Z" fill="#AC6719"/>
<path d="M68.7444 169.877C68.2488 171.413 67.783 172.959 67.2131 174.471C67.0942 174.778 66.5838 174.932 66.2518 175.159C66.2005 174.802 66.2123 174.438 66.2865 174.084C66.9009 172.597 67.5798 171.146 68.234 169.684L68.7444 169.877Z" fill="#AC6719"/>
<path d="M110.781 58.9594C113.14 58.0525 115.518 57.4232 117.986 58.0872L118.021 58.5827L110.781 58.9594Z" fill="#AC6719"/>
<path d="M60.2712 171.72C60.8212 173.088 61.3168 174.223 61.7231 175.392C61.7262 175.539 61.6919 175.685 61.6234 175.815C61.5549 175.945 61.4545 176.055 61.3316 176.136C61.1808 176.16 61.0264 176.151 60.8798 176.108C60.7331 176.065 60.5979 175.99 60.4842 175.888C59.7409 175.13 59.5873 173.034 60.2712 171.72Z" fill="#AC6719"/>
<path d="M139.28 58.1121C141.034 57.1705 144.964 58.1913 145.484 59.5987L139.28 58.1121Z" fill="#AC6719"/>
<path d="M109.835 166.72C109.52 166.432 109.279 166.072 109.133 165.671C108.987 165.27 108.94 164.839 108.996 164.416C109.051 163.993 109.209 163.589 109.454 163.24C109.7 162.89 110.026 162.605 110.405 162.409C111.396 163.648 111.208 165.214 109.835 166.72ZM110.519 163.484L110.108 163.385C109.216 163.95 109.473 164.718 110.043 165.551L110.519 163.484Z" fill="#AC6719"/>
<path d="M96.8713 11.09C99.2846 12.418 100.454 14.7966 101.941 16.9225L101.564 17.2149L96.8713 11.09Z" fill="#AC6719"/>
<path d="M67.639 89.6683L61.6677 86.8635C63.6945 86.2441 67.2575 88.0826 67.639 89.6683Z" fill="#AC6719"/>
<path d="M127.363 81.4125L134.607 80.8624C133.24 81.9526 129.91 82.2103 127.363 81.4125Z" fill="#AC6719"/>
<path d="M123.418 71.5512C121.832 73.0725 119.597 73.5037 117.818 74.6979L117.575 74.2866L123.026 70.9714L123.418 71.5512Z" fill="#AC6719"/>
<path d="M47.7584 171.656C48.6851 172.682 49.473 173.534 50.2362 174.416C50.2813 174.516 50.3047 174.624 50.3047 174.733C50.3047 174.843 50.2813 174.951 50.2362 175.05C49.9496 175.159 49.6368 175.178 49.3392 175.105C48.3234 174.723 47.5751 173.167 47.7584 171.656Z" fill="#AC6719"/>
<path d="M215.732 184.109L210.544 182.702L210.678 182.231C212.66 181.869 214.226 182.865 215.841 183.718L215.732 184.109Z" fill="#AC6719"/>
<path d="M55.2956 172.137C55.9844 173.044 56.6832 173.881 57.2778 174.788C57.4265 175.016 57.2778 175.452 57.2382 175.779C56.9355 175.764 56.6382 175.693 56.361 175.571C55.474 174.937 54.9587 173.286 55.2956 172.137Z" fill="#AC6719"/>
<path d="M186.962 124.981C188.449 124.609 191.422 126.581 192.2 128.365L186.962 124.981Z" fill="#AC6719"/>
<path d="M125.237 67.8544C126.466 67.2697 128.339 67.5274 128.859 68.1815C129.013 68.3698 129.137 68.8108 129.038 68.9198C128.934 69.0332 128.805 69.1199 128.661 69.1725C128.517 69.2252 128.362 69.2422 128.21 69.2221C127.293 68.8505 126.401 68.3995 125.237 67.8544Z" fill="#AC6719"/>
<path d="M163.329 63.117L167.105 58.0228C166.451 60.1487 165.509 62.0764 163.78 63.4738L163.329 63.117Z" fill="#AC6719"/>
<path d="M102.874 44.4748C104.281 44.3063 105.689 44.123 107.101 43.9792C107.232 43.9929 107.356 44.0403 107.463 44.1167C107.57 44.1932 107.655 44.2961 107.71 44.4153C107.755 44.5789 107.472 45.0248 107.329 45.0248C105.842 45.0248 104.356 44.9951 102.869 44.9654L102.874 44.4748Z" fill="#AC6719"/>
<path d="M142.006 74.5592L140.653 73.811V74.6732L136.411 72.1955L136.545 71.8833C137.476 72.2797 138.398 72.7059 139.345 73.0577C139.731 73.2015 140.217 73.0875 140.593 73.246C141.171 73.5307 141.731 73.8518 142.268 74.2074L142.006 74.5592Z" fill="#AC6719"/>
<path d="M148.76 78.6375L147.432 73.6473C148.815 74.1776 149.722 77.0765 148.76 78.6375Z" fill="#AC6719"/>
<path d="M166.942 137.369C165.912 136.705 165.852 134.074 166.541 133.559C166.65 133.479 167.269 133.787 167.264 133.896C167.2 135.055 167.061 136.21 166.942 137.369Z" fill="#AC6719"/>
<path d="M131.009 135.893C133.2 134.406 135.682 134.272 138.18 134.475L131.009 135.893Z" fill="#AC6719"/>
<path d="M142.462 159.233C141.645 158.083 141.922 155.387 142.849 154.371V159.257L142.462 159.233Z" fill="#AC6719"/>
<path d="M181.357 128.44C183.28 127.944 185.361 128.975 186.684 130.917L181.357 128.44Z" fill="#AC6719"/>
<path d="M127.486 51.9674C128.874 52.5373 129.538 54.0735 129.057 55.0001C128.973 55.1587 128.765 55.3718 128.636 55.3569C128.433 55.3569 128.106 55.1835 128.071 55.0249C127.853 54.0883 127.714 53.1369 127.486 51.9674Z" fill="#AC6719"/>
<path d="M131.763 94.708V89.7971C133.002 90.9468 133.016 93.2065 131.763 94.708Z" fill="#AC6719"/>
<path d="M96.2424 53.7464C98.0859 53.3153 100.207 54.3559 100.534 55.9515L96.2424 53.7464Z" fill="#AC6719"/>
<path d="M132.407 68.0577C133.108 67.7277 133.826 67.4333 134.557 67.1756C134.731 67.1211 135.187 67.4481 135.241 67.6711C135.296 67.8941 135.048 68.3897 134.86 68.4293C134.098 68.5584 133.331 68.6477 132.56 68.6969L132.407 68.0577Z" fill="#AC6719"/>
<path d="M105.911 185.903C106.996 187.271 106.599 189.337 105.083 189.818C105.365 188.519 105.648 187.162 105.911 185.903Z" fill="#AC6719"/>
<path d="M49.4529 93.6177C48.9573 94.693 48.5113 95.7684 48.0009 96.8288C47.9217 96.9924 47.6293 97.0518 47.436 97.1609C47.3716 96.9527 47.1932 96.6653 47.2626 96.5414C47.8176 95.4711 48.4172 94.4205 49.0019 93.365L49.4529 93.6177Z" fill="#AC6719"/>
<path d="M124.919 69.1676C126.054 69.5492 127.337 69.5591 128.324 70.5948C127.681 70.8333 126.972 70.8186 126.34 70.5536C125.707 70.2886 125.2 69.7931 124.919 69.1676Z" fill="#AC6719"/>
<path d="M110.043 145.481L112.754 142.89C113.101 144.252 111.614 145.883 110.043 145.481Z" fill="#AC6719"/>
<path d="M41.762 92.5127V96.0955C40.7858 94.9458 40.7461 93.6128 41.762 92.5127Z" fill="#AC6719"/>
<path d="M74.1065 193.173C73.6506 192.028 74.498 190.858 76.7279 189.763L74.1065 193.173Z" fill="#AC6719"/>
<path d="M109.335 73.3896C108.84 74.5492 108.344 75.7088 107.789 76.9476C107.323 75.7583 107.958 74.0983 109.335 73.3896Z" fill="#AC6719"/>
<path d="M77.01 95.7833L79.5373 93.5286C79.5918 94.7228 78.4223 95.8774 77.2974 96.0955L77.01 95.7833Z" fill="#AC6719"/>
<path d="M143.63 80.352C144.081 79.1132 144.473 78.0329 144.864 76.9476C145.692 77.5472 145.058 79.6583 143.63 80.352Z" fill="#AC6719"/>
<path d="M47.1494 92.8398L45.9899 96.6208C45.2267 95.5455 45.7124 93.9598 47.1494 92.8398Z" fill="#AC6719"/>
<path d="M164.195 145.011L160.033 141.299L160.419 140.888L164.384 144.778L164.195 145.011Z" fill="#AC6719"/>
<path d="M112.352 76.5811V80.8279H111.981V76.5563L112.352 76.5811Z" fill="#AC6719"/>
<path d="M182.546 133.147L179.509 132.062C181.045 131.269 182.1 131.661 182.546 133.147Z" fill="#AC6719"/>
<path d="M44.3044 92.6564L44.0022 95.8675L43.2886 95.7833L43.7346 92.587L44.3044 92.6564Z" fill="#AC6719"/>
<path d="M120.96 74.9507L124.384 71.8833L124.707 72.25L121.238 75.2233L120.96 74.9507Z" fill="#AC6719"/>
<path d="M39.2706 93.1421L39.5779 95.8329L39.0823 95.9023C38.8266 95.5016 38.6706 95.0455 38.6275 94.5721C38.5844 94.0988 38.6554 93.622 38.8345 93.1817L39.2706 93.1421Z" fill="#AC6719"/>
<path d="M51.5491 94.4949L49.9138 97.2451L49.4182 96.9032L51.2269 94.2372L51.5491 94.4949Z" fill="#AC6719"/>
<path d="M142.194 149.005L143.725 151.696L143.294 151.958L141.659 149.307L142.194 149.005Z" fill="#AC6719"/>
<path d="M136.381 75.8277L133.448 72.458C135.029 73.3054 136.054 74.2866 136.381 75.8277Z" fill="#AC6719"/>
<path d="M108.174 58.3202L105.414 59.0982L105.275 58.6472L107.976 57.78L108.174 58.3202Z" fill="#AC6719"/>
<path d="M98.2932 52.0515H100.692C100.265 53.1566 99.5519 53.2061 98.2932 52.0515Z" fill="#AC6719"/>
<path d="M108.919 29.9999L106.109 28.1614L106.277 27.869L109.221 29.4944L108.919 29.9999Z" fill="#AC6719"/>
<path d="M127.051 77.0517L127.433 74.3708L127.928 74.4154C127.849 75.3124 127.775 76.2093 127.695 77.1063L127.051 77.0517Z" fill="#AC6719"/>
<path d="M134.593 65.2577C134.142 66.1299 133.265 66.0803 132.432 66.1101L132.279 65.7781L134.345 64.8217L134.593 65.2577Z" fill="#AC6719"/>
<path d="M74.8797 93.0727C74.4387 93.9151 74.0026 94.7625 73.5616 95.6099L73.0066 95.2878L74.4932 92.8348L74.8797 93.0727Z" fill="#AC6719"/>
<path d="M37.4309 93.6921C37.5647 94.8715 37.6687 95.7387 37.7926 96.8289C36.8957 96.0113 36.8114 95.1936 37.4309 93.6921Z" fill="#AC6719"/>
<path d="M141.148 159.743L140.653 157.038L141.094 156.933C141.277 157.82 141.466 158.708 141.649 159.599L141.148 159.743Z" fill="#AC6719"/>
<path d="M77.1687 93.147L75.6127 95.3274L75.1865 94.9904L76.8466 92.8943L77.1687 93.147Z" fill="#AC6719"/>
<path d="M104.514 185.878V188.648C103.706 187.816 103.726 186.963 104.514 185.878Z" fill="#AC6719"/>
<path d="M132.234 77.1508L131.342 74.7276L131.694 74.5641C132.046 75.3421 132.403 76.1201 132.754 76.9031L132.234 77.1508Z" fill="#AC6719"/>
<path d="M114.692 75.8873C114.474 76.3828 114.256 76.918 114.043 77.4334L113.582 77.3244C113.618 76.8733 113.697 76.4269 113.82 75.9913C113.884 75.8179 114.256 75.7634 114.484 75.6494L114.692 75.8873Z" fill="#AC6719"/>
<path d="M72.2484 93.3205L71.8618 95.2184L71.2771 95.0995L71.6686 93.2015L72.2484 93.3205Z" fill="#AC6719"/>
<path d="M140.885 164.183V162.201H141.252V164.183H140.885Z" fill="#AC6719"/>
<path d="M46.4944 183.851C46.7828 183.162 47.131 182.498 47.535 181.869C47.7035 181.651 48.2684 181.735 48.65 181.686C48.6619 182.496 48.6188 183.305 48.5212 184.109C48.5212 184.233 47.7382 184.287 47.3219 184.263C47.0742 184.268 46.8363 184.04 46.4944 183.851Z" fill="white"/>
<path d="M110.519 163.484L110.023 165.551C109.453 164.718 109.195 163.95 110.087 163.385L110.519 163.484Z" fill="white"/>
<path d="M22.3714 125.59C23.7639 125.466 24.4725 126.185 24.7153 127.231C24.9581 128.276 25.4289 128.331 26.2961 128.222C27.3991 128.081 28.5093 128.005 29.6212 127.994C30.0819 128.01 30.5201 128.197 30.8501 128.519C26.1474 129.094 21.5438 129.877 17.2921 132.042L17.1038 131.586C18.7291 130.818 20.3198 129.961 21.9898 129.307C24.3982 128.365 24.4675 128.098 22.6043 126.155C22.525 126.061 22.5101 125.922 22.3714 125.59Z" fill="#AC6719"/>
<path d="M17.9272 166.542L29.3247 162.929C28.3089 164.996 19.5229 168.133 17.9272 166.542Z" fill="#AC6719"/>
<path d="M19.3782 184.709C19.6068 184.724 19.8304 184.783 20.0372 184.882C23.7637 187.677 27.9659 188.762 32.5745 188.46C32.9808 188.43 33.3921 188.46 33.848 188.46C30.4288 190.303 23.5259 188.46 19.4079 184.684L19.3782 184.709Z" fill="#AC6719"/>
<path d="M27.1436 167.256C24.4364 168.711 21.4012 169.448 18.3279 169.396C18.7986 168.48 25.3398 166.938 27.1436 167.256Z" fill="#AC6719"/>
<path d="M18.6111 171.542L25.3852 170.729C23.8242 171.904 20.0432 172.454 18.6656 172.013L18.6111 171.542Z" fill="#AC6719"/>
<path d="M18.4623 172.791L23.6506 173.712L23.5961 174.084L18.3533 173.494L18.4623 172.791Z" fill="#AC6719"/>
<path d="M11.8066 155.531C12.2751 155.087 12.8958 154.84 13.541 154.84C14.1863 154.84 14.807 155.087 15.2754 155.531H11.8066Z" fill="#AC6719"/>
<path d="M5.9839 139.267L2.40112 137.136L2.64889 136.705L6.30601 138.722L5.9839 139.267Z" fill="#AC6719"/>
<path d="M5.91957 146.031L9.42306 147.067L9.27935 147.607C7.95129 147.806 6.90074 147.072 5.81055 146.502L5.91957 146.031Z" fill="#AC6719"/>
<path d="M23.6804 116.725C22.7884 117.22 21.9262 117.835 20.9846 118.261C19.4534 118.955 17.8677 119.535 16.3018 120.169C14.8696 120.749 13.5564 121.477 12.8329 122.954C12.7538 123.067 12.6531 123.163 12.5366 123.237C12.4201 123.311 12.2901 123.362 12.1541 123.385C12.3045 122.612 12.637 121.886 13.1239 121.268C13.6108 120.649 14.2381 120.155 14.9539 119.827C16.163 119.222 17.4712 118.836 18.7299 118.34C20.3206 117.716 21.9014 117.077 23.4871 116.443L23.6804 116.725Z" fill="#AC6719"/>
</svg>
