<svg width="300" height="207" fill="none" xmlns="http://www.w3.org/2000/svg"><path opacity=".6" d="M170.537 195.43a7 7 0 0 0-.943 2.45c2.277.098 1.139 1.14.245 1.397-2.742.784.331 6.518-4.345 5.145-1.42-.416-.735-1.948-.27-3.467.661-2.156-2.448-3.945-3.598-3.246-5.129 3.234-11.262 0-16.525 3.357-3.122 2.021-2.754-2.671-4.003-4.619-1.787 9.311-10.135 2.352-14.689 5.709-.575-.392-.391-1.556-.355-2.72.037-1.164 2.253-2.45.527-3.675-1.481-1.005-3.097-.27-4.297 1.115-1.909 2.205-4.663 3.308-6.438 5.758-1.469 2.009-3.024.539-4.444-1.752-1.701-2.744-3.758-5.832-7.65-6.236-2.779-.282-5.937 2.45-8.348-1.936-.588-1.078-4.676 3.137-3.978 4.533 1.848 3.676-.551 3.137-2.449 3.455-3.305.564-6.61 1.041-9.927 1.568-.085-.919 1.591-1.556.539-2.45-.367-.319-1.53-.061-2.118.294-1.395.87-.086 1.58.318 2.34a2.01 2.01 0 0 0-.159.894l-.881.931-4.762.625c1.102-3.883.441-4.68-4.639-5.709 1.371-3.369 5.594-4.459 6.537-8.196-2.094-.845-4.53 1.813-6.574-.882-2.044-2.695-4.835 1.36-7.246-.772-2.693-2.45-3.489 1.299-4.896 2.23-2.595 1.715.685 2.193 1.224 3.345.722 1.764-1.224.588-1.677 1.151-2.032-.796-4.052-1.825-6.23-.6-.319.184-.576 1.286-.368 1.507a5.309 5.309 0 0 0 5.667 1.837c3.758 5.048 9.977 5.146 13.71.147 3.072 3.002.661 4.901-1.37 6.886-6.562-1.226-13.209 3.442-19.586-.38 4.443-1.483 2.974-5.55 1.873-7.706-1.947-3.798-1.15-6.812.44-10.12 1.678-.71 4.101-1.09 1.616-3.675l1.224-1.507c.918-.282 1.347.257 1.653.992l1.224.993c5.949 2.058 9.94.735 11.396-3.749.563-1.727.894-3.602-1.69-3.136-4.76.882-9.327-.87-14.003-.539l-.66-1.005-.429.331c.392.184.783.38 1.224.563-1.983 5.991-4.235.686-6.377.16-.408.03-.817.03-1.224 0-1.224-.184-1.224-.858-.392-1.458 6.573-4.607-.465-4.656-2.167-5.44-1.897-.882-4.382 0-6.438.98-3.207 1.458-4.236-1.568-4.664-3.099-.612-2.205 1.897-2.45 3.403-2.095 3.415.772 3.782-1.385 3.892-3.675.172-3.676-3.219.306-3.672-2.046 3.575-4.901 2.375-7.278-4.455-8.123a4.481 4.481 0 0 1-1.445-.355c.184-5.758-5.116-6.052-8.213-8.674-3.097-2.622-4.823-5.231-4.48-10.891.33-5.391 3.672-5.084 5.753-8.037-2.155-.429-4.076-.845-6.023-1.225-1.052-.172-2.827.87-2.925-.919-.098-1.789 1.897-1.825 3.182-1.764.747-3.443-5.655-.392-3.61-4.607 1.725-3.577-3.673-9.335 3.476-11.209.832 0 1.603-.233 1.358-1.225-.244-.993-1.003-1.005-1.811-.576l-.465-.098c.269-2.793-2.167-2.254-3.599-3.186-2.62-1.715-2.448-1.972-4.419.736-1.579 2.143-3.256 3.295-5.092.22.857-5.537 3.99-9.176 9.793-11.026-2.522-2.45-4.664-.098-6.72-.208.428-2.597 3.99-4.692 1.223-7.804 3.244-4.778 4.064-11.21 9.793-14.285a2.694 2.694 0 0 0 1.15-2.083c-.587-8.282 5.864-10.683 11.446-13.672 3.745-2.01 5.116-3.945 6.793-8.478.319-.857 1.077-3.957 4.53-3.001 2.68.747 5.96-.564 8.96-1.103.856-.147 2.264-.27 1.75-1.789-.306-.906-.796-1.935-2.081-1.85-2.216.16-6.12 2.549-3.831-3.025-1.58.122-3.17.122-4.725.392-.98.171-2.069.857-2.142-.772 0-1.225 1.224-1.422 2.13-1.801 2.73-1.225 6.303 2.658 8.568-1.397 1.028 0 2.044 0 2.264-1.348 2.681-2.254 7.173.6 9.793-3.552-3.403-.245-6.671.967-9.193-1.532.637-6.97 6.647-7.35 11.384-9.09a23.458 23.458 0 0 1 5.986-.833c1.469-.123 3.01-2.046 4.37-.208 1.358 1.837-.257 3.43-.845 5.084l-.245.061c-.49-.38-1.004-1.409-1.615-.404-.613 1.004.257 1.151 1.04 1.225.612 1.225 1.224 1.605 2.032.11a57.138 57.138 0 0 0 5.753-1.862c.93-.417 2.522-1.005 1.616-2.573-.478-.82 0-3.381-2.448-1.8-.772.502-1.898 0-1.665-.858.93-3.516 4.896-1.74 6.928-3.786 1.224-1.225 2.448-.6 2.754 1.434a28.57 28.57 0 0 0 1.224 5.831c1.433 4.227 4.897 5.538 8.679 3.37.624-.356 1.542-.785 1.652-1.324.674-3.259 5.851-8.061 9.242-8.576a2.335 2.335 0 0 1 2.448 1.323c1.689 4.178 4.15 2.598 7.088 1.556 4.896-1.727 3.672-3.528.281-5.942 2.595.294 3.88 1.924 5.105 3.553 1.383 1.838 3.415 2.45 5.128 1.41a4.904 4.904 0 0 0 1.873-4.093c-.404-2.45-2.938-.98-5.349-1.42 4.345-5.208 11.017-2.451 12.51-1.226 4.896 4.398 7.344-.686 10.747-1.323 2.559 2.315 3.672.22 4.897-1.605 1.848 1.74 7.907-1.715 5.912 4.79 1.603.502 3.476 1.764 4.786 1.323 2.693-.906.771-3.418.844-5.28 1.163-1.127 2.241.086 3.318.074.563 0 1.126-.11 1.689-.16-.208 0-.575 0-.6.147a3.387 3.387 0 0 0-.269 1.715c1.481 3.92 7.05 5.085 12.081 2.561 3.783 1.495 7.173 5.194 11.776 2.144 2.044-.502 3.44-2.708 5.851-2.242 1.665 2.744 7.051 1.225 6.953 6.224 0 1.078-.612 3.993 2.827 3.05 2.51-.686 4.603-2.818 4.688-4.214.221-3.884-2.448.306-3.806-.821-.919-.784 0-1.434-.331-2.083.649-2.78 3.672-3.026 5.202-4.79a14.33 14.33 0 0 1 2.13-1.14c.453-.146 1.616-.097.967.748-3.06 4.018 3.207 1.985 2.779 4.251-1.481 1.225-5.043-.086-4.492 2.83.612 3.308 4.149.686 4.688.392 6.377-3.455 11.934-2.279 17.626 1.642 1.567 1.078 4.015.257 4.897-2.205a1.573 1.573 0 0 1 1.24.732 1.586 1.586 0 0 1 .13 1.436c-2.79 6.395 1.506 6.873 5.937 7.35h-.122a8.247 8.247 0 0 0 7.691 5.426 8.23 8.23 0 0 0 3.252-.647c1.346-.515 2.693-1.752 3.464.085 1.102 2.659-1.714 1.9-2.791 2.696-1.077.796-4.174-.441-3.341 2.021.758 2.218 2.533.33 3.819-.453 4.333-2.671 9.107 1.286 12.913-.564-4.957 5.685 1.8 7.094 4.432 10.046-.992 1.911-4.223-.857-4.664 2.573 1.652 0 3.231 2.07 4.957-.184.796-.086 1.592-.184 2.387-.282 0 .76.355 1.078 1.102.944 3.782 6.211 6.855-.527 10.27-.784 1.065-.074 1.469-1.078 2.448.416 1.457 2.193-.845 1.299-1.151 1.875-1.224 2.352-4.492 4.41-.183 7.485 2.326 1.654-.514 3.577-2.106 4.778-2.546 1.911-5.79 3.528-.624 6.273 1.224.612.784 1.53-1.126 3.246-4.896 4.398-4.896 4.325.881 6.505 1.151.442 2.302 1.226 1.335 3.235-1.09 2.242.257 3.406 2.656 3.295.832 1.372-1.628 1.458-1.053 2.72l.612 1.152c-2.02 1.225-3.023 3.76-1.493 5.023 2.693 2.205 2.448-1.814 3.892-2.732.233-.147.159-.76.233-1.152a42.45 42.45 0 0 0 3.537 4.398c4.664 4.52-.93 8.87-.085 13.305-.416 0-.931-.22-1.224 0-2.338 1.433-9.316-.294-4.297 6.567.551.747-3.831 5.243-6.12 7.889-3.831 4.57-9.144 7.265-13.918 10.634-1.542 1.091-4.26 1.446-3.672 4.08.588 2.634 2.754 3.773 6.12 3.553-2.913 1.874-6.867 1.556-6.818 5.807 0 .845-.832 1.225-1.713 1.36-1.702.208.771-4.729-2.865-2.267-1.75 1.225-1.163 3.541-2.582 4.594a55.574 55.574 0 0 1-5.656 3.21c-2.362 1.372-5.643 2.45-.881 5.268 1.616.956-1.224 2.071-.71 3.418.551 3.038-1.604 3.859-3.819 4.484-2.216.625-1.861 2.316-1.959 3.81 0 .331.845.735 1.298 1.103 2.167-2.818 8.801-1.617 7.124-7.914a4.52 4.52 0 0 1 2.756.698 4.54 4.54 0 0 1 1.798 2.205 23.039 23.039 0 0 0 .391 8.502c-1.383.319-2.925 1.225-4.113.87-4.896-1.396-8.972.931-12.767 2.953-6.12 3.234-13.158 1.372-19.169 4.716-3.782 2.095-4.002 1.716-1.468 5.036.526.698.599 1.837-.282 1.911-3.415.318-5.765 4.643-10.515 1.372-2.191-1.519-8.274-3.59-11.273 1.972-1.224 2.279-3.085 3.835-2.791-.747a1.874 1.874 0 0 0-1.224-1.654c-1.922 2.597-7.002.196-7.663 4.815-.098.698.38 2.34-1.481 1.752-1.861-.588-3.672-1.225-3.109-4.496-1.224 4.03-1.053 8.159-7.002 5.537-1.224-.551-4.896 3.908-8.079 5.182.808-.931 2.681-.747 2.448-2.781-.428 1.372-4.81-1.372-2.264 2.818ZM15.619 75.736c-5.447 1.042-10.16 1.079-7.246 7.768a24.385 24.385 0 0 0 7.246-7.767Zm10.845-14.248c3.416.43 5.252-1.813 7.528-2.977 1.102-.55 1.53-1.531.87-2.45a2.056 2.056 0 0 0-2.767-.318 15.076 15.076 0 0 0-5.63 5.745Zm270.25 36.546c-.368.637-.931 1.225-.82 1.543a1.686 1.686 0 0 0 1.309.858 1.049 1.049 0 0 0 1.019-.411 1.045 1.045 0 0 0 .083-1.096c-.196-.429-.967-.54-1.591-.894Z" fill="url(#a)"/><defs><linearGradient id="a" x1="0" y1="103.5" x2="300" y2="103.5" gradientUnits="userSpaceOnUse"><stop stop-color="#F6D8B6"/><stop offset="1" stop-color="#F6D8B6" stop-opacity="0"/></linearGradient></defs></svg>