<svg width="14" height="44" fill="none" xmlns="http://www.w3.org/2000/svg"><path d="M.12 42.899a.162.162 0 0 0 .082.215l1.33.603a.162.162 0 1 0 .134-.295l-1.182-.537.536-1.182a.162.162 0 0 0-.295-.134l-.604 1.33Zm12.5-41.883c.977 10.033.537 16.869-.286 21.546-.822 4.675-2.027 7.197-2.591 8.618l.301.12c.563-1.415 1.78-3.968 2.61-8.682.829-4.711 1.269-11.577.289-21.634l-.323.032ZM9.742 31.18c-.559 1.405-1.83 3.9-3.523 6.255-1.697 2.36-3.798 4.549-6.007 5.379l.114.304c2.304-.866 4.452-3.123 6.157-5.493 1.708-2.376 2.992-4.896 3.56-6.325l-.301-.12Z" fill="#36332F"/></svg>