<svg width="100" height="115" fill="none" xmlns="http://www.w3.org/2000/svg"><path d="M.77 94.75a.458.458 0 0 0-.167.626l2.063 3.572a.458.458 0 1 0 .793-.458l-1.833-3.175 3.175-1.834a.458.458 0 0 0-.458-.794L.771 94.75Zm97.527-75.633C84.054 43.76 71.81 58.734 62.233 68.122c-9.571 9.384-16.481 13.195-20.112 15.529l.495.77c3.616-2.323 10.609-6.183 20.259-15.644 9.646-9.457 21.94-24.5 36.216-49.202l-.794-.458ZM42.121 83.65c-3.592 2.308-10.612 5.95-18.369 8.574-7.775 2.63-16.195 4.204-22.633 2.479l-.238.886c6.714 1.798 15.355.145 23.165-2.496 7.828-2.648 14.916-6.323 18.57-8.672l-.495-.771Z" fill="#36332F"/></svg>