<svg width="103" height="119" fill="none" xmlns="http://www.w3.org/2000/svg"><path d="M102.419 98.2a.475.475 0 0 1 .174.65l-2.136 3.699a.475.475 0 0 1-.823-.475l1.899-3.288-3.289-1.9a.475.475 0 0 1 .475-.822l3.7 2.137ZM1.411 19.868C16.162 45.391 28.845 60.9 38.762 70.622c9.913 9.72 17.07 13.667 20.83 16.083l-.513.799c-3.744-2.407-10.987-6.405-20.981-16.204-9.99-9.794-22.723-25.374-37.51-50.958l.823-.475Zm58.182 66.838c3.72 2.39 10.99 6.163 19.024 8.88 8.053 2.725 16.773 4.355 23.442 2.568l.246.917c-6.954 1.864-15.904.152-23.992-2.585-8.107-2.742-15.448-6.548-19.234-8.981l.514-.799Z" fill="#36332F"/></svg>