<svg width="2631" height="207" fill="none" xmlns="http://www.w3.org/2000/svg"><path d="M1495.61 195.43c-4.09.75-6.9 1.581-8.27 2.45 19.97.098 9.99 1.14 2.15 1.397-24.05.784 2.9 6.517-38.11 5.145-12.45-.416-6.44-1.948-2.36-3.467 5.8-2.156-21.47-3.945-31.56-3.246-44.98 3.234-98.76 0-144.93 3.357-27.37 2.021-24.15-2.671-35.1-4.619-15.67 9.311-88.89 2.352-128.82 5.709-5.05-.392-3.44-1.556-3.11-2.72.32-1.164 19.75-2.45 4.61-3.675-12.99-1.005-27.16-.27-37.68 1.115-16.74 2.205-40.9 3.307-56.46 5.758-12.89 2.009-26.519.539-38.972-1.752-14.922-2.744-32.957-5.832-67.094-6.236-24.369-.282-52.065 2.45-73.213-1.936-5.153-1.078-41.008 3.137-34.889 4.533 16.21 3.676-4.831 3.137-21.47 3.455-28.985.564-57.97 1.041-87.062 1.568-.751-.919 13.956-1.556 4.724-2.45-3.221-.319-13.419-.061-18.572.294-12.238.87-.751 1.58 2.791 2.34-1.057.282-1.535.588-1.395.894l-7.73.931-41.759.625c9.662-3.883 3.865-4.68-40.686-5.709 12.023-3.369 49.059-4.459 57.325-8.196-18.357-.845-39.719 1.813-57.647-.882-17.928-2.695-42.403 1.36-63.551-.772-23.618-2.45-30.595 1.299-42.941 2.23-22.758 1.715 6.012 2.193 10.735 3.345 6.334 1.764-10.735.588-14.707 1.151-17.82-.796-35.533-1.825-54.641-.6-2.791.184-5.046 1.286-3.221 1.507 5.727.838 13.523 1.461 22.383 1.788 8.859.328 18.375.345 27.321.049 32.956 5.048 87.49 5.146 120.232.147 26.945 3.002 5.797 4.901-12.023 6.886-57.54-1.226-115.831 3.442-171.761-.38 38.968-1.483 26.086-5.55 16.425-7.706-17.069-3.798-10.091-6.812 3.864-10.12 14.707-.71 35.963-1.09 14.17-3.675l10.736-1.507c8.051-.282 11.808.257 14.492.992l10.735.993c52.172 2.058 87.169.735 99.943-3.749 4.939-1.727 7.837-3.602-14.814-3.136-41.759.882-81.801-.87-122.809-.539l-5.797-1.005-3.757.331c3.435.184 6.87.38 10.735.563-17.391 5.991-37.143.686-55.93.16-3.573.03-7.161.03-10.735 0-10.735-.184-10.735-.858-3.435-1.458 57.647-4.607-4.079-4.656-19.001-5.44-16.639-.882-38.432 0-56.467.98-28.125 1.458-37.143-1.568-40.9-3.099-5.368-2.205 16.639-2.45 29.843-2.095 29.951.772 33.172-1.385 34.138-3.675 1.503-3.676-28.233.306-32.205-2.046 31.346-4.901 20.826-7.278-39.076-8.123a313.705 313.705 0 0 1-12.668-.355c1.611-5.758-44.872-6.052-72.032-8.674-27.159-2.622-42.296-5.231-39.29-10.891 2.898-5.391 32.205-5.084 50.455-8.037-18.894-.429-35.748-.845-52.817-1.225-9.232-.172-24.798.87-25.657-.919-.858-1.789 16.64-1.825 27.912-1.764 6.548-3.443-49.596-.392-31.669-4.607 15.137-3.577-32.205-9.335 30.488-11.209 7.3 0 14.063-.233 11.916-1.225-2.147-.993-8.803-1.005-15.888-.576l-4.08-.098c2.362-2.793-19-2.254-31.56-3.186-22.974-1.715-21.47-1.972-38.754.736-13.848 2.144-28.555 3.295-44.658.22 7.515-5.537 34.996-9.176 85.88-11.026-22.114-2.45-40.9-.098-58.935-.208 3.757-2.597 34.996-4.692 10.735-7.804 28.448-4.778 35.64-11.21 85.88-14.285 2.967-.236 5.42-.546 7.169-.907 1.75-.361 2.749-.763 2.922-1.176-5.152-8.281 51.421-10.683 100.373-13.672 32.85-2.01 44.873-3.945 59.58-8.478 2.791-.857 9.447-3.957 39.72-3.001 23.509.747 52.279-.564 78.58-1.103 7.515-.147 19.86-.27 15.351-1.788-2.683-.907-6.977-1.936-18.249-1.85-19.43.159-53.675 2.548-33.601-3.027-13.848.123-27.804.123-41.437.393-8.588.171-18.143.857-18.787-.772 0-1.225 10.736-1.421 18.68-1.801 23.939-1.225 55.285 2.658 75.145-1.397 9.017 0 17.927 0 19.86-1.347 23.509-2.255 62.907.6 85.88-3.553-29.843-.245-58.506.968-80.62-1.532 5.582-6.97 58.291-7.35 99.836-9.09a1743.71 1743.71 0 0 1 52.495-.833c12.882-.123 26.408-2.046 38.324-.208 11.915 1.837-2.255 3.43-7.408 5.084l-2.147.061c-4.294-.38-8.802-1.409-14.17-.404-5.367 1.005 2.255 1.151 9.125 1.225 5.368 1.225 10.735 1.605 17.82.11a3801.13 3801.13 0 0 0 50.455-1.862c8.158-.416 22.114-1.005 14.17-2.573-4.186-.82 0-3.381-21.47-1.8-6.763.502-16.639 0-14.599-.858 8.158-3.516 42.94-1.74 60.76-3.786 10.735-1.225 21.47-.6 24.154 1.434 1.786 1.98 5.384 3.935 10.735 5.831 12.56 4.227 42.94 5.538 76.112 3.37 5.474-.356 13.525-.785 14.492-1.324 5.904-3.259 51.313-8.061 81.05-8.576 4.348-.07 8.782.02 12.647.258 3.865.238 6.958.611 8.823 1.065 14.814 4.178 36.392 2.598 62.16 1.556 42.94-1.727 32.2-3.528 2.46-5.941 22.76.294 34.03 1.923 44.77 3.552 12.13 1.838 29.95 2.45 44.98 1.41 5.4-.483 9.71-1.107 12.57-1.819 2.86-.712 4.18-1.491 3.85-2.274-3.54-2.45-25.76-.98-46.91-1.42 38.11-5.208 96.62-2.451 109.71-1.226 42.94 4.398 64.42-.686 94.26-1.323 22.43 2.315 32.2.22 42.94-1.605 16.21 1.74 69.35-1.715 51.85 4.79 14.06.503 30.49 1.764 41.97 1.323 23.62-.906 6.77-3.418 7.41-5.28 10.2-1.127 19.65.086 29.09.074 4.94 0 9.88-.11 14.82-.16-1.83 0-5.05 0-5.26.147-2.09.539-2.9 1.13-2.36 1.716 12.98 3.92 61.83 5.084 105.95 2.56 33.17 1.495 62.91 5.194 103.27 2.144 17.93-.502 30.17-2.708 51.31-2.242 14.6 2.744 61.84 1.225 60.98 6.224 0 1.078-5.37 3.993 24.8 3.05 22-.686 40.36-2.818 41.11-4.214 1.94-3.884-21.47.306-33.38-.821-8.05-.784 0-1.433-2.9-2.083 5.69-2.78 32.2-3.026 45.62-4.79 5.94-.44 12.19-.82 18.68-1.14 3.97-.146 14.17-.097 8.48.748-26.84 4.018 28.13 1.985 24.37 4.251-12.99 1.225-44.23-.086-39.4 2.83 5.37 3.308 36.4.686 41.12.392 55.93-3.455 104.67-2.279 154.58 1.642 13.74 1.078 35.21.257 42.94-2.205 2.2.014 4.33.089 6.22.216 1.89.127 3.49.304 4.67.516 1.17.212 1.89.453 2.08.702.2.25-.12.502-.94.734-24.48 6.395 13.2 6.873 52.06 7.35h-1.07c3.35 1.051 8.53 2.013 15.24 2.827 6.7.815 14.79 1.465 23.76 1.912 8.98.447 18.66.68 28.45.688 9.79.006 19.5-.214 28.52-.648 11.81-.515 23.62-1.752 30.38.085 9.66 2.659-15.03 1.9-24.48 2.696-9.44.796-36.6-.441-29.3 2.021 6.65 2.218 22.22.33 33.49-.453 38-2.67 79.87 1.286 113.26-.564-43.48 5.685 15.78 7.094 38.86 10.046-8.7 1.911-37.04-.857-40.9 2.573 14.49 0 28.34 2.07 43.47-.184 6.98-.086 13.96-.184 20.94-.282 0 .76 3.11 1.078 9.66.944 33.17 6.211 60.11-.527 90.07-.784 9.33-.074 12.88-1.078 21.47.416 12.77 2.193-7.41 1.299-10.1 1.875-10.73 2.352-39.39 4.41-1.61 7.485 20.4 1.654-4.5 3.577-18.46 4.778-22.33 1.911-50.78 3.528-5.47 6.273 10.73.612 6.87 1.53-9.88 3.246-42.94 4.398-42.94 4.325 7.73 6.505 10.09.442 20.18 1.226 11.7 3.235-9.55 2.242 2.25 3.406 23.29 3.295 7.3 1.372-14.27 1.458-9.23 2.72l5.37 1.152c-17.71 1.225-26.52 3.76-13.1 5.023 23.62 2.205 21.47-1.814 34.14-2.732 2.04-.147 1.4-.76 2.04-1.152 9.47 1.543 19.84 3.012 31.02 4.398 40.91 4.52-8.15 8.87-.75 13.305-3.65 0-8.16-.22-10.73 0-20.51 1.433-81.7-.294-37.68 6.566 4.83.748-33.6 5.244-53.68 7.89-33.6 4.57-80.19 7.265-122.05 10.634-13.53 1.091-37.36 1.446-32.21 4.08 5.15 2.634 24.15 3.773 53.68 3.553-25.55 1.874-60.23 1.556-59.8 5.807 0 .845-7.3 1.225-15.03 1.36-14.92.208 6.77-4.729-25.12-2.267-15.35 1.225-10.2 3.541-22.65 4.594-15.97 1.18-32.53 2.251-49.6 3.21-20.71 1.372-49.48 2.45-7.72 5.268 14.17.956-10.74 2.07-6.23 3.418 4.83 3.038-14.06 3.859-33.49 4.484s-16.32 2.315-17.18 3.81c0 .331 7.41.735 11.38 1.103 19-2.818 77.18-1.617 62.48-7.914 8.5-.07 16.98.175 24.17.698 7.19.523 12.72 1.296 15.76 2.205-3.49 2.834-2.32 5.717 3.44 8.502-12.13.319-25.66 1.225-36.07.87-42.94-1.396-78.69.931-111.97 2.953-53.68 3.234-115.4 1.372-168.11 4.716-33.17 2.095-35.1 1.716-12.88 5.036 4.61.698 5.26 1.837-2.47 1.911-29.95.318-50.56 4.643-92.22 1.372-19.21-1.519-72.57-3.59-98.87 1.972-10.73 2.279-27.05 3.835-24.47-.747-.18-.365-1.3-.716-3.2-1.01-1.91-.294-4.53-.518-7.54-.644-16.85 2.597-61.4.196-67.2 4.815-.86.698 3.33 2.34-12.99 1.752-16.32-.588-32.2-1.225-27.27-4.496-10.73 4.03-9.23 8.159-61.4 5.537-10.74-.551-42.94 3.908-70.85 5.182 7.08-.931 23.51-.747 21.47-2.781-3.76 1.372-42.19-1.372-19.86 2.818ZM136.979 75.737c-47.77 1.04-89.1 1.078-63.551 7.767 25.928-2.025 47.627-4.677 63.551-7.767Zm95.113-14.248c29.951.428 46.053-1.814 66.021-2.977 9.661-.552 13.418-1.532 7.621-2.45-2.957-.391-7.092-.64-11.586-.7-4.494-.059-9.017.077-12.675.38-20.717 1.37-37.785 3.356-49.381 5.747ZM2602.18 98.034c-3.22.637-8.16 1.225-7.19 1.543 1.16.238 2.82.441 4.82.59 2 .149 4.28.241 6.66.268 1.68.033 3.4.012 4.98-.06 1.58-.073 2.95-.194 3.96-.351 1-.157 1.6-.343 1.73-.536.13-.194-.22-.388-1.01-.56-1.71-.429-8.48-.54-13.95-.894Z" fill="#F6D8B6"/></svg>