<svg width="100" height="81" fill="none" xmlns="http://www.w3.org/2000/svg"><path fill-rule="evenodd" clip-rule="evenodd" d="M.006 39.885v-.214c.048-1.98.034-3.952.144-5.925.096-1.67.371-3.328.481-4.998.207-3.272 1.183-6.373 2.063-9.487A47.308 47.308 0 0 1 7.162 9.115a10.676 10.676 0 0 1 5.548-4.771 43.389 43.389 0 0 1 7.122-1.911c1.553-.344 3.155-.468 4.647-1.087a.949.949 0 0 1 .797 0c.55.301 1.185.405 1.801.296.372 0 .75-.344 1.1-.57C28.823.658 29.511.26 30.24.57c.69.294 1.454.363 2.186.199.225-.051.458-.063.687-.034l1.85-.07c.212-.144.419-.384.632-.391.605.02 1.208.07 1.808.151V.57l.742-.035A1.629 1.629 0 0 1 39.623.48l3.438-.137a29.25 29.25 0 0 1 7.561-.179c1.155.117 2.303.392 3.438.474 1.271.097 2.55.076 3.829.083a7.858 7.858 0 0 0 2.426-.2 7.72 7.72 0 0 1 2.393-.213c.782.03 1.562.122 2.33.275.866.158 1.767.172 2.454.908.22.234.688.24 1.073.323.421.024.838.095 1.244.213.797.364 1.808-.069 2.488.687h.103a9.404 9.404 0 0 1 3.1.482c2.613.687 5.191 1.498 7.776 2.296 1.829.563 3.06 1.91 4.125 3.437 1.374 1.966 2.11 4.269 3.024 6.469.37.894.678 1.813.922 2.75.385 1.443.625 2.928 1.044 4.358.42 1.69.685 3.417.79 5.156.207 2.02.317 4.049.455 6.07.106 1.094.154 2.193.144 3.293-.048 1.533-.24 3.059-.337 4.592-.048.804 0 1.608 0 2.475.543 0 .97-.076 1.375-.076.688-.02 1.377.003 2.062.069a2.633 2.633 0 0 1 2.31 2.179c.069.9-.302 1.815-.069 2.75 0 .103-.13.247-.192.371-.853 1.691-2.207 2.021-3.747 1.74l-2.502-.475c-.062 1.107-.124 2.062-.172 3.08a1.313 1.313 0 0 0 .79 1.292c.442.21.903.379 1.376.502.618.165 1.271.213 1.883.392 1.258.385 2.276.962 2.75 2.399.591 1.815.578 3.664.688 5.5.096 1.629-1.087 2.454-2.75 2.186a1.293 1.293 0 0 0-.502.075c-1.203.371-1.952-.13-2-1.375v-2.138c0-1.773 0-1.773-1.692-2.282a.283.283 0 0 0-.13 0 9.63 9.63 0 0 0-1.416 1.375c-.317.44-.62.735-1.128.687-.598 2.097-1.086 4.07-1.725 5.988a10.421 10.421 0 0 1-2.448 4.125c-.59.598-1.43.969-1.725 1.842-.034.09-.151.158-.24.213a17.717 17.717 0 0 1-4.648 2.11c-1.443.4-2.928.612-4.372.99a51.813 51.813 0 0 1-7.988 1.478 1.8 1.8 0 0 0-.894.303 4.18 4.18 0 0 1-2.365.914c-1.56.117-3.127.186-4.688.206a1.904 1.904 0 0 1-1.072-.398 2.22 2.22 0 0 0-1.698-.44c-.922.096-1.85.178-2.75.185-2.922 0-5.85.062-8.765 0-2.53-.061-5.06-.288-7.562-.405-3.01-.138-5.974-.756-9.033-.433a13.157 13.157 0 0 1-5.465-.688c-1.086-.357-2.124-.825-3.21-1.168-1.802-.557-3.603-1.121-5.438-1.554-2.214-.523-4.338-1.176-6.09-2.688a3.106 3.106 0 0 1-.613-.729c-.37-.598-.687-1.223-1.065-1.835a27.201 27.201 0 0 1-1.56-2.681 36.023 36.023 0 0 1-2.338-7.026c-.24-1.114-.399-2.248-.687-3.355-.29-1.106-.165-2.137-.97-2.976a.426.426 0 0 1-.034-.406c.371-.55.103-1.12 0-1.657-.67-4.09-.981-8.23-.928-12.373Z" fill="#A77F51"/><path fill-rule="evenodd" clip-rule="evenodd" d="M1.759 38.681c2.593.535 5.27.504 7.85-.089.544-.151.585-.275.475-1.162-2.592.743-5.19 1.197-7.789-.096a9.8 9.8 0 0 1 1.492 0c1.98.27 3.995.106 5.905-.481.2-.055.488-.337.467-.468a1.231 1.231 0 0 0-.44-.646.832.832 0 0 0-.515-.103c-2.241-.076-4.49-.151-6.73-.213a2.452 2.452 0 0 0-.426.062c-.282.687-.633 1.43-.873 2.193-.193.625-.014.907.584 1.004Zm.46 1.74a70.49 70.49 0 0 0 3.438.13H9.78c.117-.556.193-.955.282-1.375a37.663 37.663 0 0 1-4.393.599 35.278 35.278 0 0 1-4.317-.42c-.007.825.124 1.018.86 1.066h.006ZM1.21 29.786l.942.57c-.344.537-.928 1.011-.557 1.83 1.65.309 3.313.728 4.606 1.993-1.595-.255-3.039-.983-4.572-1.45-.37 1.326-.048 1.766 1.196 1.78.372 0 .743.144 1.121.178 1.973.167 3.96-.015 5.87-.536.248-.062.241-.075.379-.687-2.942.082-5.28-1.767-8.133-2.365a.955.955 0 0 1 1.135-.323c1.21.302 2.413.64 3.609.97 1.03.281 2.062.59 3.086.852.543.137.57.075.605-.764a11.776 11.776 0 0 1-4.062-1.594c0-.083.034-.158.048-.234.605.09 1.216.137 1.808.282.59.144 1.285.412 1.925.632a.688.688 0 0 0 .92-.282c.22-.419.076-.687-.398-.728-.11-.688-.646-.653-1.134-.646-2.503.055-4.998.11-7.494.185a3.937 3.937 0 0 0-.9.337Zm1.334-2.709c.69.498 1.42.941 2.179 1.327a6.69 6.69 0 0 0 1.91.2c0-.07.042-.145.056-.213a3.085 3.085 0 0 0-.392-.275c-.344-.193-.687-.351-1.038-.544-.35-.192-.866-.488-.687-1.051.178-.564.639-.495 1.072-.51a8.25 8.25 0 0 1 3.698.888c.392.178.757.398 1.135.605a.578.578 0 0 0 .873-.22 13.49 13.49 0 0 0-3.479-1.306 15.126 15.126 0 0 0-4.33-.475 1.69 1.69 0 0 0-.736.096 1.52 1.52 0 0 0-.591.688c-.159.31 0 .591.33.79Zm.983 1.61-1.313-.833c0 1.155.123 1.238 1.313.832Zm4.564-.482c.688.337.825.268 1.43-.364a6.42 6.42 0 0 0-3.801-.983c.79.453 1.56.948 2.371 1.347ZM2.11 24.45c.274.688.687.495 1.065.44 1.02-.158 2.06-.158 3.08 0a11.31 11.31 0 0 1 4.984 1.733c.135.054.275.093.42.117.06-.385.13-.75.192-1.114l-2.929-.956c1.21-.556 2.062.035 2.97.172.302-.502.24-.81-.289-1.03a3.437 3.437 0 0 0-1.856-.29c-1.334.186-2.688.248-4.035.365-.887.075-1.774.137-2.654.254a4.81 4.81 0 0 0-.949.31Zm10.194-3.018a3.267 3.267 0 0 0-2.392.95c.687.55.763-.406 1.244-.393.424-.05.838-.162 1.23-.33l-.082-.227Zm.42-.893c.034-.248.082-.543.144-.976a18.053 18.053 0 0 0-6.943 3.272c0 .096.055.2.09.296.797-.117 1.594-.22 2.391-.351a.763.763 0 0 0 .434-.282c.934-1.306 2.31-1.712 3.884-1.96ZM4.11 19.358c-.316.577-.605 1.161-.907 1.746l.192.185c.268-.13.543-.234.797-.385.942-.564 1.912-1.1 2.819-1.725a3.328 3.328 0 0 1 2.983-.481c-.412.199-.838.364-1.223.59-.853.51-1.67 1.073-2.53 1.568-.86.495-1.746.956-2.633 1.41-.364.178-.687.336-.735.845a.859.859 0 0 0 1.299.09c.536-.413 1.08-.819 1.622-1.224a17.04 17.04 0 0 1 6.875-3.108c.233-.06.462-.134.687-.22-.124-.343-.22-.632-.31-.893a1.152 1.152 0 0 0-.233-.103 54.17 54.17 0 0 0-7.466.412c-.392.034-.687.13-.728.605-.097.247-.344.447-.509.688Zm9.322-3.362-.832.247c.385.248.385.248.832-.247Zm-7.02-3.637c-.363.997-.687 1.898-1.072 2.95.688-.585 1.238-1.08 1.808-1.534 1.17-.934 1.17-.928 2.695-1.182l-5.156 4.358 1.176.392c2.647-3.176 6.427-4.516 10.105-6.187-.687-.687-1.32-.392-1.931-.344-.494.072-.983.173-1.465.303l-5.238 1.01c-.31.049-.68.165-.921.234Zm1.115-1.285c1.127-.207 2.151-.557 3.19-.832h.061c-.048.31 0 .55.481.536l-.48-.536v-.048h-.083a20.21 20.21 0 0 0-2.021-.303c-.805-.013-.873.083-1.148 1.183ZM9.493 8.22c-.605.062-.818.447-1.066.887 1.45.275 2.798.543 4.125.783.245.046.497.031.735-.04.688-.241 1.375-.523 2.063-.798a18.856 18.856 0 0 0-5.857-.832Zm.625-.99 5.864.928a1.375 1.375 0 0 0 1.705-.687 2.704 2.704 0 0 0-.57-.2c-1.836-.185-3.685-.344-5.5-.543a1.581 1.581 0 0 0-1.499.502Zm2.99-2.193c-.433.22-.88.42-1.326.632l.041.269c1.925.178 3.815.687 5.775.55a.99.99 0 0 0 .962-.523 6.42 6.42 0 0 1 .756-.921c-.13-.096-.22-.2-.275-.186a7.947 7.947 0 0 1-3.684-.137 3.286 3.286 0 0 0-2.248.316Zm3.507-.976h3.602l.687-1.1c-1.447.244-2.87.612-4.255 1.1h-.034Zm6.187-.743a2.95 2.95 0 0 0-2.33 1.41 63.89 63.89 0 0 0-3.548 5.424c-.253.46-.467.94-.64 1.436-.15.35-.274.688-.412 1.08a.963.963 0 0 0-1.333-.124c-1.43.784-2.88 1.547-4.29 2.358-.804.46-1.554 1.003-2.324 1.52a.831.831 0 0 0-.357.549l4.592-.653v-.144c0-.049-.172-.049-.261-.062-.371-.035-.853.117-1.031-.344-.18-.46.192-.811.536-1.045a9.95 9.95 0 0 1 1.656-.956c.922-.405 1.884-.735 2.826-1.1-.2.599-.406 1.197-.646 1.898-1.375-1.148-2.124.11-3.108.502.853.454 1.664-.619 2.626.103a5.12 5.12 0 0 1-.213 1.086 10.526 10.526 0 0 0-.907 4.42 2.18 2.18 0 0 1-.186.825 24.274 24.274 0 0 0-1.25 6.277 208.431 208.431 0 0 0-.688 9.493c-.069 1.733-.323 3.438-.337 5.19 0 .337-.227.75.213.956.57.275.543-.42.852-.447h3.795c.048 0 .096-.165.22-.385-.364-.034-.687-.09-.949-.096-.81 0-1.629.034-2.44 0a1.114 1.114 0 0 1-.688-.35c-.068-.076.07-.51.18-.544.276-.104.582-.104.859 0 1.237.77 1.216.777 2.406-.055a2.52 2.52 0 0 1 .742-.24v-.234c-.687.041-1.32.13-1.98.11-.66-.02-1.375-.138-2.186-.22 0-.344.055-.605.083-.935a1.373 1.373 0 0 1 1.127.193 1.575 1.575 0 0 0 1.774.11c.385-.186.797-.296 1.271-.468v-.364h-1.993c-.66 0-1.375-.048-2.063-.076v-1.052c1.32-.185 2.633.488 3.781-.069a18.56 18.56 0 0 0 .489-4.812l-4.228-.33c0-.343.069-.687.11-1.072l4.076.303c.055-.296.096-.564.151-.901-1.079-.151-2.062-.275-3.1-.433-.687-.117-.777-.227-.777-1.045.633.048 1.272.082 1.898.165.625.082 1.244.213 1.959.344l.096-1.334a18.179 18.179 0 0 0-1.877-.378 18.631 18.631 0 0 0-1.966 0v-.777h3.912c.069-.206.179-.515.33-.955l-3.884-.372c-.09-.928-.09-.983.57-.955.922 0 1.843.123 2.75.227.509.061.86 0 .75-.633l-3.953-.282c.075-.426.137-.756.206-1.134 1.375-.137 2.626.31 4.008.57.069-.384.137-.756.233-1.271l-1.938-.041h-2.014c.068-.385.123-.688.185-.997h3.94l.357-.915-3.76.234c-.33-.955-.31-.996.474-1.051a15.945 15.945 0 0 1 1.815-.11 9.863 9.863 0 0 1 1.512.309c.069-.447.144-1.01.248-1.719-1.087.248-2.063.062-3.011.358-.736.227-.929 0-.908-.928 1.313-.509 2.75-.31 4.18-.488l.426-1.21h-4.001c.09-.378.151-.688.227-.983h3.987c.09-.365.186-.73.282-1.093l.687-1.485c.385-.88.784-1.753 1.162-2.633.08-.26.145-.524.193-.79h-3.362c-.192-.571-.069-.936.495-.97a29.003 29.003 0 0 1 2.564-.034c.206 0 .413.206.688.37.178-.322.35-.645.577-1.072-1.162-.35-2.268-.192-3.348-.281.268-1.032.275-1.073 1.19-.963.914.11 1.67.296 2.626.474.158-.35.336-.749.584-1.278l-2.88-.186c-.056-.893.048-1.003.783-.914.426.055.853.076 1.272.165.407.11.809.24 1.203.392l.804-1.279a3.3 3.3 0 0 0-2.337-.784h-.034Zm-5.933 38.098c.17.07.348.118.53.145.047 0 .144-.138.144-.206a.282.282 0 0 0-.152-.22c-.02-.028-.123.068-.501.281h-.021Zm2.592 14.987a.811.811 0 0 0 1.086.364l6.414-1.67a5.693 5.693 0 0 1 2.894.055c-1.183.776-4.386 1.698-9.37 2.68.158.22.261.51.426.558a2.523 2.523 0 0 0 2.18-.07 11.914 11.914 0 0 1 4.179-1.56c2.014-.447 4.049-.86 6.098-1.113a20.952 20.952 0 0 1 3.939 0c.488 0 1.051-.165 1.505.281.11.104.454-.034.804-.068l-.398-.557h5.953c-.777.756-1.63.9-5.231 1.024l4.262 1.107c0-1.203.096-1.327 1.292-1.506.42-.061.839-.144 1.265-.192.426-.048.564-.24.516-.742a6.637 6.637 0 0 0-.887-.152c-2.493-.096-4.991-.185-7.493-.268-2.99-.096-5.988-.165-8.985-.268-1.78-.062-3.568-.13-5.342-.268-1.244-.09-2.481-.31-3.719-.454-1.01-.117-1.01-.103-1.904.543l.591 1.416c1.719-1.072 3.637-.618 5.5-.687-1.691.962-3.65 1.059-5.555 1.547h-.02Zm7.183 12.834c-.852-.089-1.698-.165-2.543-.275a9.474 9.474 0 0 0-1.65-.192c2.812 1.038 5.809.88 8.703 1.416l.062-.206-1.987-.688-1.993-.687v-.034h-.131l-3.293-1.094v-.15c.412.054.818.13 1.23.164 2.1.178 4.165.64 6.14 1.375.831.31 1.711.474 2.57.688l.62.165c1.051.323 1.14.721.288 1.629l1.017.09c.523-1.046 1.471-1.1 2.393-1.066.625 0 1.313.137 1.374 1.079.5-.095.993-.216 1.478-.364a15.926 15.926 0 0 1 4.125-1.045c.076 0 .138-.09.2-.152h.068l.042-.034 1.333-.069h.069l.22-.062.887-.178v-.09l-.86.268-.247.042h-.041a1.471 1.471 0 0 0-1.334.068h-.069l-.04.035-2.916.261a25.338 25.338 0 0 1-7.94-.79 54.635 54.635 0 0 1-2.378-.599 3.66 3.66 0 0 1-1.018-.46 17.832 17.832 0 0 1 5.41.213c2.249.55 4.563.78 6.875.687 2.062-.165 4.125-.26 6.187-.405a.688.688 0 0 0 .502-.365 2.966 2.966 0 0 0-.536-.075l-2.998.137c-.611 0-1.196-.364-1.711-.357-.516.007-1.128.206-1.719.165-1.416-.117-2.846-.165-4.255-.358-4.414-.59-8.937-.185-13.295-1.203a21.756 21.756 0 0 0-3.08-.343 8.237 8.237 0 0 0-1.052.061 1.898 1.898 0 0 0 1.746 1.41c1.059.13 2.063.433 3.142.639.266.042.535.06.804.055l.103.034c.117.475-.02.709-.481.66h-.02Zm-2.963 1.3.33.385c.032-.029.062-.058.09-.09-.11-.123-.227-.24-.344-.364l-.076.069Zm10.532 2.887a3.499 3.499 0 0 0-.77-.31c-2.165-.206-4.33-.384-6.49-.57l-2.433-.227c1.464.736 7.789 1.41 9.714 1.107h-.02Zm-9.143.447c2.269.873 4.633.804 7.005.687l-7.005-.687Zm8.47-3.438-1.664-.364c1.003.976 1.155 1.045 1.684.358l-.02.007Zm-1.953.915a1.858 1.858 0 0 0 1.774.103 2.667 2.667 0 0 0-1.753-.124l-.021.02Zm-6.283-.846c.24.557.742.495 1.224.516.967.09 1.94.09 2.907 0l-2.138-.268c-.687-.097-1.292-.44-1.993-.22h-.041a.688.688 0 0 0-.929.082l.97-.11Zm11.185 3.046a1.726 1.726 0 0 0-.867.336c-.35.214-.687.378-1.113.035-.083.295-.124.454-.151.557l5.76-.488v-.207c-1.189-.103-2.399-.22-3.609-.254l-.02.02Zm2.144-1.967a1.884 1.884 0 0 0-2.165-.15c.708.2 1.452.244 2.18.13l-.015.02Zm10.683 2.798a2.88 2.88 0 0 0-1.086 0v.172l4.95 1.375.082-.254c-1.21-.64-2.653-.736-3.925-1.313l-.02.02Zm4.812-3.918-.893.055c.33.323.632.33.907-.09l-.014.035Zm-2.75 2.062c-.089-.412-.15-.832-.687-.776-1.107.13-2.207.309-3.306.467v.31h3.994Zm-1.25-1.732.446-.041c-.97-.688-6.805.165-8.655 1.271.908.083 1.705.172 2.496.227a.9.9 0 0 0 .495-.158 11 11 0 0 1 5.252-1.333l-.035.034Zm0-1.12a1.376 1.376 0 0 0-1.21 0h1.21Zm-1.63-4.744c.289-.041.688 0 .488-.653-.598.172-1.182.406-1.787.516-.921.158-1.856.226-2.784.343-.591.083-1.183.186-1.767.268-.412.055-.818.083-1.224.138-1.69.227-3.258-.426-4.88-.688-1.197-.185-2.393-.357-3.582-.556a2.136 2.136 0 0 1-.77-.269c-.42-.254-.79-.178-1.375.07a10.911 10.911 0 0 0 3.891 1.154c.206 0 .454-.069.619 0 1.182.646 2.488.46 3.746.605a8.47 8.47 0 0 1 1.554.344 2.517 2.517 0 0 0 1.622.069c.423-.086.862-.05 1.265.103a6.435 6.435 0 0 0 3.252-.124c.852-.179 1.725-.289 2.585-.426v-.31c-.784-.35-1.63.433-2.489-.082a3.286 3.286 0 0 1 1.636-.502Zm-4.124-1.279c-1.272.138-2.55.2-3.83.268-.488 0-.976 0-1.47.062a5.1 5.1 0 0 0 3.079.516 33.965 33.965 0 0 0 6.654-1.471s.035-.062.083-.158c-2.702-.296-5.348-.832-8.064-.688-1.711.069-3.279.757-4.901 1.203v.213l2.097.31a1.1 1.1 0 0 1 1.14-.873c1.733-.117 3.438-.282 5.198-.413.23.008.46.036.687.083.117.735.062.852-.673.948Zm-21.311.922c1.065.089 2.138.055 3.19.199 1.189.172 2.357.488 3.54.729.591.117 1.19.192 1.78.302.2.041.475.055.564.186.2.282.371.185.474 0 .103-.186-.068-.323-.171-.44a.557.557 0 0 0-.386-.158c-1.663 0-3.182-.688-4.764-1.059-2.11-.502-4.227-.364-6.351-.371v.295c.7.11 1.409.255 2.13.317h-.006Zm.687-1.513a7.396 7.396 0 0 0-3.272-.172c1.093.921 2.124-.02 3.28.172h-.008Zm-3.265-1.512c.096.316.405.268.687.282.57.025 1.132.143 1.664.35a3.968 3.968 0 0 0 2.062.255c2.4-.303 4.812-.612 7.198-.88 1.45-.158 2.908-.248 4.358-.371a23.896 23.896 0 0 1-8.593 1.91c.502.53.956.372 1.334.447.378.076.756.138 1.223.22.124-.653.633-.605 1.183-.687a15.934 15.934 0 0 0 3.437-.688 31.707 31.707 0 0 1 4.929-1.175c.99-.134 1.994-.134 2.983 0 1.877.165 3.747.412 5.686.633.068-.461 0-.736-.502-.77-3.98-.282-7.954-.688-11.969-.454a61.3 61.3 0 0 1-11.109-.44c-1.024-.124-2.062-.275-3.059-.385a5.628 5.628 0 0 0-.893.062c.419.969 1.326.454 1.876.866a7.766 7.766 0 0 0 1.801.75v.247c-.307.048-.62.048-.928 0-.838-.282-1.656-.647-2.495-.935a.894.894 0 0 0-.742.041c-.152.138-.186.516-.124.722h-.007Zm23.373-38.62a13.87 13.87 0 0 0 4.812-.358c.274-.104.53-.253.756-.44 0-.076 0-.151-.048-.227a3.333 3.333 0 0 0-.79-.172c-3.066.083-6.132.186-9.198.275h-.75a28.874 28.874 0 0 0-5.492.303c-.918.032-1.836.007-2.75-.076-2.922.041-5.843.117-8.765.165-1.21 0-1.76 0-2.303 1.85-.165.542-.282 1.092-.44 1.725l2.337 1.375.138-.131a3.646 3.646 0 0 0-.337-.385 2.745 2.745 0 0 0-.426-.323c-.179-.117-.365-.22-.55-.337a1.12 1.12 0 0 1-.688-1.217c.097-.57.31-.756.88-.618a5.38 5.38 0 0 1 1.375.494c1.093.688 2.172 1.375 3.21 2.11 1.038.736.942.723 2.407.496l-6.462-3.946a1.822 1.822 0 0 1 2.144.2c1.575.982 3.149 1.965 4.737 2.921 1.588.956 3.568 1.031 5.5.914-1.506-.653-3.032-1.265-4.517-1.973-1.485-.708-2.95-1.533-4.4-2.392a3.149 3.149 0 0 1 2.33.158c1.479.798 2.977 1.54 4.455 2.337a16.217 16.217 0 0 0 6.084 1.939c1.375.144 2.812.206 4.221.268 1.815.083 3.63.083 5.452.103.35 0 .825.165.852-.495-2.138-.055-4.262.048-6.352-.2a31.241 31.241 0 0 1-6.235-1.422 49.794 49.794 0 0 1-5.85-2.592 2.68 2.68 0 0 1 2.392.165c1.86.99 3.83 1.756 5.87 2.283a29.45 29.45 0 0 0 4.813 1.079c1.28.09 2.563.09 3.843 0h1.629c.083-.426.151-.853.248-1.375-.33 0-.537 0-.73.055-3.505.646-6.942.605-10.249-.97-1.086-.522-2.241-.886-3.54-1.374a2.75 2.75 0 0 1 2.186-.103c.646.295 1.333.508 1.973.818a12.573 12.573 0 0 0 4.62 1.237c1.744.171 3.505.083 5.224-.261.75-.172 1.052-.495 1.3-1.512a26.89 26.89 0 0 1-3.012.529c-1.03.06-2.065.016-3.087-.13-1.01-.138-1.993-.44-2.99-.688 1.45-.57 2.798-.296 4.173-.083Zm-2.901-7.088c1.471.42 2.928.886 4.42 1.244a27.2 27.2 0 0 0 3.259.509c1.017.11 1.374-.145 1.65-1.1.446-1.375.226-1.67-1.293-1.63-1.952.042-3.911.207-5.864.117a45.757 45.757 0 0 0-6.51.269c-1.19.11-2.42-.207-3.609-.097-2.667.248-5.328.035-7.988.172-.916.068-1.822.236-2.702.502a2.75 2.75 0 0 0-1.601 1.306c.226.048.35.124.46.103a26.198 26.198 0 0 1 14.1 1.1c1.374.523 2.75 1.176 4.172 1.63 1.186.382 2.41.633 3.65.749 1.774.144 3.555.096 5.335.103.33 0 .832.185.86-.495a1.578 1.578 0 0 0-.413-.062c-2.908.289-5.658-.474-8.387-1.3-2.557-.77-5.087-1.635-7.63-2.46a3.84 3.84 0 0 1-.46-.193c.013-.063.032-.125.054-.185.39.004.781-.019 1.169-.07a6.084 6.084 0 0 1 3.533.571 43.996 43.996 0 0 0 7.562 2.33c1.587.292 3.2.416 4.812.372.096-.289.165-.515.234-.722-.117-.069-.172-.137-.227-.13-2.5.095-4.994-.33-7.321-1.252-1.01-.412-2.11-.625-3.176-.941a2.676 2.676 0 0 1-.839-.399 5.074 5.074 0 0 1 2.75-.041Zm1.169-6.717c1.388.425 2.803.76 4.234 1.004 1.54.31 3.087.557 4.634.818.405.069.852.179 1.093-.447-2.345-.625-4.744-.893-6.95-1.89 2.495.192 4.922.928 7.513.866l.468-1.224c-.4-.082-.804-.142-1.21-.178-4.812-.172-9.624-.351-14.436-.475-1.444-.04-2.895.069-4.338.11-1.444.042-2.86 0-4.276.11s-2.681.399-4.015.612a.736.736 0 0 0-.213.041c-.296.11-.687.193-.577.626.11.433.412.296.687.275a33.64 33.64 0 0 1 3.802-.268c1.346.087 2.686.25 4.014.488a54.16 54.16 0 0 1 3.163.522c1.044.213 2.268.516 3.396.784 1.299.303 2.598.646 3.904.9 1.306.255 2.66.468 4.001.592 1.173.09 2.35.117 3.527.082a3.548 3.548 0 0 0 1.03-.42L35.555 8.614a11.687 11.687 0 0 1 6.572.508Zm-.454-3.726a15.873 15.873 0 0 1 7.796-.536 8.098 8.098 0 0 1 2.866 1.059c.129.061.247.143.35.24.606.605.599.605 1.32.73l.75-1.946c-7.651-2.585-18.128-.316-21.998 2.186 1.34-.069 2.523-.145 3.705-.193 1.884-.082 3.5-.99 5.21-1.54Zm-.866 1.293c3.265 0 6.53.062 9.796.075.082 0 .172-.103.378-.24a13.625 13.625 0 0 0-10.174.165Zm4.516 6.008c-2.88-.495-5.74-1.107-8.62-1.615-1.293-.227-2.613-.33-3.926-.489-1.519-.185-3.031-.446-4.557-.522a39.978 39.978 0 0 0-4.056.11c-.543 0-.97.24-.908 1.018l1.031-.18a17.928 17.928 0 0 1 6.187-.254c.84.145 1.65.461 2.482.633 1.327.268 2.66.488 3.994.722.385.068.777.103 1.162.171.907.159 1.622.537 1.664 1.671 3.526-.069 7.011-.138 10.49-.22a2.8 2.8 0 0 0 .756-.302c-2.014-.255-3.87-.427-5.699-.757v.014Zm-13.948.798c-.33-.2-.474-.358-.633-.365-1.374-.11-2.75-.201-4.124-.275a18.68 18.68 0 0 0-2.234-.075c-.495.038-.98.156-1.437.35-.2.083-.316.371-.468.57l.207.296 8.689-.501Zm-6.785 1.038v.117l3.726-.131c.048 0 .082-.096.22-.275l-3.946.289Zm-.591-2.537a21.1 21.1 0 0 1 6.799.213c.449.094.879.264 1.271.502.564.344.612.742.24 1.464l6.62-.275a1.313 1.313 0 0 0-1.374-.893 19.828 19.828 0 0 1-5.926-1.183 8.055 8.055 0 0 0-3.141-.502c-1.705.076-3.438.22-5.108.35a1.978 1.978 0 0 0-.53.269c.489.282.826.09 1.149.055Zm6.187 8.937c.25.133.528.204.81.206h3.713v-.254c-5.266-2.345-10.442-2.063-14.367.536.281 0 .563 0 .845-.055a9.55 9.55 0 0 0 2.75-.653 6.876 6.876 0 0 1 6.262.22h-.013Zm-4.812.295h2.406a2.612 2.612 0 0 0-2.372.014l-.034-.014Zm-3.678-1.505a14.684 14.684 0 0 1 11.535-.385c1.134.412 2.248.893 3.355 1.375a2.955 2.955 0 0 0 2.282 0c-.887-.378-1.588-.688-2.323-.983a31.38 31.38 0 0 0-8.607-2.008 34.885 34.885 0 0 0-6.723.138c-.688.09-.894.254-.977.907-.082.653-.075 1.12-.116 1.753.604-.275 1.093-.55 1.608-.783l-.034-.014Zm-3.231 10.146a.983.983 0 0 0 .055 1.375c2.151-.357 4.276-.687 6.4-1.072.942-.158 1.877-.406 2.818-.57a2.33 2.33 0 0 1 1.135.116c-3.348 1.066-6.71 1.96-10.312 1.973 0 0-.09.145-.144.261-.052.13-.094.263-.124.4.32.11.646.202.976.274 1.877.323 3.671-.22 5.5-.564a23.01 23.01 0 0 0 4.44-1.14c1.327-.544 2.75-.654 4.05-1.218.3-.08.61-.12.92-.116-.817.653-5.23 2.35-7.293 2.818a30.084 30.084 0 0 1-7.803 1.018v.302c.398.12.805.202 1.217.247 2.131.09 4.262.159 6.4.193.268 0 .729-.158.79-.344.413-1.271 1.527-1.67 2.579-2.062 1.863-.688 3.788-1.183 5.671-1.822a6.139 6.139 0 0 1 2.977-.158c-1.375.447-2.805.887-4.207 1.375-1.52.495-3.053.983-4.558 1.526a3.2 3.2 0 0 0-1.87 1.423 20.224 20.224 0 0 0 5.362-.488l-.935.543c1.3.364 1.925.275 2.063-.33-.392-.041-.963.646-1.155-.213 1.56-.213 3.134-.337 4.667-.632 1.85-.365 3.665-.915 5.5-1.3 1.141-.24 2.31-.323 3.623-.495.265-.734.31-1.53.13-2.289-1.49-.09-2.984-.09-4.475 0-.887.048-1.773 0-2.66 0-.076 0-.145-.034-.213-.034l-7.686-.048h-1.918c-3.598-.087-7.193-.186-10.786-.296-.406 0-.687.11-.784.543-.068.268-.192.53-.282.798l-.068.007Zm3.279 12.374c-.688 0-1.423-.061-2.138-.089a2.94 2.94 0 0 0-.852 0c-.193.062-.344.296-.51.447.18.185.33.454.544.53.213.075.646 0 .955.082a16.84 16.84 0 0 1 6.607 2.873c.075.062.137.151.31.323-.276.042-.475.131-.62.083-1.106-.406-2.193-.846-3.293-1.244-1.306-.475-2.625-.915-3.938-1.375a3.055 3.055 0 0 0-.502-.083c-.268.488-.09.688.357.784.525.099 1.039.25 1.533.454.763.35 1.485.79 2.269 1.223-.729.282-.729.268-2.063-.22-.687-.233-1.34-.42-2.13-.687 0 .44-.049.735-.07 1.107l3.197.529-.729.048c.323.413.612.364 1.032.289l-.303-.337 1.609.53c0-.303-.048-.434-.055-.558-.007-.123.13-.11.185-.11.784.055 1.568.104 2.351.18a.74.74 0 0 1 .44.198c.365.372.633.337.922-.096a.688.688 0 0 1 .522-.302c1.174.065 2.34.233 3.485.502l-.433.227c.193 0 .468.061.502 0 .316-.62.832-.482 1.375-.454 2.475.137 4.867 0 7.156-1.238 1.086-.59 2.448-.687 3.699-.955.942-.186 1.904-.248 2.853-.392.536-.083.501-.488.447-.914-.516-.103-1.107.33-1.575-.365l1.609-.385c-.296-.22-.454-.446-.612-.446h-7.06l-17.076-.159Zm10.504-1.374a2.273 2.273 0 0 0-.598-.44 21.59 21.59 0 0 0-6.276-1.01 3.682 3.682 0 0 0-.95.102l-4.928 1.196v.316a7.9 7.9 0 0 0 .804.062c1.272 0 2.537-.068 3.809-.089.245.026.489.07.728.13 1.018.152 2.028.29 2.956-.364a.687.687 0 0 1 .578-.082c1.251.577 2.537.179 3.877.137v.042Zm10.738-7.136c1.045-.33 2.13-.564 3.203-.811.454-.11.798-.261.688-.983-1.375.24-2.674.44-3.974.687-2.007.42-4.007.894-6.008 1.32a15.5 15.5 0 0 1-1.595.179v.24c.688.055 1.306.152 1.953.152 1.03 0 2.062-.124 3.08-.124a8.768 8.768 0 0 0 2.653-.701v.04Zm-.557.584v.138h3.533c.447 0 .798 0 .75-.509-.048-.509-.516-.344-.846-.358a.725.725 0 0 0-.213 0c-.873.172-1.746.33-2.619.516a4.87 4.87 0 0 0-.605.172v.041Zm3.94 12.54c-.977.034-1.946.11-3.087.178.687.495 1.196.536 3.512.399.035-.379-.082-.626-.426-.62v.042Zm-.572-.874c.303-.062.757.069.688-.687-2.104.405-4.173.797-6.235 1.21a8.1 8.1 0 0 0-1.12.343c-.53.18-1.052.378-1.582.57 0 .104.076.207.11.303 1.54-.502 3.19-.35 4.737-1.017a17.355 17.355 0 0 1 3.403-.763v.041Zm-8.483-5.836c.42.81 1.19.804 1.918.825 1.746.055 3.493.062 5.239.11.398 0 .515-.117.343-.447l1.795.502.117-1.293a31.562 31.562 0 0 1-10.511-3.788 2.97 2.97 0 0 1 .783 0 20.33 20.33 0 0 1 2.633.812 36.17 36.17 0 0 0 6.063 2.062c.275.062.55.096.935.158.042-.371.07-.687.103-.997-1.876-.515-3.753-.783-5.348-1.876 1.89-.372 3.485.831 5.3 1.003v-1.753c-.77 0-1.574-.082-2.371-.09-3.857-.047-7.707-.034-11.563-.13-2.88-.069-5.76-.282-8.641-.392a76.853 76.853 0 0 0-4.71 0c-.817 0-1.195.64-1.113 1.829 1.904-.467 3.774-1.196 5.83-.729a6.33 6.33 0 0 1-.598.234L18.629 37.7c-.427.13-.688.336-.495.92.192-.054.378-.102.557-.164 1.931-.688 3.836-1.533 5.912-1.746a9.867 9.867 0 0 1 1.91-.035 27.794 27.794 0 0 1 10.36 3.183c.159.041.4.11.44.248v.04ZM32.735 57.86c2.502-.46 5.005-.625 7.466.282.859.316 1.828.392 2.399 1.272.062.11.316.123.481.13 1.031.048 2.062.083 3.087.117.158.01.316.01.474 0v-.151c-1.114-.323-2.22-.687-3.348-.97-1.69-.44-3.382-.852-5.087-1.237a13.594 13.594 0 0 0-4.351-.247 62.372 62.372 0 0 0-7.46 1.375c-.44.096-.886.151-1.374.295a7.52 7.52 0 0 0 2.956.104c1.636-.337 3.19-.722 4.757-1.011v.041Zm-1.375 1.176c3.1.192 6.187.398 9.315.577.138 0 .289-.144.495-.261-3.437-.928-2.612-.956-9.803-.578-.014.049-.014.131-.014.22l.007.042Zm16.5-.336c.234-.433.124-.688-.275-.743-.688-.096-1.375-.13-2.063-.192a.986.986 0 0 0 0 .137l2.338.798Zm-.378-1.815c-.213-.495-.213-.495-1.045-.179l1.045.179ZM24.444 27.394a12.456 12.456 0 0 0-3.993-2.063c.859.688 1.69 1.375 2.584 2.063a1.196 1.196 0 0 0 1.41 0Zm-4.695.178c-.385-.474-.378-.488-1.086-.687.048.852.612.619 1.086.687Zm26.666 24.796c.24-.04.481-.048.688-.068.082-.536-.214-.591-.57-.55-.805.096-1.616.158-2.414.295-1.643.275-3.272.585-4.908.894-.22.065-.431.153-.633.261l.062.255c1.623 0 3.238.268 4.847-.53.873-.419 1.952-.37 2.928-.556Zm-2.213 1.135c.048.069.103.137.15.213h2.49c.226-.722.213-.784-.358-.777-.563 0-1.124.054-1.677.158-.22.035-.406.261-.605.406Zm-24.439-1.636c.923.235 1.86.412 2.805.529.598.09 1.196.144 1.794.213a.288.288 0 0 1 .103 0c1.059.289 2.131-.124 3.245.193 1.114.316 2.18.089 3.272.096h.53c2.014.117 4.028.282 6.042.337a2.783 2.783 0 0 0 1.327-.557 12.836 12.836 0 0 1 4.124-1.3 34.908 34.908 0 0 1 3.5-.384c.44-.035.79-.07.618-.73-2.48.056-4.943.416-7.335 1.073-.955.275-1.904.578-2.839.908-1.375.474-1.375.488-3.554.295.323-.392.756-.419 1.107-.584a7.72 7.72 0 0 1 1.1-.426c2.02-.557 4.021-1.196 6.07-1.609a14.76 14.76 0 0 1 4.66-.46c.33.034.688.089.887-.537-.81-.075-1.567-.185-2.33-.206-4.276-.096-8.559-.137-12.835-.275-2.75-.09-5.499.193-8.208 0a200.816 200.816 0 0 1-4.564-.42 3.375 3.375 0 0 1-.64-.22l-.563.688c.13.688.261 1.251.337 1.822a1.766 1.766 0 0 0 1.347 1.554ZM18.19 40.366c.096 0 .22.062.295 0 1.313-.75 2.805-.963 4.207-1.465a12.023 12.023 0 0 1 4.648-.378c.46 0 .914.103 1.375.152a7.019 7.019 0 0 1 4.248 1.766c.284.263.641.434 1.024.488.79.07 1.595 0 2.393 0 0-.061 0-.123.048-.185a2.299 2.299 0 0 0-.523-.42c-1.608-.687-3.196-1.374-4.853-1.91a13.749 13.749 0 0 0-5.562-.77c-.144 0-.33.082-.426 0-1.148-.764-2.179 0-3.224.26-1.045.262-2.145.75-3.217 1.149-.646.282-.68.44-.433 1.299v.014Zm5.149-37.872v.262c.77.117 1.526.288 2.296.33.564.034.53-.543.77-.99l-3.066.398Zm33.059-1.271a9.906 9.906 0 0 0-2.11-.069c-.777.082-1.561.082-2.338 0-1.595-.096-3.197-.2-4.812-.254-1.334-.042-2.667 0-4-.055-1.17 0-8.608 0-10.904.398-.801.16-1.612.272-2.426.337a2.145 2.145 0 0 0-2.131 1.375c.81-.282 1.553-.756 2.516-.42a15.063 15.063 0 0 1-3.486 1.72c-.453.157-.453.171-.687.817a22.527 22.527 0 0 0 5.224-1.98 45.7 45.7 0 0 1 2.008-1.01 2.062 2.062 0 0 1 1.684-.034c-.53.323-.88.563-1.244.763-.564.302-1.148.57-1.712.88a21.895 21.895 0 0 1-5.857 2.289c-.378.082-1.031 0-.839.687.193.688.688.255 1.086.151a45.008 45.008 0 0 0 8.552-3.63c2.276-1.161 4.633-2.062 7.294-1.491-.095.04-.19.074-.289.103a32.132 32.132 0 0 0-8.091 2.819c-1.829.941-3.78 1.643-5.685 2.44a8.09 8.09 0 0 1-.983.296 17.06 17.06 0 0 0 2.75 0c.283-.043.558-.133.81-.268.448-.22.888-.454 1.314-.688 3.492-2.062 7.349-2.818 11.308-3.306 3.053-.372 6.084 0 9.123.048a6.187 6.187 0 0 1 3.155.687l.77-.852-2.51-.997c0-.048 0-.096.035-.138l3.534.269.907-.688a19.245 19.245 0 0 0-1.966-.213v.014Zm22.995 3.684c-2.11-.165-4.063-.99-6.111-1.416a30.494 30.494 0 0 0-6.737-.9 4.984 4.984 0 0 0-1.437.041 3.85 3.85 0 0 0-1.946 1.45c2.02.3 3.98.908 5.816 1.802 1.506.646 2.997 1.32 4.51 1.952.687.282.35.729.288 1.23a4.034 4.034 0 0 1-.728-.178c-1.843-.846-3.65-1.76-5.5-2.55a15.983 15.983 0 0 0-4.578-1.376.9.9 0 0 0-1.141.736c.385.11.742.227 1.106.31a14.745 14.745 0 0 1 5.5 2.557c.1.1.219.177.35.226 1.85.317 3.706.626 5.63.942A8.326 8.326 0 0 1 79.599 5.1c-.124-.11-.165-.2-.206-.206v.013Zm-13.935 5.59c-2.007.267-4 .824-6.05.364-.336-.07-.343-.035-.686.536 1.585.31 3.21.359 4.812.144a88.949 88.949 0 0 0 5.032-.955 3.808 3.808 0 0 1 2.172.13 31.484 31.484 0 0 1-5.5 1.513 16.163 16.163 0 0 1-5.5.275c.55.233 1.053.426 1.527.653a1.052 1.052 0 0 1 .646 1.409 1.692 1.692 0 0 0 1.437-.316 17.117 17.117 0 0 1 8.703-2.867c0 .688-.406.811-.894.894-.942.172-1.897.302-2.818.564a11.874 11.874 0 0 0-4.125 2.151l2.489.179c1.038-1.56 2.694-1.774 4.468-2.097-.151.426-.254.688-.378 1.052a5.397 5.397 0 0 0-3.155 1.155c.611.151 1.003.268 1.374.337.523.09 1.052.13 1.582.2a1.045 1.045 0 0 0 1.25-.73c.372-1.106.688-2.227 1.1-3.334.15-.326.32-.643.51-.948a11.26 11.26 0 0 0-1.183-.447c-.44-.11-.907-.151-1.375-.22-1.12-.179-2.241-.35-3.361-.536-1.547-.248-3.087-.55-4.64-.75-.977-.13-1.98-.11-3.012-.15-.069.473-.123.865-.178 1.285 1.12 0 2.22.068 3.306 0a9.623 9.623 0 0 1 3.087.171 3.876 3.876 0 0 1-.64.337Zm-9.692 13.927c-.076.495-.172 1.08-.282 1.822.433-.062.763-.097 1.093-.159 2.557-.48 5.1-1.024 7.672-1.443a17.758 17.758 0 0 1 3.086-.055c.474 0 .468.062.564.687a1.916 1.916 0 0 1-.392.097c-1.306.103-2.626.165-3.932.295-1.76.179-3.513.392-5.266.612-.873.117-1.746.254-2.599.454-.192.041-.378.378-.446.611-.07.234.11.544.453.578a9.706 9.706 0 0 0 5.424-.687 11.928 11.928 0 0 1 5.37-1.245c.247 0 .495.014.742.041.142.03.283.072.419.124.117.447 0 .777-.474.688-2.18-.385-4.09.653-6.132 1.134 2.46.447 4.963.151 7.41.577.372-1.849.729-3.622 1.1-5.5-.887-.157-1.746-.35-2.619-.446-2.798-.31-5.603-.584-8.4-.88-1.375-.137-1.5-.075-2.427 1.32.832-.137 1.54-.729 2.53-.337l-2.895 1.712Zm-1.217 9.624c.055.083.137.206.213.206h2.64c-.324-.536-1.774-.742-2.874-.412.014.09-.007.151.028.22l-.007-.014Zm.096 9.837c-.083.303 0 .544.344.447a46.217 46.217 0 0 0 3.155-.955c.53-.193 1.004-.523 1.664-.234-1.286 1.794-3.383 1.54-5.37 2.165.372.159.496.255.599.248a17.624 17.624 0 0 0 5.974-1.512c.447-.214.838-.537 1.278-.757.259-.108.529-.186.805-.233.24.502 0 .687-.248.928a8.25 8.25 0 0 1-3.575 1.629c-1.168.302-2.378.406-3.574.605l-.97.172c0 .563.269.563.564.577 1.327.055 2.502-.481 3.72-.866 2.137-.688 4.296-1.292 6.461-1.89a6.462 6.462 0 0 1 1.471 0c0 .35 0 .556-.041.818-2.887.247-5.568 1.189-8.325 2.062a5.87 5.87 0 0 0 3.259.075c.199-.075.37-.22.57-.288.385-.124.316-.688.832-.722 1.196-.144 2.358-.57 3.65-.371.151.522 0 .742-.563.832-.935.15-1.855.38-2.75.687 1.327.426 2.653.034 4.056.165v-4.681a13.332 13.332 0 0 0-1.588-.22c-3.887-.124-7.768-.236-11.646-.337-.089 0-.178.103-.357.22.866.935 1.932.13 2.812.57-.592.68-1.526.482-2.2.88l-.007-.014Zm7.837 13.481h-6.064a.584.584 0 0 0-.426.234c2.103.263 4.235.198 6.318-.193h.158l3.946-.398a2.296 2.296 0 0 0-.543-.358c-2.214-.522-4.393-1.306-6.696-1.278-1.06.084-2.11.27-3.135.556-.144.035-.226.31-.405.578 1.375-.096 2.591-.172 3.788-.268a9.838 9.838 0 0 1 3.636.048c-.227.392-.398.736-.577 1.08Zm6.874 5.5a13.418 13.418 0 0 1-4.124-.688c-.64-.227-1.258-.508-1.884-.756a4.475 4.475 0 0 0-3.245.035c-.942.33-1.87.687-2.798 1.051-.123.041-.206.165-.302.24.158.53.508.317.797.276 1.196-.172 2.393-.378 3.596-.523a18.05 18.05 0 0 1 5.932.626c.24.055.481.13.688.172.912.081 1.77.474 2.426 1.113.097-.185.303-.385.262-.515-.385-1.32-.812-2.633-1.197-3.85-1.374.042-2.708.062-4.021.11-1.925.062-3.85.124-5.768.206-.64 0-1.278.131-1.918.159a1.175 1.175 0 0 0-1.203 1.03c.296-.02.59-.06.88-.123a24.608 24.608 0 0 1 5.617-.687 3.89 3.89 0 0 1 1.663.275c1.244.542 2.572.87 3.925.969.523.027.901.192.688.88h-.014Zm-8.098 8.613-1.279-.501-.116.165.46.776.935-.44Zm-.289 2.599c1.279.344 1.279.344 2.351 0-.825-.509-1.58-.014-2.337 0h-.014Zm.928-3.355c.145.103.344.165.434.303.618.928 1.45.55 2.261.364-1.938-.9-3.815-2.062-6.111-1.56 1.19.185 2.406.158 3.43.893h-.014Zm-1.938-1.842a12.5 12.5 0 0 1 2.179.392c.688.178 1.375.447 2.104.687.35-1.856 1.904-2.062 3.327-2.145a25.197 25.197 0 0 0 3.018-.605l.515-.096c.543.468.31 1.244.853 1.726a7.456 7.456 0 0 1 1.093 1.636l1.107-.317h.055v-.061l1.058-1.279c-1.017.536-1.045.55-1.058 1.279v.034c-.214-.069-.482-.096-.585-.24-.42-.605-.783-1.259-1.168-1.898-.09-.151-.234-.344-.2-.474.179-.688-.364-.921-.687-1.251a34.99 34.99 0 0 1-7.933 1.285 22.75 22.75 0 0 0-2.544.316c-.213.035-.625-.11-.584.399-.217.094-.45.146-.688.151h-1.876c.426.392.598.378 2.014.46Zm6.984 6.723c.928-.076 4.07-1.698 4.95-2.605a7.17 7.17 0 0 0-2.853 1.313c-.666.49-1.372.922-2.11 1.292h.013Zm1.643-2.454h-.563c-.009.049-.02.097-.035.144l.585.035a.485.485 0 0 1 0-.152l.013-.027Zm3.589-2.365.041-.213a2.44 2.44 0 0 0-.729-.193c-.852.035-1.705.11-2.55.18l-3.149.281c2.269.64 4.31-.206 6.373-.055h.014Zm-4.414-1.12c1.265-.145 2.503-.523 3.774-.324-1.973-.831-3.911-1.051-5.932-.068a3.073 3.073 0 0 0 2.145.392h.013Zm5.596 4.324c0 .068.048.144.069.22l.797-.248-.082-.234-.784.262Zm5.967-10.615a7.377 7.377 0 0 0 1.293-3.437c-.489.213-.51.2-.942 1.485-.207.543-.605 1.086-.365 1.952h.014Zm.11-3.506h-.364v.688h.261l.103-.688Zm.756 3.438a1.306 1.306 0 0 1-.37.639c-.97.687-.688 1.705-.75 2.64 1.327-1.244 2.612-5.012 2.378-6.875-.15.365-.24.564-.316.77-.323.942-.625 1.884-.955 2.819l.013.007Zm-.495-6.696c.042.564.076 1.066.117 1.574h.268c.083-.35.165-.687.234-1.045.103-.495.371-.653.914-.419v1.43h.241v-1.06c0-.371.24-.55.687-.447.042.502.07.963.11 1.423.052.153.119.3.2.44.13-.92.233-1.656.337-2.413-1.575-.687-3.238-.46-4.847-.611a.606.606 0 0 0-.687.543c-.09.615-.09 1.24 0 1.856.192-.447.378-.9.605-1.334 0-.069.26-.034.488-.055v1.423c.687-.282.302-.935.687-1.34l.646.034Zm9.535-2.84c.557 0 .77-1.305.481-2.563h-1.924v.158l1.876.687c-.577 1.018-1.423-.103-1.938.46.35.379.35.379 1.574.62a3.595 3.595 0 0 0-.082.632l.013.007Zm-.062-3.388c-.886-.921-.962-.935-1.8-.33a2.833 2.833 0 0 0 1.786.323l.014.007Zm-.165-8.318c.378-.564.241-1.148.358-1.788l-2.063-.763v-.041h-.048l-1.12-.605a1.174 1.174 0 0 0 1.12.605h.083c.333.463.7.9 1.1 1.306.31.378.708.64.557 1.279l.013.007Zm-1.416 5.204-.735-.055c.323.35.323.35.722.048l.013.007Zm.46-1.238v-.282l-1.635-.082a1.375 1.375 0 0 0 1.622.357l.014.007Zm1.493-1.168a.86.86 0 0 0-.736-1.128c-1.038-.275-1.506-.117-2.062.77l2.798.358Zm-.44-1.905-2.929-.501c-.076.405-.13.735-.179 1.024l3.108-.523Zm-1.307-1.271c-.24-.763-.24-.763-1.814-1.238v1.148a2.185 2.185 0 0 0 1.8.083l.014.007Zm-.577-3.575 2.062.949v-1.025a31.858 31.858 0 0 0-3.911-.969c.433.701 1.196.75 1.835 1.052l.014-.007Zm-2.887-19.035 1.814.501c-.453-.708-1.12-.708-1.828-.508l.014.007Zm1.69-1.45a1.739 1.739 0 0 0-1.519.26c.454.007.963.22 1.506-.268l.014.007Zm-2.433 2.268-.103.316c.688.22 1.375.46 2.11.687.894.255.894.248 1.327 1.203-.061.076-.116.193-.199.227-.18.048-.35.127-.502.234l1.485-.083a1.52 1.52 0 0 0-.839-1.374c-1.079-.51-2.2-.86-3.293-1.217l.014.007Zm0 32.31c.433-1.43.372-1.795-.501-3.307a5.32 5.32 0 0 0 .487 3.32l.014-.014Zm-.687-.317v3.032c.371 0 .543-.165.515-.488-.055-.86-.144-1.712-.22-2.564l-.295.02Zm.983-2.942c.557-1.32-.096-2.186-.729-3.293a3.54 3.54 0 0 0 .695 3.307l.034-.014Zm1.093-18.953c.103.282.165.474.247.729.234-.42.234-.42-.282-.715l.035-.014Zm.405 18.733c.469-.98.555-2.1.241-3.142a12.276 12.276 0 0 0-.275 3.156l.034-.014Zm.997-19.55c.09.597.179 1.195.268 1.759.949-.742.887-1.251-.268-1.76-.357-.598-.983-.804-1.643-1.19a2.468 2.468 0 0 0 1.609 1.197l.034-.007Zm.427-4.126a2.888 2.888 0 0 0-2.207.042 2.853 2.853 0 0 0 2.172 0l.035-.042Zm-2.88 16.142c.22.57.22.57.687.24l-.688-.24Zm-.544-4.324c.206 1.237-.433 2.715 1.059 3.808a5.623 5.623 0 0 0-1.107-3.767l.048-.041Zm0-3.61a2.749 2.749 0 0 0 .688 2.799 3.673 3.673 0 0 0-.688-2.75v-.048Zm.09 8.587a5.686 5.686 0 0 0 .776 4.667c.495-1.36.296-2.687-.777-4.626v-.041Zm0-10.312c.04.33-.193.687.171.983.481-.852.433-1.072-.508-2.007.152.337.268.69.343 1.052l-.007-.028Zm1.072-9.906c-.688-.481-.688-.481-1.251-.158l1.25.158Zm-.584 1.939v.295c.687-.034 1.374-.11 2.062-.09.687.021 1.272.145 1.925.11-1.279-.556-2.633-.405-3.98-.288l-.007-.027Zm3.279 2.688 1.189 1.079c.076-.9-.041-.99-1.183-1.052l-.006-.027Zm1.986-4.943c.282-.158.537-.344.805-.516v-.2l-1.657.076c.261.95.295.983.86.667l-.008-.027Zm-2.179 6.427c.47.463.884.977 1.237 1.533.215.577.358 1.177.427 1.788.282-1.485.165-2.826-1.657-3.293l-.007-.028Zm-1.56 4.49c.103.687.632.57.99.687.376.102.764.152 1.154.151a1.595 1.595 0 0 0 1.485-.825l-3.63-.014Zm3.616 1.574c-.688.178-1.245.378-1.829.474-.584.096-1.072-.282-1.732.151 1.168.289 2.172.523 3.23.165.427-.11.475-.316.338-.763l-.007-.027Zm0 2.138c-.344-.138-.825-.358-1.073-.22a1.87 1.87 0 0 1-1.615 0 5.658 5.658 0 0 0-.908-.117l-.041.234 3.808.948c-.089-.447-.068-.777-.171-.818v-.027Zm-3.486 13.398c-.646.151-.687.316-.515 1.505.838-.35.845-.35.515-1.478v-.027Zm0 1.98c-1.093.268-.618 1.182-.969 1.766.921-.103.97-.192.956-1.739l.013-.027ZM84.3 55.132c-.687 1.107-.687 1.107-.33 1.836.406-.73.798-1.43 1.23-2.187-.55-.254-.714.055-.913.379l.013-.028Zm-1.127 4.44c-.151.578-.227.84-.337 1.245l1.444-.13-1.107-1.114Zm2.371-43.521-3.602.543a4.284 4.284 0 0 0 3.589-.516l.013-.027Zm-4.413 5.878a9.735 9.735 0 0 1-.598-4.689 1.416 1.416 0 0 0-.09-.687c-.089.955-.597 1.8-.33 2.866.406 1.616.62 3.28 1.376 4.812.26.564.605 1.087.907 1.63l.33-.152c-.11-.316-.206-.639-.337-.948a69.434 69.434 0 0 1-1.272-2.805l.014-.027Zm.495-9.831c.083 0 .151-.103.289-.2h-.536v.124c.055.055.15.117.233.104l.014-.028Zm-.797 31.89c-.262 1.066-.688 2.063-1.045 3.142a2.57 2.57 0 0 0-.152 1.169c.132-.129.252-.269.358-.42a14.258 14.258 0 0 0 1.698-8.648 4.95 4.95 0 0 0-1.416-3.093c-.585.756-.138 1.375.11 1.89.812 1.891.965 4 .433 5.988l.014-.027Zm-.688 8.566v-.062a4.86 4.86 0 0 0 1.265-2.853 9.994 9.994 0 0 0-1.265 2.853l-.034.041-.873.365c0 .495.069.942.124 1.643a4.6 4.6 0 0 0 .77-1.987h.013Zm-.227 2.296a4.125 4.125 0 0 0 1.513-2.832 8.538 8.538 0 0 0-1.533 2.86l.02-.028Zm-.405-3.293c.845-1.065 2.11-4.227 2.117-5.369a2.693 2.693 0 0 0-.344.578 8.939 8.939 0 0 1-1.498 2.935 2.117 2.117 0 0 0-.289 1.884l.014-.028Zm2.31-13.893c.15-.564-.688-2.75-1.636-4.125a1.374 1.374 0 0 0 .096 1.41c.48.976 1.045 1.89 1.526 2.743l.014-.028Zm-.935-4.18c.364.798.728 1.602 1.079 2.358.124-.88-.584-2.75-1.987-4.99-.082 1.161.536 1.87.894 2.66l.014-.028Zm.474-3.114c-.358-.859-.763-1.705-1.148-2.55-.289 2.062 1.175 3.437 1.732 5.259.22-.674.234-.674-.598-2.681l.014-.028Zm.928-1.072c-.082-1.677-1.21-2.915-1.856-4.352.24 1.636 1.148 2.963 1.842 4.38l.014-.028Zm-16.87 25.044c-1.065 0-2.13.061-3.203.096-1.073.034-2.207.055-3.307.123a18.043 18.043 0 0 0-3.107.145v.261c.182.108.382.182.591.22 1.842-.055 3.699-.096 5.54-.206a11.35 11.35 0 0 1 5.322.866c1.038.454 1.12 1.086.233 1.78-.13.084-.271.151-.419.2.688.172 1.375-.42 1.918.392.42-1.375-.44-2.55-.144-3.795-1.258-.289-2.352-.062-3.438-.055l.014-.027Zm2.413-5.878H55.6c0 .075 0 .144.049.22.403.122.814.218 1.23.288 1.92.235 3.782.81 5.5 1.698.962.468 1.945.874 2.914 1.313.343.1.661.268.935.495.591.688 1.313.495 2.152.495.007-1.512-.522-2.921-.564-4.482l.014-.027Zm-6.943 4.688a47.584 47.584 0 0 0-5.046-1.712l-.186.248c.138.172.241.433.42.515 1.423.688 2.798 1.726 4.798.977l.014-.028Zm13.46-22.142c.076-.055 0-.269 0-.413 0-2.289 0-4.578-.117-6.874a23.484 23.484 0 0 0-.165 7.018l-.488-.137c-.371.2.248 5.706.894 6.744.062-1.554.24-3.114-.337-4.627-.2-.529-.474-1.168.2-1.684l.013-.027Zm-1.945 5.245c.086.309.213.605.378.88 1.313 1.98 1.25 4.124.749 6.31-.13.585-.364 1.148-.536 1.726-.248.818-.495 1.63-.722 2.454a4.329 4.329 0 0 0 0 .832 7.698 7.698 0 0 0 2.104-5.568c0-.605 0-1.21.055-1.815a5.96 5.96 0 0 0-.502-2.901 11.804 11.804 0 0 1-1.107-4.888 3.815 3.815 0 0 0-.433 2.997l.014-.027Zm-.255 2.564v5.795c1.135-1.285 1.08-4.434-.014-5.767l.014-.028Zm2.063 8.586c-1.375 1.327-1.946 4.688-1.018 6.407a12.896 12.896 0 0 0 .983-6.38l.034-.027Zm.089 12.182v-5.83c-1.073.921-1.004 4.152-.035 5.857l.035-.027Zm.227 4.812c-.688.041-1.375.687-1.78 1.65.666-.64 1.202-1.12 1.745-1.637l.035-.013Zm-1.471 3.437c1.374-.062 1.753-1.093 2.24-2.145-.522-.048-.604.323-.804.57-.199.248-.536.564-.804.846-.268.282-.46.495-.667.736l.035-.007Zm.92-4.908-.082-.186a.983.983 0 0 0-.412.062c-.523.371-1.031.763-1.54 1.148v.069c.032.03.07.056.11.075l1.925-1.168Zm-.645-.798c.206-.172.22-.577.206-.962a6.474 6.474 0 0 0-2.152 1.457c-.137.124-.082.474-.137.949.81-.564 1.47-.956 2.048-1.437l.035-.007Zm-.213-2.392c-.75.687-1.424 1.375-2.063 1.973 1.437-.509 2.049-1.114 2.028-1.966l.034-.007Zm-.262-1.554c-1.58.825-2.213 1.678-1.986 2.75.776-.818 1.842-1.347 1.952-2.743l.034-.007Zm-.398-1.739c-.688.426-1.183.763-1.698 1.114-.688.46-.688.508-.138 1.526.64-.86 1.897-1.141 1.801-2.633l.035-.007Zm-.537-.516a.853.853 0 0 0 .117-1.264c-.625.536-1.14.996-1.684 1.436-.371.296-.413.605-.144 1.107.563-.433 1.14-.832 1.677-1.272l.034-.007Zm-.055-2.75-2.186 1.266c.048.274.11.632.172 1.01 1.107-.447 1.966-1.41 1.98-2.262l.034-.013Zm-3.176-8.084c-.11.055-.103.365-.165.612.887.165 1.575-.687 2.413-.103-.502.688-1.237.688-1.835.894-.475.185-.633.385-.371.99l2.57-.647v-2.694a14.34 14.34 0 0 0-2.646.962l.034-.014Zm2.393-1.65c0-.082 0-.164-.055-.247l-2.475.2v.927l2.53-.88Zm-1.526 4.723c-.929.296-.963.385-.571 1.609.742-.406 1.485-.777 2.172-1.217.145-.09.103-.467.193-.914-.825.24-1.334.378-1.829.536l.035-.014Zm-.502 2.984c.797-.35 1.512-.626 2.179-.983.151-.083.151-.454.247-.763-1.491.309-2.172.783-2.46 1.773l.034-.027Zm.722 2.282 2-.873c0-.076 0-.151-.055-.227-.268.062-.543.117-.811.186-.32.106-.661.125-.99.055.467-.303.928-.612 1.375-.908.261-.172.467-.343.124-.687-.544.206-1.107.405-1.664.625-.688.282-.756.434-.426 1.107.09.227.254.426.412.736l.035-.014Zm1.594-22.239-1.512-.144a2.86 2.86 0 0 0 1.904.866c.145-.392.069-.674-.426-.674l.034-.048Zm-6.345 27.91a8.792 8.792 0 0 0 4.173-.453 8.297 8.297 0 0 0-4.207.467l.034-.014Zm6.27-16.643c-.358-.522-.804-.33-1.169-.378l-1.3-.137c-.102.282-.185.53-.322.921l2.79-.406Zm-.172-1.065c.24-.42.103-.612-.234-.688l-2.062-.522c-.069.385-.124.687-.193 1.1l2.489.11Zm-2.131-2.241c.687.412 1.375.77 2.117 1.162.234-.51.193-.805-.234-.977-.426-.171-.687-.247-.976-.405a6.601 6.601 0 0 1-.749-.509c.797-.337 1.285.303 1.89.186.213-.24.275-.502-.096-.633-.625-.22-1.272-.385-2.014-.605a9.316 9.316 0 0 0-.144 1.23.73.73 0 0 0 .172.565l.034-.014Zm2.275-1.884v-.942a2.984 2.984 0 0 0-.55-.144c-.529-.048-1.058-.076-1.698-.117v.798l2.248.405Zm-2.179-2.22a4.42 4.42 0 0 0 2.317.048 3.285 3.285 0 0 0-2.502-.474c.048.213.068.412.15.44l.035-.014Zm.144-1.279c.739.155 1.488.252 2.242.289-.647-.75-1.547-.502-2.468-.756.089.275.123.467.192.48l.034-.013Zm.29-1.08a2.46 2.46 0 0 0 1.958-.04l-2.062-.688c-.296.365-.275.653.069.743l.034-.014Zm1.243-2.343a9.725 9.725 0 0 0 1.547.26c-.261-1.072-.894-.728-1.375-.762-.48-.034-.969 0-1.512 0 .22.742.88.364 1.306.515l.034-.013Zm-1.175-2.063c.316.46.742.29 1.375.193l-1.244-.585c-.076.207-.207.379-.138.434l.007-.042Zm.687-.955c.385.247.757.522 1.162.742.232.093.474.156.722.186a4.812 4.812 0 0 0-2.062-1.973c-.351.77-.351.763.171 1.086l.007-.041Zm.138-1.533c.687.515 1.313 1.052 1.98 1.58.185-.913-.296-1.525-2.104-2.646a.687.687 0 0 0 .103 1.107l.02-.041Zm2.165 0c.468-1.23.337-1.54-.776-1.85-.392-.11-.798-.178-1.197-.26-.028.068-.06.134-.096.199l2.07 1.91Zm-.687-3.369-1.031-.873c-.13.997-.13.997 1.01.942l.02-.069Zm.076-1.416c.281.481.577.963.927 1.56a1.141 1.141 0 0 0 .606-.742l-2.138-2.35c-.22.831.336 1.161.584 1.6l.02-.068Zm1.58-.213c.482-1.004.489-1.017-.11-1.657-.419-.446-.872-.866-1.312-1.299l-.117.083 1.54 2.873Zm1.286-3.994.062-.117-1.945-1.787c-.159.371-.275.653-.447 1.072l2.33.832Zm.42-.949c.536-.907.515-.99-.056-1.498a16.223 16.223 0 0 0-1.505-1.3 4.812 4.812 0 0 0 1.54 2.867l.02-.069Zm2.261 45.296a1.12 1.12 0 0 0-.172-1.375 11 11 0 0 0-.886 3.774c.405-.88.687-1.608 1.038-2.33l.02-.069Zm-1.148 8.25.248.103c.072-.163.132-.33.178-.502a1.367 1.367 0 0 0-.233-.117l-.193.515Zm.454-2.166c.24-1.464.942-2.84.646-4.365a10.312 10.312 0 0 0-.667 4.42l.02-.055Zm1.63-17.317c.178-.437.278-.902.295-1.375l-.255-.055a4.62 4.62 0 0 0-.295.42c-.9 1.766-1.856 3.52-2.668 5.327a4.18 4.18 0 0 0-.089 2.138 1.26 1.26 0 0 0 .234-.357 19.935 19.935 0 0 1 2.757-6.043l.02-.055Zm-1.72 5.459 1.568-.922c.09-.99.185-2.062.288-3.182l-.274-.035a19.818 19.818 0 0 0-1.602 4.194l.02-.056Zm.413-39.26-.268.061c.192.647.385 1.3.584 1.946v.048l.055.048c.506 1.494.682 3.08.516 4.647a6.49 6.49 0 0 1-2.008 3.905 1.32 1.32 0 0 0-.33.777c1.375-1.01 2.462-2.117 2.75-4.001.282-1.774-.275-3.32-.584-4.957 0-.137-.213-.247-.358-.37v-.076c.378-.798-.254-1.341-.357-2.028Zm-1.258 7.396a6.07 6.07 0 0 0-.316 1.61c1.656-2.063 1.835-5.384.46-6.965.035.287.094.57.179.846a5.3 5.3 0 0 1-.323 4.51Zm.103-2.976c-.385.687-.385.687-.138 1.375.055-.516.083-.832.138-1.375Zm1.966 25.566c-.687 1.375-1.375 2.75-2.11 4.07a3.12 3.12 0 0 0-.378 2.536c1.148-2.482 2.963-4.44 2.75-7.225-.083.193-.159.42-.262.619Zm.2-3.616c-1.259 2.145-2.38 4.083-2.695 6.496.866-.612 2.33-4.172 2.695-6.496Zm-2.565 3.217c.983-2.062 2.592-3.547 2.819-5.76l-.261-.097a156.9 156.9 0 0 1-.894 1.884c-.42.845-.688 1.787-1.471 2.42-.392.309-.399.577-.193 1.526v.027Zm1.52-13.646c-.413 1.066-1.41 1.898-1.265 3.438.563-1.258 1.024-2.303 1.491-3.341l-.226-.097Zm1.313-5.39-2.668 2.75v2.063c.915-1.554 2.118-2.99 2.668-4.812Zm-2.654 13.564c.97-1.127 1.265-2.79 2.84-3.437v-2.062c-.743.859-.95 1.91-1.492 2.75a6.833 6.833 0 0 0-1.348 2.75Zm1.567-1.279c-.302.598-.653 1.183-.9 1.808-.248.626-.378 1.272-.564 1.911l.289.11c.344-1.966 2.062-3.279 2.447-5.286-.667.358-.777.481-1.265 1.457h-.007Zm-1.374-.859a304.912 304.912 0 0 0 1.87-3.437 3.35 3.35 0 0 1 .247-.467 3.437 3.437 0 0 0 .543-3.142c-1.017 2.31-2.22 4.516-2.64 7.067l-.02-.02Zm0-24.315c.281-.185.446-.412.206-.735-.488-.688-1.004-1.313-1.506-1.966l-.213.123a5.775 5.775 0 0 0 1.52 2.578h-.007Zm1.03-1.986c.269-.543.035-.825-1.374-1.76l-.172.158 1.547 1.602Zm.688-1.28c.358-.638.33-.687-.935-1.725.16.653.496 1.25.97 1.726h-.035Zm.048 3.734a2.29 2.29 0 0 0 .798 1.753c.419-.976-.77-1.073-.763-1.753h-.035Zm.88-.763v-1.19c-.653.495-.178.86.035 1.19h-.035Zm-.075-4.256c.687-.336.687-.543-.275-1.656-.427.735.13 1.148.309 1.67l-.034-.014Zm-.819 56.818a3.438 3.438 0 0 0-.275 2.433c.654-.921.392-1.684.31-2.433h-.034Zm-1.601 6.688c.687-.213.942-.598 1.265-1.835a3.486 3.486 0 0 0-1.23 1.835h-.035Zm.378-13.233c-.02-.834-.12-1.665-.296-2.481l-.185-.07c-.275 1.376-.57 2.675-.825 4.015a8.576 8.576 0 0 1-.227 1.87c-.165.406.22 1.031.357 1.56h.248c.124-.797.234-1.608.392-2.398.249-.818.44-1.652.57-2.496h-.034Zm-.963 11.687-.495.605c.612.006.647-.214.53-.578l-.035-.027Zm-6.187-6.345-1.91-.544c.646.372 1.182.935 1.965.571l-.055-.027Zm-2.846.474a9.109 9.109 0 0 0-6.455.488l6.455-.488Zm-4.468-1.23c1.512-.365 3.025-.049 4.537.171-3.059-1.1-6.07-.515-9.163.11.068.413.116.688.165.908 1.58-.35 3.038-.811 4.516-1.162l-.055-.028Zm-5.08-4.662c1.454.125 2.919.014 4.338-.33 1.175-.288 2.358-.536 3.533-.804v-.24c-.976.15-1.945.33-2.922.433-.976.103-1.91.151-2.866.185-.956.035-1.966.049-3.004.062.137.653.543.694.92.694ZM55.723 53.6h1.293a.962.962 0 0 0-.983-.729c-.159 0-.324.323-.489.502l.18.227Zm.213-3.018c.935.24 1.877.433 2.791.729.876.295 1.735.639 2.571 1.031.262.117.44.399.688.57.157.138.35.228.557.262.625 0 1.244 0 2.062-.055-1.684-.75-3.1-1.464-4.578-2.014-1.478-.55-2.984-.894-4.469-1.334-.343.612.014.722.378.804v.007Zm-1.533-12.12c1.135-.171 2.186-.274 3.204-.501 1.636-.365 3.245-.86 4.888-1.183a12.54 12.54 0 0 1 2.385 0c0 .076 0 .151.034.227-.178.062-.343.13-.522.179-1.96.516-3.919 1.045-5.878 1.54-1.34.343-2.688.64-4.056.962 0 .88.2 1.114 1.052.853 1.767-.55 3.513-1.135 5.28-1.685 1.766-.55 3.533-1.093 5.314-1.608a4.94 4.94 0 0 1 .996-.09c.2.454.049.62-.295.688-.763.185-1.526.35-2.276.563-1.1.317-2.186.688-3.272 1.004l-3.678 1.155c.74.28 1.557.28 2.296 0 1.148-.392 2.29-.797 3.438-1.148a8.497 8.497 0 0 1 3.636-.296c.103.31.124.557-.247.688a1.497 1.497 0 0 1-.523.069c-1.567-.09-3.018.502-4.523.756-.055 0-.096.082-.31.268 2.173.2 4.194.234 6.284.371.144-1.719.275-3.334.412-5.046-.948-.04-1.856-.075-2.75-.123-2.921-.138-5.85-.117-8.75-.502-1.046-.138-1.046-.11-1.376.777h4.51v.22a12.58 12.58 0 0 1-5.259.35l-.014 1.513Zm.165-5.499a.756.756 0 0 0 .248.144 17.72 17.72 0 0 1 2.11.282 7.483 7.483 0 0 1 1.829.77 3.273 3.273 0 0 0 2.454.509c-1.774-1.78-4.035-2.255-6.476-2.413-.062.12-.115.243-.158.371a1.375 1.375 0 0 0-.007.323v.014Zm2.063-1.23a8.497 8.497 0 0 1 5.5 2.543c.755.722.797.687 2.15.467-1.017-.687-1.965-1.278-2.866-1.931a2.99 2.99 0 0 1-.928-.977c-.282-.536-.09-.845.468-1.093.118-.076.245-.139.378-.185 1.79-.499 3.666-.6 5.5-.296l-2.75.578c-.908.185-1.925 0-2.75.804l.75.522c1.05.736 2.144 1.41 3.134 2.207.99.798 1.938.591 2.942.688.103 0 .344-.29.344-.454V29.54l-12.684-.805v1.258l4.895-.378v.248c-1.794.852-3.767.687-5.754.845-.055.234-.11.488-.179.825l1.85.2Zm.852-14.712c.103 0 .206.11.282.09.9-.22 1.794-.475 2.695-.688a9.912 9.912 0 0 1 4.124.055c1.575.296 3.142.64 4.716.942.612.117.688.474.605 1.031-.117 0-.24.055-.31 0-1.43-.818-3.045-.942-4.619-1.224a11.926 11.926 0 0 0-5.919.379c-.2.073-.407.126-.618.158-1.458.185-1.286.302-1.533 1.595a11.07 11.07 0 0 0-.158.955c-.035.323.13.536.55.543a2.8 2.8 0 0 0 .24-.289c1.375-2.385 3.513-3.244 6.111-3.128 1.9.128 3.763.593 5.5 1.375.454.193.756.427.357.963-.976-.323-1.938-.688-2.914-.97a8.305 8.305 0 0 0-5.857.186 6.187 6.187 0 0 0-2.75 2.062 11.9 11.9 0 0 0 1.684.165.914.914 0 0 0 .605-.474c.176-.298.459-.52.79-.619a7.075 7.075 0 0 1 3.342-.57h1.017c-.103-.2-.179-.358-.254-.516 1.168.399 2.344.79 3.506 1.21.474.172.831.454.515 1.038-4.303-1.32-6.187-1.375-8.366-.165.257.124.527.22.804.289.566.065 1.136.093 1.705.082.309-.006.611-.089.88-.24.88-.516 2.461-.523 3.073.233a2.062 2.062 0 0 0 1.547.688c.282.034.563.055.99.096.447-1.622.9-3.244 1.375-4.99a5.051 5.051 0 0 0-.942-.406c-1.375-.275-2.798-.578-4.207-.75-2.407-.295-4.813-.501-7.24-.735a9.365 9.365 0 0 0-1.374-.041 3.547 3.547 0 0 0-.811.316l.99.474c-.097.234-.131.536-.165.866l.034.014Zm3.795-2.454c-.193-.736-.832-.866-1.375-.907-.688-.055-1.492-.523-2.234.24.653.509 1.711.688 3.574.653l.035.014Zm4.62-6.386a20.768 20.768 0 0 0-4.441-1.678c-.117-.034-.29.117-.461.2.708.721 3.691 1.656 4.867 1.464l.034.014ZM79.542 43.96a2.14 2.14 0 0 0 .069 1.375c.13-.125.237-.272.316-.433a8.175 8.175 0 0 0 .337-4.187 10.503 10.503 0 0 1-.124-1.14c-.515.336-.44.803-.398 1.23a5.815 5.815 0 0 1-.234 3.141l.034.014Zm.88-37.761a1.925 1.925 0 0 0-.378 1.794c.701-.516.536-1.169.344-1.808l.034.014Zm-.35 4.468a8.88 8.88 0 0 1 .92-.096c.282.019.562.053.84.103-.283-.804-.523-.825-1.795-.02l.034.013Zm1.54-2.385.762.433.282-1.767c-1.01.09-.742.86-1.08 1.32l.035.014Zm1.642 5.334h-.728v.24l.742-.095c-.041-.062-.041-.11-.048-.158l.034.013Zm1.169-5.41c-.179.454-.358.908-.598 1.506.646-.468.646-.468.564-1.52l.034.014Zm-2.571 7.095a10.106 10.106 0 0 0 2.977-.482c-.812-.385-1.609-.275-3.011.468l.034.014Zm4.345-6.875c-.131-.13-.392-.13-.598-.192l-.11.247.494 1.004-1.051 1.162c.192.04.192.04 1.43-.743l.646 1.018-1.245 1.43c0 .061.07.123.11.185l2.063-.9a7.521 7.521 0 0 0-1.774-3.197l.035-.014Zm2.35 4.64-2.062 1.148c.138.475.275.935.481 1.623l1.375-1.939c.31.633.557 1.134.846 1.74l-1.835 1.416c.054.192.13.488.268.996l1.54-1.732c.783.949.742 1.554-.138 2.193-.276.159-.533.35-.763.57-.144.172-.145.461-.275.928l2.413-1.271a9.68 9.68 0 0 0-1.884-5.658l.035-.014Zm.365 9.233c-.13.268 0 .618.289.556a16.725 16.725 0 0 0 2.103-.687v-.364l-2.392.495Zm1.554 1.47c-.372.049-.736.07-1.231.118.041.288.09.611.144 1.017l2.207-1.114a1.818 1.818 0 0 0 0-.192 14.86 14.86 0 0 1-1.155.186l.035-.014Zm-.688 3.08 1.306-1.23c-1.258.124-1.457.296-1.32 1.244l.014-.013Zm.268.908 2.262-.426c-.832-.557-1.32-.454-2.275.474l.013-.048Zm0 .818c-.192 2.062-.082 2.874.557 3.492-.082-1.017.688-1.278 1.513-1.808l-1.334-.309c-.179-.557 0-.804.564-.894.378-.062.873.103 1.189-.53a4.544 4.544 0 0 0-2.523.063l.034-.014Zm1.279 3.341h.873v-.137h-.873v.137Zm.962.688h-1.704c-.564 0-.77.275-.73.721.097 1.087.255 2.166.406 3.376.949-.227 1.808-.18 2.53-.818h-2.062c.55-.736 1.43-.275 2.062-.873 0-.186-.069-.447-.11-.688l-1.911.158c0-.316 0-.55-.055-.825.756-.26 1.719.22 2.324-.797a4.402 4.402 0 0 0-.77-.24l.02-.014ZM91.6 42.4c.357 0 .687-.062 1.175-.11 0-.475.076-.95.117-1.492l-2.33.433-.117-.206c.144-.145.261-.358.433-.413.474-.151.976-.2 1.444-.357.687-.234.728-.358.495-1.169 0-.371-.055-.729-.564-.687h-.213c-2.145-.124-2.104.282-2.11 1.753 0 .137-.042.275-.056.419-.185 1.492.172 1.884 1.705 1.822l.02.007Zm-1.554.687.605 1.292 1.994-.302c0-.44 0-.736-.048-.99h-2.55Zm2.798-4.99V36.88c-.914.262-1.815.248-2.75.922.983.536 1.829.226 2.73.316l.02-.02Zm.316 11.562c.454-.357.241-.688.213-1.066-.061-.598-.089-1.2-.082-1.8 0-.489.323-.791.942-.612.22.969.103 2.062.385 3.031h.227c.04-.729.055-1.457.13-2.18.076-.72.234-.776.99-.838.145 1.251 0 2.55.378 3.767l.303-.04a10.384 10.384 0 0 1-.2-1.706c0-.57-.13-1.21.296-1.725.612.2.687.653.777 1.175.09.523.233 1.169.378 1.877.44-.31.646-.591.364-.852-.398-.372-.275-.75-.22-1.169.076-.591.09-1.182.13-1.808-.501-.144-.893-.076-1.264-.467a2.317 2.317 0 0 0-1.609-.33c-1.533.061-3.066.213-4.599.357-.22 0-.419.227-.632.33a2.063 2.063 0 0 1-.646.261c-.915.083-1.32 1.038-.757 1.939.07-.385.131-.722.2-1.148l.77.206c.254.722-.502 1.602.612 2.282-.07-.687-.124-1.168-.165-1.67-.083-.825.048-.962.99-1.093a2.53 2.53 0 0 0 .378 1.732c.33-.687-.18-1.767 1.024-1.931l.687 3.478Zm0 7.789c0 .405-.068.887-.11 1.375l.152.055c.192-.317.364-.654.584-.95.159-.152.337-.284.53-.39.089.198.192.398.274.604.016.116.016.234 0 .35.619 0 1.032-1.065 1.753-.37-.275.474-.536.941-.893 1.553l1.636-.522c.59.838-.193 1.106-.605 1.622.543.185 1.464-.096 1.162.99l-1.554.687c.536.564 1.114-.034 1.636.303 0 .254.076.563.124.907l-1.437.688v.185c.317.045.639.045.956 0 .57-.137.934 0 1.168.729.2-.364.392-.557.42-.777.13-1.127.275-2.262.309-3.396.069-2.31-.688-3.437-2.901-4.29a11.685 11.685 0 0 0-4.214-.776l-.275 1.808c.509-.09.653-.928 1.251-.372l.034-.013Zm-1.25-6.916-1.149-.289c-.234.413-.062.605.261.688.324.082.667.316.853-.385l.034-.014Zm-1.114.97c.075.687.075.687.831.969.158-.743.159-.743-.866-.956l.035-.014Zm-1.691 11.59c.04 0 .048-.172.075-.269l-2.55-.178c.22.687.914.605 1.416 1.12.062-.302.096-.433.124-.563.274-.021.59-.042.9-.097l.035-.013Zm-1.657 6.084a3.526 3.526 0 0 0-1.375-1.809 3.375 3.375 0 0 0 1.34 1.822l.035-.013ZM86.32 65.14c.688.371 1.375.688 2.063 1.066.22-.53.24-1.031-.241-1.018-.797 0-1.203-.48-1.698-.914-.1-.065-.206-.12-.316-.165-.399.509-.234.818.158 1.045l.034-.014Zm1.114-9.322a21.086 21.086 0 0 0-.804 2.063c-.213.687-.743 1.375-.22 2.427.302-1.087.536-1.932.804-2.915.392.2.687.35.983.495-.11 1.196-.921 2.282-.09 3.657.262-1.1.475-2.008.73-3.066l.88.729c.254.529-.303 1.168.295 1.636.625-1.808 1.237-3.561 1.877-5.417l-1.155.453-.433-.398.976-1.093a1.788 1.788 0 0 0-1.56.804c-.901-.117-1.74-.248-2.579-.316a.996.996 0 0 0-.756.22 6.944 6.944 0 0 0-1.65 3.643c0 .151.083.316.303.495.096-.31.192-.625.295-.935.172-.502.323-1.017.53-1.512.371-.956.405-.963 1.54-.956l.034-.014Zm-2.62 5.637c-.604.049-1.202.124-1.8.227-.289.048-.543.207-.433.633l1.924.275c-.061.64-.336.852-.866.777a4.635 4.635 0 0 0-1.065-.076 2.51 2.51 0 0 0-.688.282v.24c.237.116.483.21.736.282a2.16 2.16 0 0 1 1.505.647.509.509 0 0 0 .88-.186 14.35 14.35 0 0 0 .688-2.33c.04-.303-.557-.784-.915-.736l.035-.035Zm0 6.476c-.604.543-.604.543.73 1.245l-.73-1.245Zm.386 2.585.117-.124-.543-.687c-.042.192-.097.323-.062.357.142.164.294.32.453.468l.035-.014Zm-.206 1.829c-.049-1.17-.049-1.17-.977-1.313.33.495.592.852.942 1.326l.035-.013Zm-2.104 1.89.818-.612c-.206-.763-.392-1.464-.584-2.165h-.234v2.777Zm-1.251.632c.55-.515.192-1.024.069-1.532-.124-.51-.234-1.08-.385-1.802-.64 1.416-.62 1.643.281 3.348l.035-.014Zm-1.684-3.808a3.368 3.368 0 0 0 2.062-.687 6.42 6.42 0 0 0 1.32-1.788c.29-.52.554-1.054.79-1.601a11.908 11.908 0 0 0-2.825-1.767c-.158.44-.289.797-.426 1.19l2.062.817c-.11.516-.35.633-.735.495a5.8 5.8 0 0 0-1.011-.337 6.902 6.902 0 0 0-1.141 0c.598.88 1.375.894 2.124 1.093-.172.516-.481.688-.962.55-.379-.11-.75-.234-1.128-.33-.378-.096-.64-.158-.88.378l1.375.743c-.763.894-1.437-.24-2.2 0 .399.563.908 1.237 1.513 1.258l.062-.014Zm-.523 2.014-.763 1.636c.674-.295.86-.66.729-1.622l.034-.014Zm-.97-1.003-.157-.083c-.33.447-.688.873-.983 1.327-.296.454 0 .584.453.914.227-.797.44-1.47.654-2.145l.034-.013Zm-7.286 4.667a3.972 3.972 0 0 1 3.038-1.017l-.831.509.103.309 3.89-1.272c-1.264-.687-1.814-1.959-3.127-2.536 0 .687.481.934.79 1.278.31.344.688.729 1.162 1.265-.612.069-1.058.261-1.375.138-1.375-.495-2.426.192-3.533.721a9.909 9.909 0 0 0-1.238.853 1.017 1.017 0 0 0 1.087-.234l.034-.014Zm-2.86.117-1.766.605c1.113.2 1.113.2 1.732-.591l.034-.014Zm-1.375-2.75a1.608 1.608 0 0 0-1.931.736l-2.592.296c.213.171.378.398.495.378.728-.124 1.54 0 2.096-.688h.049a2.75 2.75 0 0 0 1.835-.721h.048Zm-3.21 2.984 2.062-.57-.082-.31-1.987.736.007.144Zm-8.167-1.045c.186.058.377.099.57.124 1.108.055 2.214.13 3.321.117a1.375 1.375 0 0 1 1.423.983H56.52l-.062.165c.216.12.447.21.687.268 1.169.075 2.344.11 3.513.185.928.055 1.031.124 1.506.805h-3.616a.99.99 0 0 0 .983.598c1.237-.055 2.468-.172 3.836-.275-.138-.337-.165-.584-.296-.688a11.473 11.473 0 0 1-3.637-4.248c-.79-1.437-1.505-2.915-2.248-4.38a15.46 15.46 0 0 1-1.505-4.323 9.626 9.626 0 0 0-.536-1.822 13.554 13.554 0 0 1-.688-3.76c-.24-2.915-.412-5.837-.687-8.751-.193-2.159-.481-4.31-.736-6.517-.749 0-1.58.227-2.289-.35-.055-.049-.24.11-.371.116h-1.176c-.04-.426-.068-.729-.116-1.203l3.822.254c-.09-.357-.145-.59-.206-.845h-3.362c-.13-.344-.255-.653-.426-1.093.433-.06.869-.098 1.306-.11.687 0 1.375.055 2.02.117.565.048.785-.193.736-.846H48.74c0-.44-.055-.777-.083-1.162 1.437-.378 2.805.062 4.304.083 0-.468.048-.9.082-1.437h-4.125v-1.306h4.022c.385-.942.069-1.96.234-2.977-1.19-.151-2.269-.302-3.348-.433-.578-.069-.578-.055-.509-.99l3.96.316v-1.601l-4.001-.234c.055-.44.096-.77.151-1.224l4.2.433c.056-.385.104-.756.172-1.237l-4.124-.392c.034-.948.068-1.058.742-1.058a18.87 18.87 0 0 1 2.324.24c.35.041.687.13 1.1.22.123-.598.233-1.107.35-1.698l-4.056-.543v-.983c1.405-.01 2.8.222 4.125.688.09-.571.165-1.011.261-1.595l-4-.688v-.784a9.115 9.115 0 0 1 4.227.454 90.05 90.05 0 0 0 .474-2.213c-.398 0-.77-.049-1.14-.049H51.84c-.515 0-.783-.26-.797-.886a21.173 21.173 0 0 1 4.427 0l.433-1.856c-1.56.618-2.887.158-4.262-.186-.124-.495.13-.742.591-.763.598 0 1.203 0 1.808.041s1.327.083 2.062.13c.151-.838.282-1.553.427-2.336l-3.98-.241v-.928c1.374-.516 2.666.103 4.048.144l1.691-3.836-3.829-.612c-.075-.488 0-.776.55-.804a7.782 7.782 0 0 1 3.816.688c.281-.557.584-1.148.955-1.863l-4.028-.433c.343-.97.426-1.045 1.12-.95 1.052.152 2.104.324 3.231.496.282-.42.57-.853.963-1.45l-3.816-.427c.33-.612.633-.88 1.258-.729.626.152 1.135.09 1.698.186.429.103.85.236 1.258.399l1.43-1.272-3.547-.193a2.668 2.668 0 0 1 4.008-.171l2.323-1.08-.062-.254c-.687 0-1.374-.041-2.062-.076a11.83 11.83 0 0 1-1.918-.13 2.75 2.75 0 0 0-1.945.364 11.426 11.426 0 0 0-3.953 3.671c-.488.687-1.052 1.34-1.526 2.062-.21.366-.38.753-.509 1.155-.33.825-.605 1.678-1.003 2.461-.432.897-.75 1.844-.95 2.819-.26 1.072-.687 2.11-.955 3.176-.192.687-.323 1.375-.453 2.062-.131.688-.207 1.265-.303 1.898-.31 1.931-.495 3.89-.949 5.788-.495 2.062-.419 4.124-.632 6.152-.179 1.692-.206 3.438-.24 5.115-.049 2.31-.042 4.62-.049 6.93.012.166.035.331.069.494l4.352.104v1.113c-.956.289-1.458.179-2.75-.082-.468-.09-1.038.323-1.547.536 0 0 .069.46.172.488.309.068.625.098.942.09l3.066.068c.082.578.15 1.052.22 1.554-1.41.447-2.75-.413-4.331.213.257.12.527.212.804.275.928.055 1.856.069 2.75.13.893.062.9.158.948 1.093a2.217 2.217 0 0 1-.584.124c-.921-.055-1.835-.137-2.75-.2-.612-.04-.687.07-.907.963l4.4.179v1.444c-1.038.426-2.063.116-3.149.11-.35 0-.983-.434-1.024.247 0 .509.598.364.955.371H53.2v1.609c-.598.048-1.189.09-1.787.124-.103 0-.275 0-.302-.055-.392-.908-1.204-.269-1.836-.688-.069.447-.117.736-.158.956l4.076.268c.267.48.34 1.042.207 1.574l-4.125-.454c.887.598 2.626.736 4.125.454.082.509.158 1.024.254 1.622a13.328 13.328 0 0 0-1.904 0c-.688.09-.688-1.01-1.533-.611-.09.172-.227.412-.371.687l3.78.22c.062.509.11.914.166 1.41h-3.046l-.034.157c.196.081.398.145.605.193.598.096 1.203.151 1.8.254 1.1.186 1.1.193 1.252 1.533-.612 0-1.21.035-1.801 0-.179 0-.344-.247-.509-.385-.46-.398-.79-.33-1.175.344l2.928.515c.852.152.853.159.963 1.087-.495.33-1.238-.179-1.692.556h.688c1.327 0 1.375.062 1.622 1.527-1.21.15-2.406.385-3.63-.296 0 .227 0 .42-.054.75l3.939.247.412 1.279c-1.21.323-2.379.137-3.527.336l3.754.241c.227.378.433.735.687 1.217l-1.794.206 2.062.364c.159.323.324.688.53 1.093a4.372 4.372 0 0 1-3.74-.653 98.03 98.03 0 0 1-.082.915l4.29.336c.13.275.288.585.515 1.06l-2.496.267v.096l2.145.29a1.327 1.327 0 0 1 1.279 1.312l-3.513-.357c-.337-.062-.667-.11-.653.474h.048ZM49.59 53.062h.633v-.248l-.626-.061a1.395 1.395 0 0 0-.055.309h.048Zm1.877 12.284h.928c-.413-.158-.688-.336-.976 0h.048Zm-5.5 12.629c-1.76-.371-3.354-.048-4.936-.158.997.467 3.19.536 4.923.172l.013-.014Zm-6.64.481c-.268-.612-.268-.612-2.207-.206l2.207.206Zm-6.744-.99c.914-.082 1.746-.13 2.564-.234 1.334-.158 2.654-.37 3.987-.515a23.881 23.881 0 0 1 8.463.646c.185.036.374.052.563.048h.11l.743.64c.323.281.323.281 1.127.15-.646-.37-1.155-.817-1.87-.79h-.068a4.815 4.815 0 0 0-1.107-.626 14.397 14.397 0 0 0-4.414-.687c-2.481.124-4.963.316-7.438.509-.77.075-1.537.192-2.296.35-.35.07-.584.268-.378.509h.014Zm-4.035-.24H27.51a.798.798 0 0 0 1.024 0h.014Zm-1.595-1.1c1.491 0 2.997.061 4.489-.055 2.866-.227 5.733-.55 8.6-.86a18.56 18.56 0 0 1 7.176.399l4.208 1.485c.536.192 1.079.357 1.608.584a1.271 1.271 0 0 0 1.3-.261 5.726 5.726 0 0 0-.846-.412c-1.746-.482-3.5-.956-5.252-1.375a3.876 3.876 0 0 0-1.018 0c-.357-.592-1.01-.592-1.567-.73a14.705 14.705 0 0 0-4.998-.171c-1.704.158-3.437.371-5.121.53-1.684.157-3.479.336-5.218.398-1.409.055-2.825-.041-4.283-.069a.866.866 0 0 0 .929.536h-.007Zm-8.428-.963c0 .103.309.124.467.186l.151-.179a1.03 1.03 0 0 1-.082-1.554l-1.038-.302c.165.64.295 1.237.488 1.85h.014Zm-1.513-.687c0-1.066-.09-1.1-1.244-.79.392.865.392.865 1.23.783l.014.007Zm-1.608-7.294c0 .564.15.839.687.887 1.024.09 2.062.22 3.087.323 1.216.13 1.272.192 1.375 1.636l-4.194-.543c-.11.474.124.543.447.577 1.375.165 2.75.35 4.125.523l.646 1.423c-1.609 0-3.046-.468-4.565-.722.103.577.447.729.9.825 1.376.282 2.716.591 4.125.907.138.234.29.509.482.846l-.853.289c.963.275 1.691.577 1.485 1.752l-3.038-.598a1.561 1.561 0 0 0 1.374.853c.344 0 .688.172 1.045.186a1.581 1.581 0 0 1 1.63 1.1.724.724 0 0 0 .11.185c.233.302.453.79.907.488.454-.302 0-.687-.165-.983-.399-.777-.804-1.547-1.196-2.33-.392-.784-.86-1.719-1.244-2.599-.688-1.567-1.306-3.155-1.966-4.73-1.458-3.512-1.918-7.28-2.75-10.944a36.145 36.145 0 0 1-.523-4.667 16.88 16.88 0 0 0-.268-2.22 10.927 10.927 0 0 1-.33-3.472c.076-.84-.158-1.031-1.024-1.086H15.5l-1.258-.33c-.213.584-.688.22-1.038.247-.35.027-.915-.083-1.375-.09-.124 0-.248.159-.467.317.24.103.357.2.474.2a5.5 5.5 0 0 1 2.68.494c.444.159.906.253 1.376.282l-.358.24c.173.181.317.388.426.612.04.327.04.657 0 .983-1.464-.577-2.942-.639-4.379-.941l-.061.275.536.185c.412.165.914 0 1.244.564.138.22.784.144 1.196.186.413.04.784.034 1.169.103.385.068.433.316.268.742a17.298 17.298 0 0 1-4.228-.632c0 .845 0 .9.756.976.956.103 1.918.158 2.88.234l.764.075c-.426.474.385.426.213.846a10.31 10.31 0 0 1-3.293-.213c-.206-.042-.412-.138-.619-.159-.206-.02-.687 0-.632.365a.894.894 0 0 0 .474.598c.276.07.563.09.846.055h3.3c0 .495.04.935.068 1.547-1.258-.076-2.426-.13-3.588-.22-.406 0-.777-.103-.908.522l.688.09c1.168.171 2.344.33 3.513.529a.612.612 0 0 1 .398.399c.036.354.036.71 0 1.065-1.546 0-2.956-.722-4.557-.825 0 .688.474.612.77.688.81.13 1.629.192 2.44.316 1.512.234 1.574.316 1.774 2.062l-4.469-.866c.09.33.158.584.227.825l4.579.687c.123.605.24 1.169.391 1.939l-4.88-.873c.233.185.357.364.508.392 1.073.24 2.145.509 3.231.653 1.3.165 1.45.254 1.568 1.78l-4.696-.433c.09.516.509.46.812.502.955.124 1.91.22 2.873.303 1.272.11 1.272.103 1.375 1.587l-4.386-.611c-.082.426.158.522.516.563 1.024.11 2.062.234 3.072.365 1.272.158 1.334.233 1.375 1.718l-4.447-.749c-.042.46.206.55.556.591 1.1.117 2.2.227 3.286.406 1.086.179 1.245.371 1.375 1.712l-4.454-.784Zm4.324 6.874.488.124.062-.158-.502-.144a1.739 1.739 0 0 0-.062.178h.014ZM8.77 62.281l3.08.62c-.523-.682-1.052-.785-3.094-.62h.014Zm2.866 4.483a1.374 1.374 0 0 0 1.08.55l.062-.282-1.142-.268Zm2.351-6.648c.344.495.688.275.984.234l-.983-.234Zm.853 13.673c-.454-.488-1.066-.447-1.63-.557-.563-.11-1.106-.165-1.656-.247a6.187 6.187 0 0 0 3.272.804h.014Zm-.784-1.375L9.04 70.998c.591.866 3.217 1.657 5.005 1.41l.013.006ZM8.4 70.352c1.073.154 2.138.366 3.19.632.281.083.597-.618.81.083.049.179.537.22.874.337.117-.564.062-.963-.482-1.066-1.52-.37-3.092-.47-4.647-.295.158.192.193.281.255.295v.014Zm1.12-1.148-1.76-.474c.055.935.42 1.01 1.746.46l.014.014Zm3.369-.722a.198.198 0 0 0 0-.09v-.096l-5.83-1.622a2.592 2.592 0 0 0-.57 0c.708.653 4.2 1.609 6.386 1.794l.014.014Zm-1.932-2.103H9.719c.502.213.784.495 1.224-.014l.014.014Zm-5.032-.887c1.031.426 2.124.041 3.176.11s2.179 0 3.279 0c.13-.433 0-.64-.35-.64H8.632c-.735 0-1.47.104-2.206.165-.172 0-.337.042-.502.062v.303Zm-.743-1.45 5.026.302v-.13l-5.5-1.176.474 1.003Zm1.884-2.496c.921-.035 1.835 0 2.75 0 .146-.045.287-.108.42-.186a5.303 5.303 0 0 0-.565-.206c-.814-.215-1.64-.38-2.474-.495a23.72 23.72 0 0 0-2.613.069v.357a8.6 8.6 0 0 0 2.44.447l.042.014ZM3.732 60.28a6.572 6.572 0 0 1 3.987-.364 27.74 27.74 0 0 1 3.692 1.086c-1.093-1.306-5.39-2.145-7.68-1.423v.701Zm7.445-.688c-.282-.687-.811-.81-1.251-1.058a1.559 1.559 0 0 0-.605-.193c-1.657-.158-3.307-.495-4.977-.15-.385.075-.385.075-.873.542 2.64-.866 5.114-.055 7.678.832l.028.027Zm-7.63-4.028c.638.021 1.274.088 1.903.2 1.272.323 2.599.398 3.843.824.09.035.2 0 .433 0-1.086-.364-2.062-.914-3.024-.941-1.313-.035-2.482-.64-3.83-.73.028.468.29.585.66.62l.014.027Zm-1.156-2 8.043 2.701c.049-.632-.24-.831-.756-1.003-1.718-.578-3.437-1.23-5.107-1.856a3.914 3.914 0 0 1-.51-.33 11.885 11.885 0 0 1 5.762 1.374c-.049-.57-.083-.969-.131-1.484l-7.514-.805c.076.543.138.97.2 1.375l.013.028Zm.468-4.909c.46.165.907.392 1.375.564a2.625 2.625 0 0 1 1.65 1.279c-1.375.144-2.413-.688-3.678-.963a1.375 1.375 0 0 0 1.278 1.073c1.038.185 2.063.337 3.128.495l2.887.398c.42-.832 0-1.711.076-2.564 0-.144-.399-.337-.646-.44a17.044 17.044 0 0 1-1.904-.887 3.01 3.01 0 0 1 2.378.42c.103-.365.186-.646.268-.922-.99-.364-7.41-.818-8.304-.611a2.007 2.007 0 0 0 1.478 2.13l.014.028Zm6.015-4.172.522-.056s.055-.04.09-.075c.11-.371-.048-.516-.426-.488a14.5 14.5 0 0 0-4.29.75 8.147 8.147 0 0 0-1.506.687 2.132 2.132 0 0 0 1.815.055c1.169-.715 2.475-.77 3.781-.901l.014.027ZM6.2 45.68c.175.035.351.06.53.075.735.041 1.47.062 2.206.09.31 0 .564-.042.509-.53a8.544 8.544 0 0 0-3.238.152c0 .082-.007.158-.007.213Zm-4.881-2.27c1.32-.13 2.4-1.107 3.733-.797.075 0 .123.15.233.288a13.062 13.062 0 0 1-3.595 1.375c.289.619.633.447 1.045.255a17.914 17.914 0 0 1 5.053-1.575 13.185 13.185 0 0 1 1.822 0c0-.357.061-.776.11-1.299H1.043c.103.626.186 1.176.275 1.767v-.014Zm51.998-31.815c1.306 0 2.496.688 3.76.24a.64.64 0 0 0-.453-.996c-.78-.202-1.576-.34-2.379-.412-.742-.049-.728.611-.928 1.182v-.014ZM48.85 34.921c.048.399.09.688.144 1.086l3.582.18c.158-.846.103-1.025-.619-1.176a7.419 7.419 0 0 0-3.107-.076v-.014Zm3.21-18.801c1.375.04 2.702.302 4.125-.18-.186-.198-.248-.33-.323-.336a105.34 105.34 0 0 0-2.95-.165.755.755 0 0 0-.852.68ZM12.586 34.316c-.051.164-.09.332-.117.502.007.157.025.313.055.468.997.04 2.008.137 3.018.103.688 0 .77-.227.585-1.238l-3.54.165Zm-.137 1.85v1.024c1.199.244 2.43.288 3.643.13a77.376 77.376 0 0 1-.213-1.25c-1.162.604-2.227-.09-3.43.082v.013Zm7.458-21.545c-.227-.962-.24-.963-1.127-1.017-.523-.035-1.059-.042-1.581-.11-.523-.07-.86.171-.914.873a8.365 8.365 0 0 0 3.622.24v.014Zm.867-3.314h-3.561v.64c.076.04.157.073.24.096.853.055 1.698.124 2.544.138.646 0 .777-.124.777-.873ZM39.499 30.7c-.969.323-1.945.633-2.9.997-.392.151-.598.488-.351 1.073a2.25 2.25 0 0 0 1.712-.84c.318-.375.763-.62 1.25-.687 1.809-.37 3.596-.866 5.39-1.313a.446.446 0 0 0 .255-.206c-1.526.145-3.073.117-4.53.729-.269.103-.557.137-.819.233l-.007.014Zm-19.777-1.27a5.438 5.438 0 0 0-1.251.412c1.086 0 2.165.062 3.251.041a3.85 3.85 0 0 0 1.575-.42c-.197-.06-.4-.1-.605-.116-.983-.007-1.973-.014-2.963.069l-.007.014Zm24.06 1.223v.206l2.984-.337c0-.13 0-.254-.055-.378-1.018-.274-1.925.351-2.915.495l-.014.014ZM27.284 52.39c.79.034 1.375.083 1.897.076a4.633 4.633 0 0 0 1.148-.165c2.557-.688 5.115-1.444 7.679-2.145.921-.248 1.856-.426 2.75-.729a5.816 5.816 0 0 0-2.833.117 2.812 2.812 0 0 1-.914.186c-3.424-.124-6.503 1.1-9.727 2.646v.014Zm.536-2.702-5.355 1.863a2.2 2.2 0 0 0 2.062.159c1.911-.578 3.802-1.245 5.699-1.877.261-.09.509-.206.763-.31l-.103-.233c-.433.11-.866.2-1.3.323-.432.124-.852.55-1.333.055-.09-.083-.31-.041-.433.007v.013Zm-8.586 1.492c.33.051.666.051.996 0a91.323 91.323 0 0 0 5.04-1.677 7.39 7.39 0 0 0-6.036 1.677Zm1.155-2.007-1.458.227v.337l1.464-.378-.006-.186Zm8.936-4.276c-1.14-.392-2.248-.894-3.368-1.375a6.09 6.09 0 0 0-3.265-.399c2.667 1.107 4.942 2.496 7.561 3.094a12.06 12.06 0 0 0 4.551.151 28.735 28.735 0 0 0 7.803-2.46c.22-.117.43-.252.625-.406a2.16 2.16 0 0 0 .303-.365 2.474 2.474 0 0 0-1.932.248 20.513 20.513 0 0 1-8.25 2.385c-1.422.158-2.708-.406-4.014-.852l-.014-.021Zm7.817-1.279a8.111 8.111 0 0 1-4.125.24 66.093 66.093 0 0 1-3.025-.687 7.94 7.94 0 0 0-2.75-.199 13.817 13.817 0 0 0 13.653.151 6.998 6.998 0 0 0-3.753.495Zm-2.152-.357a.634.634 0 0 0 0-.117l-2.062-.11v.227h2.062Zm9.741-2.75c-.083-.144-.151-.35-.282-.399a9.565 9.565 0 0 0-1.334-.378c-2.282-.55-4.392-1.601-6.606-2.364-1.938-.688-3.85-1.472-5.96-1.458h-.64c-.212 0-.336.055-.755.13 1.127.338 2.027.585 2.921.874 2.255.742 4.503 1.519 6.771 2.248a84.33 84.33 0 0 0 4.703 1.375c.391.063.79.066 1.182.007v-.035Zm0 0h.055v.048h-.062l.007-.048Zm-1.595-24.844-.041.124c.135.088.28.16.433.213 1.251.275 2.495.584 3.76.79a1.376 1.376 0 0 0 1.753-.962c-.09-.041-.2-.138-.261-.117a6.043 6.043 0 0 1-2.626 0c-.97-.062-2.007.014-2.99.014l-.028-.062Zm15.811 8.25c-.185.212.117.687.44.687.175-.01.348-.04.516-.09l6.998-.832c-2.117-.866-4.358-.096-6.654-.04l.804-.62-.041-.192a2.459 2.459 0 0 0-.928.151 4.706 4.706 0 0 0-1.093.976l-.042-.04Zm16.004-17.42a24.294 24.294 0 0 1-5.053-2.53 3.808 3.808 0 0 0-2.667-.351c2.454 1.114 4.53 2.908 7.273 3.795l.688-.756a1.061 1.061 0 0 0-.241-.159Zm1.746-.963a7.734 7.734 0 0 0-4.461-1.237c.055.096.089.226.158.26 1.072.482 2.151.943 3.224 1.417.515.22.797-.11 1.08-.447v.007ZM63.203 19.137l1.821-.123h-1.821v.123Zm3.925 11.687c-.698.097-1.388.248-2.062.454a1.553 1.553 0 0 0-.777.763c-.186.405.24.605.522.818.86.687 1.733 1.306 2.599 1.966l.254-.234c-.055-1.437-1.78-1.574-2.29-2.832l2.483-.763a2.352 2.352 0 0 0-.73-.179v.007Zm.509 2.214c0-.317.034-.633.061-1.135-.501.454-.577.77-.061 1.128v.007Zm-3.245 10.174c.811.557 1.65.48 2.64.632-.392-.742-.97-.845-2.64-.64v.008ZM24.974 61.615c.2.15.337.336.447.323 1.375-.152 2.75-.337 4.124-.509l-.04-.234c-1.465-.09-2.977-.302-4.531.413v.007Zm41.576-.743c.688.688 1.582.605 2.537.688-.062-.303-.103-.53-.158-.805l-2.317-.15-.061.267ZM7.026 36.324H6.07c.165.103.227.165.282.165.234 0 .467 0 .687-.035a.727.727 0 0 0-.013-.13Zm-3.678 10.73-.124.324c1.581 1.608 3.754 2.007 5.809 2.852.248-.893-.392-1.086-.784-1.292a34.349 34.349 0 0 0-3.265-1.533 8.654 8.654 0 0 0-1.636-.35Zm86.17 9.625c-.576.728.097.92.4 1.285.412-.598.412-.598-.4-1.285Zm-1.608-.172c.371.227.688.591.956.103a.55.55 0 0 0-.103-.522c-.427-.262-.619.089-.853.446v-.027Zm-20.623-4.331c0-.392.055-.687.076-.976a1.54 1.54 0 0 0-.296-.227c-1.423-.564-2.86-1.107-4.276-1.691a3.966 3.966 0 0 0-2.282 0c2.2.942 4.296 2.248 6.75 2.922l.028-.028Zm-.069-2.104c.048-.88 0-1.003-.687-1.051-.493-.013-.987.006-1.478.055v.233l2.165.763ZM63.21 68.207l-.866.151.041.234.88-.117c-.048-.062-.061-.151-.082-.24l.027-.028ZM25.93 40.62h1.286v-.247c-.433.068-.9-.372-1.306.103a1.05 1.05 0 0 0-.007.172l.027-.028Zm9.94-27.236h-.92v.158l.92-.07s-.027-.033-.027-.06l.028-.028ZM66.002 55.07l2.007.536c-.041-.288 0-.488-.083-.522a3.486 3.486 0 0 0-1.883-.248L66 55.07Zm26.81-16.017h-1.375c-.481 0-.688.041-.756.611a2.53 2.53 0 0 0 2.096-.584l.035-.027Z" fill="#fff"/></svg>