<svg width="109" height="67" fill="none" xmlns="http://www.w3.org/2000/svg"><path d="m82.268 44.38-.04-.194c.712-.228 1.412-.49 2.135-.666a15.7 15.7 0 0 1 2.253-.413c1.75-.173 3.41-.744 5.09-1.198a41.261 41.261 0 0 1 7.9-1.302c1.408-.099 2.825-.026 4.364-.025l.078-1.19c-2.752-.03-5.406-.417-8.058.05-.189.032-.38.049-.567.094-1.56.391-3.113.797-4.696 1.17-1.692.407-3.386.823-5.096 1.17-.845.168-1.74.112-2.575.31-1.005.231-1.853-.135-2.75-.52.602-.09 1.206-.19 1.809-.267 1.11-.135 2.221-.238 3.33-.386a34.26 34.26 0 0 0 2.495-.403c2.322-.46 4.601-.931 6.886-1.45a37.581 37.581 0 0 0 5.773-2.058c.629-.258.659-.55.177-1.36-.311.104-.639.222-.96.327-2.418.752-4.838 1.502-7.258 2.247-.477.153-.996.27-1.503.377-.508.106-.942.246-1.362-.208-.12-.127-.426-.09-.622-.131-.65-.035-1.325-.045-1.957-.085a3.187 3.187 0 0 1-.933-.197c2.771-.166 5.502-.5 8.299-.915l-.133-1.011a6.322 6.322 0 0 0-1.098-.068c-1 .122-1.992.309-2.993.44-.59.075-1.194.068-1.788.142-1.052.138-2.1.322-3.154.464-.348.046-.706.037-1.057.056-.488.035-.979.06-1.464.105-.726.069-1.448.139-2.18.238-.38.016-.76.052-1.136.107a10.41 10.41 0 0 1-3.248.172 10.143 10.143 0 0 0-2.429.167 19.72 19.72 0 0 1-3.097.07 37.034 37.034 0 0 0-5.81.254 2 2 0 0 1 .428-.216 24.68 24.68 0 0 1 4.872-.594c1.44-.083 2.876-.242 4.313-.37 1.224-.106 2.442-.227 3.668-.324a18.562 18.562 0 0 0 3.212-.571 1.502 1.502 0 0 0-.212-1.588 2.62 2.62 0 0 0-.394.076c-.839.32-1.732.47-2.63.446a7.18 7.18 0 0 0-1.834.257c-2.323.453-4.69.645-7.056.573.012-.055-.01-.122.032-.153.164-.228.568-.414.288-.731-.122-.137-.498-.106-.738-.063-1.829.379-3.689.257-5.532.432-1.843.176-3.586-.166-5.383-.212-.884-.027-1.729-.365-2.734-.578 1.544-.46 2.96-.3 4.37-.21.921.056 1.84.193 2.767.246.928.054 1.962.063 2.943.075.284.002.557-.07.57-.445.012-.375-.253-.382-.5-.417-1.08-.152-2.15-.352-3.242-.422-3.236-.2-6.466-.45-9.678-.916a16.457 16.457 0 0 1-1.96-.472 9.573 9.573 0 0 1 3.64.142c.632.17 1.264.334 1.903.47.123.025.383-.067.393-.136.032-.149-.022-.422-.123-.47a5.265 5.265 0 0 0-1.009-.298 64.299 64.299 0 0 1-3.567-.848c.888.01 1.773-.305 2.722.024.942.27 1.91.44 2.887.508 1.978.24 3.954.444 5.935.65 1.742.176 3.52.37 5.284.51.7.055 1.41-.017 2.112.002 1.635.012 3.266.041 4.883.053.382.016.765-.006 1.144-.065.203-.037.375-.24.563-.37a3.383 3.383 0 0 0-.426-.535 1.21 1.21 0 0 0-.457-.15c-1.81-.507-3.627-1.002-5.433-1.53A16.759 16.759 0 0 1 69 29.36c-1.712-.74-3.538-.855-5.357-.963a60.42 60.42 0 0 1-7.685-.98 3.044 3.044 0 0 1-.825-.307 672.327 672.327 0 0 1-5.242-2.834 26.577 26.577 0 0 1-4.236-2.755c-.761-.605-1.608-1.127-2.422-1.673-.814-.545-1.769-1.08-2.587-1.712-1.29-.989-2.732-1.81-3.854-3.003a6.008 6.008 0 0 0-1.118-.815c-.916-.594-1.844-1.168-2.745-1.75-.828-.522-1.63-1.087-2.484-1.57a2.885 2.885 0 0 0-2.186-.329c-1.582.373-3.2.659-4.756 1.1a5.806 5.806 0 0 1-3.365-.142c-1.073-.312-2.15-.606-3.219-.912-.243-.051-.47-.153-.706-.216-.988-.271-1.536-.92-1.969-1.862-.698-1.517-1.23-3.085-1.773-4.659-.43-1.23-.964-2.428-1.476-3.71-.327.242-.636.039-.984.321-.639.515-.725.946-.495 1.729a73.694 73.694 0 0 0 3.464 9.438c.6 1.368 1.228 2.737 1.764 4.136a10.55 10.55 0 0 1 .608 3.438 9.289 9.289 0 0 1-.876 3.957 8.531 8.531 0 0 0-.593 4.003c.063.756.052 1.523.137 2.28a6.581 6.581 0 0 0 1.184 3.257 20.017 20.017 0 0 1 2.235 4.16 8.553 8.553 0 0 0 2.32 3.128 22.2 22.2 0 0 0 5.487 3.505c.891.392 1.84.664 2.75 1.026.258.08.497.212.701.388a9.177 9.177 0 0 1 1.89 2.134 3.29 3.29 0 0 0 2.024 1.536c1.25.402 2.447.922 3.665 1.388.482.182.963.35 1.52.557-.935.888-2.343 1.253-2.605 2.79 1.299.022 2.493.034 3.684.059.443.013.876.064 1.321.065.713-.005.848-.221.719-.916-.139-.776-.227-1.56-.332-2.343a2.995 2.995 0 0 1 .022-.467c.505.476.934.847 1.328 1.255.616.642.797.671 1.613.114a1.963 1.963 0 0 0-.221-.385c-1.128-1.212-2.238-2.444-3.405-3.615-.59-.592-1.29-1.074-1.932-1.614a21.56 21.56 0 0 1-.96-.888 5.52 5.52 0 0 0-1.386-1.103 4.506 4.506 0 0 1-1.171-1.11c-.41-.438-.81-.883-1.181-1.358a2.546 2.546 0 0 1-.473-1.025c.43.367.836.76 1.292 1.083a30.12 30.12 0 0 1 4.087 3.377c.532.557 1.033 1.108 1.552 1.663 1.38 1.474 2.686 3.036 4.405 4.124 1.57.986 3.136 1.998 4.989 2.39.14.049.276.11.406.183.525-.57.508-.782-.117-1.132-.898-.506-1.823-.973-2.71-1.494a13.55 13.55 0 0 1-1.377-.994c-.822-.618-1.651-1.238-2.44-1.908a6.934 6.934 0 0 1-1.812-2.349c.242.217.496.419.762.606 1.623 1.055 3.245 2.114 4.895 3.13.668.417 1.404.72 2.105 1.09.39.194.767.414 1.129.656a37.036 37.036 0 0 0 5.765 3.412 21.61 21.61 0 0 0 2.062.77c.462.117.95.079 1.388-.108l.042-.2c-.868-.397-1.745-.773-2.592-1.206-.847-.433-1.634-.897-2.445-1.353a.818.818 0 0 0-.088-.05 7.78 7.78 0 0 1-.951-.446c-1.166-.798-2.385-1.554-3.487-2.445-1.192-.968-2.485-1.86-3.332-3.177.363.259.714.533 1.09.773 1.38.883 2.741 1.767 4.153 2.621.583.355 1.194.662 1.826.92 2.029.82 3.958 1.837 5.903 2.822a34.25 34.25 0 0 0 6.047 2.475c.705.202 1.407.417 2.084.663a3.48 3.48 0 0 0 1.93-.037c.098-.02.17-.173.333-.353l-2.662-.962c-1.586-.576-3.185-1.118-4.759-1.731-.58-.225-1.122-.562-1.683-.836-1.093-.53-2.216-1.007-3.277-1.583a22.943 22.943 0 0 1-4.056-2.72c-.038-.035-.047-.095-.115-.239.103.016.203.046.297.09 2.711 1.907 5.796 2.888 8.871 3.912 3.654 1.217 7.4 2.102 11.132 3.007.886.154 1.784.243 2.684.264a.435.435 0 0 0 .311-.063 1.02 1.02 0 0 0 .325-.483c.054-.255-.173-.317-.427-.357-1.455-.232-2.914-.443-4.346-.763-1.677-.354-3.314-.883-4.986-1.267a23.468 23.468 0 0 1-4.402-1.504 12.128 12.128 0 0 1-3.206-2.088 7.464 7.464 0 0 1-.708-.861c.219-.025.322-.07.355-.037.9.769 2.039.876 3.12 1.105.533.112 1.073.186 1.605.299a9.266 9.266 0 0 1 2.232.747 15.095 15.095 0 0 0 5.943 1.621c2.07.094 4.128.38 6.145.854.284.067.563.149.838.244a8.847 8.847 0 0 0 3.292.53c2.067-.078 4.136-.122 6.208-.2.515-.02 1.028-.107 1.54-.155.358-.03.563-.197.565-.566.002-.368-.275-.805-.638-.81-.573-.006-1.15.006-1.72.032a269.74 269.74 0 0 0-4.572.248c-1.282.09-2.57-.024-3.818-.335a40.318 40.318 0 0 0-7.435-1.042c-2.196-.135-4.17-.792-5.671-2.51a4.774 4.774 0 0 1-.33-.547c.218.024.344-.007.4.045a4.2 4.2 0 0 0 2.191 1.001c2.776.587 5.53 1.2 8.325 1.737 1.549.343 3.144.418 4.718.223 2.02-.298 4.017-.739 6.038-1.019a5.572 5.572 0 0 1 2 .222c1.618.387 3.213.857 4.829 1.252 1.164.282 2.342.495 3.513.743.304.03.61.033.915.006.296-1.801.205-1.54-1.115-1.757-1.798-.287-3.585-.673-5.377-1.016-.264-.056-.536-.091-.806-.144a5.036 5.036 0 0 1-.553-.139 4.1 4.1 0 0 1-.535-.29 25.635 25.635 0 0 1 4.798-.873c1.572-.113 3.144-.14 4.866-.208.048-.226.121-.571.158-.915a12.697 12.697 0 0 0-7.41.16c-1.5.493-3.02.924-4.544 1.336-.4.08-.81.084-1.212.01-.588-.08-1.175-.226-1.754-.37-1.43-.333-2.86-.68-4.286-1.026-.046-.01-.08-.057-.22-.154.736.01 1.37.019 2.008.03 2.847.045 5.667-.29 8.49-.515a130.69 130.69 0 0 1 5.145-.306c1.987-.078 3.866-.61 5.736-1.145-.034-.977-.201-1.155-1.044-1.035-.699.106-1.392.27-2.092.381-.423.066-.858.063-1.29.11-2.465.27-4.923.619-7.395.804-2.332.174-4.68.185-7.018.265-.519.033-1.046.041-1.574.059Zm-48.952-.802 5.178 4.208-.053.087a1.743 1.743 0 0 1-.286-.1c-1.109-.627-2.223-1.25-3.324-1.891a1.305 1.305 0 0 1-.455-.457c-.359-.618-.695-1.214-1.06-1.847Zm-6.843-6.691c1.158.12 4.1 2.939 4.528 4.28-.68-.38-1.4-.741-2.097-1.173-2.23-1.339-1.835-.957-2.457-2.962-.008-.024.007-.052.026-.145Zm-6.727-6.983c.366.522.635.913.933 1.287.868 1.073 1.778 2.115 2.599 3.219.604.848 1.06 1.803 1.58 2.71l-.145.138a2.358 2.358 0 0 1-.511-.295 18.808 18.808 0 0 1-1.24-1.29c-.957-1.092-1.931-2.188-2.807-3.37-.485-.63-.547-1.45-.41-2.399Zm19.41-7.642c-1.042-.145-2.038-.253-3.025-.426a23.28 23.28 0 0 1-2.459-.573 16.816 16.816 0 0 1-3.602-1.731 7.182 7.182 0 0 0-3.238-1.036c-1.869-.101-3.74-.3-5.582.396-.028-.812-.384-1.274-1.141-1.336-.166-.564.39-1.176-.245-1.64-.531-.393-1.099-.148-1.695-.149a1.393 1.393 0 0 0-.848-1.607.657.657 0 0 1-.388-.838c1.044.558 2.05 1.033 2.994 1.62a5.118 5.118 0 0 0 2.846.784c1.408-.01 2.826.125 4.23.253.808.073 1.607.25 2.408.398 1.018.215 1.817.873 2.664 1.39 2.384 1.456 4.73 2.984 7.08 4.495Zm7.373 4.472c-2.465-.61-4.896-1.168-7.431-1.126a17.292 17.292 0 0 1-5.06-.73c-1.255-.373-2.264-1.178-3.546-1.89.225-.041.452-.07.68-.087 1.387.026 2.772.122 4.148.29a37.86 37.86 0 0 1 6.855 1.831c.686.252 1.387.596 2.177.46a.692.692 0 0 1 .368.149c.627.36 1.228.735 1.83 1.107l-.02-.004Zm4.806 2.897a20.159 20.159 0 0 1-2.761-.299c-2.257-.477-4.5-1.026-6.767-1.452-1.759-.327-3.549-.51-5.326-.752a4.36 4.36 0 0 0-.528-.009l.036-.166a36.843 36.843 0 0 1 12.857 1.743l.348-.7c.743.566 1.555.956 2.163 1.64l-.022-.005Zm27.836 10.416-.04-.19a5.18 5.18 0 0 1 2.123-.637c.656-.009 1.311-.057 1.964-.03.91.028 1.814.108 2.726.171l-.03.145-6.743.541Zm-.807 6.28c1.678.48 3.392.98 5.087 1.467.336.07.677.143 1.008.24l-.043.2c-.851.135-1.7.298-2.554.403a7.035 7.035 0 0 1-1.374-.002c-.675-.049-1.343-.194-2.018-.199a7.2 7.2 0 0 1-3.48-1.043 3.047 3.047 0 0 1-1.294-1.163 5.788 5.788 0 0 0 3.986.02c.238-.034.48-.006.704.082l-.022-.005Z" fill="#AC6719"/><path d="M59.964 33.892c1.273.06 2.551.095 3.827.182.481.061.958.154 1.427.28a.621.621 0 0 1-.487.199 346.622 346.622 0 0 1-3.662-.293c-1.927-.163-3.858-.371-5.77-.063-1.91.308-3.853.68-5.778 1.03-.187.035-.37.096-.54.18-.731.36-1.455.733-2.185 1.094a4.688 4.688 0 0 1-4.042.183c-.516-.212-1.115-.472-1.178-1.312.252.049.5.117.74.205a9.232 9.232 0 0 0 3.073.783 3.52 3.52 0 0 0 .81-.11l.006-.172c-.497-.198-.995-.388-1.484-.598-.49-.21-1.018-.215-1.438-.65a1.837 1.837 0 0 1 1.796.072 5.5 5.5 0 0 0 2.774.533c.18-.011.452-.158.508-.298.084-.271-.199-.322-.411-.39-.737-.24-1.477-.485-2.238-.735a.548.548 0 0 1 .716-.293c.678.201 1.36.38 2.028.61.77.28 1.59.407 2.408.372a1.71 1.71 0 0 0 .682-.216c.08-.041.12-.233.109-.346-.011-.114-.133-.171-.225-.2-.092-.028-.212.014-.318.01a10.096 10.096 0 0 1-3.308-.785 7.925 7.925 0 0 1 2.734-.053c1.708.17 3.406.408 5.114.555 1.424.123 2.859.155 4.312.227Zm-7.738-2.204c-1.26-.542-10.064-1.13-11.28-.827l3.112 1.4a.87.87 0 0 1-1.167.279c-.964-.448-1.945-.856-2.912-1.292-.273-.12-.524-.297-.853.056l3.227 1.803a1.37 1.37 0 0 1-1.568.113c-.534-.268-1.058-.57-1.602-.837a11.75 11.75 0 0 0-1.225-.52.61.61 0 0 0-.547.106c.517.287 1.041.567 1.547.87.505.302 1.006.626 1.594 1-1.785.574-3.01-.663-4.582-1.303a2.43 2.43 0 0 0 1.145 1.297 5.406 5.406 0 0 0 3.722.573 17.998 17.998 0 0 0 5.994-2.048 3.73 3.73 0 0 1 1.56-.44c1.082-.082 2.152-.368 3.247-.203.196.013.394.004.588-.027Zm-6.576-1.595c1.156.147 2.311.292 3.467.435a1.42 1.42 0 0 0 .345-.052 8.161 8.161 0 0 0-3.812-.383Zm6.663.176a13434.33 13434.33 0 0 1-15.044-2.636l-.066.182c.685.38 1.377.767 2.105 1.174a1.088 1.088 0 0 1-1.378.207c-.869-.455-1.76-.87-2.65-1.29-.238-.1-.48-.185-.729-.256l-.1.183 2.778 2.029c-.718.324-1.264.004-1.797-.233-.533-.237-.994-.561-1.496-.837a2.646 2.646 0 0 0-.908-.334 14.307 14.307 0 0 0 1.96 1.776 1.131 1.131 0 0 1-1.216.027c-.912-.482-1.844-.932-2.765-1.394a3.59 3.59 0 0 0-.377-.133c.105.828.666 1.249 1.213 1.667a4.352 4.352 0 0 0 3.031.752 20.263 20.263 0 0 0 2.081-.312c.59-.094 1.184-.173 1.764-.304.832-.193 1.657-.433 2.49-.648 1.48-.314 3-.407 4.507-.275 1.982.117 3.953.385 5.894.8.23.03.462.044.695.04l.008-.185ZM29.07 15.086c.217.059.438.105.66.139a4.268 4.268 0 0 0-3.392-1.188c-1.721.103-3.43.48-5.163.243 1.019.442 2.081.36 3.126.345 1.6.022 3.195.177 4.77.46Zm-8.01 11.652a16.024 16.024 0 0 0 1.923 3.214c.409.531.392.527.394 1.462-.52-.466-.99-.89-1.494-1.352.37 1.195 1.522 1.812 2.02 3.07l-1.825-1.383c.006.5.303.674.517.883a8.828 8.828 0 0 1 2.01 2.925c.449.93.966 1.825 1.548 2.676.078.093.167.175.264.248l.178-.172c-.267-.501-.58-.959-.802-1.464a16.31 16.31 0 0 1-1.137-3.043c-.301-1.371-.257-2.76-.37-4.14a18.945 18.945 0 0 0-.661-3.356 2.612 2.612 0 0 0-.791-1.31.831.831 0 0 0-.962-.204c.155 1.368 1.1 2.457 1.085 3.895-1.078-.646-1.506-1.652-1.947-2.871a.979.979 0 0 0 .054.905l-.004.017Zm.044 2.528-.307-.399-.114.078.27.409.151-.088ZM43.66 26.38a38.683 38.683 0 0 0-3.322-.342c-1.629-.104-3.263-.013-4.889-.277a11.648 11.648 0 0 1-2.876-.87c-.57-.25-1.105-.58-1.667-.85a1.428 1.428 0 0 0-.647-.138c.797.818 1.856 1.282 2.766 2.067-.625.285-1.173.374-1.724-.031a11.226 11.226 0 0 1-1.18-.877A5.225 5.225 0 0 0 28.041 24a2.659 2.659 0 0 0-.472-.02c.958.856 1.787 1.606 2.651 2.38a.662.662 0 0 1-.937.037c-.612-.41-1.206-.841-1.809-1.271a4.316 4.316 0 0 0-1.11-.582 7.834 7.834 0 0 0 2.764 2.226c-.623.233-1.137.289-1.607-.015-.596-.38-1.162-.815-1.723-1.254-.282-.206-.555-.429-.867-.677-.03.145-.106.227-.084.271.517 1.133 1.224 2.06 2.544 2.317a5.03 5.03 0 0 0 2.683-.064 2.8 2.8 0 0 1 .718-.156 36.776 36.776 0 0 0 4.91-.813 9.096 9.096 0 0 1 2.032-.122 40.78 40.78 0 0 1 6.874.857c1.036.192 2.056.461 3.09.684.102.012.205.012.307-.002l.025-.119c-.765-.255-1.527-.523-2.298-.766a14.416 14.416 0 0 0-2.072-.531Zm-18.034 4.25.39.611.179-.127c-.136-.197-.273-.391-.409-.593l-.16.108Zm27.15-.99a7.136 7.136 0 0 1-1.048-.665 2.637 2.637 0 0 0 2.282.927 7.162 7.162 0 0 1-1.235-.261Zm.396 21.954c-.553-.313-1.11-.622-1.663-.93 1.775 1.745 5.426 3.794 6.723 3.552-.57-.254-1.07-.457-1.552-.697-.483-.24-.923-.476-1.37-.735-.449-.26-.821-.498-1.23-.753l-.681-.331c-.072-.042-.144-.08-.215-.121l-.012.015ZM39.776 45.28c2.011 2.355 4.162 4.532 6.891 6.06.557.314 1.14.584 1.712.87l.11-.204c-.254-.148-.502-.302-.757-.44a20.272 20.272 0 0 1-5.14-3.72c-.859-.903-1.55-1.965-2.337-2.94a30.75 30.75 0 0 1-2.43-3.846 15.76 15.76 0 0 1-.904-2.27c-.14-.345-.3-.685-.455-1.025-.03-.073-.09-.14-.093-.211-.062-1.348-.945-2.224-1.74-3.112a5.714 5.714 0 0 0-1.715-1.066.904.904 0 0 0-1.06.132c1.05 1.347 2.675 2.078 3.526 3.61-1.403-.897-2.928-1.597-4.212-2.87-.189.895.356 1.245.816 1.574 1.01.73 2.078 1.383 3.121 2.07a.87.87 0 0 1 .482.876c-1.465-.474-2.694-1.357-4.013-2.058-.078.575-.046.573.554.935 1.145.687 2.27 1.401 3.403 2.103a1.715 1.715 0 0 1 .798 1.214 735.5 735.5 0 0 0-1.55-.625l-.073.095c.215.214.446.411.69.59 1.747 1.122 3.055 2.697 4.38 4.24l-.004.018Zm26.949 6.927c-.306-.087-.612-.178-.918-.265l-.074.14.93.317.062-.192ZM39.703 42.13c.718 1.402 7.112 6.134 10.443 7.719-.724-.536-1.31-.98-1.926-1.413-.98-.7-1.851-1.54-2.587-2.495a22.922 22.922 0 0 1-1.89-2.552 13.14 13.14 0 0 1-1.032-2.732 6.732 6.732 0 0 0-3.34-4.05 1.388 1.388 0 0 0-.381-.13 1.562 1.562 0 0 0-.313.005c.595 1.082 1.893 1.57 2.205 2.912-.762-.16-1.21-.74-1.727-1.174-.517-.434-.97-.926-1.48-1.42a1.067 1.067 0 0 0 .408 1.082l2.496 2.231c.284.256.586.489.843.766.166.195.28.429.333.68-1.236-.466-2.204-1.32-3.246-2.048l-.122.134c.227.287.477.556.746.803.762.606 1.567 1.177 2.35 1.769a1.696 1.696 0 0 1 .859 1.133.741.741 0 0 1-.05.235c-.864-.503-1.702-.978-2.585-1.472l-.004.017Zm23.255 8.79-.005.025.038.008-.033-.033Zm-1.94-14.877-6.709-.36c.748.861 1.663.93 2.686.973-.142.148-.225.308-.339.342a3.743 3.743 0 0 1-2.546-.244 86.359 86.359 0 0 0-2.206-.845 1.166 1.166 0 0 0-.564-.026 4.886 4.886 0 0 0 1.678 1.134c.628.224 1.27.407 1.921.548a1.306 1.306 0 0 1-1.174.103c-1.263-.338-2.522-.697-3.782-1.048a1.436 1.436 0 0 0-1.387.12c1.64.659 3.178 1.3 4.88 1.477a.437.437 0 0 1-.453.562 5.371 5.371 0 0 1-1.536.027c-.928-.196-1.84-.491-2.757-.738l-1.15-.243c1.789 1.89 3.494 2.518 5.829 1.32.844-.44 1.697-.855 2.541-1.29.34-.174.67-.367 1.008-.562.34-.195.507-.418.884-.285.085.018.214-.025.309-.072a8.667 8.667 0 0 1 2.87-.91l-.004.017Zm3.494 15.525c-.505-.2-1.014-.405-1.518-.605.096.131.182.296.312.355a2.87 2.87 0 0 0 1.21.233l-.004.017ZM55.77 45.21c-1.478-.206-2.699-1.016-4.02-1.588 1.056.881 2.03 1.866 3.403 2.276.336.11.663.245.978.407.096.047.148.182.28.353-1.83-.09-3.299-.889-4.751-1.72l-.075.162c.442.33.907.627 1.392.89 1.182.552 2.394 1.048 3.593 1.564.322.135.691.2.751.653l-2.292-.565-.048.084c.155.114.317.22.485.316a46.752 46.752 0 0 0 6.835 2.912c.222.07.438.222.64-.012-1.66-.568-3.24-1.236-4.292-2.66a10.677 10.677 0 0 1-1.5-2.879 5.02 5.02 0 0 0-3.502-3.346 4.67 4.67 0 0 0-1.913-.312c.691.622 1.43 1.19 2.207 1.7.44.275.89.53 1.322.817a.958.958 0 0 1 .511.93l-.004.018Zm2.519-4.401c-.694.02-1.387 0-2.078-.062-.653-.089-1.267-.32-1.944-.441 1.178 1.285 2.594 1.006 4.025.486l-.003.017Zm.363-2.477a4.418 4.418 0 0 0-1.596-.217l-.038.183c.56.307 1.144.57 1.746.787.611.122 1.231.194 1.854.214a1.306 1.306 0 0 1-1.03.454 6.706 6.706 0 0 1-2.934-.62c-.484-.191-.988-.378-1.401.149a.991.991 0 0 0-.03.145 6.211 6.211 0 0 0 3.388.805c.14-.01.293.19.573.383l2.941-1.878c-.752-.04-1.326-.04-1.859-.108-.532-.069-1.077-.206-1.61-.314l-.004.017Zm16.49 15.732c-1.082-.229-2.172-.42-3.257-.63.949.582 2.466.876 3.256.63Zm-8.786-5.011c1.644.637 3.219 1.459 5.036 1.598 1.65.126 3.288.397 4.936.576 1.294.186 2.574.457 3.833.81.713.156 1.439.244 2.168.263a32.53 32.53 0 0 0 2.776 0c.728-.034 1.455-.21 2.181-.194.817.02 1.63-.124 2.39-.425-.532-.01-1.058-.045-1.585-.019-1.767.072-3.541.235-5.312.301a7.147 7.147 0 0 1-1.95-.167 78.869 78.869 0 0 0-9.909-1.65 8.967 8.967 0 0 1-6.484-3.839 9.69 9.69 0 0 0-2.448-2.501 4.91 4.91 0 0 0-2.841-.89c-.157.003-.31.037-.594.075.58.49 1.23.888 1.93 1.182.622.318 1.412.347 1.824 1.048a8.796 8.796 0 0 1-4.435-1.6l.01.758c.109.05.18.087.254.12.409.172.853.341 1.267.531 1.023.456 2.104.765 3.213.92.328.069.66.094.737.511-1.086.153-3.044-.1-4.795-.631.123.533.554.66.98.732 1.316.212 2.636.406 3.958.57a1.053 1.053 0 0 1 .95.681c-.61-.018-1.153-.035-1.7-.053l-.023.107c.74.197 1.487.372 2.217.602.454.167.92.4 1.398.58l.018.004Zm23.272-1.546c.877.417.948.4 1.82-.465-.582.144-1.151.29-1.837.462l.017.003Zm-14.484-8.065c.26.055.52.11.859.146a1.51 1.51 0 0 1-1.406.339c-.62-.096-1.236-.195-1.859-.278a2.237 2.237 0 0 0-1.397.297c.89.188 1.614.34 2.431.514a1.711 1.711 0 0 1-1.619.547 10.264 10.264 0 0 1-1.685-.28c-.568-.214-.906.08-1.463.376.984.421 1.926.193 2.863.413-.61.628-1.309.613-2.003.591-.694-.022-1.347-.107-2.086-.17a2.956 2.956 0 0 0 2.494.706 15.74 15.74 0 0 0 2.334-.712c1.121-.422 2.217-.911 3.339-1.337.482-.174 1.015-.128 1.394-.533l1.638-.512c-1.515-.534-3.03-.4-4.57-.374.241.104.487.205.736.267ZM68.968 47.3c1.278.27 2.557.53 3.84.776-.23-.2-.437-.501-.693-.55-1.033-.188-2.078-.293-3.123-.425l-.024.2Zm20.96 1.316c.477.1.96.172 1.435.281 2.117.505 4.279 1.033 6.419 1.54.293.064.592.095.892.09.126-.005.245-.149.37-.23-.11-.093-.206-.247-.326-.268-.822-.174-1.666-.245-2.495-.407-1.197-.23-2.389-.505-3.585-.758-1.46-.309-2.926-.618-4.39-.906a2.538 2.538 0 0 0-.626.033l.011.198c.768.136 1.532.266 2.295.427Zm7.918-2.482c.721-.047 1.45 0 2.258.006a.59.59 0 0 0-.633-.33 19.091 19.091 0 0 0-2.277.018c-1.107.104-2.2.287-3.3.437.12.234.319.218.551.192 1.131-.13 2.266-.26 3.402-.331l-.001.008Zm-3.961.133-.67.33c.428.06.432.06.672-.338l-.002.008Zm-10.573.435a11.729 11.729 0 0 0-3.787-.498c2.317.739 4.69 1.298 7.072 1.815.115.024.247-.05.385-.159a30.753 30.753 0 0 0-3.664-1.184l-.006.026ZM66.837 35.826l-.03-.007.043.01a.156.156 0 0 1 .05-.022.238.238 0 0 0-.057-.007l-.006.026Zm.056.011a3.482 3.482 0 0 0 1.986-.136 3.09 3.09 0 0 0-1.98.106l-.006.03Zm-.085-.018c-.67-.284-1.33-.027-2.01.06.663.175 1.363.15 2.012-.072l-.002.012ZM39.95 23.084c-1.764-.662-3.62-.739-5.438-1.06a10.107 10.107 0 0 1-3.602-1.251c-.484-.298-.99-.56-1.483-.834l-.087.182 1.153.982-.097.144c-.941-.24-1.886-.483-2.46-1.41-.197-.313-.386-.597-.877-.505a6.324 6.324 0 0 0 1.87 2.103c-.456.238-.768.283-1.078.026a10.82 10.82 0 0 1-1.032-.801 6.713 6.713 0 0 0-2.348-1.52c.636.905.96 1.939 2.01 2.45a.533.533 0 0 1-.858.183 12.88 12.88 0 0 1-1.305-1.108c-.534-.508-1.044-1.039-1.797-1.225a3.786 3.786 0 0 0-.609-.044l2.281 2.595a1.91 1.91 0 0 1-1.526-.442c-.441-.352-.919-.64-1.479-1.042a1.437 1.437 0 0 0 .475 1.372c.376.355.825.623 1.316.785 1.592.36 3.198.676 4.849.211a29.338 29.338 0 0 1 2.852-.616 14.138 14.138 0 0 1 5.513.355 39.57 39.57 0 0 1 6.517 2.125c.276.092.557.167.842.227a11.489 11.489 0 0 0-3.599-1.895l-.002.013Zm39.31 22.543.02.177c.38-.008.763-.012 1.218-.018-.6-.34-.6-.34-1.237-.164l-.001.005Zm-19.748-8.778c2.285-.287 4.646.016 6.927-.463-2.32-.014-4.65-.248-6.927.463ZM72.84 48.118l.004-.022-.03-.006.026.028Zm-.798-2.033a9.422 9.422 0 0 0-2.268-1.734 7.258 7.258 0 0 0-2.664-.718 3.69 3.69 0 0 0-.774.107c.996.527 2.015.315 2.828.954-.248.034-.5.036-.749.006a28.49 28.49 0 0 1-2.203-.586c-.44-.128-.434-.154-.976.199.465.178.844.365 1.235.47 1.029.27 2.067.495 3.099.748a3.59 3.59 0 0 1 1.923.919l-1.499-.317c-.498-.106-1.079-.157-1.62-.231-.54-.075-1.087-.119-1.619-.231-.532-.113-1.036-.295-1.676-.488.127.325.216.535.248.613.858.154 1.61.278 2.344.424 1.465.31 2.936.59 4.395.929.724.153.762.245.766.962.528.134 1.06.225 1.57.381a18.503 18.503 0 0 0 7.39.966 19.588 19.588 0 0 0 4.745-.897 1.216 1.216 0 0 0-.932-.032c-1.29.172-2.58.46-3.873.516a15.86 15.86 0 0 1-7.198-1.174 7.835 7.835 0 0 1-2.484-1.806l-.008.02Zm-40.96-30.143c3.454 2.603 7.06 4.967 11.094 6.637-1.612-1.466-3.712-2.118-5.51-3.277-1.796-1.158-3.71-2.266-5.575-3.38l-.009.02Zm18.31 30.944c.928.579 1.843 1.177 2.795 1.703 1.1.606 2.232 1.139 3.355 1.7 1.583.78 3.136 1.642 4.75 2.362 2.337 1.045 4.649 2.17 7.149 2.8l1.026.217.024-.11c-2.037-.764-4.093-1.475-6.102-2.304-1.916-.788-3.776-1.71-5.686-2.563a16.345 16.345 0 0 1-3.54-2.198 10.102 10.102 0 0 1-3.258-4.6 8.27 8.27 0 0 0-2.251-3.451 3.961 3.961 0 0 0-3.393-.998c.071.127.099.248.169.276.7.371 1.331.86 1.865 1.445a8.5 8.5 0 0 0 1.358 1.03.753.753 0 0 1 .416.91 6.675 6.675 0 0 1-2.51-1.26 4.156 4.156 0 0 0-1.933-.889c.727 1.044 1.742 1.61 2.766 2.15.236.126.45.292.69.4.363.18.742.325 1.131.435a.661.661 0 0 1 .577.66c-1.22.045-2.198-.776-3.537-.988.338.379.548.606.77.857a1.407 1.407 0 0 1 1.232.194c.613.298 1.244.556 1.844.874.198.156.368.342.506.552l-.099.175-1.278-.27-.068.092c.437.226.83.518 1.241.779l-.009.02ZM85.39 37.78c.216-.075.433-.153.65-.232-.23.014-.452.03-.687.046l.037.186Zm3.553 1.227c-1.856-.183-3.69-.686-5.578-.423 1.853.2 3.69.624 5.578.423Zm-4.503-1.196-.048-.153c-.448.017-.896.033-1.445.06.606.31.704.313 1.493.093Zm1.68-.268a.135.135 0 0 1 .048-.012l-.052-.011c-.025-.006-.053.02-.077.028l.082-.005Zm7.953-.77c-.288-.324-.59-.223-.852-.18-.811.072-1.625.176-2.436.267-1.195.14-2.39.256-3.58.414a7.07 7.07 0 0 0-1.037.274 9.231 9.231 0 0 0 2.932-.065 55.13 55.13 0 0 1 2.595-.279 7.554 7.554 0 0 0 2.378-.432Zm-18.705-4.679c.232-.004.45-.025.691-.032l.036-.17c-.273-.093-.539-.207-.83-.282-2.086-.526-4.17-1.082-6.268-1.556a12.112 12.112 0 0 0-3.077-.321 31.723 31.723 0 0 1-3.18-.178 3.127 3.127 0 0 0-1.13.063c.597.086 1.191.176 1.786.266l-.038.18c-.678-.05-1.366-.058-2.038-.165-1.56-.24-3.114-.524-4.667-.799-.995-.175-1.98-.374-2.973-.54a5.261 5.261 0 0 1-2.297-1.023c-1.153-.858-2.303-1.732-3.454-2.603a2.895 2.895 0 0 1-.304-.371c.353.005.691.138.953.375 1.004.657 1.99 1.337 3.018 1.95a6.34 6.34 0 0 0 1.439.558c.45.135.916.208 1.386.217a4.297 4.297 0 0 0-.476-.354c-2.13-1.225-4.268-2.437-6.392-3.669-.586-.342-1.148-.736-1.719-1.106-.026-.005-.064-.014-.072-.037-.343-.736-1.18-.735-1.73-1.162-.55-.428-1.26-.854-1.894-1.29-.633-.437-1.243-.788-1.854-1.202-1.13-.76-2.246-1.542-3.375-2.301-.681-.44-1.365-.882-2.052-1.324-1.064-.67-2.12-1.337-3.198-1.979a21.04 21.04 0 0 0-2.314-1.196 2.323 2.323 0 0 0-1.202-.121c-1.261.178-2.519.424-3.776.67-.664.131-1.324.307-1.982.471A3.708 3.708 0 0 1 20 12.786a13.21 13.21 0 0 0-4.04-1.067c.16.207.222.358.33.416.67.364 1.337.728 2.003 1.047.567.262 1.179.422 1.745.689.345.15.723.205 1.096.16.428-.057.86-.08 1.292-.07 1.27.14 2.489-.159 3.728-.32a7.081 7.081 0 0 1 3.931.725c1.652.75 3.086 1.84 4.647 2.726a24.516 24.516 0 0 1 2.736 1.913c.66.517 1.364.974 2.105 1.365a31.186 31.186 0 0 1 2.81 1.777c.332.217.642.474 1.03.765l-.562.09c2.109 1.412 4.182 2.802 6.233 4.187l.114-.158-2.49-1.86c.22-.012.38-.068.449-.017.728.425 1.457.85 2.16 1.31 1.052.668 2.081 1.397 3.118 2.087.12.07.25.116.385.14 1.277.27 2.555.54 3.838.784s2.618.491 3.935.702c.8.13 1.61.19 2.514.292-.141.121-.238.283-.34.284-.571.008-1.145-.033-1.715-.034a1.624 1.624 0 0 0-.434.1c.425.09.851.18 1.272.295.338.122.67.263.991.424.424-.005.864-.027 1.309-.004 1.104.06 2.197.13 3.315.207.326-.008.652.038.963.136.739.317 1.494.236 2.252.227 1.605.046 3.129.016 4.647-.01Zm2.165 3.941c.773-.14 1.563-.195 2.343-.288l.03-.145a9.352 9.352 0 0 0-1.295-.055 60.495 60.495 0 0 0-3.136.396 40.21 40.21 0 0 1-4.796.467c-1.274.047-2.535.354-3.805.469-1.27.114-2.5.17-3.75.23-1.087.05-2.181.069-3.268.12a7.98 7.98 0 0 0-.922.151v.187c1.138.218 2.275.437 3.42.66l-.06.433c.494-.234.96-.46 1.425-.664a5.598 5.598 0 0 1 2.624-.647c1.21.06 2.436-.241 3.656-.313a64.085 64.085 0 0 0 7.534-1.001Zm5.057 2.403a9.923 9.923 0 0 0-1.582.057 11.18 11.18 0 0 1-4.051-.113 11.627 11.627 0 0 0-4.83.314c-.026-.005-.05-.037-.073-.038a34.512 34.512 0 0 0-5.46-.073c-.047-.01-.095.047-.224.109.741.156 1.418.3 2.155.477-.38.468-.776.704-1.349.53-.836-.253-1.755-.26-2.558-.755-.252-.155-.748.083-1.138.227a5.95 5.95 0 0 0 3.234 1.177c-.427.381-.437.428-.925.316a34.715 34.715 0 0 1-2.914-.758c-.6-.189-.586-.24-1.19.323 1.1.419 2.222.585 3.325.898-.777.543-.78.556-1.592.42-.812-.136-1.669-.273-2.494-.452-.31-.065-.523-.07-.635.311 1.14.643 2.46.888 3.755.696a11.998 11.998 0 0 0 3.739-1.337c1.403-.766 2.9-1.366 4.358-2.037.589-.027 1.182-.097 1.772-.07 1.516.067 3.025.234 4.542.252 1.301.013 2.602-.121 3.908-.197.08.021.16-.06.224-.26l.003-.017Zm-3.436-.219.919-.14-.015-.162-.942.08.038.222Zm12.574 6.346a.255.255 0 0 0 .038-.015.189.189 0 0 1-.047-.01l-.007.035s.004.005.012.006l.004-.017Zm1.18-.027a1.38 1.38 0 0 0-1.142.012 1.305 1.305 0 0 0 1.138.005l.004-.017Zm6.257-7.317a6 6 0 0 0 1.418-.75 4.62 4.62 0 0 0-1.735.443c-2.604.89-5.193 1.834-7.925 2.28-1.507.246-2.995.617-4.51.773-2.247.237-4.52.34-6.774.481a9.247 9.247 0 0 0-3.31.76l.038.177c1.404-.033 2.816-.001 4.215-.115 1.73-.146 3.451-.44 5.18-.622 1.106-.158 2.198-.4 3.267-.724a8.481 8.481 0 0 1 1.048-.18c.19-.01.38-.031.57-.061 2.258-.582 4.618-.804 6.751-1.848.555-.287 1.182-.413 1.767-.614Zm2.647 6.423a2.45 2.45 0 0 0 .377-.227c-.25-.293-.529-.192-.771-.141-2.517.54-5.079.706-7.622 1.058a4.55 4.55 0 0 0-.793.237c2.579-.055 5.168.007 7.689-.599.398-.116.765-.23 1.123-.345l-.003.017ZM60.617 30.908s.038.008.066-.018l-.098-.02.032.038Zm32.302 13.677a.754.754 0 0 0 .087-.03.702.702 0 0 1-.094.002.107.107 0 0 1 .02.013l-.013.015Zm-14.091.35c.1-.033.173-.146.258-.235l-3.898.956-.018.08c.168.01.338.023.508.019 1.114-.027 2.114-.488 3.15-.82Zm12.865-.36c-1.13.046-2.249.117-3.387.134-1.47.028-2.94.001-4.408.02-.893.016-1.793.066-2.693.112a1.58 1.58 0 0 0-.676.23 5.66 5.66 0 0 0 2.058.222c1.108-.006 2.224-.001 3.33-.053.898-.04 1.778-.166 2.67-.24.733-.059 1.466-.095 2.195-.155.325-.02.683.051.91-.265l.001-.005Zm-12.574.119.006-.03-.034-.007-.006.03.034.007Zm19.763-4.454a28.188 28.188 0 0 1 4.253-.231.681.681 0 0 0-.207-.115 28.643 28.643 0 0 0-5.875.035 29.03 29.03 0 0 0-4.705 1.021c-1.177.33-2.39.531-3.59.798-1.618.357-3.255.67-4.855 1.105a8.073 8.073 0 0 1-3.793.013c-1.145-.242-2.315-.37-3.476-.517a2.638 2.638 0 0 0-1.14.106c.656.183 1.315.371 1.974.555a2.072 2.072 0 0 1-1.528.073 5.597 5.597 0 0 0-3.13.228c-.063.023-.11.093-.268.233 2.015.065 3.922-.034 5.811.12l.004.192c-2.108.187-4.215.369-6.346.559-.025.266.186.257.394.239 1.596-.077 3.206.175 4.793-.197.5-.117 1.017-.159 1.526-.234.272-.056.554-.038.817.053l-.41.38c.276-.019.549-.072.812-.157a25.049 25.049 0 0 1 6.592-1.85c2.633-.334 5.147-1.2 7.735-1.742 1.51-.304 3.086-.411 4.612-.667Zm-67.539 5.937a5.432 5.432 0 0 0-.346-.465c.182 1.475 1.19 2.03 2.228 2.442 1.615.652 3.273 1.207 4.917 1.786.56.194 1.141.344 1.815.544a4.794 4.794 0 0 0-.24-.42c-.064-.098-.24-.189-.227-.253.16-.758-.523-.849-.912-1.051-.389-.202-.498-.55-.894-.634a2.912 2.912 0 0 1-1.012-.494 1.585 1.585 0 0 0-1.27-.304c.663.314 1.325.632 2.117 1.012-.61.103-.608.099-1.324-.24a21.605 21.605 0 0 0-1.277-.545 6.435 6.435 0 0 0-1.258-.364 5.42 5.42 0 0 0 1.734.994c.64.3 1.28.595 2.001.93-.386.225-.616.03-.851-.055-.827-.3-1.64-.663-2.457-.88-1.181-.325-2.162-.862-2.74-2.002l-.004-.001Zm9.126 2.894c.557.522 1.11 1.066 1.65 1.585a.78.78 0 0 0 .523.217c-.09-.117-.18-.242-.28-.361-.442-.538-.861-1.121-1.338-1.644a21.276 21.276 0 0 0-1.897-1.905c-1.16-.979-2.398-1.873-3.573-2.841a18.141 18.141 0 0 1-4.211-5.059 5.186 5.186 0 0 1-.486-1.3 16.327 16.327 0 0 1-.552-3.706 5.997 5.997 0 0 0-1.352-3.449c-.496-.665-1.296-.838-2.2-.83.512 1.32 1.943 1.96 2.197 3.388a12.35 12.35 0 0 1-2.458-1.48c.45.797 1.267 1.18 1.89 1.773.292.31.549.652.762 1.02.05.082-.015.242-.03.439l-1.864-1.2c.846 1.131 2.238 1.808 2.52 3.5-.84-.542-1.566-1.007-2.265-1.466l-.081.112c.59.512 1.191 1.013 1.765 1.539a13.71 13.71 0 0 1 2.5 3.197 10.078 10.078 0 0 0 1.954 2.295c.48.44.937.91 1.435 1.335.926.796 1.896 1.553 2.804 2.372.547.485 1.014 1.055 1.538 1.562.344.33.717.605 1.054.908l-.005-.001Zm-4.15 3.18a6.508 6.508 0 0 0-.69.846 6.024 6.024 0 0 0 2.745-.132c-.409-.002-.813-.003-1.226-.01-.194-.005-.39-.029-.608-.048.03-.438.3-.453.543-.464.545-.031 1.091-.027 1.634-.068.3-.037.596-.092.889-.164l-.03-.18-2.12.033-.031-.185 1.796-.603c-.555-.616-.753-.649-1.337-.22-.585.428-1.062.772-1.561 1.196l-.004-.001ZM16.92 30.2c-.13-.245-.264-.5-.404-.721.049.989.544 1.827.957 2.689.112.228.352.443-.036.784-1.465-1.489-2.108-3.373-2.747-5.314-.01.3.005.601.045.9a8.022 8.022 0 0 0 1.353 3.301c.984 1.28 1.383 2.824 1.805 4.345.27.97.796 1.849 1.521 2.546.372.346.673.712 1.03 1.041a10.36 10.36 0 0 0 2.813 1.635c1.135.525 2.305.968 3.474 1.415.407.16.834.264 1.269.308a2.511 2.511 0 0 1 1.97 1.2c.1.159.222.3.344.482-.142-.991-.445-1.286-2.272-2.26.21-.343.503-.272.758-.111.567.369 1.109.773 1.652 1.172.2.173.411.332.633.476-.087-.6-.557-.9-.956-1.225a7.586 7.586 0 0 0-1.043-.643c-.219-.122-.339-.267-.178-.607l2.755 1.36a2.29 2.29 0 0 0-1.136-1.129 40.833 40.833 0 0 1-6.15-4.027c-.413-.345-.896-.607-1.331-.926a17.349 17.349 0 0 1-3.394-3.516 3.856 3.856 0 0 1-.75-2.284c-.07-1.412-.095-2.832-.17-4.245a4.418 4.418 0 0 0-.928-2.576c-.078-.096-.186-.173-.431-.402.227 1.03.211 1.904.6 2.711.35.728.264 1.533.317 2.38a1.345 1.345 0 0 1-.4-.85 5.656 5.656 0 0 0-.356-1.151c-.686-1.596-1.203-3.213-.728-4.976a.944.944 0 0 0-.064-.583c-.23.88-.495 1.755-.688 2.644-.169.87.006 1.773.487 2.518.827 1.371 1.163 2.915 1.788 4.382.14.452.23.92.27 1.392a.697.697 0 0 1-.747-.403c-.313-.578-.613-1.157-.928-1.731l-.004-.001Zm-1.42-4.232-.185-1.099c-.105.392-.225.812.19 1.1l-.004-.001Zm22.953 26.978a.613.613 0 0 1-.084.017l.085.018a.056.056 0 0 0-.001-.035Zm-3.979-6.055-1.182-1.1a1.52 1.52 0 0 0 1.19 1.102l-.008-.002Zm4.003 6.064a2.842 2.842 0 0 0 1.675.012c-.551-.024-1.106-.363-1.666-.01l-.009-.002Zm-5.214-7.219a.958.958 0 0 0-.312-.88.91.91 0 0 0 .32.882l-.008-.002Zm0 0-.004.022.033.033-.029-.055Zm21.508-15.673c1.6.343 3.228.539 4.863.583a12.464 12.464 0 0 0-1.691-.415 26.365 26.365 0 0 0-3.172-.168Zm2.932-1.058c.507.108 1.022.176 1.533.262l.033-.157c-.506-.108-1.02-.185-1.529-.28l-.037.175Zm2.062 1.655.851.18a.705.705 0 0 0-.854-.167l.003-.013Zm-.034-.007.034.007a.136.136 0 0 0-.039-.008.664.664 0 0 1-.089-.019c.03.013.06.024.09.033l.004-.013ZM15.802 12.93c-.415-.63-.73-1.329-1.093-2.01-.276-.504-.61-.966-.847-1.483-.504-1.112-1.007-2.228-1.428-3.371a30.124 30.124 0 0 0-1.957-4.738c-.083.12-.148.174-.136.203.526 1.446.623 3.01 1.234 4.455.977 2.302 1.802 4.67 2.695 7.012.014.052.031.103.052.153a15.105 15.105 0 0 1 1.635 4.58c-.008.035.072.056.192.143-.383-.944.295-1.396.801-1.854.673-.597.712-.548.062-1.282-.26.053-.524.085-.79.096-.515-.007-.677-.335-.401-.752.406-.617.36-.587-.02-1.152Zm.715 16.508-.05-.081.026.09.026.045-.002-.053Zm-.028-12.017.802-.066a2.088 2.088 0 0 1-.273.387 2.464 2.464 0 0 0-.98 2.253c.109 1.153-.373 2.146-.748 3.143a1.963 1.963 0 0 0 .03 1.67c.471-1.537 1.148-3.032.93-4.84.238.176.362.264.582.422-.45-1.43.752-1.75 1.403-2.43a1.208 1.208 0 0 1-.451.914.927.927 0 0 0-.261 1.235 4.4 4.4 0 0 1 .246.942l.569-.587.085.058-.41 1.247c.904.165.998-.745 1.547-1.007.417.493.36.654-.662 1.742a1.453 1.453 0 0 0 1.136.605 1.306 1.306 0 0 0 .368-1.257 3.234 3.234 0 0 1 .24-2.232c.043-.128.071-.26.084-.396a.87.87 0 0 0-.368-.932c-.221-.175-.74.004-.994.347-.35.47-.79.865-1.296 1.162a1.185 1.185 0 0 1 .632-1.01c.651-.471.624-1.162.662-1.826a.57.57 0 0 0-.586-.657 4.385 4.385 0 0 0-1.43.258c-.285.131-.483.476-.856.851v.005Zm-.494 10.506a37.23 37.23 0 0 1-.484-1.918c-.108.272-.17.56-.18.852.21.89.597 1.728 1.138 2.465-.154-.45-.317-.921-.452-1.399h-.022Zm-.68-3.098.005-.02-.007.029a.086.086 0 0 1-.007.034l.01-.043Z" fill="#F4EEDE"/></svg>