<svg width="25" height="24" fill="none" xmlns="http://www.w3.org/2000/svg"><g clip-path="url(#a)"><path d="M21.994 0H3.84A2.926 2.926 0 0 0 .917 2.923v18.154A2.926 2.926 0 0 0 3.84 24h9.305a.709.709 0 0 0 .709-.709V14.7a.709.709 0 0 0-.71-.709h-2.546v-2.017h2.547a.709.709 0 0 0 .709-.709V8.396a2.818 2.818 0 0 1 2.815-2.815h2.457v2.017H16.67a.799.799 0 0 0-.798.798v2.868c0 .392.317.709.708.709h2.548v2.017H16.58a.709.709 0 0 0-.708.709v8.592c0 .392.317.709.708.709h5.415a2.926 2.926 0 0 0 2.923-2.923V2.923A2.926 2.926 0 0 0 21.994 0ZM23.5 21.077c0 .83-.676 1.506-1.506 1.506h-4.706v-7.176h2.547a.709.709 0 0 0 .709-.708v-3.435a.709.709 0 0 0-.709-.708h-2.547v-1.54h2.547a.709.709 0 0 0 .709-.71V4.872a.709.709 0 0 0-.709-.709H16.67a4.237 4.237 0 0 0-4.233 4.233v2.16H9.89a.709.709 0 0 0-.709.708V14.7c0 .391.318.708.709.708h2.547v7.176H3.84c-.83 0-1.506-.676-1.506-1.506V2.923c0-.83.676-1.506 1.506-1.506h18.154c.83 0 1.506.676 1.506 1.506v18.154Z" fill="#36332F"/></g><defs><clipPath id="a"><path fill="#fff" transform="translate(.917)" d="M0 0h24v24H0z"/></clipPath></defs></svg>