<svg width="32" height="32" fill="none" xmlns="http://www.w3.org/2000/svg"><g clip-path="url(#a)"><path d="M28.103 0H3.897A3.902 3.902 0 0 0 0 3.897v24.206A3.902 3.902 0 0 0 3.897 32h12.407a.945.945 0 0 0 .945-.945V19.598a.945.945 0 0 0-.945-.945h-3.397v-2.69h3.397a.945.945 0 0 0 .945-.944v-3.825a3.758 3.758 0 0 1 3.753-3.753h3.277v2.69h-3.277c-.586 0-1.064.477-1.064 1.063v3.825c0 .522.423.945.945.945h3.396v2.69h-3.396a.945.945 0 0 0-.945.944v11.457c0 .522.423.945.945.945h7.22A3.902 3.902 0 0 0 32 28.103V3.897A3.902 3.902 0 0 0 28.103 0Zm2.007 28.103a2.01 2.01 0 0 1-2.007 2.007h-6.275v-9.567h3.396a.945.945 0 0 0 .945-.945V15.02a.945.945 0 0 0-.945-.945h-3.396V12.02h3.396a.945.945 0 0 0 .945-.945V6.496a.945.945 0 0 0-.945-.945h-4.222a5.65 5.65 0 0 0-5.643 5.643v2.88h-3.396a.945.945 0 0 0-.945.945v4.58c0 .521.423.944.945.944h3.396v9.567H3.897a2.01 2.01 0 0 1-2.007-2.007V3.897c0-1.107.9-2.007 2.007-2.007h24.206c1.107 0 2.007.9 2.007 2.007v24.206Z" fill="#EE932B"/></g><defs><clipPath id="a"><path fill="#fff" d="M0 0h32v32H0z"/></clipPath></defs></svg>