<svg width="60" height="53" fill="none" xmlns="http://www.w3.org/2000/svg"><path fill-rule="evenodd" clip-rule="evenodd" d="M.709 19.441c-.045 1.405-.022 2.806.544 4.162-.1.1-.213.186-.334.258a1.29 1.29 0 0 0-.893 1.495c.058 1.057.54 1.967.986 2.886.295.602.647 1.177.973 1.761-.736.812-.763 1.04-.241 1.994a12.289 12.289 0 0 0 2.863 3.381c1.057.892 2.177 1.744 3.279 2.619l-.527 1.026a28.593 28.593 0 0 0 4.202 1.369c1.351.317 2.734.482 4.122.49.655 0 1.284-.106 1.927-.102.667.022 1.334-.004 1.998-.076a5.013 5.013 0 0 0 1.985-.526c.7-.446 2.368-.67 3.086-1.383.719-.714 1.419-2.373 1.606-2.676.683-1.062 2.052-4.907 1.98-6.932a2.255 2.255 0 0 1 0-.798c.045-.767-.084-2.123-.285-1.931a4.39 4.39 0 0 1-1.066-2.23c-.335-1.57-1.28-2.784-2.23-3.988-.839-1.057-1.99-1.713-3.087-2.431a.835.835 0 0 0-.522-.192c-.687.151-1.021-.348-1.49-.692a5.683 5.683 0 0 0-1.784-.865 7.993 7.993 0 0 0-3.398-.334c-.393.062-.741.446-1.272.771-.74-.229-1.492-.42-2.252-.57a6.875 6.875 0 0 0-1.914 0c-.838.102-1.668.307-2.502.445-.183.036-.375.148-.54.112-.638-.138-.86.245-1.003.754-.852.129-1.687.276-2.53.379A1.703 1.703 0 0 0 .71 19.44Z" fill="#5F816D"/><path d="M14.983 29.397c.825-.344 1.931.08 2.676-.892a1.714 1.714 0 0 0-.535-.174 12.3 12.3 0 0 0-1.9.192c-1.454.33-2.89.718-4.376 1.097a6.65 6.65 0 0 0 .807 2.489c.446.892.99 1.721 1.486 2.587.096.192.165.396.205.607.102.446.365.54.762.446.067-.366-.508-.558-.182-1.004l.99.477.062-.107c-.348-.379-.7-.758-1.12-1.204.893.035 1.5.794 2.423.562-.625-.772-1.66-.834-2.146-1.65 1.08.187 2.052.83 3.198.642-.758-.772-1.82-.937-2.894-1.405.236-.192.374-.388.477-.37.443.078.882.18 1.316.303.446.111.892.245 1.338.33.125.027.276-.076.562-.165-.968-.866-2.07-1.013-3.123-1.227-.075-.348.027-.482.362-.446.61.067 1.217.12 1.829.16a6.77 6.77 0 0 0 .74-.026l.053-.205a1.875 1.875 0 0 0-.557-.335 22.428 22.428 0 0 0-1.896-.223c-.299-.035-.602.031-.557-.46Zm-.892 2.462-.839-.602c.879.009.91.031.839.602Zm.267-1.445c.05 0 .023.258.036.446l-1.82-.402a1.783 1.783 0 0 1 1.775-.044h.01Zm.165-.58-.985-.058c.276-.219.553-.598.999.058h-.014Zm4.813-2.993c-.045.24-.054.485-.027.727.24 1.338.495 2.65.78 3.965.152.7.357.799 1.272.723l-.78-2.06c.798.494 1.24 1.39 2.23 1.828-.3-1.062-1.236-1.454-1.589-2.23.237-.263.388-.192.571 0 .446.477.95.941 1.428 1.41a.745.745 0 0 0 .95.236c-.518-.915-1.338-1.548-1.954-2.373 1.133 0 1.62 1.209 2.703 1.472-.067-.643-.553-.892-.892-1.173-.339-.281-.767-.558-1.195-.861l.348-.482 2.06 1.338c0-.633 0-.651-.361-.919a26.224 26.224 0 0 0-1.186-.83c-.215-.142-.317-.28-.08-.58.338.148.704.286 1.052.447.348.16.678.392 1.012.593.045-.049.085-.102.125-.152-.21-.214-.383-.504-.633-.629a14.925 14.925 0 0 0-2.204-.936 9.732 9.732 0 0 0-2.738-.277c-.63.01-.821.134-.892.763Zm1.186 2.676-.196.04-.04-.397h.089c.053.125.103.25.147.375v-.018Zm.402-.13-.41-.891c.557.383.557.383.41.91v-.018Zm.954-.931-.098.129c-.504-.214-.504-.214-.803-.758.388.285.647.464.901.646v-.017Zm.772-.941-.388.686-1.035-.642c.26-.124.534-.217.816-.276.192-.005.375.142.607.25v-.018Zm-1.883-.25a7.317 7.317 0 0 1-.892-.37l.08-.268 1.303.29c-.267.214-.406.388-.477.366l-.014-.018Zm2.034-.272a.848.848 0 0 1-.851-.446c.4.08.749-.085.851.463v-.017Z" fill="#fff"/><path d="M12.81 25.365c-.036-.313-.036-.313-.718-.821a2.27 2.27 0 0 0 .111-.723c-.067-.317-.361-.245-.602-.223-1.48.139-2.966.263-4.46.446-.656.072-.933.366-.892 1.08.045.75.152 1.497.32 2.23.215 1.021.496 2.038.746 3.055.066.277.196.446.557.308-.187-.54-.379-1.088-.624-1.784.32.111.517.12.624.227.446.447.848.892 1.285 1.339.137.114.286.213.446.294l.102-.134-1.846-2.61c.316 0 .495-.08.593 0 .188.104.342.26.446.447a1.95 1.95 0 0 0 1.196.986l.383-.638-1.338-1.548a3.124 3.124 0 0 1 2.31.892.611.611 0 0 0 .893.067c-.674-.825-1.687-1.338-2.266-2.23l.138-.143c.076.067.152.143.232.2.236.166.446.447.713.447.74.08 1.339.495 1.972.785.192.084.388.236.584-.107-.58-.852-1.597-1.155-2.373-1.825.518-.575.995.014 1.468-.017ZM8.037 27.63a1.04 1.04 0 0 1-.892-1.272l.892 1.271Zm.647-.893a1.883 1.883 0 0 1-1.204-1.061c.65.2 1.12.41 1.204 1.044v.017Zm.977-.963a2.016 2.016 0 0 1-1.285-.352c-.076-.067-.093-.206-.218-.513.646.25 1.186.285 1.503.847v.018Zm-3.082 9.894c0-.053.049-.102.071-.156 1.414.513 2.792 1.155 4.3 1.258-1.338-.682-2.645-1.338-3.96-2.043.013-.102.037-.202.07-.299 1.562.674 3.092 1.463 4.907.973-.103-.116-.147-.214-.2-.214-1.058-.063-1.999-.531-2.967-.892-.375-.148-.763-.246-1.146-.366-.241-.076-.477-.156-.308-.562.683.138 1.374.316 2.079.419.706.097 1.42.127 2.132.09-.602-.62-1.45-.487-2.155-.795a15.433 15.433 0 0 0-2.167-.61v-.166l3.568.085a67.332 67.332 0 0 0-.344-.937 27.054 27.054 0 0 1-7.944-.178c.424 1.73 5.121 6.026 6.669 5.963l-2.605-1.57ZM5.388 32.1l.053-.2c.344.088.719.093.942.512l-.995-.312Zm-.143.705.076-.139c.495.157 1.07.152 1.378.674l-.129.218-1.325-.753Zm0 .932c.036-.063.072-.13.112-.192.231.094.457.2.678.317.232.13.526.245.383.731l-1.173-.856Z" fill="#fff"/><path d="M4.317 24.357c.125.374.268.744.42 1.155.374-.139.499-.303.37-.63-.13-.325-.268-.695-.393-1.02.495-.482.816-.215 1.129.245.2-.446.704-.482.709-1 0-.138.285-.267.482-.445a1.142 1.142 0 0 0 1.579.28l-.447-.762c.893-.335 1.339.776 2.23.513a2.476 2.476 0 0 0-.95-1.12c-.187-.134-.374-.245-.254-.508s.446-.179.62-.094c.415.183.799.446 1.24.687-.124-.468-.232-.892-.365-1.4a21.778 21.778 0 0 0-2.431-.277c-1.169 0-2.338.089-3.506.156a1.589 1.589 0 0 0-1.472 1.177 10.91 10.91 0 0 0-.651 3.703l.98.214c-.062-.482-.12-.892-.173-1.303a.603.603 0 0 1 .883.428Zm1.378-2.637.812.326c0 .08 0 .156.022.236-.2.063-.446.223-.597.174-.254-.08-.397-.33-.237-.736Zm-.972.683c.143.196.281.392.446.651l-.53.152c-.028-.308-.045-.54-.068-.776l.152-.027Zm-1.164-.04a.96.96 0 0 1 .392 1.106h-.678c.112-.397.192-.7.3-1.106h-.014Zm16.544 16.419a.522.522 0 0 0-.446-.085 9.946 9.946 0 0 0-1.633 1.03c1.303 0 2.56-.098 3.65-.923-.203.013-.404.04-.603.08a.959.959 0 0 1-.968-.102Zm6.993-10.264c-.196.723-.37 1.445-.588 2.159a3.024 3.024 0 0 1-.397.687 1.124 1.124 0 0 0-.13 1.218c.104.19.182.395.232.606a.986.986 0 0 1-.446 1.102c-.339.245-.597.071-.892-.067a1.784 1.784 0 0 0-1.276-.339c.505.549 1.29.571 1.704 1.164a2.436 2.436 0 0 1-2.631-1.093l-.71.197c.763.838 1.968.892 2.82 1.73-1.236.246-3.096-.588-3.72-1.57l-1.098.188c1.182 1.075 2.552 1.498 3.903 2.132-.977.348-2.038 0-4.393-1.441-.054 1.133.107 1.285 1.164 1.584.678.196 1.432.267 2.047.932l-.638 1.08a1.15 1.15 0 0 0 .968-.62.778.778 0 0 1 .446-.447c.834-.156 1.142-.972 1.784-1.383.153-.116.273-.27.348-.446.536-1.084 1.044-2.18 1.593-3.256.227-.43.297-.928.196-1.405a1.758 1.758 0 0 1 .214-1.53c.054-.067.036-.205.031-.312-.03-.589-.067-1.178-.098-1.784h-.183c-.089.32-.17.615-.25.914ZM2.377 20.405c-.076-.17-.165-.34-.232-.518-.107-.308 0-.522.356-.624.118.132.228.27.33.414.103.152.183.322.282.505l.736-.531-.558-.7c.04-.063.085-.12.13-.183.382.197.788.347 1.208.446.44.024.88-.056 1.285-.232l-1.602-.344v-.24c.62-.59 1.365.213 2.03-.05-.067-.41-.286-.535-.674-.49-.503.06-1.01.083-1.516.071a4.802 4.802 0 0 0-2.155.53 1.012 1.012 0 0 0-.303 1.633c.129.169.228.357.294.558.06.184.104.372.134.562.442-.401.437-.401.255-.807Zm19.586 5.191c.054-.954-.254-1.886 0-2.787.509-.09.518.303.594.548.2.643.352 1.303.513 1.959.089.36.316.446.749.446-.134-.558-.241-1.075-.38-1.584-.137-.508-.316-1.012-.414-1.543.611.401.776 1.084 1.093 1.668.201.4.428.788.678 1.16.166.169.36.31.57.419l.143-.13c-.258-.61-.504-1.23-.771-1.837a53.18 53.18 0 0 0-.839-1.784c.156-.032.348-.103.37-.067.482.736.95 1.485 1.405 2.23.125.256.233.52.322.79.071-.37.174-.576.129-.754a5.193 5.193 0 0 0-.38-1.151c-1.065-2.2-2.8-3.729-4.937-5.014 0 2.516.518 4.907.607 7.4l.548.031Zm.937-4.906.165-.125.705.82-.156.148c-.442-.085-.45-.589-.714-.847v.004Zm-1.106 1.062.107-.027c.058.13.116.254.17.383l-.192.063c-.027-.143-.058-.281-.085-.424v.005Zm-6.473-5.277.861 2.025 3.024.446c.638-.665.603-.96-.227-1.383a9.702 9.702 0 0 0-3.658-1.088Zm1.548 22.49c.17-.059.33-.152.669-.308-1.784-.196-3.39.2-4.956-.446.246-.027.491-.067.736-.072.986-.03 1.972 0 2.958-.084.597-.04 1.19-.192 1.922-.313a1.274 1.274 0 0 0-1.133-.312c-.86.036-1.726.05-2.587.072 0-.076-.022-.148-.031-.224l3.662-.704c-.254-.375-.518-.317-.803-.3-1.405.131-2.793.41-4.14.83-1.485.41-2.961.87-4.437 1.312a.893.893 0 0 0-.206.12c.892.5 5.772 1.392 6.57 1.156l-2.943-.562v-.179c.124-.016.25-.016.374 0 1.433.3 2.91.305 4.345.014ZM3.43 29.62l.678-.33c.303.334.61.669.892 1.012.187.219.365.286.61 0l-.954-1.173c.446-.486.446-.486.861-.125.17.152.352.29.589.478-.031-.478-.031-.478-.562-1.24.629-.5.107-.968-.09-1.472-1.485-.49-3.1-.58-4.553-1.593.033.28.085.557.156.83a18.684 18.684 0 0 0 1.784 3.805c.227.361.477.745 1.07.557l-.481-.749Zm1.177-1.378c-.366.406-.535.227-.682-.156.316-.214.5-.08.682.156Zm-2.404-.78c.754.298 1.423 1.038 1.338 1.453l-.522.25c-.258-.575-.526-1.084-.816-1.704Zm6.615-8.472c.175-.002.35.016.522.054.288.092.591.122.892.09l-.446-.375c.308-.393.615-.544 1.052-.304a6.88 6.88 0 0 0 1 .446c.116.045.276-.035.606-.098l-1.57-.892c0-.303.16-.415.42-.334.758.245 1.53.472 2.27.771.598.241.785.201 1.11-.553-2.73-.825-5.392-1.52-8.225-.664l1.057 1.904c.384-.004.848-.035 1.312-.044Zm-.179-1.195.772.241c-.468.263-.468.263-.772-.24Zm-1.222.402c.402.067.848-.09 1.124.352-.535.303-.535.303-1.142-.352h.018Zm12.275 5.874c-.78-.66-1.587-1.28-2.386-1.922-.116-.094-.223-.201-.343-.313.406-.263.597-.214 1.574.326.513.281 1.035.549 1.57.83.112-.781.112-.777-.446-1.102l-1.824-1.053c.424-.214.424-.214 2.119.241.134-.665.151-.727-.393-.892-.94-.296-1.902-.52-2.877-.67a19.076 19.076 0 0 0-3.042-.12 6.345 6.345 0 0 0-1.628.38c-.477.151-.584.37-.388.892.247.598.526 1.183.834 1.753.678 1.317 1.371 2.63 2.079 3.938.21.393.477.754.713 1.129.362-.179.241-.402.16-.589-.284-.638-.588-1.267-.891-1.9l-.415-.892c.227-.232.384-.174.53.035l1.339 1.914c.206.312.433.61.678.892.094.107.308.103.562.178-.473-1.422-1.338-2.489-1.896-3.729.49.509.964 1.04 1.477 1.522.513.481 1.084.932 1.614 1.382.384-.165.286-.352.094-.566-.446-.522-.919-1.053-1.374-1.584-.116-.138-.21-.299-.325-.446 1.302-.107 2.06.843 2.948 1.521.401-.633.41-.762-.063-1.155Zm-4.612-3.19c.027-.07.05-.146.072-.218l1.338.49c-.022.063-.045.126-.063.184-.526.071-.878-.361-1.347-.455Zm-.79 1.223.661.651-.147.13a1.041 1.041 0 0 1-.513-.781Zm-.235 1.307c-.059.04-.12.076-.183.111a20.329 20.329 0 0 0-.21-.446l.138-.071.255.406Z" fill="#fff"/><path fill-rule="evenodd" clip-rule="evenodd" d="M54.977 48.834c.327-1.367.588-2.743.307-4.186a1.74 1.74 0 0 1 .38-.185 1.29 1.29 0 0 0 1.176-1.284c.156-1.047-.132-2.035-.383-3.025-.167-.65-.396-1.284-.597-1.922.885-.647.957-.864.639-1.904a12.29 12.29 0 0 0-2.123-3.89c-.855-1.087-1.78-2.148-2.682-3.226l.723-.899a28.603 28.603 0 0 0-3.839-2.19 18.562 18.562 0 0 0-3.938-1.312c-.642-.132-1.28-.154-1.907-.288a14.218 14.218 0 0 0-1.973-.33 5.014 5.014 0 0 0-2.05.115c-.776.296-2.455.177-3.302.731-.848.554-1.869 2.038-2.113 2.297-.883.902-3 4.392-3.34 6.39a2.256 2.256 0 0 1-.16.781c-.2.743-.346 2.097-.111 1.95.424.726.63 1.559.594 2.4.01 1.604.692 2.983 1.379 4.355.608 1.204 1.603 2.08 2.532 3.004.12.149.286.252.473.293.703-.01.93.547 1.32.978.449.492.981.9 1.572 1.208a7.994 7.994 0 0 0 3.261 1.014c.397.018.816-.288 1.401-.5.68.374 1.377.713 2.091 1.014a6.875 6.875 0 0 0 1.874.387c.842.069 1.696.035 2.541.068.186.002.397-.068.551 0 .597.264.893-.067 1.135-.536.86.045 1.707.07 2.554.14a1.704 1.704 0 0 0 2.015-1.448Z" fill="#5F816D"/><path d="M43.008 36.202c-.878.17-1.876-.469-2.802.333.147.12.312.213.49.279.627.114 1.262.18 1.9.195 1.49-.03 2.975-.12 4.506-.19a6.651 6.651 0 0 0-.288-2.602c-.257-.963-.622-1.886-.932-2.833a2.314 2.314 0 0 1-.079-.636c-.01-.457-.25-.602-.657-.59-.14.344.386.648-.023 1.02l-.874-.668-.083.092c.265.442.533.884.854 1.406-.867-.215-1.308-1.08-2.259-1.04.456.882 1.457 1.152 1.768 2.05-1.02-.402-1.842-1.227-3.002-1.275.587.909 1.593 1.285 2.551 1.96-.27.14-.445.305-.542.267a13.352 13.352 0 0 1-1.227-.563c-.415-.2-.825-.42-1.244-.593-.117-.052-.287.018-.584.048.773 1.043 1.822 1.41 2.81 1.832.004.356-.123.466-.444.363a42.01 42.01 0 0 0-1.758-.526 6.838 6.838 0 0 0-.731-.123l-.094.19c.133.173.295.322.479.44.59.231 1.202.421 1.811.601.286.096.596.091.454.563Zm1.37-2.231.7.759c-.859-.187-.885-.215-.7-.76Zm-.553 1.36c-.049-.01.03-.257.055-.443l1.7.76a1.784 1.784 0 0 1-1.747-.314l-.008-.002Zm-.28.535.954.256c-.314.159-.662.474-.966-.258l.013.002Zm-5.317 1.96c.092-.226.15-.464.173-.707.034-1.359.05-2.695.036-4.041-.007-.717-.188-.854-1.099-.964l.349 2.176c-.682-.647-.934-1.614-1.816-2.242.079 1.1.917 1.674 1.105 2.505-.284.21-.418.11-.559-.115-.34-.558-.74-1.114-1.113-1.669a.745.745 0 0 0-.883-.423c.322 1 .998 1.786 1.434 2.718-1.11-.228-1.341-1.51-2.35-1.987-.064.643.362.985.637 1.329s.639.701.997 1.084l-.438.402-1.748-1.727c-.128.62-.132.638.168.973.3.335.655.714.995 1.052.18.183.253.34-.039.585-.302-.213-.632-.422-.94-.65-.309-.227-.585-.521-.872-.785-.054.039-.104.083-.153.123.162.252.274.571.493.744a14.92 14.92 0 0 0 1.969 1.362 9.727 9.727 0 0 0 2.627.824c.617.118.83.035 1.027-.567Zm-.622-2.86h.2l-.04.396-.087-.018a6.446 6.446 0 0 1-.069-.396l-.004.017Zm-.419.045c.1.44.161.698.222.956-.469-.488-.469-.488-.218-.974l-.004.018Zm-1.123.72.122-.107c.45.312.45.312.634.905-.323-.358-.54-.585-.752-.815l-.004.017Zm-.946.766.52-.594.883.838c-.28.07-.567.105-.855.106-.19-.035-.338-.215-.544-.367l-.004.017Zm1.793.625c.278.163.545.344.8.543l-.133.245-1.217-.546c.305-.156.476-.298.54-.262l.01.02Zm-2.047-.144a.848.848 0 0 1 .745.609c-.377-.16-.751-.069-.741-.627l-.004.018Z" fill="#fff"/><path d="M44.321 40.59c-.028.313-.028.313.538.948a2.261 2.261 0 0 0-.255.686c.002.323.304.313.545.34 1.478.163 2.958.34 4.458.463.657.063.987-.17 1.092-.877a13.57 13.57 0 0 0 .136-2.249c-.004-1.044-.074-2.096-.113-3.143-.01-.284-.102-.476-.484-.414.075.567.152 1.143.252 1.874-.293-.174-.483-.223-.566-.35-.347-.526-.65-1.044-.988-1.57a2.345 2.345 0 0 0-.378-.378l-.127.11 1.282 2.93c-.31-.065-.501-.022-.581-.12a1.136 1.136 0 0 1-.347-.527 1.95 1.95 0 0 0-.972-1.207l-.504.547.998 1.786a3.124 3.124 0 0 1-2.083-1.34.612.612 0 0 0-.86-.246c.493.944 1.38 1.651 1.769 2.642l-.165.112c-.06-.08-.12-.17-.186-.243-.198-.21-.347-.527-.61-.581-.708-.229-1.21-.755-1.772-1.167-.17-.122-.332-.31-.593-.013.395.951 1.33 1.453 1.955 2.265-.623.46-.971-.214-1.44-.278Zm5.132-1.256a1.041 1.041 0 0 1 .617 1.425l-.617-1.425Zm-.813.743a1.882 1.882 0 0 1 .965 1.283c-.597-.328-1.014-.628-.969-1.265l.004-.018Zm-1.151.747c.452.06.87.274 1.187.604.06.08.05.22.11.547-.583-.376-1.104-.52-1.301-1.134l.004-.017Zm5.016-9.068c-.011.053-.07.09-.102.139-1.281-.788-2.501-1.695-3.957-2.1 1.173.938 2.32 1.844 3.467 2.8a1.51 1.51 0 0 1-.13.278c-1.394-.974-2.733-2.057-4.61-1.942.077.134.101.239.154.25 1.022.274 1.85.923 2.725 1.472.337.22.697.395 1.049.59.22.123.435.25.188.612-.64-.273-1.282-.587-1.952-.83a11.3 11.3 0 0 0-2.07-.518c.465.73 1.322.77 1.95 1.213.64.394 1.309.74 2 1.036l-.034.162-3.477-.804c.062.428.101.7.147.987 2.655.209 5.264.808 7.744 1.779-.065-1.78-3.798-6.936-5.327-7.188l2.235 2.064Zm.446 3.736-.093.185c-.319-.156-.685-.236-.819-.692l.912.507Zm.282-.662-.102.12c-.454-.253-1.018-.364-1.214-.938l.17-.188 1.146 1.006Zm.188-.913c-.048.054-.096.112-.148.165a7.223 7.223 0 0 1-.6-.447c-.201-.173-.466-.346-.228-.794l.976 1.076Z" fill="#fff"/><path d="M52.435 43.292c-.046-.393-.111-.784-.177-1.217-.395.06-.55.197-.49.542.061.345.122.735.179 1.08-.583.371-.843.044-1.056-.469-.287.397-.788.33-.896.836-.028.135-.334.204-.562.34a1.142 1.142 0 0 0-1.49-.595l.283.837c-.941.148-1.154-1.03-2.081-.952.1.49.345.94.704 1.288.157.169.318.316.147.55-.171.233-.473.084-.626-.034-.37-.263-.692-.598-1.076-.923.028.484.047.92.075 1.445.76.298 1.537.552 2.325.762 1.145.236 2.308.385 3.466.555a1.588 1.588 0 0 0 1.68-.856 10.911 10.911 0 0 0 1.384-3.495l-.917-.407c-.037.484-.063.898-.093 1.31a.601.601 0 0 1-.779-.597Zm-1.882 2.303-.73-.483a.852.852 0 0 0 .027-.236c.209-.02.482-.128.62-.05.233.13.322.404.083.77Zm1.09-.472a12.25 12.25 0 0 1-.305-.728l.55-.041c-.035.307-.065.537-.09.773l-.155-.004Zm1.133.274a.958.958 0 0 1-.162-1.162l.664.137c-.189.366-.329.647-.516 1.023l.014.002ZM39.887 25.976a.522.522 0 0 0 .42.174 9.95 9.95 0 0 0 1.807-.68c-1.276-.263-2.527-.42-3.76.168.2.028.403.042.606.043a.959.959 0 0 1 .927.295Zm-8.922 8.641c.338-.668.654-1.341 1.012-1.996.15-.22.327-.419.528-.593a1.124 1.124 0 0 0 .372-1.166 2.51 2.51 0 0 1-.104-.641.986.986 0 0 1 .66-.989c.38-.172.599.05.86.246.303.34.726.55 1.18.59-.383-.64-1.147-.82-1.434-1.485a2.435 2.435 0 0 1 2.357 1.602l.735-.05c-.578-.975-1.747-1.27-2.412-2.264 1.26.01 2.913 1.202 3.326 2.29l1.113.037c-.94-1.291-2.196-1.983-3.392-2.876 1.027-.143 1.996.412 4.012 2.298.281-1.099.155-1.28-.82-1.786-.625-.329-1.349-.55-1.817-1.326l.842-.928a1.15 1.15 0 0 0-1.073.411.778.778 0 0 1-.527.347c-.848-.015-1.315.722-2.026.994a1.11 1.11 0 0 0-.431.367c-.743.953-1.463 1.925-2.217 2.867-.31.377-.479.85-.476 1.337a1.757 1.757 0 0 1-.519 1.455c-.066.055-.076.194-.093.3-.089.582-.172 1.166-.264 1.767l.179.037c.152-.297.29-.569.429-.845Zm22.573 12.937c.04.181.093.365.122.553.043.323-.105.511-.475.54a4.98 4.98 0 0 1-.24-.473c-.07-.17-.114-.352-.173-.55l-.828.37.405.8c-.052.052-.108.1-.164.152-.335-.27-.703-.5-1.094-.68a2.824 2.824 0 0 0-1.305-.033l1.5.66-.05.236c-.726.451-1.293-.485-1.997-.362-.017.415.171.582.56.617.505.043 1.007.122 1.5.236a4.803 4.803 0 0 0 2.217-.085 1.012 1.012 0 0 0 .627-1.538 1.904 1.904 0 0 1-.176-.605 3.854 3.854 0 0 1-.017-.578c-.514.304-.51.305-.412.74Zm-18.134-9.04c-.245.925-.132 1.9-.563 2.73-.516-.014-.446-.4-.47-.656-.067-.67-.083-1.347-.107-2.022-.015-.371-.22-.5-.644-.588.018.573.019 1.102.051 1.628.033.526.106 1.055.095 1.595-.517-.517-.541-1.218-.733-1.855-.117-.432-.26-.857-.43-1.272-.13-.2-.29-.377-.475-.526l-.166.098c.13.65.245 1.307.385 1.955.14.648.293 1.254.461 1.917-.16 0-.361.03-.376-.01a84.5 84.5 0 0 1-.926-2.467 6.321 6.321 0 0 1-.155-.838c-.145.348-.287.528-.279.712 0 .405.046.81.14 1.204.6 2.369 1.99 4.217 3.823 5.907.508-2.464.484-4.91.9-7.37l-.531-.142Zm-1.908 4.617-.187.089-.525-.946.183-.113c.415.172.322.668.528.974v-.004Zm1.297-.816-.11.004c-.03-.138-.062-.272-.088-.41l.2-.022c-.003.145 0 .287-.002.432v-.005Zm5.273 6.475-.434-2.158-2.872-1.047c-.758.522-.783.817-.056 1.4a9.7 9.7 0 0 0 3.362 1.804Zm3.025-22.34c-.178.023-.354.082-.718.167 1.708.552 3.361.487 4.764 1.437-.246-.023-.494-.034-.735-.079-.972-.168-1.931-.398-2.914-.514-.593-.081-1.205-.052-1.946-.082a1.276 1.276 0 0 0 1.047.534c.85.14 1.7.3 2.548.453-.015.074-.008.149-.014.224l-3.73-.049c.174.419.444.415.727.455 1.402.156 2.817.164 4.221.023 1.538-.102 3.077-.254 4.612-.388a.89.89 0 0 0 .225-.076c-.773-.67-5.372-2.529-6.202-2.459l2.77 1.145-.036.175a1.498 1.498 0 0 1-.367-.076 10.75 10.75 0 0 0-4.252-.89Zm11.277 11.866-.731.186c-.23-.389-.463-.779-.67-1.172-.139-.252-.3-.353-.598-.123l.698 1.341c-.535.387-.535.387-.868-.05-.136-.184-.287-.356-.48-.587-.066.474-.066.474.3 1.328-.717.362-.3.926-.21 1.46 1.356.78 2.919 1.193 4.139 2.478.024-.28.029-.562.014-.844a18.675 18.675 0 0 0-.979-4.086c-.15-.4-.317-.826-.936-.763l.32.832Zm-1.432 1.112c.44-.324.57-.115.637.29-.353.146-.505-.022-.637-.29Zm2.197 1.25c-.678-.445-1.184-1.305-1.017-1.695l.562-.139c.137.616.296 1.168.455 1.834Zm-8.189 6.96a2.274 2.274 0 0 1-.5-.157 2.167 2.167 0 0 0-.856-.268l.361.457c-.38.322-.713.409-1.092.085a7.01 7.01 0 0 0-.889-.639c-.104-.067-.278-.02-.614-.026l1.358 1.19c-.061.297-.241.374-.478.243-.693-.393-1.403-.772-2.068-1.214-.537-.356-.728-.355-1.2.318 2.508 1.36 4.975 2.578 7.922 2.311l-.65-2.079c-.377-.073-.838-.136-1.294-.22Zm-.067 1.207-.707-.392c.512-.163.512-.163.707.392Zm1.278-.146c-.38-.147-.848-.084-1.03-.572.586-.19.586-.19 1.048.575l-.018-.003ZM37.32 40.467c.63.804 1.296 1.574 1.948 2.365.095.115.178.241.274.375-.45.176-.629.089-1.477-.637-.445-.379-.902-.746-1.37-1.13-.267.742-.266.738.215 1.17l1.574 1.399c-.458.124-.458.124-2.027-.664-.265.624-.295.682.205.953.861.48 1.758.893 2.682 1.236.964.323 1.953.568 2.955.732.557.06 1.119.046 1.672-.042.498-.052.647-.245.56-.796a18.524 18.524 0 0 0-.463-1.885 217.067 217.067 0 0 0-1.241-4.277c-.126-.427-.315-.835-.471-1.25-.39.102-.317.345-.276.545.15.682.32 1.36.49 2.041l.226.958c-.27.18-.41.092-.513-.143l-.924-2.144a8.469 8.469 0 0 0-.484-1.01c-.07-.124-.28-.163-.514-.289.176 1.49.808 2.708 1.104 4.035-.378-.597-.734-1.212-1.14-1.788-.405-.575-.873-1.131-1.302-1.68-.409.084-.35.288-.206.536.332.601.688 1.217 1.026 1.828.086.16.145.335.229.503-1.297-.158-1.848-1.242-2.58-2.085-.522.54-.556.664-.173 1.144Zm3.873 4.055c-.041.064-.078.134-.114.2l-1.212-.751c.035-.057.069-.114.098-.167.53.036.788.531 1.228.718Zm1.02-1.038-.516-.771.17-.097a1.04 1.04 0 0 1 .346.868Zm.495-1.232c.065-.028.133-.05.202-.073.035.158.075.321.115.48l-.15.042-.167-.45Z" fill="#fff"/><path fill-rule="evenodd" clip-rule="evenodd" d="M30.212.364a8.243 8.243 0 0 1 3.528.638c.088-.082.167-.173.237-.272a1.097 1.097 0 0 1 1.306-.696 6.463 6.463 0 0 1 2.423.96c.5.276.976.601 1.458.891.723-.597.919-.61 1.713-.125a10.56 10.56 0 0 1 2.765 2.579c.727.94 1.396 1.93 2.092 2.908.241-.12.536-.263.892-.446.425 1.184.757 2.4.995 3.635.213 1.166.296 2.353.245 3.537 0 .558-.142 1.088-.169 1.637-.007.57-.055 1.137-.143 1.7a4.317 4.317 0 0 1-.535 1.672c-.415.576-.67 1.99-1.307 2.574-.638.584-2.083 1.106-2.337 1.253-.932.54-4.264 1.548-5.99 1.4a1.95 1.95 0 0 0-.679 0c-.66 0-1.81-.16-1.637-.325a3.773 3.773 0 0 0-1.855-1.003c-1.338-.348-2.32-1.205-3.305-2.07-.866-.758-1.374-1.784-1.945-2.734a.7.7 0 0 1-.138-.446c.156-.585-.26-.892-.531-1.303a4.847 4.847 0 0 1-.665-1.56 6.815 6.815 0 0 1-.142-2.91c.07-.334.405-.615.709-1.056a19.067 19.067 0 0 1-.393-1.945 6.049 6.049 0 0 1 .076-1.628c.12-.71.33-1.41.504-2.11.04-.156.143-.317.116-.446-.09-.549.245-.723.687-.825.147-.718.303-1.427.446-2.141A1.453 1.453 0 0 1 30.212.364Z" fill="#5F816D"/><path d="M38.469 13.402c0 .54.049 1.084.116 1.624.056.176.143.341.258.486l.179-.031c.03-.21.049-.422.053-.634 0-.522-.026-1.043-.062-1.565 0-.286.103-.37.397-.29.138.892.219 1.85.919 2.716.085-.24.178-.366.165-.477-.058-.38-.152-.754-.228-1.133-.075-.38-.17-.754-.21-1.133 0-.09.166-.196.335-.393.357.937.446 1.847 1.08 2.525.21-.972-.3-1.824-.415-2.752.678.446.687 1.338 1.338 1.896.236-.776-.384-1.338-.38-2.083l.982 1.003.094-.053c-.12-.29-.246-.58-.366-.861.397-.263.53.236.848.2.111-.338.035-.566-.34-.673a1.86 1.86 0 0 1-.508-.2c-.718-.447-1.4-.969-2.14-1.374a5.767 5.767 0 0 0-2.088-.79c-.384 1.249-.781 2.458-1.12 3.684a10.756 10.756 0 0 0-.24 1.615c.018.154.06.305.124.446.856-.584.54-1.548.87-2.23.401-.009.33.254.339.477Zm1.298-1.878.481.745c-.495.04-.508.018-.481-.745Zm-.634-.606c.099.584.179 1.039.268 1.565-.178 0-.384 0-.397-.049a1.508 1.508 0 0 1 .13-1.516Zm-.637.79v.842c-.536-.379-.183-.607 0-.843Zm-3.435 5.548a8.474 8.474 0 0 0 .12 2.35c.186.658.423 1.299.71 1.919.138.213.31.402.508.562l.138-.099c-.156-.294-.33-.584-.446-.892-.116-.307-.24-.624-.352-.919.268-.187.38-.093.49.094.21.357.447.705.656 1.048.21.344.232.313.772.344-.357-.62-.696-1.2-1.053-1.811l.424-.277c.245.38.446.736.687 1.058.24.32.415.74.959.825-.174-.937-1.182-1.4-1.138-2.369.678.553 1.182 1.285 1.94 1.784a.638.638 0 0 0-.16-.82 35.775 35.775 0 0 0-1.146-1.276c-.147-.165-.205-.299.027-.486.66.334.954 1.146 1.85 1.445-.334-.892-1.074-1.285-1.467-1.985l1.722.754c.103-.78.031-.955-.562-1.115-1.11-.3-2.23-.571-3.345-.834a2.229 2.229 0 0 0-.625 0c-.557.017-.691.191-.709.7Zm2.623.268v-.08l.339.053c0 .053-.027.111-.045.165l-.294-.138Zm-.553.089.736.383c-.447.09-.446.09-.736-.383Zm-.594.366c.446.276.446.276.616.713l-.12.08-.496-.793Zm-.521.892c.058-.24.148-.471.267-.687l.522.892-.607.303c-.075-.187-.196-.352-.182-.504v-.004Zm-.268-.692c-.08-.473-.138-.798-.192-1.12l.232-.057c.112.25.205.508.281.771.013.076-.138.188-.321.41v-.004Zm-.335.571a.724.724 0 0 1 .34.745c-.465-.107-.313-.397-.34-.74v-.005Z" fill="#fff"/><path d="M34.828 9.673c.54.692.759 1.57 1.459 2.097.303-.152.178-.322.111-.491a5.604 5.604 0 0 1-.584-1.713c0-.214-.232-.42-.361-.624a1.863 1.863 0 0 0-.16-.21l.124-.111c.736.53 1.12 1.414 1.784 2.02a.513.513 0 0 0 0-.772 2.65 2.65 0 0 1-.65-2.007c.445.446.838.808 1.261 1.21l.558-.304a1.654 1.654 0 0 0-.79-1.057.99.99 0 0 1-.379-.388c-.049-.085 0-.237.036-.504.812.628 1.48 1.155 2.15 1.681l.12-.08a2.44 2.44 0 0 0-.232-.41c-.352-.389-.731-.754-1.079-1.151-.085-.094-.085-.263-.165-.54l1.494.607c.125-.304 0-.42-.236-.487-.861-.258-1.713-.535-2.578-.767a11.932 11.932 0 0 0-1.887-.361c-.607-.058-.87.165-.96.723-.2 1.257-.365 2.515-.543 3.778-.032.2-.103.446.165.521.209.013.418-.01.62-.066.406.602.406.602.669.646.031-.41-.45-.856.053-1.24Zm1.017-3.568a.892.892 0 0 1 1.044.82l-1.044-.82Zm-.61.263a1.602 1.602 0 0 1 .851 1.07c-.553-.084-.691-.503-.852-1.057v-.013Zm-.683.549c.258.12.374.138.446.205.205.331.292.723.245 1.11-.477-.28-.5-.74-.691-1.297v-.018ZM45.03 8.326c.125-1.338-3.34-5.513-4.813-5.914a23.06 23.06 0 0 1-.178 6.78l.785.33c.027-1.102.053-2.079.076-3.051h.138c.103.634.252 1.26.446 1.873.232.611.085 1.338.589 1.873.06-.606.06-1.217 0-1.824-.058-.602-.179-1.2-.272-1.784.356-.13.414.08.468.285.09.335.156.67.263.99a8.44 8.44 0 0 1 .651 2.57c0 .044.08.085.174.178.491-1.53-.116-2.868-.624-4.228a1.1 1.1 0 0 1 .254-.045c.535 1.15 1.057 2.306 1.58 3.461-.023-1.289-.514-2.493-.893-3.72l.138-.053 1.218 2.28Zm-3.988-2.6c-.343-.205-.334-.527-.392-.825l.17-.036c.075.285.169.575.222.86Zm.973.21-.192.102c-.446-.285-.406-.776-.517-1.204l.125-.058c.196.374.388.771.584 1.16Zm.892-.076c-.42.102-.504-.157-.607-.357a6.353 6.353 0 0 1-.245-.594l.174-.084.678 1.035Z" fill="#fff"/><path d="m33.932 2.844 1.106.206c-.058-.322-.098-.58-.143-.848a9.367 9.367 0 0 0-3.185.401 1.338 1.338 0 0 0-1.066 1.205c-.102.994-.24 1.99-.276 2.984.004.696.048 1.392.134 2.083l1.177.37c-.196-.388-.392-.727-.535-1.084-.067-.165-.179-.41.107-.526.285-.116.316.076.424.236.207.375.527.674.914.857.259-.727-.67-1.169-.343-1.914l.628.42a.972.972 0 0 0-.174-1.361c.157-.156.281-.393.397-.388.447 0 .5-.41.893-.562-.384-.29-.594-.575-.166-.977.277.12.567.245.857.38.29.133.42.026.549-.29-.344-.143-.652-.282-.968-.407a.513.513 0 0 1-.33-.785Zm-1.365 2.083c.035.148-.112.335-.174.504l-.197-.026c-.084-.232-.16-.446-.245-.71.352-.116.562.01.616.232Zm.035-1.137.66.09c-.062.169-.098.28-.156.445l-.535-.42a.921.921 0 0 0 .031-.093V3.79Zm.924-1.075v.58a.816.816 0 0 1-.924-.38c.357-.08.598-.133.924-.2Zm12.369 14.974a.446.446 0 0 1-.053-.384 8.64 8.64 0 0 1 .945-1.338c-.04 1.115-.191 2.181-.94 3.073.019-.171.05-.341.093-.508a.825.825 0 0 0-.045-.843Zm-9.037 5.535c.624-.138 1.249-.254 1.864-.415.215-.072.418-.176.603-.307a.963.963 0 0 1 1.043-.058c.16.093.328.168.504.223a.838.838 0 0 0 .96-.33c.222-.282.089-.509 0-.754a1.503 1.503 0 0 1-.237-1.102c.446.446.446 1.124.919 1.503a2.083 2.083 0 0 0-.82-2.293c.057-.174.12-.36.195-.597.683.687.67 1.717 1.338 2.475a3.596 3.596 0 0 0-1.181-3.233l.205-.928c.87 1.052 1.173 2.23 1.655 3.412.339-.812.07-1.735-1.044-3.8.968 0 1.093.142 1.302 1.057.138.584.17 1.23.71 1.784l.95-.5a.991.991 0 0 1-.576.799c-.156.062-.357.21-.388.357-.17.704-.892.932-1.253 1.45a.892.892 0 0 1-.384.276c-.946.415-1.9.803-2.841 1.227a1.785 1.785 0 0 1-1.21.107 1.517 1.517 0 0 0-1.306.115c-.062.05-.183.027-.272 0l-1.499-.16v-.152c.25-.04.504-.102.763-.156ZM30.97 1.814c-.147-.072-.285-.156-.445-.219-.26-.107-.447-.04-.55.277.11.105.225.205.344.299.125.093.264.165.41.263l-.481.602-.567-.504-.165.103c.16.333.276.685.348 1.048a2.44 2.44 0 0 1-.25 1.088l-.227-1.378h-.205c-.526.504.13 1.173-.125 1.73a.446.446 0 0 1-.392-.593c.07-.426.111-.857.124-1.289.035-.639.22-1.26.54-1.815a.865.865 0 0 1 1.405-.192c.133.114.284.206.446.272.154.058.312.104.473.138-.348.344-.348.344-.682.17Zm3.596 16.441c-2.12-.178-4.144-.705-6.285-.825 1.008 1.878 2.23 3.417 4.068 4.42.306.159.63.283.963.37.22.01.44-.018.651-.08a5.355 5.355 0 0 1-.66-.303c-.624-.446-1.244-.852-1.85-1.294-.032 0 .04-.183.07-.312.536.281 1.018.544 1.508.79.49.245 1.022.49 1.535.736l.115-.12a1.908 1.908 0 0 0-.334-.505 9.366 9.366 0 0 0-.977-.633c-.486-.3-1.061-.446-1.378-1.004.446.107.87.277 1.298.415.428.138.865.254 1.338.392.053-.37-.027-.566-.33-.66a29.34 29.34 0 0 1-1.646-.513c-.21-.076-.544-.102-.446-.53.776-.17 1.557.129 2.373.129a39.475 39.475 0 0 0-.014-.473Zm-3.524 1.708-.13.13-.673-.638.116-.134c.21.232.638.263.687.642Zm.62-1.45a1.904 1.904 0 0 0-.063.157l-.32-.16.026-.09.357.094Zm-4.582-5.829 1.691.82c.09.866.174 1.714.268 2.592-.594.522-.843.478-1.169-.25a8.178 8.178 0 0 1-.79-3.162Zm19.11 2.253c-.058.147-.143.276-.295.562-.089-1.517.313-2.882-.17-4.247-.03.21-.075.415-.093.625-.067.843-.098 1.681-.192 2.52a16.35 16.35 0 0 1-.347 1.624 1.08 1.08 0 0 1-.215-.977c.067-.732.112-1.468.165-2.204l-.191-.035c-.241 1.003-.487 2.007-.75 3.09-.307-.231-.25-.445-.223-.695.176-1.192.475-2.362.892-3.493.415-1.253.866-2.489 1.303-3.733a.893.893 0 0 1 .111-.165c.393.776.95 4.978.714 5.647a304.97 304.97 0 0 1-.357-2.534h-.151a1.115 1.115 0 0 0 0 .321 9.226 9.226 0 0 1-.201 3.694ZM39.405 3.54c.187-.5-.13-.727-.446-.937A15.903 15.903 0 0 0 35.792.935a4.75 4.75 0 0 0-.7-.17c.803 1.285.812 2.677 1.168 3.953.42.187.794.65 1.25.138.633.486.633.486 1.034.53-.152-.209-.259-.374-.38-.521-.294-.37-.294-.366.14-.732l.963.861c.245-.196.196-.352 0-.522-.281-.267-.549-.544-.821-.816l.308-.562.65.446Zm-1.954-.09c.321.144.446.295.103.59-.192-.17-.299-.33-.103-.59Zm.96-.708-.237.446c-.357.035-.96-.567-1.182-1.218l1.418.772Zm-8.814 3.385-1.58-.981c-.851 2.377-.37 4.679.22 7.038.66-.245.7-.405.517-.923-.223-.647-.384-1.311-.558-1.967-.062-.223.04-.343.299-.343.21.414.424.825.705 1.378.067-.281.142-.415.107-.518a5.82 5.82 0 0 0-.353-.892c-.187-.383-.044-.637.304-.892l.299.402c.04-.256.028-.517-.036-.767a1.694 1.694 0 0 1-.027-.446c.027-.366.071-.759.103-1.089Zm-.942 1.584c-.053-.201-.102-.402-.174-.665.42.277.42.277.174.665Zm.473-.723c-.366-.254-.214-.624-.254-.972.517.53.517.53.254.972Zm5.237 9.867c-.54-.785-1.338-1.468-1.173-2.574.129.102.258.187.374.294.446.41.866.821 1.294 1.236.174.174.33.267.486-.054-.366-.473-.718-.972-1.11-1.436-.393-.464-.826-.892-1.236-1.338 1.03.535 1.904 1.311 3.122 1.784-.053-.223-.044-.401-.13-.486a7.04 7.04 0 0 0-.74-.616c-.52-.413-1.045-.825-1.574-1.235-.174-.139-.214-.272 0-.446l.727.388c.526.28 1.053.566 1.588.834.151.076.339.187.504-.111-.308-.22-.607-.447-.932-.66a240.475 240.475 0 0 0-3.27-1.932 15.855 15.855 0 0 0-1.458-.785c-.42-.187-.611-.107-.763.294a5.612 5.612 0 0 0-.388 1.37 13.117 13.117 0 0 0 .42 5.071c.11.469.164.446.74.37-.317-1.463-.317-1.463-.12-1.815l.82 1.597c.254.5.25.5.919.446-.215-.468-.42-.923-.638-1.37-.42-.856-.446-1.02-.214-1.338.089.107.178.206.254.308.508.705 1.008 1.419 1.539 2.11.285.384.397.384.959.094Zm-3.185-3.03-.16.046-.362-1.156.188-.053c.058.401.414.722.33 1.164h.004Zm1.387-1.337-.12.116-.527-.584a.892.892 0 0 1 .647.49v-.022Zm.143-.852.067-.112.37.197-.102.151-.335-.236Z" fill="#fff"/></svg>