<svg width="28" height="28" fill="none" xmlns="http://www.w3.org/2000/svg"><path d="M12.667 20.667h2.666v-8h-2.666v8ZM14 10c.378 0 .695-.128.95-.384a1.29 1.29 0 0 0 .383-.95c0-.377-.127-.694-.382-.95A1.293 1.293 0 0 0 14 7.333a1.29 1.29 0 0 0-.95.383 1.291 1.291 0 0 0-.383.95c0 .379.128.695.384.95.255.256.571.384.949.384Zm0 17.333c-1.845 0-3.578-.35-5.2-1.05a13.454 13.454 0 0 1-4.233-2.85c-1.2-1.2-2.15-2.61-2.85-4.233-.7-1.622-1.05-3.355-1.05-5.2 0-1.844.35-3.578 1.05-5.2.7-1.622 1.65-3.033 2.85-4.233 1.2-1.2 2.61-2.15 4.233-2.85 1.622-.7 3.355-1.05 5.2-1.05 1.844 0 3.578.35 5.2 1.05 1.622.7 3.033 1.65 4.233 2.85 1.2 1.2 2.15 2.61 2.85 4.233.7 1.622 1.05 3.356 1.05 5.2 0 1.845-.35 3.578-1.05 5.2a13.455 13.455 0 0 1-2.85 4.233c-1.2 1.2-2.61 2.15-4.233 2.85-1.622.7-3.356 1.05-5.2 1.05Z" fill="#AC6719" fill-opacity=".63"/></svg>