<svg width="25" height="24" fill="none" xmlns="http://www.w3.org/2000/svg"><g clip-path="url(#a)" fill="#36332F"><path d="M17.223 0H6.97C3.632 0 .917 2.914.917 6.497v11.007C.917 21.086 3.632 24 6.969 24h10.255c3.337 0 6.052-2.914 6.052-6.496V6.497C23.276 2.914 20.56 0 17.223 0Zm4.742 17.504c0 2.806-2.127 5.089-4.742 5.089H6.97c-2.614 0-4.741-2.283-4.741-5.09V6.498c0-2.807 2.127-5.09 4.741-5.09h10.255c2.614 0 4.741 2.283 4.741 5.09v11.007Z"/><path d="M12.096 5.438c-3.37 0-6.113 2.943-6.113 6.562 0 3.618 2.742 6.562 6.113 6.562 3.371 0 6.114-2.944 6.114-6.562 0-3.619-2.743-6.562-6.114-6.562Zm0 11.717c-2.648 0-4.802-2.312-4.802-5.155 0-2.843 2.154-5.155 4.802-5.155 2.649 0 4.803 2.312 4.803 5.155 0 2.843-2.154 5.155-4.803 5.155Zm6.26-14.048c-.996 0-1.806.87-1.806 1.94 0 1.069.81 1.938 1.806 1.938s1.807-.87 1.807-1.939c0-1.07-.81-1.939-1.807-1.939Zm0 2.471c-.273 0-.496-.238-.496-.532 0-.293.223-.532.496-.532s.496.239.496.532c0 .294-.223.532-.496.532Z"/></g><defs><clipPath id="a"><path fill="#fff" transform="translate(.917)" d="M0 0h24v24H0z"/></clipPath></defs></svg>