<svg width="32" height="32" fill="none" xmlns="http://www.w3.org/2000/svg"><g clip-path="url(#a)" fill="#A77F51"><path d="M23.338 0H8.662C3.886 0 0 3.886 0 8.662v14.676C0 28.114 3.886 32 8.662 32h14.676C28.114 32 32 28.114 32 23.338V8.662C32 3.886 28.114 0 23.338 0Zm6.786 23.338a6.794 6.794 0 0 1-6.786 6.786H8.662a6.794 6.794 0 0 1-6.786-6.786V8.662a6.794 6.794 0 0 1 6.786-6.786h14.676a6.794 6.794 0 0 1 6.786 6.786v14.676Z"/><path d="M16 7.25c-4.825 0-8.75 3.925-8.75 8.75s3.925 8.75 8.75 8.75 8.75-3.925 8.75-8.75S20.825 7.25 16 7.25Zm0 15.624A6.882 6.882 0 0 1 9.126 16 6.882 6.882 0 0 1 16 9.126 6.882 6.882 0 0 1 22.874 16 6.881 6.881 0 0 1 16 22.874Zm8.959-18.731a2.588 2.588 0 0 0-2.585 2.585 2.588 2.588 0 0 0 2.585 2.586 2.589 2.589 0 0 0 2.586-2.586 2.588 2.588 0 0 0-2.586-2.585Zm0 3.295a.71.71 0 1 1 .002-1.421.71.71 0 0 1-.002 1.42Z"/></g><defs><clipPath id="a"><path fill="#fff" d="M0 0h32v32H0z"/></clipPath></defs></svg>