<svg width="856" height="598" fill="none" xmlns="http://www.w3.org/2000/svg"><path opacity=".5" d="M522.609 520.387a17.226 17.226 0 0 0-1.819 6.716c6.546-.646 3.663 2.5 1.2 3.519-7.56 3.113 3.276 16.743-10.585 15.038-4.21-.518-2.797-4.753-2.011-8.87 1.119-5.843-8.411-9.246-11.451-6.983-13.51 10.4-32.203 4.449-46.053 15.219-8.202 6.467-8.831-5.826-13.098-10.376-1.78 24.811-28.14 10.094-39.96 20.584-1.786-.788-1.677-3.874-1.988-6.901-.311-3.028 5.564-7.234.19-9.724-4.594-2.015-8.952.526-11.887 4.584-4.671 6.464-12.152 10.406-16.351 17.451-3.482 5.782-8.453 2.59-13.333-2.78-5.847-6.432-12.831-13.613-24.107-13.122-8.046.369-16.099 8.689-24.563-1.713-2.066-2.559-12.249 9.967-9.755 13.307 6.6 8.785-.453 8.338-5.764 9.912-9.249 2.765-18.529 5.307-27.826 7.982-.574-2.345 3.993-4.657.663-6.556-1.164-.68-4.397.445-5.95 1.597-3.679 2.804.32 4.126 1.747 5.933a4.816 4.816 0 0 0-.135 2.378l-2.187 2.759-13.392 3.498c1.761-10.489-.414-12.29-15.308-12.947 2.715-9.264 14.4-13.755 15.759-23.801-6.288-1.362-12.302 6.483-19.112.313-6.809-6.17-13.339 5.431-20.997.865-8.577-5.28-9.511 4.74-13.203 7.707-6.807 5.465 2.744 5.406 4.696 8.175 2.696 4.282-3.29 2.006-4.383 3.644-6.095-1.259-12.239-3.125-18.031.907-.844.602-1.185 3.558-.511 4.047 2.167 1.912 4.932 3.173 7.938 3.622 3.006.449 6.115.065 8.925-1.104 12.552 11.583 30.368 9.38 39.255-5.036 9.86 6.557 3.643 12.426-1.457 18.367-19.199-.579-36.536 14.131-56.139 6.755 12.175-5.594 6.52-15.543 2.598-20.69-6.923-9.064-5.726-17.181-2.359-26.373 4.541-2.502 11.336-4.443 3.305-10.154l2.962-4.385c2.524-1.092 3.942.135 5.08 1.917l3.855 2.085c17.747 2.978 28.685-2.024 31.246-14.208.992-4.694 1.267-9.678-5.952-7.452-13.3 4.165-26.983 1.433-40.235 4.137l-2.25-2.34-1.106 1.026c1.185.321 2.376.674 3.701.975-3.527 16.294-11.865 3.45-18.179 2.932-1.154.24-2.324.402-3.5.484-3.566.008-3.807-1.737-1.642-3.62 17.149-14.522-2.995-11.869-8.141-13.226-5.741-1.534-12.531 1.731-18.06 5.081-8.649 5.041-12.672-2.387-14.445-6.182-2.539-5.467 4.549-7.093 8.981-6.768 10.042.649 10.321-5.079 9.816-11.053-.824-9.583-9.096 2.065-11.232-3.846 8.468-14.099 4.187-19.779-15.646-19.269-1.437.1-2.876-.018-4.258-.349-1.534-14.979-16.795-13.647-26.589-19.211-9.793-5.564-15.662-11.638-16.706-26.426-.983-14.087 8.682-14.614 13.576-23.08-6.314-.259-11.958-.578-17.66-.792-3.07-.028-7.774 3.369-8.693-1.223-.92-4.592 4.772-5.476 8.47-5.825.903-9.208-16.312 1.219-11.974-10.499 3.655-9.943-13.84-22.718 5.93-30.395 2.38-.329 4.503-1.236 3.448-3.708-1.055-2.473-3.23-2.205-5.387-.775l-1.365-.07c-.229-7.338-7.002-4.98-11.43-6.825-8.104-3.406-7.706-4.139-12.373 3.649-3.748 6.174-8.131 9.818-14.482 2.583.47-14.675 8.129-25.333 24.058-32.415-8.087-5.347-13.37 1.589-19.29 2.116.295-6.893 9.732-13.724.708-20.688 7.567-13.651 7.611-30.627 22.892-40.851a7.336 7.336 0 0 0 2.013-2.672 6.56 6.56 0 0 0 .532-3.175c-4.642-21.208 12.945-29.974 27.837-39.918 9.992-6.681 13.22-12.234 16.394-24.632.603-2.346 1.664-10.671 11.877-9.56 7.933.875 16.844-3.814 25.227-6.395 2.398-.719 6.379-1.592 4.366-5.322-1.2-2.226-2.968-4.697-6.612-3.967-6.279 1.287-16.59 9.015-12.039-6.321-4.471.941-9.021 1.57-13.37 2.882-2.74.831-5.609 3.037-6.402-1.152-.438-3.172 2.992-4.163 5.447-5.504 7.367-4.25 18.977 4.392 24.002-7.001 2.94-.406 5.845-.808 5.993-4.384 6.859-6.895 20.726-1.279 26.731-13.066-9.819.71-18.73 5.141-26.835-.333-.673-18.299 16.377-21.657 29.301-28.032a74.352 74.352 0 0 1 16.818-4.522c4.156-.897 7.879-6.486 12.421-2.265 4.543 4.22.492 8.982-.596 13.496l-.678.255c-1.536-.79-3.375-3.25-4.765-.408-1.391 2.843 1.147 2.88 3.413 2.761 2.188 2.93 4.074 3.671 5.85-.518a177.998 177.998 0 0 0 15.785-7.094c2.511-1.446 6.851-3.597 3.7-7.299-1.659-1.936-1.21-8.754-7.645-3.695-2.025 1.605-5.425.75-5.067-1.562 1.403-9.47 13.379-6.439 18.457-12.538 3.062-3.656 6.786-2.522 8.389 2.623a68.57 68.57 0 0 0 5.586 14.613c5.607 10.377 15.981 12.402 26.021 5.294 1.658-1.166 4.13-2.64 4.252-4.078.76-8.703 13.848-23.182 23.36-25.854a7.351 7.351 0 0 1 4.215.097c1.346.443 2.488 1.27 3.258 2.361 6.325 10.149 12.795 5.085 20.823 1.228 13.383-6.406 9.239-10.585-1.32-15.494 7.525-.264 11.783 3.447 15.867 7.182 4.612 4.21 10.642 4.994 15.169 1.621 1.59-1.493 2.772-3.301 3.449-5.273.677-1.972.829-4.05.443-6.06-2.031-6.184-8.751-1.377-15.804-1.567 10.563-15.196 30.625-10.695 35.334-8.114 15.574 9.453 20.756-4.677 30.258-7.671 8.144 4.984 10.58-.88 13.427-6.09 5.908 3.774 21.998-7.564 18.62 10.066 4.765.667 10.571 3.194 14.159 1.535 7.376-3.411.982-9.154.526-14.004 2.922-3.378 6.436-.663 9.512-1.12 1.61-.223 3.181-.73 4.774-1.08-.595.082-1.645.227-1.663.617a8.097 8.097 0 0 0-.156 4.547c5.637 9.565 21.979 10.377 35.463 1.856 11.35 2.375 22.369 10.614 34.439.898 5.665-2.108 8.867-8.368 15.929-8.116 5.742 6.447 20.599.386 22.107 13.366.386 2.791-.321 10.581 9.177 6.78 6.93-2.767 12.153-9.113 11.898-12.763-.759-10.141-6.891 1.76-11.179-.62-2.906-1.668-.513-3.712-1.69-5.262.86-7.456 9.418-9.285 13.162-14.457a42.911 42.911 0 0 1 5.683-3.79c1.243-.56 4.585-.892 3.033 1.553-7.314 11.612 9.88 3.87 9.466 9.908-3.797 3.757-14.452 1.77-11.834 9.101 2.934 8.322 12.111.137 13.546-.837 17.001-11.464 33.312-10.614 50.991-2.714 4.866 2.172 11.573-.92 13.212-7.643a4.92 4.92 0 0 1 2.104.28c.662.244 1.247.63 1.706 1.126.459.496.778 1.086.932 1.724a3.787 3.787 0 0 1-.046 1.942c-5.693 17.66 6.763 17.199 19.605 16.685l-.35.048c1.467 2.569 3.502 4.825 5.98 6.631 2.477 1.807 5.346 3.127 8.433 3.88 3.086.752 6.326.922 9.521.498a25.922 25.922 0 0 0 9.067-2.962c3.666-1.864 7.074-5.6 9.936-1.147 4.102 6.447-4.221 5.593-7.016 8.08-2.795 2.488-12.093.508-8.832 6.554 2.963 5.441 7.363-.145 10.758-2.682 11.436-8.627 26.502-.268 36.726-6.561-12.143 16.675 7.682 17.653 16.264 24.257-2.152 5.34-12.383-.552-12.416 8.504 4.726-.653 9.982 4.083 14.111-2.435 2.244-.536 4.484-1.104 6.724-1.672.272 1.966 1.401 2.65 3.488 2.007 13.037 14.586 19.413-4.072 29.086-6.088 3.019-.61 3.815-3.371 7.15.111 4.949 5.102-1.951 3.696-2.62 5.308-2.659 6.573-11.268 13.193 2.153 19.452 7.242 3.363-.191 9.464-4.312 13.201-6.597 5.954-15.294 11.422.459 16.486 3.719 1.102 2.788 3.655-2.059 8.85-12.428 13.321-12.454 13.131 4.847 16.494 3.448.687 7.018 2.262 4.972 7.846-2.313 6.235 1.953 8.716 8.774 7.483 2.871 3.223-4.133 4.417-2.037 7.457l2.162 2.739c-5.337 3.97-7.3 10.932-2.473 13.594 8.489 4.646 6.351-5.661 10.153-8.61.612-.473.183-2.03.253-3.074a113.667 113.667 0 0 0 11.689 9.989c14.953 9.861.513 23.331 4.514 34.479-1.19.165-2.739-.203-3.5.484-6.173 4.634-26.742 2.919-9.937 18.698 1.842 1.717-9.08 15.088-14.679 22.844-9.321 13.344-23.548 22.421-35.994 33.029-4.02 3.432-11.663 5.426-9.041 12.013s9.225 8.681 18.772 6.78c-7.66 6.003-19.08 6.741-17.419 17.727.302 2.189-1.942 3.501-4.414 4.198-4.791 1.211.513-12.547-9.001-4.736-4.567 3.863-2.059 9.626-5.742 12.914a165.832 165.832 0 0 1-15.024 10.545c-6.264 4.485-15.259 8.573-.635 13.986 4.962 1.836-2.76 5.844-.808 9.13 2.662 7.648-3.205 10.624-9.317 13.117-6.112 2.493-4.492 6.73-4.237 10.638.118.857 2.678 1.57 4.105 2.342 5.187-8.151 24.588-7.664 17.54-23.304 2.748-.563 5.6-.31 8.132.719 2.531 1.03 4.61 2.783 5.927 4.999a54.717 54.717 0 0 0 4.162 21.857c-3.842 1.371-7.928 4.328-11.45 3.877-14.5-1.681-25.323 5.955-35.451 12.688-16.344 10.791-37.137 8.751-53.127 19.784-10.066 6.918-10.832 6.022-2.399 13.617 1.755 1.6 2.373 4.52-.121 5.059-9.652 2.174-14.825 14.298-29.576 7.706-6.809-3.067-24.946-6.024-31.532 9.561-2.685 6.383-7.449 11.146-8.247-.832a4.62 4.62 0 0 0-1.405-2.471 5.392 5.392 0 0 0-2.687-1.328c-4.567 7.484-19.951 3.274-20.189 15.493-.031 1.846 1.922 5.908-3.609 5.12-5.531-.787-10.939-1.72-10.499-10.411-2.058 10.918-.092 21.539-18.04 17.102-3.698-.944-12.603 12.052-21.248 16.608 1.977-2.729 7.398-2.994 6.005-8.167-.734 3.722-14.246-1.652-5.467 8.19ZM36.807 271.713c-15.204 4.848-28.666 6.805-17.943 22.972 7.73-6.409 13.856-14.253 17.943-22.972Zm25.915-41.172c9.92-.239 14.368-6.768 20.462-10.681 2.953-1.863 3.827-4.569 1.608-6.687-1.103-.878-2.541-1.338-4.028-1.288-1.486.049-2.912.605-3.996 1.556-6.265 4.479-11.12 10.389-14.046 17.1Zm785.851-12.157c-.822 1.794-2.222 3.539-1.793 4.32a4.634 4.634 0 0 0 1.783 1.31 5.224 5.224 0 0 0 2.269.393 3.29 3.29 0 0 0 1.602-.38 2.983 2.983 0 0 0 1.164-1.086c.271-.451.401-.959.374-1.466a2.516 2.516 0 0 0-.529-1.405c-.713-1.032-2.958-1.013-4.87-1.686Z" fill="url(#a)" fill-opacity=".8"/><defs><linearGradient id="a" x1="1.557" y1="76.764" x2="740.51" y2="597.736" gradientUnits="userSpaceOnUse"><stop stop-color="#F6D8B6"/><stop offset="1" stop-color="#F6D8B6" stop-opacity="0"/></linearGradient></defs></svg>