<svg width="51" height="83" fill="none" xmlns="http://www.w3.org/2000/svg"><path d="M0 71.163c.074.056.141.12.201.19.05.09.092.186.126.284l-.322.079L0 71.163Z" fill="#fff"/><path d="M37.704 22.823c.217.1.388.2.568.262.258.1.526.167.786.256.863.293 1.764.317 2.652.284a77.543 77.543 0 0 0 4.657-.317 5.966 5.966 0 0 1 1.518.055c1.082.172 1.95.905 2.14 2.212.148 1.005.31 2.01.438 3.027.028.359.028.72 0 1.078-.061 1.892-.125 3.782-.193 5.672-.05 1.355-.115 2.714-.165 4.064-.03.811-.007 1.627-.073 2.435-.094 1.132-.248 2.26-.375 3.39-.062.55-.108 1.1-.187 1.647-.138.95-.28 1.9-.453 2.846-.087.475-.246.937-.368 1.407-.094.363-.17.733-.276 1.093-.209.704-.432 1.408-.653 2.106a9.376 9.376 0 0 1-.34 1.022c-.325.721-.621 1.464-1.038 2.129-.33.523-.84.925-1.238 1.407-.816.994-1.846 1.733-2.841 2.522-.746.591-1.56 1.05-2.4 1.484-.88.456-1.746.94-2.597 1.45-.695.418-1.23 1.022-1.743 1.643-.421.516-.69 1.13-.964 1.734-.17.388-.368.764-.591 1.125-.191.302-.173.62-.17.944.007.503.014 1.006.037 1.502.04.861.091 1.72.14 2.58.027.46.05.92.09 1.378.051.603-.2 1.099-.447 1.618-.551 1.185-1.491 2.029-2.475 2.815-.562.431-1.167.804-1.804 1.114-.853.437-1.73.83-2.615 1.2-.823.344-1.709.479-2.586.588-1.16.142-2.322.287-3.488.394-.41.038-.833-.031-1.25-.056-.652-.036-1.306-.1-1.955-.11-1.06-.021-2.067-.3-3.065-.61-.891-.272-1.762-.619-2.633-.957-.41-.159-.792-.402-1.206-.56-.905-.36-1.619-1.02-2.381-1.594a4.315 4.315 0 0 1-1.348-1.658.795.795 0 0 1-.079-.21c-.138-1.019-.288-2.036-.402-3.058-.16-1.456-.302-2.916-.43-4.373-.094-1.048-.153-2.1-.237-3.15-.038-.483-.107-.964-.146-1.447-.04-.482-.05-.984-.087-1.476-.05-.658-.123-1.315-.164-1.974-.045-.718-.065-1.438-.1-2.157-.076-1.763-.141-3.528-.23-5.292-.076-1.513-.174-3.024-.271-4.536-.123-1.895-.26-3.79-.381-5.687-.053-.844-.063-1.691-.129-2.534-.082-1.058-.2-2.111-.308-3.17a.494.494 0 0 0-.045-.17c-.537-1.151-.516-2.389-.558-3.615-.01-.31-.036-.62-.034-.93.005-.157.03-.313.074-.464a.443.443 0 0 0-.135-.49c-.509-.502-1.066-.989-1.326-1.678-.27-.717-.403-1.466-.202-2.236.014-.048.029-.1.039-.145.16-.724.315-1.446.478-2.17.052-.23-.045-.409-.18-.574-.352-.434-.717-.856-1.055-1.299a1.831 1.831 0 0 1-.31-.596C.33 23.07.007 22.138.286 21.12c.269-.936 1.034-1.75 2.087-1.677a.76.76 0 0 0 .225-.014c.13-.03.175-.118.074-.217-.919-.892-.765-1.985-.567-3.078.051-.286.174-.558.242-.842a.368.368 0 0 0-.063-.27.887.887 0 0 0-.26-.193c-.633-.385-.905-.983-.998-1.683-.032-.255-.012-.518-.029-.777-.047-.748.257-1.39.628-1.998.233-.384.514-.736.836-1.05.22-.208.532-.336.822-.45.276-.093.559-.166.845-.218.185-.044.274-.11.188-.333a.962.962 0 0 1-.048-.534 4.709 4.709 0 0 1 2.212-3.06 5.9 5.9 0 0 1 1.089-.502c.194-.068.428-.048.641-.034.365.025.447-.025.503-.38.115-.725.567-1.257 1-1.809.401-.523.94-.868 1.471-1.224.186-.113.39-.193.604-.236.575-.135 1.147-.309 1.754-.164.275.066.573.05.842.134.54.162 1.072.357 1.59.583.519.236.951.612 1.35 1.024a.241.241 0 0 0 .41-.082c.28-.704.804-1.173 1.44-1.546.128-.076.246-.172.372-.253.483-.314.997-.273 1.518-.123.353.1.704.207 1.056.309.59.17.96.614 1.32 1.07.05.065.09.14.14.207.116.161.2.17.401.05.952-.59 1.966-.816 3.056-.396.288.11.582.2.867.321a3.542 3.542 0 0 1 2.219 2.874c.052.516.14.565.655.604.429.037.71-.16 1.03-.396.655-.485 1.395-.745 2.234-.612.919.145 1.583.71 2.22 1.323.38.344.66.783.814 1.272.078.272.128.55.15.832.025.289.075.355.361.34.35-.021.704-.03 1.05-.058.615-.053 1.16.142 1.71.392.943.428 1.6 1.158 2.198 1.955.473.632.682 1.373.534 2.15-.077.401-.294.803-.519 1.156a7.79 7.79 0 0 1-.84 1.02c-.202.221-.202.345.037.513.871.603 1.29 2.085.738 3.077a4.049 4.049 0 0 1-1.408 1.49.873.873 0 0 1-.281.1c-.367.081-.736.156-1.106.233-.14.03-.25.07-.152.249.294.53.1.982-.196 1.444-.357.556-.92.798-1.475 1.063a2.18 2.18 0 0 0-.172.127Zm3.689 37.792c-.162.018-.349-.01-.482.06-.402.218-.781.476-1.172.712-.391.236-.778.45-1.16.687-.117.072-.194.209-.312.279-.309.186-.643.333-.943.53a5.77 5.77 0 0 0-.603.525l.063.08.413-.248c.462-.277.905-.591 1.39-.82.815-.385 1.615-.791 2.334-1.337.171-.129.445-.19.47-.474.387-.023.975-.503.906-.782a4.345 4.345 0 0 0-.62.365c-.13.099-.194.28-.284.423ZM20.44 31.269l-.006-.007a2.931 2.931 0 0 1-.216.31c-.18.2-.317.176-.474-.047-.069-.1-.165-.216-.266-.234-.524-.1-.997.068-1.407.383-.232.179-.334.22-.578.029-.28-.221-.592-.224-.904-.113-.333.121-.31.126-.503-.163a.503.503 0 0 0-.381-.202c-.1.01-.253.184-.27.302a9.611 9.611 0 0 0-.122 1.347c-.014 1.423 0 2.847 0 4.27 0 .604-.037.55.531.63.36.052.437-.008.444-.373l.057-3.237c0-.049 0-.115.028-.145a.623.623 0 0 1 .23-.156c.026-.008.117.1.132.173.022.123.029.249.02.374-.045 1.005-.095 2.018-.136 3.028 0 .113 0 .273.069.332.122.1.27.16.427.174.055 0 .17-.17.18-.27.024-.292.032-.585.024-.877 0-.239.11-.389.361-.503.029.116.046.234.054.354-.008.308-.034.617-.047.927 0 .106-.03.251.026.313.152.168.09.301.017.474-.034.077 0 .264.037.277.146.032.296.047.446.044 0-.1 0-.201.012-.293.015-.123 0-.272.07-.357.071-.084.209-.063.319-.091.018.108.027.217.027.327-.04.422.196.694.578.622.11-.021.195-.156.301-.224.107-.069.223-.119.334-.177.033.1.068.193.1.291a.527.527 0 0 1 0 .1c.038.43-.074.92.492 1.1l-.364.441a1.004 1.004 0 0 0-.84-.301c-.315.023-.64-.046-.832.301-.2-.308-.468-.418-.75-.31-.078.03-.182.1-.195.168a.256.256 0 0 0 .124.219c.22.056.445.097.67.122.158.022.318.023.477.042.09.012.177.056.267.058.783.02 1.567.047 2.351.043.488 0 .984.024 1.435-.258.14-.089.358-.079.539-.073.215.008.29.173.138.32a.835.835 0 0 1-.44.195 9.822 9.822 0 0 1-1.099.1c-.742.027-1.486.041-2.232.045-.567 0-1.136 0-1.703-.03-.603-.03-1.206-.07-1.798-.141-.447-.053-.88.07-1.352-.06-.766-.212-1.582-.24-2.376-.352-.396-.057-.79-.124-1.185-.193a28.942 28.942 0 0 1-1.86-.422c-.055-.016-.09-.101-.136-.155a1.59 1.59 0 0 1 .201-.121.243.243 0 0 1 .124.01c.638.129 1.276.261 1.916.383.095.018.233.017.288-.038a.303.303 0 0 0 .045-.288.46.46 0 0 0-.289-.174c-.345-.058-.704-.06-1.038-.144a1.23 1.23 0 0 1-.57-.338.31.31 0 0 0-.387-.1c-.355.119-.713.231-1.07.348-.386.126-.8.132-1.189.016-.336-.1-.66-.237-.998-.328-.63-.168-1.048-.597-1.337-1.134-.498-.918-.62-1.91-.444-2.942a1.293 1.293 0 0 0-.228-1.042.884.884 0 0 0-.26-.163c-.065.107-.176.212-.186.324a8.766 8.766 0 0 0-.05 1.278c.044.723.045 1.46.402 2.125.096.167.178.34.246.52.129.37.194.769.365 1.116.402.804.556 1.65.591 2.542.072 1.84.177 3.68.282 5.517.12 2.132.257 4.261.38 6.392.05.878.072 1.758.123 2.634.122 2.098.255 4.195.38 6.292.094 1.596.185 3.192.272 4.788.045.862.092 1.724.1 2.584.007.905.01 1.795.162 2.695.17 1.005.172 2.029.288 3.041.056.498.165.987.326 1.461.1.32.284.61.53.838a25.856 25.856 0 0 0 2.057 1.548c.424.29.904.497 1.36.743.132.087.27.163.413.226.697.232 1.399.448 2.098.672.324.1.642.236.973.317.616.15 1.239.277 1.86.402.492.1.983.24 1.479.26 1.254.052 2.514.05 3.765.059.351 0 .704-.034 1.052-.06.135-.01.227-.053.23-.23 0-.335.06-.372.401-.402a2.21 2.21 0 0 0 .543-.077c.201-.069.22-.256.17-.44-.051-.186-.18-.15-.336-.116a4.826 4.826 0 0 1-.744.078c-.05 0-.1-.047-.157-.072v-.09c.343-.112.683-.232 1.03-.33.175-.051.377-.24.33-.377-.062-.188-.214-.2-.39-.169a6.238 6.238 0 0 1-.748.08 1.437 1.437 0 0 1-.357-.079v-.08c.091-.049.187-.09.285-.125.331-.086.665-.166 1-.241.156-.035.301-.1.229-.276a.408.408 0 0 0-.302-.218c-.832.053-1.663.134-2.493.201a.997.997 0 0 1-.374 0c-.467-.157-.946-.072-1.417-.112-.831-.073-1.669-.07-2.49-.27-.604-.147-1.219-.214-1.828-.322-.156-.029-.342-.158-.454-.107-.307.14-.532.1-.84-.052-.459-.22-.985-.302-1.476-.452a68.201 68.201 0 0 1-1.71-.562c-.301-.1-.592-.227-.887-.343l.026-.116c.134.019.27.029.402.059.132.03.283.088.424.128.184.051.367.107.554.144.127.025.316.078.378.017.192-.188.402-.153.604-.108.35.076.693.183 1.04.276.704.187 1.395.424 2.107.545.862.148 1.74.223 2.614.285.9.063 1.804.093 2.707.1.86.01 1.719-.019 2.579-.045.349-.01.697-.043 1.042-.1.18-.031.346-.147.519-.226l-.026-.069c-.43-.087-.858-.036-1.285.034-.62.1-1.239.201-1.868.093-.083-.015-.163-.038-.245-.058a.22.22 0 0 1 .141-.101c.617-.1 1.234-.211 1.853-.302.364-.053.732-.072 1.098-.11a2.6 2.6 0 0 1 .469-.055c.764.066 1.472-.155 2.173-.409.595-.215 1.187-.435 1.78-.654a4.44 4.44 0 0 0 .46-.18c.269-.136.471-.043.485.26.002.181-.017.364-.054.542-.056.32-.126.64-.19.96-.05.243-.1.486-.145.731a2.416 2.416 0 0 0 0 .357c.376-.201.727-.34 1.015-.56.448-.344.86-.738 1.277-1.12.419-.382.713-.811.736-1.377.035-.805.038-1.61.048-2.413.025-2.076.039-4.152.072-6.228.03-1.79.08-3.582.117-5.372.03-1.473.039-2.947.083-4.42.042-1.447.122-2.893.177-4.34.045-1.188.072-2.377.119-3.565.07-1.765.143-3.53.231-5.292.05-1.005-.04-2.028.27-3.016.047-.15-.037-.225-.17-.25-.263-.047-.544.281-.485.54.023.106.033.273-.026.323a.425.425 0 0 1-.342.037c-.252-.071-.345.117-.458.256-.114.139-.101.276.046.418.163.161.333.278.566.279.148 0 .2.077.165.207-.135.46-.11 1.005-.643 1.263a.339.339 0 0 0-.123.151c-.117.23.13.273.219.392.024.032.166.016.22-.025.172-.13.227-.034.246.116a.91.91 0 0 1-.22.722c-.163.192-.319.39-.082.642a4.856 4.856 0 0 0-.467.363.266.266 0 0 0-.032.245c.052.112.122.26.302.174.075-.037.151-.072.225-.111.15-.08.247-.017.225.134-.026.178-.083.35-.169.508-.133.24-.309.455-.453.687-.163.262-.127.41.155.54a.527.527 0 0 1 .33.563 2.482 2.482 0 0 1-.332.876 4.46 4.46 0 0 1-.316.547c-.13.17-.287.328-.17.554.117.226.266.397.56.354.043-.006.14.063.14.1.011.177-.007.355-.055.526-.063.167-.2.307-.301.458-.15.217-.1.38.105.548.096.097.178.206.245.324l-.074.084a1.161 1.161 0 0 1-.301-.119c-.174-.133-.336-.121-.467.03a.33.33 0 0 0 .01.492c.316.339.31.344.71.08.017-.012.045-.008.091-.014 0 .116-.008.224 0 .33.033.39-.278.608-.45.893-.172.285-.167.36.116.56.071.05.174.123.177.188.024.3.014.6-.03.897-.037.185-.182.336-.022.537.041.052-.017.182-.034.313-.36-.218-.432.079-.554.26a.277.277 0 0 0-.028.244.269.269 0 0 0 .237.074c.12-.032.224-.116.407-.218.014.233.011.466-.009.698a1.05 1.05 0 0 1-.192.412c-.15.218-.35.403-.48.633-.309.549-.566 1.13-.89 1.669-.295.492-.36 1.014-.344 1.561.01.086.029.17.056.25l.07.01c.131-.302.252-.603.393-.896.302-.639.613-1.276.939-1.904.072-.14.22-.24.357-.381a.765.765 0 0 1-.05.755c-.27.458-.536.919-.783 1.39-.276.532-.487 1.101-.804 1.609-.21.334-.1.63-.122.992.042-.025.082-.053.121-.082.374-.347.475-.85.724-1.269.25-.418.414-.853.633-1.273.05-.095.17-.155.257-.23l.107.054c-.038.185-.038.39-.121.552-.28.552-.59 1.09-.89 1.633-.132.24-.273.474-.402.714a6.32 6.32 0 0 0-.37.737c-.101.25-.101.529 0 .778a3.46 3.46 0 0 0 .33-.433c.146-.272.26-.56.403-.834.19-.379.417-.743.58-1.133a.82.82 0 0 1 .462-.495c-.045.24-.044.449-.123.62-.174.378-.394.734-.587 1.102-.328.627-.633 1.268-.986 1.88-.2.346-.187.705-.193 1.067 0 .055.047.111.107.244l.603-1.307c.252-.554.498-1.111.757-1.662a.221.221 0 0 1 .188-.106.225.225 0 0 1 .13.178 2.934 2.934 0 0 1-.158.49c-.046.12-.11.234-.161.353-.036.084-.056.175-.096.256-.221.47-.446.935-.674 1.396-.157.322-.286.664-.49.952a1.092 1.092 0 0 0-.233.641c0 .377.027.755 0 1.127-.078.943-.187 1.883-.27 2.825-.074.832-.544 1.39-1.36 1.627-.675.2-1.346.407-1.997.666a3.01 3.01 0 0 1-1.935.089.555.555 0 0 1-.26-.184.886.886 0 0 1-.101-.262.985.985 0 0 1 .293-.039c.83.164 1.69-.004 2.397-.466.068-.052.13-.11.185-.172a.875.875 0 0 0-.121-.1c-.581-.27-1.17-.526-1.744-.805a4.436 4.436 0 0 1-.681-.457c-.045-.033-.03-.145-.04-.22.072 0 .157-.028.216 0 .341.167.678.347 1.015.527.308.164.611.337.922.497.154.078.314.146.478.2.149.051.301.024.352-.142.05-.166-.028-.275-.185-.363-.393-.217-.775-.453-1.159-.686-.312-.19-.631-.373-.932-.58-.33-.226-.645-.473-.959-.72-.045-.036-.048-.126-.071-.19.08-.027.167-.085.239-.071.094.032.18.083.253.15.14.1.266.232.414.323.742.46 1.49.905 2.235 1.365.422.26.502.242.759-.255-.149-.1-.302-.216-.46-.316-.19-.12-.392-.221-.58-.344-.573-.373-1.139-.753-1.71-1.127-.494-.323-.992-.64-1.486-.963-.11-.07-.213-.157-.12-.301.092-.144.226-.06.325 0 .267.169.523.356.788.527.541.346 1.09.68 1.628 1.03.538.35 1.032.703 1.559 1.038a.326.326 0 0 0 .301-.058c.223-.233.18-.545-.092-.73-.272-.183-.58-.36-.866-.547-.745-.488-1.49-.977-2.227-1.474-.066-.044-.086-.153-.127-.233a.932.932 0 0 1 .266-.05.512.512 0 0 1 .22.107c.165.115.31.266.486.352.796.384 1.46.96 2.175 1.46.143.101.352.101.429-.02.114-.176.07-.583-.112-.703-.36-.24-.748-.438-1.106-.68a11.674 11.674 0 0 1-1.03-.787c-.073-.064-.05-.238-.074-.361.1.025.224.023.302.078.343.235.67.495 1.011.731.261.18.536.341.805.503.128.077.243.064.296-.1.14-.431-.009-.78-.376-1.024a53.194 53.194 0 0 1-1.74-1.22c-.201-.147-.191-.226.032-.43.593.445 1.19.896 1.793 1.34.052.04.157.072.2.046a.281.281 0 0 0 .108-.2 2.078 2.078 0 0 0-.038-.504.586.586 0 0 0-.16-.333c-.437-.331-.89-.642-1.341-.952-.143-.101-.244-.234-.14-.375.104-.14.252-.035.366.059.323.262.645.526.971.785.181.144.309.123.381-.052a.618.618 0 0 0-.212-.737 8.948 8.948 0 0 1-.793-.63c-.08-.076-.139-.285-.092-.362.101-.161.229-.027.331.059.166.138.329.282.503.418.154.123.323.079.34-.088.029-.207.045-.415.051-.624.007-1.465.006-2.93.011-4.396 0-.91.02-1.822.017-2.734 0-.928-.028-1.856-.031-2.785 0-.753.011-1.508.02-2.257.011-1.095.033-2.189.034-3.282 0-1.725-.008-3.448-.015-5.172a1.57 1.57 0 0 0-.042-.35c-.043-.18-.14-.342-.343-.351a12.3 12.3 0 0 0-1.503-.028c-1.005.076-2.01.202-3.016.293-.14.012-.289-.082-.435-.128v-.135c.266-.082.527-.212.797-.233.85-.064 1.703-.091 2.555-.121.508-.018 1.018-.008 1.527-.023.074 0 .193-.06.21-.116.027-.088.019-.242-.037-.287a.765.765 0 0 0-.402-.165c-.656-.025-1.308-.066-1.965.06-.893.172-1.804.25-2.707.369-.134.018-.291.023-.287-.14a.553.553 0 0 1 .196-.333c.053-.051.175-.033.266-.042.29-.03.593-.016.872-.09.65-.174 1.307-.165 1.97-.184.534-.015 1.07.005 1.608.012.255 0 .325-.08.237-.321a2.149 2.149 0 0 0-.192-.32c-.186-.316-.301-.349-.66-.302-1.134.15-2.27.292-3.405.415-.44.048-.886.041-1.329.052-.216.005-.317.1-.325.32-.013.503-.064 1.005-.06 1.508.005 1.063.04 2.125.055 3.188.005.36-.025.718-.016 1.076.01.41.06.819.065 1.228.014 1.113.014 2.226.02 3.339.006 1.187.008 2.375.022 3.562.014 1.12.04 2.241.065 3.362.032 1.414.066 2.828.1 4.242.028 1.096.047 2.193.086 3.29.038 1.026.11 2.052.142 3.08.038 1.255.05 2.513.075 3.764.01.565-.05 1.106-.307 1.63-.256.524-.617.857-1.197.945-.09.015-.18.04-.266.07-1.059.365-2.145.302-3.23.207-.135-.012-.28-.066-.254-.247.026-.18.139-.228.308-.226.235.004.47-.005.704-.028a1.22 1.22 0 0 0 .301-.114v-.1l-.91-.372c-.338-.136-.738-.17-.917-.56.226-.041.44-.089.657-.117a.32.32 0 0 1 .182.07c.424.265.844.536 1.268.804.126.078.256.153.39.218.112.055.234.137.35.134.477-.025.941-.17 1.347-.424a.974.974 0 0 0 .51-.897c.011-.169.032-.337.061-.503.02-.207.03-.415.027-.623-.005-.156-.11-.222-.268-.242a1.107 1.107 0 0 1-.394-.127 62.346 62.346 0 0 1-1.456-.876 7.454 7.454 0 0 1-.677-.465.232.232 0 0 1-.027-.227.378.378 0 0 1 .258-.081c.067 0 .133.063.196.1.704.432 1.345.967 2.112 1.307.145.064.224.034.253-.12.087-.453-.007-.604-.442-.7a.34.34 0 0 1-.095-.031c-.532-.302-1.065-.59-1.591-.9-.12-.07-.253-.213-.1-.341.07-.06.253-.011.374.026.088.027.149.13.235.179.34.193.681.385 1.03.564.153.067.31.124.472.17l.125-.509a.071.071 0 0 0 0-.025.326.326 0 0 0-.301-.335 1.338 1.338 0 0 1-.475-.146c-.363-.219-.712-.462-1.06-.703-.197-.136-.274-.363-.16-.463.18-.157.302.012.43.1.34.252.674.513 1.021.757a.583.583 0 0 0 .302.083.223.223 0 0 0 .169-.114c.155-.374-.022-.704-.408-.83a3.59 3.59 0 0 1-.704-.32 1.825 1.825 0 0 1-.414-.388c-.042-.048-.014-.156-.017-.236.101 0 .227-.034.297.012.29.192.56.416.847.613.116.082.263.143.378-.013.136-.185.024-.812-.165-.945-.224-.156-.473-.284-.669-.47-.196-.184-.461-.313-.494-.71.128.038.253.09.37.155.2.147.37.334.574.478.254.18.402.107.408-.19.008-.47.1-.962-.302-1.338v-.063c.413-.079.319-.419.316-.71-.01-1.38-.025-2.761-.04-4.142l-.03-3.111c-.005-.477-.026-.954-.02-1.43.01-1.037.055-2.074.04-3.11-.013-.905-.096-1.8-.131-2.7-.011-.275.048-.552.044-.826-.013-.92-.009-1.84-.07-2.756-.1-1.527-.253-3.05-.377-4.577-.061-.752-.75-1.1-1.408-1.073-.943.038-1.886.048-2.83.067-.568.01-1.137 0-1.708.028-.302.014-.398.169-.361.454.026.21.14.275.432.257.125-.007.25-.004.374.007.525.04 1.05.105 1.575.12.72.02 1.44-.006 2.16.006.133 0 .377.086.38.138.006.201-.202.228-.35.23-.884.01-1.77.01-2.654-.005-.542-.009-1.082-.064-1.624-.074-.262-.005-.328.11-.275.376.031.103.055.209.07.316.018.618.032 1.237.037 1.856.007.777.03 1.555 0 2.331-.059 1.47-.169 2.94-.222 4.41-.043 1.169-.03 2.34-.053 3.51-.008.452-.066.905-.066 1.352 0 .824.027 1.648.04 2.47.015.996.016 1.99.04 2.985.048 1.942.107 3.883.164 5.825.04 1.38.092 2.758.129 4.137.028 1.046.045 2.091.053 3.137 0 .402-.22.587-.618.518-.428-.075-.851-.18-1.274-.278a.573.573 0 0 1-.147-.087.454.454 0 0 1 .067-.1c.273-.202.25-.35-.06-.503a3.869 3.869 0 0 1-.503-.32c-.66-.47-1.317-.938-1.973-1.408-.454-.325-.912-.644-1.356-.983-.11-.084-.172-.23-.255-.347l.07-.065c.06.018.117.042.172.07.463.29.933.57 1.383.879.666.458 1.319.938 1.975 1.407.325.234.644.474.97.704.121.088.268.154.376 0 .109-.154.062-.301-.082-.419-.025-.021-.055-.037-.082-.056-.425-.295-.848-.591-1.275-.881-.388-.262-.767-.541-1.173-.77a3.498 3.498 0 0 1-1.074-.955c-.045-.06 0-.186 0-.282a.938.938 0 0 1 .244.1c.27.22.516.473.8.672.781.552 1.58 1.081 2.368 1.624.174.12.36.062.392-.147.032-.209.062-.452-.164-.612-.121-.087-.236-.184-.354-.275-.709-.543-1.413-1.088-2.127-1.624-.128-.1-.201-.212-.1-.327.044-.052.24-.036.323.018.25.163.477.359.71.545.383.301.763.613 1.145.919.136.108.272.22.415.318a.15.15 0 0 0 .223-.016.15.15 0 0 0 .03-.077c.05-.217.054-.442-.147-.597-.344-.264-.704-.503-1.04-.777a30.982 30.982 0 0 1-1.18-1 .244.244 0 0 1-.033-.234.26.26 0 0 1 .232-.05c.08.042.148.1.201.173.116.141.24.275.371.402.411.338.835.661 1.256.987.088.061.178.118.272.17.062-.11.114-.223.156-.34.048-.176-.036-.302-.193-.393-.564-.329-1.106-.683-1.508-1.211a.616.616 0 0 1-.06-.194.524.524 0 0 1 .196-.05.46.46 0 0 1 .187.109c.372.302.736.617 1.116.91a.31.31 0 0 0 .278.009.255.255 0 0 0 .047-.245c-.108-.188-.218-.403-.387-.518-.393-.272-.804-.512-1.022-.96-.032-.066-.005-.16-.006-.24.092.027.21.028.272.088.265.251.503.528.771.775a.366.366 0 0 0 .296.045c.045-.011.071-.148.083-.23.036-.25-.073-.456-.233-.637-.11-.123-.24-.23-.335-.364-.046-.064-.032-.17-.046-.259l.078-.017a.906.906 0 0 0 .187.189.45.45 0 0 0 .274.052c.04-.008.08-.135.079-.207 0-.51-.014-1.021-.034-1.531-.036-.97-.1-1.94-.115-2.909-.016-1.34.012-2.678.01-4.017 0-1.732-.013-3.465-.022-5.197-.007-1.371-.007-2.743-.03-4.114-.01-.618-.081-1.236-.101-1.854a40.86 40.86 0 0 1-.016-1.856c.008-.642.07-1.285.05-1.926a13.561 13.561 0 0 0-.19-1.946 6.652 6.652 0 0 0-.457-1.366c-.062-.146-.255-.276-.416-.333a5.661 5.661 0 0 0-.855-.188c-.935-.176-1.87-.353-2.808-.52-.39-.07-.784-.115-1.173-.171.008.1.053.23.016.26-.216.18-.19.423-.19.65 0 .578.03 1.155.026 1.732a126.87 126.87 0 0 1-.052 3.085c-.032 1.027-.11 2.039-.13 3.06-.02 1.111.02 2.224 0 3.337-.022 1.44-.124 2.88-.106 4.318.029 2.343.143 4.684.195 7.027.04 1.79.044 3.582.056 5.374.01 1.279.01 2.559 0 3.839 0 .374-.056.417-.421.51-.066.012-.13.03-.193.053-.402.188-.894-.233-.79-.725.062-.296 0-.492-.259-.657-.072-.045-.113-.248-.074-.336.06-.135.188-.07.293.009.227.17.46.331.693.492.16.11.231.028.251-.13.03-.24-.134-.347-.306-.47a8.528 8.528 0 0 1-.793-.643c-.06-.056-.05-.19-.073-.288.095.007.189.03.277.066.259.161.507.34.759.51.179-.257.135-.349-.136-.574a5.002 5.002 0 0 1-.633-.63c-.055-.066-.012-.213-.013-.324a.87.87 0 0 1 .245.109c.15.13.275.285.424.416.119.1.21.05.221-.1a5.92 5.92 0 0 0 .032-.753c-.028-.641-.088-1.283-.112-1.925a131.283 131.283 0 0 1-.079-3.083c-.007-.644.045-1.289.029-1.932-.022-.82-.111-1.637-.124-2.457a63.092 63.092 0 0 1 .024-3.463 56.145 56.145 0 0 0-.1-6.372c-.039-.516-.028-1.036-.048-1.553-.02-.56-.06-1.118-.077-1.68-.027-.945-.04-1.89-.063-2.835-.01-.442-.042-.885-.044-1.327 0-.804.056-1.609 0-2.413-.035-.543-.247-.743-.598-.828a2.154 2.154 0 0 1-.61-.248c-.232-.14-.453-.312-.558-.644.15 0 .285-.029.402.006.961.282 1.91.592 2.878.861.845.236 1.696.457 2.553.638a18.11 18.11 0 0 0 2.303.373c1.509.119 3.02.2 4.534.245 1.967.07 3.936-.01 5.89-.237.878-.107 1.75-.263 2.622-.41a75.173 75.173 0 0 0 2.168-.402c.163-.033.381-.073.352-.301-.006-.045-.29-.093-.436-.072-.429.062-.853.156-1.278.238-.09.018-.18.044-.27.055-.547.064-1.093.13-1.64.184-.078.008-.161-.05-.242-.079l.017-.065c.577-.119 1.154-.236 1.73-.357.532-.11 1.064-.216 1.593-.34.155-.04.3-.108.43-.2a.32.32 0 0 0 .106-.252c-.005-.055-.12-.14-.189-.142a3.85 3.85 0 0 0-.645.041c-.314.048-.622.126-.934.174-.851.133-1.7.269-2.553.377-.365.033-.732.045-1.098.038a.598.598 0 0 1-.167-.06c.432-.113.822-.237 1.221-.315.615-.117 1.234-.206 1.852-.301.264-.04.533-.053.796-.1.451-.086.898-.195 1.35-.282.274-.053.41-.18.43-.462.014-.225.02-.451.02-.676 0-.201-.111-.318-.316-.302-.522.05-1.045.1-1.565.169-.37.048-.735.134-1.106.19-.52.078-1.043.138-1.563.22a1.682 1.682 0 0 0-.503.157c-.242.126-.59.133-.776-.036a.713.713 0 0 1 .149-.084c.787-.213 1.56-.47 2.382-.567 1.005-.118 1.995-.316 2.994-.475a.324.324 0 0 0 .309-.332c.005-.109 0-.217 0-.327-.005-.209-.126-.281-.316-.248-.122.02-.238.074-.361.095-1.079.185-2.158.367-3.238.546-.222.037-.45.053-.666.108-.337.086-.666.2-1.006.29-.059.017-.138-.045-.209-.071.043-.068.078-.186.133-.201a7.2 7.2 0 0 0 .967-.262c.583-.2 1.216-.265 1.828-.387.14-.028.278-.06.416-.088.58-.118 1.158-.257 1.742-.346.584-.09.75-.254.704-.849-.025-.315-.085-.364-.394-.31-.566.101-1.13.212-1.698.302-.666.112-1.336.202-2.003.316-.435.072-.866.163-1.302.234a2.32 2.32 0 0 1-.382 0l-.007-.106a.88.88 0 0 1 .245-.076c.174 0 .33-.005.447-.163.03-.038.1-.049.16-.06.855-.16 1.708-.32 2.562-.476.657-.121 1.315-.234 1.971-.357a.666.666 0 0 0 .274-.118c.186-.142.174-.35.08-.52a.402.402 0 0 0-.315-.173 7.235 7.235 0 0 0-.962.131c-1.265.243-2.57.16-3.82.483-.09.023-.201-.033-.36-.062.091-.085.115-.126.15-.136a8.33 8.33 0 0 1 .985-.26c1.307-.196 2.614-.368 3.921-.55.09-.014.22-.025.256-.083a1.16 1.16 0 0 0 .168-.462c.007-.052-.158-.18-.242-.177-.433.015-.867.052-1.298.1-.247.03-.489.12-.737.147-.963.103-1.926.198-2.89.283a1.144 1.144 0 0 1-.326-.071l.01-.1 4.424-.7c-.259-.483-.464-.562-.784-.315-.237.183-.497.187-.764.13-.187-.04-.364-.124-.549-.176-.278-.076-.55-.121-.804.101a.31.31 0 0 1-.296.008c-.238-.167-.427-.092-.554.112-.174.282-.333.216-.545.055-.178-.135-.367-.09-.502.085-.062.079-.129.154-.19.234a.347.347 0 0 1-.388.142c-.123-.023-.267.05-.398.089-.13.04-.24.117-.363.124a5.03 5.03 0 0 1-.625-.039c-.23-.016-.228-.138-.176-.247.164-.012.325-.041.483-.086.183-.075.34-.215.526-.282a6.08 6.08 0 0 1 .983-.294c1.017-.189 2.041-.354 3.062-.524.2-.036.416-.048.62-.087.604-.116 1.193-.25 1.792-.36.511-.095.513-.085.525-.593v-.1c0-.274-.059-.315-.334-.267-.336.06-.674.109-1.006.164-.107.018-.213.045-.32.064-.385.072-.768.152-1.154.21-.641.1-1.287.162-1.925.269-.227.037-.44.15-.658.235-.383.15-.765.302-1.147.459-.338.134-.675.274-1.016.402-.104.026-.212.04-.32.041a.274.274 0 0 1 .067-.171c.314-.314.766-.284 1.143-.45.289-.126.62-.154.93-.233a.201.201 0 0 0 .11-.092c.143-.263.395-.349.656-.402.44-.096.884-.177 1.327-.26 1.051-.195 2.103-.386 3.154-.584.237-.044.472-.085.642-.302.1-.128.248-.14.402-.028.21.153.626-.067.643-.328.01-.155-.07-.255-.216-.245a6.517 6.517 0 0 0-.839.108c-.391.081-.771.222-1.163.28-.917.136-1.84.238-2.758.354a.66.66 0 0 0-.1.02c-.595.166-1.207.162-1.81.167-.04 0-.08-.049-.184-.12.275-.03.472-.042.665-.074.603-.1 1.2-.2 1.799-.31l.173-.032c.772-.141 1.548-.265 2.312-.429.684-.146 1.358-.337 2.037-.503.121-.03.249-.032.367-.067.212-.063.464-.094.612-.23.117-.11.17-.373.131-.542-.045-.201-.25-.056-.388-.047a.37.37 0 0 0-.073.018c-.804.21-1.602.424-2.44.422-.15.006-.3.024-.449.052-.75.11-1.499.265-2.255.324-1.458.114-2.916.179-4.38.256-.393.02-.79-.018-1.18.024a18.92 18.92 0 0 1-3.057.062c-.434-.023-.872-.023-1.3-.089-.841-.128-1.675-.301-2.513-.443-.402-.069-.816-.084-1.207-.185-.149-.04-.352-.253-.353-.39 0-.194.24-.168.408-.154l.049.009c.892.143 1.78.313 2.676.42a65.2 65.2 0 0 0 3.223.288c.539.037 1.084.008 1.625 0 .358-.007.715-.033 1.072-.055.424-.024.85-.028 1.268-.084.562-.077 1.117-.208 1.68-.294.587-.09 1.182-.13 1.766-.234a92.936 92.936 0 0 0 2.873-.576c.323-.068.637-.18.954-.274.027-.009.048-.038.136-.107a5.851 5.851 0 0 0-.723.005c-.727.1-1.453.212-2.178.32a5.676 5.676 0 0 1-.62.082.591.591 0 0 1-.377-.091c-.16-.14-.327-.147-.513-.138-.284.014-.569.02-.852.04-.191.012-.381.046-.572.069-.372.042-.747.131-1.116.11-.325-.019-.704 0-.974-.356.117-.009.201-.02.289-.02.302 0 .58-.192.636-.403.062-.213.164-.413.302-.587.173-.244.32-.503.503-.742a.758.758 0 0 1 .348-.22c.027-.01.118.166.14.202-.148.194-.262.34-.37.487-.083.112-.045.193.083.221a.65.65 0 0 0 .25.008c.603-.118 1.206-.24 1.809-.363.344-.07.695-.12 1.029-.222.156-.048.417-.239.402-.296-.072-.24-.302-.127-.472-.106-.654.083-1.307.181-1.96.263a.735.735 0 0 1-.266-.075.79.79 0 0 1 .225-.14l3.123-.604a.95.95 0 0 0 .322-.139.99.99 0 0 0 .19-.224c-.09-.026-.187-.086-.271-.072-.484.08-.966.177-1.447.273-.056.011-.1.074-.155.077-.402.02-.8.034-1.2.047a.465.465 0 0 1-.015-.079c.1-.02.201-.043.302-.062.213-.04.43-.065.64-.118.533-.134 1.06-.302 1.598-.416.426-.092.829-.312 1.284-.266a.15.15 0 0 0 .072-.021c.219-.089.262-.26.228-.472-.035-.212-.201-.22-.362-.2-.1.01-.201.035-.297.052-.596.107-1.193.217-1.79.318a3.351 3.351 0 0 1-.45.04 1.393 1.393 0 0 1-.231-.027v-.08c.306-.02.605-.097.882-.229.419-.194.897-.24 1.353-.34.497-.109.997-.201 1.494-.317a.581.581 0 0 0 .328-.168.56.56 0 0 0 .1-.402c-.014-.073-.2-.157-.31-.154-.257.01-.512.07-.77.1-.477.062-.956.121-1.435.172a.763.763 0 0 1-.233-.053l.006-.073c.095-.022.187-.05.282-.064.201-.033.402-.046.595-.09a117.87 117.87 0 0 0 1.848-.443 17.1 17.1 0 0 0 .917-.247c.072-.022.124-.106.185-.163a2.443 2.443 0 0 0-.23-.11.275.275 0 0 0-.123.008c-.65.102-1.299.206-1.948.31-.075.012-.145.04-.22.054-.22.041-.443.12-.662.11-.532-.025-.849.28-1.131.66-.04.053-.064.14-.114.159-.411.156-.817.37-1.245.433-1.113.164-2.141-.274-3.186-.56-.221-.06-.423-.195-.631-.302-.443-.219-.731-.603-1.028-.975-.115-.145-.26-.176-.392-.071-.333.262-.643.55-.973.817-.41.332-.846.604-1.415.503a.631.631 0 0 0-.347.011.492.492 0 0 0-.263.251c-.11.383-.193.774-.269 1.165-.088.464-.363.818-.668 1.15a7.789 7.789 0 0 1-1.693 1.35c-.652.402-1.337.49-2.06.457a6.476 6.476 0 0 1-1.85-.311c-.2-.07-.46-.191-.621-.123-.162.069-.24.355-.38.525-.255.314-.537.604-.795.92a.912.912 0 0 0-.193.36c-.049.211-.029.44-.083.65-.077.302-.055.37.244.448.464.112.9.317 1.281.603.36.278.704.584 1.207.62.264.02.52.164.777.255.033.012.057.05.13.116-.099.026-.2.043-.302.052-.159 0-.316-.031-.475-.035-.16-.004-.35.06-.262.252.228.503.137 1.163.787 1.455.248.113.368.159.55-.053.32-.371.835-.402 1.129-.03.166.209.259.177.397-.007.137-.184.301-.295.534-.15.195.121.393.237.596.347a.343.343 0 0 0 .219.062c.23-.072.451-.168.675-.257.15-.06.301-.142.47-.006a.769.769 0 0 0-.07.084c-.041.073-.08.148-.12.222a.993.993 0 0 0 .24.114.49.49 0 0 0 .246-.025c.288-.1.57-.227.858-.335.593-.221 1.185-.444 1.781-.655.264-.093.538-.157.805-.242a.86.86 0 0 0 .161-.11.43.43 0 0 1 .487-.02c-.137.076-.302.089-.415.167-.526.35-1.142.466-1.716.693-.206.082-.234.145-.089.317.177.209.41.178.63.166Zm8.801-15.662c.114.057.222.127.322.207.475.466 1.025.687 1.697.574.364-.07.7-.245.966-.503.22-.2.421-.417.604-.651.21-.27.238-.598.23-.931.014-.096.04-.189.08-.277.093.024.185.054.275.09.09.04.165.131.256.15.86.174 1.66.018 2.26-.638a3.097 3.097 0 0 0 .818-2.283c-.021-.468-.183-.905-.593-1.188a9.302 9.302 0 0 0-.776-.493.898.898 0 0 0-.445-.145 4.35 4.35 0 0 0-1.778.466c-.1.036-.204.058-.31.065-.003-.11.004-.22.02-.33.04-.16.126-.31.15-.473a3.178 3.178 0 0 0-.732-2.588c-.376-.454-.824-.804-1.442-.79-.424.01-.845.054-1.262.128-.201.034-.288-.031-.326-.201a1.773 1.773 0 0 1-.01-.276c-.037-.567-.035-1.14-.125-1.698a1.484 1.484 0 0 0-.774-1.094c-.786-.396-1.58-.815-2.506-.78-.424.016-.855-.03-1.238.224-.383.253-.79.495-1.176.756-.225.153-.386.14-.463-.06a32.68 32.68 0 0 0-.444-1.106 1.864 1.864 0 0 0-.191-.35c-.242-.344-.604-.469-.996-.565a2.09 2.09 0 0 0-1.206.028c-.57.193-1.014.568-1.468.94-.356.304-.65.675-.866 1.091a2.36 2.36 0 0 1-.183.243 1.482 1.482 0 0 1-.255-.224c-.106-.147-.16-.337-.283-.465-.565-.595-1.3-.914-2.037-1.234-.557-.241-1.148-.31-1.738-.344-.71-.041-1.43-.054-2.067.349-.293.174-.57.373-.829.595a6.603 6.603 0 0 0-.862.936 5.283 5.283 0 0 0-.656 1.131c-.118.293-.1.64-.141.964-.025.2-.1.427-.055.615.107.412.133.847.39 1.224.281.412.504.865.758 1.293.154.253.332.491.503.736l-.028.08c-.202-.015-.403-.016-.597-.051a1.915 1.915 0 0 0-1.264.217c-.843.46-1.307 1.196-1.248 2.186.035.574.11 1.149.44 1.652.109.165.022.301-.192.315-.367.021-.736.03-1.106.055-.855.057-1.69.189-2.32.845-.285.302-.612.604-.762.976a8.353 8.353 0 0 0-.457 1.764c-.148.873.123 1.667.593 2.4.089.137.167.28.254.427-.57.213-1.1.414-1.631.604-.643.24-1.103.682-1.252 1.338-.26 1.113.058 2.098.88 2.878.403.386.905.68 1.361 1.006.201.14.408.26.603.402.122.088.124.191.026.322-.445.603-.905 1.19-1.234 1.875-.493 1.016-.457 2.01-.086 3.04a.795.795 0 0 0 .135.21 5.56 5.56 0 0 0 2.023 1.557c.494.233.633.195.553.879-.1.847-.094 1.688.154 2.513.22.738.495 1.44 1.196 1.875.45.28.954.516 1.46.458 1.069-.123 1.871-.747 2.228-1.752.322-.904.32-1.86-.17-2.75-.182-.33-.166-.363.171-.555a.62.62 0 0 0 .14-.106c.364-.377.745-.74 1.084-1.14.39-.46.432-1.03.256-1.569a2.872 2.872 0 0 0-.905-1.332c-.603-.492-1.212-1.005-2.048-1.08-.216-.02-.267-.229-.112-.388.095-.08.184-.168.266-.262.302-.424.456-.957.053-1.341a1.986 1.986 0 0 1-.22-.332c.184.013.3.015.411.03.534.07 1.122-.248 1.4-.704.248-.41.295-.843.264-1.307a1.12 1.12 0 0 1 .062-.302c.08.034.159.075.232.123.616.488 1.289.777 2.092.603a5.214 5.214 0 0 0 2.25-1.106 8.089 8.089 0 0 0 1.67-1.876c.247-.391.549-.762.61-1.25a1.51 1.51 0 0 1 .135-.38c.059-.138.141-.18.295-.092.73.412 1.473.473 2.212.019.521-.323.927-.737 1.01-1.387.024-.096.058-.189.102-.277.31.433.574.838.876 1.212.324.403.665.805 1.164 1.006a5.686 5.686 0 0 0 2.928.357 2.545 2.545 0 0 0 1.005-.342c1.006-.646 1.518-1.638 1.78-2.772.138-.592.31-1.187.12-1.804 0-.015.016-.032.042-.085Zm5.416 38.57h-.106v3.62c0 .332.084.414.42.402.235 0 .47-.02.703-.06.38-.084.794-.137 1.12-.328.63-.37 1.206-.826 1.81-1.25.19-.133.38-.266.56-.414.154-.126.28-.286.436-.41.716-.577 1.185-1.331 1.558-2.151.235-.517.454-1.041.663-1.568.212-.5.399-1.01.56-1.527.257-.9.476-1.81.696-2.72.1-.397.176-.8.227-1.206.083-.698.13-1.4.201-2.099.038-.402.108-.796.13-1.196.054-1.012.092-2.024.13-3.037.013-.35-.007-.704.009-1.05.036-.793.112-1.586.122-2.38a46.532 46.532 0 0 0-.055-2.885c-.028-.592-.127-1.18-.208-1.769a.897.897 0 0 0-.149-.394 5.766 5.766 0 0 0-.64-.763c-.475-.45-.979-.877-1.678-.905a9.397 9.397 0 0 0-1.129.028 1.128 1.128 0 0 0-.521.142 7.28 7.28 0 0 0-.97.742c-.583.55-1.317.97-1.648 1.749-.167.36-.285.742-.35 1.134-.085.636-.062 1.287-.137 1.926-.1.87-.23 1.739-.392 2.6-.1.51-.277 1.005-.43 1.507-.176.566-.439 1.114-.527 1.692a25.747 25.747 0 0 0-.283 3.045c-.068 2.15-.085 4.301-.113 6.452-.019 1.014-.009 2.048-.009 3.073Zm10.055 2.1.088.022c.191-.245.378-.493.577-.733.047-.056.152-.128.194-.108a.28.28 0 0 1 .15.2.503.503 0 0 1-.093.287c-.16.233-.334.455-.503.678-.169.223-.322.431-.503.626-.18.195-.375.328-.555.503-.331.316-.667.628-.973.968-.073.083-.038.264-.052.403.118-.02.278 0 .349-.067.422-.414.823-.85 1.233-1.277.248-.258.532-.49.74-.777.526-.728 1.08-1.444 1.379-2.313.217-.63.43-1.262.636-1.896.044-.153.077-.309.1-.466.194-1.027.39-2.053.592-3.079.064-.336.116-.675.181-1.01.084-.428.194-.85.257-1.28.138-.923.25-1.85.379-2.776.04-.302.12-.593.141-.891.076-1.05.143-2.1.201-3.15.059-1.145.1-2.289.148-3.433.046-1.11.091-2.221.135-3.331.019-.469.053-.937.051-1.408 0-.703-.009-1.407-.057-2.105-.068-.958-.174-1.91-.27-2.87a1.876 1.876 0 0 0-.101-.538c-.18-.457-.388-.902-.625-1.333-.2-.324-.44-.636-.88-.687-1.456-.168-2.885.059-4.315.288-1.15.185-2.285.46-3.477.228-.703-.135-1.397-.233-2.045-.553-.262-.13-.435-.047-.475.23-.127.876-.24 1.754-.36 2.63-.031.232-.072.462-.1.694-.013.087-.017.176-.024.256.214-.172.416-.336.622-.498.085-.066.2-.11.256-.195.108-.178.213-.186.308-.1 0 .301-.03.565.007.815.046.325-.026.669.16.98.038.064-.06.21-.096.317-.1-.066-.238-.11-.302-.2-.063-.091-.06-.24-.082-.364-.034-.201-.064-.402-.1-.635-.227.274-.302.75-.226.98.041.13 0 .287 0 .432a1.925 1.925 0 0 1-.343-.311c-.066-.1-.064-.24-.087-.363-.023-.124-.04-.252-.06-.377-.181.881-.402 1.752-.247 2.677.138-.087.26-.194.365-.319.213-.242.386-.538.642-.723.749-.543 1.631-.812 2.52-.998.511-.107 1.063-.071 1.59-.03.395.03.78.176 1.171.26.375.075.706.291.925.604.532.767.876 1.597.857 2.569-.015.853.018 1.707.1 2.556.087.908.097 1.822.03 2.732a200.737 200.737 0 0 0-.226 3.204c-.058.96.01 1.92-.15 2.88-.188 1.12-.256 2.26-.409 3.387-.1.736-.251 1.466-.394 2.197-.129.663-.254 1.328-.424 1.98a22.755 22.755 0 0 1-.562 1.764 8.72 8.72 0 0 1-.453 1.055c-.165.328-.368.636-.558.95-.336.556-.636 1.149-1.148 1.567-.549.446-1.127.859-1.71 1.266-.931.654-1.969 1.082-3.058 1.4a16.7 16.7 0 0 0-1.307.438c-.088.033-.206.21-.182.274.073.188.184.36.326.503.031.032.233-.072.336-.145.258-.182.493-.411.827-.437a.39.39 0 0 1 .29.105c.036.04-.028.181-.064.27a1.71 1.71 0 0 1-.135.23l.058.05c.51-.321 1.015-.652 1.534-.958a.819.819 0 0 1 .495-.128c.18.03.346.165.513.264.184.11.29.022.291-.149 0-.301.173-.337.412-.325.344.018.438-.06.564-.369a.366.366 0 0 1 .225-.2.253.253 0 0 1 .28.111c.02.031.032.066.037.101.017.057.04.111.07.162l.064-.014a2.066 2.066 0 0 1-.02-.402.912.912 0 0 1 .134-.277c.078.03.15.073.214.127.075.1.137.209.185.324.1.213.307.238.444.044.1-.147.069-.268-.057-.402-.108-.113-.216-.285-.043-.411.146-.1.323-.068.432.1.125.193.228.144.311.017-.066-.17-.159-.302-.16-.444 0-.1.12-.201.187-.294.071.046.138.098.201.155.07.07.121.16.188.233.144.152.292.092.423-.017.13-.11.082-.238-.014-.351a.602.602 0 0 1-.11-.135c-.026-.072-.064-.187-.031-.221a.35.35 0 0 1 .238-.07c.07 0 .135.06.201.086.1.033.201.06.302.088 0-.107.015-.216.009-.323 0-.056-.047-.11-.055-.165-.027-.186-.032-.367.195-.494.045.097.102.188.17.271.092.085.23.207.316.186a.521.521 0 0 0 .283-.284c.047-.1.007-.245.012-.37 0-.125.01-.25.032-.372a.17.17 0 0 1 .12-.108c.037 0 .092.057.12.1.038.076.073.154.102.234h-.004Zm-5.21-37.059c.432.131.85-.1 1.27-.307.205-.093.403-.2.59-.324.516-.358.658-.911.71-1.488.03-.354-.028-.725-.272-.994-.38-.415-.898-.623-1.423-.804-.14-.048-.276-.107-.414-.16.124-.101.233-.236.374-.302a3.935 3.935 0 0 0 1.426-1.117c.414-.535.625-1.15.54-1.843-.074-.593-.428-1.05-.753-1.509a4.476 4.476 0 0 0-2.02-1.584 3.318 3.318 0 0 0-2.494-.024.835.835 0 0 1-.242.051c-.173.011-.245-.072-.213-.247.034-.164.06-.33.076-.496.042-.578-.136-1.106-.412-1.599-.302-.543-.643-1.056-1.238-1.335-.234-.11-.445-.276-.686-.359-.242-.082-.508-.16-.723-.1-.468.15-.922.337-1.36.56-.223.108-.192.274-.02.446.371.37.758.735 1.065 1.157.39.511.58 1.147.536 1.789-.024.302.132.385.433.346.245-.042.496-.045.742-.01.921.177 1.69.612 2.212 1.408.255.389.519.795.407 1.28a6.354 6.354 0 0 1-.461 1.432c-.327.647-.723 1.265-1.444 1.569-.54.228-1.07.492-1.686.342a.326.326 0 0 0-.402.214 2.514 2.514 0 0 1-1.214 1.307c-.238.126-.322.347-.169.559.184.246.394.47.627.67.29.256.619.258.952.059a.832.832 0 0 1 .235-.085c.308-.072.444.038.378.345-.174.826-.073 1.632.157 2.425.074.266.201.513.374.728.211.235.453.441.719.611a2.281 2.281 0 0 0 2.123.288c.124-.042.224-.152.347-.195.66-.232.848-.752.805-1.32a8.414 8.414 0 0 0-.182-1.053c-.055-.255-.015-.326.242-.334.137 0 .279.003.488.003ZM6.438 12.672c.133.008.268.008.402 0 .217-.028.274-.153.2-.355a1.827 1.827 0 0 1-.112-.382 4.1 4.1 0 0 1 .19-1.877 2.637 2.637 0 0 1 1.105-1.465c.214-.138.49-.186.744-.253.31-.081.384-.24.236-.518a3.731 3.731 0 0 1-.301-.683c-.106-.357-.167-.727-.25-1.091-.01-.04-.035-.075-.048-.115-.047-.146-.127-.293-.131-.442-.023-.71-.073-.758-.767-.56-.343.101-.703.176-1.014.348-.575.32-1.02.804-1.389 1.347-.42.622-.527 1.307-.407 2.032.043.257-.02.357-.284.385-.109 0-.217.005-.325.017-.302.07-.633.1-.905.24-.56.28-.943.756-1.268 1.285-.704 1.148-.804 2.363-.066 3.532.34.534.56.522.919 0 .313-.45.69-.855 1.228-1.03.717-.237 1.458-.45 2.243-.415Zm7.7 20.896c.242.118.236.296.232.454-.02.819-.053 1.637-.078 2.456-.008.275-.02.552-.006.827.012.244.192.374.453.363.238-.01.31-.1.31-.384v-1.106c0-1.297-.036-2.595.01-3.89.016-.458-.053-.795-.41-1.09-.213-.176-.46-.267-.693-.13a1.407 1.407 0 0 0-.27.266c-.247.258-.318.255-.604.05a.473.473 0 0 0-.342-.072c-.058.013-.093.17-.118.27-.076.295-.073.637-.228.88-.296.468-.674.883-1.026 1.314-.11.135-.272.244-.194.45.079.207.164.403.26.599.354.726.323 1.475.022 2.184-.256.603-.58 1.185-1.198 1.525a.325.325 0 0 0-.112.257c0 .042.138.09.22.115.206.065.415.125.625.176.185.045.372.086.561.114.19.027.284-.058.302-.248a.636.636 0 0 1 .08-.284.337.337 0 0 1 .226-.116c.03 0 .091.114.107.183.025.1-.015.242.04.318a.638.638 0 0 0 .33.24c.048.013.201-.166.211-.264.018-.268.052-.552-.2-.767-.114-.1-.092-.2.04-.31a.514.514 0 0 0 .152-.287c.036-.17.01-.357.063-.52.046-.137.166-.251.255-.376l.078.04c.023.136.04.275.072.41.063.277.281.237.482.226.201-.011.266-.126.266-.318 0-.877 0-1.756.015-2.634.007-.3.043-.594.067-.92Zm22.097-6.86h-.014c0-.166.007-.334 0-.502-.013-.278-.123-.357-.392-.274-.16.048-.31.134-.47.169-.231.048-.33.159-.303.402 0 .108-.01.217-.03.323-.036.492-.093.983-.1 1.476-.012.977.026 1.955.005 2.931-.021.977-.086 1.938-.137 2.906-.042.804-.083 1.609-.142 2.405-.046.642-.123 1.282-.176 1.924-.013.175-.004.35.028.523.009.048.165.124.184.107.23-.201.49-.387.542-.723.059-.372.138-.742.176-1.116.077-.748.13-1.5.202-2.25.04-.456.1-.912.135-1.37.092-1.283.17-2.568.26-3.85.073-1.031.154-2.056.232-3.08Zm-4.748 17.47c-.15-.206-.28-.372-.392-.55a.246.246 0 0 1-.022-.217.217.217 0 0 1 .21-.045c.18.108.339.075.434-.085.096-.161.007-.309-.146-.425a2.282 2.282 0 0 1-.416-.396c-.048-.06-.019-.18-.025-.274a.727.727 0 0 1 .264.043c.134.082.239.213.376.29.074.04.189.012.285.015-.012-.109.015-.248-.042-.32-.14-.176-.3-.335-.478-.474-.238-.188-.496-.08-.74 0-.182.062-.243.213-.242.402.007 1.263-.013 2.527.024 3.789.037 1.245.134 2.488.201 3.731.021.384.033.768.06 1.153 0 .058.073.112.112.17a.817.817 0 0 0 .1-.175c.041-.142.043-.301.101-.43.078-.128.168-.248.269-.358.164-.222.15-.335-.048-.513a1.425 1.425 0 0 1-.232-.229.232.232 0 0 1-.022-.2.216.216 0 0 1 .181-.086c.095.026.185.065.269.115.05.023.1.072.15.069.163-.01.413-.363.387-.533a.391.391 0 0 0-.452-.302 1.622 1.622 0 0 0-.212.05c0-.301-.051-.394-.302-.588a1.501 1.501 0 0 1-.249-.244c-.1-.129-.048-.245.095-.25.126-.005.255.074.385.111.13.037.301.133.375.085.436-.285.374-.76-.08-1.006a3.177 3.177 0 0 1-.67-.539.308.308 0 0 1-.034-.301.213.213 0 0 1 .348 0c.136.17.236.084.351-.02.115-.103.124-.229.008-.344a2.74 2.74 0 0 0-.22-.201c-.174-.142-.363-.268-.52-.425-.052-.051-.028-.177-.039-.27.108-.004.216.001.324.016.043.009.064.1.11.13.165.134.346.247.538.338.089.034.258-.052.34-.134a.302.302 0 0 0-.021-.29c-.213-.15-.391-.45-.693-.283Zm1.485-4.733c-.246-.065-.2-.227-.221-.361-.028-.187-.238-.402-.337-.33-.12.087-.29.275-.26.36.056.165.015.274-.028.418-.037.125-.049.316.022.395.07.078.253.054.386.047.116-.017.23-.045.34-.084.515-.13.663-.313.668-.834.005-.521-.005-1.019.011-1.526.026-.787.06-1.572.1-2.356.046-.818.108-1.634.15-2.45 0-.091-.073-.185-.112-.278-.068.065-.175.12-.2.201-.089.277-.152.56-.19.849-.044.402-.037.817-.067 1.225-.072.976-.16 1.95-.223 2.925a.45.45 0 0 0 .16.329c.15.117.143.258.047.34-.273.233-.216.519-.202.805a1.47 1.47 0 0 1-.044.324Zm-.595 16.57c-.114.2-.223.385-.335.574-.137.231-.27.464-.416.69-.237.37-.48.713-.445 1.207.045.621-.01 1.25-.025 1.875-.006.26-.025.518-.026.777a.99.99 0 0 0 .062.237l.068.006c.095-.153.201-.302.281-.459.15-.295.285-.603.424-.899.146-.289.276-.586.39-.89.032-.1-.073-.247-.116-.372a.946.946 0 0 0-.26.134 1.81 1.81 0 0 0-.19.29c-.033.05-.072.095-.124.163-.13-.201-.076-.364 0-.526.13-.269.258-.54.385-.805.117-.25.282-.502 0-.752-.03-.027-.033-.092-.041-.141-.03-.18.048-.255.227-.22.29.055.479-.038.577-.302.058-.159.062-.315-.121-.41-.093-.05-.178-.102-.315-.178Zm2.094-26.863h-.1c-.01.086-.027.17-.03.255-.034 1.02-.05 2.04-.1 3.058-.027.49-.14.975-.173 1.465-.044.684-.039 1.37-.074 2.055-.03.558-.09 1.113-.13 1.67-.036.503-.073 1-.09 1.5 0 .094.094.19.144.285.067-.09.185-.178.192-.275.128-1.598.272-3.198.35-4.8.072-1.442.075-2.89.095-4.334a7.884 7.884 0 0 0-.084-.88v.001Zm-19.458 9.924c0-.164.045-.378-.187-.402a1.059 1.059 0 0 0-.563.09c-.178.094-.252.056-.342-.086a.533.533 0 0 0-.191-.21.403.403 0 0 0-.561.252c-.09.345.038.637.326.669.387.043.776.065 1.165.067.295.005.358-.086.353-.38Zm-2.164 1.093.01-.035c.233.055.464.123.704.16.37.063.742.107 1.116.132.108 0 .302-.092.315-.172.023-.1-.08-.241-.155-.347a.301.301 0 0 0-.201-.09c-.37-.037-.742-.07-1.114-.09a.27.27 0 0 0-.19.094c-.152.18-.284.126-.418-.015-.029-.03-.055-.085-.086-.088a1.6 1.6 0 0 0-.448-.006c-.043.008-.108.201-.076.244a.906.906 0 0 0 .323.208.588.588 0 0 0 .22.005Zm10.992-14.404c.217.183.435.116.651.052.107-.046.217-.085.33-.117.697-.111 1.397-.212 2.094-.32a3.085 3.085 0 0 0 1.076-.37.402.402 0 0 0-.241-.126 5.192 5.192 0 0 0-.694.09c-.577.116-1.148.26-1.727.363a7.236 7.236 0 0 1-.9.055.704.704 0 0 0-.59.373Zm7.34 31.719c.067-.044.1-.053.106-.072.233-.454.474-.905.686-1.37.035-.079-.042-.226-.1-.323a.416.416 0 0 0-.215-.167c-.15-.048-.324-.114-.461-.076-.079.02-.147.232-.148.359 0 .467.023.935.046 1.402.018.086.047.168.085.247Zm1.015-38.354-.027-.136c-.27-.077-.545-.025-.813.024-.677.122-1.35.267-2.027.387a.474.474 0 0 0-.402.326c-.049.138.013.201.15.161.11-.03.214-.1.327-.117.622-.113 1.249-.2 1.867-.331.32-.068.621-.208.93-.314h-.005Zm-1.284 33.993.1.021c.182-.392.36-.785.545-1.176.074-.157.168-.302.24-.463.084-.178-.042-.288-.16-.377a.402.402 0 0 0-.28-.1c-.202.046-.493.497-.492.703 0 .358 0 .717.012 1.075.007.107.02.212.04.317h-.005Zm-1.508 26.172c.302-.067.413-.211.425-.452.022-.446.012-.892.173-1.33.084-.226.14-.514-.084-.821-.095.16-.21.273-.229.402-.066.435-.093.877-.146 1.314-.032.282-.086.564-.137.886h-.002Zm4.695-52.372c.014-.248-.105-.327-.345-.238a5.292 5.292 0 0 1-.663.213.55.55 0 0 0-.412.358c-.032.075-.043.231-.013.245a.495.495 0 0 0 .32.047.689.689 0 0 0 .277-.2.28.28 0 0 1 .357-.076c.32.147.427.078.481-.349H34.1Zm-1.962 27.409c-.302 0-.604.484-.482.666.123.182.29.33.487.428.054.027.268-.2.352-.347.063-.111.1-.314.037-.403-.106-.16-.295-.264-.392-.345h-.002ZM15.233 39.175c.064.107.112.289.194.307.256.041.514.06.773.056.015 0 .037-.052.05-.082.134-.316.02-.541-.31-.617a1.042 1.042 0 0 1-.118-.043c-.405-.166-.534-.083-.589.38Zm15.104-1.038v.26c.007.16-.036.358.201.39.188.028.325-.123.35-.372.022-.216.03-.432.044-.648.008-.145-.02-.309-.182-.302a.467.467 0 0 0-.337.214c-.073.153-.06.343-.076.459v-.001Zm.02-2.916c0 .014 0 .081.006.148.025.301.201.409.47.27.08-.042.192-.11.202-.177a5.31 5.31 0 0 0 .02-.757c0-.035-.096-.1-.146-.1-.4.02-.559.187-.553.619v-.003Zm1.487 2.58h.006c.01-.116.009-.233-.006-.348a1.262 1.262 0 0 0-.143-.282c-.112.07-.307.127-.321.214a6.398 6.398 0 0 0-.064 1.011c0 .056.128.17.167.157.182-.056.37-.129.361-.378-.004-.122 0-.246 0-.371v-.003Zm2.102-7.021c-.024-.086.086-.319-.19-.318-.247 0-.243.201-.25.382-.01.201-.044.402-.047.604-.004.157.013.314.05.467.016.06.136.15.176.137a.28.28 0 0 0 .158-.188c.045-.34.067-.682.103-1.081v-.003Zm-3.9-13.308c.054.188.112.25.286.182.182-.07.37-.125.562-.162.215-.042.309-.201.215-.402-.093-.201-.63-.322-.768-.148a3.374 3.374 0 0 0-.295.53Zm.934 36.886h.006a4.56 4.56 0 0 0 .008.523c.008.077.085.145.13.217a.807.807 0 0 0 .156-.165c.086-.17.153-.347.235-.518.144-.295.063-.549-.234-.709-.17-.091-.293-.021-.301.177v.475Zm-.488-24.191c-.03.375.068.46.395.386.327-.075.431-.256.349-.689-.037-.201-.173-.285-.363-.215-.255.095-.44.246-.381.519v-.001Zm1.876 22.51a.718.718 0 0 0 .147-.14c.058-.089.087-.201.139-.292.094-.175 0-.425-.207-.529-.206-.103-.301-.066-.417.177-.027.06-.063.117-.094.175-.146.267.066.617.432.61v-.001Zm-1.307-33.971.017.054c.226-.075.457-.139.677-.23.058-.023.085-.126.126-.193-.075-.043-.15-.116-.228-.12a.627.627 0 0 0-.25.102c-.102.064-.21.118-.323.16-.418.1-.84.186-1.26.284a.648.648 0 0 0-.168.11c.066.03.132.089.195.086.344-.017.704.045 1.006-.218.041-.041.138-.024.212-.034l-.004-.001Zm-.49 14.336c.134-.02.2-.026.266-.04.262-.056.472-.365.402-.596-.047-.168-.286-.227-.57-.137-.063.02-.16.04-.175.083a1.803 1.803 0 0 0-.128.527c.001.063.157.124.204.163Zm-10.976 6.505c.007-.288-.135-.389-.57-.429a.317.317 0 0 0-.376.277.338.338 0 0 0 .281.402c.1.02.201.031.296.047a.303.303 0 0 0 .369-.297Zm13.145-2.735c-.269.068-.46.107-.48.353a7.29 7.29 0 0 0-.05.796.391.391 0 0 0 .181.251c.028.02.201-.085.212-.149.06-.402.092-.809.137-1.251Zm-2.112-2.582c.375-.005.56-.18.535-.52-.008-.11-.124-.29-.213-.3a.532.532 0 0 0-.596.54c-.007.222.113.29.27.28h.005Zm-14.763 6.296v-.01h.1c.164.01.345-.022.334-.201a.502.502 0 0 0-.247-.35c-.147-.069-.34-.056-.512-.058a.242.242 0 0 0-.269.263c-.007.166.057.277.223.31.118.02.243.03.367.046h.004Zm14.491-3.945c0 .295.075.392.302.392.25 0 .402-.223.388-.594 0-.133.047-.332-.201-.324a.541.541 0 0 0-.489.526Zm1.485 7.018a.905.905 0 0 0 .512.511c.194.085.484-.148.402-.333a1.062 1.062 0 0 0-.436-.409c-.083-.047-.244.017-.358.062-.057.018-.083.11-.12.17Zm.712 6.265c.123.014.354-.265.376-.454.018-.159-.175-.376-.35-.394-.14-.014-.423.234-.451.394-.029.16.219.43.425.452v.002ZM17.29 39.357c0-.355-.074-.446-.377-.446-.263 0-.342.078-.343.339 0 .32.1.436.403.44.239.003.315-.077.317-.333Zm15.315-9.616-.052.029c.053.087.09.228.163.249a.271.271 0 0 0 .362-.18c.06-.188.097-.383.111-.581.008-.182-.156-.21-.288-.178a.386.386 0 0 0-.324.414c.003.082.02.165.028.247Zm-.582 18.07c.05.092.114.177.188.252.055.046.22.063.244.028.134-.189.248-.39.338-.604.021-.05-.068-.181-.139-.228-.187-.122-.626.216-.63.552Zm1.95-20.13h-.095c-.13.221-.276.427-.173.726.046.128-.007.288-.006.432a.52.52 0 0 0 .041.24c.023.039.15.071.17.049a.397.397 0 0 0 .116-.228c.017-.273.02-.548.012-.822a2.736 2.736 0 0 0-.065-.397Zm-.918 17.503a.416.416 0 0 0-.363-.384c-.173-.007-.416.209-.356.37a.898.898 0 0 0 .358.425c.11.067.36-.238.36-.411Zm-.717 5.216c0-.174-.218-.435-.361-.374a.833.833 0 0 0-.372.385c-.064.133.212.402.375.402.186.002.358-.197.358-.413Zm-.063-20.62-.317-.362c-.11.111-.279.207-.313.337-.041.156.018.346.07.511a.32.32 0 0 0 .264.013c.113-.157.212-.324.296-.5ZM16.868 40.66c.208 0 .486-.217.477-.375-.006-.133-.224-.301-.386-.301-.181 0-.427.2-.429.355a.31.31 0 0 0 .338.322Zm1.425-1.231c0-.222-.201-.479-.364-.402a.77.77 0 0 0-.342.402c-.06.154.172.316.41.322.213-.005.29-.13.296-.322Zm7.54 41.65c.158-.025.259-.033.356-.057a.329.329 0 0 0 .216-.433c-.068-.222-.21-.195-.373-.122-.076.034-.19.036-.226.093a.806.806 0 0 0-.131.367c0 .053.123.116.163.151h-.004Zm6.71-35.13c-.1-.08-.231-.25-.394-.29-.087-.022-.284.162-.33.29-.06.166.217.402.422.402s.302-.114.307-.402h-.004Zm-.502-11.16c.01-.295-.091-.398-.31-.314-.2.076-.301.635-.125.766.055.03.12.038.18.022.267-.057.26-.27.262-.472l-.007-.002Zm.077 18.527c-.045-.166-.302-.524-.41-.503a.38.38 0 0 0-.245.228c-.024.112.04.25.087.367.049.117.108.262.267.175.113-.075.217-.164.308-.265l-.007-.002Zm-.133-17.156c-.07-.093-.148-.201-.226-.301-.094.075-.223.133-.274.232a.806.806 0 0 0-.067.402c0 .062.1.154.175.168a.268.268 0 0 0 .228-.087c.069-.132.123-.27.164-.414Zm.818-.268-.042-.015a.65.65 0 0 0 0-.125c-.018-.078-.044-.153-.066-.23-.08.036-.21.053-.23.108a3.63 3.63 0 0 0-.145.637.21.21 0 0 0 .1.177.244.244 0 0 0 .214-.075c.068-.155.124-.314.17-.477ZM29.98 25.258c-.226-.113-1.193.073-1.38.255.18.21 1.103.049 1.38-.255Zm1.983-4.802c-.218-.005-.427-.009-.395.265.013.11.09.278.17.301.194.056.491-.179.503-.347.013-.234-.156-.208-.278-.219Zm-.324 11.94-.047.036c.07.092.12.233.21.267.187.07.262-.083.303-.239a.984.984 0 0 0 .033-.17c.015-.149.01-.335-.167-.328-.11 0-.222.161-.318.264-.027.033-.01.113-.014.17Zm1.4-.604a.597.597 0 0 0-.094-.212c-.023-.027-.158.01-.22.05-.165.106-.232.537-.108.685a.193.193 0 0 0 .165.04c.25-.07.252-.279.257-.564v.001Zm-.994 9.854c0 .165.206.39.34.319.154-.083.245-.284.365-.434-.086-.054-.17-.15-.26-.155-.315-.019-.449.076-.445.268v.002Zm-16.228-3.187c.067.01.135.01.201 0 .085-.036.167-.077.246-.124-.07-.069-.127-.167-.21-.201a1.326 1.326 0 0 0-.46-.1c-.076 0-.208.09-.215.151a.291.291 0 0 0 .149.225c.093.033.19.05.29.048v.002Zm17.41-10.287c-.04-.033-.107-.132-.19-.15-.212-.047-.353.087-.418.267-.032.09.016.21.03.316 0 0 .013.01.02.013.206.094.564-.15.558-.448v.002Zm-2.703-6c.04.035.112.154.201.174.165.035.42-.2.414-.36 0-.176-.083-.284-.276-.277-.193.007-.347.174-.339.461v.002Zm2.313 12.367.049-.034c-.07-.1-.142-.297-.212-.297-.181 0-.29.131-.252.342a.45.45 0 0 1-.023.195c-.043.154.04.214.17.245.15.035.216-.047.238-.18.014-.087.02-.178.029-.269v-.002Zm-6.134-8.84v.07c.024.02.05.054.075.054.389-.007.779 0 1.166-.037.178-.016.128-.15.074-.227l-1.315.14Zm4.846 7.97c.046.091.09.183.134.273.096-.056.221-.092.279-.175a.704.704 0 0 0 .116-.372c0-.159-.09-.24-.27-.166-.2.084-.234.242-.26.443l.002-.002Zm2.816 32.415c-.1-.08-.181-.193-.285-.219-.154-.038-.21.087-.218.23-.012.056-.02.113-.024.171.014.091.033.182.057.27.1-.037.224-.05.302-.118.077-.067.1-.182.168-.332v-.002Zm-1.837-32.84c-.004.08 0 .16.014.239.027.064.06.125.1.182.06-.037.148-.06.172-.112.076-.134.12-.283.131-.436 0-.088-.142-.172-.22-.258a1.5 1.5 0 0 0-.181.23.335.335 0 0 0-.016.155ZM16.96 38.112c-.116.075-.27.126-.336.233-.067.107.25.302.427.302s.23-.116.23-.265c0-.187-.134-.222-.322-.27Zm9.34 41.356c-.14.055-.28.069-.346.147-.066.077-.053.215-.074.326.091.026.186.04.281.04a.453.453 0 0 0 .222-.11c.06-.051.15-.159.133-.194-.042-.082-.14-.14-.216-.208v-.001Zm5.762-58.007c-.296 0-.53.167-.502.328a.28.28 0 0 0 .172.194c.222.032.502-.187.48-.368-.01-.07-.128-.127-.15-.152v-.002Zm-5.99 57.54c.302 0 .566-.149.536-.286a.302.302 0 0 0-.191-.202c-.22-.026-.494.138-.472.266a.65.65 0 0 0 .127.222Zm6.99-57.881c-.31 0-.465.121-.464.301.001.18.109.259.237.201.15-.066.268-.209.402-.318l-.174-.184Zm-2.098-3.012c-.165-.14-.687-.155-.864-.025-.074.055-.1.17-.151.257.104.011.208.011.312 0 .131-.039.261-.085.388-.138.097-.031.196-.058.315-.094Zm6.298 42.915c-.09-.083-.17-.217-.27-.236-.162-.03-.255.101-.25.267 0 .134-.006.302.2.302.18-.002.282-.092.32-.333Zm.77-.73c-.02-.033-.05-.149-.107-.163-.056-.014-.16.046-.224.1a.281.281 0 0 0-.1.168.428.428 0 0 0 .024.264.271.271 0 0 0 .219.12c.059-.013.1-.13.136-.209a1.45 1.45 0 0 0 .052-.282v.003ZM32.78 20.677c.252 0 .503-.2.46-.342a.301.301 0 0 0-.23-.15c-.19-.017-.402.187-.373.35.014.065.117.115.143.142Zm-.587 7.943c0-.2-.112-.32-.246-.267-.135.052-.214.2-.28.33-.013.026.15.2.24.208a.266.266 0 0 0 .286-.27Zm-.784 11.712c.125-.064.241-.112.345-.178.151-.1.105-.24.02-.345-.026-.034-.161 0-.235.027a.477.477 0 0 0-.222.153.408.408 0 0 0-.039.252c.003.035.084.063.13.093v-.002Zm-3.41 38.698c-.048.015-.094.027-.138.047-.22.094-.291.318-.132.493.05.055.268.05.271.037.047-.184.156-.377-.002-.575v-.002Zm1.556-54.897c.215-.053.437 0 .45-.255 0-.049-.122-.142-.19-.145-.178-.006-.368.024-.403.24-.013.05.103.123.143.162v-.002ZM13.237 37.869c.131.106.272.199.42.279.05.023.18-.041.218-.1.037-.06-.008-.166-.053-.223-.103-.13-.38-.124-.585.044Zm17.608 1.53c-.037-.038-.147-.173-.162-.163a3.16 3.16 0 0 0-.36.301c.064.064.128.177.192.177.152-.003.327-.028.33-.316Zm5.677 22.243c-.162-.126-.248-.23-.35-.253-.048-.011-.19.137-.186.208.007.111.1.218.155.327l.38-.282Zm3.453-1.616c-.033-.026-.135-.126-.152-.113a4.262 4.262 0 0 0-.369.33c.06.055.113.15.178.157.18.023.341-.14.343-.375v.001ZM32.65 42.833c-.08.256.122.365.234.51.018.023.126 0 .174-.031a.17.17 0 0 0 .055-.144c-.033-.253-.213-.325-.462-.334Zm2.56 19.305c.095.115.163.27.235.27.088 0 .178-.124.266-.195-.095-.106-.191-.212-.285-.319l-.216.244Zm-3.537-23.163-.1-.026-.311.333c.061.055.124.157.184.156.159 0 .324-.054.324-.26-.003-.069-.064-.136-.097-.203ZM29.7 24.917l.301-.37a.76.76 0 0 0-.24-.119.256.256 0 0 0-.21.06.254.254 0 0 0-.086.201c-.003.057.116.118.235.228Zm4.41 38.573a4.92 4.92 0 0 0 .006.535c.014.088.057.17.123.23.027.023.183-.032.185-.057a.636.636 0 0 0-.048-.302 3.722 3.722 0 0 0-.266-.406Zm.71-2.326c-.153.03-.274.02-.348.076-.073.055.09.52.225.617l.123-.693Zm-5.842-37.15c-.195-.12-.38-.15-.545-.019-.032.026.01.241.065.268.216.1.36-.025.48-.25Zm1.442 1.18.067.062c.164-.051.332-.093.49-.159.033-.014.034-.11.049-.169a1.836 1.836 0 0 0-.455.022c-.068.02-.101.16-.15.245Zm-5.429 56.004c.128-.057.213-.068.24-.114a.976.976 0 0 0 .121-.321c.006-.03-.107-.119-.115-.113a.759.759 0 0 0-.238.223c-.04.074-.009.182-.009.331l.001-.006Zm5.827-58.575a2.745 2.745 0 0 0-.256.33c-.008.016.108.145.17.147a.276.276 0 0 0 .307-.263c.002-.05-.107-.106-.222-.213v-.001Zm-.442 1.864c.283.179.448.062.604-.085a.438.438 0 0 0 .068-.15c-.056-.023-.13-.083-.166-.066-.162.082-.313.184-.506.3ZM14.984 38.07c-.265-.17-.49-.161-.649.016.2.22.463.22.649-.016ZM29.069 24.8l-.024-.121a1.95 1.95 0 0 0-.413.01c-.054.012-.084.13-.124.201.076.036.166.118.227.1a1.51 1.51 0 0 0 .334-.19Zm.989 7.11c0-.035.005-.07.008-.101-.086-.056-.188-.17-.252-.152-.095.026-.165.146-.245.227.061.054.126.157.183.152a1.03 1.03 0 0 0 .305-.126Zm2.142-8.62c-.266-.135-.489-.11-.571.049a.544.544 0 0 0-.016.2c.061 0 .136.03.184 0 .13-.055.248-.143.403-.249Zm-1.78.42.032.133c.136-.01.288.01.402-.046.081-.04.113-.182.168-.278l-.08-.078-.523.27Zm.174 16.945c.099-.109.188-.226.267-.35.008-.016-.135-.157-.173-.144a.56.56 0 0 0-.26.2c-.02.033.076.143.166.299v-.005Zm5.897 21.577c-.1.12-.217.194-.212.26.005.067.132.202.183.195a.402.402 0 0 0 .233-.201c.015-.025-.105-.13-.204-.25v-.004Zm-7.097-39.011.029.127c.14.001.278-.013.414-.043.056-.017.079-.138.116-.213-.067-.015-.142-.056-.201-.039a2.95 2.95 0 0 0-.358.173v-.005Zm9.753 37.53c-.226-.163-.376-.187-.469-.029-.035.059.045.185.074.28l.395-.252Zm-1.81.972c-.095.143-.375.128-.257.37.02.04.243.035.325-.02.165-.1.074-.219-.062-.345l-.006-.005Zm-5.712-38.968.086.064.455-.24-.027-.117c-.134.01-.28-.008-.402.04-.055.025-.075.165-.112.253ZM27.197 80.6c-.08-.108-.136-.18-.19-.252a1.667 1.667 0 0 0-.196.317c-.012.031.1.11.162.166l.224-.231Zm4.397-49.206c.25.1.402.12.467-.083.02-.06-.045-.146-.071-.22l-.396.303Zm2.245-10.1c.09-.11.18-.174.188-.248.006-.054-.125-.179-.149-.169-.094.053-.18.118-.257.193l.218.225Zm-1.274.976c.201.192.347.169.49.091a.164.164 0 0 0 .074-.133.157.157 0 0 0-.129-.085 4.34 4.34 0 0 0-.435.128v-.001Zm3.218 40.49-.234.254c.054.047.13.145.161.133.093-.05.178-.112.255-.184l-.183-.204Zm-.521 1.875.066.068c.196-.156.394-.312.587-.473a.107.107 0 0 0 .007-.1.114.114 0 0 0-.108-.014c-.187.167-.37.344-.552.52Zm-.343-3.448v.1c.092.047.185.125.277.125.06 0 .136-.108.17-.183.01-.026-.092-.145-.136-.142a1.24 1.24 0 0 0-.311.1ZM32.11 24.032v-.048a2.158 2.158 0 0 0-.387.008c-.049.01-.094.1-.116.162a.16.16 0 0 0 .045.124.39.39 0 0 0 .172-.054c.099-.058.191-.13.286-.192Zm-.604.668c.174.26.328.252.568 0h-.568ZM31 31.225l-.005-.094c-.209-.142-.355-.127-.513.127l.518-.033Zm6.876 30.217.074.138c.086-.033.211-.045.245-.108.035-.062-.025-.174-.043-.263l-.276.233Zm-8.64-29.75.191-.275-.028-.073-.386.021-.015.077.238.25Zm3.892-8.659-.012-.1-.474.064c.228.241.303.235.482.036h.004Zm-.446-4.218c0 .037.005.076.007.114l.43-.022V18.8c-.15-.144-.296-.13-.441.015h.004Zm2.151 44.14.132-.032-.031-.31-.22.034.12.307ZM32.741 19.53v.145l.364-.026v-.119h-.364Zm-4.826 58.943h.114l.04-.273-.201.01.047.263Zm5.147-54.648v-.132l-.324.037c0 .03 0 .063.007.095h.317Z" fill="#AC6719"/><path d="m.629 71.237.323.402-.47.023.147-.425ZM32.048 34.79c0 .202.005.416-.254.475a.245.245 0 0 1-.181-.022c-.172-.13-.075-.69.126-.766.218-.083.318.02.31.314Zm-.063 1.37c-.04.145-.095.285-.164.418a.268.268 0 0 1-.228.087c-.07-.014-.171-.106-.175-.168a.804.804 0 0 1 .067-.402c.052-.1.18-.157.274-.233.078.097.157.205.226.298Zm-1.46-13.99c-.008-.291.143-.456.343-.463.199-.007.272.1.276.276.005.155-.25.395-.414.361-.094-.02-.166-.139-.205-.174Zm2.311 12.371c-.01.09-.014.182-.03.272-.022.133-.088.214-.239.179-.13-.031-.212-.09-.169-.244a.452.452 0 0 0 .023-.196c-.039-.21.07-.341.252-.341.07 0 .142.192.212.296l-.05.034Zm8.557 26.073c.09-.142.154-.32.279-.422a4.36 4.36 0 0 1 .62-.365c.07.275-.519.76-.905.782l.006.005ZM33.065 21.12l.173.183c-.133.11-.25.252-.403.318-.127.056-.235-.039-.236-.2 0-.163.155-.302.466-.301Zm-.285-.444c-.026-.024-.13-.074-.143-.142-.03-.163.182-.367.373-.35a.301.301 0 0 1 .23.15c.04.141-.209.335-.46.342Zm7.196 39.349c0 .235-.164.403-.343.374-.066-.008-.119-.1-.178-.157a4.28 4.28 0 0 1 .369-.33c.017-.013.119.087.152.113Zm-5.156 1.14-.123.692c-.135-.1-.294-.565-.224-.617.069-.052.195-.044.348-.075Zm-9.83 20.039c0-.144-.03-.252.009-.325a.759.759 0 0 1 .238-.223c.008-.006.12.082.115.113a.998.998 0 0 1-.121.321c-.027.04-.113.052-.24.114Zm5.827-58.58c.116.107.224.165.221.214a.276.276 0 0 1-.307.263c-.062 0-.177-.131-.17-.146.077-.117.163-.228.256-.331Zm-1.747 2.175a1.523 1.523 0 0 1-.335.19c-.061.018-.15-.064-.227-.1.04-.071.07-.19.124-.202a1.95 1.95 0 0 1 .413-.01l.024.122Zm.987 7.111a1.024 1.024 0 0 1-.302.123c-.057.005-.121-.1-.183-.152.08-.08.15-.201.246-.227.064-.018.166.1.251.151-.007.032-.009.07-.012.104Zm2.144-8.62c-.155.101-.273.19-.402.258-.048.025-.123 0-.184 0a.546.546 0 0 1 .016-.201c.081-.157.304-.188.57-.057Zm-1.781.425.525-.27.08.078c-.053.1-.085.239-.167.278-.117.055-.268.035-.402.046l-.035-.132Zm-1.024-.489c.116-.064.237-.12.36-.168.057-.017.133.024.202.04-.037.074-.06.2-.116.213a1.92 1.92 0 0 1-.414.042l-.032-.127Zm9.757 37.529-.395.253c-.028-.096-.109-.223-.074-.28.093-.159.244-.136.469.027Zm-7.526-38c.037-.088.053-.228.115-.253.119-.048.265-.03.402-.04l.027.116-.454.24-.09-.064Zm-.033 8.641.396-.301c.026.074.09.16.071.22-.065.2-.217.18-.467.081Zm3.669 33.241c.183-.176.365-.353.552-.523a.113.113 0 0 1 .108.014.106.106 0 0 1-.007.1c-.193.161-.391.317-.587.473l-.066-.064Zm-.343-3.448c.097-.047.2-.081.307-.1.044 0 .147.115.136.14-.033.076-.11.184-.17.184-.092 0-.184-.078-.277-.125l.003-.1Zm-3.416-36.491h.568c-.24.254-.394.261-.568 0Zm-.509 6.527-.518.032c.158-.253.302-.268.513-.126l.005.094Zm-1.764.467-.238-.25.015-.077.386-.021.028.073-.19.275Zm5.597 31.266-.118-.307.219-.035.03.311-.13.031ZM32.742 19.53h.365v.119l-.364.026c.003-.048 0-.097-.001-.145ZM27.92 78.473l-.045-.263.2-.011-.038.273-.116.001Zm5.147-54.648h-.321c0-.032-.006-.064-.008-.095l.324-.038.005.133Z" fill="#fff"/><path d="M32.722 70.681c.033.082.1.169.093.246a1.1 1.1 0 0 1-.132.474c-.281.42-.451.886-.635 1.35-.05.12-.118.234-.201.335a.2.2 0 0 1-.174.042c-.032-.008-.067-.1-.06-.145.018-.105.05-.206.093-.302.11-.25.056-.362-.188-.47a.287.287 0 0 1-.122-.246c.038-.247.119-.487.168-.733a.293.293 0 0 0-.034-.225c-.241-.262-.27-.416-.153-.715.161-.41.287-.835.459-1.24.209-.495.33-1.037.714-1.447a.805.805 0 0 1 .2-.112c.038.077.112.158.101.23-.02.122-.06.24-.118.35-.131.288-.269.573-.403.859-.06.108-.114.22-.16.334-.048.147-.072.302-.106.452l.087.038c.13-.12.254-.243.389-.355a.803.803 0 0 1 .2-.087.582.582 0 0 1 .02.23c-.062.163-.158.313-.224.474-.161.384-.31.772-.469 1.157a1.184 1.184 0 0 1-.137.207c-.13.192-.117.385-.014.595l.704-1.307.102.011Zm-.861-.446.122.006.044-.403-.123-.013-.043.41Zm-18.126 9.763a.37.37 0 0 1 .128.069.37.37 0 0 1 .1.201c0 .035-.11.1-.171.1a.948.948 0 0 1-.37-.046c-.54-.212-1.073-.441-1.608-.656-.155-.062-.321-.093-.482-.139l.007-.109c.129-.016.258-.037.386-.046.075-.005.152.021.225.012a.452.452 0 0 0 .14-.078c-.036-.047-.061-.117-.11-.139-.23-.11-.468-.201-.698-.314-.054-.026-.086-.1-.128-.152a.58.58 0 0 1 .187-.084c.084 0 .167.017.245.05.828.279 1.656.56 2.485.842.064.02.127.044.188.07.164.075.277.21.19.377-.088.167-.247.108-.394.035a1.273 1.273 0 0 0-.296-.064l-.024.07Zm-1.515-.585v.1h.517v-.078l-.517-.022Zm9.965-3.378c-.27-.1-.52-.165-.75-.274-.344-.165-.68-.347-1.005-.545a45.48 45.48 0 0 1-1.451-.936 17.088 17.088 0 0 1-1.038-.737c-.074-.059-.08-.202-.116-.313.13.014.286-.015.384.047.704.454 1.398.937 2.112 1.388.503.315 1.021.598 1.54.886.106.06.243.063.352.117a.93.93 0 0 1 .193.177l-.22.19Zm3.543-30.462c-.276.013-.552.04-.827.032a.497.497 0 0 1-.306-.127c-.201-.194-.148-.36.13-.417.115-.011.232-.014.348-.008.302-.015.609-.033.913-.05h.1c.583.018 1.166.032 1.747.058.41.02.818.051 1.225.09a.4.4 0 0 1 .241.111c.05.056.05.158.073.24-.085.015-.19.07-.25.038-.362-.192-.735-.165-1.124-.13-.755.069-1.513.1-2.27.15v.013Zm-8.881-.177a2.04 2.04 0 0 1 .47-.1c.885.02 1.77.056 2.653.092.575.023 1.15.056 1.724.086.025 0 .058-.006.074.007.087.075.169.155.253.234-.1.05-.194.147-.29.146a38.17 38.17 0 0 1-1.828-.063c-.338-.02-.672-.095-1.005-.121-.57-.046-1.142-.069-1.71-.107a2.453 2.453 0 0 1-.325-.063l-.016-.11Zm-.131-.963c.12-.04.242-.066.367-.079 1.045.013 2.09.04 3.134.05.358 0 .715-.043 1.073-.052.117.01.233.03.346.063a1.276 1.276 0 0 1-.193.313.479.479 0 0 1-.302.101c-.91 0-1.829.055-2.73-.042-.49-.053-.985-.132-1.479-.193a1.062 1.062 0 0 1-.218-.077l.002-.084Zm8.534 22.083a.949.949 0 0 1-.09-.21c-.128-.852-.3-1.7-.066-2.563.05-.23.068-.465.055-.7a.518.518 0 0 0-.114-.287c-.251-.322-.532-.622-.767-.955-.093-.132-.109-.325-.133-.494-.007-.044.077-.12.135-.146.023-.01.1.064.134.114.182.286.321.604.54.857.423.486.538 1.02.476 1.65-.056.578-.021 1.166-.026 1.75 0 .243 0 .485-.011.727a1.19 1.19 0 0 1-.07.25l-.064.007Zm7.474 8.317c.013.107.013.215 0 .322-.116.423-.262.837-.363 1.262-.05.201-.1.375-.29.503-.107.07-.165.212-.268.29-.1.056-.207.099-.318.125a1.208 1.208 0 0 1-.035-.264c.039-.44.1-.88.128-1.321a.417.417 0 0 1 .196-.374c.296-.188.58-.402.87-.597l.08.054ZM17.228 46.425c.096-.034.196-.056.297-.068a799.42 799.42 0 0 1 4.184-.013c.154 0 .29.031.28.233a.243.243 0 0 1-.291.262c-.583-.042-1.165-.095-1.747-.129-.566-.034-1.133-.051-1.7-.075-.259-.011-.518-.014-.775-.035a1.002 1.002 0 0 1-.255-.093l.007-.082Zm11.73.091a1.192 1.192 0 0 1-.302.088c-.657.009-1.313 0-1.97.01-.45.009-.898.059-1.347.058-.105 0-.21-.133-.316-.201.076-.076.158-.143.248-.201a.681.681 0 0 1 .29-.068c.766-.018 1.532-.038 2.298-.036.274.008.547.042.815.1.104.04.2.096.287.166l-.003.084Zm-6.201 28.871c-.117-.008-.253.018-.35-.03a36.024 36.024 0 0 1-1.5-.79 34.802 34.802 0 0 1-1.407-.848 2.554 2.554 0 0 1-.358-.302c-.129-.119-.069-.194.072-.216a.349.349 0 0 1 .213.039c.868.488 1.738.973 2.596 1.476.263.171.517.356.76.553l-.026.118Zm-1.342.881a.433.433 0 0 1-.557.049c-.384-.214-.77-.423-1.147-.647a92.151 92.151 0 0 1-1.486-.913c-.177-.11-.36-.212-.527-.336a.336.336 0 0 1-.116-.217c-.006-.054.07-.165.107-.164a.365.365 0 0 1 .263.09c.213.295.558.374.844.548.255.154.503.324.757.478.54.323 1.085.639 1.627.959.073.043.148.093.235.153ZM10.741 42.98c.1-.058.15-.11.191-.106.314.03.628.065.94.113.146.022.286.087.433.113.608.105 1.221.192 1.827.311.202.05.395.135.568.252.058.037.047.183.068.278-.077.016-.17.07-.23.043a5.516 5.516 0 0 0-1.698-.409 4.336 4.336 0 0 1-.731-.166c-.37-.1-.736-.209-1.106-.317-.07-.022-.14-.06-.262-.113Zm7.379 4.429a1.46 1.46 0 0 1 .274-.05c.962.006 1.922.019 2.883.026.125 0 .25-.013.374-.024.174-.015.27.056.282.235.013.195-.11.255-.269.25-.525-.019-1.052-.034-1.575-.077-.524-.043-1.062-.116-1.592-.182a3.92 3.92 0 0 1-.384-.089l.007-.089Zm-6.143 7.845c-.112-.187-.23-.356-.318-.54-.118-.246-.209-.502-.318-.756a1.336 1.336 0 0 0-.112-.161c-.334-.523-.647-1.054-.576-1.71.052-.486.468-1.137.881-1.339a.622.622 0 0 1-.03.213c-.227.38-.486.764-.485 1.207.001.378.076.752.22 1.1.22.517.537.991.793 1.493.075.147.132.333-.055.492ZM9.601 41.7a.938.938 0 0 1 .663.063c.109.057.224.1.343.13.665.139 1.332.277 2.001.402.312.057.633.062.944.121.159.041.31.11.447.201a.194.194 0 0 1 .066.182.216.216 0 0 1-.183.081 65.751 65.751 0 0 1-1.952-.39 17.96 17.96 0 0 1-1.307-.334c-.352-.107-.691-.254-1.036-.383l.014-.074Zm4.434 37.219c-.201-.054-.368-.1-.537-.143-.29-.073-.583-.139-.872-.217-.15-.041-.296-.1-.443-.155-.464-.166-.928-.33-1.389-.503-.066-.025-.113-.1-.17-.155a.96.96 0 0 1 .227-.105.528.528 0 0 1 .22.03c.838.225 1.675.45 2.51.683.177.048.348.116.511.2.083.044.133.147.201.222l-.258.143Zm12.712-31.735c.54.036 1.082.06 1.62.117.133.014.263.121.377.21a.201.201 0 0 1 .038.196c-.025.042-.13.062-.194.05-.178-.031-.352-.119-.528-.122-.658-.009-1.317.01-1.975.012a1.684 1.684 0 0 1-.422-.034c-.081-.022-.145-.111-.217-.17.067-.064.128-.168.201-.18.205-.03.412-.045.62-.046.157-.006.316 0 .474 0l.006-.033Zm-15.7-3.25c.1-.02.201-.073.293-.056.614.11 1.225.243 1.84.355.36.065.728.095 1.088.165a.971.971 0 0 1 .366.186.23.23 0 0 1 .077.2.25.25 0 0 1-.2.101 2.754 2.754 0 0 1-.467-.081c-.374-.086-.748-.168-1.119-.268-.445-.12-.884-.262-1.329-.385-.178-.048-.364-.07-.546-.1l-.003-.117Zm21.754 29.629c0 .502-.393.82-.879.688a.368.368 0 0 1-.19-.268c-.013-.1.069-.216.112-.324.053-.164.12-.323.201-.476.147-.231.308-.452.483-.663a.201.201 0 0 1 .19-.032.21.21 0 0 1 .056.195c-.179.306.015.591.027.88ZM28.995 48.93a2.236 2.236 0 0 0-1.09-.118c-.416.034-.833.047-1.25.037a.83.83 0 0 1-.382-.1.292.292 0 0 1-.087-.231.202.202 0 0 1 .15-.122c.766.015 1.532.04 2.298.066.083.009.164.03.241.062.238.081.258.145.12.405Zm-8.6-14.405c-.383 0-.652-.28-.613-.63.026-.231.179-.324.407-.276a.424.424 0 0 0 .285-.045c.23-.14.527-.127.661.054.152.202.094.416-.115.64a.79.79 0 0 1-.625.257ZM13.45 54.969c-.503-.02-.905-.33-.884-.699.012-.255.426-.556.745-.54a.763.763 0 0 1 .704.745c-.01.3-.244.506-.565.494Zm-.478-.623c.1.175.201.37.444.325a.301.301 0 0 0 .18-.222.302.302 0 0 0-.135-.25.37.37 0 0 0-.489.147Zm4.663-27.592c-.072-.327 1.354-3.022 1.774-3.318a.702.702 0 0 1-.052.617c-.224.409-.495.79-.738 1.189-.125.201-.227.424-.349.631-.182.311-.373.616-.56.923l-.075-.042ZM29.256 49.96a3.98 3.98 0 0 1-.518.085c-.527.015-1.053.013-1.58.018-.05.003-.1.003-.15 0-.154-.017-.341 0-.336-.236 0-.172.2-.33.388-.318.524.035 1.048.065 1.572.107.222.017.455.04.623.345Zm-8.364.088c-.47-.033-.92-.06-1.369-.1-.067-.006-.129-.07-.193-.108.057-.07.1-.183.175-.2.172-.031.347-.045.522-.042.55-.014 1.106-.023 1.654-.034h.074c.17 0 .302.067.314.252.012.185-.153.223-.295.228-.3.011-.601.004-.882.004ZM19.06 26.62c-.026-.081-.088-.172-.068-.24.06-.208.137-.41.233-.603.33-.652.662-1.303.997-1.953.037-.07.14-.1.212-.157.019.089.08.202.05.264-.18.41-.375.813-.575 1.214-.137.274-.288.54-.432.81-.116.22-.229.438-.343.657l-.075.008Zm-1.417 43.171c.42.024.771.443.723.805a.962.962 0 0 1-.546.787.497.497 0 0 1-.267.051.806.806 0 0 1-.235-.123.793.793 0 0 1 .22-.111c.264-.041.566-.392.546-.657a.34.34 0 0 0-.25-.336.302.302 0 0 0-.39.13 2.01 2.01 0 0 1-.146.26c-.058.067-.15.15-.224.146a.282.282 0 0 1-.215-.16.403.403 0 0 1 .072-.313 1.99 1.99 0 0 1 .712-.479Zm1.482-21.218c.26-.057.526-.096.793-.117.492-.008.985.026 1.479.038.123 0 .255-.043.37-.013.114.03.183.127.273.194-.091.08-.185.23-.274.227-.603-.018-1.199-.064-1.797-.108-.278-.02-.556-.057-.833-.086l-.011-.135ZM17.91 65.404c.183.236-.101.604.217.805a.264.264 0 0 0 .08-.047c.109-.132.258-.18.357-.04a.368.368 0 0 1-.03.35c-.236.273-.355.542-.154.886a.2.2 0 0 1-.05.16c-.075 0-.178-.007-.216-.056a.402.402 0 0 1-.07-.259c.02-.376-.122-.666-.385-.934-.262-.267-.117-.75.25-.865Zm3.72-39.231c.132-.27.249-.513.372-.754.218-.428.43-.86.663-1.28a2.11 2.11 0 0 1 .335-.396.141.141 0 0 1 .13-.023.14.14 0 0 1 .065.118c-.02.121-.06.239-.114.348-.337.593-.686 1.177-1.023 1.769-.043.075-.024.186-.067.261a.984.984 0 0 1-.195.201c-.049-.077-.1-.15-.166-.244Zm4.597 41.807c.006.347-.354.767-.653.78-.201.009-.687-.512-.704-.859-.01-.212.376-.537.64-.547.302-.011.711.346.716.626Zm-1.1.055c0 .166.287.48.377.421a.864.864 0 0 0 .348-.383c.06-.173-.14-.31-.389-.31-.206.001-.35.069-.336.27v.002Zm-4.825-41.538a.673.673 0 0 1 0-.235c.156-.384.32-.765.492-1.143.123-.27.25-.54.393-.804.104-.179.22-.35.35-.51.026-.037.124-.068.143-.051.04.036.082.118.066.16-.112.295-.227.59-.365.874-.111.23-.256.444-.387.664l-.628 1.059-.064-.014Zm5.644 36.799a3.93 3.93 0 0 1-.122-.645c-.016-.596-.125-1.192 0-1.788.027-.122.023-.252.06-.37.018-.059.1-.1.146-.146.046.054.094.108.134.165.013.017.006.05.005.074-.018.81-.034 1.62-.057 2.43-.01.094-.03.186-.058.275l-.108.005Zm-8.161-32.624c.202-.1.394-.2.598-.288.29-.12.589-.217.88-.333.292-.116.604-.267.915-.377.356-.127.72-.232 1.085-.328a.363.363 0 0 1 .292.1.588.588 0 0 1-.1.061c-.566.184-1.132.361-1.694.551-.163.055-.311.152-.47.22-.347.147-.693.302-1.048.425a1.906 1.906 0 0 1-.446.052l-.012-.083ZM12.54 45.158c.703.127 1.407.25 2.096.382.132.025.265.1.222.272-.036.146-.1.247-.282.13a1.273 1.273 0 0 0-.415-.146c-.503-.106-1.005-.2-1.508-.301a.418.418 0 0 1-.193-.1.234.234 0 0 1-.058-.17c0-.032.09-.048.137-.067Zm7.242 5.924c.11-.035.222-.059.337-.072.409 0 .818.01 1.226.01.134 0 .273-.043.402-.016.109.025.264.101.29.19.05.165-.088.274-.248.262a33.735 33.735 0 0 1-1.516-.146 3.452 3.452 0 0 1-.49-.13l-.001-.098Zm7.609-.281h1.164c.1 0 .2.01.301.018.152.013.276.092.247.246-.01.061-.167.128-.263.137-.414.039-.83.059-1.246.083a.88.88 0 0 1-.2-.01c-.167-.03-.268-.136-.213-.302.028-.077.152-.126.21-.172Zm-14.058-4.464c.418.075.836.151 1.254.224.156.029.27.095.27.274 0 .152-.08.213-.226.185a339.6 339.6 0 0 1-1.61-.328.953.953 0 0 1-.262-.076c-.047-.027-.068-.1-.1-.156.048-.026.095-.072.144-.075.175-.01.35 0 .527 0l.003-.048Zm-1.067 9.55c.03.099.054.2.07.302.005.1 0 .202-.018.301-.068.517.118.958.395 1.378.11.165.21.337.301.514.025.093.037.19.035.287-.537-.443-.955-.91-.955-1.542 0-.403-.169-.845.059-1.234l.113-.006Zm.877 3.626c-.134.426-.31.822-.372 1.235-.063.413-.013.86-.013 1.317-.485-.47-.465-1.333-.12-2.058.09-.192.18-.478.505-.494Zm5.939-4.718c.142.058.277.13.403.218a.65.65 0 0 1 .233.344c.006.15-.029.3-.1.432-.081.178-.353.186-.52.033a.752.752 0 0 1-.015-1.027Zm-2.924-29.641a1.13 1.13 0 0 1-.088.194c-.19.283-.381.567-.584.841a.49.49 0 0 1-.226.144c-.029.01-.13-.071-.125-.088.09-.325.201-.643.333-.954.064-.137.228-.238.362-.334.133-.095.324 0 .328.197Zm1.926-.902c-.16.292-.32.587-.485.878-.061.108-.135.21-.201.314-.163.25-.327.503-.503.77-.009-.052-.033-.101-.022-.134.194-.661.35-1.343.91-1.817a.756.756 0 0 1 .242-.087l.06.076Zm10.134 28.181c-.201 0-.403.032-.596-.012-.105-.025-.18-.176-.27-.27.1-.045.192-.12.29-.126.314-.017.63-.012.944 0a.38.38 0 0 1 .232.075.33.33 0 0 1 .11.232c0 .044-.117.113-.188.12-.172.017-.348.006-.522.006v-.025ZM13.675 47.51c.315.074.634.137.944.229.073.02.12.137.179.208-.084.052-.17.15-.25.146a3.853 3.853 0 0 1-.59-.1c-.212-.044-.424-.085-.631-.143a.706.706 0 0 1-.187-.13c.059-.047.111-.114.178-.132a2.12 2.12 0 0 1 .348-.04l.01-.038Zm3.932 14.321c-.237 0-.358-.115-.364-.346-.005-.235.255-.417.603-.424a.373.373 0 0 1 .381.347c.01.206-.314.425-.62.423Zm8.233-4.638c.019.092.031.185.038.279.01.463.02.927.018 1.39a.635.635 0 0 1-.084.201 1.043 1.043 0 0 1-.13-.162 2.108 2.108 0 0 1-.202-.424c-.129-.479.177-.863.226-1.307l.135.023Zm-5.575-4.57c.117-.222.264-.35.485-.35.284 0 .59-.088.81.201.102.136.08.212-.069.258a.7.7 0 0 1-.244.035 22.4 22.4 0 0 1-.822-.08.782.782 0 0 1-.16-.064Zm4.468-.585c-.13-.333.138-.515.288-.71.202-.261.414-.255.838-.064.201.092.246.169.216.443-.207-.226-.466-.325-.716-.194-.224.118-.399.332-.626.525ZM22.634 36.38c-.113.073-.217.16-.308.26-.087.118-.181.212-.297.11a.333.333 0 0 1-.061-.313 1.34 1.34 0 0 1 .358-.403c.16-.121.565.072.577.274 0 .052-.121.112-.186.17l-.083-.099Zm3.713 29.048a.325.325 0 0 1 .334-.353c.189-.006.402.18.412.357.006.156-.209.387-.363.39-.175.004-.376-.202-.383-.394Zm-6.453 3.897c-.007.21-.2.44-.37.434-.202-.006-.323-.155-.316-.374.009-.22.212-.423.397-.415.147.006.295.187.29.355Zm6.361-17.522c.179.263-.03.427-.116.603-.166.341-.663.61-.983.539-.067-.015-.119-.1-.178-.155.07-.038.15-.121.201-.107.384.1.58-.133.758-.403.1-.15.198-.3.318-.477Zm1.182 1.575c.29-.249.97-.144 1.129.14.08.144-.012.207-.141.2a2.481 2.481 0 0 1-.643-.055c-.13-.033-.229-.181-.345-.285ZM12.651 75.95c.265.093.53.183.793.28.175.066.35.137.52.22.061.04.117.09.164.147a.565.565 0 0 1-.19.08c-.388.009-.705-.178-1.006-.389-.107-.074-.201-.166-.302-.25l.021-.087Zm.734-26.994c.185-.254.364-.353.617-.28a4 4 0 0 1 .387.101c.065.027.11.106.164.16-.066.055-.136.158-.195.153-.308-.024-.616-.08-.973-.134Zm7.807-9.611c.062.035.194.069.222.142.028.073-.068.176-.129.25a.439.439 0 0 1-.2.145c-.128.04-.291.167-.376-.061a.296.296 0 0 1 .215-.424c.075-.02.15-.03.268-.052Zm5.532 35.809c-.267-.131-.539-.255-.798-.402a.243.243 0 0 1-.062-.218c.01-.043.12-.087.185-.088.21 0 .67.403.723.628l-.048.08Zm-5.497-18.092a1.3 1.3 0 0 1-.353.246c-.047.016-.224-.171-.236-.278-.017-.153.025-.35.243-.377.18-.023.337.135.346.41Zm-1.85 13.793.456-.276c.375.236.378.24.292.466l-.74-.1-.008-.09ZM17.88 51.014c.128.154.253.253.29.379.018.054-.171.248-.214.232a.603.603 0 0 1-.323-.264c-.025-.052.134-.194.247-.347Zm2.01 15.476.258-.262c.072.08.213.179.201.237-.03.125-.145.227-.225.34l-.234-.315Zm-5.56-15.844c.236-.227.403-.229.593-.02-.216.291-.353.3-.592.02Zm6.113-19.377c.145-.188.467-.229.631-.077.076.072.143.153.258.279l-.896-.21.007.008Zm.877 23.036c.09-.126.21-.172.35-.084.03.019.016.108.023.164l-.365.027-.009-.107Zm1.856-24.165h.617v.088l-.618.04v-.128Zm-12.86 12.563.388.02v.1h-.385l-.003-.12Zm23.018-29.96c-.1-.38-.201-.764-.322-1.14-.02-.07-.133-.11-.2-.164-.047.096-.133.19-.134.287 0 .365.042.732.023 1.095-.03.214-.091.423-.181.62a.186.186 0 0 1-.17.073.212.212 0 0 1-.088-.17c0-.524.041-1.05.017-1.572-.01-.223-.146-.44-.219-.66a.386.386 0 0 1-.036-.193.292.292 0 0 1 .123-.17c.032-.018.13.032.16.077.134.201.302.25.541.201a.372.372 0 0 1 .308.116c.16.216.352.445.402.696.075.353.255.726.04 1.095-.063.093-.13.182-.202.268-.046-.115-.094-.229-.136-.345a.258.258 0 0 1 0-.1l.074-.014Zm-20.401-1.92c.075.009.127 0 .156.021.153.114.302.236.448.356-.145.1-.278.23-.437.288a1.56 1.56 0 0 1-.495.05c-.805.024-1.456.414-2.084.874-.379.279-.728.577-.964.992a.302.302 0 0 1-.153.119.494.494 0 0 1-.179-.008.49.49 0 0 1 .018-.183c.372-.68.969-1.142 1.603-1.536.547-.34 1.15-.593 1.732-.876a1.83 1.83 0 0 1 .355-.097Zm15.76-1.489c-.123-.952-.349-1.85-1.053-2.554l.034-.063c.09 0 .201-.023.264.02.411.287.914.418 1.279.793.32.329.43.723.488 1.15a.255.255 0 0 1-.04.165 1.597 1.597 0 0 1-.185.185 1.297 1.297 0 0 1-.134-.218c-.096-.262-.177-.53-.273-.793-.02-.05-.088-.084-.133-.124-.028.062-.081.126-.08.186.01.201.047.402.06.603.012.229.007.459-.227.65ZM13.35 23.477c-.09-.059-.168-.083-.185-.13a.19.19 0 0 1 .049-.168c.208-.177.45-.319.635-.516.426-.453.834-.923 1.231-1.401.375-.452.529-1.006.717-1.554.028-.078.134-.184.201-.184.158 0 .127.137.11.245a3.833 3.833 0 0 1-.512 1.31c-.31.528-.64 1.036-1.082 1.457-.246.235-.535.425-.804.638-.125.097-.235.197-.36.303Zm2.012-15.925c-.055-.344.227-.402.429-.597-.141-.024-.23-.041-.319-.054-.217-.032-.274-.133-.14-.302a.61.61 0 0 1 .313-.228c.344-.065.692-.11 1.042-.136.188-.015.51.402.448.581a.37.37 0 0 1-.201.165c-.1.042-.215.04-.316.078-.36.141-.717.292-1.076.437-.046.022-.103.033-.18.056Zm.896-.74v-.107l-.402.022.008.117.394-.033Zm-1.201 13.193a1.5 1.5 0 0 1-.135.331c-.431.592-.843 1.2-1.318 1.755-.31.36-.718.64-1.086.951a.318.318 0 0 1-.182.073.667.667 0 0 1-.201-.058c.03-.053.047-.124.092-.158a8.853 8.853 0 0 0 1.927-2.01c.165-.23.289-.487.435-.73.049-.086.107-.168.172-.243a.995.995 0 0 1 .194-.127l.102.216Zm-2-7.971c.108-.009.217-.007.325.006.059.013.106.084.158.13-.046.04-.087.1-.14.116-.363.088-.732.15-1.091.253a2.488 2.488 0 0 0-.603.272 16.54 16.54 0 0 0-1.126.74.94.94 0 0 0-.238.363c-.056.12-.114.18-.246.117-.133-.063-.12-.123-.062-.239.213-.402.536-.735.931-.958.447-.259.908-.49 1.382-.693.215-.095.466-.106.704-.154l.006.047Zm1.886 10.763c.231-.28.466-.54.673-.818.395-.53.753-1.08.89-1.744.024-.117.04-.302.24-.237.178.06.224.22.164.393-.235.662-.503 1.307-1.03 1.81-.201.187-.372.402-.555.603-.108.113-.22.134-.382-.007Zm12.187-6.281c-.082.798-.301 1.575-.896 2.212-.119.126-.201.286-.319.414a.838.838 0 0 1-.242.127c-.007-.101-.058-.235-.013-.31.154-.264.35-.502.513-.763.277-.448.462-.947.546-1.466.03-.17.072-.339.128-.503.023-.066.106-.113.16-.168.047.07.087.145.12.223a.93.93 0 0 1 .004.234Zm1.311-.202c-.1.386-.177.782-.311 1.156-.145.402-.343.788-.528 1.176-.02.043-.134.089-.156.072a.281.281 0 0 1-.117-.188.751.751 0 0 1 .093-.336c.31-.537.487-1.14.517-1.759.03-.254.081-.506.155-.75.012-.05.108-.125.131-.115.058.027.132.092.137.148.016.19.006.384.006.575l.073.02ZM10.154 32.395c.1-.187.215-.368.301-.562.115-.258.268-.518.296-.789.04-.402-.162-.736-.465-1.005-.121-.109-.237-.225-.372-.353.276-.186.46.007.618.127.375.284.64.636.635 1.155.004.328-.117.645-.338.887-.182.207-.37.408-.557.611l-.118-.071Zm.183-26.745c.111-.44.207-.888.348-1.32.034-.1.218-.161.332-.24.027.13.109.279.069.383a3.95 3.95 0 0 0-.174 2.191c.01.06-.058.187-.09.187-.076 0-.2-.04-.22-.093a8.749 8.749 0 0 1-.214-.819 1.335 1.335 0 0 1 0-.275l-.051-.013Zm8.302-3.133c.163-.365.492-.575.813-.764a5.194 5.194 0 0 1 1.029-.438c.184-.049.378-.053.565-.013.075.014.128.165.19.253-.073.042-.143.113-.22.122a3.662 3.662 0 0 0-1.742.691c-.166.119-.393.152-.591.224l-.044-.075Zm6.987.563c.402-.286.77-.2 1.092-.024.433.248.852.52 1.256.813.093.07.17.16.222.264a.92.92 0 0 1 .043.276c-.114-.024-.246-.019-.338-.078a5.731 5.731 0 0 1-.54-.436c-.42-.353-.944-.487-1.434-.692l-.301-.122ZM22.16 8.587c.644.075 1.18.123 1.595.523a.68.68 0 0 1 .1.2 1.436 1.436 0 0 1-.218.054.31.31 0 0 1-.17-.033c-.545-.336-1.137-.26-1.727-.201a.99.99 0 0 1-.301 0 .977.977 0 0 1-.23-.12c.054-.067.094-.172.161-.194.294-.105.591-.175.79-.23Zm.029.778c.2 0 .402-.007.603 0a.95.95 0 0 1 .747.424c.039.054.022.15.03.226-.087.01-.212.06-.255.021-.43-.388-.95-.193-1.43-.237-.215-.019-.433.013-.65.006a.768.768 0 0 1-.219-.078c.042-.067.07-.159.129-.193.137-.085.288-.146.446-.18.2-.017.4-.02.599-.007v.018Zm3.177 7.616c-.028.566-.268.988-.548 1.386-.217.301-.456.593-.687.889a.302.302 0 0 1-.106.1c-.091.035-.233.1-.277.067-.14-.117.036-.161.088-.242.279-.423.56-.847.818-1.283.173-.293.301-.612.463-.914.034-.064.109-.107.164-.16l.085.157Zm8.72-3.589c-.012-.116-.029-.231-.033-.347-.013-.443-.029-.886-.03-1.328a.69.69 0 0 0-.278-.56c-.07-.058-.084-.181-.123-.275.134-.008.323-.073.388-.01.151.14.262.32.319.519.102.345.151.703.146 1.063-.019.321-.174.636-.27.954l-.12-.016ZM3.33 24.351c-.1-.108-.242-.2-.288-.329a7.15 7.15 0 0 1-.24-.894c-.105-.468.055-.896.231-1.314.133-.315.394-.414.618-.273v.024c-.419.263-.457.683-.45 1.116.008.503-.086 1.02.193 1.491.02.033 0 .09 0 .135l-.063.044ZM21.328 2.615a.99.99 0 0 1-.26.101c-.44.042-.866.181-1.247.408a3.32 3.32 0 0 1-.617.266c-.044.014-.186-.095-.182-.136a.402.402 0 0 1 .13-.279c.543-.33 1.096-.654 1.766-.593.145.03.286.077.42.139l-.01.094Zm14.069 10.621c.067-.181.128-.351.195-.519.227-.565.396-1.132.166-1.744-.028-.074.038-.182.06-.275a.8.8 0 0 1 .221.119.516.516 0 0 1 .17.266c.031.439.1.883-.101 1.307-.122.254-.241.508-.367.758-.084.145-.201.158-.344.088Zm-16.56-8.641c-.032-.301.285-.728.637-.888.9-.409 1.329-.447 1.668-.09-.891.078-1.578.544-2.305.978Zm3.153 5.491c.51 0 .983.1 1.363.46a.301.301 0 0 1 .072.266c-.062.14-.176.071-.27 0-.38-.278-.818-.302-1.265-.282a2.72 2.72 0 0 1-.423.021.851.851 0 0 1-.258-.126c.063-.09.109-.234.191-.259.194-.044.391-.07.59-.08Zm9.368 2.796c-.112.317-.222.636-.343.95-.015.038-.085.057-.13.086a.598.598 0 0 1-.07-.193c0-.434.032-.867.024-1.3 0-.2-.078-.39-.106-.589 0-.077.01-.153.032-.227.094.027.244.027.272.085.086.197.152.403.195.615.032.18.054.363.068.546l.058.027Zm3.838-2.144c.066.165.172.325.192.495a2.955 2.955 0 0 1-.302 1.694c-.03.078-.063.155-.1.23-.027.04-.085.062-.13.092-.03-.044-.087-.091-.085-.135a1.15 1.15 0 0 1 .067-.367c.219-.53.176-1.08.15-1.63.007-.127.028-.252.063-.374l.145-.005ZM25.27 3.736c.1.008.225-.02.296.029.42.301.831.603 1.234.925a.532.532 0 0 1 .15.28.218.218 0 0 1-.086.177.189.189 0 0 1-.176-.017 40.866 40.866 0 0 1-1.115-.917 3.221 3.221 0 0 1-.336-.39l.033-.087Zm-.913 13.357c-.006.1.018.218-.025.302-.247.474-.532.92-.996 1.22-.042.026-.085.075-.127.074a1.684 1.684 0 0 1-.27-.047c.028-.08.033-.196.09-.231.38-.241.583-.636.858-.965l.348-.415.122.062ZM11.71 6.13c-.045-.164-.111-.276-.096-.376.072-.492.156-.985.258-1.473.035-.164.201-.175.33-.118.153.063.085.172.046.292-.1.302-.169.624-.25.935-.048.186-.09.373-.146.557-.014.05-.063.085-.143.182Z" fill="#AC6719"/><path d="M9.405 32.184c.022-.16 0-.297.057-.377.274-.383.17-.76.022-1.143-.052-.13-.174-.287 0-.366.076-.035.301.085.35.185.276.636.344 1.174-.429 1.7ZM4.16 21.904c.027.099.045.2.053.302 0 .292-.041.586-.028.877.013.292.072.604.114.933-.165.063-.272-.033-.336-.2-.222-.573-.141-1.154-.03-1.732.013-.07.088-.128.134-.192l.093.012Zm7.562-7.818c-.175-.04-.266-.15-.141-.311.187-.258.401-.497.637-.711.173-.127.37-.217.578-.265.076-.024.184.063.278.1a1.186 1.186 0 0 1-.184.201c-.302.211-.61.402-.9.622-.114.087-.174.234-.268.364Zm5.955.073c.414-.503 1.421-.503 1.902 0-.124.097-1.763.096-1.902 0Zm8.001-7.919a1.828 1.828 0 0 1 1.197.77.36.36 0 0 1 .061.108c.026.083.043.168.063.252-.1-.027-.23-.028-.312-.086-.2-.144-.373-.33-.577-.467-.127-.084-.302-.1-.436-.17-.08-.041-.192-.155-.178-.207.022-.087.133-.152.182-.2ZM7.741 37.616l1.481-1.503.083.07c-.12.541-.487.911-.923 1.228-.409.294-.486.31-.64.205Zm11.392-24.647c.479.038.961.054 1.373.359.02.014.05.024.06.043.062.122.201.301.166.362-.118.19-.242 0-.372-.053a17.088 17.088 0 0 0-1-.382c-.237-.083-.264-.108-.227-.33Zm2.264-8.387c-.08.036-.162.067-.246.093-.381.084-.763.165-1.145.242a.646.646 0 0 1-.27.012c-.131-.03-.2-.117-.062-.224.472-.367 1-.43 1.564-.275.032.01.061.026.087.047a.62.62 0 0 1 .072.105ZM30.54 8.82a.567.567 0 0 1-.027.217 1.42 1.42 0 0 1-.202.208.85.85 0 0 1-.147-.22c-.1-.348-.184-.705-.274-1.05a.338.338 0 0 1-.028-.12 1.37 1.37 0 0 1 .06-.201c.067.012.13.037.187.073.315.303.373.708.432 1.093ZM7.358 37.081c.192-.201.35-.354.503-.518.277-.301.542-.603.826-.898a.59.59 0 0 1 .301-.122c-.209.617-1.197 1.58-1.63 1.538Zm.89-2.268c.186.185.155.311.075.486-.2.449-.558.755-.918 1.061-.046.04-.136.028-.207.04a.552.552 0 0 1 .045-.168c.217-.313.44-.622.66-.932l.345-.487Zm9.005-26.981c-.102.046-.21.08-.321.1-.324.014-.649.017-.973.01a.534.534 0 0 1-.278-.09c-.1-.073-.1-.2.031-.22.486-.077.975-.13 1.446.085.02.008.031.036.095.115Zm-4.665-2.467c0-.35.036-.645.312-.821.095-.06.239-.043.36-.062a2.51 2.51 0 0 1-.086.373 6.668 6.668 0 0 1-.269.569c-.048.1-.111.183-.168.274-.049-.094-.1-.188-.144-.284-.013-.029-.006-.067-.005-.049Zm-.586 9.137c-.026-.016-.085-.036-.085-.058a.22.22 0 0 1 .043-.148c.142-.16.3-.306.473-.434.227-.137.465-.256.712-.355a.202.202 0 0 1 .183.062.189.189 0 0 1-.052.18c-.385.242-.777.471-1.167.704-.031.017-.06.028-.107.049Zm-6.935 7.533c.224.107.266.307.308.502.05.227.085.457.118.687.005.038-.022.114-.045.12a.258.258 0 0 1-.182-.015c-.236-.182-.363-.976-.2-1.294ZM26.188 5.45c0 .01-.022.091-.055.1a.211.211 0 0 1-.173-.044c-.201-.201-.393-.41-.576-.625a.211.211 0 0 1-.015-.196.214.214 0 0 1 .187-.07c.195.036.628.595.632.835Zm-3.964 12.612c.064-.11.088-.201.148-.25.23-.173.468-.336.709-.494a.77.77 0 0 1 .273-.1c.037-.008.1.048.128.091a.138.138 0 0 1-.042.126c-.362.233-.678.559-1.216.627ZM8.739 32.016c-.027-.065-.068-.114-.058-.148.1-.345.218-.688.33-1.034.357.284.25.777-.272 1.182Zm-2.416-9.754c-.037.17-.059.326-.1.473-.019.062-.087.107-.134.16-.045-.051-.116-.095-.131-.154a.793.793 0 0 1-.01-.301c.03-.25.11-.285.375-.178ZM47.39 48.87c.02-.228.039-.458.064-.685.056-.503.118-.995.169-1.493a.284.284 0 0 0-.057-.211c-.21-.201-.195-.45-.202-.704-.018-1.197.08-2.388.154-3.582.089-1.443.052-2.894.065-4.342 0-.46-.015-.92 0-1.38 0-.1.113-.286.186-.292.188-.016.253.133.256.32.014.963.05 1.925.052 2.889 0 .648-.022 1.299-.063 1.947-.044.699-.128 1.395-.18 2.092.002.177.018.353.05.526h.083c.024-.083.043-.169.055-.255.018-.302.016-.603.044-.905.037-.402.1-.804.143-1.206.055-.54.073-1.086.158-1.622.255-1.632.22-3.272.148-4.91-.051-1.194-.16-2.386-.24-3.578a1.23 1.23 0 0 1 .017-.35c.032-.139.085-.28.279-.259.194.021.187.174.19.302.01.359-.011.719.006 1.077.056 1.227.135 2.454.183 3.68.02.509-.02 1.018-.023 1.528 0 .19.046.382.034.571-.017.282-.074.56-.1.84-.114 1.14-.217 2.281-.336 3.42-.088.83-.181 1.661-.296 2.489-.114.827-.255 1.646-.393 2.467-.076.479-.166.948-.266 1.422a1.34 1.34 0 0 1-.086.223l-.094-.02Zm.356-4.437h-.064c.021.53-.137 1.059-.018 1.59h.082v-1.59Zm-5.171-18.175c.105.111.136.236-.018.383a.501.501 0 0 0-.107.239c-.05.2-.077.402-.132.603-.054.201 0 .322.247.38.014-.186.03-.357.04-.528.01-.2.076-.379.27-.475.06-.03.16-.069.195-.041a.271.271 0 0 1 .106.207 3.573 3.573 0 0 1-.1.439c-.049.227-.101.454-.134.684 0 .073.025.144.071.2.149.213.155.403 0 .59-.129.157-.247.15-.387 0a.41.41 0 0 0-.241-.136.368.368 0 0 1-.373-.312 8.363 8.363 0 0 1-.133-.864c-.017-.138-.012-.277-.201-.282-.19-.005-.242.125-.234.28.014.255.058.504.055.762a.603.603 0 0 1-.148.308c-.012.016-.139-.065-.216-.084-.118-.029-.246-.08-.356-.056-.224.05-.332-.017-.37-.238a5.813 5.813 0 0 0-.146-.685c-.025-.082-.124-.14-.189-.21-.052.086-.146.172-.148.26-.009.312-.066.634.176.905.118.132.034.378-.118.45-.202.095-.293-.019-.348-.194-.183-.58-.338-1.16-.064-1.76.027-.058-.039-.157-.056-.238-.024-.124-.043-.248-.064-.371.104-.024.21-.042.315-.053.442-.017.883-.029 1.326-.04.308-.007.618 0 .926-.017.187-.023.373-.058.556-.106Zm.446 28.101c.258-.711.544-1.414.765-2.136.24-.78.417-1.578.62-2.369.337-1.307.209-2.644.29-3.968a.622.622 0 0 1 .037-.269c.07-.085.152-.16.244-.222.045.088.129.175.13.264 0 .56.01 1.123-.03 1.68a32.652 32.652 0 0 1-.247 2.42c-.075.502-.246 1-.381 1.496-.076.281-.156.563-.25.838a47.451 47.451 0 0 1-.603 1.695c-.07.187-.164.365-.28.528-.05.069-.18.08-.275.117l-.02-.074Zm1.151-.278a1.719 1.719 0 0 1 .028-.336c.13-.392.308-.773.402-1.173.122-.519.18-1.053.269-1.58a.59.59 0 0 1 .078-.257.334.334 0 0 1 .217-.085c.03 0 .1.083.094.117-.087.448.174.855.143 1.294 0 .116.01.232.03.346.102-.074.211-.14.325-.194a.63.63 0 0 1 .236.012.635.635 0 0 1-.029.248c-.118.202-.27.38-.387.58-.167.285-.312.584-.47.875-.03.057-.072.107-.129.191l-.256-.301-.551.263Zm2.525-7.008a1.035 1.035 0 0 1-.076-.235c0-1.255.005-2.51.016-3.765 0-.61.01-1.222.034-1.832a.993.993 0 0 1 .137-.416c.033-.062.139-.085.212-.125.034.07.1.139.1.21.014.275.016.552.008.827-.03 1.046-.047 2.092-.108 3.135-.041.684-.152 1.363-.233 2.043-.005.03-.032.057-.09.158Zm-3.491-21.628c-.022.324-.202.37-.415.402-1.025.164-2.05.1-3.074.007a7.363 7.363 0 0 1-1.074-.213c-.088-.02-.156-.117-.234-.18.1-.042.2-.124.301-.12.332.02.665.064.995.112.918.135 1.85.165 2.775.09.114-.008.226-.055.342-.072.115-.017.24-.016.384-.026Zm.159 2.847c.012-.123.024-.314.05-.502a.41.41 0 0 1 .088-.226.997.997 0 0 1 .255-.137.877.877 0 0 1 .12.252c.013.13-.03.267-.017.396.016.16.089.233.248.1.158-.132.272-.112.331.101a.894.894 0 0 1 .018.343c-.026.193-.133.385.09.545.033.023 0 .201-.052.263a.532.532 0 0 1-.321.179c-.08 0-.19-.118-.24-.209-.05-.09 0-.2-.034-.292a.325.325 0 0 0-.156-.193c-.375-.116-.387-.122-.38-.62Zm5.465-.571c-.01.133-.029.265-.053.396-.013.055-.068.1-.101.15-.046-.049-.118-.092-.134-.15a5.306 5.306 0 0 1-.164-.704c-.11-.788-.554-1.353-1.173-1.81a.238.238 0 0 1-.076-.216c.023-.056.161-.124.2-.1.252.12.489.272.704.45.573.534.793 1.217.798 1.984Zm-1.26.729a1.364 1.364 0 0 1-.18.286.172.172 0 0 1-.297-.037c-.2-.402-.503-.755-.555-1.222-.024-.201-.026-.39.185-.468.211-.077.302.076.416.23.265.35.415.773.43 1.211Z" fill="#AC6719"/><path d="M48.342 28.016c-.042.061-.109.186-.126.18-.11-.041-.242-.088-.301-.176-.1-.15-.127-.345-.222-.503-.229-.375-.486-.733-.716-1.106-.043-.07-.01-.185-.013-.28.116.013.301-.018.337.043.293.455.74.818.836 1.396.025.151.127.285.205.446Zm-9.952-.253c.09-.28.169-.55.27-.81.022-.061.124-.092.188-.136.047.073.1.143.134.22a.134.134 0 0 1 0 .1c-.184.493.007.97.055 1.454a.38.38 0 0 1-.007.194.366.366 0 0 1-.164.17c-.027.011-.128-.074-.148-.133-.116-.346-.218-.695-.328-1.06Zm6.611 1.732c.178.201.06.645-.24.97-.253-.209-.145-.667.24-.97Zm-5.038-10.654a1.96 1.96 0 0 1 .206-.35 3.12 3.12 0 0 0 .664-1.273c.045-.155.02-.33.029-.496-.003-.09.007-.18.028-.269a.219.219 0 0 1 .14-.118c.034-.008.102.053.127.1.294.427.22.876 0 1.281-.178.323-.446.604-.692.879a2.702 2.702 0 0 1-.402.317l-.1-.07Zm.545-5.115c0-.142-.037-.26.006-.322.443-.642.604-1.362.625-2.125 0-.064.08-.126.121-.19.055.054.153.107.155.163.013.364.056.737-.007 1.09-.097.551-.396 1.006-.9 1.383Zm-1.72 4.692c-.02-.07-.07-.146-.049-.182.074-.136.165-.262.27-.375.354-.353.516-.804.705-1.25.064-.123.15-.232.255-.323a.163.163 0 0 1 .156.008.186.186 0 0 1 .05.151 3.08 3.08 0 0 1-1.282 1.917c-.02.01-.043.02-.105.054Zm.738-6.909c.079.51-.188.905-.41 1.312a1.127 1.127 0 0 1-.193.314c-.085.075-.218.096-.33.141a2.17 2.17 0 0 1 .058-.254c.173-.511.345-1.022.528-1.529.047-.087.107-.167.177-.237l.233.223-.063.03Zm-1.874 6.636 1.106-1.585a.33.33 0 0 1 .1-.11c.09-.04.182-.076.276-.106 0 .11.042.237 0 .33a3.29 3.29 0 0 1-.94 1.23 2.378 2.378 0 0 1-.478.267c-.022.01-.07-.027-.064-.026Zm2.401-6.719c.072.093.133.194.181.302a1.3 1.3 0 0 1-.172 1.074 3.42 3.42 0 0 1-.383.486c-.032.035-.123.016-.188.023 0-.069-.036-.159-.005-.2.285-.406.441-.888.449-1.383.003-.08.06-.157.118-.302Zm-3.149 6.26c.067-.1.088-.137.111-.169.255-.36.512-.719.77-1.077.032-.048.066-.11.113-.13.086-.027.174-.046.264-.055.008.092.055.201.02.272a3.292 3.292 0 0 1-.995 1.17c-.048.035-.155-.004-.283-.011Zm-1.701 2.816c.08-.222.148-.45.247-.662.025-.054.15-.062.228-.09.019.075.068.157.05.221-.095.345-.157.681.056 1.006a.176.176 0 0 1-.042.167.276.276 0 0 1-.221.005c-.218-.145-.292-.372-.318-.647Zm.945-.482c.07.109.136.221.194.338.114.282.212.572.328.854.056.133.017.201-.113.201a.286.286 0 0 1-.207-.067c-.235-.31-.433-.642-.352-1.056.038-.096.089-.186.15-.27Zm.712.691.238-.313c.073.1.18.184.212.292.063.234.107.473.133.714.009.07-.046.147-.072.221-.071-.033-.184-.048-.208-.1-.11-.256-.196-.521-.303-.814ZM3.807 10.712c-.067.503-.127.99-.2 1.472-.008.05-.11.127-.15.118-.065-.014-.164-.092-.163-.142 0-.302.023-.613.056-.917.028-.104.066-.205.116-.302a.295.295 0 0 1 .341-.229ZM2.42 12.008c.071-.322.13-.65.226-.966a.342.342 0 0 1 .252-.201c.163.01.148.159.116.292l-.301 1.284c-.012.047-.068.082-.1.123-.048-.041-.127-.076-.136-.124a2.868 2.868 0 0 1-.027-.396l-.03-.012Zm4.886-5.464c.01.063.016.127.016.19a.254.254 0 0 1-.056.135c-.244.284-.49.569-.746.843-.04.045-.13.047-.21.073.114-.631.55-1.174.996-1.241Zm-.404 1.389c.023-.416.164-.713.457-.92a.72.72 0 0 1 .23-.065c.007.093.057.235.015.274a1.533 1.533 0 0 0-.49.79c-.007.028-.12.065-.136.048a.363.363 0 0 1-.076-.127Z" fill="#AC6719"/><path d="m31.86 70.235.044-.412.123.013-.045.403-.121-.004ZM12.22 79.41l.516.023v.079h-.517l.001-.102Zm.753-25.064a.37.37 0 0 1 .488-.146.303.303 0 0 1 .135.25.302.302 0 0 1-.18.221c-.244.046-.34-.15-.444-.325Zm3.284-47.535-.395.033-.008-.117.402-.022.001.106Zm31.488 37.622v1.589h-.081c-.119-.532.04-1.061.018-1.591l.063.002Z" fill="#fff"/></svg>