<svg width="207" height="105" fill="none" xmlns="http://www.w3.org/2000/svg"><path d="M9.194 83.286a10.854 10.854 0 0 1-3.94-1.637C2.287 79.64.814 76.56.834 72.409v-.468a10.226 10.226 0 0 1 0-.245v.245c.019 1.593.41 3.16 1.144 4.576a10.16 10.16 0 0 0 3.276 3.706 10.856 10.856 0 0 0 3.94 1.637 29.43 29.43 0 0 0 6.15.28 6.464 6.464 0 0 1 3.29.493c.223.133.417.311.57.522a4.39 4.39 0 0 1-.59.904 6.465 6.465 0 0 0-3.27-.482 29.332 29.332 0 0 1-6.15-.291ZM63.797 5.82c-.137.21-.324.383-.543.504l-.28-.583v-.07l.25-.19c.316-.196.569-.479.73-.814.06.143.09.296.09.452-.025.25-.11.49-.247.7ZM19.204 57.424a5.584 5.584 0 0 0-2.52 2.009c-.03.059-.057.12-.08.18a3.015 3.015 0 0 1-.43-.602 4.81 4.81 0 0 1 .55-1.004 5.634 5.634 0 0 1 2.52-2.009c2.18-.904 4.39-.552 6.65 1.105a18.412 18.412 0 0 0 3.1 2.009 2.52 2.52 0 0 0 1.83-.211 4.891 4.891 0 0 0 2.3-2.32 7.789 7.789 0 0 0 .9-3.134c.015.284.015.57 0 .854a7.789 7.789 0 0 1-.94 3.706 4.89 4.89 0 0 1-2.3 2.32 2.47 2.47 0 0 1-1.83.21 18.412 18.412 0 0 1-3.1-2.008c-2.26-1.657-4.47-2.029-6.65-1.105Z" fill="#fff"/><path d="M53.654 7.378a2.146 2.146 0 0 0-1.22-.572 1.048 1.048 0 0 1-.904-.752 1.06 1.06 0 0 1-.036-.413c.008-.136.031-.271.07-.402a1.005 1.005 0 0 0 .87.703 2.15 2.15 0 0 1 1.22.573 5.458 5.458 0 0 1 1 1.617l6.4 14.15c.172.428.39.836.65 1.216.193.245.434.447.71.592.414.226.879.34 1.35.332a2.234 2.234 0 0 0 1.5-.512 6.028 6.028 0 0 0 1.25-1.858l7.17-14.593a5.165 5.165 0 0 1 1.19-1.778 3.26 3.26 0 0 1 1.24-.311 1.326 1.326 0 0 0 1.28-.924c.04.147.06.299.06.452 0 .783-.45 1.225-1.34 1.336a2.99 2.99 0 0 0-1.24.32 5.094 5.094 0 0 0-1.19 1.769l-7.17 14.593a6.03 6.03 0 0 1-1.25 1.857 2.235 2.235 0 0 1-1.5.513 2.721 2.721 0 0 1-1.35-.332 2.202 2.202 0 0 1-.71-.582 6.872 6.872 0 0 1-.65-1.226l-6.4-14.14a5.41 5.41 0 0 0-1-1.628Zm61.3 10.385a3.536 3.536 0 0 1-.7-.773h7.39a1.246 1.246 0 0 0 1.1-.653c.234-.403.364-.859.38-1.326.01.174.01.349 0 .523a3.027 3.027 0 0 1-.42 1.677 1.438 1.438 0 0 1-.6.532 1.142 1.142 0 0 0-.84-.492c-.34.04-.66.18-.92.402a2.919 2.919 0 0 1-.35.2h-4.9l-.14-.09Zm.35 7.553a8.077 8.077 0 0 1-5.5-1.918 7.837 7.837 0 0 1-1.76-2.27 8.06 8.06 0 0 1-.92-3.736v-.382a8.143 8.143 0 0 0 .89 3.254 7.833 7.833 0 0 0 1.79 2.27 8.127 8.127 0 0 0 5.5 1.918 9.305 9.305 0 0 0 5.74-1.868 3.254 3.254 0 0 0 1.33-1.717c.047.129.074.264.08.401a2.87 2.87 0 0 1-1.41 2.18 9.305 9.305 0 0 1-5.74 1.868Zm.19-13.237a1.636 1.636 0 0 0-1.05.351.994.994 0 0 1-.57-.14.207.207 0 0 1 0-.07c.059-.109.126-.213.2-.312a1.732 1.732 0 0 1 2.019-.575c.234.091.446.233.621.414.095.108.179.226.25.352a.655.655 0 0 1-.47.311 1.657 1.657 0 0 0-1-.331Zm-40.58 5.313v-.382a7.99 7.99 0 0 0 .92 3.254 7.817 7.817 0 0 0 1.78 2.27 8.148 8.148 0 0 0 5.51 1.918 9.303 9.303 0 0 0 5.74-1.868 3.302 3.302 0 0 0 1.33-1.717c.043.13.067.265.07.401a2.882 2.882 0 0 1-1.4 2.18 9.303 9.303 0 0 1-5.74 1.868 8.098 8.098 0 0 1-5.51-1.918 7.816 7.816 0 0 1-1.78-2.27 8.063 8.063 0 0 1-.92-3.736Zm7.83.391a3.288 3.288 0 0 1-.7-.773h7.39a1.235 1.235 0 0 0 1.09-.653 2.83 2.83 0 0 0 .39-1.325c.01.173.01.348 0 .522a3.023 3.023 0 0 1-.43 1.677c-.142.23-.347.415-.59.532a1.144 1.144 0 0 0-.85-.492 1.736 1.736 0 0 0-.91.402 3.062 3.062 0 0 1-.36.2h-4.89l-.14-.09Zm12.79.894a16.13 16.13 0 0 0-1.55-1.556l-.07-.02a1.586 1.586 0 0 0-.65-.272 4.554 4.554 0 0 1-.67-2.41v-.442a4.55 4.55 0 0 0 1.08 2.631 11.552 11.552 0 0 0 3.64 2.561c.265.126.514.285.74.472a1.116 1.116 0 0 1-.68.211 1.565 1.565 0 0 1-.84-.24 5.857 5.857 0 0 1-1-.935Zm9.79-4.308c-.258.231-.585.37-.93.391l-.03-.02a14.507 14.507 0 0 0-3.73-2.3 3.583 3.583 0 0 1-1.08-.693c.181-.147.406-.232.64-.24a2.789 2.789 0 0 1 1.66 1.004 9.99 9.99 0 0 0 1.38 1.185c.302.178.649.269 1 .26a1.478 1.478 0 0 0 1.09-.411 1.35 1.35 0 0 0 .37-.693c.041.168.064.34.07.512a1.396 1.396 0 0 1-.44 1.005Z" fill="#fff"/><path d="M68.814 6.103h-.08v-.05a1.129 1.129 0 0 1-.81-1.086 1.123 1.123 0 0 1 .1-.471c.15.306.4.55.71.693.136.064.264.145.38.241-.07.15-.16.372-.3.673Zm14.42 5.996a1.615 1.615 0 0 0-1 .351l-.03-.02a.916.916 0 0 1-.59-.12.25.25 0 0 1 0-.07c.056-.111.123-.215.2-.312a1.602 1.602 0 0 1 1.38-.693 1.624 1.624 0 0 1 1.26.532c.095.108.18.226.25.352a.673.673 0 0 1-.47.311 1.676 1.676 0 0 0-1-.331Z" fill="#fff"/><path d="M17.034 45.232a22.303 22.303 0 0 1 7.61-1.437 2.81 2.81 0 0 0 .9-.17c.6-.4 1.165-.85 1.69-1.346.294-.262.633-.47 1-.613 1.26-.529 2.593.14 4 2.009a10.072 10.072 0 0 1 2.1 6.177 7.791 7.791 0 0 1-.94 3.706 4.892 4.892 0 0 1-2.3 2.32 2.47 2.47 0 0 1-1.83.21 18.408 18.408 0 0 1-3.1-2.008c-2.26-1.657-4.47-2.009-6.65-1.105a5.713 5.713 0 0 0-2.53 2.009 4.935 4.935 0 0 0-.94 2.882c0 2.009 1.436 2.93 4.31 2.762 2.485-.22 4.985-.22 7.47 0 4.793.864 7.19 4.104 7.19 9.722a23.99 23.99 0 0 1-4.91 14.252 30.461 30.461 0 0 1-13.19 10.384 32.643 32.643 0 0 1-7.61 2.15c-2.67.411-4.59.401-5.78-.06-.9-.362-1.71-1.644-2.43-3.847a21.659 21.659 0 0 1-1.09-6.87 6.34 6.34 0 0 1 .56-2.832 3.686 3.686 0 0 1 1.78-1.868 1.803 1.803 0 0 1 2.06.492 30.747 30.747 0 0 1 2.79 3.756 4.627 4.627 0 0 0 3.31 1.858 8.687 8.687 0 0 0 4.69-.693 8.911 8.911 0 0 0 3.38-2.4 4.62 4.62 0 0 0 1.3-3.013 2.098 2.098 0 0 0-1-2.009 6.346 6.346 0 0 0-3.29-.502 28.793 28.793 0 0 1-6.15-.281 10.854 10.854 0 0 1-3.94-1.637c-2.974-2.009-4.46-5.089-4.46-9.24.03-2.212.421-4.404 1.16-6.488a25.522 25.522 0 0 1 3.27-6.438 26.419 26.419 0 0 1 11.57-9.832Zm37.2 9.32V65.78c0 5.022.07 7.854.19 8.638a1.841 1.841 0 0 0 1.46 1.536 3.174 3.174 0 0 1 1.45.693c.278.379.41.847.37 1.316a4.25 4.25 0 0 1-.69 2.26A5.21 5.21 0 0 1 55.174 82a27.21 27.21 0 0 1-7.13 2.501c-3.78.917-6.43 1.222-7.95.914a2.897 2.897 0 0 1-1.73-1.004 2.729 2.729 0 0 1-.68-1.848 2.362 2.362 0 0 1 .37-1.376 7.292 7.292 0 0 1 1.6-1.477c.76-.582 1.23-1.777 1.4-3.595.32-3.107.476-7.459.47-13.056a83.71 83.71 0 0 0-.41-10.887 3.918 3.918 0 0 0-2-3.133 4.14 4.14 0 0 1-1.69-1.186 3.024 3.024 0 0 1-.45-1.727 5.033 5.033 0 0 1 1.38-3.325 18.154 18.154 0 0 1 4.4-3.435 50.155 50.155 0 0 1 5.16-2.631 30.407 30.407 0 0 1 4.7-1.798c1.54-.381 2.32.583 2.32 2.863 0 .743-.1 2.48-.3 5.212-.22 4.212-.354 8.058-.4 11.54Zm22.24-10.405a12.1 12.1 0 0 1 8.81 2.15 7.79 7.79 0 0 1 2.63 3.494c.58 1.857.837 3.8.76 5.745l-.06 5.223c0 3.615.22 5.935.66 6.96.117.357.332.673.62.914.4.163.828.248 1.26.25.63.05 1 .513 1 1.377a7.152 7.152 0 0 1-1.15 3.615 11.693 11.693 0 0 1-3 3.355 8.98 8.98 0 0 1-4.68 2.008 5.199 5.199 0 0 1-2.778-.306 5.223 5.223 0 0 1-2.222-1.702c-.42-.563-.81-.824-1.16-.794a3.188 3.188 0 0 0-1.59 1.005 11.36 11.36 0 0 1-6.77 3.264 8.968 8.968 0 0 1-6.33-1.306 7.658 7.658 0 0 1-2.51-3.113 9.888 9.888 0 0 1-.93-4.259 10.38 10.38 0 0 1 2.51-6.699c2.613-3.2 6.513-5.088 11.7-5.664a3.988 3.988 0 0 0 2.18-.633 2.812 2.812 0 0 0 .45-1.918 15.066 15.066 0 0 0-.66-5.293 2.008 2.008 0 0 0-.81-1.11 1.994 1.994 0 0 0-1.33-.326 2.566 2.566 0 0 0-1.6.793 13.188 13.188 0 0 0-1.75 2.491c-1.767 3.147-3.617 4.82-5.55 5.022a2.8 2.8 0 0 1-2.39-.764 3.427 3.427 0 0 1-.93-2.56 6.547 6.547 0 0 1 1.15-3.486 12.76 12.76 0 0 1 3.12-3.264 23.253 23.253 0 0 1 11.35-4.469Zm1.79-15.336a11.274 11.274 0 0 1 4.84.432 3.79 3.79 0 0 1 1.7 1.125c.41.433.635 1.009.63 1.607-.04 1.084-.887 2.443-2.54 4.077a16.276 16.276 0 0 1-10 5.142c-2.05.211-3.08-.542-3.08-2.27-.027-.5.08-1 .31-1.446a15.98 15.98 0 0 1 1.81-2.008 20.6 20.6 0 0 0 1.64-1.688 1.46 1.46 0 0 0 .3-.893 2.579 2.579 0 0 0-.36-1.005 1.139 1.139 0 0 1-.12-.512c0-.583.45-1.115 1.35-1.597a9.837 9.837 0 0 1 3.52-.964Zm-3.79 35.794a3.18 3.18 0 0 0-2.28 1.497 5.238 5.238 0 0 0-1 3.113c-.05.945.202 1.881.72 2.672a1.873 1.873 0 0 0 1.82.843c1.586-.174 2.383-1.83 2.39-4.971a6.212 6.212 0 0 0-.34-2.561 1.261 1.261 0 0 0-1.31-.593Zm54.67-30.301v31.938a18.709 18.709 0 0 0 .2 3.515 3.18 3.18 0 0 0 1.09 1.567 6.74 6.74 0 0 1 1.45 1.627 3.37 3.37 0 0 1 .38 1.627c0 1.868-1.607 3.207-4.82 4.018-2.844.68-5.771.94-8.69.773a1.775 1.775 0 0 1-1.24-.402 3.35 3.35 0 0 1-.37-1.617c-.1-1.195-.46-1.808-1.08-1.848-.34 0-.87.291-1.59 1.005a9.094 9.094 0 0 1-6.79 2.5 11.965 11.965 0 0 1-4.64-1.4 12.01 12.01 0 0 1-3.71-3.13 22.715 22.715 0 0 1-5.33-14.17 19.946 19.946 0 0 1 2.33-9.37 14.536 14.536 0 0 1 5.87-6.157 11.292 11.292 0 0 1 6.14-1.527 11.67 11.67 0 0 1 6.22 2.19c.21.166.457.28.72.331.667 0 1-.984 1-2.953a3.342 3.342 0 0 0-.52-2.008 4.422 4.422 0 0 0-1.87-1.286 2.679 2.679 0 0 1-1.363-.97 2.697 2.697 0 0 1-.527-1.591c0-1.707 1.45-2.943 4.34-3.726 5.113-1.34 8.537-1.965 10.27-1.878 1.67.03 2.53 1.034 2.53 2.942Zm-16.23 16.632c-1.333-.08-2.363.663-3.09 2.23a19.339 19.339 0 0 0-1.52 8.366 14.644 14.644 0 0 0 1.46 7.261 3.438 3.438 0 0 0 2.85 1.919c1.3.08 2.24-.744 2.83-2.471a28.856 28.856 0 0 0 .88-8.467c0-3.582-.35-5.992-1.05-7.23a2.924 2.924 0 0 0-2.36-1.608Zm48.3 19.655-13.82-3.184c-.61-.14-.92.1-.92.734a7.606 7.606 0 0 0 2.08 4.76 8.367 8.367 0 0 0 4.45 3.013 8.563 8.563 0 0 0 3.14.07 7.581 7.581 0 0 0 2.83-.934 2.284 2.284 0 0 1 1.59-.472c.51.11 1 .603 1.5 1.456a4.67 4.67 0 0 1 .565 3.805 4.668 4.668 0 0 1-2.475 2.935 13.395 13.395 0 0 1-10.79 1.677 18.219 18.219 0 0 1-10.35-6.659 24.095 24.095 0 0 1-5.09-14.563 16.002 16.002 0 0 1 3-9.882 11.899 11.899 0 0 1 6.58-4.53 13.286 13.286 0 0 1 6.5 0 17.244 17.244 0 0 1 9.5 5.966 20.388 20.388 0 0 1 3.18 5.212 15.61 15.61 0 0 1 1.38 6.026 6.696 6.696 0 0 1-.79 3.546 1.828 1.828 0 0 1-.849.88 1.812 1.812 0 0 1-1.211.144Zm-13.06-9.551 3 .683c1.26.291 1.88-.251 1.88-1.627a5.87 5.87 0 0 0-.91-3.294 3.863 3.863 0 0 0-2.38-1.738 2.303 2.303 0 0 0-2.59.944 4.538 4.538 0 0 0-.88 2.702 2.376 2.376 0 0 0 .43 1.567c.388.405.897.673 1.45.763Zm34.2-12.795-.25 10.826v4.821c0 2.35 0 3.756.09 4.198a2.298 2.298 0 0 0 1.17 2.009 3.758 3.758 0 0 0 2.55-.221c1.16-.362 1.73-.773 1.73-1.215a5.54 5.54 0 0 0-.61-1.677 3.896 3.896 0 0 1-.45-1.608c0-2.517 2.473-2.638 7.42-.361a24.124 24.124 0 0 1 6.08 3.776 6.511 6.511 0 0 1 1.48 2.009c.364.713.562 1.5.58 2.3 0 1.004-.4 1.597-1.2 1.647a8.789 8.789 0 0 1-1.61-.281 5.648 5.648 0 0 0-3.18.442c-1.3.482-2 1.004-2 1.456a40.632 40.632 0 0 0 2.35 5.684c1.573 3.469 3.036 6.529 4.39 9.18.88 1.727 1.56 3.013 2.05 3.746a25.519 25.519 0 0 0 2.05 2.652c1.333 1.526 2 2.865 2 4.017 0 1.235-.42 2.009-1.27 2.32a4.744 4.744 0 0 1-3.47-.542l-9-4.168a5.63 5.63 0 0 1-2.65-2.792l-4.62-9.511c-1.23-2.521-2-4.018-2.25-4.53-.25-.512-.49-.793-.68-.874-.19-.08-.37 0-.45.422-.093.773-.13 1.552-.11 2.33a8.305 8.305 0 0 0 .28 2.42c.331.823.761 1.602 1.28 2.32.496.738.751 1.612.73 2.501 0 1.637-.69 2.501-2.06 2.582-1.37.08-3.65-.593-6.81-2.01a39.554 39.554 0 0 1-7.25-3.926 6.31 6.31 0 0 1-1.61-2.16 5.896 5.896 0 0 1-.67-2.57 1.72 1.72 0 0 1 1.17-1.768 3.68 3.68 0 0 0 1.28-.633c.247-.328.403-.716.45-1.125.51-4.923.714-9.874.61-14.824v-7.663a25.986 25.986 0 0 0-.32-5.152 3.35 3.35 0 0 0-1.58-2.009 4.09 4.09 0 0 1-2.28-3.505 2.065 2.065 0 0 1 1-1.928 6.484 6.484 0 0 1 3.29-.603c4.873 0 8.48.53 10.82 1.587a2.39 2.39 0 0 1 1.53 2.41ZM73.914 5.982l-7.17 14.583a5.896 5.896 0 0 1-1.25 1.858 2.234 2.234 0 0 1-1.51.513 2.71 2.71 0 0 1-1.34-.332 2.2 2.2 0 0 1-.71-.582 7.043 7.043 0 0 1-.65-1.216l-6.37-14.15a5.549 5.549 0 0 0-1-1.628 2.146 2.146 0 0 0-1.22-.572 1.047 1.047 0 0 1-.904-.753 1.06 1.06 0 0 1-.036-.412c0-.804.54-1.426 1.64-1.858a13.307 13.307 0 0 1 4.71-.653 16.64 16.64 0 0 1 4.69.482c1 .335 1.5.837 1.5 1.507a1.541 1.541 0 0 1-.82 1.225c-.41.291-.62.552-.62.803.027.35.123.691.28 1.005l2 4.429c.28.643.59 1.004.95 1.004a1.178 1.178 0 0 0 .92-.522c.434-.63.803-1.303 1.1-2.009.82-1.828 1.3-2.902 1.43-3.234.116-.236.187-.491.21-.753 0-.362-.25-.663-.74-.914a1.24 1.24 0 0 1-.81-1.085c0-1.245 1.667-1.868 5-1.868 1.184-.064 2.37.072 3.51.402a1.39 1.39 0 0 1 1 1.376c0 .773-.45 1.215-1.34 1.326a2.99 2.99 0 0 0-1.24.321 5.163 5.163 0 0 0-1.21 1.707Zm15.71 9.532h-7.35c-.32 0-.48.14-.48.421a2.498 2.498 0 0 0 1.1 1.919 3.65 3.65 0 0 0 2.37.904 5.31 5.31 0 0 0 1.66-.292 5.428 5.428 0 0 0 1.51-.713c.239-.201.53-.33.84-.371a.997.997 0 0 1 .8.502c.238.281.376.635.39 1.004a2.88 2.88 0 0 1-1.4 2.18 9.302 9.302 0 0 1-5.74 1.867 8.148 8.148 0 0 1-5.51-1.908 8.033 8.033 0 0 1-1.996-2.721 8.065 8.065 0 0 1-.704-3.305 7.655 7.655 0 0 1 1.59-4.74 8.383 8.383 0 0 1 3.51-2.652 8.697 8.697 0 0 1 3.45-.672 7.698 7.698 0 0 1 5.05 1.677 6.772 6.772 0 0 1 1.69 2.008 5.26 5.26 0 0 1 .74 2.572 2.963 2.963 0 0 1-.43 1.677 1.263 1.263 0 0 1-1.09.643Zm-6.94-2.943h1.58c.66 0 1-.301 1-.924a2.014 2.014 0 0 0-.49-1.386 1.63 1.63 0 0 0-1.26-.532 1.594 1.594 0 0 0-1.38.693 2.225 2.225 0 0 0-.47 1.305.808.808 0 0 0 .23.653c.234.152.512.22.79.19Zm15.73-5.665c.858.041 1.711.155 2.55.342.194.036.392.057.59.06a3.67 3.67 0 0 0 1-.281 1.8 1.8 0 0 1 .61-.14 1.998 1.998 0 0 1 1.46.923 7.17 7.17 0 0 1 1 1.617c.222.48.348.998.37 1.527a1.382 1.382 0 0 1-.44 1.004 1.51 1.51 0 0 1-1.09.422 1.791 1.791 0 0 1-1-.271 10.31 10.31 0 0 1-1.38-1.175 2.74 2.74 0 0 0-1.66-1.005 1.088 1.088 0 0 0-1.08 1.085c0 .512.49 1.004 1.47 1.436a13.753 13.753 0 0 1 4.05 2.612 4.036 4.036 0 0 1 1.19 2.922 4.448 4.448 0 0 1-1.91 3.646 6.372 6.372 0 0 1-4 1.265 19.914 19.914 0 0 1-2.22-.2c-1-.111-1.58-.171-1.7-.171a2.794 2.794 0 0 0-.47 0c-.218.04-.439.064-.66.07-.42.02-.834-.115-1.16-.382a5.316 5.316 0 0 1-1.18-1.828 5.444 5.444 0 0 1-.55-2.139c0-1.004.37-1.446 1.12-1.446a1.22 1.22 0 0 1 .81.291 18.684 18.684 0 0 1 1.54 1.547 5.58 5.58 0 0 0 1.06.944c.271.174.588.265.91.261.3.014.595-.083.83-.271a.924.924 0 0 0 .31-.733c0-.472-.4-.904-1.2-1.286a11.241 11.241 0 0 1-3.64-2.56 4.612 4.612 0 0 1-1.12-3.014 4.803 4.803 0 0 1 1.15-3.224 5.479 5.479 0 0 1 4.44-1.848Zm23.5 8.608h-7.4c-.32 0-.48.14-.48.421a2.524 2.524 0 0 0 1.1 1.919 3.65 3.65 0 0 0 2.37.904 6.29 6.29 0 0 0 3.17-1.005c.242-.202.537-.331.85-.371a1 1 0 0 1 .79.502c.245.278.386.633.4 1.004a2.87 2.87 0 0 1-1.41 2.18 9.305 9.305 0 0 1-5.74 1.867 8.117 8.117 0 0 1-5.5-1.908 8.024 8.024 0 0 1-2.001-2.72 8.065 8.065 0 0 1-.709-3.306 7.607 7.607 0 0 1 1.6-4.74 8.29 8.29 0 0 1 3.5-2.722 8.697 8.697 0 0 1 3.45-.673 7.699 7.699 0 0 1 5.01 1.748 6.628 6.628 0 0 1 1.69 2.008 5.26 5.26 0 0 1 .74 2.572 3.026 3.026 0 0 1-.42 1.677 1.288 1.288 0 0 1-1.01.643Zm-7-2.943h1.58c.67 0 1-.301 1-.924a2.014 2.014 0 0 0-.49-1.386 1.739 1.739 0 0 0-2.074-.326 1.73 1.73 0 0 0-.566.486 2.22 2.22 0 0 0-.47 1.306.797.797 0 0 0 .23.653c.234.152.513.22.79.19Zm18.41-2.481v5.022c-.034 1.3.003 2.6.11 3.897a1.144 1.144 0 0 0 .77.843c.283.11.543.27.77.472a.94.94 0 0 1 .2.633 1.41 1.41 0 0 1-.37.944 1.91 1.91 0 0 1-1 .593 14.477 14.477 0 0 1-3.8.341 13.622 13.622 0 0 1-4.23-.452 2.109 2.109 0 0 1-.93-.633 1.406 1.406 0 0 1-.36-.904.826.826 0 0 1 .2-.582 2.75 2.75 0 0 1 .85-.492c.41-.17.66-.663.75-1.456.195-1.932.279-3.874.25-5.815a32.5 32.5 0 0 0-.22-4.922 2.346 2.346 0 0 0-1.09-1.637 2.872 2.872 0 0 1-.9-.713 1.402 1.402 0 0 1-.24-.823 1.665 1.665 0 0 1 .73-1.346 7.556 7.556 0 0 1 2.35-1.065 26.264 26.264 0 0 1 2.8-.622c.824-.165 1.66-.266 2.5-.302.82 0 1.23.512 1.23 1.537 0 .341-.05 1.105-.15 2.31a95.897 95.897 0 0 0-.22 5.172Zm17.67 4.55-2.08 5.694a22.8 22.8 0 0 1-1.54 3.455 10.125 10.125 0 0 1-1.76 2.29 6.868 6.868 0 0 1-4.9 1.948 5.604 5.604 0 0 1-3.75-1.225 3.018 3.018 0 0 1-1.11-2.4 2.846 2.846 0 0 1 .78-2.009 2.478 2.478 0 0 1 1.9-.823 2.329 2.329 0 0 1 1.81.753c.18.177.329.385.44.613.073.18.183.572.33 1.175a.772.772 0 0 0 .78.693.997.997 0 0 0 .81-.422c.216-.29.332-.643.33-1.005a6.931 6.931 0 0 0-.81-2.46l-3.77-8.035a7.935 7.935 0 0 0-.89-1.577 4.584 4.584 0 0 0-1.32-.763 1.17 1.17 0 0 1-.54-.502 1.35 1.35 0 0 1-.22-.713c0-.93.92-1.564 2.76-1.898 1.391-.234 2.8-.345 4.21-.332a7.859 7.859 0 0 1 2.61.352 1.6 1.6 0 0 1 1.28 1.546c-.029.34-.153.664-.36.934a1.618 1.618 0 0 0-.34.894c.002.27.056.535.16.784.11.27.35.733.7 1.376.35.642.75 1.104 1.05 1.104.3 0 .65-.321 1-1.004a4.036 4.036 0 0 0 .51-1.868 1.756 1.756 0 0 0-.39-1.175 2.08 2.08 0 0 1-.59-1.205c0-.533.35-1.005 1.06-1.286a7.202 7.202 0 0 1 2.85-.472c2.21 0 3.31.532 3.31 1.597a1.3 1.3 0 0 1-.33.934 3.248 3.248 0 0 1-1.23.673 2.392 2.392 0 0 0-1.19.934 19.114 19.114 0 0 0-1.56 3.425ZM147.224.097a7.131 7.131 0 0 1 2.54.422c.337.123.642.322.89.582a1.066 1.066 0 0 1 .33.754c0 .482-.47 1.004-1.33 1.717a8.33 8.33 0 0 1-5.22 1.838c-1.08 0-1.62-.392-1.62-1.165a1.007 1.007 0 0 1 .17-.633c.287-.3.602-.572.94-.813.303-.206.59-.435.86-.683a.517.517 0 0 0 .16-.382 1.108 1.108 0 0 0-.19-.472.483.483 0 0 1-.06-.241c0-.261.24-.472.7-.653a5.68 5.68 0 0 1 1.83-.281v.01Z" fill="#B9924F"/></svg>