<svg width="32" height="32" fill="none" xmlns="http://www.w3.org/2000/svg"><path d="M29.188 4.75H2.813A2.816 2.816 0 0 0 0 7.563v16.875a2.816 2.816 0 0 0 2.813 2.812h26.375A2.816 2.816 0 0 0 32 24.437V7.563a2.816 2.816 0 0 0-2.813-2.812Zm-.432 1.875-12.03 12.068c-.366.368-1.086.368-1.452 0L3.244 6.625h25.512ZM1.875 24.093V7.907L9.942 16l-8.067 8.093Zm1.37 1.282 8.02-8.047 2.68 2.69c1.099 1.101 3.011 1.1 4.11 0l2.68-2.69 8.02 8.047H3.246Zm26.88-1.282L22.058 16l8.067-8.093v16.186Z" fill="#36332F"/></svg>