<svg width="25" height="24" fill="none" xmlns="http://www.w3.org/2000/svg"><g clip-path="url(#a)" fill="#36332F"><path d="M19.885 14.867c-.492-.512-1.084-.785-1.713-.785-.623 0-1.22.268-1.732.78l-1.6 1.596c-.132-.071-.264-.137-.39-.203a6.359 6.359 0 0 1-.502-.268c-1.5-.953-2.862-2.194-4.169-3.8-.633-.8-1.059-1.473-1.367-2.157.415-.38.8-.775 1.175-1.155.142-.142.283-.289.425-.43 1.064-1.064 1.064-2.442 0-3.506L8.63 3.556a19.364 19.364 0 0 1-.47-.481 23.915 23.915 0 0 0-.953-.942c-.491-.486-1.079-.745-1.697-.745-.618 0-1.216.259-1.722.745l-.01.01L2.054 3.88A3.706 3.706 0 0 0 .955 6.236c-.121 1.479.314 2.857.649 3.758.82 2.214 2.046 4.265 3.875 6.464 2.218 2.649 4.888 4.74 7.937 6.215 1.165.552 2.72 1.205 4.458 1.317.106.005.217.01.319.01 1.17 0 2.152-.42 2.922-1.256.006-.01.016-.015.02-.026.264-.319.568-.607.887-.916.218-.208.44-.426.659-.654.501-.521.764-1.13.764-1.752 0-.629-.268-1.231-.78-1.738l-2.78-2.79Zm1.813 5.334c-.005 0-.005.005 0 0-.198.213-.4.405-.618.618-.33.314-.664.643-.978 1.013-.511.547-1.114.805-1.904.805-.076 0-.157 0-.233-.005-1.505-.096-2.903-.684-3.951-1.185-2.867-1.388-5.385-3.358-7.477-5.855C4.81 13.51 3.655 11.585 2.89 9.518c-.47-1.261-.643-2.244-.567-3.17.05-.593.279-1.085.699-1.505l1.727-1.728c.248-.233.512-.36.77-.36.32 0 .578.193.74.355l.015.016c.309.288.603.587.912.906.157.162.319.325.48.492L9.05 5.907c.537.536.537 1.033 0 1.57-.147.147-.289.294-.436.435-.425.436-.83.841-1.271 1.236-.01.01-.02.016-.026.026-.435.435-.354.86-.263 1.15l.015.045c.36.871.866 1.692 1.636 2.67l.005.005c1.398 1.722 2.872 3.064 4.498 4.092.208.132.42.239.623.34.183.091.355.177.502.268.02.01.04.026.06.036.173.086.335.126.502.126.42 0 .684-.263.77-.35l1.733-1.732c.172-.172.445-.38.764-.38.314 0 .573.198.73.37a.967.967 0 0 1 .01.01l2.79 2.792c.523.516.523 1.048.006 1.585ZM13.887 5.709a6.423 6.423 0 0 1 3.495 1.813 6.457 6.457 0 0 1 1.814 3.495.68.68 0 0 0 .673.568c.04 0 .076-.005.117-.01a.685.685 0 0 0 .562-.79 7.814 7.814 0 0 0-2.193-4.23 7.813 7.813 0 0 0-4.23-2.193.687.687 0 0 0-.79.557c-.066.37.177.73.552.79Zm11.003 4.878a12.853 12.853 0 0 0-3.613-6.965A12.853 12.853 0 0 0 14.313.01a.681.681 0 0 0-.786.558.687.687 0 0 0 .563.79c2.36.4 4.513 1.52 6.225 3.226a11.475 11.475 0 0 1 3.227 6.226.68.68 0 0 0 .673.567c.041 0 .076-.005.117-.01a.671.671 0 0 0 .557-.78Z"/></g><defs><clipPath id="a"><path fill="#fff" transform="translate(.917)" d="M0 0h24v24H0z"/></clipPath></defs></svg>