<svg width="824" height="599" fill="none" xmlns="http://www.w3.org/2000/svg"><path opacity=".5" d="M383.979 575.107a19.396 19.396 0 0 0-4.173 6.109c6.28 1.73 2.451 3.852-.2 3.984-8.132.388-3.195 18.071-15.353 11.309-3.691-2.052-.815-5.808 1.44-9.673 3.202-5.483-4.328-12.38-7.974-11.205-16.327 5.57-31.366-7.229-48.146-1.41-9.97 3.535-5.984-9.086-8.232-15.225-10.857 24.366-29.715-.06-44.517 6.215-1.355-1.444-.109-4.515.729-7.681.837-3.165 7.82-5.268 3.787-9.733-3.491-3.703-8.456-2.726-12.671.297-6.711 4.817-15.079 6.07-21.57 11.645-5.36 4.562-8.761-.464-11.269-7.653-3.006-8.611-6.784-18.391-17.371-21.997-7.561-2.556-18.083 2.903-22.029-10.663-.956-3.331-15.005 5.592-13.943 9.867 2.827 11.257-3.515 8.24-9.001 7.895-9.561-.577-19.068-1.39-28.64-2.075.342-2.573 5.415-3.242 3.048-6.369-.822-1.108-4.223-1.15-6.084-.553-4.436 1.487-1.237 4.275-.592 6.616a5.593 5.593 0 0 0-1.008 2.348l-3.042 1.986-13.657-1.345c5.521-9.934 4.182-12.54-9.316-18.621 5.946-8.352 18.396-8.628 23.381-18.262-5.296-3.66-13.759 2.061-17.751-6.636-3.992-8.698-14.326.622-19.696-6.767-5.953-8.442-10.537 1.319-15.045 2.967-8.311 3.034.524 6.449 1.297 9.95.897 5.298-3.78.826-5.398 2.079-5.157-3.486-10.133-7.603-16.975-5.644-1.002.299-2.415 3.155-1.974 3.893a15.185 15.185 0 0 0 5.979 6.54 15.407 15.407 0 0 0 8.646 2.133c7.279 16.243 24.537 20.503 38.092 9.203 6.662 10.197-1.254 13.853-8.167 17.986-17.5-7.568-38.96.955-54.31-13.612 13.312-1.21 11.79-13.298 10.083-19.913-3.023-11.656 1.097-19.403 7.618-27.445 5.12-.871 12.11-.356 6.821-9.034l4.36-3.343c2.736-.183 3.589 1.569 3.977 3.78l2.783 3.504c15.27 9.459 27.22 8.395 34.108-2.957 2.659-4.371 4.764-9.295-2.724-9.678-13.82-.639-25.43-8.37-38.663-10.466l-1.206-3.177-1.403.632c.975.755 1.943 1.543 3.054 2.33-9.306 15.142-12.23-.839-17.864-3.658a23.697 23.697 0 0 1-3.409-.785c-3.293-1.29-2.868-3.136-.17-4.247 21.217-8.402 1.644-13.054-2.6-16.295-4.727-3.635-12.205-2.813-18.552-1.447-9.853 1.936-10.806-7.016-11.032-11.487-.312-6.436 6.832-5.496 10.8-3.556 9.026 4.307 11.41-1.366 13.164-7.572 2.798-9.961-9.16-1.228-8.937-7.964 13.05-11.133 11.21-18.416-7.28-25.116a13.06 13.06 0 0 1-3.799-1.901c4.148-15.66-10.43-19.868-17.4-29.039-6.97-9.172-10.129-17.43-5.6-32.719 4.325-14.559 13.439-11.574 21.1-18.329-5.73-2.558-10.82-4.933-16.001-7.223-2.824-1.145-8.425.569-7.568-4.395.857-4.964 6.437-3.784 9.978-2.791 4.254-8.954-15.503-4.705-7.148-14.94 7.066-8.695-4.333-27.938 16.761-28.485 2.319.534 4.614.392 4.558-2.485-.055-2.876-2.161-3.397-4.682-2.74l-1.234-.568c2.514-7.48-4.61-7.567-8.012-11.038-6.213-6.381-5.573-6.976-12.772-.822-5.752 4.861-11.15 6.94-14.322-2.664 5.884-14.624 16.91-22.582 34.238-23.927-5.476-8.332-12.928-3.262-18.586-4.884 2.833-6.842 14.078-10.296 8.338-20.598 12.052-11.01 18.398-28.108 36.295-32.856a7.626 7.626 0 0 0 2.85-1.962 7.489 7.489 0 0 0 1.67-3.007c3.594-23.07 23.077-25.508 40.512-30.116 11.701-3.101 16.742-7.525 24.275-18.87 1.428-2.145 5.5-10.151 14.51-5.317 6.995 3.769 16.96 2.283 25.653 2.73 2.48.148 6.478.716 6.005-3.777-.28-2.68-.993-5.815-4.627-6.405-6.272-.985-18.656 3.054-8.761-10.75-4.475-.679-8.907-1.7-13.408-1.96-2.835-.158-6.303 1.022-5.479-3.49.774-3.356 4.307-3.108 7.07-3.567 8.377-1.605 15.879 11.331 24.748 1.673 2.863.66 5.693 1.313 7.158-2.239 8.89-4.456 19.6 6.25 29.518-3.449-9.323-2.856-19.192-1.63-24.637-10.097 6.175-18.692 23.155-15.875 37.448-17.601a68.093 68.093 0 0 1 17.198 1.56c4.168.607 9.679-3.674 12.302 2.234 2.624 5.907-2.882 9.234-5.563 13.389l-.72.01c-1.124-1.354-1.906-4.504-4.245-2.144-2.339 2.36-.012 3.32 2.124 4.025.931 3.75 2.396 5.183 5.59 1.606a165.733 165.733 0 0 0 17.2-1.41c2.854-.544 7.658-1.134 6.125-6.012-.811-2.556 2.135-9.265-5.682-6.506-2.465.881-5.284-1.218-4.095-3.419 4.812-9.037 14.736-1.624 21.688-5.925 4.183-2.572 7.198-.074 6.766 5.695a79.152 79.152 0 0 0-.273 16.765c1.319 12.5 10.14 18.316 22.044 14.802 1.963-.572 4.791-1.158 5.438-2.564 3.934-8.498 21.388-18.333 31.157-17.567a6.771 6.771 0 0 1 3.854 1.631 6.627 6.627 0 0 1 2.129 3.566c2.067 12.532 9.918 9.78 18.758 8.813 14.728-1.59 12.456-7.31 4.536-16.1 7.042 2.471 9.593 7.76 11.973 13.011 2.692 5.924 7.965 8.906 13.396 7.153a13.814 13.814 0 0 0 5.141-4.061 13.593 13.593 0 0 0 2.659-5.949c.422-6.973-7.563-4.571-14.001-7.328 15.391-11.477 32.231.358 35.617 4.674 10.86 15.194 20.889 2.834 30.77 3.273 5.663 7.987 10.089 2.961 14.651-1.255 4.049 5.953 23.107.376 13.442 16.92 4.149 2.407 8.568 7.066 12.495 6.699 8.073-.756 4.306-8.871 5.687-13.927 3.951-2.341 6.185 1.673 9.193 2.331 1.568.362 3.206.421 4.805.648-.579-.133-1.602-.37-1.763.018a9.38 9.38 0 0 0-1.833 4.527c1.649 11.693 16.427 18.457 32.033 14.771 9.591 6.523 16.699 18.838 31.444 13.434 6.011-.065 11.29-5.212 17.713-2.388 2.903 8.588 18.864 7.883 15.435 21.516-.681 2.954-4.227 10.551 5.949 10.174 7.422-.269 14.599-4.766 15.719-8.538 3.066-10.5-7.012-.733-10.085-4.693-2.062-2.738.906-3.928.395-5.92 3.563-7.203 12.139-5.934 17.515-9.785a41.11 41.11 0 0 1 6.652-1.755c1.354-.112 4.562.769 2.221 2.668-11.061 9.047 7.679 7.497 5.055 13.433-4.899 2.406-13.993-3.473-14.3 4.87-.384 9.457 11.125 4.544 12.811 4.084 19.944-5.373 34.68 1.417 48.058 15.813 3.683 3.96 11.02 3.282 15.03-2.9a4.583 4.583 0 0 1 1.837 1.048c.52.488.917 1.09 1.156 1.756a4.392 4.392 0 0 1-.544 4.018c-11.812 15.732-.147 19.799 11.893 23.953l-.341-.079a23.13 23.13 0 0 0 3.055 8.86 23.53 23.53 0 0 0 6.341 6.978 23.89 23.89 0 0 0 18.067 4.279c4.075-.546 8.606-3.072 9.594 2.458 1.389 7.992-5.972 4.103-9.475 5.594-3.504 1.491-11.348-3.888-10.584 3.394.713 6.563 6.848 2.533 10.923 1.209 13.756-4.536 24.553 9.371 36.325 6.746-17.398 12.394.532 20.591 5.997 30.371-3.968 4.6-11.22-5.061-14.614 4.056 4.603 1.061 7.693 7.747 13.924 2.679 2.27.275 4.548.517 6.826.76-.479 2.081.308 3.182 2.473 3.292 6.613 19.447 19.425 2.956 29.1 4.443 3.012.483 4.772-2.011 6.555 2.713 2.673 6.944-3.172 3.017-4.388 4.398-4.895 5.659-15.298 9.201-5.239 20.393 5.434 6.025-3.691 9.472-8.881 11.74-8.298 3.603-18.354 5.952-5.7 16.787 3.023 2.464 1.215 4.699-5.187 8.173-16.415 8.909-16.368 8.707-1.653 18.391 2.926 1.948 5.636 4.835 1.674 9.719-4.45 5.444-1.435 9.497 5.317 10.735 1.452 4.294-5.455 2.95-4.65 6.777l.978 3.548c-6.399 2.061-10.796 8.365-7.332 12.805 6.108 7.771 7.964-3.396 12.567-4.987.741-.254.923-1.979 1.375-3.006a119.825 119.825 0 0 0 7.076 14.322c10.135 15.381-8.192 23.707-8.64 36.401-1.16-.267-2.452-1.201-3.41-.785-7.417 2.426-25.759-6.786-16.114 15.235 1.063 2.401-13.982 11.908-22.029 17.69-13.557 10.062-30.055 14.037-45.479 20.204-4.985 1.998-12.778 1.227-12.805 8.822-.027 7.594 5.289 12.107 14.804 13.663-9.299 3.267-20.11-.144-22.658 11.536-.534 2.316-3.092 2.822-5.632 2.626-4.87-.522 5.135-12.463-6.546-8.049-5.649 2.233-5.475 8.955-10.095 10.931a159.9 159.9 0 0 1-17.779 5.165c-7.446 2.243-17.264 3.091-5.781 13.869 3.897 3.655-4.717 4.887-4.136 8.91-.384 8.679-6.903 9.545-13.469 9.835-6.565.29-6.644 5.15-7.861 9.183-.209.906 1.889 2.556 2.918 3.854 7.814-6.33 25.535 1.218 24.84-17.113a13.104 13.104 0 0 1 7.236 3.683 12.784 12.784 0 0 1 3.613 7.196 63.828 63.828 0 0 0-4.278 23.549c-4.053-.016-8.922 1.479-12.004-.257-12.756-6.97-25.579-3.208-37.424-.105-19.09 4.934-37.518-4.687-56.37.619-11.858 3.313-12.231 2.131-7.271 12.855 1.025 2.251.51 5.42-1.991 5.056-9.713-1.32-18.99 9.022-30.153-2.99-5.143-5.569-20.78-15.147-32.645-1.832-4.849 5.458-11.013 8.527-7.302-3.839a5.215 5.215 0 0 0-.378-3.002 5.347 5.347 0 0 0-1.987-2.316c-6.993 5.883-19.625-3.957-24.383 8.274-.713 1.851-.42 6.656-5.231 3.85-4.811-2.806-9.455-5.714-5.821-14.316-5.955 10.259-8.084 21.682-22.998 10.679-3.062-2.296-16.106 7.566-25.775 9.014 2.838-2.032 7.939-.327 8.575-6.049-2.06 3.485-12.532-6.847-8.086 6.268ZM28.076 147.691c-15.829-.643-28.978-3.568-25.088 16.631a69.017 69.017 0 0 0 25.088-16.631Zm39.205-32.08c9.241 3.367 15.771-1.597 22.847-3.325 3.417-.803 5.23-3.214 3.968-6.156a5.907 5.907 0 0 0-3.238-2.764 5.948 5.948 0 0 0-4.266.116 42.726 42.726 0 0 0-19.311 12.129Zm729.64 273.613c-1.425 1.51-3.365 2.76-3.259 3.703.22.738.617 1.413 1.158 1.969.541.556 1.21.975 1.948 1.222a3.026 3.026 0 0 0 1.62.2 2.981 2.981 0 0 0 1.477-.672 2.899 2.899 0 0 0 .923-2.95c-.274-1.301-2.353-2.098-3.867-3.472Z" fill="url(#a)"/><defs><linearGradient id="a" x1="813.295" y1="-84.862" x2="-352.582" y2="845.118" gradientUnits="userSpaceOnUse"><stop stop-color="#F6D8B6"/><stop offset=".646" stop-color="#F6D8B6" stop-opacity="0"/></linearGradient></defs></svg>