<svg width="229" height="203" fill="none" xmlns="http://www.w3.org/2000/svg"><path d="m136.411 59.896 11.739 3.038c-.495-1.561-.991-3.117-1.521-4.867 1.239-2.65 1.486-5.59-2.096-6.937-2.087-.788-4.401-.991-6.616-1.437-1.591-.332-3.171-.699-3.93-2.394a1.94 1.94 0 0 1-.138-.495c0-.07.044-.149.094-.308.218.085.426.174.634.248 1.616.58 3.191 1.318 4.852 1.695 2.666.605 5.475.64 7.928 2.394a8.692 8.692 0 0 0-.639-5.12c-.862-2.041-1.982-3.964-2.934-5.976a6.063 6.063 0 0 1-.307-1.382c.421.292.991.495 1.239.887a26.267 26.267 0 0 1 3.652 10.936c.198 1.65.174 3.326.337 4.986.035.351.451.669.867 1.243 1.631-4.083 2.017-7.8-.069-11.516 2.354 3.494 3.335 7.18 1.487 11.204a1.733 1.733 0 0 0 .123 1.923c1.219 1.873 1.289 3.964.932 6.085a4.32 4.32 0 0 1-.416.962h-.312c-.04-.441-.08-.888-.124-1.329a44.5 44.5 0 0 0-.535-4.747 3.046 3.046 0 0 0-2.092-2.27c-.203 1.423-.639 2.652-.094 4.04 1.16 2.972 2.181 5.946 3.325 8.919a1.236 1.236 0 0 0 1.021.61c8.35-2.25 14.663-6.978 18.097-15.11 1.234-2.913 1.903-5.946.719-9.014a10.028 10.028 0 0 0-2.076-3.31 19.624 19.624 0 0 0-13.073-5.976c-5.912-.436-11.675.495-17.428 1.66-6.388 1.269-12.741 2.81-19.326 2.626-1.314-.034-2.632-.163-3.965-.287-7.056-.664-14.103-1.487-21.174-1.982-6.715-.451-12.498 1.779-16.933 7.012a13.083 13.083 0 0 0-3.181 8.875 5.607 5.607 0 0 1-.154 1.625 11.769 11.769 0 0 1 1.858-9.816c4.039-5.863 9.817-8.45 16.8-8.618 2.175-.054 4.355 0 6.045 0-6.066-1.486-14.202-1.392-19.37 2.23-2.885 2.017-5.705 4.123-7.112 7.527-1.824 4.416-1.15 8.722.679 12.959a26.12 26.12 0 0 0 5.45 7.78 4.042 4.042 0 0 1-.624-.352c-4.46-3.593-7.24-8.181-7.928-13.91-.66-5.57 1.526-9.827 5.867-13.38 5.124-4.157 11.011-5.42 17.344-5.356 3.667.034 7.324.386 10.986.6.399.05.804.029 1.195-.065-4.054-3.137-8.34-5.783-13.261-7.3l.138-.346c1.66.535 3.345 1.02 4.956 1.62 4.197 1.541 8.236 3.37 11.635 6.388.431.376 1.15.416 1.74.614l.218-.362c-.288-.302-.545-.634-.853-.906-3.766-3.33-8.216-5.451-12.824-7.31-5.605-2.294-11.408-4.311-17.022-6.754-5.615-2.443-10.407-6.17-13.519-11.685-.079-.139-.133-.287-.346-.763.416.332.614.421.713.58 3.756 5.812 9.237 9.445 15.466 12.046 4.827 2.017 9.787 3.717 14.618 5.729a90.032 90.032 0 0 1 15.362 8.157c.194.133.412.232.902.495-.168-.882-.282-1.516-.401-2.15l.168-.09a23.5 23.5 0 0 1 1.388 2.478 1.715 1.715 0 0 0 1.719 1.14c4.074.074 8.167.381 12.225.143 3.687-.218 7.344-1.025 11.011-1.58.357-.055.709-.174 1.398-.342a5.062 5.062 0 0 0-.991-.308c-6.72-.168-13.439-.352-20.164-.446-.991 0-1.982.412-3.023.65 2.924-4.807 2.974-10.318 2.245-15.942l.496-.129c.331.436.598.916.793 1.427.279 1.202.467 2.423.564 3.652.065.808.273 1.195 1.145 1.224 6.308.209 12.612.451 18.92.68.179-.023.355-.063.525-.12-.228-.257-.381-.446-.555-.614a1.618 1.618 0 0 0-.391-.302c-5.189-2.72-9.093-6.854-12.76-11.319-4.014-4.896-6.274-5.61-13.643-2.616-2.012.813-3.701 2.418-5.525 3.677-.887.61-1.254 1.348-.58 2.383.278.545.505 1.114.679 1.7.258-.545.411-.872.644-1.358 1.898 2.28 2.161 5.005 2.711 7.632 1.734-.892 2.478-.595 3.117 1.283.882 2.637.456 5.258-.084 7.87l-.342.034a10.97 10.97 0 0 1-.099-1.145c.029-1.442.084-2.884.118-4.326a1.704 1.704 0 0 0-.074-.733c-.367-.838-.778-1.65-1.174-2.478l-1.641 1.715c-1.105-2.607-.654-5.645-2.19-8.231-.188 1.219-.371 2.438-.56 3.657l-.178.025-2.141-7.121-.495.06-.878 2.809c-.892-1.259-1.6-2.25-2.23-3.132.63-.585 1.106-.991 1.561-1.487 3.43-3.36 7.374-5.807 12.151-6.714 3.172-.6 6.1 0 8.538 2.185a25.754 25.754 0 0 1 3.568 3.756 33.908 33.908 0 0 0 10.991 9.594c3.197 1.789 6.076 4.014 7.632 7.498.422.982.742 2.005.956 3.052.184.853.575 1.17 1.432 1.135 1.814-.074 3.628-.144 5.451-.084a22.794 22.794 0 0 1 12.562 4.306c3.965 2.79 5.451 6.774 5.213 11.502-.262 5.59-2.973 9.91-7.007 13.568a29.975 29.975 0 0 1-12.388 6.704c-1.184.317-1.65.719-1.516 2.082.495 4.672-.808 8.959-3.202 12.973-1.387 2.334-2.641 4.752-3.989 7.11-.495.848-.312 1.374.496 1.944 2.611 1.873 5.312 3.691 7.136 6.407a7.714 7.714 0 0 1 1.352 3.469c.099 1.318.659 1.704 1.755 1.858 2.125.297 4.266.495 6.362.941 1.826.313 3.611.829 5.323 1.537 3.166 1.432 6.501 2.131 9.866 2.725 4.856.857 8.265 3.523 10.287 7.968a2.13 2.13 0 0 0 1.824 1.398c1.101.154 2.19.382 3.261.684 1.442.401 2.234 1.372 2.527 2.879a13.884 13.884 0 0 0 2.641 5.912c4.956 6.442 10.525 12.255 16.001 18.186 5.169 5.59 8.365 12.225 10.223 19.51 1.021 3.964 1.631 8.072 2.478 12.101.644 3.062 1.487 6.085 2.022 9.162.545 3.251.495 6.537-1.19 9.515-.604 1.06-1.536 1.933-2.314 2.889l-.361-.253c.016-.13.057-.256.118-.371 2.835-3.544 3.311-7.681 2.339-11.849-1.323-5.689-3.012-11.303-4.732-16.888-1.487-4.876-3.087-9.742-4.955-14.49a28.376 28.376 0 0 0-8.395-11.452c-3.801-3.176-6.601-7.225-9.524-11.169-1.769-2.379-3.643-4.678-5.531-6.963a1.976 1.976 0 0 1-.46-2.021c.654-2.389.074-3.35-2.339-3.925-1.2-.288-2.443-.416-3.613-.788a3.329 3.329 0 0 1-1.67-1.175 11.888 11.888 0 0 0-9.172-5.371 16.817 16.817 0 0 1-7.8-2.453 7.994 7.994 0 0 0-.947-.431c-.138.099-.238.129-.267.193-1.046 2.21-1.091 2.374 1.268 3.028 2.443.679 4.995.956 7.488 1.486 1.599.339 3.169.799 4.698 1.378-4.074-.709-8.147-1.432-12.23-2.096a1.069 1.069 0 0 0-.882.53c-2.141 5.575-4.237 11.165-6.348 16.749a1.79 1.79 0 0 0 .446 2.012c1.724 1.938 3.374 3.935 5.059 5.902.266.252.549.483.848.694.312-5.426.991-10.58 4.152-15.02-2.21 6.155-2.735 12.503-2.344 18.994 1.487-8.449 2.825-16.932 8.712-23.697l.307.129c-.773 1.571-1.521 3.157-2.329 4.713-2.567 4.955-3.731 10.282-4.544 15.723-.297 1.983-.496 4.009-.768 6.011-.104.823.059 1.353 1.07 1.368.437.076.848.256 1.199.525.65.407 1.269.863 1.903 1.304l3.682-5.387.218.139c-.817 1.665-1.63 3.33-2.453 4.99-.252.496-.495 1.105.223 1.333a1.728 1.728 0 0 0 1.353-.253c3.395-2.477 6.705-5.059 10.144-7.463 1.155-.802 2.621-1.169 3.964-1.734l.199.451c-.63.332-1.249.689-1.898.991a25.26 25.26 0 0 0-7.726 5.451c-.946.991-2.022 1.824-2.998 2.765a7.437 7.437 0 0 0-.813 1.155 6.891 6.891 0 0 0 1.398-.303c1.789-.787 3.558-1.62 5.332-2.438l.253.422-5.228 3.141c4.866 3.088 9.722 5.674 13.989 9.014 4.266 3.34 7.928 7.409 11.843 11.16l-.337.391c-.832-.619-1.719-1.179-2.477-1.873-2.359-2.121-4.743-4.227-6.993-6.442-4.341-4.306-9.573-7.225-14.925-10.025-2.944-1.536-5.788-3.265-8.732-4.955-.342.951.278 1.442.991 1.903 5.243 3.424 10.451 6.908 15.744 10.258 3.627 2.294 6.635 5.277 9.712 8.201a29.737 29.737 0 0 1 2.746 2.844c-4.46-3.607-8.771-7.433-13.444-10.753-4.673-3.32-9.713-6.14-14.594-9.178l-.357.268c.074.659.104 1.328.228 1.982a57.861 57.861 0 0 1 .129 21.279c-.595 3.32-1.284 6.635-2.2 9.876a9.491 9.491 0 0 1-4.46 5.867c-.887.496-1.432.372-1.769-.654a60.696 60.696 0 0 1-2.83-15.277c0-.298.243-.61.372-.912.213.302.56.58.619.912.669 3.652 1.284 7.309 1.938 10.956.097.736.306 1.453.619 2.126.125.204.299.373.506.493.206.121.44.188.679.196.688-.159.733-.798.411-1.398-.407-.763-.838-1.516-1.244-2.279-.178-.337-.322-.694-.496-1.041l.441-.272 2.146 3.28c.833-.946 1.115-1.888.387-2.929-.942-1.343-1.923-2.656-2.894-3.964a10.381 10.381 0 0 0-.575-.718l.317-.362a20.38 20.38 0 0 1 2.304 2.071 23.91 23.91 0 0 1 1.735 2.736l.421-.119c-.064-.595.059-1.309-.223-1.769-1.09-1.775-2.304-3.469-3.494-5.189-.495-.708-1.065-1.353-1.526-2.076a.999.999 0 0 1-.064-.897.953.953 0 0 1 .887-.114c1.64.818 3.26 1.68 4.866 2.567.361.25.693.539.991.862l.396-.154c-.114-.465-.074-1.169-.366-1.357-3.107-2.012-6.264-3.94-9.416-5.882a3.595 3.595 0 0 0-.842-.223v11.922c-1.135-3.786-1.269-7.383-1.09-10.991.054-1.164-.322-1.704-1.393-1.848-1.952-.258-3.905-.525-5.867-.689a1.275 1.275 0 0 0-.946.783 1015.23 1015.23 0 0 0-3.469 17.706c-.377 2.017-.535 4.078-.793 6.125-.05.381-.119.758-.228 1.447l-.966-1.135-.654 2.973-.446-.069c0-5.174 1.258-10.223 1.942-15.61-1.016.203-1.828.397-2.656.525-1.67.253-3.34.496-5.02.694-1.402.149-1.1 1.279-1.194 2.072-.104.916.758.693 1.264.708a32.98 32.98 0 0 1 4.772.297 5.416 5.416 0 0 1-1.244.451 16.713 16.713 0 0 1-3.33.159c-1.413-.144-1.903.441-2.027 1.744-.124 1.304-.401 2.686-.629 4.029-.085.496-.228.991-.342 1.487l-.352-.06c.466-3.86.892-7.824 1.387-11.719a324.007 324.007 0 0 1 1.66-11.13c.214-1.274-.242-1.621-1.397-1.849-4.623-.921-8.181-3.191-9.633-7.983-.496-1.551-.055-2.973.347-4.42h.366a13.85 13.85 0 0 1 0 1.63c-.173 1.487.535 2.478 1.759 3.117 1.314.684 2.691 1.234 4.034 1.863.329.172.649.363.957.57l-.214.431-5.059-2.2c.699 2.042 5.04 4.559 7.958 4.505l-.396-.798c.274-.087.561-.124.847-.109 4.634 1.174 9.331.862 14.034.689 3.211-.124 6.442-.194 9.569.788a9.58 9.58 0 0 1 4.49 2.973c-2.76-1.675-5.699-2.731-9.014-2.701 5.604 1.487 9.772 5.005 13.503 9.351a37.79 37.79 0 0 0 .818-12.884c-.565 3.304-1.128 6.607-1.69 9.911l-.347.089a6.487 6.487 0 0 1-.124-1.333l1.487-13.38a2.579 2.579 0 0 0-.178-.723c-1.071 3.86-2.101 7.572-3.127 11.288l-.417-.034a3.32 3.32 0 0 1-.064-1.2 55.073 55.073 0 0 0 2.696-17.641 2.029 2.029 0 0 0-.838-1.749 18.195 18.195 0 0 1-2.938-3.112c-3.078-4.227-6.001-8.568-9.118-12.76-1.522-2.042-3.415-3.796-5.025-5.778-2.478-3.033-3.206-6.715-3.697-10.471-.307-2.369-.659-4.733-.902-7.111-.119-1.21-.768-1.219-1.61-.897-2.413.916-3.87 2.74-4.653 5.129a11.27 11.27 0 0 0 .614 8.533c1.066 2.309 1.933 4.707 2.973 7.037.255.44.657.777 1.135.951.991.416 2.062.709 3.097 1.051l-.079.346c-1.397-.218-2.795-.495-4.202-.634-3.722-.421-7.433-.877-11.175-1.155a13.388 13.388 0 0 0-3.781.496c-2.403.54-4.673 3.528-4.643 5.947 0 .683.094 1.055.991.852a38.027 38.027 0 0 1 4.629-.679 30.577 30.577 0 0 1 5.232-.074c-.628.231-1.272.418-1.927.56-2.364.342-4.733.614-7.096.951a4.304 4.304 0 0 0-1.115.58l11.799-.991c-.04.649-.689 1.149-1.398 1.303-1.68.367-3.394.585-5.104.808-1.487.198-3.057.163-4.514.525-1.725.431-2.597 3.409-1.561 4.876a.863.863 0 0 0 .609.278c2.012.044 4.024.069 6.036.094a23.33 23.33 0 0 1 3.013.144 8.464 8.464 0 0 1-1.715.386c-1.982.04-3.964 0-5.946 0-.4.008-.793.099-1.155.268 3.36-.496 6.541 1.853 9.98.386a1.37 1.37 0 0 1-.703 1.507 1.364 1.364 0 0 1-.57.153c-1.339.075-2.681.04-4.014-.104-.689-.054-1.363-.436-2.047-.441a5.076 5.076 0 0 0-2.408.446c-.496.288-.124 2.661.495 3.216.865.821 1.811 1.55 2.825 2.176 1.417.802 2.944 1.407 4.391 2.18-2.126 0-3.885-1.095-5.739-1.928 2.136 2.037 5.094 2.552 7.532 4.133-.25.023-.502.008-.748-.044-2.478-.991-4.995-1.854-7.349-3.063-1.704-.877-2.339-2.646-2.557-4.559a9.4 9.4 0 0 0-.837-2.765c-1.175-2.547-1.512-5.03.114-7.527a1.22 1.22 0 0 0 .079-1.076c-1.095-1.818-.768-3.567.178-5.282 1.606-2.909 4.084-4.866 7.384-4.896 3.469-.035 5.015-2.354 6.844-4.524a7.459 7.459 0 0 0 1.308-1.928 2.756 2.756 0 0 0-.06-1.715 10.73 10.73 0 0 1 2.057-10.555c1.729-2.126 3.503-2.601 6.14-1.868a1.168 1.168 0 0 0 .991-.565c.371-1.774.847-3.568.852-5.357a6.087 6.087 0 0 0-1.16-3.508 27.355 27.355 0 0 0-4.157-4 1.91 1.91 0 0 0-1.74-.128 41.967 41.967 0 0 0-3.587 2.572c-.991.733-.937 1.606-.263 2.755a15.644 15.644 0 0 1 7.195-3.201l.144.337c-1.07.56-2.151 1.11-3.216 1.68-1.576.842-1.705 1.303-.937 3.033 1.487-.268 2.974-.536 4.46-.783.124 0 .273.128.61.302-1.616.495-3.043.956-4.46 1.412-.649.208-1.125.535-.798 1.318l3.177-.213v.233c-.992.352-1.983.649-2.919 1.08a2.142 2.142 0 0 0-1.021.992c-1.888 4.682-5.664 7.398-9.965 9.499-3.514 1.72-7.166 3.162-10.679 4.876-5.704 2.79-9.753 7.22-12.389 12.979-.089.198-.144.421-.337.991 4.524-3.826 8.424-8.023 14.738-7.959-.04-.743-.08-1.442-.114-2.141l.406-.089c.277.862.555 1.72.867 2.696-6.278.129-10.406 3.89-14.326 7.775a11.8 11.8 0 0 0-3.642 9.014c.168 6.645.054 13.295-1.299 19.822a85.655 85.655 0 0 1-2.324 8.711c-1.719 5.417-2.477 11.001-3.27 16.596-.119.857-.332 1.7-.496 2.547-.025.104-.134.189-.466.283 0-.496-.029-.991 0-1.487a90.039 90.039 0 0 1 4.089-21.075 60.526 60.526 0 0 0 2.443-13.098c.059-.579 0-1.164-.174-1.719-.609 3.176-1.075 6.387-1.868 9.519-1.447 5.753-3.162 11.437-4.618 17.186-.853 3.355-1.428 6.774-2.126 10.163-.07.352-.12.714-.179 1.071l-.406.049a3.968 3.968 0 0 1-.124-1.14c.897-4.459 1.432-8.999 2.825-13.275a137.885 137.885 0 0 0 6.402-33.202c.134-1.883.748-3.771.664-5.634-.134-3.047 1.487-5.367 2.706-7.869 1.253-2.587 3.201-4.643 5.109-6.774 4.46-4.956 10.272-7.929 15.857-11.249a48.84 48.84 0 0 0 7.002-5.228c2.597-2.28 2.949-5.382 2.399-8.627-.119-.704-.347-1.388-.526-2.077l-.426-.094a28.783 28.783 0 0 0-1.982 3.305 26.998 26.998 0 0 0-1.055 3.633l-.387-.04c-.004-.718.042-1.435.139-2.146.175-.806.426-1.594.748-2.353.287-.709.679-1.378 1.16-2.339a33.132 33.132 0 0 1-14.059-.318c.312 0 .624-.059.937-.059.312 0 .659.03.991.064 3.654.434 7.357.217 10.936-.639 3.221-.808 5.521-2.478 6.864-5.758 1.486-3.598 3.533-6.962 5.332-10.431 2.775-5.352 3.518-10.823 1.164-16.561-.827-1.983-2.522-2.944-4.266-3.682-1.983-.848-4.178-1.264-6.244-1.953-1.071-.357-2.072-.907-3.107-1.367l.109-.154Zm6.883-29.956c-.263-1.556-1.021-2.051-2.195-2.106l-18.777-.872c-1.511-.07-1.675.139-1.526 2.062H127v.401c-.467.092-.938.16-1.412.203-1.397.065-2.805.065-4.202.149-.367 0-.937.163-1.051.416-.565 1.204-.991 2.478-1.521 3.796l21.987.495-1.239-2.244.258-.159c.48.49.899 1.035 1.249 1.625.545 1.23 1.367.992 2.502.67-1.511-1.933-1.283-5.333-4.955-4.773l2.21-.53 2.468.867Zm-3.083 155.036c2.597-.238 5.204-.446 7.8-.768.298-.035.659-.679.749-1.095.272-1.328.416-2.681.629-4.024.139-.832.312-1.655.495-2.72a10.88 10.88 0 0 1-1.243.421c-1.685.317-3.375.812-5.075.862-2.577.074-2.527-.055-2.973 2.567-.178 1.085.188 1.392 1.194 1.427 2.121.074 4.247.302 6.284-.743-.302.495-.634.941-1.046 1.04a34.222 34.222 0 0 1-5.262.991c-1.552.139-1.73.144-1.552 2.042Zm18.296-70.258-.317.525 3.761 6.204-.243.288c-1.705-.169-3.221-1.586-5.134-1.036 1.551 1.938 3.018 3.771 4.505 5.62.082-.136.157-.277.223-.422 1.353-3.226 2.72-6.442 4.014-9.692a1.232 1.232 0 0 0-.461-1.115 62.182 62.182 0 0 0-4.891-2.369 1.28 1.28 0 0 0-1.13.391c-.585.798-.03 1.086.704 1.343 1.243.431 2.448.991 3.672 1.487l-.144.292-4.559-1.516Zm-5.659 8.315c.466-.495.768-.694.892-.991 1.392-3.107 2.775-6.224 4.093-9.366a1.228 1.228 0 0 0-.426-1.125 36.608 36.608 0 0 0-4.059-1.422 1.075 1.075 0 0 0-.961.416c-.619 1.428-1.67 2.795-.823 4.515.113.395.171.803.174 1.214.347 2.146.703 4.276 1.11 6.759Zm-9.49-15.535-.55-.496c-.679.402-1.521.659-2.012 1.224-1.358 1.571-2.314 3.598-3.9 4.847-3.047 2.408-6.442 4.405-9.663 6.571l-1.908 1.283a.745.745 0 0 0 .719.114c3.196-1.487 6.412-2.973 9.574-4.554 2.299-1.15 4.46-2.587 5.798-4.841a42.044 42.044 0 0 0 1.942-4.148Zm9.416 65.179-3.162.168.659.58c-.575.109-.961.223-1.353.253-2.215.163-4.425.347-6.645.431-.887.035-.991.495-1.036 1.184-.044.689.139 1.071.833 1.071 1.719 0 3.469.168 5.163-.085 2.879-.431 2.865-.54 3.722-3.052h.312l-.263 4.024.154.054 1.616-4.628Zm-7.295-39.644a29.257 29.257 0 0 0-2.671-6.605l-4.38 5.515 7.051 1.09Zm15.193-24.073a9.405 9.405 0 0 0-.817 1.645 1.11 1.11 0 0 0 .367.991c1.754.991 3.513 1.982 5.351 2.79 1.14.495 1.11-.917 1.69-1.373a1.368 1.368 0 0 0-.406-.991c-1.764-.961-3.573-1.838-5.372-2.74-.168-.104-.371-.159-.798-.322h-.015Zm7.285 7.7c-1.031-.936-1.323-.946-1.71.129a1381.13 1381.13 0 0 0-5.842 16.472c-.079.223.154.55.238.833l.337-.08c1.64-6.045 3.701-11.907 6.992-17.354h-.015ZM118.898 8.89l-.044-.288a17.142 17.142 0 0 0-2.141 0c-3.915.496-6.938 2.641-9.619 5.347-.277.283-.218.892-.317 1.348a3.402 3.402 0 0 0 1.18-.411c2.908-2.651 6.065-4.817 10.005-5.625.331-.092.653-.216.961-.371h-.025Zm52.919 176.71c1.19-2.135 1.071-2.923-.827-4.35a18.57 18.57 0 0 0-2.399-1.487 12.657 12.657 0 0 0-1.625-.6l-.159.288 5.01 6.149Zm-18.642-76.541c1.714.555 3.355 1.179 5.054 1.561.298.064.878-.848 1.2-1.383.069-.114-.367-.733-.664-.827a40.834 40.834 0 0 0-4.039-1.056 1.309 1.309 0 0 0-1.021.431 4.638 4.638 0 0 0-.53 1.274Zm2.572 15.778-.392.406 4.153 5.347.525-.124c0-.708.352-1.724 0-2.061a53.13 53.13 0 0 0-4.286-3.568Zm.495-5.307 4.113.748c-.961-1.536-1.744-2.78-2.72-4.331l-1.393 3.583Zm-13.815-89.08c.53 1.146 1.11 2.265 1.57 3.435.392.991.992 1.03 1.809.65-1.12-3.395-1.779-4.505-3.379-4.084Zm13.191 91.121c-.496.674-.991 1.18-.307 1.715.916.704 1.942 1.269 2.923 1.893l.243-.243c-.902-1.055-1.799-2.116-2.859-3.365Zm-13.974-15.292c1.823-.357 2.101-.862 1.427-2.478-1.482.511-1.67.793-1.427 2.478Zm5.049-71.83.342-.108c-.129-1.1-.347-2.16-1.199-2.974l-.397.16c.422.985.838 1.956 1.254 2.923Zm-3.062-6.223-.372.396 1.546 1.645.377-.356-1.551-1.685Z" fill="#AC6719"/><path d="M78.457 192.276c-.094-2.126-.188-4.257-.287-6.443-2.007.838-3.885 1.581-5.719 2.424-.238.104-.312.698-.351 1.08-.209 2.032-.387 4.068-.57 6.105h-.313v-3.603c-.03-2.889-.084-5.773-.089-8.662 0-.961-.307-1.258-1.338-1.149-4.019.421-8.038.862-12.071 1.025a27.7 27.7 0 0 1-6.249-.649c-1.566-.297-1.155.892-1.442 1.546-.382.877.114 1.229.922 1.239 2.794.05 5.59.109 8.384.094 1.413 0 2.825-.178 4.257-.114a10.47 10.47 0 0 1-6.08 2.126c-2.21.109-3.32.937-4.41 2.949-3.157 5.822-8.281 9.118-14.867 10.089a1.74 1.74 0 0 1-1.095-.203c6.769-2.294 13.008-5.198 16.506-12.389-1.779-.094-3.34-.213-4.9-.223-.253 0-.536.466-.754.758-3.607 4.892-8.568 7.855-14.133 9.961a.74.74 0 0 1-.555-.094c5.372-2.681 10.982-5.03 14.014-10.739-1.843-1.035-2.443-.961-3.662.402-2.705 3.023-5.897 5.302-9.945 6.06-3.687.694-7.32.278-10.456-1.853a78.764 78.764 0 0 1-8.177-6.368c-3.691-3.29-5.034-7.73-5.421-12.512-.188-2.379-.282-4.772-.426-7.156 0-.638-.128-1.27-.377-1.858-.139 1.09-.342 2.175-.401 3.27-.169 3.122-.411 6.249-.377 9.371a15.513 15.513 0 0 0 5.015 11.234c3.533 3.39 7.349 6.487 11.036 9.718a8.369 8.369 0 0 1 1.814 2.081c-.233-.045-.526 0-.7-.149-5.306-4.058-10.624-8.107-14.583-13.617-2.75-3.836-4.182-8.028-3.617-12.77.629-5.273 1.328-10.541 1.982-15.813a1.368 1.368 0 0 0-.317-1.076c-1.537-1.115-1.66-2.71-1.487-4.336.168-1.412-.08-2.339-1.462-3.097a7.075 7.075 0 0 1-3.4-4.108c-.257-.832-.455-1.878-.173-2.641.412-1.11.094-1.878-.456-2.725a21.112 21.112 0 0 1-.99-1.71c-1.165-2.25-.992-3.846.832-5.585 1.184-1.125 2.601-2.007 3.86-3.067a3.72 3.72 0 0 0 1.13-1.487c1.184-3.375 3.226-6.199 5.565-8.831a3.469 3.469 0 0 1 1.685-.991c3.285-.812 6.154-2.542 9.138-4.028.95-.487 1.946-.88 2.973-1.175 1.878-.52 2.854.367 2.641 2.3-.035.282-.094.564-.169.991h.992c1.769-.03 3.538-.144 5.297-.07.991.04 1.239-.272 1.392-1.204.194-1.155.833-2.235.992-3.385.17-1.41.232-2.831.188-4.251 0-.189-.357-.426-.59-.57-3.32-2.012-4.722-5.04-4.321-8.791.54-5.09 2.88-9.079 7.735-11.214 2.34-1.031 4.713-.53 7.007.267a24.28 24.28 0 0 0 9.069 1.527c3.256-.134 5.64 1.779 6.254 4.583-.248-.376-.466-.659-.635-.966-.99-1.789-2.477-2.478-4.49-2.428a52.74 52.74 0 0 1-6.625-.169c-1.422-.128-2.795-.703-4.207-.99a9.212 9.212 0 0 0-10.595 5.882c-.946 2.735-.282 7.145 1.195 8.503v-2.334l.342-.114c.168.253.495.496.495.763.075 3.087.223 6.175.104 9.252a31.028 31.028 0 0 1-.946 5.451 1.415 1.415 0 0 1-1.006.738c-2.052.223-4.108.332-6.165.496-3.4.262-5.743 2.017-6.58 5.347a6.64 6.64 0 0 0 1.09-.853c2.036-2.418 4.717-3.082 7.74-2.894-2.443.65-5.144.863-6.442 4.004 1.363 0 2.517.085 3.647 0 2.284-.213 4.55-.609 6.834-.768a1.79 1.79 0 0 1 2.056 1.829c.1 1.561.302 3.117.312 4.678 0 5.946 0 11.893-.04 17.805 0 .743-.054 1.486 0 2.225.09 1.982-.356 3.468-2.428 4.355-1.174.496-2.046 1.755-2.973 2.726-.119.124 0 .709.198.892.564.543 1.187 1.02 1.859 1.422 1.348.778 2.75 1.487 4.356 2.314.034-.703.084-1.238.079-1.779-.102-8.285-.208-16.571-.317-24.856a6.591 6.591 0 0 1 .139-1.591c.044-.208.371-.347.57-.52.163.203.4.381.495.614.047.284.057.572.03.858.178 9.688.317 19.38.565 29.068a50.46 50.46 0 0 0 .713 6.105c.122.55.38 1.061.748 1.487.57-6.442-.376-12.845-.525-19.252l.387-.059c.143.681.25 1.369.322 2.061.322 6.011.6 12.027.941 18.033.03.495.451.936.684 1.402.466-.332 1.184-.575 1.338-1.021.436-1.224.917-2.542.882-3.81-.129-4.569-.54-9.133-.694-13.702-.247-7.379-.381-14.757-.56-22.141.008-.227.028-.454.06-.679h.342c.129 1.7.292 3.395.386 5.099.496 9.51 1.046 19.019 1.517 28.534a33.49 33.49 0 0 1-.169 5.535c-.193 1.65-.887 3.102-2.859 3.409-.258.04-.689.531-.64.679.112.53.394 1.009.803 1.363a16.02 16.02 0 0 0 7.503 2.26c.808.029 1.61.079 2.418.119v.436l-4.697.436-.085.352c1.383.336 2.77.991 4.148.951a74.94 74.94 0 0 0 10.709-.728c4.668-.764 9.266-1.983 13.875-3.073a2.811 2.811 0 0 0 1.531-1.249c2.14-3.647 2.686-7.7 2.572-11.813-.198-7.295-.674-14.584-.877-21.879-.213-7.79-.238-15.579-.337-23.374a2.222 2.222 0 0 1 .357-1.289l.45 1.066c.263-.937.496-1.695.7-2.453 0-.03.148-.03.42-.075.347 2.409.694 4.817 1.066 7.364l1.63-1.06a2.095 2.095 0 0 1-.42 2.532c-1.334 1.487-.883 3.122-.427 4.921l3.033-4.847c.956 1.046.58 1.908.257 2.646-.669 1.551-1.248 3.202-2.25 4.525-1.62 2.14-.822 4.385-.95 6.937.293-.203.566-.434.817-.688a34.076 34.076 0 0 0 5.347-10.407c.034-.119.025-.272.099-.352.302-.322.624-.624.941-.931.187.41.303.849.342 1.298-.094.736-.26 1.462-.495 2.166a41.374 41.374 0 0 1-6.269 12.948 3.746 3.746 0 0 0-.495 2.175c.178 7.379.456 14.758.604 22.136.06 2.855-.317 5.669-1.66 8.281a11.354 11.354 0 0 1-4.708 4.931 1.944 1.944 0 0 0-1.134 2.056c.084 2.805.069 5.61.06 8.424 0 .932-.105 1.864-.16 2.8l-.198-.039Zm-59.049-7.592c-4.678-3.37-6.784-8.226-7.368-13.727-.427-4.004-.357-8.062-.496-12.096-.04-1.264-.46-1.685-1.848-1.61.17.84.298 1.688.381 2.542.203 3.87.312 7.745.54 11.615.248 4.103.694 8.246 3.375 11.576 3.236 4.019 7.13 7.354 11.893 9.49 4.43 1.982 8.746 1.69 12.716-1.304a18.089 18.089 0 0 0 4.663-5.109c-.729-.396-1.353-.703-1.948-1.06-1.898-1.13-3.469-2.572-3.964-4.822a2.016 2.016 0 0 1 .595-1.66c.247-.208 1.154.08 1.55.407 1.15.931 2.136 2.066 3.291 2.973 2.21 1.764 2.24 1.729 3.642-.748.035-.06 0-.154 0-.417-1.1-.599-2.245-1.338-3.468-1.868-1.487-.649-2.419-1.645-2.602-3.29-.283-2.577-.585-5.154-.852-7.731-.209-2.012-.377-4.024-.58-6.031a2.483 2.483 0 0 0-1.437-1.982c-1.62-.946-3.122-2.096-4.678-3.151-.085-.06-.218-.04-.327-.06-1.279 3.38-4.956 6.571-7.364 6.442a38.91 38.91 0 0 0 3.78-2.438 6.405 6.405 0 0 0 2.43-4.083c-3.569 2.17-7.018 3.9-10.843 4.817a54.398 54.398 0 0 1 5.317-3.281c2.973-1.63 6.03-3.092 8.424-5.58.354-.406.684-.831.991-1.273-3.211 1.908-6.174 4.063-9.673 5.287.29-.432.67-.796 1.115-1.065 1.487-.902 3.023-1.705 4.46-2.686a42.94 42.94 0 0 0 4.044-3.216 1.66 1.66 0 0 0 .44-1.408 13.749 13.749 0 0 0-1.233-2.532c-.313-.555-.719-.495-1.046 0-1.387 2.136-3.588 3.028-5.793 4.014-2.74 1.224-6.03 1.853-6.967 5.55a2.264 2.264 0 0 1-.174-1.402c.456-1.601 1.745-2.478 3.098-3.196 1.982-1.046 4.073-1.834 5.946-2.998 1.214-.749 2.17-1.938 3.167-2.974.262-.282.242-.827.352-1.253a30.692 30.692 0 0 1-11.685 6.739 3.906 3.906 0 0 1 1.194-1.08c1.72-.991 3.469-1.913 5.173-2.899 2.052-1.18 3.965-2.537 5.298-4.554.267-.412.153-1.071.218-1.621-.456 0-.991-.203-1.358-.039-3.93 1.684-7.81 3.498-11.77 5.114a37.535 37.535 0 0 1-5.525 1.556c-.42.104-.936-.204-1.402-.318.155-.261.397-.46.684-.559 3.018-1.21 6.036-2.404 9.048-3.628 2.706-1.095 5.377-2.279 8.108-3.3 1.422-.535 1.942-1.105 1.853-3.117l-16.269 7.22c.194-.383.51-.69.897-.872 4.832-2.597 9.698-5.134 14.95-6.779.362-.109.992-.496.932-.659a9.59 9.59 0 0 0-.872-2.711c-.426-.758-1.05-1.531-2.185-1.204-1.348.386-2.745.629-4.039 1.145-4.172 1.66-8.295 3.434-12.458 5.119-1.254.495-2.572.872-3.86 1.298l-.134-.317c.199-.19.418-.356.654-.496 6.566-2.938 12.835-6.63 20.025-8.033a2.168 2.168 0 0 0 1.318-.906c1.195-2.027.704-3.4-1.61-4.004-4.802-1.259-9.668-1.358-14.371.416a45.924 45.924 0 0 0-12.676 7.116c-2.735 2.22-2.84 3.434-1.249 6.477.52.991 1.026 2.16.991 3.231-.089 2.7.991 4.628 3.256 5.946 1.516.862 2.285 1.982 2.032 3.811-.337 2.478.703 4.078 3.142 4.891.783.262 1.734.951 1.982 1.665.624 1.739 1.1 3.469 2.686 4.688-2.022-.208-2.394-2.067-3.286-3.395-.099 3.747-.307 7.433-.05 11.051.367 5.262 2.354 9.911 6.284 13.588.192.244.349.514.466.802l.06-.044Zm18.464-35.897c.06-.409.086-.822.08-1.234-.283-2.478-.764-4.956-.853-7.463-.163-4.688-.06-9.386-.163-14.079-.09-4.152.495-3.374-3.628-3.468a17.38 17.38 0 0 0-2.79.371v.367c.332.218.674.421.991.654 1.774 1.264 3.261 3.642 1.155 5.719-.585.575 0 .847.352 1.149 1.412 1.15 2.418 2.751 1.893 4.416-.719 2.289-.496 4.489-.372 6.749a8.498 8.498 0 0 1-.183 1.09c-.055.277-.025.563.084.823 1.105 1.581 2.18 3.141 3.434 4.906Zm-29.54-21.918.278.262c.332-.153.67-.297.992-.46 3.647-1.799 7.19-3.846 11.318-4.46a1.602 1.602 0 0 0 .956-.818c1.11-2.096 2.552-3.811 4.792-4.787.428-.229.754-.611.912-1.07.158-.496.258-1.343 0-1.581-.362-.307-1.115-.273-1.68-.208-.521.1-1.023.282-1.487.54-2.899 1.378-5.713 2.973-8.706 4.103-4.143 1.551-5.323 5.342-7.374 8.479Zm69.164 58.637c-.218-.426-.263-.664-.372-.698-1.447-.422-2.894-.833-4.36-1.18-.154-.034-.58.367-.59.58-.065 1.046-.03 2.096-.03 3.469l5.352-2.171Zm.496-1.605c0-1.036.03-2.086-.035-3.132 0-.173-.496-.496-.65-.451a10.695 10.695 0 0 0-4.836 2.795l5.52.788Zm-36.577-7.76c1.23-.496 2.097-1.096 1.596-2.334-.624-1.537-1.447-2.974-2.185-4.46l-.392.143.981 6.651Zm5.065 7.71c.342.189.58.417.827.431.417.025 1.18-.029 1.2-.153.097-.804.14-1.614.129-2.423-.382.049-.947-.035-1.116.183-.397.623-.74 1.28-1.025 1.962h-.015Z" fill="#AC6719"/><path d="M111.787 129.237c-.386-1.813-.599-3.33-1.041-4.777-.738-2.423-2.443-4.157-4.395-5.674-1.952-1.516-3.855-2.973-5.714-4.529-1.372-1.159-2.215-2.686-2.943-4.351a6.333 6.333 0 0 0-2.409-2.502c-1.09-.699-2.398-1.061-3.632-1.512-1.234-.451-1.18.719-1.462 1.324-.396.827.377.792.853.946 1.234.391 2.477.793 3.964 1.269l-3.117.946 3.162 1.239c-2.73.069-5.575-.991-7.72 1.71.387-.031.77-.116 1.134-.253 1.13-.629 1.982-.293 2.909.495.356.298.99.303 1.486.402a4.488 4.488 0 0 1 1.546.436l-4.554.53c.724 1.814 2.285 2.18 3.573 2.889.186.091.383.16.585.203 6.373 1.68 9.936 6.561 13.281 11.685.171.267.242.587.198.902-1.249-1.601-2.478-3.246-3.766-4.807a22.399 22.399 0 0 0-10.114-7.051 14.435 14.435 0 0 1-3.588-1.878 4.215 4.215 0 0 1-1.393-1.948c-.287-.768-.619-.946-1.357-.778a8.484 8.484 0 0 1-2.656.233 17.917 17.917 0 0 1 7.15-4.787 2.246 2.246 0 0 0-3.112 0 6.182 6.182 0 0 1-2.037 1.214c3.222-3.964 2.8-7.656-.376-11.273l-3.127 2.785-.377-.328a2.79 2.79 0 0 1 .422-.718c2.814-2.513 3.077-6.373 1.303-9.623-1.72-3.147-4.217-5.362-7.805-6.14a7.506 7.506 0 0 0-7.156 2.1c-.718.7-1.263.838-2.106.204-2.041-1.531-4.46-1.868-6.937-1.834-1.65.03-3.3.14-4.956.15-.327 0-.654-.278-.99-.427.272-.203.495-.52.822-.59a17.17 17.17 0 0 1 9.148.203 2.19 2.19 0 0 0 1.59-.024c3.643-2.225 7.483-2.151 11.328-.863 5.357 1.79 8.241 5.793 9.341 11.18a3.9 3.9 0 0 0 1.403 2.29c1.273 1.139 2.24 2.616 3.404 4.038 2.017-1.442 4.341-3.018 7.156-3.528l.198.292c-.273.258-.53.54-.828.773-.297.233-.614.387-1.184.733l2.14 1.824c-.074.719-.163 1.779-.282 2.835-.456 4.058.684 7.477 3.965 10.074a227.17 227.17 0 0 1 5.371 4.376 10.128 10.128 0 0 1 3.816 8.473c.025.397-.044.788-.114 1.442Zm-14.37-20.812c.371-2.572.074-3.167-2.042-4.257a13.338 13.338 0 0 0-1.829-.729c-1.541-.535-1.665-.495-2.448 1.224 2.35.853 4.807 1.527 6.328 3.781l-.01-.019Zm.212-3.965c.922-1.759.813-2.17-.906-3.404-.927-.664-1.859-.382-3.102.946l4.008 2.458Zm-38.612 18.697c-6.858.56-13.245.208-19.395-2.071l-.05-.377c.253-.079.53-.277.744-.228 7.824 1.958 15.783 1.774 23.746 1.517a.688.688 0 0 1 .565.307l-2.13.495c2.214 2.121 1.66 4.688 1.694 7.176.109 8.489.292 16.972.44 25.461.03 1.774.065 3.548.06 5.317a4.254 4.254 0 0 1-.43 1.918c-.154-2.656-.372-5.312-.442-7.973-.158-6.18-.228-12.364-.361-18.549a546.844 546.844 0 0 0-.288-9.019 3.607 3.607 0 0 0-.282-1.422c-1.21-2.443-2.974-2.572-4.406-.262a9.23 9.23 0 0 0-1.56 5.594c.39 5.947.589 11.859 1.015 17.78.253 3.534.902 7.037 1.155 10.565.233 3.325.193 6.665.213 10 0 .352-.392.709-.605 1.066a3.253 3.253 0 0 1-.525-1.071c-.292-4.886-.337-9.801-.857-14.668a164.351 164.351 0 0 1-.788-19.876c0-1.115.035-2.23.05-3.34.039-2.884.188-5.718 2.437-8.34Zm13.196 47.334c-3.077-.416-3.845-2.477-4.261-4.618a44.428 44.428 0 0 1-.867-7.23c-.248-9.519-.372-19.039-.536-28.558a1.522 1.522 0 0 1 .065-.729 3.05 3.05 0 0 1 .649-.604c.168.203.431.381.495.609.054.368.067.74.04 1.11.198 10.015.327 20.035.654 30.045.075 2.215.763 4.46 1.373 6.601.267.936.936 2.046 2.15 1.898 1.215-.149 1.487-1.462 1.562-2.409.29-2.363.377-4.747.257-7.126a300.104 300.104 0 0 1-.887-32.641c.094 1.016.203 2.027.288 3.038.084 1.011.188 2.135.242 3.206.387 7.74.769 15.482 1.145 23.226.149 3.048.362 6.09.387 9.138 0 1.794-.412 3.503-2.072 4.658-.371.263-.456.932-.674 1.412a24.89 24.89 0 0 1-1.154 2.438c-.154.253-.674.293-1.026.431a2.89 2.89 0 0 1 .188-1.1c.535-.867 1.18-1.694 1.982-2.795Z" fill="#AC6719"/><path d="M73.7 106.467c.228 1.274.495 2.542.694 3.821.232 1.382.465 2.765.649 4.153.143 1.055.42 1.858 1.754 1.452a.695.695 0 0 1 .362.024c.07 0 .119.089.183.144-1.764 1.1-1.834 1.11-1.442 3.409.803 4.753 1.779 9.48 2.478 14.247.257 1.754 0 3.598-.154 5.387-.054.644-.545 1.244-.837 1.863l-.382-.109c-.035-.248-.173-.54-.094-.738 1.07-2.528.738-5.129.292-7.681-.807-4.668-1.799-9.302-2.666-13.96-.183-.991-.649-.951-1.402-.698a61.748 61.748 0 0 1-14.723 3.087c-5.743.461-11.367-.055-16.754-2.22-.53-.213-.927-.753-1.383-1.14a6.596 6.596 0 0 1 1.78.114c5.45 1.873 11.08 2.18 16.734 1.417 4.688-.634 9.326-1.655 13.999-2.438 1.11-.188 1.214-.669 1.09-1.685-.317-2.611-.495-5.238-.684-7.864.013-.191.05-.379.114-.56l.392-.025Zm25.951-8.255c-.99-3.811-1.937-7.622-2.943-11.423-.372-1.387-.843-2.75-1.309-4.113a.817.817 0 0 0-.555-.362c-1.347-.247-2.7-.46-4.152-.708.406 2.815 2.15 4.628 4.955 5.575l-.099.307a6.669 6.669 0 0 1-1.422-.238c-3.226-1.273-4.658-3.915-4.847-7.14a12.146 12.146 0 0 0-2.11-6.066c-2.032-3.147-2.19-6.298.103-9.415.144-.338.164-.716.055-1.066a19.236 19.236 0 0 0-.6-1.873l1.155.495v-3.617h.114c.183 1.174.327 2.359.565 3.523.198.991.768 1.368 1.814.991a7.784 7.784 0 0 1 1.808-.228c-.788-1.308-2.388-2.086-1.942-3.845.426 1.64 1.769 2.389 2.998 3.266a3.1 3.1 0 0 1 .56.728c-.248.182-.52.328-.808.436-.803.188-1.62.307-2.428.461-2.78.496-4.247 2.16-4.083 4.99a11.832 11.832 0 0 0 1.085 3.994c.882 1.982 1.982 3.865 2.973 5.808a5.035 5.035 0 0 0 2.736 2.542c.817.317 1.338.154 1.511-.803.142-.574.321-1.138.535-1.69h.446c.126.352.223.713.288 1.08.013.868.079 1.734.198 2.593.872 3.721 3.082 6.486 6.244 8.573a23.556 23.556 0 0 1 3.691 2.973c-3.349-1.05-5.911-3.236-8.186-5.838l-.248.179c.836 3.264 1.67 6.528 2.503 9.791l-.605.12Zm18.232 36.244c-2.22 5.703-2.736 11.635-2.666 17.636.079 7.27-.134 14.519-1.487 21.675-1.214 6.477-2.646 12.884-3.994 19.361-.238 1.135-.53 2.255-.793 3.384l-.456-.024a3.914 3.914 0 0 1-.124-1.13c1.071-6.085 2.022-12.191 3.286-18.231 1.675-8.008 2.973-16.016 2.765-24.252-.104-4.133.381-8.3.847-12.418a11.222 11.222 0 0 1 2.622-6.001ZM88.17 155.234c.258 1.511.555 3.018.768 4.539.758 5.451 1.13 10.902-.704 16.254-.946 2.76-2.517 5.094-5.054 6.635-.451.273-1.165.124-1.76.168.065-.555-.049-1.219.219-1.65 1.085-1.744 2.299-3.409 3.434-5.124a13.318 13.318 0 0 0 2.24-7.091c.089-3.37.079-6.749.168-10.124.03-1.199.203-2.398.312-3.597l.377-.01Zm-37.374 15.575c.222-.023.446-.023.669 0 1.828.376 2.378.099 2.83-1.72.258-.996.375-2.024.346-3.052-.352-8.147-.812-16.289-1.134-24.436-.16-4.147-.12-8.31-.13-12.463.05-.689.156-1.374.318-2.046l.376-.025c.159 1.422.412 2.835.461 4.257.164 4.569.199 9.143.392 13.711.252 5.883.728 11.765.867 17.652a39.2 39.2 0 0 1-.798 7.695c-.158.868-.99 1.735-1.724 2.349-.734.615-.243.863 0 1.289.248.396.47.808.664 1.234 0 0-.496.371-.565.312a3.362 3.362 0 0 1-1.185-1.085c-.52-1.115-.897-2.324-1.387-3.672Zm93.627-97.369c.06.416.109.733.129.886l-6.586-3.77 1.363.133c-1.036-1.546-1.154-1.57-2.448-.496-.832.69-3.265.803-4.494-.05a18.37 18.37 0 0 1 2.864-.965c1.14-.184 1.402-.877 1.159-1.75-.28-1.024-.7-2.004-1.248-2.913a28.594 28.594 0 0 0-2.136-2.711 9.528 9.528 0 0 1-.763-10.461c.074-.124.188-.223.52-.263a10.992 10.992 0 0 1-.223 1.616c-.991 3.523-.223 6.566 2.314 9.207.784.791 1.476 1.67 2.062 2.616.495.828 1.025 1.804 1.021 2.716 0 1.566.782 2.33 1.982 2.899.991.456 1.947.882 2.928 1.298 3.687 1.561 5.417 4.837 4.386 8.712-.372 1.402-1.15 2.706-1.814 4.019-.124.248-.57.327-.867.495-.054-.327-.233-.693-.139-.99.426-1.29.952-2.543 1.403-3.821.996-2.78.52-4.966-1.413-6.408ZM75.87 100.828c-1.486.619-2.918 1.348-4.46 1.828-4.182 1.329-8.518 1.581-12.849 1.314-4.955-.303-9.936-.798-14.866-1.378a14.327 14.327 0 0 1-4.302-1.447 1.604 1.604 0 0 1-.907-2.092c.105-.263.278-.493.501-.668.496-.496.991-.441 1.02.277.08 1.086.794 1.546 1.631 1.774 1.651.511 3.34.892 5.05 1.14 7.795.877 15.604 1.457 23.41.134 1.887-.317 3.746-.823 5.619-1.244l.153.362Zm26.283 37.032c-.133 2.274-.178 4.564-.421 6.828-.798 7.404-2.735 14.579-4.698 21.725-2.715 9.881-4.89 19.822-5.45 30.099a1.653 1.653 0 0 1-.452 1.105 7.407 7.407 0 0 1-.143-1.035 68.57 68.57 0 0 1 1.779-15.575c1.952-8.677 4.212-17.29 6.105-25.982 1.234-5.669 2.046-11.427 3.052-17.145l.228-.02Z" fill="#AC6719"/><path d="M44.607 105.164a21.286 21.286 0 0 0-.357 2.205c-.07 1.487.045 2.973-.134 4.435-.178 1.462-1.134 1.844-2.23.947 1.834-1.15 1.413-3.038 1.586-4.748.052-.986.18-1.967.382-2.933.307-1.155.99-1.427 1.893-.867 3.206 1.982 6.754 2.799 10.456 2.973a4.236 4.236 0 0 1 3.226 1.521c.158.189.337.367.495.545 2.062 2.156 3.216 2.171 5.377.075 1.982-1.918 3.266-1.725 4.594.708.356.621.562 1.317.6 2.032-.496-.738-.962-1.516-1.527-2.205-1.026-1.249-1.834-1.259-2.755.069a4.492 4.492 0 0 1-3.415 1.982c-.788.075-1.878-.119-2.383-.634-1.79-1.819-3.751-2.502-6.358-2.527-3.043-.035-5.947-1.244-8.523-2.973-.189-.164-.402-.283-.927-.605Zm57.933-64.738c1.378 0 2.775-.163 4.123.03 3.296.495 6.571 1.13 9.857 1.695 4.405.763 8.8.446 13.161-.323 3.405-.6 6.784-1.357 10.179-2.036.376-.075.768-.084 1.154-.124l.104.377c-1.219.495-2.418 1.06-3.667 1.486-6.972 2.27-14.078 2.478-21.259 1.21-1.095-.189-2.19-.377-3.29-.536-.694-.099-1.487-.436-1.878.58-.06.144-.535.243-.773.183-3.058-.753-6.061-.302-9.054.372a.685.685 0 0 1-.654-.228l5.05-1.64v-.248l-3.078-.263.025-.535ZM61.069 11.63c.244.318.471.648.679.991 2.864 5.322 7.294 8.816 12.82 11.076a41.89 41.89 0 0 1 4.217 2.051c.322.179.43.738.639 1.12-.397.09-.852.347-1.184.238-4.515-1.487-8.846-3.395-12.632-6.348-2.042-1.59-3.8-3.469-4.544-6.01a20.566 20.566 0 0 1-.421-2.974l.426-.144Zm30.967 36.978-2.632 1.982-.257-.248c.703-.733 1.298-1.635 2.135-2.166 1.334-.842 1.334-2.017 1.314-3.587-2.354 1.13-4.198 2.502-5.422 4.638-1.278 2.235-.99 4.579-.555 6.962a5.45 5.45 0 0 1-.99-5.168c.936-3.405 3.17-5.709 6.402-7.057.728-.307 1.486-.545 1.427-1.67-4.088.991-6.849 3.628-9.168 6.893l-.44-.361c.639-.992 1.085-2.23 1.952-2.974a31.081 31.081 0 0 1 5.213-3.468 43.11 43.11 0 0 1 5.163-2.032 1.31 1.31 0 0 1 1.061.153 3.93 3.93 0 0 1-.724.66c-2.289 1.228-2.879 3.295-3.002 5.698a40.85 40.85 0 0 1-.645 4.762c-.051.498-.26.967-.594 1.338-1.24 1.056-.684 1.819.153 2.805a4.46 4.46 0 0 1 1.244 3.558l-2.973-5.307c1.303-1.333 1.521-3.246 1.69-5.179l-.352-.233Z" fill="#AC6719"/><path d="M62.873 115.699c-1.021.154-2.042.322-3.068.461-5.704.743-11.397 1.07-17.076-.248-.877-.208-1.74-.495-2.612-.738-1.11-.307-1.68-1.17-1.363-2.146.992-3.013.838-6.09.813-9.172a3.4 3.4 0 0 1 .263-.664c.262.629.56 1.02.565 1.422a56.875 56.875 0 0 1-.025 6.501c-.238 2.478-.129 2.845 2.304 3.38 3.637.73 7.353.985 11.056.758 2.676-.109 5.352-.089 8.028-.104.377.025.75.08 1.12.164l-.005.386ZM188.76 167.34c1.373 1.814 1.859 3.667 2.24 5.54.877 4.252.347 8.464-.595 12.622-1.03 4.568-2.606 8.919-5.574 12.656a21.13 21.13 0 0 1-2.344 2.358c-.218.199-.63.184-.952.263-.012-.337.04-.673.154-.991 1.487-2.379 3.072-4.688 4.46-7.106 3.652-6.308 5.193-13.053 3.875-20.317-.283-1.586-.783-3.147-1.264-5.025Zm-71.695 27.012c2.72-7.973 3.087-16.219 3.469-24.485.257-5.55.847-11.09 1.377-16.625a12.097 12.097 0 0 1 1.209-3.965c-.887 11.001-1.61 22.022-2.76 32.998-.401 3.836-1.858 7.562-2.854 11.334a3.225 3.225 0 0 1-.441.743ZM96.52 128.355c-1.08 3.36-1.982 6.829-3.32 10.144-1.135 2.855-2.706 5.535-4.108 8.281-.308.589-.759 1.239-1.542.793-.782-.446-.356-1.14-.099-1.74 2.524-5.814 5.043-11.622 7.557-17.423.044-.16.112-.312.204-.451.227-.238.495-.441.748-.659l.56 1.055Zm80.179 32.082c4.613 6.333 2.373 27.393-3.667 34.386.053-.389.141-.772.262-1.145a75.222 75.222 0 0 0 4.317-14.302c1.02-5.451.361-10.842-.541-16.224-.148-.902-.247-1.813-.371-2.715Zm46.575 38.791c.134-.828.297-1.645.401-2.478.595-4.752-.589-9.232-1.982-13.716-2.086-6.725-4.019-13.499-6.021-20.253-.386-1.304-.797-2.602-1.189-3.905-.114-.372-.188-.758-.282-1.14l.465-.178c.783 1.898 1.76 3.746 2.305 5.713 1.244 4.46 2.2 9.044 3.429 13.534 1.07 3.934 2.453 7.78 3.503 11.719.943 3.404.86 7.01-.237 10.367-.04.134-.104.258-.154.391l-.238-.054ZM121.768 69.01c-.396-.065-.496-.12-.55-.085-2.022 1.794-4.643 2.393-7.007 3.498-3.152 1.487-4.202 3.206-3.776 6.284.188 1.343.575 2.656.842 3.989a5.05 5.05 0 0 1 .07 1.982c-1.185-3.028-2.726-6.006-1.631-9.385.62-1.923 2.186-3.068 3.935-3.895 1.749-.828 3.682-1.457 5.421-2.379a12.066 12.066 0 0 0 2.676-2.24c.669-.654 1.214-1.427 2.706-1.358l-1.353 1.165c-.709.614-1.462 1.19-.496 2.23.124.139-.069.827-.302.99a22.601 22.601 0 0 1-3.132 1.929 45.347 45.347 0 0 1-4.707 1.858c1.903-2.205 5.272-2.2 7.304-4.584Zm-15.535-16.79c.1-.165.22-.318.356-.456 3.425-2.785 7.171-4.668 11.765-4.237 1.389.191 2.794.234 4.192.13 1.036-.125 1.982-.789 3.018-1.14a6.185 6.185 0 0 1 1.397-.16c-.044.496.089 1.175-.168 1.383a5.64 5.64 0 0 1-5.654 1.408c-3.142-.67-6.036 0-8.89 1.263-1.542.69-3.147 1.23-4.728 1.814a8.133 8.133 0 0 1-1.155.268l-.133-.273ZM76.5 35.198l4.837-.852.079-.352c-.53-.139-1.056-.302-1.596-.416-3.528-.767-7.056-1.53-10.585-2.29l.05-.53c.41-.025.82-.025 1.229 0l15.699 1.982a.623.623 0 0 1 .243.045c.495.337.99.684 1.461 1.026-.54.267-1.055.698-1.62.768-2.864.361-5.733.634-8.603.921-.391.02-.783.02-1.174 0l-.02-.302Zm3.325-24.504c.218 2.125.411 4.013.61 5.906l-.66.045c-.251-2.815-.505-5.623-.763-8.424l.495-.169c.774.828 1.517 1.685 2.325 2.478 2.705 2.646 5.45 5.268 8.141 7.929.412.342.764.75 1.041 1.209.111.428.141.873.09 1.313-.392-.07-.908 0-1.16-.223-1.8-1.566-3.603-3.142-5.293-4.817-1.457-1.447-2.77-3.037-4.152-4.559-.144-.218-.328-.361-.674-.688Z" fill="#AC6719"/><path d="m138.067 75.991-1.809-2.805.307-.237 2.289 2.943c.912-.257 2.364.63 3.499-.674.089-.104.634 0 .718.129.309.546.56 1.122.749 1.72 0 .044-.57.446-.778.376-2.974-.917-5.719 0-8.424.991a16.692 16.692 0 0 1-9.128.496c-2.746-.56-5.516-.991-8.266-1.522a9.509 9.509 0 0 1-1.254-.41l.055-.343c1.764.218 3.533.402 5.292.66 1.18.173 2.344.455 3.518.678 2.809.57 5.719.373 8.425-.57 1.476-.525 3.032-.911 4.807-1.432ZM62.272 9.534a5.421 5.421 0 0 1 .154-5.07c.723-1.427 1.888-2.646 2.924-3.894.659-.793 1.486-.66 2.339-.199 2.973 1.591 5.03 4.089 6.57 7.012.858 1.63 1.537 3.36 2.24 5.075.124.297-.044.718-.074 1.085-.302-.218-.713-.367-.887-.66-1.556-2.66-2.973-5.4-4.628-8.002-.848-1.338-2.067-2.443-3.122-3.647-.555-.63-1.07-.58-1.67 0-2.33 2.274-3.885 4.89-3.846 8.3Zm14.481 164.6c.109-.496.094-.699.183-.793 3.444-3.613 3.781-8.092 3.523-12.711-.322-5.803-.718-11.606-1.05-17.408-.075-1.274 0-2.552 0-3.826l.302-.03c.282 2.478.689 4.906.828 7.374.327 5.679.565 11.368.763 17.052.08 2.274-.08 4.544-1.1 6.65a8.644 8.644 0 0 1-3.45 3.692Zm133.89-16.601c-1.868-3.191-3.603-6.442-5.639-9.544-1.675-2.532-3.791-4.767-5.546-7.255-1.982-2.815-3.795-5.758-5.673-8.647a1.356 1.356 0 0 1-.253-.56c-.055-.496-.05-.991-.07-1.447.342.332.803.609.991 1.016a65.748 65.748 0 0 0 8.593 12.79c3.32 3.964 5.669 8.464 7.696 13.166.037.149.054.303.05.456l-.149.025ZM73.204 98.955a57.834 57.834 0 0 1-23.84 2.15c-1.864-.213-3.653-1.179-5.452-1.873-.248-.094-.332-.614-.495-.941.332 0 .723-.094.99.05 5.04 2.695 10.472 2.735 15.938 2.214 3.731-.356 7.433-.99 11.154-1.486.56-.08 1.13-.085 1.705-.114Zm35.783-42.215c2.919-1.899 6.199-1.19 9.415-.883l.065-.52-5.62-1.705c1.532-.703 5.947.595 7.478 2.22l-.694.991.298.208c.429-.345.89-.648 1.377-.906a.915.915 0 0 1 .843.242.926.926 0 0 1-.154.838c-.585.718-2.512.753-3.375.441a14.415 14.415 0 0 0-3.82-.823 43.254 43.254 0 0 0-4.668.13c-.357 0-.714.089-1.066.138l-.079-.372Zm39.753 59.559c.327 2.398.604 4.807.991 7.2.654 3.964 2.16 7.488 5.401 10.119a10.804 10.804 0 0 1 1.982 2.478c.183.421.296.87.332 1.328l-.406.233c-2.185-2.716-4.792-5.194-6.442-8.201-2.23-4.024-2.473-8.623-1.858-13.157Zm-46.214-20.887c.346 1.2.61 2.424.787 3.662.193 1.596.175 3.21-.054 4.801-.729 3.861.495 6.938 3.162 9.659.341.446.627.932.852 1.447-.496-.228-1.026-.451-1.536-.684a1.305 1.305 0 0 1-.189-.159c-3.057-2.24-4.375-5.148-3.468-8.92.666-3.028.693-6.162.079-9.202a2.565 2.565 0 0 1 0-.495l.367-.11ZM48.537 146.71a8.197 8.197 0 0 1-.238-1.234c-.134-4.98-.337-9.965-.322-14.945 0-1.561.565-3.137.99-4.673.189-.684.734-1.199 1.77-.793-1.665 1.229-1.913 2.973-1.883 4.742.06 3.499.238 6.992.352 10.491.059 1.685.123 3.375.118 5.064a5.634 5.634 0 0 1-.366 1.393l-.421-.045ZM151.005 38.712c3.607-.283 7.23-.437 10.679.733 6.164 2.091 9.286 7.106 8.692 13.712-.055.6-.149 1.189-.228 1.784l-.352.044a3.925 3.925 0 0 1-.263-.907c-.034-1.03-.064-2.061 0-3.092.248-4.985-2.477-8.092-6.556-10.292-2.19-1.18-4.613-1.423-7.061-1.541-1.65-.08-3.281-.293-4.911-.441Zm-28.88 43.647c1.536.218 3.087.382 4.619.66 2.879.524 5.713.673 8.508-.462.317-.129.788.12 1.185.194-.184.356-.278.857-.575 1.06a7.252 7.252 0 0 1-5.308 1.184c-2.71-.45-5.366-1.219-8.037-1.873-.198-.05-.347-.282-.526-.436l.134-.327Zm70.01 90.888c2.056 4.777.213 17.344-2.914 19.484a49.928 49.928 0 0 0 2.914-19.484ZM91.073 30.976l-21.54-1.893c7.294-.634 14.538-.694 21.54 1.893Z" fill="#AC6719"/><path d="M164.806 52.18a7.667 7.667 0 0 1-.495-1.015c-1.512-4.713-4.837-7.399-9.515-8.633-1.457-.381-2.869-.946-4.296-1.427l.049-.426a5.951 5.951 0 0 1 1.299 0c4.132.922 7.899 2.587 10.961 5.6a7.96 7.96 0 0 1 2.398 4.37c.038.465.038.933 0 1.398l-.401.133Zm-29.862 4.609c.525-.144 1.061-.243 1.571-.431 2.235-.828 4.49-1.422 6.848-.56.462.168.885.428 1.244.763.223.208.253.624.367.947-.327.099-.679.322-.991.267-.684-.119-1.328-.446-2.007-.565-2.24-.376-4.405-.322-6.284 1.254a.955.955 0 0 1-.931-.094 4.814 4.814 0 0 1-.555-1.536c0-.075.391-.258.604-.387l.134.342Zm-58.217-3.622c-.436-1.829.094-3.44.991-4.956 2.121-3.533 5.451-5.495 9.133-7.022 2.795-1.164 5.748-1.6 8.712-1.982l.094.347c-.966.285-1.947.514-2.939.689a21.665 21.665 0 0 0-10.228 3.964c-2.889 2.116-4.598 5-5.59 8.375-.049.218-.113.401-.173.585Zm24.852 73.043c-3.211-2.151-6.987-2.845-10.5-4.193-2.21-.847-3.93-2.373-5.452-4.147a1.154 1.154 0 0 1-.148-1.066c.233.104.535.154.688.327 2.88 3.192 6.646 4.738 10.655 5.902a8.425 8.425 0 0 1 4.757 3.177Zm-19.797-12.235c1.06-1.869.362-3.068-1.184-4.029a1.609 1.609 0 0 1-.536-1.145c-.198-2.373-.332-4.757-.495-7.136a2.37 2.37 0 0 1-.025-.852c.163-.325.362-.631.595-.912.188.278.495.54.54.833.228 2.334.357 4.678.62 7.007a3 3 0 0 0 .777 1.65c1.338 1.368 1.591 3.251.461 4.415a1.46 1.46 0 0 1-.406.213l-.347-.044Zm1.332-15.456c.258-5.996-1.774-10.367-8.25-11.601l.079-.426c.458-.113.93-.16 1.402-.139 3.791.818 6.046 3.4 7.34 6.829.435 1.17.302 2.576.306 3.875 0 .495-.337.99-.495 1.457l-.382.005Zm37.435-38.876c-1.982 1.522-4.514 1.908-7.026 2.334-2.513.427-5.06.744-7.508 1.413-1.66.456-3.171 1.442-4.678 2.16a4.79 4.79 0 0 1 3.31-2.611c2.894-.758 5.863-1.23 8.801-1.829l7.101-1.467Zm98.841 122.965c-2.082-6.75-4.064-13.147-6.041-19.545l.312-.094a61.942 61.942 0 0 1 5.729 19.639ZM42.67 89.683a3.92 3.92 0 0 1 3.33-.495c.961.213 1.883.654 2.85.783 1.981.267 3.963.396 5.975.574 1.104.022 2.204.13 3.29.323.726.28 1.344.783 1.765 1.437-1.982-1.487-4.163-.947-6.303-.992a35.944 35.944 0 0 1-5.095-.495c-1.873-.263-3.721-.709-5.812-1.135Z" fill="#AC6719"/><path d="M155.961 40.114c1.149.337 2.334.59 3.468 1.026 4.53 1.754 7.815 4.653 8.643 9.717.105.489.158.987.158 1.487a2.464 2.464 0 0 1-.406.852c-.176-.239-.32-.5-.426-.778-.421-1.58-.625-3.24-1.239-4.737-1.363-3.3-4.257-4.866-7.433-6.021-.962-.347-1.918-.719-2.874-1.08l.109-.466Zm54.628 123.034c-3.216-5.268-5.451-11.14-9.703-15.759l.228-.262c.324.2.631.428.917.678 2.78 2.83 4.703 6.225 6.413 9.758.852 1.769 1.625 3.578 2.438 5.371l-.293.214Zm-42.691 8.012c-1.893-.748-3.756-1.59-5.688-2.225-2.771-.916-5.65-.926-8.549-.802-2.006.089-4.023-.05-6.035-.114a8.794 8.794 0 0 1-1.284-.268c.367-.218.496-.352.61-.352 3.127.035 6.254.124 9.375.119a22.36 22.36 0 0 1 10.823 2.924c.306.186.601.392.882.614l-.134.104Zm12.478-2.472c1.685 3.26 1.576 11.754 0 13.226v-13.226ZM152.199 42.909c4.217.233 9.588 5.297 9.688 9.009-2.359-3.94-5.218-7.344-9.688-9.01ZM78.72 103.553c-.07 1.423-.035 2.85-.223 4.252-.228 1.67-.268 3.182 1.224 4.366.28.338.44.76.456 1.199.024.193-.268.426-.417.644a4.273 4.273 0 0 1-.535-.401c-2.854-2.899-1.62-6.343-1.258-9.663 0-.169.218-.312.332-.466l.42.069Zm34.966 21.462 5.51-8.632c-.252 3.469-3.023 8.246-5.129 8.86l-.381-.228Zm-55.462 65.452c-.545 2.973-9.177 9.742-11.269 9.524 4.143-2.715 8.048-5.713 11.269-9.524ZM92.68 76.74c-1.12-1.25-2.32-2.443-3.346-3.766-1.54-1.983-1.407-4.5.372-6.15.614-.565 1.566-.793 2.398-1.066.204-.069.545.283.818.446a5.248 5.248 0 0 1-.763.427 2.475 2.475 0 0 1-.61.03 2.626 2.626 0 0 0-2.368 2.308c-.283 1.958.466 3.519 1.789 4.911.763.803 1.412 1.715 2.11 2.572l-.4.288ZM79.513 51.432c.58-3.93 6.879-9.242 10.268-9.648-4.326 2.255-7.612 5.634-10.268 9.648Zm17.973-25.659c-3.524-1.184-4.956-11.482-2.696-14.465-.545 5.223-1.016 10.243 2.696 14.465Zm-1.982 114.862c-.495-1.016 1.378-7.131 2.429-7.963.545 1.888-.996 6.952-2.429 7.963Zm37.052-13.692-10.407-1.219c1.036-1.68 7.325-.505 10.407 1.219ZM117.75 28.171c-.169-3.364-1.779-6.209-3.053-9.167 0-.065.109-.198.169-.298 1.917.645 3.865 6.8 2.884 9.465Zm-22.603 36.15c1.18-3.042 1.615-6.105.808-9.336 1.219.496 1.13 1.626 1.219 2.537.247 2.518.01 4.941-2.027 6.8Zm48.752 24.074c-1.036 2.388-1.913 4.866-3.162 7.136-.991 1.823-2.973 2.418-4.955 2.71 5.04-1.447 5.733-6.239 7.701-10.04l.416.194Zm1.561 55.724a8.367 8.367 0 0 0-.283 6.937c-1.486-.277-1.709-1.328-1.843-2.344-.258-1.977.664-4.073 2.126-4.593Zm-41.532-76.611c1.779-1.8 3.821-2.478 5.907-3.108a1602.36 1602.36 0 0 1 9.911-2.839c.059 0 .149.045.342.372-1.254.495-2.478 1.06-3.771 1.422-2.478.704-5.04 1.174-7.503 1.947-1.6.51-3.097 1.378-4.886 2.206Zm113.128 114.698c-1.983-.495-3.558-.902-5.149-1.229-.877-.183-1.799-.168-2.681-.327-.243-.045-.431-.396-.644-.604.243-.179.53-.546.723-.496 2.3.54 4.589 1.13 6.869 1.749.242.075.431.436.882.907ZM104.919 90.754c-2.106-.09-6.348-5.015-6.873-7.652l6.873 7.651Zm-35.937.946c-.05-2.478 4.867-3.895 8.063-2.379-1.517.154-2.974.104-4.272.496-1.298.391-2.453 1.209-3.79 1.883Zm42.757 2.408c-2.215-2.14-3.603-4.811-4.832-7.581a18.27 18.27 0 0 1 4.832 7.581Zm18.805 9.802c-1.075 1.586-6.601 1.596-9.975 0h9.975Z" fill="#AC6719"/><path d="M152.655 44.202c3.062.709 6.824 5.867 6.036 8.657-1.373-3.597-2.79-6.803-6.036-8.657ZM94.136 73.186c-1.59-1.303-1.62-3.126-1.54-5.292l-2.186 1.982-.258-.208a19.72 19.72 0 0 1 1.983-2.309c.148-.134 1.283.362 1.347.689.323 1.67.446 3.364.654 5.138Zm89.252 53.118c1.898-.605 6.269 1.982 7.156 3.994l-7.156-3.994ZM98.661 50.238c.297-.183.59-.382.897-.555 1.883-1.075 3.766-2.16 5.664-3.211.279-.096.572-.143.867-.139-.094.273-.104.624-.282.818-1.427 1.546-4.817 3.112-7.146 3.087ZM73.403 173.921a18.88 18.88 0 0 0 4.133-10.243c1.06 2.046-1.665 9.955-4.133 10.243Zm100.218-30.006c0-2.77 1.085-5.188 2.537-7.492-.173 2.706-1.477 5.054-2.537 7.492Zm-22.502-98.226c1.486.99 3.003 4.955 2.477 6.774-.054.198-.282.342-.431.495-.163-.193-.446-.366-.495-.58a23.529 23.529 0 0 0-.238-2.442c-.377-1.467-.892-2.914-1.313-4.247Zm-43.424-18.395-6.972-3.166c1.149-.878 6.313 1.308 6.972 3.166ZM64.666 170.536c0 1.457.035 2.919-.03 4.371 0 .252-.391.54-.669.703-.07.045-.55-.307-.56-.495a10.195 10.195 0 0 1 .704-4.658l.555.079ZM149.9 72.433c-.263-3.072-1.725-5.376-4.545-7.071 2.572.06 5.967 4.762 4.545 7.071Zm5.902-20.243c-1.294-2.557-2.538-5.03-3.638-7.2 1.675.823 4.257 5.47 3.638 7.2ZM77.818 162.285v-10.877h.342c.496 3.622.159 7.25-.342 10.877Zm30.431-136.358-7.671-6.497.228-.263c2.746 1.933 5.516 3.84 7.443 6.76ZM75.732 137.31c-.744-2.399-.991-6.556-.144-7.721l.496 7.701-.352.02Zm43.633-40.293c-2.22 0-5.129-3.335-5.213-5.872 1.011 2.587 3.157 4.207 5.213 5.872Zm23.285-42.988-7.15 1.442c1.278-1.492 5.966-2.473 7.15-1.442Zm-64.386 69.99c.496 2.721 1.487 5.347 1.368 8.167l-.357.064c-.522-2.715-1.04-5.434-1.556-8.156l.545-.075Zm-9.52 45.858c-.495 1.536-.961 3.082-1.53 4.594-.12.307-.63.461-.962.688a3.095 3.095 0 0 1 .035-1.075c.614-1.487 1.293-2.938 1.947-4.4l.51.193ZM110.781 58.96c2.359-.907 4.737-1.537 7.205-.873l.035.496-7.24.376Zm-50.51 112.76c.55 1.368 1.046 2.503 1.452 3.672a.87.87 0 0 1-.391.744 1.03 1.03 0 0 1-.848-.248c-.743-.758-.897-2.854-.213-4.168ZM139.28 58.112c1.754-.942 5.684.08 6.204 1.487l-6.204-1.487ZM109.835 166.72a2.65 2.65 0 0 1 .57-4.311c.991 1.239.803 2.805-.57 4.311Zm.684-3.236-.411-.099c-.892.565-.635 1.333-.065 2.166l.476-2.067ZM96.871 11.09c2.414 1.328 3.583 3.707 5.07 5.832l-.377.293-4.693-6.125ZM67.639 89.668l-5.971-2.805c2.026-.619 5.59 1.22 5.971 2.805Zm59.724-8.256 7.244-.55c-1.367 1.09-4.697 1.348-7.244.55Zm-3.945-9.861c-1.586 1.522-3.821 1.953-5.6 3.147l-.243-.411 5.451-3.316.392.58Zm-75.66 100.105c.927 1.026 1.715 1.878 2.478 2.76a.771.771 0 0 1 0 .634 1.51 1.51 0 0 1-.897.055c-1.016-.382-1.764-1.938-1.58-3.449Zm167.974 12.453-5.188-1.407.134-.471c1.982-.362 3.548.634 5.163 1.487l-.109.391ZM55.296 172.137c.688.907 1.387 1.744 1.982 2.651.148.228 0 .664-.04.991a2.484 2.484 0 0 1-.877-.208c-.887-.634-1.402-2.285-1.065-3.434Zm131.666-47.156c1.487-.372 4.46 1.6 5.238 3.384l-5.238-3.384Zm-61.725-57.127c1.229-.584 3.102-.327 3.622.328.154.188.278.629.179.738a.957.957 0 0 1-.828.302c-.917-.371-1.809-.822-2.973-1.368Zm38.092-4.737 3.776-5.094c-.654 2.126-1.596 4.053-3.325 5.45l-.451-.356Zm-60.455-18.642c1.407-.169 2.815-.352 4.227-.496a.757.757 0 0 1 .609.436c.045.164-.238.61-.381.61-1.487 0-2.973-.03-4.46-.06l.005-.49Zm39.132 30.085-1.353-.749v.862l-4.242-2.478.134-.312c.931.397 1.853.823 2.8 1.175.386.143.872.03 1.248.188.578.285 1.138.606 1.675.961l-.262.352Zm6.754 4.078-1.328-4.99c1.383.53 2.29 3.428 1.328 4.99Zm18.182 58.731c-1.03-.664-1.09-3.295-.401-3.81.109-.08.728.228.723.337-.064 1.159-.203 2.314-.322 3.473Zm-35.933-1.476c2.191-1.487 4.673-1.621 7.171-1.418l-7.171 1.418Zm11.453 23.34c-.817-1.15-.54-3.846.387-4.862v4.886l-.387-.024Zm38.895-30.793c1.923-.496 4.004.535 5.327 2.477l-5.327-2.477Zm-53.871-76.473c1.388.57 2.052 2.107 1.571 3.033-.084.159-.292.372-.421.357-.203 0-.53-.173-.565-.332-.218-.937-.357-1.888-.585-3.058Zm4.277 42.741v-4.91c1.239 1.149 1.253 3.409 0 4.91ZM96.242 53.746c1.844-.43 3.965.61 4.292 2.206l-4.292-2.206Zm36.165 14.312c.701-.33 1.419-.625 2.15-.882.174-.055.63.272.684.495.055.223-.193.719-.381.758-.762.13-1.529.219-2.3.268l-.153-.64Zm-26.496 117.845c1.085 1.368.688 3.434-.828 3.915.282-1.299.565-2.656.828-3.915ZM49.453 93.618c-.496 1.075-.942 2.15-1.452 3.21-.08.164-.372.224-.565.333-.064-.208-.243-.496-.173-.62.555-1.07 1.154-2.12 1.739-3.176l.45.253Zm75.466-24.45c1.135.381 2.418.391 3.405 1.427a2.7 2.7 0 0 1-3.405-1.427Zm-14.876 76.313 2.711-2.591c.347 1.362-1.14 2.993-2.711 2.591ZM41.762 92.513v3.582c-.976-1.15-1.016-2.482 0-3.582Zm32.344 100.66c-.455-1.145.392-2.315 2.622-3.41l-2.621 3.41ZM109.335 73.39c-.495 1.16-.991 2.319-1.546 3.558-.466-1.19.169-2.85 1.546-3.558ZM77.01 95.783l2.527-2.254c.055 1.194-1.115 2.348-2.24 2.567l-.287-.313Zm66.62-15.431c.451-1.239.843-2.32 1.234-3.404.828.6.194 2.71-1.234 3.404ZM47.15 92.84l-1.16 3.78c-.763-1.075-.278-2.66 1.16-3.78Zm117.045 52.171-4.162-3.712.386-.411 3.965 3.89-.189.233Zm-51.843-68.43v4.247h-.371v-4.272l.371.025Zm70.194 56.566-3.037-1.085c1.536-.793 2.591-.401 3.037 1.085ZM44.304 92.656l-.302 3.212-.713-.085.446-3.196.57.07ZM120.96 74.95l3.424-3.067.323.367-3.469 2.973-.278-.272ZM39.27 93.142l.308 2.69-.496.07a2.974 2.974 0 0 1-.248-2.72l.437-.04Zm12.28 1.353-1.636 2.75-.496-.342 1.809-2.666.322.258Zm90.644 54.51 1.531 2.691-.431.262-1.635-2.651.535-.302Zm-5.813-73.177-2.933-3.37c1.581.847 2.606 1.829 2.933 3.37ZM108.174 58.32l-2.76.778-.139-.45 2.701-.868.198.54Zm-9.881-6.269h2.399c-.427 1.106-1.14 1.155-2.399 0ZM108.919 30l-2.81-1.839.168-.292 2.944 1.625-.302.506Zm18.132 47.052.382-2.681.495.044c-.079.897-.153 1.794-.233 2.691l-.644-.054Zm7.542-11.794c-.451.872-1.328.822-2.161.852l-.153-.332 2.066-.956.248.436ZM74.88 93.073c-.441.842-.877 1.69-1.318 2.537l-.555-.322 1.486-2.453.387.238Zm-37.45.619c.135 1.18.239 2.047.363 3.137-.897-.818-.982-1.635-.362-3.137Zm103.718 66.051-.495-2.705.441-.105c.183.887.372 1.775.555 2.666l-.501.144ZM77.169 93.147l-1.556 2.18-.427-.337 1.66-2.096.323.253Zm27.345 92.731v2.77c-.808-.832-.788-1.685 0-2.77Zm27.72-108.728-.892-2.422.352-.164c.352.778.709 1.556 1.06 2.34l-.52.247Zm-17.542-1.263c-.218.496-.436 1.031-.649 1.546l-.461-.109c.036-.45.115-.897.238-1.333.064-.173.436-.228.664-.342l.208.238ZM72.248 93.32l-.386 1.898-.585-.118.392-1.898.58.118Zm68.637 70.863v-1.982h.367v1.982h-.367Z" fill="#AC6719"/><path d="M46.494 183.851a12.85 12.85 0 0 1 1.041-1.982c.169-.218.733-.134 1.115-.183.012.81-.031 1.619-.129 2.423 0 .124-.783.178-1.2.154-.247.005-.485-.223-.827-.412Zm64.025-20.367-.496 2.067c-.57-.833-.828-1.601.064-2.166l.432.099Z" fill="#fff"/><path d="M22.371 125.59c1.393-.124 2.102.595 2.344 1.641.243 1.045.714 1.1 1.581.991a28.44 28.44 0 0 1 3.325-.228c.46.016.9.203 1.23.525-4.704.575-9.307 1.358-13.559 3.523l-.188-.456c1.625-.768 3.216-1.625 4.886-2.279 2.408-.942 2.478-1.209.614-3.152-.079-.094-.094-.233-.233-.565Zm-4.444 40.952 11.398-3.613c-1.016 2.067-9.802 5.204-11.398 3.613Zm1.451 18.167a1.8 1.8 0 0 1 .66.173c3.726 2.795 7.928 3.88 12.537 3.578.406-.03.817 0 1.273 0-3.42 1.843-10.322 0-14.44-3.776l-.03.025Zm7.766-17.453a17.98 17.98 0 0 1-8.816 2.14c.47-.916 7.012-2.458 8.816-2.14Zm-8.533 4.286 6.774-.813c-1.56 1.175-5.342 1.725-6.72 1.284l-.054-.471Zm-.149 1.249 5.189.921-.055.372-5.243-.59.11-.703Zm-6.655-17.26a2.521 2.521 0 0 1 3.468 0h-3.468Zm-5.823-16.264L2.4 137.136l.248-.431 3.657 2.017-.322.545Zm-.064 6.764 3.503 1.036-.144.54c-1.328.199-2.378-.535-3.468-1.105l.109-.471Zm17.76-29.306c-.892.495-1.754 1.11-2.695 1.536-1.532.694-3.117 1.274-4.683 1.908-1.432.58-2.746 1.308-3.47 2.785a1.046 1.046 0 0 1-.678.431 4.948 4.948 0 0 1 2.8-3.558c1.209-.605 2.517-.991 3.776-1.487 1.59-.624 3.171-1.263 4.757-1.897l.193.282Z" fill="#AC6719"/></svg>